<?xml version="1.0" encoding="UTF-8" standalone="no"?>
<!-- Created with Inkscape (http://www.inkscape.org/) -->

<svg
   xmlns:dc="http://purl.org/dc/elements/1.1/"
   xmlns:cc="http://creativecommons.org/ns#"
   xmlns:rdf="http://www.w3.org/1999/02/22-rdf-syntax-ns#"
   xmlns:svg="http://www.w3.org/2000/svg"
   xmlns="http://www.w3.org/2000/svg"
   xmlns:sodipodi="http://sodipodi.sourceforge.net/DTD/sodipodi-0.dtd"
   xmlns:inkscape="http://www.inkscape.org/namespaces/inkscape"
   id="svg2"
   version="1.1"
   inkscape:version="0.91 r13725"
   xml:space="preserve"
   width="238.75"
   height="131.25"
   viewBox="0 0 238.75 131.25"
   sodipodi:docname="angle.svg"><metadata
     id="metadata8"><rdf:RDF><cc:Work
         rdf:about=""><dc:format>image/svg+xml</dc:format><dc:type
           rdf:resource="http://purl.org/dc/dcmitype/StillImage" /><dc:title></dc:title></cc:Work></rdf:RDF></metadata><defs
     id="defs6"><clipPath
       clipPathUnits="userSpaceOnUse"
       id="clipPath18"><path
         d="M 0,1050 0,0 l 1910,0 0,1050 -1910,0 z m 1083.15,-601.02 45.98,-83.777 33.39,18.266 -45.98,83.777 0,0 20.15,-75.586 -53.54,57.32 z m -294.795,18.266 -45.98,-83.777 33.383,-18.266 45.984,83.777 0,0 -52.914,-57.32 19.527,75.586 z"
         id="path20"
         inkscape:connector-curvature="0"
         style="clip-rule:evenodd" /></clipPath><clipPath
       clipPathUnits="userSpaceOnUse"
       id="clipPath48"><path
         d="M 0,1050 0,0 l 1910,0 0,1050 -1910,0 z"
         id="path50"
         inkscape:connector-curvature="0" /></clipPath><clipPath
       clipPathUnits="userSpaceOnUse"
       id="clipPath54"><path
         d="M 0,1050 0,0 l 1910,0 0,1050 -1910,0 z m 55.1523,-214.891 -67.3984,-68.031 26.457,-26.453 68.0274,67.398 0,0 -66.7695,-40.316 39.6835,67.402 z"
         id="path56"
         inkscape:connector-curvature="0"
         style="clip-rule:evenodd" /></clipPath><clipPath
       clipPathUnits="userSpaceOnUse"
       id="clipPath66"><path
         d="M 0,1050 0,0 l 1910,0 0,1050 -1910,0 z"
         id="path68"
         inkscape:connector-curvature="0" /></clipPath><clipPath
       clipPathUnits="userSpaceOnUse"
       id="clipPath72"><path
         d="M 0,1050 0,0 l 1910,0 0,1050 -1910,0 z m 1822.65,-241.977 68.03,-67.398 26.46,26.453 -67.4,68.031 0,0 40.31,-67.402 -67.4,40.316 z"
         id="path74"
         inkscape:connector-curvature="0"
         style="clip-rule:evenodd" /></clipPath><clipPath
       clipPathUnits="userSpaceOnUse"
       id="clipPath84"><path
         d="M 0,1050 0,0 l 1910,0 0,1050 -1910,0 z m 971.656,-754.086 0,95.746 -37.793,0 0,-95.746 0,0 18.899,75.586 18.894,-75.586 z"
         id="path86"
         inkscape:connector-curvature="0"
         style="clip-rule:evenodd" /></clipPath></defs><sodipodi:namedview
     pagecolor="#ffffff"
     bordercolor="#666666"
     borderopacity="1"
     objecttolerance="10"
     gridtolerance="10"
     guidetolerance="10"
     inkscape:pageopacity="0"
     inkscape:pageshadow="2"
     inkscape:window-width="760"
     inkscape:window-height="480"
     id="namedview4"
     showgrid="false"
     inkscape:zoom="1.5455497"
     inkscape:cx="119.375"
     inkscape:cy="65.625"
     inkscape:window-x="0"
     inkscape:window-y="25"
     inkscape:window-maximized="0"
     inkscape:current-layer="g10" /><g
     id="g10"
     inkscape:groupmode="layer"
     inkscape:label="ink_ext_XXXXXX"
     transform="matrix(1.25,0,0,-1.25,0,131.25)"><g
       id="g12"
       transform="scale(0.1,0.1)"><g
         id="g14"><g
           id="g16"
           clip-path="url(#clipPath18)"><path
             d="m 763.789,382.207 c 24.492,83.984 101.488,141.731 188.973,141.731 87.488,0 164.478,-57.747 188.968,-141.731"
             style="fill:none;stroke:#000000;stroke-width:4.72424984;stroke-linecap:butt;stroke-linejoin:miter;stroke-miterlimit:10;stroke-dasharray:none;stroke-opacity:1"
             id="path22"
             inkscape:connector-curvature="0" /></g></g><path
         d="m 788.355,467.246 -19.527,-75.586 52.914,57.32"
         style="fill:none;stroke:#000000;stroke-width:4.72424984;stroke-linecap:butt;stroke-linejoin:miter;stroke-miterlimit:10;stroke-dasharray:none;stroke-opacity:1"
         id="path24"
         inkscape:connector-curvature="0" /><path
         d="m 1083.15,448.98 53.54,-57.32 -20.15,75.586"
         style="fill:none;stroke:#000000;stroke-width:4.72424984;stroke-linecap:butt;stroke-linejoin:miter;stroke-miterlimit:10;stroke-dasharray:none;stroke-opacity:1"
         id="path26"
         inkscape:connector-curvature="0" /><path
         d="m 1803.13,949.121 c 0,-52.18 -42.31,-94.484 -94.49,-94.484 -52.18,0 -94.48,42.304 -94.48,94.484 0,52.179 42.3,94.489 94.48,94.489 52.18,0 94.49,-42.31 94.49,-94.489"
         style="fill:#000000;fill-opacity:1;fill-rule:evenodd;stroke:none"
         id="path28"
         inkscape:connector-curvature="0" /><path
         d="m 1803.13,949.121 c 0,-52.18 -42.31,-94.484 -94.49,-94.484 -52.18,0 -94.48,42.304 -94.48,94.484 0,52.179 42.3,94.489 94.48,94.489 52.18,0 94.49,-42.31 94.49,-94.489 z"
         style="fill:none;stroke:#000000;stroke-width:4.72424984;stroke-linecap:butt;stroke-linejoin:miter;stroke-miterlimit:10;stroke-dasharray:none;stroke-opacity:1"
         id="path30"
         inkscape:connector-curvature="0" /><path
         d="m 291.363,949.121 c 0,-52.18 -42.304,-94.484 -94.484,-94.484 -52.18,0 -94.484,42.304 -94.484,94.484 0,52.179 42.304,94.489 94.484,94.489 52.18,0 94.484,-42.31 94.484,-94.489"
         style="fill:#000000;fill-opacity:1;fill-rule:evenodd;stroke:none"
         id="path32"
         inkscape:connector-curvature="0" /><path
         d="m 291.363,949.121 c 0,-52.18 -42.304,-94.484 -94.484,-94.484 -52.18,0 -94.484,42.304 -94.484,94.484 0,52.179 42.304,94.489 94.484,94.489 52.18,0 94.484,-42.31 94.484,-94.489 z"
         style="fill:none;stroke:#000000;stroke-width:4.72424984;stroke-linecap:butt;stroke-linejoin:miter;stroke-miterlimit:10;stroke-dasharray:none;stroke-opacity:1"
         id="path34"
         inkscape:connector-curvature="0" /><path
         d="m 1047.25,98.7539 c 0,-52.1797 -42.31,-94.48437 -94.488,-94.48437 -52.18,0 -94.489,42.30467 -94.489,94.48437 0,52.1801 42.309,94.4841 94.489,94.4841 52.178,0 94.488,-42.304 94.488,-94.4841"
         style="fill:#000000;fill-opacity:1;fill-rule:evenodd;stroke:none"
         id="path36"
         inkscape:connector-curvature="0" /><path
         d="m 1047.25,98.7539 c 0,-52.1797 -42.31,-94.48437 -94.488,-94.48437 -52.18,0 -94.489,42.30467 -94.489,94.48437 0,52.1801 42.309,94.4841 94.489,94.4841 52.178,0 94.488,-42.304 94.488,-94.4841 z"
         style="fill:none;stroke:#000000;stroke-width:4.72424984;stroke-linecap:butt;stroke-linejoin:miter;stroke-miterlimit:10;stroke-dasharray:none;stroke-opacity:1"
         id="path38"
         inkscape:connector-curvature="0" /><path
         d="M 244.121,901.879 905.52,98.7539"
         style="fill:none;stroke:#000000;stroke-width:18.89699936;stroke-linecap:butt;stroke-linejoin:miter;stroke-miterlimit:10;stroke-dasharray:none;stroke-opacity:1"
         id="path40"
         inkscape:connector-curvature="0" /><path
         d="M 1000,98.7539 1661.4,901.879"
         style="fill:none;stroke:#000000;stroke-width:18.89699936;stroke-linecap:butt;stroke-linejoin:miter;stroke-miterlimit:10;stroke-dasharray:none;stroke-opacity:1"
         id="path42"
         inkscape:connector-curvature="0" /><g
         id="g44"><g
           id="g46"
           clip-path="url(#clipPath48)"><g
             id="g52"
             clip-path="url(#clipPath54)"><path
               d="M 196.879,949.121 7.91016,760.148"
               style="fill:none;stroke:#000000;stroke-width:4.72424984;stroke-linecap:butt;stroke-linejoin:miter;stroke-miterlimit:10;stroke-dasharray:none;stroke-opacity:1"
               id="path58"
               inkscape:connector-curvature="0" /></g></g></g><path
         d="M 55.1523,835.109 15.4688,767.707 82.2383,808.023"
         style="fill:none;stroke:#000000;stroke-width:4.72424984;stroke-linecap:butt;stroke-linejoin:miter;stroke-miterlimit:10;stroke-dasharray:none;stroke-opacity:1"
         id="path60"
         inkscape:connector-curvature="0" /><g
         id="g62"><g
           id="g64"
           clip-path="url(#clipPath66)"><g
             id="g70"
             clip-path="url(#clipPath72)"><path
               d="M 1708.64,949.121 1897.61,760.148"
               style="fill:none;stroke:#000000;stroke-width:4.72424984;stroke-linecap:butt;stroke-linejoin:miter;stroke-miterlimit:10;stroke-dasharray:none;stroke-opacity:1"
               id="path76"
               inkscape:connector-curvature="0" /></g></g></g><path
         d="m 1822.65,808.023 67.4,-40.316 -40.31,67.402"
         style="fill:none;stroke:#000000;stroke-width:4.72424984;stroke-linecap:butt;stroke-linejoin:miter;stroke-miterlimit:10;stroke-dasharray:none;stroke-opacity:1"
         id="path78"
         inkscape:connector-curvature="0" /><g
         id="g80"><g
           id="g82"
           clip-path="url(#clipPath84)"><path
             d="m 952.762,98.7539 0,283.4571"
             style="fill:none;stroke:#000000;stroke-width:4.72424984;stroke-linecap:butt;stroke-linejoin:miter;stroke-miterlimit:10;stroke-dasharray:none;stroke-opacity:1"
             id="path88"
             inkscape:connector-curvature="0" /></g></g><path
         d="M 971.656,295.914 952.762,371.5 933.863,295.914"
         style="fill:none;stroke:#000000;stroke-width:4.72424984;stroke-linecap:butt;stroke-linejoin:miter;stroke-miterlimit:10;stroke-dasharray:none;stroke-opacity:1"
         id="path90"
         inkscape:connector-curvature="0" /><g
         id="g92"
         transform="scale(10,10)"><text
           transform="matrix(1,0,0,-1,85.8273,66.5664)"
           style="font-variant:normal;font-weight:normal;font-size:17.99939919px;font-family:Symbol;-inkscape-font-specification:Symbol;writing-mode:lr-tb;fill:#000000;fill-opacity:1;fill-rule:nonzero;stroke:none"
           id="text94"><tspan
             x="0"
             y="0"
             id="tspan96">θ</tspan></text>
<text
           transform="matrix(1,0,0,-1,95.27613,61.84218)"
           style="font-variant:normal;font-weight:normal;font-size:15.99950027px;font-family:Helvetica;-inkscape-font-specification:Helvetica;writing-mode:lr-tb;fill:#000000;fill-opacity:1;fill-rule:nonzero;stroke:none"
           id="text98"><tspan
             x="0"
             y="0"
             id="tspan100">0</tspan></text>
</g></g></g></svg>