<?xml version="1.0" encoding="UTF-8" standalone="no"?>
<!-- Created with Inkscape (http://www.inkscape.org/) -->

<svg
   xmlns:dc="http://purl.org/dc/elements/1.1/"
   xmlns:cc="http://creativecommons.org/ns#"
   xmlns:rdf="http://www.w3.org/1999/02/22-rdf-syntax-ns#"
   xmlns:svg="http://www.w3.org/2000/svg"
   xmlns="http://www.w3.org/2000/svg"
   xmlns:sodipodi="http://sodipodi.sourceforge.net/DTD/sodipodi-0.dtd"
   xmlns:inkscape="http://www.inkscape.org/namespaces/inkscape"
   id="svg2"
   version="1.1"
   inkscape:version="0.91 r13725"
   xml:space="preserve"
   width="382.5"
   height="127.5"
   viewBox="0 0 382.5 127.5"
   sodipodi:docname="chain.svg"><metadata
     id="metadata8"><rdf:RDF><cc:Work
         rdf:about=""><dc:format>image/svg+xml</dc:format><dc:type
           rdf:resource="http://purl.org/dc/dcmitype/StillImage" /><dc:title></dc:title></cc:Work></rdf:RDF></metadata><defs
     id="defs6" /><sodipodi:namedview
     pagecolor="#ffffff"
     bordercolor="#666666"
     borderopacity="1"
     objecttolerance="10"
     gridtolerance="10"
     guidetolerance="10"
     inkscape:pageopacity="0"
     inkscape:pageshadow="2"
     inkscape:window-width="760"
     inkscape:window-height="480"
     id="namedview4"
     showgrid="false"
     inkscape:zoom="0.96470588"
     inkscape:cx="191.25"
     inkscape:cy="63.75"
     inkscape:window-x="0"
     inkscape:window-y="25"
     inkscape:window-maximized="0"
     inkscape:current-layer="g10" /><g
     id="g10"
     inkscape:groupmode="layer"
     inkscape:label="ink_ext_XXXXXX"
     transform="matrix(0,1.25,1.25,0,0,0)"><g
       id="g12"
       transform="scale(0.1,0.1)"><path
         d="m 791,86 c 24.852,0 45,-20.1484 45,-45 0,-24.8516 -20.148,-45 -45,-45 -24.852,0 -45,20.1484 -45,45 0,24.8516 20.148,45 45,45"
         style="fill:#000000;fill-opacity:1;fill-rule:nonzero;stroke:none"
         id="path14"
         inkscape:connector-curvature="0" /><path
         d="m 791,86 c 24.852,0 45,-20.1484 45,-45 0,-24.8516 -20.148,-45 -45,-45 -24.852,0 -45,20.1484 -45,45 0,24.8516 20.148,45 45,45"
         style="fill:none;stroke:#000000;stroke-width:9;stroke-linecap:butt;stroke-linejoin:miter;stroke-miterlimit:10;stroke-dasharray:none;stroke-opacity:1"
         id="path16"
         inkscape:connector-curvature="0" /><path
         d="m 251,806 c 24.852,0 45,-20.148 45,-45 0,-24.852 -20.148,-45 -45,-45 -24.852,0 -45,20.148 -45,45 0,24.852 20.148,45 45,45"
         style="fill:#000000;fill-opacity:1;fill-rule:nonzero;stroke:none"
         id="path18"
         inkscape:connector-curvature="0" /><path
         d="m 251,806 c 24.852,0 45,-20.148 45,-45 0,-24.852 -20.148,-45 -45,-45 -24.852,0 -45,20.148 -45,45 0,24.852 20.148,45 45,45"
         style="fill:none;stroke:#000000;stroke-width:9;stroke-linecap:butt;stroke-linejoin:miter;stroke-miterlimit:10;stroke-dasharray:none;stroke-opacity:1"
         id="path20"
         inkscape:connector-curvature="0" /><path
         d="m 791,1526 c 24.852,0 45,-20.15 45,-45 0,-24.85 -20.148,-45 -45,-45 -24.852,0 -45,20.15 -45,45 0,24.85 20.148,45 45,45"
         style="fill:#000000;fill-opacity:1;fill-rule:nonzero;stroke:none"
         id="path22"
         inkscape:connector-curvature="0" /><path
         d="m 791,1526 c 24.852,0 45,-20.15 45,-45 0,-24.85 -20.148,-45 -45,-45 -24.852,0 -45,20.15 -45,45 0,24.85 20.148,45 45,45"
         style="fill:none;stroke:#000000;stroke-width:9;stroke-linecap:butt;stroke-linejoin:miter;stroke-miterlimit:10;stroke-dasharray:none;stroke-opacity:1"
         id="path24"
         inkscape:connector-curvature="0" /><path
         d="m 251,2246 c 24.852,0 45,-20.15 45,-45 0,-24.85 -20.148,-45 -45,-45 -24.852,0 -45,20.15 -45,45 0,24.85 20.148,45 45,45"
         style="fill:#000000;fill-opacity:1;fill-rule:nonzero;stroke:none"
         id="path26"
         inkscape:connector-curvature="0" /><path
         d="m 251,2246 c 24.852,0 45,-20.15 45,-45 0,-24.85 -20.148,-45 -45,-45 -24.852,0 -45,20.15 -45,45 0,24.85 20.148,45 45,45"
         style="fill:none;stroke:#000000;stroke-width:9;stroke-linecap:butt;stroke-linejoin:miter;stroke-miterlimit:10;stroke-dasharray:none;stroke-opacity:1"
         id="path28"
         inkscape:connector-curvature="0" /><path
         d="m 791,2966 c 24.852,0 45,-20.15 45,-45 0,-24.85 -20.148,-45 -45,-45 -24.852,0 -45,20.15 -45,45 0,24.85 20.148,45 45,45"
         style="fill:#000000;fill-opacity:1;fill-rule:nonzero;stroke:none"
         id="path30"
         inkscape:connector-curvature="0" /><path
         d="m 791,2966 c 24.852,0 45,-20.15 45,-45 0,-24.85 -20.148,-45 -45,-45 -24.852,0 -45,20.15 -45,45 0,24.85 20.148,45 45,45"
         style="fill:none;stroke:#000000;stroke-width:9;stroke-linecap:butt;stroke-linejoin:miter;stroke-miterlimit:10;stroke-dasharray:none;stroke-opacity:1"
         id="path32"
         inkscape:connector-curvature="0" /><path
         d="M 791,41 251,761"
         style="fill:#000000;fill-opacity:1;fill-rule:nonzero;stroke:none"
         id="path34"
         inkscape:connector-curvature="0" /><path
         d="M 791,41 251,761"
         style="fill:none;stroke:#000000;stroke-width:9;stroke-linecap:butt;stroke-linejoin:miter;stroke-miterlimit:10;stroke-dasharray:none;stroke-opacity:1"
         id="path36"
         inkscape:connector-curvature="0" /><path
         d="m 251,761 540,720"
         style="fill:#000000;fill-opacity:1;fill-rule:nonzero;stroke:none"
         id="path38"
         inkscape:connector-curvature="0" /><path
         d="m 251,761 540,720"
         style="fill:none;stroke:#000000;stroke-width:9;stroke-linecap:butt;stroke-linejoin:miter;stroke-miterlimit:10;stroke-dasharray:none;stroke-opacity:1"
         id="path40"
         inkscape:connector-curvature="0" /><path
         d="M 791,1481 251,2201"
         style="fill:#000000;fill-opacity:1;fill-rule:nonzero;stroke:none"
         id="path42"
         inkscape:connector-curvature="0" /><path
         d="M 791,1481 251,2201"
         style="fill:none;stroke:#000000;stroke-width:9;stroke-linecap:butt;stroke-linejoin:miter;stroke-miterlimit:10;stroke-dasharray:none;stroke-opacity:1"
         id="path44"
         inkscape:connector-curvature="0" /><path
         d="m 251,2201 540,720"
         style="fill:#000000;fill-opacity:1;fill-rule:nonzero;stroke:none"
         id="path46"
         inkscape:connector-curvature="0" /><path
         d="m 251,2201 540,720"
         style="fill:none;stroke:#000000;stroke-width:9;stroke-linecap:butt;stroke-linejoin:miter;stroke-miterlimit:10;stroke-dasharray:none;stroke-opacity:1"
         id="path48"
         inkscape:connector-curvature="0" /><g
         id="g50"
         transform="scale(10,10)"><text
           transform="matrix(0,1,1,0,11.6,67.1)"
           style="font-variant:normal;font-weight:bold;font-size:16.20000076px;font-family:Times;-inkscape-font-specification:Times-Bold;writing-mode:lr-tb;fill:#000000;fill-opacity:1;fill-rule:nonzero;stroke:none"
           id="text52"><tspan
             x="0 4.5036001 13.7376 144.00002 148.50362 157.73763"
             y="0"
             sodipodi:role="line"
             id="tspan54">i+1i+3</tspan><tspan
             x="-63 71.999947 76.503548 85.737549 215.99997 220.50357 229.73756"
             y="90"
             sodipodi:role="line"
             id="tspan56">ii+2i+4</tspan></text>
</g></g></g></svg>