<?xml version="1.0" encoding="UTF-8" standalone="no"?>
<!-- Created with Inkscape (http://www.inkscape.org/) -->

<svg
   xmlns:dc="http://purl.org/dc/elements/1.1/"
   xmlns:cc="http://creativecommons.org/ns#"
   xmlns:rdf="http://www.w3.org/1999/02/22-rdf-syntax-ns#"
   xmlns:svg="http://www.w3.org/2000/svg"
   xmlns="http://www.w3.org/2000/svg"
   xmlns:sodipodi="http://sodipodi.sourceforge.net/DTD/sodipodi-0.dtd"
   xmlns:inkscape="http://www.inkscape.org/namespaces/inkscape"
   id="svg2"
   version="1.1"
   inkscape:version="0.91 r13725"
   xml:space="preserve"
   width="1052.5"
   height="743.75"
   viewBox="0 0 1052.5 743.75"
   sodipodi:docname="f-bham.svg"><metadata
     id="metadata8"><rdf:RDF><cc:Work
         rdf:about=""><dc:format>image/svg+xml</dc:format><dc:type
           rdf:resource="http://purl.org/dc/dcmitype/StillImage" /><dc:title></dc:title></cc:Work></rdf:RDF></metadata><defs
     id="defs6" /><sodipodi:namedview
     pagecolor="#ffffff"
     bordercolor="#666666"
     borderopacity="1"
     objecttolerance="10"
     gridtolerance="10"
     guidetolerance="10"
     inkscape:pageopacity="0"
     inkscape:pageshadow="2"
     inkscape:window-width="640"
     inkscape:window-height="480"
     id="namedview4"
     showgrid="false"
     inkscape:zoom="0.31731092"
     inkscape:cx="526.25"
     inkscape:cy="371.875"
     inkscape:window-x="0"
     inkscape:window-y="25"
     inkscape:window-maximized="0"
     inkscape:current-layer="g10" /><g
     id="g10"
     inkscape:groupmode="layer"
     inkscape:label="ink_ext_XXXXXX"
     transform="matrix(0,1.25,1.25,0,0,0)"><g
       id="g12"
       transform="scale(0.1,0.1)"><path
         d="m 4787.5,1670 -3735,0 0,4817.5 3735,0 0,-4817.5"
         style="fill:none;stroke:#000000;stroke-width:2.5;stroke-linecap:round;stroke-linejoin:miter;stroke-miterlimit:10;stroke-dasharray:none;stroke-opacity:1"
         id="path14"
         inkscape:connector-curvature="0" /><path
         d="m 4787.5,1670 -25,0 m 25,400 -25,0 m 25,402.5 -25,0 m 25,400 -25,0 m 25,402.5 -25,0 m 25,402.5 -25,0 m 25,400 -25,0 m 25,402.5 -25,0 m 25,400 -25,0 m 25,402.5 -25,0 m 25,402.5 -25,0 m 25,400 -25,0 m 25,402.5 -25,0 m -3710,-4817.5 25,0 m -25,400 25,0 m -25,402.5 25,0 m -25,400 25,0 m -25,402.5 25,0 m -25,402.5 25,0 m -25,400 25,0 m -25,402.5 25,0 m -25,400 25,0 m -25,402.5 25,0 m -25,402.5 25,0 m -25,400 25,0 m -25,402.5 25,0"
         style="fill:none;stroke:#000000;stroke-width:2.5;stroke-linecap:round;stroke-linejoin:miter;stroke-miterlimit:10;stroke-dasharray:none;stroke-opacity:1"
         id="path16"
         inkscape:connector-curvature="0" /><path
         d="m 4787.5,1670 -50,0 m 50,802.5 -50,0 m 50,802.5 -50,0 m 50,802.5 -50,0 m 50,802.5 -50,0 m 50,805 -50,0 m 50,802.5 -50,0 m -3685,-4817.5 50,0 m -50,802.5 50,0 m -50,802.5 50,0 m -50,802.5 50,0 m -50,802.5 50,0 m -50,805 50,0 m -50,802.5 50,0"
         style="fill:none;stroke:#000000;stroke-width:2.5;stroke-linecap:round;stroke-linejoin:miter;stroke-miterlimit:10;stroke-dasharray:none;stroke-opacity:1"
         id="path18"
         inkscape:connector-curvature="0" /><g
         id="g20"
         transform="scale(10,10)"><text
           transform="matrix(0,1,1,0,505.25,151.189)"
           style="font-variant:normal;font-weight:normal;font-size:22.75px;font-family:Helvetica;-inkscape-font-specification:Helvetica;writing-mode:lr-tb;fill:#000000;fill-opacity:1;fill-rule:nonzero;stroke:none"
           id="text22"><tspan
             x="0 12.649 18.973499 80.249939 92.898941 99.223442 160.49988 173.14888 179.47339 240.74983 253.39883 259.72333 320.99976 333.64877 339.97327 401.49973 414.14874 420.47324 481.74966 494.39868 500.72318"
             y="0"
             sodipodi:role="line"
             id="tspan24">0.20.30.40.50.60.70.8</tspan></text>
<text
           transform="matrix(0,1,1,0,535.75,377.758)"
           style="font-variant:normal;font-weight:normal;font-size:22.5px;font-family:Helvetica;-inkscape-font-specification:Helvetica;writing-mode:lr-tb;fill:#000000;fill-opacity:1;fill-rule:nonzero;stroke:none"
           id="text26"><tspan
             x="0 7.4924998 13.7475 21.24 33.75 52.4925"
             y="0"
             sodipodi:role="line"
             id="tspan28">r (nm)</tspan></text>
</g><path
         d="m 4787.5,1670 0,25 m -465,-25 0,25 m -467.5,-25 0,25 m -467.5,-25 0,25 m -467.5,-25 0,25 m -467.5,-25 0,25 m -467.5,-25 0,25 m -467.5,-25 0,25 m -465,-25 0,25 m 3735,4792.5 0,-25 m -465,25 0,-25 m -467.5,25 0,-25 m -467.5,25 0,-25 m -467.5,25 0,-25 m -467.5,25 0,-25 m -467.5,25 0,-25 m -467.5,25 0,-25 m -465,25 0,-25"
         style="fill:none;stroke:#000000;stroke-width:2.5;stroke-linecap:round;stroke-linejoin:miter;stroke-miterlimit:10;stroke-dasharray:none;stroke-opacity:1"
         id="path30"
         inkscape:connector-curvature="0" /><path
         d="m 4787.5,1670 0,50 m -932.5,-50 0,50 m -935,-50 0,50 m -935,-50 0,50 m -932.5,-50 0,50 m 3735,4767.5 0,-50 m -932.5,50 0,-50 m -935,50 0,-50 m -935,50 0,-50 m -932.5,50 0,-50"
         style="fill:none;stroke:#000000;stroke-width:2.5;stroke-linecap:round;stroke-linejoin:miter;stroke-miterlimit:10;stroke-dasharray:none;stroke-opacity:1"
         id="path32"
         inkscape:connector-curvature="0" /><g
         id="g34"
         transform="scale(10,10)"><text
           transform="matrix(0,1,1,0,486.25,113.053)"
           style="font-variant:normal;font-weight:normal;font-size:22.75px;font-family:Helvetica;-inkscape-font-specification:Helvetica;writing-mode:lr-tb;fill:#000000;fill-opacity:1;fill-rule:nonzero;stroke:none"
           id="text36"><tspan
             x="0 12.649 25.298 31.622499"
             y="0"
             sodipodi:role="line"
             id="tspan38">–0.5</tspan><tspan
             x="7.5753899 20.22439 26.548889"
             y="-93.25"
             sodipodi:role="line"
             id="tspan40">0.0</tspan><tspan
             x="7.5753899 20.22439 26.548889"
             y="-186.75"
             sodipodi:role="line"
             id="tspan42">0.5</tspan><tspan
             x="7.5753899 20.22439 26.548889"
             y="-280.25"
             sodipodi:role="line"
             id="tspan44">1.0</tspan><tspan
             x="7.5753899 20.22439 26.548889"
             y="-373.5"
             sodipodi:role="line"
             id="tspan46">1.5</tspan></text>
<text
           transform="matrix(-1,0,0,1,358.88,81)"
           style="font-variant:normal;font-weight:normal;font-size:22.5px;font-family:Helvetica;-inkscape-font-specification:Helvetica;writing-mode:lr-tb;fill:#000000;fill-opacity:1;fill-rule:nonzero;stroke:none"
           id="text48"><tspan
             x="0 15.0075 21.262501 28.754999 40.005001 51.255001 57.509998 76.252502 88.762497 93.7575"
             y="0"
             sodipodi:role="line"
             id="tspan50">V (kJ mole</tspan></text>
<text
           transform="matrix(-1,0,0,1,252.612,67.75)"
           style="font-variant:normal;font-weight:normal;font-size:13.25px;font-family:Helvetica;-inkscape-font-specification:Helvetica;writing-mode:lr-tb;fill:#000000;fill-opacity:1;fill-rule:nonzero;stroke:none"
           id="text52"><tspan
             x="0 7.3670001"
             y="0"
             sodipodi:role="line"
             id="tspan54">–1</tspan></text>
<text
           transform="matrix(-1,0,0,1,237.878,81)"
           style="font-variant:normal;font-weight:normal;font-size:22.5px;font-family:Helvetica;-inkscape-font-specification:Helvetica;writing-mode:lr-tb;fill:#000000;fill-opacity:1;fill-rule:nonzero;stroke:none"
           id="text56"><tspan
             x="0"
             y="0"
             id="tspan58">)</tspan></text>
</g><path
         d="m 1052.5,2122.5 417.5,27.5 517.5,40 435,40 365,40 305,40 255,37.5 210,40 170,40 140,40 115,40 87.5,40 72.5,40 52.5,40 42.5,40 27.5,40 20,37.5 12.5,40 7.5,40 0,40 -2.5,40 -7.5,40 -10,40 -10,40 -12.5,40 -15,40 -12.5,37.5 -15,40 -15,40 -15,40 -15,40 -15,40 -15,40 -15,40 -12.5,40 -15,40 -12.5,37.5 -12.5,40 -10,40 -12.5,40 -10,40 -10,40 -10,40 -10,40 -7.5,40 -7.5,40 -7.5,37.5 -7.5,40 -7.5,40 -7.5,40 -5,40 -5,40 -7.5,40 -5,40 -5,40 -5,40 -2.5,37.5 -5,40 -5,40 -2.5,40 -2.5,40 -5,40 -2.5,40 -2.5,40 -2.5,40 -2.5,40 -2.5,37.5 -2.5,40 -2.5,40 -2.5,40 -2.5,40 0,40 -2.5,40 -2.5,40 0,40 -2.5,40 0,40 -2.5,37.5 -2.5,40 0,80 -2.5,40 0,40 -2.5,40 0,80 -2.5,40 0,77.5 -2.5,40 0,120 -2.5,40 0,120 -2.5,37.5 0,120"
         style="fill:none;stroke:#000000;stroke-width:2.5;stroke-linecap:round;stroke-linejoin:miter;stroke-miterlimit:10;stroke-dasharray:none;stroke-opacity:1"
         id="path60"
         inkscape:connector-curvature="0" /></g></g></svg>