<?xml version="1.0" encoding="UTF-8" standalone="no"?>
<!-- Created with Inkscape (http://www.inkscape.org/) -->

<svg
   xmlns:dc="http://purl.org/dc/elements/1.1/"
   xmlns:cc="http://creativecommons.org/ns#"
   xmlns:rdf="http://www.w3.org/1999/02/22-rdf-syntax-ns#"
   xmlns:svg="http://www.w3.org/2000/svg"
   xmlns="http://www.w3.org/2000/svg"
   xmlns:sodipodi="http://sodipodi.sourceforge.net/DTD/sodipodi-0.dtd"
   xmlns:inkscape="http://www.inkscape.org/namespaces/inkscape"
   id="svg2"
   version="1.1"
   inkscape:version="0.91 r13725"
   xml:space="preserve"
   width="578.75"
   height="447.5"
   viewBox="0 0 578.75 447.5"
   sodipodi:docname="f-dr.svg"><metadata
     id="metadata8"><rdf:RDF><cc:Work
         rdf:about=""><dc:format>image/svg+xml</dc:format><dc:type
           rdf:resource="http://purl.org/dc/dcmitype/StillImage" /><dc:title></dc:title></cc:Work></rdf:RDF></metadata><defs
     id="defs6" /><sodipodi:namedview
     pagecolor="#ffffff"
     bordercolor="#666666"
     borderopacity="1"
     objecttolerance="10"
     gridtolerance="10"
     guidetolerance="10"
     inkscape:pageopacity="0"
     inkscape:pageshadow="2"
     inkscape:window-width="760"
     inkscape:window-height="480"
     id="namedview4"
     showgrid="false"
     inkscape:zoom="0.5273743"
     inkscape:cx="289.375"
     inkscape:cy="223.75"
     inkscape:window-x="0"
     inkscape:window-y="25"
     inkscape:window-maximized="0"
     inkscape:current-layer="g10" /><g
     id="g10"
     inkscape:groupmode="layer"
     inkscape:label="ink_ext_XXXXXX"
     transform="matrix(1.25,0,0,-1.25,0,447.5)"><g
       id="g12"
       transform="scale(0.1,0.1)"><path
         d="m 494,468 0,24 m 400.801,-24 0,24 m 405.599,-24 0,24 m 403.2,-24 0,24 m 400.8,-24 0,24 m 405.6,-24 0,24 m 403.2,-24 0,24 m 403.2,-24 0,24 m 403.2,-24 0,24 m 403.2,-24 0,24 m 403.2,-24 0,24 m -4032,3000 0,-24 m 400.801,24 0,-24 m 405.599,24 0,-24 m 403.2,24 0,-24 m 400.8,24 0,-24 m 405.6,24 0,-24 m 403.2,24 0,-24 m 403.2,24 0,-24 m 403.2,24 0,-24 m 403.2,24 0,-24 m 403.2,24 0,-24"
         style="fill:none;stroke:#000000;stroke-width:2.4000001;stroke-linecap:round;stroke-linejoin:miter;stroke-miterlimit:10;stroke-dasharray:none;stroke-opacity:1"
         id="path14"
         inkscape:connector-curvature="0" /><path
         d="m 494,468 0,48 m 806.4,-48 0,48 m 804,-48 0,48 m 808.8,-48 0,48 m 806.4,-48 0,48 m 806.4,-48 0,48 m -4032,2976 0,-48 m 806.4,48 0,-48 m 804,48 0,-48 m 808.8,48 0,-48 m 806.4,48 0,-48 m 806.4,48 0,-48"
         style="fill:none;stroke:#000000;stroke-width:2.4000001;stroke-linecap:round;stroke-linejoin:miter;stroke-miterlimit:10;stroke-dasharray:none;stroke-opacity:1"
         id="path16"
         inkscape:connector-curvature="0" /><g
         id="g18"
         transform="scale(10,10)"><text
           transform="matrix(1,0,0,-1,45.3969,30)"
           style="font-variant:normal;font-weight:normal;font-size:14.39999962px;font-family:Helvetica;-inkscape-font-specification:Helvetica;writing-mode:lr-tb;fill:#000000;fill-opacity:1;fill-rule:nonzero;stroke:none"
           id="text20"><tspan
             x="0 74.635201 82.641602 86.644798 155.03516 163.04155 167.04475 235.91521 243.9216 247.9248 316.55505 324.56146 328.56467 397.19534 405.20175 409.20496"
             y="0"
             sodipodi:role="line"
             id="tspan22">00.10.20.30.40.5</tspan><tspan
             x="186.409 191.20419 195.2074 200.00259 208.009 220.0042"
             y="19.200001"
             sodipodi:role="line"
             id="tspan24">r (nm)</tspan></text>
</g><path
         d="m 494,468 24,0 m -24,504 24,0 m -24,504 24,0 m -24,504 24,0 m -24,501.6 24,0 m -24,506.4 24,0 m -24,504 24,0 m 4008,-3024 -24,0 m 24,504 -24,0 m 24,504 -24,0 m 24,504 -24,0 m 24,501.6 -24,0 m 24,506.4 -24,0 m 24,504 -24,0"
         style="fill:none;stroke:#000000;stroke-width:2.4000001;stroke-linecap:round;stroke-linejoin:miter;stroke-miterlimit:10;stroke-dasharray:none;stroke-opacity:1"
         id="path26"
         inkscape:connector-curvature="0" /><path
         d="m 494,468 48,0 m -48,1008 48,0 m -48,1005.6 48,0 m -48,1010.4 48,0 m 3984,-3024 -48,0 m 48,1008 -48,0 m 48,1005.6 -48,0 m 48,1010.4 -48,0"
         style="fill:none;stroke:#000000;stroke-width:2.4000001;stroke-linecap:round;stroke-linejoin:miter;stroke-miterlimit:10;stroke-dasharray:none;stroke-opacity:1"
         id="path28"
         inkscape:connector-curvature="0" /><g
         id="g30"
         transform="scale(10,10)"><text
           transform="matrix(1,0,0,-1,32.2738,42)"
           style="font-variant:normal;font-weight:normal;font-size:14.39999962px;font-family:Helvetica;-inkscape-font-specification:Helvetica;writing-mode:lr-tb;fill:#000000;fill-opacity:1;fill-rule:nonzero;stroke:none"
           id="text32"><tspan
             x="0"
             y="0"
             id="tspan34">0</tspan><tspan
             x="0"
             y="-100.8"
             id="tspan36">5</tspan><tspan
             x="-8.0062504 0.00015000001"
             y="-201.36"
             sodipodi:role="line"
             id="tspan38">10</tspan><tspan
             x="-8.0062504 0.00015000001"
             y="-302.39999"
             sodipodi:role="line"
             id="tspan40">15</tspan></text>
<text
           transform="matrix(0,1,1,0,15.3199,141.791)"
           style="font-variant:normal;font-weight:normal;font-size:14.39999962px;font-family:Helvetica;-inkscape-font-specification:Helvetica;writing-mode:lr-tb;fill:#000000;fill-opacity:1;fill-rule:nonzero;stroke:none"
           id="text42"><tspan
             x="0"
             y="0"
             id="tspan44">V</tspan></text>
<text
           transform="matrix(0,1,1,0,19.63982,151.39569)"
           style="font-variant:normal;font-weight:normal;font-size:8.64000034px;font-family:Helvetica;-inkscape-font-specification:Helvetica;writing-mode:lr-tb;fill:#000000;fill-opacity:1;fill-rule:nonzero;stroke:none"
           id="text46"><tspan
             x="0 4.8038402 6.72192 11.04192 13.91904"
             y="0"
             sodipodi:role="line"
             id="tspan48">disre</tspan></text>
<text
           transform="matrix(0,1,1,0,15.3199,174.12189)"
           style="font-variant:normal;font-weight:normal;font-size:14.39999962px;font-family:Helvetica;-inkscape-font-specification:Helvetica;writing-mode:lr-tb;fill:#000000;fill-opacity:1;fill-rule:nonzero;stroke:none"
           id="text50"><tspan
             x="0 4.7951999 11.9952 19.1952 23.1984 35.1936 43.200001"
             y="0"
             sodipodi:role="line"
             id="tspan52">(kJ mol</tspan></text>
<text
           transform="matrix(0,1,1,0,6.68006,220.51869)"
           style="font-variant:normal;font-weight:normal;font-size:8.64000034px;font-family:Helvetica;-inkscape-font-specification:Helvetica;writing-mode:lr-tb;fill:#000000;fill-opacity:1;fill-rule:nonzero;stroke:none"
           id="text54"><tspan
             x="0 5.0457602"
             y="0"
             sodipodi:role="line"
             id="tspan56">−1</tspan></text>
<text
           transform="matrix(0,1,1,0,15.3199,230.3683)"
           style="font-variant:normal;font-weight:normal;font-size:14.39999962px;font-family:Helvetica;-inkscape-font-specification:Helvetica;writing-mode:lr-tb;fill:#000000;fill-opacity:1;fill-rule:nonzero;stroke:none"
           id="text58"><tspan
             x="0"
             y="0"
             id="tspan60">)</tspan></text>
</g><path
         d="m 2910.8,468 33.6,0 16.8,2.398 14.4,2.403 16.8,4.801 16.8,4.796 16.8,4.801 14.4,4.801 16.8,7.199 16.8,7.199 14.4,9.602 16.8,9.602 16.8,9.597 16.8,9.602 14.4,12 16.8,14.398 16.8,12 14.4,14.403 16.8,14.398 16.8,16.801 16.8,16.801 14.4,16.796 16.8,16.801 16.8,19.199 14.4,19.204 16.8,21.597 16.8,21.602 16.8,21.597 14.4,24 16.8,24 16.8,24 16.8,26.403 14.4,24 16.8,28.801 16.8,26.398 14.4,28.801 16.8,28.799 16.8,31.2 16.8,31.2 14.4,31.2 16.8,33.6 16.8,33.6 14.4,33.6 16.8,36 16.8,36 16.8,36 14.4,38.4 16.8,38.4 16.8,38.4 16.8,40.8"
         style="fill:none;stroke:#000000;stroke-width:2.4000001;stroke-linecap:round;stroke-linejoin:miter;stroke-miterlimit:10;stroke-dasharray:none;stroke-opacity:1"
         id="path62"
         inkscape:connector-curvature="0" /><path
         d="m 3719.6,1476 14.4,38.4 16.8,40.8 16.8,40.8 14.4,40.8 16.8,38.4 16.8,40.8 16.8,40.8 14.4,40.8 16.8,40.8 16.8,40.8 14.4,38.4 16.8,40.8 16.8,40.8 16.8,40.8 14.4,40.8 16.8,38.4 16.8,40.8 14.4,40.8 16.8,40.8 16.8,40.8 16.8,38.4 14.4,40.8 16.8,40.8 16.8,40.8 16.8,38.4 14.4,40.8 16.8,40.8 16.8,40.8 14.4,40.8 16.8,40.8 16.8,38.4 16.8,40.8 14.4,40.8 16.8,40.8 16.8,40.8 14.4,38.4 16.8,40.8 16.8,40.8 16.8,40.8 14.4,38.4 16.8,40.8 16.8,40.8 14.4,40.8 16.8,40.8 16.8,40.8 16.8,38.4 14.4,40.8 16.8,40.8 16.8,40.8 16.8,40.8"
         style="fill:none;stroke:#000000;stroke-width:2.4000001;stroke-linecap:round;stroke-linejoin:miter;stroke-miterlimit:10;stroke-dasharray:none;stroke-opacity:1"
         id="path64"
         inkscape:connector-curvature="0" /><path
         d="m 494,2733.6 14.398,-60 16.801,-57.6 16.801,-60 14.398,-57.6 16.801,-55.2 16.801,-57.6 16.801,-55.2 14.398,-52.8 16.801,-55.2 16.801,-52.8 14.398,-50.4 16.801,-52.8 16.801,-50.4 16.801,-48 14.398,-50.4 16.801,-48 16.801,-45.6 14.398,-48 16.801,-45.6 16.801,-43.2 16.796,-45.6 14.403,-43.2 16.801,-40.8 16.796,-43.2 14.403,-38.4 16.801,-40.8 16.796,-38.4 16.801,-38.4 14.403,-38.4 16.796,-36 16.801,-36 16.801,-36 14.4,-33.6 16.8,-33.6 16.8,-33.6 14.4,-31.2 16.8,-31.2 16.8,-31.2 16.8,-28.799 14.4,-28.801 16.8,-26.398 16.8,-28.801 14.4,-24 16.8,-26.403 16.8,-24 16.8,-24 14.4,-24 16.8,-21.597 16.8,-21.602 16.8,-21.597 14.4,-19.204 16.8,-19.199 16.8,-16.801 14.4,-16.796 16.8,-16.801 16.8,-16.801 16.8,-14.398 14.4,-14.403 16.8,-12 16.8,-14.398 14.4,-12 16.8,-9.602 16.8,-9.597 16.8,-9.602 14.4,-9.602 16.8,-7.199 16.8,-7.199 14.4,-4.801 16.8,-4.801 16.8,-4.796 16.8,-4.801 14.4,-2.403 16.8,-2.398 33.6,0"
         style="fill:none;stroke:#000000;stroke-width:2.4000001;stroke-linecap:round;stroke-linejoin:miter;stroke-miterlimit:10;stroke-dasharray:none;stroke-opacity:1"
         id="path66"
         inkscape:connector-curvature="0" /><path
         d="m 1703.6,468 0,3024"
         style="fill:none;stroke:#000000;stroke-width:2.4000001;stroke-linecap:round;stroke-linejoin:miter;stroke-miterlimit:10;stroke-dasharray:48, 48;stroke-dashoffset:0;stroke-opacity:1"
         id="path68"
         inkscape:connector-curvature="0" /><path
         d="m 2910.8,468 0,3024"
         style="fill:none;stroke:#000000;stroke-width:2.4000001;stroke-linecap:round;stroke-linejoin:miter;stroke-miterlimit:10;stroke-dasharray:48, 48;stroke-dashoffset:0;stroke-opacity:1"
         id="path70"
         inkscape:connector-curvature="0" /><path
         d="m 3719.6,468 0,3024"
         style="fill:none;stroke:#000000;stroke-width:2.4000001;stroke-linecap:round;stroke-linejoin:miter;stroke-miterlimit:10;stroke-dasharray:48, 48;stroke-dashoffset:0;stroke-opacity:1"
         id="path72"
         inkscape:connector-curvature="0" /><path
         d="m 494,468 0,3024 4032,0 0,-3024 -4032,0"
         style="fill:none;stroke:#000000;stroke-width:2.4000001;stroke-linecap:round;stroke-linejoin:miter;stroke-miterlimit:10;stroke-dasharray:none;stroke-opacity:1"
         id="path74"
         inkscape:connector-curvature="0" /><g
         id="g76"
         transform="scale(10,10)"><text
           transform="matrix(1,0,0,-1,177.8,241.2)"
           style="font-variant:normal;font-weight:normal;font-size:17.28000069px;font-family:Helvetica;-inkscape-font-specification:Helvetica;writing-mode:lr-tb;fill:#000000;fill-opacity:1;fill-rule:nonzero;stroke:none"
           id="text78"><tspan
             x="0"
             y="0"
             id="tspan80">r</tspan></text>
<text
           transform="matrix(1,0,0,-1,183.5543,236.16016)"
           style="font-variant:normal;font-weight:normal;font-size:10.31999969px;font-family:Helvetica;-inkscape-font-specification:Helvetica;writing-mode:lr-tb;fill:#000000;fill-opacity:1;fill-rule:nonzero;stroke:none"
           id="text82"><tspan
             x="0"
             y="0"
             id="tspan84">0</tspan></text>
<text
           transform="matrix(1,0,0,-1,299.2403,241.91993)"
           style="font-variant:normal;font-weight:normal;font-size:17.28000069px;font-family:Helvetica;-inkscape-font-specification:Helvetica;writing-mode:lr-tb;fill:#000000;fill-opacity:1;fill-rule:nonzero;stroke:none"
           id="text86"><tspan
             x="0"
             y="0"
             id="tspan88">r</tspan></text>
<text
           transform="matrix(1,0,0,-1,304.9946,236.88009)"
           style="font-variant:normal;font-weight:normal;font-size:10.31999969px;font-family:Helvetica;-inkscape-font-specification:Helvetica;writing-mode:lr-tb;fill:#000000;fill-opacity:1;fill-rule:nonzero;stroke:none"
           id="text90"><tspan
             x="0"
             y="0"
             id="tspan92">1</tspan></text>
<text
           transform="matrix(1,0,0,-1,380.1204,241.91993)"
           style="font-variant:normal;font-weight:normal;font-size:17.28000069px;font-family:Helvetica;-inkscape-font-specification:Helvetica;writing-mode:lr-tb;fill:#000000;fill-opacity:1;fill-rule:nonzero;stroke:none"
           id="text94"><tspan
             x="0"
             y="0"
             id="tspan96">r</tspan></text>
<text
           transform="matrix(1,0,0,-1,385.8747,236.88009)"
           style="font-variant:normal;font-weight:normal;font-size:10.31999969px;font-family:Helvetica;-inkscape-font-specification:Helvetica;writing-mode:lr-tb;fill:#000000;fill-opacity:1;fill-rule:nonzero;stroke:none"
           id="text98"><tspan
             x="0"
             y="0"
             id="tspan100">2</tspan></text>
</g></g></g></svg>