<?xml version="1.0" encoding="UTF-8" standalone="no"?>
<!-- Created with Inkscape (http://www.inkscape.org/) -->

<svg
   xmlns:dc="http://purl.org/dc/elements/1.1/"
   xmlns:cc="http://creativecommons.org/ns#"
   xmlns:rdf="http://www.w3.org/1999/02/22-rdf-syntax-ns#"
   xmlns:svg="http://www.w3.org/2000/svg"
   xmlns="http://www.w3.org/2000/svg"
   xmlns:sodipodi="http://sodipodi.sourceforge.net/DTD/sodipodi-0.dtd"
   xmlns:inkscape="http://www.inkscape.org/namespaces/inkscape"
   id="svg2"
   version="1.1"
   inkscape:version="0.91 r13725"
   xml:space="preserve"
   width="1052.5"
   height="743.75"
   viewBox="0 0 1052.5 743.75"
   sodipodi:docname="f-pr.svg"><metadata
     id="metadata8"><rdf:RDF><cc:Work
         rdf:about=""><dc:format>image/svg+xml</dc:format><dc:type
           rdf:resource="http://purl.org/dc/dcmitype/StillImage" /><dc:title></dc:title></cc:Work></rdf:RDF></metadata><defs
     id="defs6" /><sodipodi:namedview
     pagecolor="#ffffff"
     bordercolor="#666666"
     borderopacity="1"
     objecttolerance="10"
     gridtolerance="10"
     guidetolerance="10"
     inkscape:pageopacity="0"
     inkscape:pageshadow="2"
     inkscape:window-width="760"
     inkscape:window-height="480"
     id="namedview4"
     showgrid="false"
     inkscape:zoom="0.31731092"
     inkscape:cx="526.25"
     inkscape:cy="371.875"
     inkscape:window-x="0"
     inkscape:window-y="25"
     inkscape:window-maximized="0"
     inkscape:current-layer="g10" /><g
     id="g10"
     inkscape:groupmode="layer"
     inkscape:label="ink_ext_XXXXXX"
     transform="matrix(0,1.25,1.25,0,0,0)"><g
       id="g12"
       transform="scale(0.1,0.1)"><path
         d="m 5075,1297.5 -4025,0 0,5190 4025,0 0,-5190"
         style="fill:none;stroke:#000000;stroke-width:2.5;stroke-linecap:round;stroke-linejoin:miter;stroke-miterlimit:10;stroke-dasharray:none;stroke-opacity:1"
         id="path14"
         inkscape:connector-curvature="0" /><path
         d="m 5075,1297.5 -25,0 m 25,520 -25,0 m 25,517.5 -25,0 m 25,520 -25,0 m 25,517.5 -25,0 m 25,520 -25,0 m 25,520 -25,0 m 25,517.5 -25,0 m 25,520 -25,0 m 25,517.5 -25,0 m 25,520 -25,0 m -4000,-5190 25,0 m -25,520 25,0 m -25,517.5 25,0 m -25,520 25,0 m -25,517.5 25,0 m -25,520 25,0 m -25,520 25,0 m -25,517.5 25,0 m -25,520 25,0 m -25,517.5 25,0 m -25,520 25,0"
         style="fill:none;stroke:#000000;stroke-width:2.5;stroke-linecap:round;stroke-linejoin:miter;stroke-miterlimit:10;stroke-dasharray:none;stroke-opacity:1"
         id="path16"
         inkscape:connector-curvature="0" /><path
         d="m 5075,1297.5 -50,0 m 50,1037.5 -50,0 m 50,1037.5 -50,0 m 50,1040 -50,0 m 50,1037.5 -50,0 m 50,1037.5 -50,0 m -3975,-5190 50,0 m -50,1037.5 50,0 m -50,1037.5 50,0 m -50,1040 50,0 m -50,1037.5 50,0 m -50,1037.5 50,0"
         style="fill:none;stroke:#000000;stroke-width:2.5;stroke-linecap:round;stroke-linejoin:miter;stroke-miterlimit:10;stroke-dasharray:none;stroke-opacity:1"
         id="path18"
         inkscape:connector-curvature="0" /><g
         id="g20"
         transform="scale(10,10)"><text
           transform="matrix(0,1,1,0,525,115.155)"
           style="font-variant:normal;font-weight:normal;font-size:15px;font-family:Helvetica;-inkscape-font-specification:Helvetica;writing-mode:lr-tb;fill:#000000;fill-opacity:1;fill-rule:nonzero;stroke:none"
           id="text22"><tspan
             x="0 8.3400002 12.51 20.85 103.75005 112.09005 116.26005 124.60005 207.50011 215.8401 220.0101 228.3501 311.50006 319.84006 324.01004 332.35004 415.25009 423.59009 427.7601 436.1001 519.00012 527.34015 531.51013 539.85016"
             y="0"
             sodipodi:role="line"
             id="tspan24">0.000.020.040.060.080.10</tspan><tspan
             x="246.188 251.183 256.17801 267.008 271.17801 276.173 284.513 297.008"
             y="20"
             sodipodi:role="line"
             id="tspan26">r-R (nm)</tspan></text>
</g><path
         d="m 5075,1297.5 0,25 m -402.5,-25 0,25 m -402.5,-25 0,25 m -402.5,-25 0,25 m -402.5,-25 0,25 m -402.5,-25 0,25 m -402.5,-25 0,25 m -400,-25 0,25 m -405,-25 0,25 m -400,-25 0,25 m -405,-25 0,25 m 4025,5165 0,-25 m -402.5,25 0,-25 m -402.5,25 0,-25 m -402.5,25 0,-25 m -402.5,25 0,-25 m -402.5,25 0,-25 m -402.5,25 0,-25 m -400,25 0,-25 m -405,25 0,-25 m -400,25 0,-25 m -405,25 0,-25"
         style="fill:none;stroke:#000000;stroke-width:2.5;stroke-linecap:round;stroke-linejoin:miter;stroke-miterlimit:10;stroke-dasharray:none;stroke-opacity:1"
         id="path28"
         inkscape:connector-curvature="0" /><path
         d="m 5075,1297.5 0,50 m -805,-50 0,50 m -805,-50 0,50 m -805,-50 0,50 m -805,-50 0,50 m -805,-50 0,50 m 4025,5140 0,-50 m -805,50 0,-50 m -805,50 0,-50 m -805,50 0,-50 m -805,50 0,-50 m -805,50 0,-50"
         style="fill:none;stroke:#000000;stroke-width:2.5;stroke-linecap:round;stroke-linejoin:miter;stroke-miterlimit:10;stroke-dasharray:none;stroke-opacity:1"
         id="path30"
         inkscape:connector-curvature="0" /><g
         id="g32"
         transform="scale(10,10)"><text
           transform="matrix(0,1,1,0,512.5,99.4004)"
           style="font-variant:normal;font-weight:normal;font-size:15px;font-family:Helvetica;-inkscape-font-specification:Helvetica;writing-mode:lr-tb;fill:#000000;fill-opacity:1;fill-rule:nonzero;stroke:none"
           id="text34"><tspan
             x="0 8.3400002 12.51"
             y="0"
             sodipodi:role="line"
             id="tspan36">0.0</tspan><tspan
             x="0 8.3400002 12.51"
             y="-80.5"
             sodipodi:role="line"
             id="tspan38">2.0</tspan><tspan
             x="0 8.3400002 12.51"
             y="-161"
             sodipodi:role="line"
             id="tspan40">4.0</tspan><tspan
             x="0 8.3400002 12.51"
             y="-241.5"
             sodipodi:role="line"
             id="tspan42">6.0</tspan><tspan
             x="0 8.3400002 12.51"
             y="-322"
             sodipodi:role="line"
             id="tspan44">8.0</tspan><tspan
             x="-8.3398399 0.00016 8.3401604 12.51016"
             y="-402.5"
             sodipodi:role="line"
             id="tspan46">10.0</tspan></text>
<text
           transform="matrix(-1,0,0,1,369.594,77)"
           style="font-variant:normal;font-weight:normal;font-size:15px;font-family:Helvetica;-inkscape-font-specification:Helvetica;writing-mode:lr-tb;fill:#000000;fill-opacity:1;fill-rule:nonzero;stroke:none"
           id="text48"><tspan
             x="0"
             y="0"
             id="tspan50">V</tspan></text>
<text
           transform="matrix(-1,0,0,1,359.5889,81.5)"
           style="font-variant:normal;font-weight:normal;font-size:9px;font-family:Helvetica;-inkscape-font-specification:Helvetica;writing-mode:lr-tb;fill:#000000;fill-opacity:1;fill-rule:nonzero;stroke:none"
           id="text52"><tspan
             x="0 5.0040002 10.008 14.508 17.504999"
             y="0"
             sodipodi:role="line"
             id="tspan54">posre</tspan></text>
<text
           transform="matrix(-1,0,0,1,332.9099,77)"
           style="font-variant:normal;font-weight:normal;font-size:15px;font-family:Helvetica;-inkscape-font-specification:Helvetica;writing-mode:lr-tb;fill:#000000;fill-opacity:1;fill-rule:nonzero;stroke:none"
           id="text56"><tspan
             x="0 4.9949999 12.495 19.995001 24.165001 36.66 45 48.330002"
             y="0"
             sodipodi:role="line"
             id="tspan58">(kJ mole</tspan></text>
<text
           transform="matrix(-1,0,0,1,276.2401,68)"
           style="font-variant:normal;font-weight:normal;font-size:9px;font-family:Helvetica;-inkscape-font-specification:Helvetica;writing-mode:lr-tb;fill:#000000;fill-opacity:1;fill-rule:nonzero;stroke:none"
           id="text60"><tspan
             x="0 5.0040002"
             y="0"
             sodipodi:role="line"
             id="tspan62">–1</tspan></text>
<text
           transform="matrix(-1,0,0,1,266.2323,77)"
           style="font-variant:normal;font-weight:normal;font-size:15px;font-family:Helvetica;-inkscape-font-specification:Helvetica;writing-mode:lr-tb;fill:#000000;fill-opacity:1;fill-rule:nonzero;stroke:none"
           id="text64"><tspan
             x="0"
             y="0"
             id="tspan66">)</tspan></text>
</g><path
         d="m 5075,1297.5 0,102.5 -2.5,52.5 -2.5,50 -2.5,52.5 -5,52.5 -5,50 -7.5,52.5 -5,50 -7.5,52.5 -10,50 -7.5,52.5 -10,50 -10,52.5 -12.5,50 -12.5,52.5 -12.5,52.5 -15,50 -12.5,52.5 -17.5,50 -15,52.5 -17.5,50 -17.5,52.5 -17.5,50 -20,52.5 -20,52.5 -22.5,50 -20,52.5 -22.5,50 -25,52.5 -22.5,50 -25,52.5 -25,50 -27.5,52.5 -27.5,50 -27.5,52.5 -30,52.5 -27.5,50 -32.5,52.5 -30,50 -32.5,52.5 -32.5,50 -32.5,52.5 -35,50 -35,52.5 -35,52.5 -37.5,50 -37.5,52.5 -37.5,50 -40,52.5 -40,50 -40,52.5 -42.5,50 -42.5,52.5 -42.5,50 -42.5,52.5 -45,52.5 -45,50 -47.5,52.5 -47.5,50 -47.5,52.5 -47.5,50 -50,52.5 -50,50 -50,52.5 -52.5,52.5 -52.5,50 -52.5,52.5 -55,50 -55,52.5 -55,50 -57.5,52.5 -57.5,50 -57.5,52.5 -57.5,50 -60,52.5 -60,52.5 -62.5,50 -62.5,52.5 -62.5,50 -62.5,52.5 -65,50 -65,52.5 -65,50 -67.5,52.5 -67.5,52.5 -67.5,50 -70,52.5 -70,50 -70,52.5 -70,50 -72.5,52.5 -75,50 -72.5,52.5 -75,50 -75,52.5 -77.5,52.5 -75,50 -77.5,52.5 -80,50 -80,52.5"
         style="fill:none;stroke:#000000;stroke-width:2.5;stroke-linecap:round;stroke-linejoin:miter;stroke-miterlimit:10;stroke-dasharray:none;stroke-opacity:1"
         id="path68"
         inkscape:connector-curvature="0" /></g></g></svg>