<?xml version="1.0" encoding="UTF-8" standalone="no"?>
<!-- Created with Inkscape (http://www.inkscape.org/) -->

<svg
   xmlns:dc="http://purl.org/dc/elements/1.1/"
   xmlns:cc="http://creativecommons.org/ns#"
   xmlns:rdf="http://www.w3.org/1999/02/22-rdf-syntax-ns#"
   xmlns:svg="http://www.w3.org/2000/svg"
   xmlns="http://www.w3.org/2000/svg"
   xmlns:sodipodi="http://sodipodi.sourceforge.net/DTD/sodipodi-0.dtd"
   xmlns:inkscape="http://www.inkscape.org/namespaces/inkscape"
   id="svg2"
   version="1.1"
   inkscape:version="0.91 r13725"
   xml:space="preserve"
   width="1052.5"
   height="743.75"
   viewBox="0 0 1052.5 743.75"
   sodipodi:docname="f-rbs.svg"><metadata
     id="metadata8"><rdf:RDF><cc:Work
         rdf:about=""><dc:format>image/svg+xml</dc:format><dc:type
           rdf:resource="http://purl.org/dc/dcmitype/StillImage" /><dc:title></dc:title></cc:Work></rdf:RDF></metadata><defs
     id="defs6" /><sodipodi:namedview
     pagecolor="#ffffff"
     bordercolor="#666666"
     borderopacity="1"
     objecttolerance="10"
     gridtolerance="10"
     guidetolerance="10"
     inkscape:pageopacity="0"
     inkscape:pageshadow="2"
     inkscape:window-width="760"
     inkscape:window-height="480"
     id="namedview4"
     showgrid="false"
     inkscape:zoom="0.31731092"
     inkscape:cx="526.25"
     inkscape:cy="371.875"
     inkscape:window-x="0"
     inkscape:window-y="25"
     inkscape:window-maximized="0"
     inkscape:current-layer="g10" /><g
     id="g10"
     inkscape:groupmode="layer"
     inkscape:label="ink_ext_XXXXXX"
     transform="matrix(0,1.25,1.25,0,0,0)"><g
       id="g12"
       transform="scale(0.1,0.1)"><path
         d="m 5075,1297.5 -4025,0 0,5190 4025,0 0,-5190"
         style="fill:none;stroke:#000000;stroke-width:2.5;stroke-linecap:round;stroke-linejoin:miter;stroke-miterlimit:10;stroke-dasharray:none;stroke-opacity:1"
         id="path14"
         inkscape:connector-curvature="0" /><path
         d="m 5075,1297.5 -25,0 m 25,432.5 -25,0 m 25,432.5 -25,0 m 25,432.5 -25,0 m 25,432.5 -25,0 m 25,432.5 -25,0 m 25,432.5 -25,0 m 25,432.5 -25,0 m 25,432.5 -25,0 m 25,432.5 -25,0 m 25,432.5 -25,0 m 25,432.5 -25,0 m 25,432.5 -25,0 m -4000,-5190 25,0 m -25,432.5 25,0 m -25,432.5 25,0 m -25,432.5 25,0 m -25,432.5 25,0 m -25,432.5 25,0 m -25,432.5 25,0 m -25,432.5 25,0 m -25,432.5 25,0 m -25,432.5 25,0 m -25,432.5 25,0 m -25,432.5 25,0 m -25,432.5 25,0"
         style="fill:none;stroke:#000000;stroke-width:2.5;stroke-linecap:round;stroke-linejoin:miter;stroke-miterlimit:10;stroke-dasharray:none;stroke-opacity:1"
         id="path16"
         inkscape:connector-curvature="0" /><path
         d="m 5075,1297.5 -50,0 m 50,1297.5 -50,0 m 50,1297.5 -50,0 m 50,1297.5 -50,0 m 50,1297.5 -50,0 m -3975,-5190 50,0 m -50,1297.5 50,0 m -50,1297.5 50,0 m -50,1297.5 50,0 m -50,1297.5 50,0"
         style="fill:none;stroke:#000000;stroke-width:2.5;stroke-linecap:round;stroke-linejoin:miter;stroke-miterlimit:10;stroke-dasharray:none;stroke-opacity:1"
         id="path18"
         inkscape:connector-curvature="0" /><g
         id="g20"
         transform="scale(10,10)"><text
           transform="matrix(0,1,1,0,525,119.325)"
           style="font-variant:normal;font-weight:normal;font-size:15px;font-family:Helvetica;-inkscape-font-specification:Helvetica;writing-mode:lr-tb;fill:#000000;fill-opacity:1;fill-rule:nonzero;stroke:none"
           id="text22"><tspan
             x="0 8.3400002 12.51 125.58015 133.92015 142.26015 146.43015 251.16029 259.50031 267.8403 276.1803 280.35031 380.91031 389.25031 397.5903 405.9303 410.10031 510.66031 519.00031 527.34027 535.6803 539.85028"
             y="0"
             sodipodi:role="line"
             id="tspan24">0.090.0180.0270.0360.0</tspan></text>
<text
           transform="matrix(0,1,1,0,545,387.165)"
           style="font-variant:normal;font-weight:normal;font-size:15px;font-family:Symbol;-inkscape-font-specification:Symbol;writing-mode:lr-tb;fill:#000000;fill-opacity:1;fill-rule:nonzero;stroke:none"
           id="text26"><tspan
             x="0"
             y="0"
             id="tspan28">φ</tspan></text>
</g><path
         d="m 5075,1297.5 0,25 m -402.5,-25 0,25 m -402.5,-25 0,25 m -402.5,-25 0,25 m -402.5,-25 0,25 m -402.5,-25 0,25 m -402.5,-25 0,25 m -400,-25 0,25 m -405,-25 0,25 m -400,-25 0,25 m -405,-25 0,25 m 4025,5165 0,-25 m -402.5,25 0,-25 m -402.5,25 0,-25 m -402.5,25 0,-25 m -402.5,25 0,-25 m -402.5,25 0,-25 m -402.5,25 0,-25 m -400,25 0,-25 m -405,25 0,-25 m -400,25 0,-25 m -405,25 0,-25"
         style="fill:none;stroke:#000000;stroke-width:2.5;stroke-linecap:round;stroke-linejoin:miter;stroke-miterlimit:10;stroke-dasharray:none;stroke-opacity:1"
         id="path30"
         inkscape:connector-curvature="0" /><path
         d="m 5075,1297.5 0,50 m -805,-50 0,50 m -805,-50 0,50 m -805,-50 0,50 m -805,-50 0,50 m -805,-50 0,50 m 4025,5140 0,-50 m -805,50 0,-50 m -805,50 0,-50 m -805,50 0,-50 m -805,50 0,-50 m -805,50 0,-50"
         style="fill:none;stroke:#000000;stroke-width:2.5;stroke-linecap:round;stroke-linejoin:miter;stroke-miterlimit:10;stroke-dasharray:none;stroke-opacity:1"
         id="path32"
         inkscape:connector-curvature="0" /><g
         id="g34"
         transform="scale(10,10)"><text
           transform="matrix(0,1,1,0,512.5,98.9004)"
           style="font-variant:normal;font-weight:normal;font-size:15px;font-family:Helvetica;-inkscape-font-specification:Helvetica;writing-mode:lr-tb;fill:#000000;fill-opacity:1;fill-rule:nonzero;stroke:none"
           id="text36"><tspan
             x="0 8.3400002 12.51"
             y="0"
             sodipodi:role="line"
             id="tspan38">0.0</tspan><tspan
             x="-8.3398399 0.00016 8.3401604 12.51016"
             y="-80.5"
             sodipodi:role="line"
             id="tspan40">10.0</tspan><tspan
             x="-8.3398399 0.00016 8.3401604 12.51016"
             y="-161"
             sodipodi:role="line"
             id="tspan42">20.0</tspan><tspan
             x="-8.3398399 0.00016 8.3401604 12.51016"
             y="-241.5"
             sodipodi:role="line"
             id="tspan44">30.0</tspan><tspan
             x="-8.3398399 0.00016 8.3401604 12.51016"
             y="-322"
             sodipodi:role="line"
             id="tspan46">40.0</tspan><tspan
             x="-8.3398399 0.00016 8.3401604 12.51016"
             y="-402.5"
             sodipodi:role="line"
             id="tspan48">50.0</tspan></text>
<text
           transform="matrix(-1,0,0,1,355.007,76.25)"
           style="font-variant:normal;font-weight:normal;font-size:15px;font-family:Helvetica;-inkscape-font-specification:Helvetica;writing-mode:lr-tb;fill:#000000;fill-opacity:1;fill-rule:nonzero;stroke:none"
           id="text50"><tspan
             x="0"
             y="0"
             id="tspan52">V</tspan></text>
<text
           transform="matrix(-1,0,0,1,345.0019,80.75)"
           style="font-variant:normal;font-weight:normal;font-size:9px;font-family:Helvetica;-inkscape-font-specification:Helvetica;writing-mode:lr-tb;fill:#000000;fill-opacity:1;fill-rule:nonzero;stroke:none"
           id="text54"><tspan
             x="0"
             y="0"
             id="tspan56">d</tspan></text>
<text
           transform="matrix(-1,0,0,1,335.82799,76.25)"
           style="font-variant:normal;font-weight:normal;font-size:15px;font-family:Helvetica;-inkscape-font-specification:Helvetica;writing-mode:lr-tb;fill:#000000;fill-opacity:1;fill-rule:nonzero;stroke:none"
           id="text58"><tspan
             x="0 4.9949999 12.495 19.995001 24.165001 36.66 45 48.330002"
             y="0"
             sodipodi:role="line"
             id="tspan60">(kJ mole</tspan></text>
<text
           transform="matrix(-1,0,0,1,279.15819,67.25)"
           style="font-variant:normal;font-weight:normal;font-size:9px;font-family:Helvetica;-inkscape-font-specification:Helvetica;writing-mode:lr-tb;fill:#000000;fill-opacity:1;fill-rule:nonzero;stroke:none"
           id="text62"><tspan
             x="0 5.0040002"
             y="0"
             sodipodi:role="line"
             id="tspan64">–1</tspan></text>
<text
           transform="matrix(-1,0,0,1,269.15039,76.25)"
           style="font-variant:normal;font-weight:normal;font-size:15px;font-family:Helvetica;-inkscape-font-specification:Helvetica;writing-mode:lr-tb;fill:#000000;fill-opacity:1;fill-rule:nonzero;stroke:none"
           id="text66"><tspan
             x="0"
             y="0"
             id="tspan68">)</tspan></text>
</g><path
         d="m 1470,1297.5 35,52.5 107.5,50 172.5,52.5 227.5,50 275,52.5 307.5,52.5 325,50 330,52.5 320,50 300,52.5 267.5,50 227.5,52.5 185,50 137.5,52.5 92.5,50 47.5,52.5 12.5,52.5 -20,50 -45,52.5 -62.5,50 -72.5,52.5 -77.5,50 -77.5,52.5 -72.5,50 -67.5,52.5 -60,52.5 -50,50 -42.5,52.5 -35,50 -27.5,52.5 -22.5,50 -15,52.5 -7.5,50 -2.5,52.5 7.5,50 17.5,52.5 30,52.5 40,50 57.5,52.5 67.5,50 80,52.5 90,50 97.5,52.5 100,50 97.5,52.5 92.5,52.5 80,50 65,52.5 45,50 22.5,52.5 0,50 -22.5,52.5 -45,50 -65,52.5 -80,50 -92.5,52.5 -97.5,52.5 -100,50 -97.5,52.5 -90,50 -80,52.5 -67.5,50 -57.5,52.5 -40,50 -30,52.5 -17.5,52.5 -7.5,50 2.5,52.5 7.5,50 15,52.5 22.5,50 27.5,52.5 35,50 42.5,52.5 50,50 60,52.5 67.5,52.5 72.5,50 77.5,52.5 77.5,50 72.5,52.5 62.5,50 45,52.5 20,50 -12.5,52.5 -47.5,52.5 -92.5,50 -137.5,52.5 -185,50 -227.5,52.5 -267.5,50 -300,52.5 -320,50 -330,52.5 -325,50 -307.5,52.5 -275,52.5 -227.5,50 -172.5,52.5 -107.5,50 -35,52.5"
         style="fill:none;stroke:#000000;stroke-width:2.5;stroke-linecap:round;stroke-linejoin:miter;stroke-miterlimit:10;stroke-dasharray:none;stroke-opacity:1"
         id="path70"
         inkscape:connector-curvature="0" /></g></g></svg>