<?xml version="1.0" encoding="UTF-8" standalone="no"?>
<!-- Created with Inkscape (http://www.inkscape.org/) -->

<svg
   xmlns:dc="http://purl.org/dc/elements/1.1/"
   xmlns:cc="http://creativecommons.org/ns#"
   xmlns:rdf="http://www.w3.org/1999/02/22-rdf-syntax-ns#"
   xmlns:svg="http://www.w3.org/2000/svg"
   xmlns="http://www.w3.org/2000/svg"
   xmlns:sodipodi="http://sodipodi.sourceforge.net/DTD/sodipodi-0.dtd"
   xmlns:inkscape="http://www.inkscape.org/namespaces/inkscape"
   id="svg2"
   version="1.1"
   inkscape:version="0.91 r13725"
   xml:space="preserve"
   width="383.75"
   height="137.5"
   viewBox="0 0 383.75 137.5"
   sodipodi:docname="ring-imp.svg"><metadata
     id="metadata8"><rdf:RDF><cc:Work
         rdf:about=""><dc:format>image/svg+xml</dc:format><dc:type
           rdf:resource="http://purl.org/dc/dcmitype/StillImage" /><dc:title></dc:title></cc:Work></rdf:RDF></metadata><defs
     id="defs6" /><sodipodi:namedview
     pagecolor="#ffffff"
     bordercolor="#666666"
     borderopacity="1"
     objecttolerance="10"
     gridtolerance="10"
     guidetolerance="10"
     inkscape:pageopacity="0"
     inkscape:pageshadow="2"
     inkscape:window-width="760"
     inkscape:window-height="480"
     id="namedview4"
     showgrid="false"
     inkscape:zoom="0.96156352"
     inkscape:cx="191.875"
     inkscape:cy="68.75"
     inkscape:window-x="0"
     inkscape:window-y="25"
     inkscape:window-maximized="0"
     inkscape:current-layer="g10" /><g
     id="g10"
     inkscape:groupmode="layer"
     inkscape:label="ink_ext_XXXXXX"
     transform="matrix(1.25,0,0,-1.25,0,137.5)"><g
       id="g12"
       transform="scale(0.1,0.1)"><path
         d="m 185,279 c 0,-49.703 -40.297,-90 -90,-90 -49.7031,0 -90,40.297 -90,90 0,49.703 40.2969,90 90,90 49.703,0 90,-40.297 90,-90"
         style="fill:#000000;fill-opacity:1;fill-rule:evenodd;stroke:none"
         id="path14"
         inkscape:connector-curvature="0" /><path
         d="m 185,279 c 0,-49.703 -40.297,-90 -90,-90 -49.7031,0 -90,40.297 -90,90 0,49.703 40.2969,90 90,90 49.703,0 90,-40.297 90,-90 z"
         style="fill:none;stroke:#000000;stroke-width:4.5;stroke-linecap:butt;stroke-linejoin:miter;stroke-miterlimit:10;stroke-dasharray:none;stroke-opacity:1"
         id="path16"
         inkscape:connector-curvature="0" /><path
         d="m 1085,999 c 0,-49.703 -40.3,-90 -90,-90 -49.703,0 -90,40.297 -90,90 0,49.7 40.297,90 90,90 49.7,0 90,-40.3 90,-90"
         style="fill:#000000;fill-opacity:1;fill-rule:evenodd;stroke:none"
         id="path18"
         inkscape:connector-curvature="0" /><path
         d="m 1085,999 c 0,-49.703 -40.3,-90 -90,-90 -49.703,0 -90,40.297 -90,90 0,49.7 40.297,90 90,90 49.7,0 90,-40.3 90,-90 z"
         style="fill:none;stroke:#000000;stroke-width:4.5;stroke-linecap:butt;stroke-linejoin:miter;stroke-miterlimit:10;stroke-dasharray:none;stroke-opacity:1"
         id="path20"
         inkscape:connector-curvature="0" /><path
         d="m 2165,999 c 0,-49.703 -40.3,-90 -90,-90 -49.7,0 -90,40.297 -90,90 0,49.7 40.3,90 90,90 49.7,0 90,-40.3 90,-90"
         style="fill:#000000;fill-opacity:1;fill-rule:evenodd;stroke:none"
         id="path22"
         inkscape:connector-curvature="0" /><path
         d="m 2165,999 c 0,-49.703 -40.3,-90 -90,-90 -49.7,0 -90,40.297 -90,90 0,49.7 40.3,90 90,90 49.7,0 90,-40.3 90,-90 z"
         style="fill:none;stroke:#000000;stroke-width:4.5;stroke-linecap:butt;stroke-linejoin:miter;stroke-miterlimit:10;stroke-dasharray:none;stroke-opacity:1"
         id="path24"
         inkscape:connector-curvature="0" /><path
         d="m 3065,279 c 0,-49.703 -40.3,-90 -90,-90 -49.7,0 -90,40.297 -90,90 0,49.703 40.3,90 90,90 49.7,0 90,-40.297 90,-90"
         style="fill:#000000;fill-opacity:1;fill-rule:evenodd;stroke:none"
         id="path26"
         inkscape:connector-curvature="0" /><path
         d="m 3065,279 c 0,-49.703 -40.3,-90 -90,-90 -49.7,0 -90,40.297 -90,90 0,49.703 40.3,90 90,90 49.7,0 90,-40.297 90,-90 z"
         style="fill:none;stroke:#000000;stroke-width:4.5;stroke-linecap:butt;stroke-linejoin:miter;stroke-miterlimit:10;stroke-dasharray:none;stroke-opacity:1"
         id="path28"
         inkscape:connector-curvature="0" /><path
         d="M 95,279 995,999"
         style="fill:#000000;fill-opacity:1;fill-rule:evenodd;stroke:none"
         id="path30"
         inkscape:connector-curvature="0" /><path
         d="M 95,279 995,999"
         style="fill:none;stroke:#000000;stroke-width:9;stroke-linecap:butt;stroke-linejoin:miter;stroke-miterlimit:10;stroke-dasharray:none;stroke-opacity:1"
         id="path32"
         inkscape:connector-curvature="0" /><path
         d="m 995,999 1080,0"
         style="fill:#000000;fill-opacity:1;fill-rule:evenodd;stroke:none"
         id="path34"
         inkscape:connector-curvature="0" /><path
         d="m 995,999 1080,0"
         style="fill:none;stroke:#000000;stroke-width:9;stroke-linecap:butt;stroke-linejoin:miter;stroke-miterlimit:10;stroke-dasharray:none;stroke-opacity:1"
         id="path36"
         inkscape:connector-curvature="0" /><path
         d="M 2075,999 2975,279"
         style="fill:#000000;fill-opacity:1;fill-rule:evenodd;stroke:none"
         id="path38"
         inkscape:connector-curvature="0" /><path
         d="M 2075,999 2975,279"
         style="fill:none;stroke:#000000;stroke-width:9;stroke-linecap:butt;stroke-linejoin:miter;stroke-miterlimit:10;stroke-dasharray:none;stroke-opacity:1"
         id="path40"
         inkscape:connector-curvature="0" /><path
         d="M 95,279 2075,999"
         style="fill:#000000;fill-opacity:1;fill-rule:evenodd;stroke:none"
         id="path42"
         inkscape:connector-curvature="0" /><path
         d="M 95,279 2075,999"
         style="fill:none;stroke:#000000;stroke-width:9;stroke-linecap:butt;stroke-linejoin:miter;stroke-miterlimit:10;stroke-dasharray:54;stroke-dashoffset:0;stroke-opacity:1"
         id="path44"
         inkscape:connector-curvature="0" /><path
         d="M 995,999 2975,279"
         style="fill:#000000;fill-opacity:1;fill-rule:evenodd;stroke:none"
         id="path46"
         inkscape:connector-curvature="0" /><path
         d="M 995,999 2975,279"
         style="fill:none;stroke:#000000;stroke-width:9;stroke-linecap:butt;stroke-linejoin:miter;stroke-miterlimit:10;stroke-dasharray:54;stroke-dashoffset:0;stroke-opacity:1"
         id="path48"
         inkscape:connector-curvature="0" /><g
         id="g50"
         transform="scale(10,10)"><text
           transform="matrix(1,0,0,-1,207.5,72.9)"
           style="font-style:italic;font-variant:normal;font-weight:bold;font-size:18px;font-family:Times;-inkscape-font-specification:Times-BoldItalic;writing-mode:lr-tb;fill:#000000;fill-opacity:1;fill-rule:nonzero;stroke:none"
           id="text52"><tspan
             x="0"
             y="0"
             id="tspan54">k</tspan><tspan
             x="90 -198"
             y="72"
             sodipodi:role="line"
             id="tspan56">li</tspan><tspan
             x="-108"
             y="0"
             id="tspan58">j</tspan></text>
</g></g></g></svg>