<?xml version="1.0" encoding="UTF-8" standalone="no"?>
<!-- Created with Inkscape (http://www.inkscape.org/) -->

<svg
   xmlns:dc="http://purl.org/dc/elements/1.1/"
   xmlns:cc="http://creativecommons.org/ns#"
   xmlns:rdf="http://www.w3.org/1999/02/22-rdf-syntax-ns#"
   xmlns:svg="http://www.w3.org/2000/svg"
   xmlns="http://www.w3.org/2000/svg"
   xmlns:sodipodi="http://sodipodi.sourceforge.net/DTD/sodipodi-0.dtd"
   xmlns:inkscape="http://www.inkscape.org/namespaces/inkscape"
   id="svg2"
   version="1.1"
   inkscape:version="0.91 r13725"
   xml:space="preserve"
   width="467.5"
   height="398.75"
   viewBox="0 0 467.5 398.75"
   sodipodi:docname="softcore.svg"><metadata
     id="metadata8"><rdf:RDF><cc:Work
         rdf:about=""><dc:format>image/svg+xml</dc:format><dc:type
           rdf:resource="http://purl.org/dc/dcmitype/StillImage" /><dc:title></dc:title></cc:Work></rdf:RDF></metadata><defs
     id="defs6" /><sodipodi:namedview
     pagecolor="#ffffff"
     bordercolor="#666666"
     borderopacity="1"
     objecttolerance="10"
     gridtolerance="10"
     guidetolerance="10"
     inkscape:pageopacity="0"
     inkscape:pageshadow="2"
     inkscape:window-width="760"
     inkscape:window-height="480"
     id="namedview4"
     showgrid="false"
     inkscape:zoom="0.59184953"
     inkscape:cx="233.75"
     inkscape:cy="199.375"
     inkscape:window-x="0"
     inkscape:window-y="25"
     inkscape:window-maximized="0"
     inkscape:current-layer="g10" /><g
     id="g10"
     inkscape:groupmode="layer"
     inkscape:label="ink_ext_XXXXXX"
     transform="matrix(1.25,0,0,-1.25,0,398.75)"><g
       id="g12"
       transform="scale(0.1,0.1)"><path
         d="m 534,475.199 0,24 m 264,-24 0,24 m 261.6,-24 0,24 m 266.4,-24 0,24 m 264,-24 0,24 m 264,-24 0,24 m 264,-24 0,24 m 264,-24 0,24 m 261.6,-24 0,24 m 266.4,-24 0,24 m 261.6,-24 0,24 m 266.4,-24 0,24 m 264,-24 0,24 M 534,3108 l 0,-24 m 264,24 0,-24 m 261.6,24 0,-24 m 266.4,24 0,-24 m 264,24 0,-24 m 264,24 0,-24 m 264,24 0,-24 m 264,24 0,-24 m 261.6,24 0,-24 m 266.4,24 0,-24 m 261.6,24 0,-24 m 266.4,24 0,-24 m 264,24 0,-24"
         style="fill:none;stroke:#000000;stroke-width:4.80000019;stroke-linecap:round;stroke-linejoin:miter;stroke-miterlimit:10;stroke-dasharray:none;stroke-opacity:1"
         id="path14"
         inkscape:connector-curvature="0" /><path
         d="m 534,475.199 0,48 m 525.6,-48 0,48 m 530.4,-48 0,48 m 528,-48 0,48 m 525.6,-48 0,48 m 528,-48 0,48 m 530.4,-48 0,48 M 534,3108 l 0,-48 m 525.6,48 0,-48 m 530.4,48 0,-48 m 528,48 0,-48 m 525.6,48 0,-48 m 528,48 0,-48 m 530.4,48 0,-48"
         style="fill:none;stroke:#000000;stroke-width:4.80000019;stroke-linecap:round;stroke-linejoin:miter;stroke-miterlimit:10;stroke-dasharray:none;stroke-opacity:1"
         id="path16"
         inkscape:connector-curvature="0" /><g
         id="g18"
         transform="scale(10,10)"><text
           transform="matrix(1,0,0,-1,49.3969,30.7199)"
           style="font-variant:normal;font-weight:normal;font-size:14.39999962px;font-family:Helvetica;-inkscape-font-specification:Helvetica;writing-mode:lr-tb;fill:#000000;fill-opacity:1;fill-rule:nonzero;stroke:none"
           id="text20"><tspan
             x="0 46.555489 54.56189 58.565086 105.59995 152.39534 160.40175 164.40494 210.96014 257.75552 265.76193 269.76514 316.80014"
             y="0"
             sodipodi:role="line"
             id="tspan22">00.511.522.53</tspan><tspan
             x="160.005"
             y="19.200001"
             id="tspan24">r</tspan></text>
</g><path
         d="m 534,475.199 24,0 M 534,696 l 24,0 m -24,218.398 24,0 m -24,218.402 24,0 m -24,220.8 24,0 m -24,218.4 24,0 m -24,220.8 24,0 m -24,218.4 24,0 m -24,218.4 24,0 m -24,220.8 24,0 m -24,218.4 24,0 m -24,218.4 24,0 m -24,220.8 24,0 m 3144,-2632.801 -24,0 m 24,220.801 -24,0 m 24,218.398 -24,0 m 24,218.402 -24,0 m 24,220.8 -24,0 m 24,218.4 -24,0 m 24,220.8 -24,0 m 24,218.4 -24,0 m 24,218.4 -24,0 m 24,220.8 -24,0 m 24,218.4 -24,0 m 24,218.4 -24,0 m 24,220.8 -24,0"
         style="fill:none;stroke:#000000;stroke-width:4.80000019;stroke-linecap:round;stroke-linejoin:miter;stroke-miterlimit:10;stroke-dasharray:none;stroke-opacity:1"
         id="path26"
         inkscape:connector-curvature="0" /><path
         d="m 534,475.199 48,0 m -48,439.199 48,0 m -48,439.202 48,0 m -48,439.2 48,0 m -48,436.8 48,0 m -48,439.2 48,0 m -48,439.2 48,0 m 3120,-2632.801 -48,0 m 48,439.199 -48,0 m 48,439.202 -48,0 m 48,439.2 -48,0 m 48,436.8 -48,0 m 48,439.2 -48,0 m 48,439.2 -48,0"
         style="fill:none;stroke:#000000;stroke-width:4.80000019;stroke-linecap:round;stroke-linejoin:miter;stroke-miterlimit:10;stroke-dasharray:none;stroke-opacity:1"
         id="path28"
         inkscape:connector-curvature="0" /><g
         id="g30"
         transform="scale(10,10)"><text
           transform="matrix(1,0,0,-1,27.8645,42.7199)"
           style="font-variant:normal;font-weight:normal;font-size:14.39999962px;font-family:Helvetica;-inkscape-font-specification:Helvetica;writing-mode:lr-tb;fill:#000000;fill-opacity:1;fill-rule:nonzero;stroke:none"
           id="text32"><tspan
             x="0 8.4096003"
             y="0"
             sodipodi:role="line"
             id="tspan34">−1</tspan><tspan
             x="8.40938"
             y="-43.919899"
             id="tspan36">0</tspan><tspan
             x="8.40938"
             y="-87.840202"
             id="tspan38">1</tspan><tspan
             x="8.40938"
             y="-131.7601"
             id="tspan40">2</tspan><tspan
             x="8.40938"
             y="-175.4402"
             id="tspan42">3</tspan><tspan
             x="8.40938"
             y="-219.36011"
             id="tspan44">4</tspan><tspan
             x="8.40938"
             y="-263.28"
             id="tspan46">5</tspan></text>
<text
           transform="matrix(0,1,1,0,15.9602,167.038)"
           style="font-variant:normal;font-weight:normal;font-size:14.39999962px;font-family:Helvetica;-inkscape-font-specification:Helvetica;writing-mode:lr-tb;fill:#000000;fill-opacity:1;fill-rule:nonzero;stroke:none"
           id="text48"><tspan
             x="0"
             y="0"
             id="tspan50">V</tspan></text>
<text
           transform="matrix(0,1,1,0,20.28012,176.64269)"
           style="font-variant:normal;font-weight:normal;font-size:8.64000034px;font-family:Helvetica;-inkscape-font-specification:Helvetica;writing-mode:lr-tb;fill:#000000;fill-opacity:1;fill-rule:nonzero;stroke:none"
           id="text52"><tspan
             x="0 4.3200002"
             y="0"
             sodipodi:role="line"
             id="tspan54">sc</tspan></text>
</g><path
         d="m 1424.4,3108 4.8,-273.6 26.4,-681.6 24,-458.4 24,-309.6 26.4,-208.8 24,-139.2 24,-93.601 24,-60 26.4,-36 24,-24 24,-12 24,-4.801 50.4,0 24,4.801 26.4,4.801 24,7.199 24,4.801 24,7.199 26.4,4.801 24,7.199 24,4.801 24,4.801 26.4,4.801 24,4.796 24,4.801 24,2.403 26.4,2.398 24,4.801 24,2.398 26.4,2.403 24,2.398 24,2.398 24,2.403 26.4,0 24,2.398 24,2.403 24,0 26.4,2.398 24,0 24,2.398 50.4,0 24,2.403 50.4,0 24,2.398 98.4,0 24,2.403 148.8,0 24,2.398 369.6,0 24,2.398 448.8,0"
         style="fill:none;stroke:#000000;stroke-width:4.80000019;stroke-linecap:round;stroke-linejoin:miter;stroke-miterlimit:10;stroke-dasharray:none;stroke-opacity:1"
         id="path56"
         inkscape:connector-curvature="0" /><path
         d="m 534,2863.2 211.199,0 19.199,-2.4 21.602,0 21.602,-2.4 21.597,-2.4 21.602,-2.4 19.199,-4.8 21.602,-7.2 21.597,-7.2 21.602,-12 21.597,-14.4 19.204,-16.8 21.597,-24 21.601,-26.4 21.6,-33.6 19.2,-40.8 21.6,-48 21.6,-57.6 21.6,-64.8 21.6,-72 21.6,-84 19.2,-88.8 21.6,-98.4 21.6,-103.2 21.6,-108 21.6,-110.4 19.2,-110.4 21.6,-110.4 21.6,-108 21.6,-100.8 19.2,-96 21.6,-86.4 21.6,-76.8 21.6,-69.6 21.6,-57.6 19.2,-50.399 21.6,-40.801 21.6,-33.602 21.6,-26.398 21.6,-21.602 21.6,-14.398 19.2,-9.602 21.6,-7.199 21.6,-4.801 21.6,-2.398 21.6,2.398 19.2,0 21.6,4.801 21.6,2.403 21.6,4.796 21.6,4.801 19.2,4.801 21.6,4.801 21.6,4.801 21.6,4.796 19.2,4.801 21.6,4.801 21.6,2.398 21.6,4.801 21.6,2.403 21.6,4.796 19.2,2.403 21.6,4.801 21.6,2.398 21.6,2.398 21.6,2.403 19.2,2.398 21.6,2.403 21.6,2.398 21.6,0 21.6,2.398 19.2,2.403 21.6,0 21.6,2.398 21.6,0 21.6,2.403 19.2,0 21.6,2.398 21.6,0 21.6,2.398 40.8,0 21.6,2.403 64.8,0 19.2,2.398 84,0 21.6,2.403 170.4,0 21.6,2.398 379.2,0 21.6,2.398 444,0"
         style="fill:none;stroke:#000000;stroke-width:4.80000019;stroke-linecap:round;stroke-linejoin:miter;stroke-miterlimit:10;stroke-dasharray:96, 48;stroke-dashoffset:0;stroke-opacity:1"
         id="path58"
         inkscape:connector-curvature="0" /><path
         d="m 534,1792.8 146.398,0 21.602,-2.4 105.602,0 21.597,-2.4 21.602,0 19.199,-2.4 21.602,-2.4 21.597,-2.4 21.602,-4.8 21.597,-4.8 19.204,-7.2 21.597,-9.6 21.601,-12 21.6,-12 19.2,-16.8 21.6,-19.2 21.6,-24 21.6,-26.4 21.6,-28.8 21.6,-36 19.2,-38.4 21.6,-40.8 21.6,-45.6 21.6,-50.4 21.6,-50.4 19.2,-52.8 21.6,-52.8 21.6,-52.8 21.6,-50.4 19.2,-50.4 21.6,-45.6 21.6,-43.2 21.6,-40.799 21.6,-33.602 19.2,-28.801 21.6,-26.398 21.6,-19.199 21.6,-16.801 21.6,-14.398 21.6,-7.204 19.2,-7.199 21.6,-4.801 64.8,0 19.2,2.403 21.6,4.801 21.6,2.398 21.6,4.801 21.6,4.801 19.2,4.796 21.6,4.801 21.6,4.801 21.6,2.398 19.2,4.801 21.6,4.801 21.6,4.801 21.6,2.398 21.6,4.801 21.6,2.398 19.2,4.801 21.6,2.403 21.6,2.398 21.6,2.398 21.6,2.403 19.2,2.398 21.6,2.403 21.6,2.398 21.6,0 21.6,2.398 19.2,2.403 21.6,0 21.6,2.398 21.6,2.403 40.8,0 21.6,2.398 21.6,0 21.6,2.398 40.8,0 21.6,2.403 64.8,0 19.2,2.398 84,0 21.6,2.403 170.4,0 21.6,2.398 379.2,0 21.6,2.398 444,0"
         style="fill:none;stroke:#000000;stroke-width:4.80000019;stroke-linecap:round;stroke-linejoin:miter;stroke-miterlimit:10;stroke-dasharray:48, 48;stroke-dashoffset:0;stroke-opacity:1"
         id="path60"
         inkscape:connector-curvature="0" /><path
         d="m 1167.6,3108 16.8,-60 24,-76.8 24,-74.4 26.4,-67.2 24,-62.4 24,-57.6 24,-57.6 26.4,-50.4 24,-50.4 24,-45.6 24,-43.2 26.4,-40.8 24,-40.8 24,-36 26.4,-36 24,-33.6 24,-31.2 24,-31.2 26.4,-28.8 24,-28.8 24,-26.4 24,-26.4 26.4,-24 24,-24 24,-21.6 26.4,-21.6 24,-21.6 24,-19.2 24,-19.2 26.4,-19.2 24,-19.2 24,-16.8 24,-16.8 26.4,-16.8 24,-14.4 24,-14.4 24,-16.8 26.4,-14.4 24,-12 24,-14.4 26.4,-12 24,-14.4 24,-12 24,-12 26.4,-9.6 24,-12 24,-12 24,-9.6 26.4,-9.6 24,-9.6 24,-12 24,-7.2 26.4,-9.6 24,-9.6 24,-9.6 26.4,-7.2 24,-9.6 24,-7.2 24,-9.6 26.4,-7.2 24,-7.2 24,-7.2 24,-7.2 26.4,-7.2 24,-7.2 24,-7.2 24,-7.2 26.4,-4.8 24,-7.2 24,-7.2 26.4,-4.8 24,-7.2 24,-4.8 24,-7.2 26.4,-4.8 24,-4.8 24,-7.2 24,-4.8 26.4,-4.8 24,-4.8 24,-4.8 24,-4.8 26.4,-4.8 24,-4.8 24,-4.8 24,-4.8 26.4,-4.8 24,-4.8 24,-4.8 26.4,-2.4 24,-4.8 24,-4.8 24,-4.8 26.4,-2.4 24,-4.8 24,-2.4 24,-4.8 26.4,-4.8 24,-2.4 24,-4.8 26.4,-2.4 24,-4.8 24,-2.4 4.8,0"
         style="fill:none;stroke:#000000;stroke-width:4.80000019;stroke-linecap:round;stroke-linejoin:miter;stroke-miterlimit:10;stroke-dasharray:none;stroke-opacity:1"
         id="path62"
         inkscape:connector-curvature="0" /><path
         d="m 534,2464.8 230.398,0 21.602,-2.4 148.801,0 21.597,-2.4 19.204,0 21.597,-2.4 21.601,0 21.6,-2.4 19.2,-2.4 21.6,-2.4 21.6,-2.4 21.6,-4.8 21.6,-4.8 21.6,-4.8 19.2,-4.8 21.6,-7.2 21.6,-9.6 21.6,-7.2 21.6,-9.6 19.2,-12 21.6,-9.6 21.6,-14.4 21.6,-12 19.2,-14.4 21.6,-14.4 21.6,-16.8 21.6,-16.8 21.6,-16.8 19.2,-16.8 21.6,-16.8 21.6,-16.8 21.6,-19.2 21.6,-19.2 21.6,-16.8 19.2,-19.2 21.6,-16.8 21.6,-19.2 21.6,-16.8 21.6,-16.8 19.2,-16.8 21.6,-19.2 21.6,-16.8 21.6,-14.4 21.6,-16.8 19.2,-16.8 21.6,-14.4 21.6,-14.4 21.6,-14.4 19.2,-14.4 21.6,-14.4 21.6,-14.4 21.6,-14.4 21.6,-12 21.6,-14.4 19.2,-12 21.6,-12 21.6,-12 21.6,-12 21.6,-9.6 19.2,-12 21.6,-12 21.6,-9.6 21.6,-9.6 21.6,-12 19.2,-9.6 21.6,-9.6 21.6,-9.6 21.6,-9.6 21.6,-7.2 19.2,-9.6 21.6,-9.6 21.6,-7.2 21.6,-9.6 21.6,-7.2 19.2,-7.2 21.6,-7.2 21.6,-9.6 21.6,-7.2 21.6,-7.2 19.2,-7.2 21.6,-7.2 21.6,-7.2 21.6,-4.8 19.2,-7.2 21.6,-7.2 21.6,-4.8 21.6,-7.2 21.6,-7.2 21.6,-4.8 19.2,-7.2 21.6,-4.8 21.6,-4.8 21.6,-7.2 21.6,-4.8 19.2,-4.8 21.6,-4.8 21.6,-4.8 21.6,-7.2 21.6,-4.8 19.2,-4.8 21.6,-4.8 21.6,-4.8 21.6,-4.8 21.6,-4.8 19.2,-2.4 21.6,-4.8 21.6,-4.8 21.6,-4.8 19.2,-4.8 21.6,-2.4 21.6,-4.8 21.6,-4.8 21.6,-2.4 19.2,-4.8 21.6,-4.8 21.6,-2.4 21.6,-4.8 21.6,-2.4 21.6,-4.8 19.2,-2.4 21.6,-4.8 21.6,-2.4 21.6,-4.8 21.6,-2.4 19.2,-4.8 21.6,-2.4 21.6,-2.4 21.6,-4.8 21.6,-2.4 19.2,-2.4 21.6,-2.4 21.6,-4.8 21.6,-2.4 21.6,-2.4"
         style="fill:none;stroke:#000000;stroke-width:4.80000019;stroke-linecap:round;stroke-linejoin:miter;stroke-miterlimit:10;stroke-dasharray:96, 48;stroke-dashoffset:0;stroke-opacity:1"
         id="path64"
         inkscape:connector-curvature="0" /><path
         d="m 534,2390.4 400.801,0 21.597,-2.4 40.801,0 21.601,-2.4 21.6,0 19.2,-2.4 21.6,-2.4 21.6,-2.4 21.6,-2.4 21.6,-2.4 21.6,-4.8 19.2,-4.8 21.6,-4.8 21.6,-4.8 21.6,-7.2 21.6,-7.2 19.2,-7.2 21.6,-9.6 21.6,-9.6 21.6,-12 19.2,-9.6 21.6,-12 21.6,-14.4 21.6,-14.4 21.6,-12 19.2,-16.8 21.6,-14.4 21.6,-14.4 21.6,-16.8 21.6,-16.8 21.6,-16.8 19.2,-14.4 21.6,-16.8 21.6,-16.8 21.6,-16.8 21.6,-16.8 19.2,-16.8 21.6,-14.4 21.6,-16.8 21.6,-14.4 21.6,-16.8 19.2,-14.4 21.6,-14.4 21.6,-14.4 21.6,-14.4 19.2,-14.4 21.6,-14.4 21.6,-12 21.6,-14.4 21.6,-12 21.6,-14.4 19.2,-12 21.6,-12 21.6,-12 21.6,-9.6 21.6,-12 19.2,-12 21.6,-9.6 21.6,-12 21.6,-9.6 21.6,-9.6 19.2,-9.6 21.6,-9.6 21.6,-9.6 21.6,-9.6 21.6,-9.6 19.2,-7.2 21.6,-9.6 21.6,-7.2 21.6,-9.6 21.6,-7.2 19.2,-7.2 21.6,-9.6 21.6,-7.2 21.6,-7.2 21.6,-7.2 19.2,-7.2 21.6,-7.2 21.6,-7.2 21.6,-4.8 19.2,-7.2 21.6,-7.2 21.6,-7.2 21.6,-4.8 21.6,-7.2 21.6,-4.8 19.2,-7.2 21.6,-4.8 21.6,-4.8 21.6,-7.2 21.6,-4.8 19.2,-4.8 21.6,-4.8 21.6,-4.8 21.6,-7.2 19.2,-4.8 21.6,-4.8 21.6,-4.8 21.6,-4.8 21.6,-4.8 21.6,-4.8 19.2,-2.4 21.6,-4.8 21.6,-4.8 21.6,-4.8 19.2,-4.8 21.6,-2.4 21.6,-4.8 21.6,-4.8 21.6,-2.4 19.2,-4.8 21.6,-4.8 21.6,-2.4 21.6,-4.8 21.6,-2.4 21.6,-4.8 19.2,-2.4 21.6,-4.8 21.6,-2.4 21.6,-4.8 21.6,-2.4 19.2,-4.8 21.6,-2.4 21.6,-2.4 21.6,-4.8 21.6,-2.4 19.2,-2.4 21.6,-2.4 21.6,-4.8 21.6,-2.4 21.6,-2.4"
         style="fill:none;stroke:#000000;stroke-width:4.80000019;stroke-linecap:round;stroke-linejoin:miter;stroke-miterlimit:10;stroke-dasharray:48, 48;stroke-dashoffset:0;stroke-opacity:1"
         id="path66"
         inkscape:connector-curvature="0" /><path
         d="m 534,475.199 0,2632.801 3168,0 0,-2632.801 -3168,0"
         style="fill:none;stroke:#000000;stroke-width:4.80000019;stroke-linecap:round;stroke-linejoin:miter;stroke-miterlimit:10;stroke-dasharray:none;stroke-opacity:1"
         id="path68"
         inkscape:connector-curvature="0" /><path
         d="m 2461.2,2875.2 252,0"
         style="fill:none;stroke:#000000;stroke-width:4.80000019;stroke-linecap:round;stroke-linejoin:miter;stroke-miterlimit:10;stroke-dasharray:none;stroke-opacity:1"
         id="path70"
         inkscape:connector-curvature="0" /><g
         id="g72"
         transform="scale(10,10)"><text
           transform="matrix(1,0,0,-1,279.72,282.72)"
           style="font-variant:normal;font-weight:normal;font-size:14.39999962px;font-family:Helvetica;-inkscape-font-specification:Helvetica;writing-mode:lr-tb;fill:#000000;fill-opacity:1;fill-rule:nonzero;stroke:none"
           id="text74"><tspan
             x="0 8.0064001 15.2064 19.2096"
             y="0"
             sodipodi:role="line"
             id="tspan76">LJ, </tspan></text>
<text
           transform="matrix(1,0,0,-1,302.9329,282.72)"
           style="font-variant:normal;font-weight:normal;font-size:14.39999962px;font-family:Symbol;-inkscape-font-specification:Symbol;writing-mode:lr-tb;fill:#000000;fill-opacity:1;fill-rule:nonzero;stroke:none"
           id="text78"><tspan
             x="0"
             y="0"
             id="tspan80">α</tspan></text>
<text
           transform="matrix(1,0,0,-1,312.01923,282.72)"
           style="font-variant:normal;font-weight:normal;font-size:14.39999962px;font-family:Helvetica;-inkscape-font-specification:Helvetica;writing-mode:lr-tb;fill:#000000;fill-opacity:1;fill-rule:nonzero;stroke:none"
           id="text82"><tspan
             x="0 8.4096003"
             y="0"
             sodipodi:role="line"
             id="tspan84">=0</tspan></text>
</g><path
         d="m 2461.2,2697.6 252,0"
         style="fill:none;stroke:#000000;stroke-width:4.80000019;stroke-linecap:round;stroke-linejoin:miter;stroke-miterlimit:10;stroke-dasharray:96, 48;stroke-dashoffset:0;stroke-opacity:1"
         id="path86"
         inkscape:connector-curvature="0" /><g
         id="g88"
         transform="scale(10,10)"><text
           transform="matrix(1,0,0,-1,279.72,264.96)"
           style="font-variant:normal;font-weight:normal;font-size:14.39999962px;font-family:Helvetica;-inkscape-font-specification:Helvetica;writing-mode:lr-tb;fill:#000000;fill-opacity:1;fill-rule:nonzero;stroke:none"
           id="text90"><tspan
             x="0 8.0064001 15.2064 19.2096"
             y="0"
             sodipodi:role="line"
             id="tspan92">LJ, </tspan></text>
<text
           transform="matrix(1,0,0,-1,302.9329,264.96)"
           style="font-variant:normal;font-weight:normal;font-size:14.39999962px;font-family:Symbol;-inkscape-font-specification:Symbol;writing-mode:lr-tb;fill:#000000;fill-opacity:1;fill-rule:nonzero;stroke:none"
           id="text94"><tspan
             x="0"
             y="0"
             id="tspan96">α</tspan></text>
<text
           transform="matrix(1,0,0,-1,312.01923,264.96)"
           style="font-variant:normal;font-weight:normal;font-size:14.39999962px;font-family:Helvetica;-inkscape-font-specification:Helvetica;writing-mode:lr-tb;fill:#000000;fill-opacity:1;fill-rule:nonzero;stroke:none"
           id="text98"><tspan
             x="0 8.4096003 16.416 20.419201"
             y="0"
             sodipodi:role="line"
             id="tspan100">=1.5</tspan></text>
</g><path
         d="m 2461.2,2520 252,0"
         style="fill:none;stroke:#000000;stroke-width:4.80000019;stroke-linecap:round;stroke-linejoin:miter;stroke-miterlimit:10;stroke-dasharray:48, 48;stroke-dashoffset:0;stroke-opacity:1"
         id="path102"
         inkscape:connector-curvature="0" /><g
         id="g104"
         transform="scale(10,10)"><text
           transform="matrix(1,0,0,-1,279.72,247.2)"
           style="font-variant:normal;font-weight:normal;font-size:14.39999962px;font-family:Helvetica;-inkscape-font-specification:Helvetica;writing-mode:lr-tb;fill:#000000;fill-opacity:1;fill-rule:nonzero;stroke:none"
           id="text106"><tspan
             x="0 8.0064001 15.2064 19.2096"
             y="0"
             sodipodi:role="line"
             id="tspan108">LJ, </tspan></text>
<text
           transform="matrix(1,0,0,-1,302.9329,247.2)"
           style="font-variant:normal;font-weight:normal;font-size:14.39999962px;font-family:Symbol;-inkscape-font-specification:Symbol;writing-mode:lr-tb;fill:#000000;fill-opacity:1;fill-rule:nonzero;stroke:none"
           id="text110"><tspan
             x="0"
             y="0"
             id="tspan112">α</tspan></text>
<text
           transform="matrix(1,0,0,-1,312.01923,247.2)"
           style="font-variant:normal;font-weight:normal;font-size:14.39999962px;font-family:Helvetica;-inkscape-font-specification:Helvetica;writing-mode:lr-tb;fill:#000000;fill-opacity:1;fill-rule:nonzero;stroke:none"
           id="text114"><tspan
             x="0 8.4096003"
             y="0"
             sodipodi:role="line"
             id="tspan116">=2</tspan></text>
</g><path
         d="m 2461.2,2342.4 252,0"
         style="fill:none;stroke:#000000;stroke-width:4.80000019;stroke-linecap:round;stroke-linejoin:miter;stroke-miterlimit:10;stroke-dasharray:none;stroke-opacity:1"
         id="path118"
         inkscape:connector-curvature="0" /><g
         id="g120"
         transform="scale(10,10)"><text
           transform="matrix(1,0,0,-1,279.72,229.44)"
           style="font-variant:normal;font-weight:normal;font-size:14.39999962px;font-family:Helvetica;-inkscape-font-specification:Helvetica;writing-mode:lr-tb;fill:#000000;fill-opacity:1;fill-rule:nonzero;stroke:none"
           id="text122"><tspan
             x="0 8.0064001 12.0096 16.8048 20.808001"
             y="0"
             sodipodi:role="line"
             id="tspan124">3/r, </tspan></text>
<text
           transform="matrix(1,0,0,-1,304.5313,229.44)"
           style="font-variant:normal;font-weight:normal;font-size:14.39999962px;font-family:Symbol;-inkscape-font-specification:Symbol;writing-mode:lr-tb;fill:#000000;fill-opacity:1;fill-rule:nonzero;stroke:none"
           id="text126"><tspan
             x="0"
             y="0"
             id="tspan128">α</tspan></text>
<text
           transform="matrix(1,0,0,-1,313.61763,229.44)"
           style="font-variant:normal;font-weight:normal;font-size:14.39999962px;font-family:Helvetica;-inkscape-font-specification:Helvetica;writing-mode:lr-tb;fill:#000000;fill-opacity:1;fill-rule:nonzero;stroke:none"
           id="text130"><tspan
             x="0 8.4096003"
             y="0"
             sodipodi:role="line"
             id="tspan132">=0</tspan></text>
</g><path
         d="m 2461.2,2164.8 252,0"
         style="fill:none;stroke:#000000;stroke-width:4.80000019;stroke-linecap:round;stroke-linejoin:miter;stroke-miterlimit:10;stroke-dasharray:96, 48;stroke-dashoffset:0;stroke-opacity:1"
         id="path134"
         inkscape:connector-curvature="0" /><g
         id="g136"
         transform="scale(10,10)"><text
           transform="matrix(1,0,0,-1,279.72,211.68)"
           style="font-variant:normal;font-weight:normal;font-size:14.39999962px;font-family:Helvetica;-inkscape-font-specification:Helvetica;writing-mode:lr-tb;fill:#000000;fill-opacity:1;fill-rule:nonzero;stroke:none"
           id="text138"><tspan
             x="0 8.0064001 12.0096 16.8048 20.808001"
             y="0"
             sodipodi:role="line"
             id="tspan140">3/r, </tspan></text>
<text
           transform="matrix(1,0,0,-1,304.5313,211.68)"
           style="font-variant:normal;font-weight:normal;font-size:14.39999962px;font-family:Symbol;-inkscape-font-specification:Symbol;writing-mode:lr-tb;fill:#000000;fill-opacity:1;fill-rule:nonzero;stroke:none"
           id="text142"><tspan
             x="0"
             y="0"
             id="tspan144">α</tspan></text>
<text
           transform="matrix(1,0,0,-1,313.61763,211.68)"
           style="font-variant:normal;font-weight:normal;font-size:14.39999962px;font-family:Helvetica;-inkscape-font-specification:Helvetica;writing-mode:lr-tb;fill:#000000;fill-opacity:1;fill-rule:nonzero;stroke:none"
           id="text146"><tspan
             x="0 8.4096003 16.416 20.419201"
             y="0"
             sodipodi:role="line"
             id="tspan148">=1.5</tspan></text>
</g><path
         d="m 2461.2,1987.2 252,0"
         style="fill:none;stroke:#000000;stroke-width:4.80000019;stroke-linecap:round;stroke-linejoin:miter;stroke-miterlimit:10;stroke-dasharray:48, 48;stroke-dashoffset:0;stroke-opacity:1"
         id="path150"
         inkscape:connector-curvature="0" /><g
         id="g152"
         transform="scale(10,10)"><text
           transform="matrix(1,0,0,-1,279.72,193.92)"
           style="font-variant:normal;font-weight:normal;font-size:14.39999962px;font-family:Helvetica;-inkscape-font-specification:Helvetica;writing-mode:lr-tb;fill:#000000;fill-opacity:1;fill-rule:nonzero;stroke:none"
           id="text154"><tspan
             x="0 8.0064001 12.0096 16.8048 20.808001"
             y="0"
             sodipodi:role="line"
             id="tspan156">3/r, </tspan></text>
<text
           transform="matrix(1,0,0,-1,304.5313,193.92)"
           style="font-variant:normal;font-weight:normal;font-size:14.39999962px;font-family:Symbol;-inkscape-font-specification:Symbol;writing-mode:lr-tb;fill:#000000;fill-opacity:1;fill-rule:nonzero;stroke:none"
           id="text158"><tspan
             x="0"
             y="0"
             id="tspan160">α</tspan></text>
<text
           transform="matrix(1,0,0,-1,313.61763,193.92)"
           style="font-variant:normal;font-weight:normal;font-size:14.39999962px;font-family:Helvetica;-inkscape-font-specification:Helvetica;writing-mode:lr-tb;fill:#000000;fill-opacity:1;fill-rule:nonzero;stroke:none"
           id="text162"><tspan
             x="0 8.4096003"
             y="0"
             sodipodi:role="line"
             id="tspan164">=2</tspan></text>
</g></g></g></svg>