<?xml version="1.0" encoding="UTF-8" standalone="no"?>
<!-- Created with Inkscape (http://www.inkscape.org/) -->

<svg
   xmlns:dc="http://purl.org/dc/elements/1.1/"
   xmlns:cc="http://creativecommons.org/ns#"
   xmlns:rdf="http://www.w3.org/1999/02/22-rdf-syntax-ns#"
   xmlns:svg="http://www.w3.org/2000/svg"
   xmlns="http://www.w3.org/2000/svg"
   xmlns:sodipodi="http://sodipodi.sourceforge.net/DTD/sodipodi-0.dtd"
   xmlns:inkscape="http://www.inkscape.org/namespaces/inkscape"
   id="svg2"
   version="1.1"
   inkscape:version="0.91 r13725"
   xml:space="preserve"
   width="295"
   height="282.5"
   viewBox="0 0 295 282.5"
   sodipodi:docname="tetra-im.svg"><metadata
     id="metadata8"><rdf:RDF><cc:Work
         rdf:about=""><dc:format>image/svg+xml</dc:format><dc:type
           rdf:resource="http://purl.org/dc/dcmitype/StillImage" /><dc:title></dc:title></cc:Work></rdf:RDF></metadata><defs
     id="defs6" /><sodipodi:namedview
     pagecolor="#ffffff"
     bordercolor="#666666"
     borderopacity="1"
     objecttolerance="10"
     gridtolerance="10"
     guidetolerance="10"
     inkscape:pageopacity="0"
     inkscape:pageshadow="2"
     inkscape:window-width="760"
     inkscape:window-height="480"
     id="namedview4"
     showgrid="false"
     inkscape:zoom="0.83539823"
     inkscape:cx="147.5"
     inkscape:cy="141.25"
     inkscape:window-x="0"
     inkscape:window-y="25"
     inkscape:window-maximized="0"
     inkscape:current-layer="g10" /><g
     id="g10"
     inkscape:groupmode="layer"
     inkscape:label="ink_ext_XXXXXX"
     transform="matrix(1.25,0,0,-1.25,0,282.5)"><g
       id="g12"
       transform="scale(0.1,0.1)"><path
         d="m 1265,1900 c 0,-49.7 -40.3,-90 -90,-90 -49.7,0 -90,40.3 -90,90 0,49.7 40.3,90 90,90 49.7,0 90,-40.3 90,-90"
         style="fill:#000000;fill-opacity:1;fill-rule:evenodd;stroke:none"
         id="path14"
         inkscape:connector-curvature="0" /><path
         d="m 1265,1900 c 0,-49.7 -40.3,-90 -90,-90 -49.7,0 -90,40.3 -90,90 0,49.7 40.3,90 90,90 49.7,0 90,-40.3 90,-90 z"
         style="fill:none;stroke:#000000;stroke-width:4.5;stroke-linecap:butt;stroke-linejoin:miter;stroke-miterlimit:10;stroke-dasharray:none;stroke-opacity:1"
         id="path16"
         inkscape:connector-curvature="0" /><path
         d="m 1265,1000 c 0,-49.703 -40.3,-90 -90,-90 -49.7,0 -90,40.297 -90,90 0,49.7 40.3,90 90,90 49.7,0 90,-40.3 90,-90"
         style="fill:#000000;fill-opacity:1;fill-rule:evenodd;stroke:none"
         id="path18"
         inkscape:connector-curvature="0" /><path
         d="m 1265,1000 c 0,-49.703 -40.3,-90 -90,-90 -49.7,0 -90,40.297 -90,90 0,49.7 40.3,90 90,90 49.7,0 90,-40.3 90,-90 z"
         style="fill:none;stroke:#000000;stroke-width:4.5;stroke-linecap:butt;stroke-linejoin:miter;stroke-miterlimit:10;stroke-dasharray:none;stroke-opacity:1"
         id="path20"
         inkscape:connector-curvature="0" /><path
         d="m 1265,370 c 0,-49.703 -40.3,-90 -90,-90 -49.7,0 -90,40.297 -90,90 0,49.703 40.3,90 90,90 49.7,0 90,-40.297 90,-90"
         style="fill:#000000;fill-opacity:1;fill-rule:evenodd;stroke:none"
         id="path22"
         inkscape:connector-curvature="0" /><path
         d="m 1265,370 c 0,-49.703 -40.3,-90 -90,-90 -49.7,0 -90,40.297 -90,90 0,49.703 40.3,90 90,90 49.7,0 90,-40.297 90,-90 z"
         style="fill:none;stroke:#000000;stroke-width:4.5;stroke-linecap:butt;stroke-linejoin:miter;stroke-miterlimit:10;stroke-dasharray:none;stroke-opacity:1"
         id="path24"
         inkscape:connector-curvature="0" /><path
         d="m 2345,370 c 0,-49.703 -40.3,-90 -90,-90 -49.7,0 -90,40.297 -90,90 0,49.703 40.3,90 90,90 49.7,0 90,-40.297 90,-90"
         style="fill:#000000;fill-opacity:1;fill-rule:evenodd;stroke:none"
         id="path26"
         inkscape:connector-curvature="0" /><path
         d="m 2345,370 c 0,-49.703 -40.3,-90 -90,-90 -49.7,0 -90,40.297 -90,90 0,49.703 40.3,90 90,90 49.7,0 90,-40.297 90,-90 z"
         style="fill:none;stroke:#000000;stroke-width:4.5;stroke-linecap:butt;stroke-linejoin:miter;stroke-miterlimit:10;stroke-dasharray:none;stroke-opacity:1"
         id="path28"
         inkscape:connector-curvature="0" /><path
         d="m 185,370 c 0,-49.703 -40.297,-90 -90,-90 -49.7031,0 -90,40.297 -90,90 0,49.703 40.2969,90 90,90 49.703,0 90,-40.297 90,-90"
         style="fill:#000000;fill-opacity:1;fill-rule:evenodd;stroke:none"
         id="path30"
         inkscape:connector-curvature="0" /><path
         d="m 185,370 c 0,-49.703 -40.297,-90 -90,-90 -49.7031,0 -90,40.297 -90,90 0,49.703 40.2969,90 90,90 49.703,0 90,-40.297 90,-90 z"
         style="fill:none;stroke:#000000;stroke-width:4.5;stroke-linecap:butt;stroke-linejoin:miter;stroke-miterlimit:10;stroke-dasharray:none;stroke-opacity:1"
         id="path32"
         inkscape:connector-curvature="0" /><path
         d="m 1130,865 45,-360 45,360 -90,0"
         style="fill:#000000;fill-opacity:1;fill-rule:evenodd;stroke:none"
         id="path34"
         inkscape:connector-curvature="0" /><path
         d="m 1130,865 45,-360 45,360 -90,0 z"
         style="fill:none;stroke:#000000;stroke-width:4.5;stroke-linecap:butt;stroke-linejoin:miter;stroke-miterlimit:10;stroke-dasharray:none;stroke-opacity:1"
         id="path36"
         inkscape:connector-curvature="0" /><path
         d="m 1310,910 765,-495 45,90 -810,405"
         style="fill:#000000;fill-opacity:1;fill-rule:evenodd;stroke:none"
         id="path38"
         inkscape:connector-curvature="0" /><path
         d="m 1310,910 765,-495 45,90 -810,405 z"
         style="fill:none;stroke:#000000;stroke-width:4.5;stroke-linecap:butt;stroke-linejoin:miter;stroke-miterlimit:10;stroke-dasharray:none;stroke-opacity:1"
         id="path40"
         inkscape:connector-curvature="0" /><path
         d="M 1040,910 275,415 230,505 1040,910"
         style="fill:#000000;fill-opacity:1;fill-rule:evenodd;stroke:none"
         id="path42"
         inkscape:connector-curvature="0" /><path
         d="M 1040,910 275,415 230,505 1040,910 Z"
         style="fill:none;stroke:#000000;stroke-width:4.5;stroke-linecap:butt;stroke-linejoin:miter;stroke-miterlimit:10;stroke-dasharray:none;stroke-opacity:1"
         id="path44"
         inkscape:connector-curvature="0" /><path
         d="m 1175,1765 0,-630"
         style="fill:#000000;fill-opacity:1;fill-rule:evenodd;stroke:none"
         id="path46"
         inkscape:connector-curvature="0" /><path
         d="m 1175,1765 0,-630"
         style="fill:none;stroke:#000000;stroke-width:18;stroke-linecap:butt;stroke-linejoin:miter;stroke-miterlimit:10;stroke-dasharray:none;stroke-opacity:1"
         id="path48"
         inkscape:connector-curvature="0" /><path
         d="m 95,370 2160,0"
         style="fill:none;stroke:#000000;stroke-width:9;stroke-linecap:butt;stroke-linejoin:miter;stroke-miterlimit:10;stroke-dasharray:54;stroke-dashoffset:0;stroke-opacity:1"
         id="path50"
         inkscape:connector-curvature="0" /><path
         d="M 95,370 1175,1945"
         style="fill:none;stroke:#000000;stroke-width:9;stroke-linecap:butt;stroke-linejoin:miter;stroke-miterlimit:10;stroke-dasharray:54;stroke-dashoffset:0;stroke-opacity:1"
         id="path52"
         inkscape:connector-curvature="0" /><path
         d="M 1175,1945 2255,370"
         style="fill:none;stroke:#000000;stroke-width:9;stroke-linecap:butt;stroke-linejoin:miter;stroke-miterlimit:10;stroke-dasharray:54;stroke-dashoffset:0;stroke-opacity:1"
         id="path54"
         inkscape:connector-curvature="0" /><g
         id="g56"
         transform="scale(10,10)"><text
           transform="matrix(1,0,0,-1,225.5,1)"
           style="font-style:italic;font-variant:normal;font-weight:bold;font-size:18px;font-family:Times;-inkscape-font-specification:Times-BoldItalic;writing-mode:lr-tb;fill:#000000;fill-opacity:1;fill-rule:nonzero;stroke:none"
           id="text58"><tspan
             x="0"
             y="0"
             id="tspan60">k</tspan><tspan
             x="-90"
             y="-108"
             id="tspan62">i</tspan><tspan
             x="-216"
             y="-4.5"
             id="tspan64">j</tspan><tspan
             x="-108"
             y="-211.5"
             id="tspan66">l</tspan></text>
</g></g></g></svg>