<?xml version="1.0" encoding="UTF-8" standalone="no"?>
<!-- Created with Inkscape (http://www.inkscape.org/) -->

<svg
   xmlns:dc="http://purl.org/dc/elements/1.1/"
   xmlns:cc="http://creativecommons.org/ns#"
   xmlns:rdf="http://www.w3.org/1999/02/22-rdf-syntax-ns#"
   xmlns:svg="http://www.w3.org/2000/svg"
   xmlns="http://www.w3.org/2000/svg"
   xmlns:sodipodi="http://sodipodi.sourceforge.net/DTD/sodipodi-0.dtd"
   xmlns:inkscape="http://www.inkscape.org/namespaces/inkscape"
   id="svg2"
   version="1.1"
   inkscape:version="0.91 r13725"
   xml:space="preserve"
   width="701.25"
   height="432.5"
   viewBox="0 0 701.25 432.5"
   sodipodi:docname="dih-def.svg"><metadata
     id="metadata8"><rdf:RDF><cc:Work
         rdf:about=""><dc:format>image/svg+xml</dc:format><dc:type
           rdf:resource="http://purl.org/dc/dcmitype/StillImage" /><dc:title></dc:title></cc:Work></rdf:RDF></metadata><defs
     id="defs6" /><sodipodi:namedview
     pagecolor="#ffffff"
     bordercolor="#666666"
     borderopacity="1"
     objecttolerance="10"
     gridtolerance="10"
     guidetolerance="10"
     inkscape:pageopacity="0"
     inkscape:pageshadow="2"
     inkscape:window-width="760"
     inkscape:window-height="480"
     id="namedview4"
     showgrid="false"
     inkscape:zoom="0.52620321"
     inkscape:cx="350.625"
     inkscape:cy="216.25"
     inkscape:window-x="0"
     inkscape:window-y="25"
     inkscape:window-maximized="0"
     inkscape:current-layer="g10" /><g
     id="g10"
     inkscape:groupmode="layer"
     inkscape:label="ink_ext_XXXXXX"
     transform="matrix(1.25,0,0,-1.25,0,432.5)"><g
       id="g12"
       transform="scale(0.1,0.1)"><path
         d="m 1245.31,2053.83 -64.06,37.42 74.14,-2.89"
         style="fill:none;stroke:#000000;stroke-width:4.5;stroke-linecap:butt;stroke-linejoin:bevel;stroke-miterlimit:10;stroke-dasharray:none;stroke-opacity:1"
         id="path14"
         inkscape:connector-curvature="0" /><path
         d="m 1181.25,1371.25 c 160,46.64 270,193.36 270,360 0,166.64 -110,313.36 -270,360"
         style="fill:none;stroke:#000000;stroke-width:4.5;stroke-linecap:butt;stroke-linejoin:miter;stroke-miterlimit:10;stroke-dasharray:none;stroke-opacity:1"
         id="path16"
         inkscape:connector-curvature="0" /><path
         d="m 4485.31,2053.83 -64.06,37.42 74.14,-2.89"
         style="fill:none;stroke:#000000;stroke-width:4.5;stroke-linecap:butt;stroke-linejoin:bevel;stroke-miterlimit:10;stroke-dasharray:none;stroke-opacity:1"
         id="path18"
         inkscape:connector-curvature="0" /><path
         d="m 4421.25,1371.25 c 160,46.64 270,193.36 270,360 0,166.64 -110,313.36 -270,360"
         style="fill:none;stroke:#000000;stroke-width:4.5;stroke-linecap:butt;stroke-linejoin:miter;stroke-miterlimit:10;stroke-dasharray:none;stroke-opacity:1"
         id="path20"
         inkscape:connector-curvature="0" /><path
         d="m 200.23,3351.25 c 0,-54.69 -44.289,-98.98 -98.98,-98.98 -54.6914,0 -98.98047,44.29 -98.98047,98.98 0,54.69 44.28907,98.98 98.98047,98.98 54.691,0 98.98,-44.29 98.98,-98.98"
         style="fill:#000000;fill-opacity:1;fill-rule:nonzero;stroke:none"
         id="path22"
         inkscape:connector-curvature="0" /><path
         d="m 200.23,3351.25 c 0,-54.69 -44.289,-98.98 -98.98,-98.98 -54.6914,0 -98.98047,44.29 -98.98047,98.98 0,54.69 44.28907,98.98 98.98047,98.98 54.691,0 98.98,-44.29 98.98,-98.98"
         style="fill:none;stroke:#000000;stroke-width:4.5;stroke-linecap:butt;stroke-linejoin:miter;stroke-miterlimit:10;stroke-dasharray:none;stroke-opacity:1"
         id="path24"
         inkscape:connector-curvature="0" /><path
         d="m 560.23,1731.25 c 0,-54.69 -44.289,-98.98 -98.98,-98.98 -54.691,0 -98.98,44.29 -98.98,98.98 0,54.69 44.289,98.98 98.98,98.98 54.691,0 98.98,-44.29 98.98,-98.98"
         style="fill:#000000;fill-opacity:1;fill-rule:nonzero;stroke:none"
         id="path26"
         inkscape:connector-curvature="0" /><path
         d="m 560.23,1731.25 c 0,-54.69 -44.289,-98.98 -98.98,-98.98 -54.691,0 -98.98,44.29 -98.98,98.98 0,54.69 44.289,98.98 98.98,98.98 54.691,0 98.98,-44.29 98.98,-98.98"
         style="fill:none;stroke:#000000;stroke-width:4.5;stroke-linecap:butt;stroke-linejoin:miter;stroke-miterlimit:10;stroke-dasharray:none;stroke-opacity:1"
         id="path28"
         inkscape:connector-curvature="0" /><path
         d="m 2000.23,1731.25 c 0,-54.69 -44.29,-98.98 -98.98,-98.98 -54.69,0 -98.98,44.29 -98.98,98.98 0,54.69 44.29,98.98 98.98,98.98 54.69,0 98.98,-44.29 98.98,-98.98"
         style="fill:#000000;fill-opacity:1;fill-rule:nonzero;stroke:none"
         id="path30"
         inkscape:connector-curvature="0" /><path
         d="m 2000.23,1731.25 c 0,-54.69 -44.29,-98.98 -98.98,-98.98 -54.69,0 -98.98,44.29 -98.98,98.98 0,54.69 44.29,98.98 98.98,98.98 54.69,0 98.98,-44.29 98.98,-98.98"
         style="fill:none;stroke:#000000;stroke-width:4.5;stroke-linecap:butt;stroke-linejoin:miter;stroke-miterlimit:10;stroke-dasharray:none;stroke-opacity:1"
         id="path32"
         inkscape:connector-curvature="0" /><path
         d="m 2360.23,3351.25 c 0,-54.69 -44.29,-98.98 -98.98,-98.98 -54.69,0 -98.98,44.29 -98.98,98.98 0,54.69 44.29,98.98 98.98,98.98 54.69,0 98.98,-44.29 98.98,-98.98"
         style="fill:#000000;fill-opacity:1;fill-rule:nonzero;stroke:none"
         id="path34"
         inkscape:connector-curvature="0" /><path
         d="m 2360.23,3351.25 c 0,-54.69 -44.29,-98.98 -98.98,-98.98 -54.69,0 -98.98,44.29 -98.98,98.98 0,54.69 44.29,98.98 98.98,98.98 54.69,0 98.98,-44.29 98.98,-98.98"
         style="fill:none;stroke:#000000;stroke-width:4.5;stroke-linecap:butt;stroke-linejoin:miter;stroke-miterlimit:10;stroke-dasharray:none;stroke-opacity:1"
         id="path36"
         inkscape:connector-curvature="0" /><path
         d="m 3440.23,3351.25 c 0,-54.69 -44.29,-98.98 -98.98,-98.98 -54.69,0 -98.98,44.29 -98.98,98.98 0,54.69 44.29,98.98 98.98,98.98 54.69,0 98.98,-44.29 98.98,-98.98"
         style="fill:#000000;fill-opacity:1;fill-rule:nonzero;stroke:none"
         id="path38"
         inkscape:connector-curvature="0" /><path
         d="m 3440.23,3351.25 c 0,-54.69 -44.29,-98.98 -98.98,-98.98 -54.69,0 -98.98,44.29 -98.98,98.98 0,54.69 44.29,98.98 98.98,98.98 54.69,0 98.98,-44.29 98.98,-98.98"
         style="fill:none;stroke:#000000;stroke-width:4.5;stroke-linecap:butt;stroke-linejoin:miter;stroke-miterlimit:10;stroke-dasharray:none;stroke-opacity:1"
         id="path40"
         inkscape:connector-curvature="0" /><path
         d="m 5240.23,1731.25 c 0,-54.69 -44.29,-98.98 -98.98,-98.98 -54.69,0 -98.98,44.29 -98.98,98.98 0,54.69 44.29,98.98 98.98,98.98 54.69,0 98.98,-44.29 98.98,-98.98"
         style="fill:#000000;fill-opacity:1;fill-rule:nonzero;stroke:none"
         id="path42"
         inkscape:connector-curvature="0" /><path
         d="m 5240.23,1731.25 c 0,-54.69 -44.29,-98.98 -98.98,-98.98 -54.69,0 -98.98,44.29 -98.98,98.98 0,54.69 44.29,98.98 98.98,98.98 54.69,0 98.98,-44.29 98.98,-98.98"
         style="fill:none;stroke:#000000;stroke-width:4.5;stroke-linecap:butt;stroke-linejoin:miter;stroke-miterlimit:10;stroke-dasharray:none;stroke-opacity:1"
         id="path44"
         inkscape:connector-curvature="0" /><path
         d="m 5600.23,111.25 c 0,-54.6914 -44.29,-98.9805 -98.98,-98.9805 -54.69,0 -98.98,44.2891 -98.98,98.9805 0,54.691 44.29,98.98 98.98,98.98 54.69,0 98.98,-44.289 98.98,-98.98"
         style="fill:#000000;fill-opacity:1;fill-rule:nonzero;stroke:none"
         id="path46"
         inkscape:connector-curvature="0" /><path
         d="m 5600.23,111.25 c 0,-54.6914 -44.29,-98.9805 -98.98,-98.9805 -54.69,0 -98.98,44.2891 -98.98,98.9805 0,54.691 44.29,98.98 98.98,98.98 54.69,0 98.98,-44.289 98.98,-98.98"
         style="fill:none;stroke:#000000;stroke-width:4.5;stroke-linecap:butt;stroke-linejoin:miter;stroke-miterlimit:10;stroke-dasharray:none;stroke-opacity:1"
         id="path48"
         inkscape:connector-curvature="0" /><path
         d="m 3800.23,1731.25 c 0,-54.69 -44.29,-98.98 -98.98,-98.98 -54.69,0 -98.98,44.29 -98.98,98.98 0,54.69 44.29,98.98 98.98,98.98 54.69,0 98.98,-44.29 98.98,-98.98"
         style="fill:#000000;fill-opacity:1;fill-rule:nonzero;stroke:none"
         id="path50"
         inkscape:connector-curvature="0" /><path
         d="m 3800.23,1731.25 c 0,-54.69 -44.29,-98.98 -98.98,-98.98 -54.69,0 -98.98,44.29 -98.98,98.98 0,54.69 44.29,98.98 98.98,98.98 54.69,0 98.98,-44.29 98.98,-98.98"
         style="fill:none;stroke:#000000;stroke-width:4.5;stroke-linecap:butt;stroke-linejoin:miter;stroke-miterlimit:10;stroke-dasharray:none;stroke-opacity:1"
         id="path52"
         inkscape:connector-curvature="0" /><path
         d="m 101.25,3351.25 360,-1620 1440,0 360,1620"
         style="fill:none;stroke:#000000;stroke-width:4.5;stroke-linecap:butt;stroke-linejoin:miter;stroke-miterlimit:10;stroke-dasharray:none;stroke-opacity:1"
         id="path54"
         inkscape:connector-curvature="0" /><path
         d="m 3341.25,3351.25 360,-1620 1440,0 360,-1620"
         style="fill:none;stroke:#000000;stroke-width:4.5;stroke-linecap:butt;stroke-linejoin:miter;stroke-miterlimit:10;stroke-dasharray:none;stroke-opacity:1"
         id="path56"
         inkscape:connector-curvature="0" /><g
         id="g58"
         transform="scale(10,10)"><text
           transform="matrix(1,0,0,-1,424.125,101.125)"
           style="font-variant:normal;font-size:27px;font-family:f-0;-inkscape-font-specification:f-0-1;writing-mode:lr-tb;fill:#000000;fill-opacity:1;fill-rule:nonzero;stroke:none"
           id="text60"><tspan
             x="0"
             y="0"
             id="tspan62">φ</tspan></text>
<text
           transform="matrix(1,0,0,-1,444.9422,101.125)"
           style="font-variant:normal;font-size:27px;font-family:f-0;-inkscape-font-specification:f-0-0;writing-mode:lr-tb;fill:#000000;fill-opacity:1;fill-rule:nonzero;stroke:none"
           id="text64"><tspan
             x="0 14.823 21.573"
             y="0"
             sodipodi:role="line"
             id="tspan66">= 0</tspan></text>
<text
           transform="matrix(1,0,0,-1,100.1252,101.125)"
           style="font-variant:normal;font-size:27px;font-family:f-0;-inkscape-font-specification:f-0-1;writing-mode:lr-tb;fill:#000000;fill-opacity:1;fill-rule:nonzero;stroke:none"
           id="text68"><tspan
             x="0"
             y="0"
             id="tspan70">φ</tspan></text>
<text
           transform="matrix(1,0,0,-1,120.9424,101.125)"
           style="font-variant:normal;font-size:27px;font-family:f-0;-inkscape-font-specification:f-0-0;writing-mode:lr-tb;fill:#000000;fill-opacity:1;fill-rule:nonzero;stroke:none"
           id="text72"><tspan
             x="0 14.823 21.573"
             y="0"
             sodipodi:role="line"
             id="tspan74">= 0</tspan></text>
<text
           transform="matrix(1,0,0,-1,28.1252,29.125)"
           style="font-variant:normal;font-size:40.5px;font-family:f-1;-inkscape-font-specification:f-1-0;writing-mode:lr-tb;fill:#000000;fill-opacity:1;fill-rule:nonzero;stroke:none"
           id="text76"><tspan
             x="0 306.01801"
             y="0"
             sodipodi:role="line"
             id="tspan78">AB</tspan></text>
</g></g></g></svg>