<?xml version="1.0" encoding="UTF-8" standalone="no"?>
<!-- Created with Inkscape (http://www.inkscape.org/) -->

<svg
   xmlns:dc="http://purl.org/dc/elements/1.1/"
   xmlns:cc="http://creativecommons.org/ns#"
   xmlns:rdf="http://www.w3.org/1999/02/22-rdf-syntax-ns#"
   xmlns:svg="http://www.w3.org/2000/svg"
   xmlns="http://www.w3.org/2000/svg"
   xmlns:sodipodi="http://sodipodi.sourceforge.net/DTD/sodipodi-0.dtd"
   xmlns:inkscape="http://www.inkscape.org/namespaces/inkscape"
   id="svg2"
   version="1.1"
   inkscape:version="0.91 r13725"
   xml:space="preserve"
   width="465"
   height="358.75"
   viewBox="0 0 465 358.75"
   sodipodi:docname="hbond-insert.svg"><metadata
     id="metadata8"><rdf:RDF><cc:Work
         rdf:about=""><dc:format>image/svg+xml</dc:format><dc:type
           rdf:resource="http://purl.org/dc/dcmitype/StillImage" /><dc:title></dc:title></cc:Work></rdf:RDF></metadata><defs
     id="defs6" /><sodipodi:namedview
     pagecolor="#ffffff"
     bordercolor="#666666"
     borderopacity="1"
     objecttolerance="10"
     gridtolerance="10"
     guidetolerance="10"
     inkscape:pageopacity="0"
     inkscape:pageshadow="2"
     inkscape:window-width="760"
     inkscape:window-height="480"
     id="namedview4"
     showgrid="false"
     inkscape:zoom="0.65783972"
     inkscape:cx="232.5"
     inkscape:cy="179.375"
     inkscape:window-x="0"
     inkscape:window-y="25"
     inkscape:window-maximized="0"
     inkscape:current-layer="g10" /><g
     id="g10"
     inkscape:groupmode="layer"
     inkscape:label="ink_ext_XXXXXX"
     transform="matrix(0,1.25,1.25,0,0,0)"><g
       id="g12"
       transform="scale(0.1,0.1)"><path
         d="m 2511,702 c 193.85,0 351,-157.148 351,-351 0,-193.852 -157.15,-351 -351,-351 -193.85,0 -351,157.148 -351,351 0,193.852 157.15,351 351,351"
         style="fill:#d9d9d9;fill-opacity:1;fill-rule:nonzero;stroke:none"
         id="path14"
         inkscape:connector-curvature="0" /><path
         d="m 2511,702 c 193.85,0 351,-157.148 351,-351 0,-193.852 -157.15,-351 -351,-351 -193.85,0 -351,157.148 -351,351 0,193.852 157.15,351 351,351"
         style="fill:none;stroke:#000000;stroke-width:4.5;stroke-linecap:butt;stroke-linejoin:miter;stroke-miterlimit:10;stroke-dasharray:none;stroke-opacity:1"
         id="path16"
         inkscape:connector-curvature="0" /><path
         d="m 2511,3582 c 193.85,0 351,-157.15 351,-351 0,-193.85 -157.15,-351 -351,-351 -193.85,0 -351,157.15 -351,351 0,193.85 157.15,351 351,351"
         style="fill:#d9d9d9;fill-opacity:1;fill-rule:nonzero;stroke:none"
         id="path18"
         inkscape:connector-curvature="0" /><path
         d="m 2511,3582 c 193.85,0 351,-157.15 351,-351 0,-193.85 -157.15,-351 -351,-351 -193.85,0 -351,157.15 -351,351 0,193.85 157.15,351 351,351"
         style="fill:none;stroke:#000000;stroke-width:4.5;stroke-linecap:butt;stroke-linejoin:miter;stroke-miterlimit:10;stroke-dasharray:none;stroke-opacity:1"
         id="path20"
         inkscape:connector-curvature="0" /><path
         d="m 1251,2502 c 193.85,0 351,-157.15 351,-351 0,-193.85 -157.15,-351 -351,-351 -193.85,0 -351,157.15 -351,351 0,193.85 157.15,351 351,351"
         style="fill:#d9d9d9;fill-opacity:1;fill-rule:nonzero;stroke:none"
         id="path22"
         inkscape:connector-curvature="0" /><path
         d="m 1251,2502 c 193.85,0 351,-157.15 351,-351 0,-193.85 -157.15,-351 -351,-351 -193.85,0 -351,157.15 -351,351 0,193.85 157.15,351 351,351"
         style="fill:none;stroke:#000000;stroke-width:4.5;stroke-linecap:butt;stroke-linejoin:miter;stroke-miterlimit:10;stroke-dasharray:none;stroke-opacity:1"
         id="path24"
         inkscape:connector-curvature="0" /><path
         d="m 1251,3420 c 104.38,0 189,-84.62 189,-189 0,-104.38 -84.62,-189 -189,-189 -104.38,0 -189,84.62 -189,189 0,104.38 84.62,189 189,189"
         style="fill:none;stroke:#000000;stroke-width:4.5;stroke-linecap:butt;stroke-linejoin:miter;stroke-miterlimit:10;stroke-dasharray:none;stroke-opacity:1"
         id="path26"
         inkscape:connector-curvature="0" /><path
         d="m 1611,900 c 104.38,0 189,-84.621 189,-189 0,-104.379 -84.62,-189 -189,-189 -104.38,0 -189,84.621 -189,189 0,104.379 84.62,189 189,189"
         style="fill:none;stroke:#000000;stroke-width:4.5;stroke-linecap:butt;stroke-linejoin:miter;stroke-miterlimit:10;stroke-dasharray:none;stroke-opacity:1"
         id="path28"
         inkscape:connector-curvature="0" /><path
         d="m 180,2691 c 104.379,0 189,-84.62 189,-189 0,-104.38 -84.621,-189 -189,-189 -104.3789,0 -189,84.62 -189,189 0,104.38 84.6211,189 189,189"
         style="fill:none;stroke:#000000;stroke-width:4.5;stroke-linecap:butt;stroke-linejoin:miter;stroke-miterlimit:10;stroke-dasharray:none;stroke-opacity:1"
         id="path30"
         inkscape:connector-curvature="0" /><path
         d="m 2511,351 0,2880"
         style="fill:none;stroke:#000000;stroke-width:4.5;stroke-linecap:butt;stroke-linejoin:miter;stroke-miterlimit:10;stroke-dasharray:none;stroke-opacity:1"
         id="path32"
         inkscape:connector-curvature="0" /><path
         d="M 1611,711 1251,2151"
         style="fill:none;stroke:#000000;stroke-width:4.5;stroke-linecap:butt;stroke-linejoin:miter;stroke-miterlimit:10;stroke-dasharray:36;stroke-dashoffset:0;stroke-opacity:1"
         id="path34"
         inkscape:connector-curvature="0" /><path
         d="m 1251,3231 1260,0"
         style="fill:none;stroke:#000000;stroke-width:4.5;stroke-linecap:butt;stroke-linejoin:miter;stroke-miterlimit:10;stroke-dasharray:36;stroke-dashoffset:0;stroke-opacity:1"
         id="path36"
         inkscape:connector-curvature="0" /><path
         d="m 1611,711 900,2520"
         style="fill:none;stroke:#000000;stroke-width:4.5;stroke-linecap:butt;stroke-linejoin:miter;stroke-miterlimit:10;stroke-dasharray:36;stroke-dashoffset:0;stroke-opacity:1"
         id="path38"
         inkscape:connector-curvature="0" /><path
         d="M 2196,486 1791,621"
         style="fill:none;stroke:#000000;stroke-width:36;stroke-linecap:butt;stroke-linejoin:miter;stroke-miterlimit:10;stroke-dasharray:none;stroke-opacity:1"
         id="path40"
         inkscape:connector-curvature="0" /><path
         d="M 936,2241 351,2421"
         style="fill:none;stroke:#000000;stroke-width:36;stroke-linecap:butt;stroke-linejoin:miter;stroke-miterlimit:10;stroke-dasharray:none;stroke-opacity:1"
         id="path42"
         inkscape:connector-curvature="0" /><path
         d="m 1251,2511 0,540"
         style="fill:none;stroke:#000000;stroke-width:36;stroke-linecap:butt;stroke-linejoin:miter;stroke-miterlimit:10;stroke-dasharray:none;stroke-opacity:1"
         id="path44"
         inkscape:connector-curvature="0" /><path
         d="m 1251,2151 0,1080"
         style="fill:none;stroke:#000000;stroke-width:4.5;stroke-linecap:butt;stroke-linejoin:miter;stroke-miterlimit:10;stroke-dasharray:none;stroke-opacity:1"
         id="path46"
         inkscape:connector-curvature="0" /><path
         d="M 1611,711 2511,351"
         style="fill:none;stroke:#000000;stroke-width:4.5;stroke-linecap:butt;stroke-linejoin:miter;stroke-miterlimit:10;stroke-dasharray:none;stroke-opacity:1"
         id="path48"
         inkscape:connector-curvature="0" /><path
         d="M 171,2511 1251,2151"
         style="fill:none;stroke:#000000;stroke-width:4.5;stroke-linecap:butt;stroke-linejoin:miter;stroke-miterlimit:10;stroke-dasharray:none;stroke-opacity:1"
         id="path50"
         inkscape:connector-curvature="0" /><g
         id="g52"
         transform="scale(10,10)"><text
           transform="matrix(0,1,1,0,156.6,206.1)"
           style="font-variant:normal;font-weight:normal;font-size:27px;font-family:Times;-inkscape-font-specification:Times-Roman;writing-mode:lr-tb;fill:#000000;fill-opacity:1;fill-rule:nonzero;stroke:none"
           id="text54"><tspan
             x="0"
             y="0"
             id="tspan56">O</tspan><tspan
             x="-180"
             y="126"
             id="tspan58">D</tspan><tspan
             x="108"
             y="121.5"
             id="tspan60">A</tspan><tspan
             x="144"
             y="-22.5"
             id="tspan62">H</tspan><tspan
             x="72"
             y="-130.5"
             id="tspan64">H</tspan><tspan
             x="-144"
             y="-22.5"
             id="tspan66">H</tspan><tspan
             x="-49.5 -40.508999 -27.009001"
             y="67.5"
             sodipodi:role="line"
             id="tspan68">(1)</tspan><tspan
             x="130.5 139.491 152.991"
             y="36"
             sodipodi:role="line"
             id="tspan70">(2)</tspan><tspan
             x="-85.5 -76.509003 -63.008999"
             y="-22.5"
             sodipodi:role="line"
             id="tspan72">(2)</tspan></text>
</g></g></g></svg>