<?xml version="1.0" encoding="UTF-8" standalone="no"?>
<!-- Created with Inkscape (http://www.inkscape.org/) -->

<svg
   xmlns:dc="http://purl.org/dc/elements/1.1/"
   xmlns:cc="http://creativecommons.org/ns#"
   xmlns:rdf="http://www.w3.org/1999/02/22-rdf-syntax-ns#"
   xmlns:svg="http://www.w3.org/2000/svg"
   xmlns="http://www.w3.org/2000/svg"
   xmlns:sodipodi="http://sodipodi.sourceforge.net/DTD/sodipodi-0.dtd"
   xmlns:inkscape="http://www.inkscape.org/namespaces/inkscape"
   id="svg2"
   version="1.1"
   inkscape:version="0.91 r13725"
   xml:space="preserve"
   width="711.25"
   height="630"
   viewBox="0 0 711.25 630"
   sodipodi:docname="msdwater.svg"><metadata
     id="metadata8"><rdf:RDF><cc:Work
         rdf:about=""><dc:format>image/svg+xml</dc:format><dc:type
           rdf:resource="http://purl.org/dc/dcmitype/StillImage" /><dc:title></dc:title></cc:Work></rdf:RDF></metadata><defs
     id="defs6" /><sodipodi:namedview
     pagecolor="#ffffff"
     bordercolor="#666666"
     borderopacity="1"
     objecttolerance="10"
     gridtolerance="10"
     guidetolerance="10"
     inkscape:pageopacity="0"
     inkscape:pageshadow="2"
     inkscape:window-width="760"
     inkscape:window-height="480"
     id="namedview4"
     showgrid="false"
     inkscape:zoom="0.37460317"
     inkscape:cx="355.625"
     inkscape:cy="315"
     inkscape:window-x="0"
     inkscape:window-y="25"
     inkscape:window-maximized="0"
     inkscape:current-layer="g10" /><g
     id="g10"
     inkscape:groupmode="layer"
     inkscape:label="ink_ext_XXXXXX"
     transform="matrix(1.25,0,0,-1.25,0,630)"><g
       id="g12"
       transform="scale(0.1,0.1)"><path
         d="m 908.828,417.684 4597.5,0 0,4025 -4597.5,0 0,-4025 z"
         style="fill:none;stroke:#000000;stroke-width:2.5;stroke-linecap:round;stroke-linejoin:miter;stroke-miterlimit:10;stroke-dasharray:none;stroke-opacity:1"
         id="path14"
         inkscape:connector-curvature="0" /><path
         d="m 908.828,417.688 0,25 m 765.002,-25 0,25 m 767.5,-25 0,25 m 767.5,-25 0,25 m 765,-25 0,25 m 767.5,-25 0,25 m 765,-25 0,25 M 908.828,4442.68 l 0,-25 m 765.002,25 0,-25 m 767.5,25 0,-25 m 767.5,25 0,-25 m 765,25 0,-25 m 767.5,25 0,-25 m 765,25 0,-25"
         style="fill:none;stroke:#000000;stroke-width:2.5;stroke-linecap:round;stroke-linejoin:miter;stroke-miterlimit:10;stroke-dasharray:none;stroke-opacity:1"
         id="path16"
         inkscape:connector-curvature="0" /><path
         d="m 908.828,417.688 0,50 m 1532.502,-50 0,50 m 1532.5,-50 0,50 m 1532.5,-50 0,50 M 908.828,4442.68 l 0,-50 m 1532.502,50 0,-50 m 1532.5,50 0,-50 m 1532.5,50 0,-50"
         style="fill:none;stroke:#000000;stroke-width:2.5;stroke-linecap:round;stroke-linejoin:miter;stroke-miterlimit:10;stroke-dasharray:none;stroke-opacity:1"
         id="path18"
         inkscape:connector-curvature="0" /><g
         id="g20"
         transform="scale(10,10)"><text
           transform="matrix(1,0,0,-1,80.4563,24.2699)"
           style="font-variant:normal;font-size:15px;font-family:f-0;-inkscape-font-specification:f-0-0;writing-mode:lr-tb;fill:#000000;fill-opacity:1;fill-rule:nonzero;stroke:none"
           id="text22"><tspan
             x="0 8.3400002 12.51 149.08514 157.42516 165.76515 169.93515 298.1601 306.50009 314.84009 323.18011 327.3501 451.41525 459.75525 468.09525 476.43524 480.60526"
             y="0"
             sodipodi:role="line"
             id="tspan24">0.050.0100.0150.0</tspan><tspan
             x="208.50999 217.675 221.005 233.5 241.84 246.00999 251.005 259.345 266.845"
             y="20"
             sodipodi:role="line"
             id="tspan26">Time (ps)</tspan></text>
</g><path
         d="m 908.828,417.688 25,0 m -25,502.5 25,0 m -25,502.502 25,0 m -25,502.5 25,0 m -25,505 25,0 m -25,502.49 25,0 m -25,502.5 25,0 m -25,502.5 25,0 m -25,505 25,0 M 5506.33,417.688 l -25,0 m 25,502.5 -25,0 m 25,502.502 -25,0 m 25,502.5 -25,0 m 25,505 -25,0 m 25,502.49 -25,0 m 25,502.5 -25,0 m 25,502.5 -25,0 m 25,505 -25,0"
         style="fill:none;stroke:#000000;stroke-width:2.5;stroke-linecap:round;stroke-linejoin:miter;stroke-miterlimit:10;stroke-dasharray:none;stroke-opacity:1"
         id="path28"
         inkscape:connector-curvature="0" /><path
         d="m 908.828,417.688 50,0 m -50,1005.002 50,0 m -50,1007.5 50,0 m -50,1004.99 50,0 m -50,1007.5 50,0 M 5506.33,417.688 l -50,0 m 50,1005.002 -50,0 m 50,1007.5 -50,0 m 50,1004.99 -50,0 m 50,1007.5 -50,0"
         style="fill:none;stroke:#000000;stroke-width:2.5;stroke-linecap:round;stroke-linejoin:miter;stroke-miterlimit:10;stroke-dasharray:none;stroke-opacity:1"
         id="path30"
         inkscape:connector-curvature="0" /><g
         id="g32"
         transform="scale(10,10)"><text
           transform="matrix(1,0,0,-1,60.5313,36.7699)"
           style="font-variant:normal;font-size:15px;font-family:f-0;-inkscape-font-specification:f-0-0;writing-mode:lr-tb;fill:#000000;fill-opacity:1;fill-rule:nonzero;stroke:none"
           id="text34"><tspan
             x="0 8.3400002 12.51"
             y="0"
             sodipodi:role="line"
             id="tspan36">0.0</tspan><tspan
             x="-25.019501 -16.679501 -8.3395004 0.00050000002 8.3404999 12.5105"
             y="-100.5"
             sodipodi:role="line"
             id="tspan38">1000.0</tspan><tspan
             x="-25.019501 -16.679501 -8.3395004 0.00050000002 8.3404999 12.5105"
             y="-201.25"
             sodipodi:role="line"
             id="tspan40">2000.0</tspan><tspan
             x="-25.019501 -16.679501 -8.3395004 0.00050000002 8.3404999 12.5105"
             y="-301.75"
             sodipodi:role="line"
             id="tspan42">3000.0</tspan><tspan
             x="-25.019501 -16.679501 -8.3395004 0.00050000002 8.3404999 12.5105"
             y="-402.5"
             sodipodi:role="line"
             id="tspan44">4000.0</tspan></text>
<text
           transform="matrix(0,1,1,0,15.3809,175.513)"
           style="font-variant:normal;font-size:15px;font-family:f-0;-inkscape-font-specification:f-0-0;writing-mode:lr-tb;fill:#000000;fill-opacity:1;fill-rule:nonzero;stroke:none"
           id="text46"><tspan
             x="0 12.495 22.5 33.330002 37.5 42.494999 50.834999"
             y="0"
             sodipodi:role="line"
             id="tspan48">MSD (10</tspan></text>
<text
           transform="matrix(0,1,1,0,6.3809,234.688)"
           style="font-variant:normal;font-size:9px;font-family:f-0;-inkscape-font-specification:f-0-0;writing-mode:lr-tb;fill:#000000;fill-opacity:1;fill-rule:nonzero;stroke:none"
           id="text50"><tspan
             x="0 2.997"
             y="0"
             sodipodi:role="line"
             id="tspan52">-5</tspan></text>
<text
           transform="matrix(0,1,1,0,15.3809,246.8595)"
           style="font-variant:normal;font-size:15px;font-family:f-0;-inkscape-font-specification:f-0-0;writing-mode:lr-tb;fill:#000000;fill-opacity:1;fill-rule:nonzero;stroke:none"
           id="text54"><tspan
             x="0 7.5"
             y="0"
             sodipodi:role="line"
             id="tspan56">cm</tspan></text>
<text
           transform="matrix(0,1,1,0,6.3809,266.854)"
           style="font-variant:normal;font-size:9px;font-family:f-0;-inkscape-font-specification:f-0-0;writing-mode:lr-tb;fill:#000000;fill-opacity:1;fill-rule:nonzero;stroke:none"
           id="text58"><tspan
             x="0"
             y="0"
             id="tspan60">2</tspan></text>
<text
           transform="matrix(0,1,1,0,15.3809,276.02783)"
           style="font-variant:normal;font-size:15px;font-family:f-0;-inkscape-font-specification:f-0-0;writing-mode:lr-tb;fill:#000000;fill-opacity:1;fill-rule:nonzero;stroke:none"
           id="text62"><tspan
             x="0"
             y="0"
             id="tspan64">s</tspan></text>
<text
           transform="matrix(0,1,1,0,6.3809,283.52783)"
           style="font-variant:normal;font-size:9px;font-family:f-0;-inkscape-font-specification:f-0-0;writing-mode:lr-tb;fill:#000000;fill-opacity:1;fill-rule:nonzero;stroke:none"
           id="text66"><tspan
             x="0 2.997"
             y="0"
             sodipodi:role="line"
             id="tspan68">-1</tspan></text>
<text
           transform="matrix(0,1,1,0,15.3809,291.529)"
           style="font-variant:normal;font-size:15px;font-family:f-0;-inkscape-font-specification:f-0-0;writing-mode:lr-tb;fill:#000000;fill-opacity:1;fill-rule:nonzero;stroke:none"
           id="text70"><tspan
             x="0"
             y="0"
             id="tspan72">)</tspan></text>
<text
           transform="matrix(1,0,0,-1,178.704,486.27)"
           style="font-variant:normal;font-size:22.5px;font-family:f-0;-inkscape-font-specification:f-0-0;writing-mode:lr-tb;fill:#000000;fill-opacity:1;fill-rule:nonzero;stroke:none"
           id="text74"><tspan
             x="0 18.7425 31.252501 43.762501 56.272499 68.782433 83.789932 96.299934 108.80993 121.31993 128.81244 141.32243 147.57744 163.82243 168.81743 180.06743 192.57744 197.57243 210.08243 221.33243 233.84244 252.58493 265.09494 277.60492"
             y="0"
             sodipodi:role="line"
             id="tspan76">Mean Square Displacement</tspan></text>
<text
           transform="matrix(1,0,0,-1,232.8903,456.77)"
           style="font-variant:normal;font-size:15px;font-family:f-0;-inkscape-font-specification:f-0-0;writing-mode:lr-tb;fill:#000000;fill-opacity:1;fill-rule:nonzero;stroke:none"
           id="text78"><tspan
             x="0 10.83 15 23.76 27.93 36.27 40.439999 48.779999 57.119999 65.459999 73.800003 77.970001 82.964996 91.305"
             y="0"
             sodipodi:role="line"
             id="tspan80">D = 3.5027 (10</tspan></text>
<text
           transform="matrix(1,0,0,-1,332.5352,465.77)"
           style="font-variant:normal;font-size:9px;font-family:f-0;-inkscape-font-specification:f-0-0;writing-mode:lr-tb;fill:#000000;fill-opacity:1;fill-rule:nonzero;stroke:none"
           id="text82"><tspan
             x="0 2.997"
             y="0"
             sodipodi:role="line"
             id="tspan84">-5</tspan></text>
<text
           transform="matrix(1,0,0,-1,344.7063,456.77)"
           style="font-variant:normal;font-size:15px;font-family:f-0;-inkscape-font-specification:f-0-0;writing-mode:lr-tb;fill:#000000;fill-opacity:1;fill-rule:nonzero;stroke:none"
           id="text86"><tspan
             x="0 7.5"
             y="0"
             sodipodi:role="line"
             id="tspan88">cm</tspan></text>
<text
           transform="matrix(1,0,0,-1,364.7012,465.77)"
           style="font-variant:normal;font-size:9px;font-family:f-0;-inkscape-font-specification:f-0-0;writing-mode:lr-tb;fill:#000000;fill-opacity:1;fill-rule:nonzero;stroke:none"
           id="text90"><tspan
             x="0"
             y="0"
             id="tspan92">2</tspan></text>
<text
           transform="matrix(1,0,0,-1,373.87503,456.77)"
           style="font-variant:normal;font-size:15px;font-family:f-0;-inkscape-font-specification:f-0-0;writing-mode:lr-tb;fill:#000000;fill-opacity:1;fill-rule:nonzero;stroke:none"
           id="text94"><tspan
             x="0"
             y="0"
             id="tspan96">s</tspan></text>
<text
           transform="matrix(1,0,0,-1,381.37503,465.77)"
           style="font-variant:normal;font-size:9px;font-family:f-0;-inkscape-font-specification:f-0-0;writing-mode:lr-tb;fill:#000000;fill-opacity:1;fill-rule:nonzero;stroke:none"
           id="text98"><tspan
             x="0 2.997"
             y="0"
             sodipodi:role="line"
             id="tspan100">-1</tspan></text>
<text
           transform="matrix(1,0,0,-1,389.3762,456.77)"
           style="font-variant:normal;font-size:15px;font-family:f-0;-inkscape-font-specification:f-0-0;writing-mode:lr-tb;fill:#000000;fill-opacity:1;fill-rule:nonzero;stroke:none"
           id="text102"><tspan
             x="0"
             y="0"
             id="tspan104">)</tspan></text>
</g><path
         d="m 908.828,417.688 2.5,0 0,2.5 2.5,0 0,2.5 15,15 2.5,0 0,2.5 2.5,0 0,2.5 2.5,0 2.5,2.5 2.5,0 0,2.5 2.5,0 0,2.5 2.5,0 0,2.5 2.5,0 2.5,2.5 2.5,0 0,2.5 2.5,0 0,2.5 2.5,0 5,5 2.5,0 0,2.5 2.5,0 5,5 2.5,0 0,2.5 2.5,0 2.5,2.5 2.5,0 0,2.5 2.5,0 0,2.5 2.5,0 2.5,2.5 2.5,0 0,2.5 2.5,0 0,2.5 2.5,0 0,2.5 5.002,0 0,2.5 2.5,0 0,2.5 2.5,0 2.5,2.5 2.5,0 0,2.5 2.5,0 2.5,2.5 2.5,0 0,2.5 2.5,0 0,2.5 2.5,0 2.5,2.5 2.5,0 0,2.5 2.5,0 0,2.5 2.5,0 2.5,2.5 2.5,0 0,2.5 2.5,0 0,2.5 2.5,0 2.5,2.5 2.5,0 0,2.5 2.5,0 2.5,2.5 2.5,0 0,2.5 2.5,0 2.5,2.5 2.5,0 0,2.5 2.5,0 0,2.5 5,0 0,2.5 2.5,0 0,2.5 2.5,0 2.5,2.5 2.5,0 0,2.5 2.5,0 0,2.5 2.5,0 2.5,2.5 2.5,0 0,2.5 2.5,0 0,2.5 5,0 0,2.5 2.5,0 0,2.5 5,0 0,2.5 2.5,0 5,5 2.5,0 0,2.5 2.5,0 5,5 2.5,0 0,2.5 2.5,0 5,5 2.5,0 0,2.5 2.5,0 2.5,2.5 2.5,0 0,2.5 2.5,0 2.5,2.5 2.5,0 0,2.5 5,0 0,2.5 2.5,0 0,2.5 2.5,0 2.5,2.5 2.5,0 0,2.5 2.5,0 0,2.5 2.5,0 2.5,2.5 2.5,0 0,2.5 2.5,0 0,2.5 2.5,0 2.5,2.5 2.5,0 0,2.5 2.5,0 0,2.5 5,0 0,2.5 5,0 0,2.5 2.5,0 0,2.5 2.5,0 2.5,2.5 2.5,0 0,2.5 2.5,0 0,2.5 2.5,0 2.5,2.5 2.5,0 0,2.5 2.5,0 2.5,2.5 2.5,0 0,2.5 2.5,0 0,2.5 2.5,0 0,2.5 5,0 0,2.5 2.5,0 0,2.5 5,0 0,2.5 2.5,0 2.5,2.5 2.5,0 0,2.5 2.5,0 5,5 2.5,0 0,2.5 2.5,0 0,2.5 5,0 0,2.5 2.5,0 0,2.5 2.5,0 0,2.5 5,0 0,2.5 2.5,0 2.5,2.5 2.5,0 0,2.5 2.5,0 2.5,2.5 2.5,0 0,2.5 2.5,0 0,2.5 2.5,0 2.5,2.5 2.5,0 0,2.5 2.5,0 0,2.5 5,0 0,2.5 2.5,0 0,2.5 2.5,0 2.5,2.5 2.5,0 0,2.5 2.5,0 0,2.5 2.5,0 2.5,2.5 2.5,0 0,2.5 5,0 0,2.5 2.5,0 5,5 2.5,0 0,2.5 2.5,0 0,2.5 2.5,0 2.5,2.5 2.5,0 0,2.5 2.5,0 2.5,2.5 2.5,0 0,2.5 2.5,0 0,2.5 2.5,0 0,2.5 5,0 0,2.5 2.5,0 2.5,2.5 2.5,0 0,2.5 5,0 0,2.5 2.5,0 0,2.5 2.5,0 0,2.5 2.5,0 2.5,2.5 2.5,0 0,2.5 2.5,0 0,2.5 5,0 0,2.5 2.5,0 0,2.5 2.5,0 0,2.5 5,0 0,2.5 2.5,0 0,2.5 5,0 0,2.5 2.5,0 2.5,2.5 2.5,0 0,2.5 2.5,0 5,5 2.5,0 0,2.5 2.5,0 0,2.5 2.5,0 2.5,2.5 2.5,0 0,2.5 2.5,0 5,5 2.5,0 0,2.5 2.5,0 2.5,2.5 2.5,0 0,2.5 2.5,0 2.5,2.5 2.5,0 0,2.5 2.5,0 2.5,2.5 2.5,0 0,2.5 2.5,0 0,2.5 2.5,0 2.5,2.5 2.5,0 0,2.5 2.5,0 0,2.5 2.5,0 2.5,2.5 2.5,0 0,2.5 2.5,0 0,2.5 2.5,0 2.5,2.5 2.5,0 0,2.5 2.5,0 2.5,2.5 2.5,0 5,5 2.5,0 0,2.5 2.5,0 0,2.5 2.5,0 0,2.5 5,0 0,2.5 2.5,0 0,2.5 2.5,0 0,2.5 2.5,0 2.5,2.5 2.5,0 0,2.5 2.5,0 2.5,2.5 2.5,0 0,2.5 2.5,0 0,2.5 5,0 0,2.5 5,0 0,2.5 2.5,0 0,2.5 2.5,0 2.5,2.5 2.5,0 0,2.5 2.5,0 0,2.5 2.5,0 0,2.5 2.5,0 0,2.5 5,0 0,2.5 2.5,0 2.5,2.5 2.5,0 0,2.5 2.5,0 0,2.5 2.5,0 2.5,2.5 2.5,0 0,2.5 5,0 0,2.5 2.5,0 0,2.5 2.5,0 2.5,2.5 2.5,0 0,2.5 2.5,0 2.5,2.5 2.5,0 0,2.5 2.5,0 0,2.5 2.5,0 0,2.5 5,0 0,2.5 2.5,0 0,2.5 2.5,0 2.5,2.5 2.5,0 0,2.5 2.5,0 2.5,2.5 2.5,0 2.5,2.5 2.5,0 0,2.5 2.5,0 0,2.5 2.5,0 2.5,2.5 2.5,0 0,2.5 2.5,0 0,2.5 2.5,0 2.5,2.5 2.5,0 0,2.5 2.5,0 2.5,2.5 2.5,0 0,2.5 2.5,0 0,2.5 2.5,0 2.5,2.5 2.5,0 0,2.5 5,0 0,2.5 2.5,0 2.5,2.502 2.5,0 0,2.5 2.5,0 0,2.5 5,0 0,2.5 2.5,0 0,2.5 2.5,0 0,2.5 2.5,0 2.5,2.5 2.5,0 0,2.5 2.5,0 2.5,2.5 2.5,0 0,2.5 2.5,0 0,2.5 5,0 0,2.5 2.5,0 2.5,2.5 2.5,0 0,2.5 2.5,0 0,2.5 2.5,0 2.5,2.5 2.5,0 5,5 2.5,0 0,2.5 2.5,0 0,2.5 2.5,0 2.5,2.5 2.5,0 0,2.5 2.5,0 2.5,2.5 2.5,0 0,2.5 5,0 0,2.5 2.5,0 0,2.5 2.5,0 2.5,2.5 2.5,0 0,2.5 2.5,0 2.5,2.5 2.5,0 0,2.5 2.5,0 0,2.5 2.5,0 2.5,2.5 2.5,0 0,2.5 2.5,0 2.5,2.5 2.5,0 0,2.5 2.5,0 2.5,2.5 2.5,0 0,2.5 5,0 0,2.5 2.5,0 0,2.5 2.5,0 2.5,2.5 2.5,0 0,2.5 2.5,0 2.5,2.5 2.5,0 0,2.5 2.5,0 0,2.5 2.5,0 0,2.5 5,0 0,2.5 2.5,0 2.5,2.5 2.5,0 0,2.5 2.5,0 2.5,2.5 2.5,0 0,2.5 5,0 0,2.5 2.5,0 0,2.5 2.5,0 0,2.5 5,0 0,2.5 2.5,0 0,2.5 5,0 0,2.5 2.5,0 0,2.5 2.5,0 0,2.5 5,0 0,2.5 2.5,0 0,2.5 5,0 0,2.5 5,0 0,2.5 2.5,0 2.5,2.5 2.5,0 0,2.5 2.5,0 0,2.5 2.5,0 2.5,2.5 2.5,0 0,2.5 2.5,0 5,5 2.5,0 0,2.5 2.5,0 0,2.5 5,0 0,2.5 2.5,0 0,2.5 5,0 0,2.5 5,0 0,2.5 2.5,0 0,2.5 5,0 0,2.5 2.5,0 0,2.5 2.5,0 2.5,2.5 2.5,0 0,2.5 2.5,0 0,2.5 2.5,0 2.5,2.5 2.5,0 0,2.5 2.5,0 0,2.5 5,0 0,2.5 2.5,0 0,2.5 2.5,0 2.5,2.5 2.5,0 2.5,2.5 2.5,0 0,2.5 2.5,0 0,2.5 5,0 0,2.5 2.5,0 0,2.5 5,0 0,2.5 2.5,0 0,2.5 2.5,0 0,2.5 2.5,0 2.5,2.5 2.5,0 0,2.5 2.5,0 2.5,2.5 2.5,0 2.5,2.5 2.5,0 0,2.5 2.5,0 5,5 2.5,0 0,2.5 5,0 0,2.5 2.5,0 2.5,2.5 2.5,0 0,2.5 2.5,0 0,2.5 2.5,0 0,2.5 2.5,0 2.5,2.5 2.5,0 0,2.5 2.5,0 2.5,2.5 2.5,0 0,2.5 2.5,0 2.5,2.5 2.5,0 0,2.5 2.5,0 2.5,2.5 2.5,0 0,2.5 2.5,0 2.5,2.5 2.5,0 0,2.5 2.5,0 2.5,2.5 2.5,0 0,2.5 2.5,0 0,2.5 2.5,0 0,2.5 2.5,0 5,5 2.5,0 2.5,2.5 2.5,0 0,2.5 2.5,0 2.5,2.5 2.5,0 0,2.5 2.5,0 0,2.5 5,0 0,2.5 2.5,0 2.5,2.5 2.5,0 0,2.5 2.5,0 2.5,2.5 0,2.5 5,0 0,2.5 2.5,0 0,2.5 2.5,0 0,2.5 5,0 0,2.5 5,0 0,2.5 2.5,0 0,2.5 2.5,0 2.5,2.5 2.5,0 0,2.5 2.5,0 2.5,2.5 5,0 0,2.5 2.5,2.5 2.5,0 0,2.5 2.5,0 0,2.5 2.5,0 0,2.5 5,0 0,2.5 2.5,0 2.5,2.5 2.5,0 0,2.5 5,0 0,2.5 2.5,0 0,2.5"
         style="fill:none;stroke:#000000;stroke-width:2.5;stroke-linecap:round;stroke-linejoin:miter;stroke-miterlimit:10;stroke-dasharray:none;stroke-opacity:1"
         id="path106"
         inkscape:connector-curvature="0" /><path
         d="m 2263.83,1380.19 2.5,0 2.5,2.5 2.5,0 0,2.5 5,0 0,2.5 5,0 0,2.5 2.5,2.5 2.5,0 0,2.5 2.5,0 0,2.5 2.5,0 0,2.5 2.5,0 2.5,2.5 2.5,0 0,2.5 5,0 0,2.5 5,0 0,2.5 2.5,0 0,2.5 2.5,0 2.5,2.5 2.5,0 0,2.5 5,0 2.5,2.5 2.5,0 0,2.5 2.5,0 0,2.5 2.5,0 0,2.5 2.5,0 5,5 2.5,0 2.5,2.5 2.5,0 0,2.5 2.5,0 2.5,2.5 2.5,0 0,2.5 2.5,0 2.5,2.5 2.5,0 0,2.5 5,0 2.5,2.5 2.5,0 0,2.5 2.5,0 0,2.5 2.5,0 0,2.5 2.5,0 2.5,2.5 2.5,0 0,2.5 2.5,0 0,2.5 5,0 0,2.5 2.5,0 2.5,2.5 2.5,0 0,2.5 2.5,0 2.5,2.5 2.5,0 0,2.5 5,0 0,2.5 5,0 0,2.5 2.5,0 0,2.5 2.5,0 0,2.5 2.5,0 2.5,2.5 2.5,0 0,2.5 2.5,0 0,2.5 5,0 2.5,2.5 2.5,0 0,2.5 2.5,0 2.5,2.5 2.5,0 0,2.5 5,0 0,2.5 5,0 0,2.5 2.5,0 0,2.5 2.5,0 0,2.5 2.5,0 2.5,2.5 2.5,0 0,2.5 2.5,0 2.5,2.5 2.5,0 0,2.5 5,0 0,2.5 5,0 0,2.5 2.5,0 0,2.5 5,0 0,2.5 2.5,0 0,2.5 5,0 2.5,2.5 2.5,0 0,2.5 2.5,0 0,2.5 2.5,0 0,2.5 2.5,0 2.5,2.5 2.5,0 0,2.5 5,0 0,2.5 5,0 0,2.5 2.5,0 5,5 2.5,0 2.5,2.5 2.5,0 0,2.5 5,0 0,2.5 2.5,0 2.5,2.5 0,2.5 2.5,0 2.5,2.5 2.5,0 0,2.5 5,0 0,2.5 5,0 0,2.5 2.5,0 0,2.5 2.5,0 2.5,2.5 2.5,0 0,2.5 2.5,0 0,2.5 5,0 0,2.5 5,0 0,2.5 2.5,0 7.5,7.5 5,0 0,2.5 2.5,0 0,2.5 5,0 0,2.5 2.5,0 2.5,2.5 2.5,0 0,2.5 2.5,0 0,2.5 5,0 0,2.5 2.5,0 0,2.5 5,0 0,2.5 5,0 0,2.5 2.5,0 0,2.5 2.5,0 0,2.5 5,0 0,2.5 5,0 0,2.5 5,0 0,2.5 2.5,0 0,2.5 2.5,0 0,2.5 2.5,0 0,2.5 5,0 0,2.5 2.5,0 2.5,2.5 2.5,0 0,2.5 2.5,0 2.5,2.5 2.5,0 0,2.5 2.5,0 0,2.5 2.5,0 0,2.5 0,-2.5 2.5,0 0,2.5 5,0 0,2.5 2.5,0 0,2.5 5,0 0,2.5 2.5,0 0,2.5 2.5,0 0,2.5 2.5,0 2.5,2.5 2.5,0 0,2.5 5,0 0,2.5 5,0 0,2.5 2.5,0 0,2.5 2.5,0 0,2.5 2.5,0 0,2.5 2.5,0 0,-2.5 0,2.5 2.5,0 2.5,2.5 2.5,0 0,2.5 5,0 0,2.5 2.5,0 0,2.5 2.5,0 5,5 2.5,0 5,5 5,0 0,2.5 2.5,0 0,2.5 2.5,0 0,2.5 2.5,0 0,2.5 5,0 2.5,2.5 2.5,0 0,2.5 5,0 0,2.5 2.5,0 0,2.5 2.5,0 2.5,2.5 2.5,0 0,2.5 5,0 0,2.5 2.5,0 0,2.5 5,0 0,2.5 2.5,0 2.5,2.5 0,2.5 2.5,0 2.5,2.5 5,0 0,2.5 2.5,0 0,2.5 5,0 5,5 2.5,0 0,2.5 2.5,0 0,2.5 2.5,0 2.5,2.5 2.5,0 0,2.5 5,0 0,2.5 2.5,0 5,5 2.5,0 0,2.5 2.5,2.5 0,-2.5 2.5,0 0,2.5 2.5,0 2.5,2.5 5,0 0,2.5 2.5,0 0,2.5 2.5,0 0,2.5 2.5,0 0,2.5 5,0 0,2.5 2.5,0 2.5,2.5 5,0 0,2.5 2.5,0 0,2.5 2.5,0 0,2.5 2.5,0 0,2.5 5,0 2.5,2.5 2.5,0 0,2.5 5,0 0,2.5 2.5,0 2.5,2.5 0,2.5 2.5,0 2.5,2.5 2.5,0 2.5,2.5 2.5,0 0,2.5 5,0 0,2.5 2.5,0 0,2.5 2.5,0 0,2.5 2.5,0 2.5,2.5 5,0 0,2.5 5,0 0,2.5 2.5,0 5,5 2.5,0 0,2.5 2.5,0 0,2.5 5,0 0,2.5 2.5,0 0,2.5 5,0 2.5,2.5 2.5,0 0,2.5 2.5,2.5 2.5,0 0,2.5 2.5,0 0,2.5 0,-2.5 2.5,0 0,2.5 5,0 0,2.5 5,0 0,2.5 2.5,0 0,2.5 2.5,0 0,2.5 2.5,0 0,2.5 2.5,0 0,2.5 5,0 0,2.5 5,0 0,2.5 5,0 0,2.5 2.5,0 0,2.5 2.5,0 0,2.5 2.5,0 0,2.5 2.5,-2.5 2.5,2.5 2.5,0 0,2.5 5,0 2.5,2.5 0,2.5 2.5,0 5,5 2.5,0 0,2.5 5,0 0,2.5 2.5,0 2.5,2.5 2.5,0 0,2.5 2.5,0 0,2.5 2.5,0 5,5 0,-2.5 2.5,0 0,2.5 5,0 0,2.5 5,0 0,2.5 2.5,0 0,2.5 2.5,0 0,2.5 2.5,0 0,2.5 5,0 0,2.5 5,0 0,2.5 5,0 0,2.5 2.5,0 0,2.5 2.5,0 0,2.5 2.5,0 0,2.5 2.5,0 0,-2.5 2.5,0 0,2.5 5,0 0,2.5 5,0 0,2.5 2.5,0 0,2.5 2.5,0 0,2.5 2.5,0 2.5,2.5 2.5,0 2.5,2.5 2.5,0 0,2.5 2.5,0 2.5,2.5 2.5,0 0,2.5 2.5,0 0,2.5 2.5,0 2.5,2.5 5,0 0,2.5 5,0 0,2.5 5,0 0,2.5 2.5,0 0,2.5 2.5,0 0,2.5 2.5,0 0,2.5 7.5,0 0,2.5 2.5,0 0,2.5 5,0 0,2.5 2.5,0 0,2.5 2.5,0 0,2.5 2.5,0 2.5,2.5 0,-2.5 2.5,0 0,2.5 5,0 0,2.5 5,0 0,2.5 2.5,0 0,2.5 2.5,0 0,2.5 2.5,0 0,2.5 7.5,0 0,2.5 2.5,0 0,2.5 5,0 0,2.5 2.5,0 0,2.5 2.5,0 0,2.5 2.5,0 2.5,2.5 5,0 2.5,2.5 2.5,0 0,2.5 5,0 0,2.5 2.5,0 0,2.5 2.5,0 0,2.5 2.5,0 0,2.5 7.5,0 0,2.5 2.5,0 0,2.5 2.5,0 2.5,2.5 2.5,0 0,2.5 2.5,0 0,2.5 2.5,0 0,2.5 2.5,0 0,-2.5 0,2.5 5,0 0,2.5 5,0 7.5,7.5 2.5,0 0,2.5 5,0 0,2.5 2.5,0 2.5,2.5 2.5,0 0,2.5 2.5,0 0,2.5 2.5,0 2.5,2.5 2.5,0 0,2.5 2.5,2.5 0,-2.5 2.5,0 0,2.5 5,0 0,2.5 5,0 0,2.5 2.5,0 0,2.5 2.5,0 0,2.5 2.5,0 2.5,2.5 5,0 0,2.5 2.5,0 0,2.5 5,0 0,2.5 2.5,0 0,2.5 2.5,0 0,2.5 2.5,0 2.5,2.5 0,2.5 2.5,-2.5 2.5,0 0,2.5 5,0 0,2.5 5,0 0,2.5 2.5,0 2.5,2.5 2.5,0 0,2.5 7.5,0 0,2.5 2.5,2.5 2.5,0 0,2.5 2.5,0 0,2.5 2.5,0 0,2.5 2.5,0 0,2.5 2.5,0 0,2.5 2.5,0 0,-2.5 2.5,2.5 5,0 0,2.5 5,0 0,2.5 2.5,0 2.5,2.5 2.5,0 0,2.5 5,0 2.5,2.5 2.5,0 0,2.5 2.5,0 0,2.5 2.5,0 0,2.5 2.5,0 0,2.5 2.5,0 5,5 2.5,-2.5 0,2.5 5,0 2.5,2.5 2.5,0 2.5,2.5 2.5,0 0,2.5 5,0 0,2.5 5,0 0,2.5 2.5,0 0,2.5 2.5,0 0,2.5 2.5,0 0,2.5 2.5,0 7.5,7.5 7.5,0 0,2.5 5,0 5,5"
         style="fill:none;stroke:#000000;stroke-width:2.5;stroke-linecap:round;stroke-linejoin:miter;stroke-miterlimit:10;stroke-dasharray:none;stroke-opacity:1"
         id="path108"
         inkscape:connector-curvature="0" /><path
         d="m 3591.33,2235.19 2.5,0 0,2.5 5,0 2.5,2.5 2.5,0 0,2.5 2.5,0 0,2.5 2.5,0 0,2.5 2.5,0 0,2.5 2.5,0 2.5,2.5 2.5,0 0,2.5 7.5,0 0,2.5 2.5,0 2.5,2.5 2.5,0 5,5 2.5,0 2.5,2.5 2.5,0 2.5,2.5 2.5,0 0,2.5 2.5,0 0,2.5 2.5,0 0,2.5 2.5,0 0,2.5 5,0 0,2.5 2.5,0 0,2.5 5,0 0,2.5 5,0 0,2.5 5,0 0,2.5 2.5,0 2.5,2.5 2.5,0 0,2.5 5,0 0,2.5 2.5,0 0,2.5 2.5,0 0,2.5 2.5,0 2.5,2.5 0,2.5 2.5,0 2.5,2.5 2.5,0 0,2.5 5,0 0,2.5 5,0 0,2.5 5,0 0,2.5 2.5,0 0,2.5 2.5,0 2.5,2.5 5,0 0,2.5 2.5,0 0,2.5 2.5,0 0,2.5 2.5,0 2.5,2.5 0,2.5 2.5,0 0,2.5 5,0 0,2.5 2.5,0 0,2.5 2.5,-2.5 2.5,2.5 5,0 0,2.5 2.5,0 2.5,2.5 2.5,0 0,2.5 5,0 0,2.5 2.5,0 2.5,2.5 2.5,0 0,2.5 2.5,0 0,2.5 2.5,0 0,2.5 2.5,0 0,2.5 5,0 0,2.5 2.5,0 0,2.5 2.5,0 0,-2.5 5,5 2.5,0 0,2.5 2.5,0 0,-2.5 2.5,2.5 0,2.5 2.5,0 2.5,2.5 2.5,0 0,2.5 5,0 0,2.5 2.5,0 0,2.5 2.5,0 0,2.5 2.5,0 0,2.5 2.5,0 2.5,2.5 5,0 0,2.5 2.5,2.5 0,-2.5 2.5,0 0,2.5 2.5,0 2.5,2.5 5,0 0,2.5 2.5,0 0,2.5 2.5,0 0,2.5 2.5,0 2.5,2.5 5,0 0,2.5 2.5,0 0,2.5 2.5,0 0,2.5 2.5,0 0,2.5 2.5,0 2.5,2.5 2.5,0 2.5,2.5 0,2.5 2.5,-5 0,2.5 2.5,0 0,2.5 2.5,0 2.5,2.5 2.5,0 7.5,7.5 2.5,0 0,2.5 5,0 0,2.5 2.5,0 0,2.5 2.5,0 0,2.5 2.5,0 2.5,2.5 2.5,0 0,2.5 5,0 0,2.5 2.5,0 0,2.5 0,-2.5 2.5,0 0,2.5 5,0 0,2.5 5,0 0,2.5 2.5,0 0,2.49 2.5,0 0,2.5 2.5,0 0,2.5 7.5,0 0,2.5 2.5,2.5 2.5,0 0,2.5 2.5,0 0,2.5 2.5,0 0,2.5 5,0 0,2.5 2.5,0 0,2.5 2.5,-5 0,2.5 2.5,0 0,2.5 2.5,0 0,2.5 5,0 0,2.5 2.5,0 2.5,2.5 2.5,0 0,2.5 2.5,0 0,2.5 7.5,0 0,2.5 2.5,2.5 2.5,0 0,2.5 2.5,0 2.5,2.5 2.5,0 2.5,2.5 0,2.5 2.5,0 0,-2.5 2.5,2.5 0,2.5 2.5,0 2.5,2.5 5,0 0,2.5 2.5,0 0,2.5 2.5,0 0,2.5 2.5,0 2.5,2.5 5,0 0,2.5 2.5,0 0,2.5 2.5,0 0,2.5 2.5,0 0,2.5 5,0 2.5,2.5 0,2.5 2.5,0 0,-2.5 5,5 2.5,0 0,2.5 5,0 0,2.5 2.5,0 0,2.5 2.5,0 0,2.5 2.5,0 0,2.5 7.5,0 0,2.5 2.5,0 0,2.5 2.5,0 0,2.5 2.5,0 0,2.5 2.5,0 0,2.5 5,0 2.5,2.5 0,2.5 2.5,-5 0,2.5 2.5,2.5 2.5,0 0,2.5 5,0 0,2.5 2.5,0 2.5,2.5 0,2.5 2.5,0 0,2.5 2.5,0 2.5,2.5 0,-2.5 2.5,0 0,2.5 2.5,0 0,2.5 2.5,0 0,2.5 2.5,0 0,2.5 2.5,0 0,2.5 5,0 5,5 0,-2.5 5,5 2.5,0 0,2.5 5,0 0,2.5 2.5,0 0,2.5 2.5,0 0,2.5 2.5,0 0,2.5 7.5,0 0,2.5 2.5,2.5 0,2.5 5,0 0,2.5 2.5,0 0,2.5 5,0 0,2.5 2.5,0 0,2.5 2.5,-2.5 0,2.5 5,5 5,0 0,2.5 2.5,0 0,2.5 2.5,0 0,2.5 2.5,0 0,2.5 7.5,0 0,2.5 2.5,0 0,5 2.5,0 0,2.5 5,0 0,2.5 2.5,0 0,2.5 5,0 0,2.5 2.5,2.5 0,-2.5 0,2.5 2.5,0 0,2.5 2.5,0 0,2.5 2.5,0 0,2.5 2.5,0 0,-2.5 0,2.5 2.5,0 10,10 0,-2.5 2.5,0 0,2.5 2.5,0 0,2.5 2.5,0 0,2.5 2.5,0 0,2.5 2.5,0 2.5,2.5 2.5,0 0,2.5 2.5,0 0,2.5 2.5,0 0,2.5 0,-2.5 2.5,2.5 0,2.5 2.5,0 0,2.5 2.5,0 0,2.5 7.5,0 0,2.5 2.5,2.5 2.5,0 0,2.5 2.5,0 0,2.5 2.5,-2.5 0,2.5 2.5,0 2.5,2.5 0,2.5 2.5,0 2.5,2.5 2.5,0 0,2.5 5,0 0,2.5 2.5,2.5 0,2.5 2.5,-2.5 0,2.5 2.5,0 0,2.5 2.5,0 0,2.5 5,0 2.5,2.5 2.5,0 0,5 2.5,0 2.5,2.5 5,0 0,2.5 2.5,0 0,2.5 2.5,0 0,2.5 2.5,0 2.5,2.5 2.5,0 0,2.5 5,0 0,2.5 2.5,2.5 0,-5 0,2.5 2.5,0 0,2.5 2.5,0 0,2.5 2.5,0 0,2.5 2.5,0 0,-2.5 0,2.5 5,0 0,2.5 2.5,2.5 0,2.5 2.5,0 2.5,2.5 2.5,-2.5 0,2.5 2.5,0 0,2.5 2.5,0 0,2.5 2.5,0 2.5,2.5 2.5,0 0,2.5 5,0 0,2.5 2.5,2.5 0,-2.5 2.5,0 0,2.5 2.5,0 0,2.5 2.5,0 0,2.5 7.5,0 0,2.5 5,5 0,2.5 7.5,0 0,2.5 2.5,0 0,2.5 2.5,2.5 2.5,0 0,2.5 2.5,0 0,2.5 5,0 0,2.5 2.5,0 0,2.5 2.5,2.5 0,-5 7.5,7.5 2.5,0 5,5 0,2.5 2.5,0 0,2.5 2.5,0 2.5,2.5 5,0 0,2.5 2.5,2.5 0,2.5 2.5,0 5,5 2.5,0 2.5,2.5 0,2.5 2.5,0 0,2.5 0,-2.5 2.5,0 0,2.5 2.5,0 0,2.5 2.5,0 0,2.5 5,0 0,2.5 2.5,0 0,2.5 5,5 2.5,0 0,2.5 0,-2.5 2.5,0 0,2.5 2.5,0 0,2.5 2.5,0 0,2.5 7.5,7.5 2.5,0 0,2.5 2.5,0 0,2.5 2.5,0 0,2.5 2.5,-2.5 0,2.5 2.5,0 0,2.5 2.5,0 0,2.5 5,0 0,2.5 2.5,0 0,2.5 2.5,0 0,5 5,0 0,2.5 5,0 2.5,2.5 0,2.5 2.5,0 0,2.5 2.5,0 0,2.5 2.5,0 0,2.5 2.5,0 0,2.5 5,0 0,5 2.5,0 0,-2.5 10,10 2.5,0 0,2.5 2.5,0 0,2.5 2.5,0 0,2.5 2.5,0 0,2.5 2.5,0 2.5,-2.5 0,2.5 2.5,0 0,2.5 2.5,2.5 0,2.5 2.5,0 2.5,2.5 0,2.5 2.5,0 0,2.5 5,0 0,2.5 2.5,0 0,2.5 0,-2.5 2.5,2.5 2.5,0 0,2.5 2.5,0 0,2.5 5,0 0,2.5 2.5,0 0,2.5 5,5 0,2.5 5,0 0,-2.5 5,5 0,2.5 2.5,2.5 2.5,0 0,2.5 2.5,0 0,2.5 2.5,0 0,2.5 2.5,-2.5 0,2.5 2.5,0 0,2.5 2.5,2.5 0,-5 0,2.5 2.5,0 0,2.5 2.5,0 0,2.5 5,0 5,5 0,2.5 5,5 5,0 0,2.5 2.5,0 0,2.5 2.5,0 0,2.5 2.5,0 0,2.5 2.5,0 0,2.5 2.5,0 0,2.5 5,0 0,2.5 2.5,2.5 0,-7.5 2.5,2.5 0,2.5 2.5,0 0,2.5 7.5,0 0,2.5 2.5,2.5 0,2.5 2.5,2.5 0,2.5 2.5,0 0,2.5 2.5,0 0,2.5 0,-2.5 2.5,0 0,2.5 2.5,0 0,2.5 2.5,2.5 0,2.5 5,0 0,5 2.5,0 0,2.5 5,0 0,2.5 2.5,2.5 0,2.5 2.5,-5 0,2.5 2.5,0 2.5,2.5 5,0"
         style="fill:none;stroke:#000000;stroke-width:2.5;stroke-linecap:round;stroke-linejoin:miter;stroke-miterlimit:10;stroke-dasharray:none;stroke-opacity:1"
         id="path110"
         inkscape:connector-curvature="0" /><path
         d="m 4828.83,3110.18 0,2.5 2.5,0 0,2.5 2.5,2.5 0,2.5 2.5,0 0,2.5 2.5,2.5 5,0 0,2.5 2.5,2.5 0,2.5 2.5,2.5 2.5,0 0,2.5 5,5 2.5,0 0,2.5 2.5,0 0,5 2.5,0 0,-5 2.5,2.5 2.5,0 0,2.5 7.5,0 0,2.5 2.5,0 0,5 2.5,0 0,5 2.5,0 0,2.5 5,0 0,2.5 2.5,2.5 0,2.5 2.5,0 0,2.5 5,0 0,5 2.5,0 0,2.5 5,0 0,2.5 2.5,2.5 0,2.5 0,-5 2.5,2.5 2.5,0 2.5,2.5 5,0 0,2.5 5,5 0,2.5 2.5,2.5 0,5 7.5,0 0,5 2.5,0 0,2.5 5,0 0,2.5 2.5,2.5 0,2.5 5,0 2.5,2.5 0,2.5 2.5,0 0,-5 0,2.5 2.5,0 0,-2.5 2.5,0 0,2.5 5,0 0,-2.5 0,2.5 2.5,2.5 0,2.5 2.5,2.5 0,5 2.5,0 0,2.5 2.5,2.5 0,2.5 2.5,0 0,-2.5 2.5,0 0,5 2.5,0 0,2.5 7.5,7.5 0,2.5 2.5,2.5 5,0 0,2.5 2.5,2.5 0,-7.5 2.5,2.5 10,0 0,5 2.5,2.5 0,2.5 2.5,2.5 0,2.5 2.5,2.5 0,2.5 2.5,0 0,2.5 2.5,-2.5 0,2.5 2.5,2.5 0,2.5 2.5,2.5 0,2.5 2.5,0 0,2.5 2.5,2.5 0,2.5 2.5,2.5 0,2.5 5,0 2.5,2.5 0,2.5 2.5,-10 0,2.5 2.5,0 0,-2.5 2.5,0 0,2.5 5,0 0,2.5 2.5,2.5 0,2.5 2.5,2.5 0,5 2.5,0 0,5 2.5,0 0,2.5 5,0 0,2.5 2.5,2.5 0,2.5 2.5,0 0,2.5 2.5,0 0,5 2.5,2.5 0,2.5 2.5,0 0,2.5 5,0 0,2.5 2.5,2.5 0,-5 0,2.5 2.5,0 0,-2.5 2.5,0 2.5,2.5 2.5,0 0,-2.5 0,2.5 2.5,2.5 0,5 2.5,0 0,5 2.5,0 0,2.5 2.5,2.5 0,2.5 2.5,0 2.5,-2.5 0,2.5 2.5,2.5 0,2.5 5,5 0,2.5 2.5,0 0,5 2.5,0 0,2.5 2.5,0 0,-2.5 2.5,0 0,2.5 2.5,2.5 2.5,0 0,-2.5 5,0 2.5,2.5 0,-2.5 2.5,2.5 0,7.5 2.5,0 0,5 2.5,2.5 0,5 2.5,0 0,2.5 2.5,2.5 2.5,0 0,-2.5 2.5,2.5 0,2.5 2.5,0 0,2.5 2.5,0 0,2.5 5,5 0,2.5 2.5,2.5 2.5,0 2.5,2.5 0,2.5 2.5,0 0,2.5 7.5,0 0,2.5 2.5,0 0,5 2.5,2.5 0,5 2.5,0 0,5 2.5,2.5 0,2.5 2.5,0 0,2.5 5,0 0,2.5 2.5,0 0,2.5 2.5,0 5,5 0,2.5 5,0 2.5,2.5 0,2.5 2.5,2.5 0,2.5 2.5,0 0,-2.5 2.5,2.5 0,-2.5 5,0 0,-2.5 2.5,2.5 0,10 2.5,0 0,5 2.5,2.5 0,2.5 2.5,0 0,2.5 2.5,0 0,2.5 2.5,0 0,2.5 2.5,2.5 2.5,0 0,2.5 2.5,0 0,2.5 2.5,0 0,2.5 2.5,0 2.5,2.5 0,-2.5 2.5,2.5 0,2.5 2.5,0 0,2.5 5,0 0,2.5 0,-2.5 2.5,0 2.5,2.5 2.5,-2.5 0,5 2.5,5 0,5 2.5,2.5 0,2.5 2.5,0 0,2.5 2.5,0 0,2.5 2.5,0 2.5,2.5 7.5,0 0,5 5,0 0,2.5 2.5,0 0,2.5 2.5,0 0,2.5 2.5,2.5 0,-2.5 0,2.5 2.5,-2.5 2.5,0 0,-2.5 5,0 2.5,2.5 0,7.5 2.5,0 0,7.5 5,5 0,2.5 2.5,0 0,2.5 0,-2.5 2.5,0 0,5 2.5,0 0,-5 2.5,0 2.5,-2.5 2.5,2.5 0,2.5 2.5,-2.5 5,0 0,5 2.5,2.5 0,2.5 2.5,0 0,-2.5 10,0 0,10 2.5,2.5 0,5 2.5,2.5 0,5 2.5,2.5 0,2.5 2.5,2.5 0,5 2.5,0 2.5,2.5 0,2.5 0,-5 5,0 0,-2.5 0,2.5 2.5,0 0,2.5 2.5,0 0,-2.5 5,0 0,2.5 2.5,5 0,5 2.5,0 0,-10 2.5,-2.5 7.5,0 0,5 2.5,7.5 0,5 2.5,2.5 0,7.5 2.5,2.5 0,7.5 2.5,2.5 0,5 2.5,2.5 2.5,-2.5 0,5 2.5,-2.5 0,-2.5 2.5,2.5 0,-2.5 2.5,0 0,2.5 2.5,2.5 2.5,0 0,2.5 2.5,-2.5 0,-2.5 2.5,2.5 0,5 2.5,5 0,7.5 2.5,-2.5 0,-7.5 0,2.5 2.5,0 5,-5 0,-5 2.5,0 0,5 2.5,0 0,7.5 2.5,2.5 0,5 2.5,2.5 0,15 2.5,7.5 0,5 2.5,-2.5 0,-2.5 0,2.5 2.5,5 0,-2.5 2.5,-2.5 0,-5 2.5,-2.5 0,7.5 2.5,0 0,2.5 5,5 0,2.5 0,-5 2.5,-2.5 0,7.5 2.5,2.5 0,7.5"
         style="fill:none;stroke:#000000;stroke-width:2.5;stroke-linecap:round;stroke-linejoin:miter;stroke-miterlimit:10;stroke-dasharray:none;stroke-opacity:1"
         id="path112"
         inkscape:connector-curvature="0" /></g></g></svg>