<?xml version="1.0" encoding="UTF-8" standalone="no"?>
<!-- Created with Inkscape (http://www.inkscape.org/) -->

<svg
   xmlns:dc="http://purl.org/dc/elements/1.1/"
   xmlns:cc="http://creativecommons.org/ns#"
   xmlns:rdf="http://www.w3.org/1999/02/22-rdf-syntax-ns#"
   xmlns:svg="http://www.w3.org/2000/svg"
   xmlns="http://www.w3.org/2000/svg"
   xmlns:sodipodi="http://sodipodi.sourceforge.net/DTD/sodipodi-0.dtd"
   xmlns:inkscape="http://www.inkscape.org/namespaces/inkscape"
   id="svg2"
   version="1.1"
   inkscape:version="0.91 r13725"
   xml:space="preserve"
   width="682.5"
   height="688.75"
   viewBox="0 0 682.5 688.75"
   sodipodi:docname="rdf.svg"><metadata
     id="metadata8"><rdf:RDF><cc:Work
         rdf:about=""><dc:format>image/svg+xml</dc:format><dc:type
           rdf:resource="http://purl.org/dc/dcmitype/StillImage" /><dc:title></dc:title></cc:Work></rdf:RDF></metadata><defs
     id="defs6" /><sodipodi:namedview
     pagecolor="#ffffff"
     bordercolor="#666666"
     borderopacity="1"
     objecttolerance="10"
     gridtolerance="10"
     guidetolerance="10"
     inkscape:pageopacity="0"
     inkscape:pageshadow="2"
     inkscape:window-width="760"
     inkscape:window-height="480"
     id="namedview4"
     showgrid="false"
     inkscape:zoom="0.34264973"
     inkscape:cx="341.25"
     inkscape:cy="344.375"
     inkscape:window-x="0"
     inkscape:window-y="25"
     inkscape:window-maximized="0"
     inkscape:current-layer="g10" /><g
     id="g10"
     inkscape:groupmode="layer"
     inkscape:label="ink_ext_XXXXXX"
     transform="matrix(1.25,0,0,-1.25,0,688.75)"><g
       id="g12"
       transform="scale(0.1,0.1)"><path
         d="m 4178.91,4470.67 c 37.61,32.22 85.5,49.96 135,49.96 15.15,0 30.23,-1.68 45,-4.96"
         style="fill:none;stroke:#000000;stroke-width:9;stroke-linecap:butt;stroke-linejoin:miter;stroke-miterlimit:10;stroke-dasharray:none;stroke-opacity:1"
         id="path14"
         inkscape:connector-curvature="0" /><path
         d="m 4133.91,4290.67 c 27.03,63 88.98,103.86 157.5,103.86 23.2,0 46.17,-4.72 67.5,-13.86"
         style="fill:none;stroke:#000000;stroke-width:9;stroke-linecap:butt;stroke-linejoin:miter;stroke-miterlimit:10;stroke-dasharray:none;stroke-opacity:1"
         id="path16"
         inkscape:connector-curvature="0" /><path
         d="m 4178.91,4470.67 c 37.61,32.22 85.5,49.96 135,49.96 15.15,0 30.23,-1.68 45,-4.96"
         style="fill:none;stroke:#000000;stroke-width:9;stroke-linecap:butt;stroke-linejoin:miter;stroke-miterlimit:10;stroke-dasharray:none;stroke-opacity:1"
         id="path18"
         inkscape:connector-curvature="0" /><path
         d="m 4133.91,4290.67 c 27.03,63 88.98,103.86 157.5,103.86 23.2,0 46.17,-4.72 67.5,-13.86"
         style="fill:none;stroke:#000000;stroke-width:9;stroke-linecap:butt;stroke-linejoin:miter;stroke-miterlimit:10;stroke-dasharray:none;stroke-opacity:1"
         id="path20"
         inkscape:connector-curvature="0" /><path
         d="m 2189.92,4155.67 c 0,-591.49 -479.49,-1071.02 -1071.01,-1071.02 -591.488,0 -1070.9803,479.53 -1070.9803,1071.02 0,591.48 479.4923,1071.01 1070.9803,1071.01 591.52,0 1071.01,-479.53 1071.01,-1071.01"
         style="fill:#e6e6e6;fill-opacity:1;fill-rule:nonzero;stroke:none"
         id="path22"
         inkscape:connector-curvature="0" /><path
         d="m 2189.92,4155.67 c 0,-591.49 -479.49,-1071.02 -1071.01,-1071.02 -591.488,0 -1070.9803,479.53 -1070.9803,1071.02 0,591.48 479.4923,1071.01 1070.9803,1071.01 591.52,0 1071.01,-479.53 1071.01,-1071.01"
         style="fill:none;stroke:#000000;stroke-width:4.5;stroke-linecap:butt;stroke-linejoin:miter;stroke-miterlimit:10;stroke-dasharray:none;stroke-opacity:1"
         id="path24"
         inkscape:connector-curvature="0" /><path
         d="m 2027.93,4155.67 c 0,-502.03 -406.99,-908.99 -909.02,-908.99 -502,0 -908.988,406.96 -908.988,908.99 0,502.03 406.988,908.98 908.988,908.98 502.03,0 909.02,-406.95 909.02,-908.98"
         style="fill:none;stroke:#000000;stroke-width:4.5;stroke-linecap:butt;stroke-linejoin:miter;stroke-miterlimit:10;stroke-dasharray:none;stroke-opacity:1"
         id="path26"
         inkscape:connector-curvature="0" /><path
         d="m 2045.94,4155.67 c 0,-511.96 -415.04,-926.99 -927.03,-926.99 -511.961,0 -927,415.03 -927,926.99 0,511.95 415.039,926.99 927,926.99 511.99,0 927.03,-415.04 927.03,-926.99"
         style="fill:#ffffff;fill-opacity:1;fill-rule:nonzero;stroke:none"
         id="path28"
         inkscape:connector-curvature="0" /><path
         d="m 2045.94,4155.67 c 0,-511.96 -415.04,-927 -927.03,-927 -511.961,0 -927,415.04 -927,927 0,511.95 415.039,926.99 927,926.99 511.99,0 927.03,-415.04 927.03,-926.99"
         style="fill:none;stroke:#000000;stroke-width:4.5;stroke-linecap:butt;stroke-linejoin:miter;stroke-miterlimit:10;stroke-dasharray:none;stroke-opacity:1"
         id="path30"
         inkscape:connector-curvature="0" /><path
         d="m 5447.93,4155.67 c 0,-601.45 -487.58,-1088.99 -1089.02,-1088.99 -601.41,0 -1088.99,487.54 -1088.99,1088.99 0,601.44 487.58,1088.98 1088.99,1088.98 601.44,0 1089.02,-487.54 1089.02,-1088.98"
         style="fill:none;stroke:#000000;stroke-width:4.5;stroke-linecap:butt;stroke-linejoin:miter;stroke-miterlimit:10;stroke-dasharray:none;stroke-opacity:1"
         id="path32"
         inkscape:connector-curvature="0" /><path
         d="m 5258.91,4128.68 c 0,-502.04 -406.96,-909.03 -908.99,-909.03 -502.03,0 -908.98,406.99 -908.98,909.03 0,502.03 406.95,908.98 908.98,908.98 502.03,0 908.99,-406.95 908.99,-908.98"
         style="fill:#ffffff;fill-opacity:1;fill-rule:nonzero;stroke:none"
         id="path34"
         inkscape:connector-curvature="0" /><path
         d="m 5258.91,4128.67 c 0,-502.03 -406.96,-909.02 -908.99,-909.02 -502.03,0 -908.98,406.99 -908.98,909.02 0,502.04 406.95,908.99 908.98,908.99 502.03,0 908.99,-406.95 908.99,-908.99"
         style="fill:none;stroke:#000000;stroke-width:4.5;stroke-linecap:butt;stroke-linejoin:miter;stroke-miterlimit:10;stroke-dasharray:none;stroke-opacity:1"
         id="path36"
         inkscape:connector-curvature="0" /><path
         d="m 5420.94,1455.67 c 0,-586.529 -475.51,-1061.998 -1062.03,-1061.998 -586.49,0 -1062,475.469 -1062,1061.998 0,586.52 475.51,1061.99 1062,1061.99 586.52,0 1062.03,-475.47 1062.03,-1061.99"
         style="fill:none;stroke:#000000;stroke-width:4.5;stroke-linecap:butt;stroke-linejoin:miter;stroke-miterlimit:10;stroke-dasharray:none;stroke-opacity:1"
         id="path38"
         inkscape:connector-curvature="0" /><path
         d="m 2180.94,1455.67 c 0,-586.529 -475.51,-1061.99 -1062.03,-1061.99 -586.531,0 -1061.9998,475.461 -1061.9998,1061.99 0,586.52 475.4688,1061.99 1061.9998,1061.99 586.52,0 1062.03,-475.47 1062.03,-1061.99"
         style="fill:#808080;fill-opacity:1;fill-rule:nonzero;stroke:none"
         id="path40"
         inkscape:connector-curvature="0" /><path
         d="m 2180.94,1455.67 c 0,-586.529 -475.51,-1061.998 -1062.03,-1061.998 -586.531,0 -1061.9998,475.469 -1061.9998,1061.998 0,586.52 475.4688,1061.99 1061.9998,1061.99 586.52,0 1062.03,-475.47 1062.03,-1061.99"
         style="fill:none;stroke:#000000;stroke-width:4.5;stroke-linecap:butt;stroke-linejoin:miter;stroke-miterlimit:10;stroke-dasharray:none;stroke-opacity:1"
         id="path42"
         inkscape:connector-curvature="0" /><path
         d="m 1118.91,4155.67 900,0"
         style="fill:none;stroke:#000000;stroke-width:4.5;stroke-linecap:butt;stroke-linejoin:miter;stroke-miterlimit:10;stroke-dasharray:none;stroke-opacity:1"
         id="path44"
         inkscape:connector-curvature="0" /><path
         d="m 1946.91,4173.67 72,-18 -72,-18.01"
         style="fill:none;stroke:#000000;stroke-width:4.5;stroke-linecap:butt;stroke-linejoin:bevel;stroke-miterlimit:10;stroke-dasharray:none;stroke-opacity:1"
         id="path46"
         inkscape:connector-curvature="0" /><path
         d="m 1118.91,4155.67 990,360"
         style="fill:#ffffff;fill-opacity:1;fill-rule:nonzero;stroke:none"
         id="path48"
         inkscape:connector-curvature="0" /><path
         d="m 1118.91,4155.67 990,360"
         style="fill:none;stroke:#000000;stroke-width:4.5;stroke-linecap:butt;stroke-linejoin:miter;stroke-miterlimit:10;stroke-dasharray:none;stroke-opacity:1"
         id="path50"
         inkscape:connector-curvature="0" /><path
         d="m 2035.12,4507.97 73.79,7.7 -61.49,-41.53"
         style="fill:none;stroke:#000000;stroke-width:4.5;stroke-linecap:butt;stroke-linejoin:bevel;stroke-miterlimit:10;stroke-dasharray:none;stroke-opacity:1"
         id="path52"
         inkscape:connector-curvature="0" /><path
         d="m 4358.91,4155.67 -540,945 -135,-90 -225,-225 900,-630"
         style="fill:#e6e6e6;fill-opacity:1;fill-rule:nonzero;stroke:none"
         id="path54"
         inkscape:connector-curvature="0" /><path
         d="m 4358.91,4155.67 -540,945 -135,-90 -225,-225 900,-630"
         style="fill:none;stroke:#000000;stroke-width:4.5;stroke-linecap:butt;stroke-linejoin:miter;stroke-miterlimit:10;stroke-dasharray:none;stroke-opacity:1"
         id="path56"
         inkscape:connector-curvature="0" /><path
         d="m 4358.91,4155.67 0,720"
         style="fill:none;stroke:#000000;stroke-width:4.5;stroke-linecap:butt;stroke-linejoin:miter;stroke-miterlimit:10;stroke-dasharray:none;stroke-opacity:1"
         id="path58"
         inkscape:connector-curvature="0" /><path
         d="m 4358.91,4155.67 900,0"
         style="fill:none;stroke:#000000;stroke-width:4.5;stroke-linecap:butt;stroke-linejoin:miter;stroke-miterlimit:10;stroke-dasharray:none;stroke-opacity:1"
         id="path60"
         inkscape:connector-curvature="0" /><path
         d="m 5186.91,4173.67 72,-18 -72,-18.01"
         style="fill:none;stroke:#000000;stroke-width:4.5;stroke-linecap:butt;stroke-linejoin:bevel;stroke-miterlimit:10;stroke-dasharray:none;stroke-opacity:1"
         id="path62"
         inkscape:connector-curvature="0" /><path
         d="m 4358.91,4164.65 990,360"
         style="fill:#ffffff;fill-opacity:1;fill-rule:nonzero;stroke:none"
         id="path64"
         inkscape:connector-curvature="0" /><path
         d="m 4358.91,4164.65 990,360"
         style="fill:none;stroke:#000000;stroke-width:4.5;stroke-linecap:butt;stroke-linejoin:miter;stroke-miterlimit:10;stroke-dasharray:none;stroke-opacity:1"
         id="path66"
         inkscape:connector-curvature="0" /><path
         d="m 5275.12,4516.99 73.79,7.66 -61.49,-41.52"
         style="fill:none;stroke:#000000;stroke-width:4.5;stroke-linecap:butt;stroke-linejoin:bevel;stroke-miterlimit:10;stroke-dasharray:none;stroke-opacity:1"
         id="path68"
         inkscape:connector-curvature="0" /><path
         d="m 4358.91,4155.67 -450,810 -135,-90 -135,-135 -45,-90 0,45 765,-540"
         style="fill:#ffffff;fill-opacity:1;fill-rule:nonzero;stroke:none"
         id="path70"
         inkscape:connector-curvature="0" /><path
         d="m 4358.91,4155.67 -450,810 -135,-90 -135,-135 -45,-90 0,45 765,-540"
         style="fill:none;stroke:#000000;stroke-width:4.5;stroke-linecap:butt;stroke-linejoin:miter;stroke-miterlimit:10;stroke-dasharray:none;stroke-opacity:1"
         id="path72"
         inkscape:connector-curvature="0" /><path
         d="m 4358.91,3885.67 0,1620"
         style="fill:none;stroke:#000000;stroke-width:9;stroke-linecap:butt;stroke-linejoin:miter;stroke-miterlimit:10;stroke-dasharray:none;stroke-opacity:1"
         id="path74"
         inkscape:connector-curvature="0" /><path
         d="m 4322.93,5361.68 35.98,143.99 36.01,-143.99"
         style="fill:none;stroke:#000000;stroke-width:9;stroke-linecap:butt;stroke-linejoin:bevel;stroke-miterlimit:10;stroke-dasharray:none;stroke-opacity:1"
         id="path76"
         inkscape:connector-curvature="0" /><path
         d="m 3503.91,2085.67 225,225 135,90 135,45 360,-990 -855,630"
         style="fill:#808080;fill-opacity:1;fill-rule:nonzero;stroke:none"
         id="path78"
         inkscape:connector-curvature="0" /><path
         d="m 3503.91,2085.67 225,225 135,90 135,45 360,-990 -855,630"
         style="fill:none;stroke:#000000;stroke-width:4.5;stroke-linecap:butt;stroke-linejoin:miter;stroke-miterlimit:10;stroke-dasharray:none;stroke-opacity:1"
         id="path80"
         inkscape:connector-curvature="0" /><path
         d="m 4178.91,4470.67 c 49.72,29.53 72.22,40.78 90,45 15.93,3.75 38.43,3.75 90,0"
         style="fill:none;stroke:#000000;stroke-width:9;stroke-linecap:butt;stroke-linejoin:miter;stroke-miterlimit:10;stroke-dasharray:none;stroke-opacity:1"
         id="path82"
         inkscape:connector-curvature="0" /><path
         d="m 4178.91,4290.67 c 43.71,57.65 66.21,80.15 90,90 16.83,6.95 39.33,6.95 90,0"
         style="fill:none;stroke:#000000;stroke-width:9;stroke-linecap:butt;stroke-linejoin:miter;stroke-miterlimit:10;stroke-dasharray:none;stroke-opacity:1"
         id="path84"
         inkscape:connector-curvature="0" /><g
         id="g86"
         transform="scale(10,10)"><text
           transform="matrix(1,0,0,-1,134.393,393.067)"
           style="font-variant:normal;font-size:27px;font-family:f-0;-inkscape-font-specification:f-0-0;writing-mode:lr-tb;fill:#000000;fill-opacity:1;fill-rule:nonzero;stroke:none"
           id="text88"><tspan
             x="0"
             y="0"
             id="tspan90">r</tspan><tspan
             x="-27 -18.009001 -2.7809999 10.719 328.50089 337.49191 352.71991 366.21991"
             y="-54"
             sodipodi:role="line"
             id="tspan92">r+drr+dr</tspan><tspan
             x="346.5"
             y="0"
             id="tspan94">r</tspan></text>
<text
           transform="matrix(1,0,0,-1,350.393,424.567)"
           style="font-variant:normal;font-size:27px;font-family:f-1;-inkscape-font-specification:f-1-1;writing-mode:lr-tb;fill:#000000;fill-opacity:1;fill-rule:nonzero;stroke:none"
           id="text96"><tspan
             x="0"
             y="0"
             id="tspan98">θ</tspan></text>
<text
           transform="matrix(1,0,0,-1,364.4602,424.567)"
           style="font-variant:normal;font-size:27px;font-family:f-1;-inkscape-font-specification:f-1-0;writing-mode:lr-tb;fill:#000000;fill-opacity:1;fill-rule:nonzero;stroke:none"
           id="text100"><tspan
             x="0"
             y="0"
             id="tspan102">+</tspan></text>
<text
           transform="matrix(1,0,0,-1,381.9024,424.567)"
           style="font-variant:normal;font-size:27px;font-family:f-0;-inkscape-font-specification:f-0-0;writing-mode:lr-tb;fill:#000000;fill-opacity:1;fill-rule:nonzero;stroke:none"
           id="text104"><tspan
             x="0"
             y="0"
             id="tspan106">d</tspan></text>
<text
           transform="matrix(1,0,0,-1,395.4024,424.567)"
           style="font-variant:normal;font-size:27px;font-family:f-1;-inkscape-font-specification:f-1-1;writing-mode:lr-tb;fill:#000000;fill-opacity:1;fill-rule:nonzero;stroke:none"
           id="text108"><tspan
             x="0"
             y="0"
             id="tspan110">θ</tspan><tspan
             x="22.490601"
             y="-31.5"
             id="tspan112">θ</tspan></text>
<text
           transform="matrix(1,0,0,-1,453.893,528.067)"
           style="font-variant:normal;font-size:27px;font-family:f-2;-inkscape-font-specification:f-2-0;writing-mode:lr-tb;fill:#000000;fill-opacity:1;fill-rule:nonzero;stroke:none"
           id="text114"><tspan
             x="0"
             y="0"
             id="tspan116">e</tspan></text>
<text
           transform="matrix(1,0,0,-1,-0.607,271.567)"
           style="font-variant:normal;font-size:40.5px;font-family:f-0;-inkscape-font-specification:f-0-0;writing-mode:lr-tb;fill:#000000;fill-opacity:1;fill-rule:nonzero;stroke:none"
           id="text118"><tspan
             x="0 324"
             y="0"
             sodipodi:role="line"
             id="tspan120">AB</tspan><tspan
             x="324 0"
             y="270"
             sodipodi:role="line"
             id="tspan122">DC</tspan></text>
</g></g></g></svg>