<?xml version="1.0" encoding="UTF-8" standalone="no"?>
<!-- Created with Inkscape (http://www.inkscape.org/) -->

<svg
   xmlns:dc="http://purl.org/dc/elements/1.1/"
   xmlns:cc="http://creativecommons.org/ns#"
   xmlns:rdf="http://www.w3.org/1999/02/22-rdf-syntax-ns#"
   xmlns:svg="http://www.w3.org/2000/svg"
   xmlns="http://www.w3.org/2000/svg"
   xmlns:sodipodi="http://sodipodi.sourceforge.net/DTD/sodipodi-0.dtd"
   xmlns:inkscape="http://www.inkscape.org/namespaces/inkscape"
   id="svg2"
   version="1.1"
   inkscape:version="0.91 r13725"
   xml:space="preserve"
   width="985"
   height="505"
   viewBox="0 0 985 505"
   sodipodi:docname="lincs.svg"><metadata
     id="metadata8"><rdf:RDF><cc:Work
         rdf:about=""><dc:format>image/svg+xml</dc:format><dc:type
           rdf:resource="http://purl.org/dc/dcmitype/StillImage" /><dc:title></dc:title></cc:Work></rdf:RDF></metadata><defs
     id="defs6"><clipPath
       clipPathUnits="userSpaceOnUse"
       id="clipPath28"><path
         d="m 1604.98,3840 c 0,-24.85 -20.15,-45 -45,-45 -24.85,0 -45,20.15 -45,45 0,24.86 20.15,45 45,45 24.85,0 45,-20.14 45,-45 z"
         id="path30"
         inkscape:connector-curvature="0"
         style="clip-rule:evenodd" /></clipPath><clipPath
       clipPathUnits="userSpaceOnUse"
       id="clipPath54"><path
         d="m 524.992,1320.03 c 0,-24.85 -20.148,-45 -45,-45 -24.851,0 -45,20.15 -45,45 0,24.85 20.149,45 45,45 24.852,0 45,-20.15 45,-45 z"
         id="path56"
         inkscape:connector-curvature="0"
         style="clip-rule:evenodd" /></clipPath><clipPath
       clipPathUnits="userSpaceOnUse"
       id="clipPath76"><path
         d="m 3404.96,1680.02 c 0,-24.85 -20.14,-44.99 -45,-44.99 -24.85,0 -45,20.14 -45,44.99 0,24.86 20.15,45 45,45 24.86,0 45,-20.14 45,-45 z"
         id="path78"
         inkscape:connector-curvature="0"
         style="clip-rule:evenodd" /></clipPath><clipPath
       clipPathUnits="userSpaceOnUse"
       id="clipPath98"><path
         d="m 4484.95,3480.01 c 0,-24.85 -20.15,-45 -45,-45 -24.85,0 -45,20.15 -45,45 0,24.85 20.15,45 45,45 24.85,0 45,-20.15 45,-45 z"
         id="path100"
         inkscape:connector-curvature="0"
         style="clip-rule:evenodd" /></clipPath><clipPath
       clipPathUnits="userSpaceOnUse"
       id="clipPath132"><path
         d="m 6284.93,1860.02 c 0,-24.85 -20.14,-45 -45,-45 -24.85,0 -44.99,20.15 -44.99,45 0,24.86 20.14,45 44.99,45 24.86,0 45,-20.14 45,-45 z"
         id="path134"
         inkscape:connector-curvature="0"
         style="clip-rule:evenodd" /></clipPath><clipPath
       clipPathUnits="userSpaceOnUse"
       id="clipPath158"><path
         d="m 7364.93,3300.01 c 0,-24.85 -20.15,-45 -45,-45 -24.86,0 -45,20.15 -45,45 0,24.85 20.14,45 45,45 24.85,0 45,-20.15 45,-45 z"
         id="path160"
         inkscape:connector-curvature="0"
         style="clip-rule:evenodd" /></clipPath><clipPath
       clipPathUnits="userSpaceOnUse"
       id="clipPath194"><path
         d="m 5024.95,510.035 360,0"
         id="path196"
         inkscape:connector-curvature="0"
         style="clip-rule:evenodd" /></clipPath><clipPath
       clipPathUnits="userSpaceOnUse"
       id="clipPath218"><path
         d="m 2144.98,510.035 359.99,0"
         id="path220"
         inkscape:connector-curvature="0"
         style="clip-rule:evenodd" /></clipPath><clipPath
       clipPathUnits="userSpaceOnUse"
       id="clipPath242"><path
         d="M 1469.98,4020 749.988,3660"
         id="path244"
         inkscape:connector-curvature="0"
         style="clip-rule:evenodd" /></clipPath></defs><sodipodi:namedview
     pagecolor="#ffffff"
     bordercolor="#666666"
     borderopacity="1"
     objecttolerance="10"
     gridtolerance="10"
     guidetolerance="10"
     inkscape:pageopacity="0"
     inkscape:pageshadow="2"
     inkscape:window-width="760"
     inkscape:window-height="480"
     id="namedview4"
     showgrid="false"
     inkscape:zoom="0.37461929"
     inkscape:cx="492.5"
     inkscape:cy="252.5"
     inkscape:window-x="0"
     inkscape:window-y="25"
     inkscape:window-maximized="0"
     inkscape:current-layer="g10" /><g
     id="g10"
     inkscape:groupmode="layer"
     inkscape:label="ink_ext_XXXXXX"
     transform="matrix(1.25,0,0,-1.25,0,505)"><g
       id="g12"
       transform="scale(0.1,0.1)"><path
         d="m 3719.98,2998.82 c 10.54,0.47 21.11,0.71 31.67,0.71 121.33,0 240.61,-31.25 346.35,-90.74"
         style="fill:none;stroke:#000000;stroke-width:8.99991035;stroke-linecap:butt;stroke-linejoin:miter;stroke-miterlimit:10;stroke-dasharray:none;stroke-opacity:1"
         id="path14"
         inkscape:connector-curvature="0" /><path
         d="m 884.988,1680.02 c 0,-24.85 -20.148,-44.99 -45,-44.99 -24.851,0 -45,20.14 -45,44.99 0,24.86 20.149,45 45,45 24.852,0 45,-20.14 45,-45"
         style="fill:#ffffff;fill-opacity:1;fill-rule:evenodd;stroke:none"
         id="path16"
         inkscape:connector-curvature="0" /><path
         d="m 884.988,1680.02 c 0,-24.85 -20.148,-44.99 -45,-44.99 -24.851,0 -45,20.14 -45,44.99 0,24.86 20.149,45 45,45 24.852,0 45,-20.14 45,-45 z"
         style="fill:none;stroke:#000000;stroke-width:8.99991035;stroke-linecap:butt;stroke-linejoin:miter;stroke-miterlimit:10;stroke-dasharray:none;stroke-opacity:1"
         id="path18"
         inkscape:connector-curvature="0" /><path
         d="m 884.988,3480.01 c 0,-24.85 -20.148,-45 -45,-45 -24.851,0 -45,20.15 -45,45 0,24.85 20.149,45 45,45 24.852,0 45,-20.15 45,-45"
         style="fill:#ffffff;fill-opacity:1;fill-rule:evenodd;stroke:none"
         id="path20"
         inkscape:connector-curvature="0" /><path
         d="m 884.988,3480.01 c 0,-24.85 -20.148,-45 -45,-45 -24.851,0 -45,20.15 -45,45 0,24.85 20.149,45 45,45 24.852,0 45,-20.15 45,-45 z"
         style="fill:none;stroke:#000000;stroke-width:8.99991035;stroke-linecap:butt;stroke-linejoin:miter;stroke-miterlimit:10;stroke-dasharray:none;stroke-opacity:1"
         id="path22"
         inkscape:connector-curvature="0" /><g
         id="g24"><g
           id="g26"
           clip-path="url(#clipPath28)"><g
             id="g32"
             transform="scale(10,10)"><text
               transform="matrix(1,0,0,-0.5,151.498,374.1)"
               style="font-variant:normal;font-weight:normal;font-size:14.39999962px;font-family:Arial;-inkscape-font-specification:Arial;writing-mode:lr-tb;fill:#000000;fill-opacity:1;fill-rule:nonzero;stroke:none"
               id="text34"><tspan
                 x="0"
                 y="0"
                 id="tspan36">0</tspan><tspan
                 x="0"
                 y="-14.4"
                 id="tspan38">0</tspan><tspan
                 x="0"
                 y="-28.799999"
                 id="tspan40">0</tspan><tspan
                 x="0"
                 y="0"
                 id="tspan42">1</tspan><tspan
                 x="0"
                 y="-14.4"
                 id="tspan44">1</tspan><tspan
                 x="0"
                 y="-28.799999"
                 id="tspan46">1</tspan></text>
</g></g></g><path
         d="m 1604.98,3840 c 0,-24.85 -20.15,-45 -45,-45 -24.85,0 -45,20.15 -45,45 0,24.86 20.15,45 45,45 24.85,0 45,-20.14 45,-45 z"
         style="fill:none;stroke:#000000;stroke-width:8.99991035;stroke-linecap:butt;stroke-linejoin:miter;stroke-miterlimit:10;stroke-dasharray:none;stroke-opacity:1"
         id="path48"
         inkscape:connector-curvature="0" /><g
         id="g50"><g
           id="g52"
           clip-path="url(#clipPath54)"><g
             id="g58"
             transform="scale(10,10)"><text
               transform="matrix(1,0,0,-0.5,29.0992,122.103)"
               style="font-variant:normal;font-weight:normal;font-size:14.39999962px;font-family:Arial;-inkscape-font-specification:Arial;writing-mode:lr-tb;fill:#000000;fill-opacity:1;fill-rule:nonzero;stroke:none"
               id="text60"><tspan
                 x="0 14.4"
                 y="0"
                 sodipodi:role="line"
                 id="tspan62">00</tspan><tspan
                 x="0 14.4"
                 y="-14.4"
                 sodipodi:role="line"
                 id="tspan64">00</tspan><tspan
                 x="0 14.4"
                 y="0"
                 sodipodi:role="line"
                 id="tspan66">11</tspan><tspan
                 x="0 14.4"
                 y="-14.4"
                 sodipodi:role="line"
                 id="tspan68">11</tspan></text>
</g></g></g><path
         d="m 524.992,1320.03 c 0,-24.85 -20.148,-45 -45,-45 -24.851,0 -45,20.15 -45,45 0,24.85 20.149,45 45,45 24.852,0 45,-20.15 45,-45 z"
         style="fill:none;stroke:#000000;stroke-width:8.99991035;stroke-linecap:butt;stroke-linejoin:miter;stroke-miterlimit:10;stroke-dasharray:none;stroke-opacity:1"
         id="path70"
         inkscape:connector-curvature="0" /><g
         id="g72"><g
           id="g74"
           clip-path="url(#clipPath76)"><g
             id="g80"
             transform="scale(10,10)"><text
               transform="matrix(1,0,0,-0.5,331.496,158.102)"
               style="font-variant:normal;font-weight:normal;font-size:14.39999962px;font-family:Arial;-inkscape-font-specification:Arial;writing-mode:lr-tb;fill:#000000;fill-opacity:1;fill-rule:nonzero;stroke:none"
               id="text82"><tspan
                 x="0"
                 y="0"
                 id="tspan84">0</tspan><tspan
                 x="0"
                 y="-14.4"
                 id="tspan86">0</tspan><tspan
                 x="0"
                 y="0"
                 id="tspan88">1</tspan><tspan
                 x="0"
                 y="-14.4"
                 id="tspan90">1</tspan></text>
</g></g></g><path
         d="m 3404.96,1680.02 c 0,-24.85 -20.14,-44.99 -45,-44.99 -24.85,0 -45,20.14 -45,44.99 0,24.86 20.15,45 45,45 24.86,0 45,-20.14 45,-45 z"
         style="fill:none;stroke:#000000;stroke-width:8.99991035;stroke-linecap:butt;stroke-linejoin:miter;stroke-miterlimit:10;stroke-dasharray:none;stroke-opacity:1"
         id="path92"
         inkscape:connector-curvature="0" /><g
         id="g94"><g
           id="g96"
           clip-path="url(#clipPath98)"><g
             id="g102"
             transform="scale(10,10)"><text
               transform="matrix(1,0,0,-0.5,425.095,338.101)"
               style="font-variant:normal;font-weight:normal;font-size:14.39999962px;font-family:Arial;-inkscape-font-specification:Arial;writing-mode:lr-tb;fill:#000000;fill-opacity:1;fill-rule:nonzero;stroke:none"
               id="text104"><tspan
                 x="0 14.4"
                 y="0"
                 sodipodi:role="line"
                 id="tspan106">00</tspan><tspan
                 x="0 14.4"
                 y="-14.4"
                 sodipodi:role="line"
                 id="tspan108">00</tspan><tspan
                 x="0 14.4"
                 y="-28.799999"
                 sodipodi:role="line"
                 id="tspan110">00</tspan><tspan
                 x="0 14.4"
                 y="0"
                 sodipodi:role="line"
                 id="tspan112">11</tspan><tspan
                 x="0 14.4"
                 y="-14.4"
                 sodipodi:role="line"
                 id="tspan114">11</tspan><tspan
                 x="0 14.4"
                 y="-28.799999"
                 sodipodi:role="line"
                 id="tspan116">11</tspan></text>
</g></g></g><path
         d="m 4484.95,3480.01 c 0,-24.85 -20.15,-45 -45,-45 -24.85,0 -45,20.15 -45,45 0,24.85 20.15,45 45,45 24.85,0 45,-20.15 45,-45 z"
         style="fill:none;stroke:#000000;stroke-width:8.99991035;stroke-linecap:butt;stroke-linejoin:miter;stroke-miterlimit:10;stroke-dasharray:none;stroke-opacity:1"
         id="path118"
         inkscape:connector-curvature="0" /><path
         d="m 4484.95,3840 c 0,-24.85 -20.15,-45 -45,-45 -24.85,0 -45,20.15 -45,45 0,24.86 20.15,45 45,45 24.85,0 45,-20.14 45,-45"
         style="fill:#ffffff;fill-opacity:1;fill-rule:evenodd;stroke:none"
         id="path120"
         inkscape:connector-curvature="0" /><path
         d="m 4484.95,3840 c 0,-24.85 -20.15,-45 -45,-45 -24.85,0 -45,20.15 -45,45 0,24.86 20.15,45 45,45 24.85,0 45,-20.14 45,-45 z"
         style="fill:none;stroke:#000000;stroke-width:8.99991035;stroke-linecap:butt;stroke-linejoin:miter;stroke-miterlimit:10;stroke-dasharray:none;stroke-opacity:1"
         id="path122"
         inkscape:connector-curvature="0" /><path
         d="m 3404.96,1320.03 c 0,-24.85 -20.14,-45 -45,-45 -24.85,0 -45,20.15 -45,45 0,24.85 20.15,45 45,45 24.86,0 45,-20.15 45,-45"
         style="fill:#ffffff;fill-opacity:1;fill-rule:evenodd;stroke:none"
         id="path124"
         inkscape:connector-curvature="0" /><path
         d="m 3404.96,1320.03 c 0,-24.85 -20.14,-45 -45,-45 -24.85,0 -45,20.15 -45,45 0,24.85 20.15,45 45,45 24.86,0 45,-20.15 45,-45 z"
         style="fill:none;stroke:#000000;stroke-width:8.99991035;stroke-linecap:butt;stroke-linejoin:miter;stroke-miterlimit:10;stroke-dasharray:none;stroke-opacity:1"
         id="path126"
         inkscape:connector-curvature="0" /><g
         id="g128"><g
           id="g130"
           clip-path="url(#clipPath132)"><g
             id="g136"
             transform="scale(10,10)"><text
               transform="matrix(1,0,0,-0.5,619.494,176.102)"
               style="font-variant:normal;font-weight:normal;font-size:14.39999962px;font-family:Arial;-inkscape-font-specification:Arial;writing-mode:lr-tb;fill:#000000;fill-opacity:1;fill-rule:nonzero;stroke:none"
               id="text138"><tspan
                 x="0"
                 y="0"
                 id="tspan140">0</tspan><tspan
                 x="0"
                 y="-14.4"
                 id="tspan142">0</tspan><tspan
                 x="0"
                 y="-28.799999"
                 id="tspan144">0</tspan><tspan
                 x="0"
                 y="0"
                 id="tspan146">1</tspan><tspan
                 x="0"
                 y="-14.4"
                 id="tspan148">1</tspan><tspan
                 x="0"
                 y="-28.799999"
                 id="tspan150">1</tspan></text>
</g></g></g><path
         d="m 6284.93,1860.02 c 0,-24.85 -20.14,-45 -45,-45 -24.85,0 -44.99,20.15 -44.99,45 0,24.86 20.14,45 44.99,45 24.86,0 45,-20.14 45,-45 z"
         style="fill:none;stroke:#000000;stroke-width:8.99991035;stroke-linecap:butt;stroke-linejoin:miter;stroke-miterlimit:10;stroke-dasharray:none;stroke-opacity:1"
         id="path152"
         inkscape:connector-curvature="0" /><g
         id="g154"><g
           id="g156"
           clip-path="url(#clipPath158)"><g
             id="g162"
             transform="scale(10,10)"><text
               transform="matrix(1,0,0,-0.5,727.493,320.101)"
               style="font-variant:normal;font-weight:normal;font-size:14.39999962px;font-family:Arial;-inkscape-font-specification:Arial;writing-mode:lr-tb;fill:#000000;fill-opacity:1;fill-rule:nonzero;stroke:none"
               id="text164"><tspan
                 x="0"
                 y="0"
                 id="tspan166">0</tspan><tspan
                 x="0"
                 y="-14.4"
                 id="tspan168">0</tspan><tspan
                 x="0"
                 y="0"
                 id="tspan170">1</tspan><tspan
                 x="0"
                 y="-14.4"
                 id="tspan172">1</tspan></text>
</g></g></g><path
         d="m 7364.93,3300.01 c 0,-24.85 -20.15,-45 -45,-45 -24.86,0 -45,20.15 -45,45 0,24.85 20.14,45 45,45 24.85,0 45,-20.15 45,-45 z"
         style="fill:none;stroke:#000000;stroke-width:8.99991035;stroke-linecap:butt;stroke-linejoin:miter;stroke-miterlimit:10;stroke-dasharray:none;stroke-opacity:1"
         id="path174"
         inkscape:connector-curvature="0" /><path
         d="m 7364.93,3480.01 c 0,-24.85 -20.15,-45 -45,-45 -24.86,0 -45,20.15 -45,45 0,24.85 20.14,45 45,45 24.85,0 45,-20.15 45,-45"
         style="fill:#ffffff;fill-opacity:1;fill-rule:evenodd;stroke:none"
         id="path176"
         inkscape:connector-curvature="0" /><path
         d="m 7364.93,3480.01 c 0,-24.85 -20.15,-45 -45,-45 -24.86,0 -45,20.15 -45,45 0,24.85 20.14,45 45,45 24.85,0 45,-20.15 45,-45 z"
         style="fill:none;stroke:#000000;stroke-width:8.99991035;stroke-linecap:butt;stroke-linejoin:miter;stroke-miterlimit:10;stroke-dasharray:none;stroke-opacity:1"
         id="path178"
         inkscape:connector-curvature="0" /><path
         d="m 6284.93,1680.02 c 0,-24.85 -20.14,-44.99 -45,-44.99 -24.85,0 -44.99,20.14 -44.99,44.99 0,24.86 20.14,45 44.99,45 24.86,0 45,-20.14 45,-45"
         style="fill:#ffffff;fill-opacity:1;fill-rule:evenodd;stroke:none"
         id="path180"
         inkscape:connector-curvature="0" /><path
         d="m 6284.93,1680.02 c 0,-24.85 -20.14,-44.99 -45,-44.99 -24.85,0 -44.99,20.14 -44.99,44.99 0,24.86 20.14,45 44.99,45 24.86,0 45,-20.14 45,-45 z"
         style="fill:none;stroke:#000000;stroke-width:8.99991035;stroke-linecap:butt;stroke-linejoin:miter;stroke-miterlimit:10;stroke-dasharray:none;stroke-opacity:1"
         id="path182"
         inkscape:connector-curvature="0" /><path
         d="m 839.988,1680.02 0,1799.99"
         style="fill:none;stroke:#000000;stroke-width:8.99991035;stroke-linecap:butt;stroke-linejoin:miter;stroke-miterlimit:10;stroke-dasharray:59.9994;stroke-dashoffset:0;stroke-opacity:1"
         id="path184"
         inkscape:connector-curvature="0" /><path
         d="m 3719.96,1680.02 0,1799.99"
         style="fill:none;stroke:#000000;stroke-width:8.99991035;stroke-linecap:butt;stroke-linejoin:miter;stroke-miterlimit:10;stroke-dasharray:59.9994;stroke-dashoffset:0;stroke-opacity:1"
         id="path186"
         inkscape:connector-curvature="0" /><path
         d="m 6599.93,1680.02 0,1799.99"
         style="fill:none;stroke:#000000;stroke-width:8.99991035;stroke-linecap:butt;stroke-linejoin:miter;stroke-miterlimit:10;stroke-dasharray:59.9994;stroke-dashoffset:0;stroke-opacity:1"
         id="path188"
         inkscape:connector-curvature="0" /><g
         id="g190"><g
           id="g192"
           clip-path="url(#clipPath194)"><g
             id="g198"
             transform="scale(10,10)"><text
               transform="matrix(1,0,0,-0.5,502.495,43.8035)"
               style="font-variant:normal;font-weight:normal;font-size:14.39999962px;font-family:Arial;-inkscape-font-specification:Arial;writing-mode:lr-tb;fill:#ffffff;fill-opacity:1;fill-rule:nonzero;stroke:none"
               id="text200"><tspan
                 x="0 14.4 28.799999"
                 y="0"
                 sodipodi:role="line"
                 id="tspan202">000</tspan></text>
</g><g
             id="g204"
             transform="scale(10,10)"><text
               transform="matrix(1,0,0,-0.5,502.495,43.8035)"
               style="font-variant:normal;font-weight:normal;font-size:14.39999962px;font-family:Arial;-inkscape-font-specification:Arial;writing-mode:lr-tb;fill:#000000;fill-opacity:1;fill-rule:nonzero;stroke:none"
               id="text206"><tspan
                 x="0 14.4 28.799999"
                 y="0"
                 sodipodi:role="line"
                 id="tspan208">111</tspan></text>
</g></g></g><path
         d="m 5024.95,510.035 360,0"
         style="fill:none;stroke:#000000;stroke-width:8.99991035;stroke-linecap:butt;stroke-linejoin:miter;stroke-miterlimit:10;stroke-dasharray:none;stroke-opacity:1"
         id="path210"
         inkscape:connector-curvature="0" /><path
         d="m 5240.95,546.035 144,-36 -144,-35.996"
         style="fill:none;stroke:#000000;stroke-width:8.99991035;stroke-linecap:butt;stroke-linejoin:miter;stroke-miterlimit:10;stroke-dasharray:none;stroke-opacity:1"
         id="path212"
         inkscape:connector-curvature="0" /><g
         id="g214"><g
           id="g216"
           clip-path="url(#clipPath218)"><g
             id="g222"
             transform="scale(10,10)"><text
               transform="matrix(1,0,0,-0.5,214.498,43.8035)"
               style="font-variant:normal;font-weight:normal;font-size:14.39999962px;font-family:Arial;-inkscape-font-specification:Arial;writing-mode:lr-tb;fill:#ffffff;fill-opacity:1;fill-rule:nonzero;stroke:none"
               id="text224"><tspan
                 x="0 14.4 28.799999"
                 y="0"
                 sodipodi:role="line"
                 id="tspan226">000</tspan></text>
</g><g
             id="g228"
             transform="scale(10,10)"><text
               transform="matrix(1,0,0,-0.5,214.498,43.8035)"
               style="font-variant:normal;font-weight:normal;font-size:14.39999962px;font-family:Arial;-inkscape-font-specification:Arial;writing-mode:lr-tb;fill:#000000;fill-opacity:1;fill-rule:nonzero;stroke:none"
               id="text230"><tspan
                 x="0 14.4 28.799999"
                 y="0"
                 sodipodi:role="line"
                 id="tspan232">111</tspan></text>
</g></g></g><path
         d="m 2144.98,510.035 359.99,0"
         style="fill:none;stroke:#000000;stroke-width:8.99991035;stroke-linecap:butt;stroke-linejoin:miter;stroke-miterlimit:10;stroke-dasharray:none;stroke-opacity:1"
         id="path234"
         inkscape:connector-curvature="0" /><path
         d="m 2360.97,546.035 144,-36 -144,-35.996"
         style="fill:none;stroke:#000000;stroke-width:8.99991035;stroke-linecap:butt;stroke-linejoin:miter;stroke-miterlimit:10;stroke-dasharray:none;stroke-opacity:1"
         id="path236"
         inkscape:connector-curvature="0" /><g
         id="g238"><g
           id="g240"
           clip-path="url(#clipPath242)"><g
             id="g246"
             transform="scale(10,10)"><text
               transform="matrix(1,0,0,-0.5,60.5988,366)"
               style="font-variant:normal;font-weight:normal;font-size:14.39999962px;font-family:Arial;-inkscape-font-specification:Arial;writing-mode:lr-tb;fill:#ffffff;fill-opacity:1;fill-rule:nonzero;stroke:none"
               id="text248"><tspan
                 x="0 14.4 28.799999 43.200001 57.599998 72"
                 y="0"
                 sodipodi:role="line"
                 id="tspan250">000000</tspan><tspan
                 x="0 14.4 28.799999 43.200001 57.599998 72"
                 y="-14.4"
                 sodipodi:role="line"
                 id="tspan252">000000</tspan><tspan
                 x="0 14.4 28.799999 43.200001 57.599998 72"
                 y="-28.799999"
                 sodipodi:role="line"
                 id="tspan254">000000</tspan><tspan
                 x="0 14.4 28.799999 43.200001 57.599998 72"
                 y="-43.200001"
                 sodipodi:role="line"
                 id="tspan256">000000</tspan><tspan
                 x="0 14.4 28.799999 43.200001 57.599998 72"
                 y="-57.599998"
                 sodipodi:role="line"
                 id="tspan258">000000</tspan></text>
</g><g
             id="g260"
             transform="scale(10,10)"><text
               transform="matrix(1,0,0,-0.5,60.5988,366)"
               style="font-variant:normal;font-weight:normal;font-size:14.39999962px;font-family:Arial;-inkscape-font-specification:Arial;writing-mode:lr-tb;fill:#000000;fill-opacity:1;fill-rule:nonzero;stroke:none"
               id="text262"><tspan
                 x="0 14.4 28.799999 43.200001 57.599998 72"
                 y="0"
                 sodipodi:role="line"
                 id="tspan264">111111</tspan><tspan
                 x="0 14.4 28.799999 43.200001 57.599998 72"
                 y="-14.4"
                 sodipodi:role="line"
                 id="tspan266">111111</tspan><tspan
                 x="0 14.4 28.799999 43.200001 57.599998 72"
                 y="-28.799999"
                 sodipodi:role="line"
                 id="tspan268">111111</tspan><tspan
                 x="0 14.4 28.799999 43.200001 57.599998 72"
                 y="-43.200001"
                 sodipodi:role="line"
                 id="tspan270">111111</tspan><tspan
                 x="0 14.4 28.799999 43.200001 57.599998 72"
                 y="-57.599998"
                 sodipodi:role="line"
                 id="tspan272">111111</tspan></text>
</g></g></g><path
         d="M 1469.98,4020 749.988,3660"
         style="fill:none;stroke:#000000;stroke-width:8.99991035;stroke-linecap:butt;stroke-linejoin:miter;stroke-miterlimit:10;stroke-dasharray:none;stroke-opacity:1"
         id="path274"
         inkscape:connector-curvature="0" /><path
         d="m 1299.33,3974.93 170.65,45.07 -138.45,-109.47 9.96,44.77 -42.16,19.63"
         style="fill:#000000;fill-opacity:1;fill-rule:evenodd;stroke:none"
         id="path276"
         inkscape:connector-curvature="0" /><path
         d="m 1299.33,3974.93 170.65,45.07 -138.45,-109.47 9.96,44.77 -42.16,19.63 z"
         style="fill:none;stroke:#000000;stroke-width:8.99991035;stroke-linecap:butt;stroke-linejoin:miter;stroke-miterlimit:10;stroke-dasharray:none;stroke-opacity:1"
         id="path278"
         inkscape:connector-curvature="0" /><path
         d="m 614.992,1185.03 359.996,360"
         style="fill:none;stroke:#000000;stroke-width:8.99991035;stroke-linecap:butt;stroke-linejoin:miter;stroke-miterlimit:10;stroke-dasharray:none;stroke-opacity:1"
         id="path280"
         inkscape:connector-curvature="0" /><path
         d="m 762.633,1281.76 -147.641,-96.73 96.731,147.64 5.394,-46.12 45.516,-4.79"
         style="fill:#000000;fill-opacity:1;fill-rule:evenodd;stroke:none"
         id="path282"
         inkscape:connector-curvature="0" /><path
         d="m 762.633,1281.76 -147.641,-96.73 96.731,147.64 5.394,-46.12 45.516,-4.79 z"
         style="fill:none;stroke:#000000;stroke-width:8.99991035;stroke-linecap:butt;stroke-linejoin:miter;stroke-miterlimit:10;stroke-dasharray:none;stroke-opacity:1"
         id="path284"
         inkscape:connector-curvature="0" /><path
         d="M 3359.96,1680.02 4439.95,3480.01"
         style="fill:none;stroke:#000000;stroke-width:8.99991035;stroke-linecap:butt;stroke-linejoin:miter;stroke-miterlimit:10;stroke-dasharray:none;stroke-opacity:1"
         id="path286"
         inkscape:connector-curvature="0" /><path
         d="m 3179.96,1320.03 0,359.99"
         style="fill:none;stroke:#000000;stroke-width:8.99991035;stroke-linecap:butt;stroke-linejoin:miter;stroke-miterlimit:10;stroke-dasharray:none;stroke-opacity:1"
         id="path288"
         inkscape:connector-curvature="0" /><path
         d="m 3143.96,1507.23 36,172.79 36,-172.79 -35.69,28.5 -36.31,-28.5"
         style="fill:#000000;fill-opacity:1;fill-rule:evenodd;stroke:none"
         id="path290"
         inkscape:connector-curvature="0" /><path
         d="m 3143.96,1507.23 36,172.79 36,-172.79 -35.69,28.5 -36.31,-28.5 z"
         style="fill:none;stroke:#000000;stroke-width:8.99991035;stroke-linecap:butt;stroke-linejoin:miter;stroke-miterlimit:10;stroke-dasharray:none;stroke-opacity:1"
         id="path292"
         inkscape:connector-curvature="0" /><path
         d="m 4619.95,3840 0,-359.99"
         style="fill:none;stroke:#000000;stroke-width:8.99991035;stroke-linecap:butt;stroke-linejoin:miter;stroke-miterlimit:10;stroke-dasharray:none;stroke-opacity:1"
         id="path294"
         inkscape:connector-curvature="0" /><path
         d="m 4655.95,3652.8 -36,-172.79 -36,172.79 36.3,-29.09 35.7,29.09"
         style="fill:#000000;fill-opacity:1;fill-rule:evenodd;stroke:none"
         id="path296"
         inkscape:connector-curvature="0" /><path
         d="m 4655.95,3652.8 -36,-172.79 -36,172.79 36.3,-29.09 35.7,29.09 z"
         style="fill:none;stroke:#000000;stroke-width:8.99991035;stroke-linecap:butt;stroke-linejoin:miter;stroke-miterlimit:10;stroke-dasharray:none;stroke-opacity:1"
         id="path298"
         inkscape:connector-curvature="0" /><path
         d="m 6239.93,1860.02 1080,1439.99"
         style="fill:none;stroke:#000000;stroke-width:8.99991035;stroke-linecap:butt;stroke-linejoin:miter;stroke-miterlimit:10;stroke-dasharray:none;stroke-opacity:1"
         id="path300"
         inkscape:connector-curvature="0" /><path
         d="m 7499.92,3480.01 0,-180"
         style="fill:none;stroke:#000000;stroke-width:8.99991035;stroke-linecap:butt;stroke-linejoin:miter;stroke-miterlimit:10;stroke-dasharray:none;stroke-opacity:1"
         id="path302"
         inkscape:connector-curvature="0" /><path
         d="m 7535.92,3472.81 -36,-172.8 -36,172.8 36.3,-29.1 35.7,29.1"
         style="fill:#000000;fill-opacity:1;fill-rule:evenodd;stroke:none"
         id="path304"
         inkscape:connector-curvature="0" /><path
         d="m 7535.92,3472.81 -36,-172.8 -36,172.8 36.3,-29.1 35.7,29.1 z"
         style="fill:none;stroke:#000000;stroke-width:8.99991035;stroke-linecap:butt;stroke-linejoin:miter;stroke-miterlimit:10;stroke-dasharray:none;stroke-opacity:1"
         id="path306"
         inkscape:connector-curvature="0" /><path
         d="m 6059.94,1680.02 0,180"
         style="fill:none;stroke:#000000;stroke-width:8.99991035;stroke-linecap:butt;stroke-linejoin:miter;stroke-miterlimit:10;stroke-dasharray:none;stroke-opacity:1"
         id="path308"
         inkscape:connector-curvature="0" /><path
         d="m 6023.94,1687.23 36,172.79 36,-172.79 -35.7,28.5 -36.3,-28.5"
         style="fill:#000000;fill-opacity:1;fill-rule:evenodd;stroke:none"
         id="path310"
         inkscape:connector-curvature="0" /><path
         d="m 6023.94,1687.23 36,172.79 36,-172.79 -35.7,28.5 -36.3,-28.5 z"
         style="fill:none;stroke:#000000;stroke-width:8.99991035;stroke-linecap:butt;stroke-linejoin:miter;stroke-miterlimit:10;stroke-dasharray:none;stroke-opacity:1"
         id="path312"
         inkscape:connector-curvature="0" /><path
         d="M 479.992,1320.03 1559.98,3840"
         style="fill:none;stroke:#000000;stroke-width:8.99991035;stroke-linecap:butt;stroke-linejoin:miter;stroke-miterlimit:10;stroke-dasharray:none;stroke-opacity:1"
         id="path314"
         inkscape:connector-curvature="0" /><path
         d="m 839.988,3480.01 1079.992,0"
         style="fill:none;stroke:#000000;stroke-width:8.99991035;stroke-linecap:butt;stroke-linejoin:miter;stroke-miterlimit:10;stroke-dasharray:0.599994, 44.9995;stroke-dashoffset:44.99950027;stroke-opacity:1"
         id="path316"
         inkscape:connector-curvature="0" /><path
         d="m 839.988,1680.02 1079.992,0"
         style="fill:none;stroke:#000000;stroke-width:8.99991035;stroke-linecap:butt;stroke-linejoin:miter;stroke-miterlimit:10;stroke-dasharray:0.599994, 44.9995;stroke-dashoffset:44.99950027;stroke-opacity:1"
         id="path318"
         inkscape:connector-curvature="0" /><path
         d="M 4439.95,3480.01 3539.96,4020"
         style="fill:none;stroke:#000000;stroke-width:8.99991035;stroke-linecap:butt;stroke-linejoin:miter;stroke-miterlimit:10;stroke-dasharray:0.599994, 44.9995;stroke-dashoffset:44.99950027;stroke-opacity:1"
         id="path320"
         inkscape:connector-curvature="0" /><path
         d="m 3359.96,1680.02 -899.99,540"
         style="fill:none;stroke:#000000;stroke-width:8.99991035;stroke-linecap:butt;stroke-linejoin:miter;stroke-miterlimit:10;stroke-dasharray:0.599994, 44.9995;stroke-dashoffset:44.99950027;stroke-opacity:1"
         id="path322"
         inkscape:connector-curvature="0" /><path
         d="m 6239.93,1860.02 -899.98,675"
         style="fill:none;stroke:#000000;stroke-width:8.99991035;stroke-linecap:butt;stroke-linejoin:miter;stroke-miterlimit:10;stroke-dasharray:0.599994, 44.9995;stroke-dashoffset:44.99950027;stroke-opacity:1"
         id="path324"
         inkscape:connector-curvature="0" /><path
         d="m 7319.93,3300.01 -900,674.99"
         style="fill:none;stroke:#000000;stroke-width:8.99991035;stroke-linecap:butt;stroke-linejoin:miter;stroke-miterlimit:10;stroke-dasharray:0.599994, 44.9995;stroke-dashoffset:44.99950027;stroke-opacity:1"
         id="path326"
         inkscape:connector-curvature="0" /><path
         d="m 6239.93,1860.02 1619.99,0"
         style="fill:none;stroke:#000000;stroke-width:8.99991035;stroke-linecap:butt;stroke-linejoin:miter;stroke-miterlimit:10;stroke-dasharray:0.599994, 44.9995;stroke-dashoffset:44.99950027;stroke-opacity:1"
         id="path328"
         inkscape:connector-curvature="0" /><path
         d="m 7364.93,3300.01 494.99,0"
         style="fill:none;stroke:#000000;stroke-width:8.99991035;stroke-linecap:butt;stroke-linejoin:miter;stroke-miterlimit:10;stroke-dasharray:0.599994, 44.9995;stroke-dashoffset:44.99950027;stroke-opacity:1"
         id="path330"
         inkscape:connector-curvature="0" /><path
         d="m 1739.98,3480.01 0,-719.99"
         style="fill:none;stroke:#000000;stroke-width:8.99991035;stroke-linecap:butt;stroke-linejoin:miter;stroke-miterlimit:10;stroke-dasharray:0.599994, 44.9995;stroke-dashoffset:44.99950027;stroke-opacity:1"
         id="path332"
         inkscape:connector-curvature="0" /><path
         d="m 1703.98,3336.01 36,144 36,-144"
         style="fill:none;stroke:#000000;stroke-width:8.99991035;stroke-linecap:butt;stroke-linejoin:miter;stroke-miterlimit:10;stroke-dasharray:none;stroke-opacity:1"
         id="path334"
         inkscape:connector-curvature="0" /><path
         d="m 1739.98,1680.02 0,720"
         style="fill:none;stroke:#000000;stroke-width:8.99991035;stroke-linecap:butt;stroke-linejoin:miter;stroke-miterlimit:10;stroke-dasharray:0.599994, 44.9995;stroke-dashoffset:44.99950027;stroke-opacity:1"
         id="path336"
         inkscape:connector-curvature="0" /><path
         d="m 1775.98,1824.02 -36,-144 -36,144"
         style="fill:none;stroke:#000000;stroke-width:8.99991035;stroke-linecap:butt;stroke-linejoin:miter;stroke-miterlimit:10;stroke-dasharray:none;stroke-opacity:1"
         id="path338"
         inkscape:connector-curvature="0" /><path
         d="m 2639.97,2130.02 450,720"
         style="fill:none;stroke:#000000;stroke-width:8.99991035;stroke-linecap:butt;stroke-linejoin:miter;stroke-miterlimit:10;stroke-dasharray:0.599994, 44.9995;stroke-dashoffset:44.99950027;stroke-opacity:1"
         id="path340"
         inkscape:connector-curvature="0" /><path
         d="m 2746.82,2233.05 -106.85,-103.03 45.79,141.19"
         style="fill:none;stroke:#000000;stroke-width:8.99991035;stroke-linecap:butt;stroke-linejoin:miter;stroke-miterlimit:10;stroke-dasharray:none;stroke-opacity:1"
         id="path342"
         inkscape:connector-curvature="0" /><path
         d="m 3719.96,3885 -405,-674.99"
         style="fill:none;stroke:#000000;stroke-width:8.99991035;stroke-linecap:butt;stroke-linejoin:miter;stroke-miterlimit:10;stroke-dasharray:0.599994, 44.9995;stroke-dashoffset:44.99950027;stroke-opacity:1"
         id="path344"
         inkscape:connector-curvature="0" /><path
         d="M 3615,3780.05 3719.96,3885 3676.74,3743"
         style="fill:none;stroke:#000000;stroke-width:8.99991035;stroke-linecap:butt;stroke-linejoin:miter;stroke-miterlimit:10;stroke-dasharray:none;stroke-opacity:1"
         id="path346"
         inkscape:connector-curvature="0" /><path
         d="m 5519.94,2400.02 405,539.99"
         style="fill:none;stroke:#000000;stroke-width:8.99991035;stroke-linecap:butt;stroke-linejoin:miter;stroke-miterlimit:10;stroke-dasharray:0.599994, 44.9995;stroke-dashoffset:44.99950027;stroke-opacity:1"
         id="path348"
         inkscape:connector-curvature="0" /><path
         d="m 5635.14,2493.62 -115.2,-93.6 57.6,136.8"
         style="fill:none;stroke:#000000;stroke-width:8.99991035;stroke-linecap:butt;stroke-linejoin:miter;stroke-miterlimit:10;stroke-dasharray:none;stroke-opacity:1"
         id="path350"
         inkscape:connector-curvature="0" /><path
         d="M 6599.93,3840 6194.94,3300.01"
         style="fill:none;stroke:#000000;stroke-width:8.99991035;stroke-linecap:butt;stroke-linejoin:miter;stroke-miterlimit:10;stroke-dasharray:0.599994, 44.9995;stroke-dashoffset:44.99950027;stroke-opacity:1"
         id="path352"
         inkscape:connector-curvature="0" /><path
         d="m 6484.73,3746.41 115.2,93.59 -57.6,-136.79"
         style="fill:none;stroke:#000000;stroke-width:8.99991035;stroke-linecap:butt;stroke-linejoin:miter;stroke-miterlimit:10;stroke-dasharray:none;stroke-opacity:1"
         id="path354"
         inkscape:connector-curvature="0" /><path
         d="m 7679.92,3300.01 0,-539.99"
         style="fill:none;stroke:#000000;stroke-width:8.99991035;stroke-linecap:butt;stroke-linejoin:miter;stroke-miterlimit:10;stroke-dasharray:0.599994, 44.9995;stroke-dashoffset:44.99950027;stroke-opacity:1"
         id="path356"
         inkscape:connector-curvature="0" /><path
         d="m 7643.92,3156.01 36,144 36,-144"
         style="fill:none;stroke:#000000;stroke-width:8.99991035;stroke-linecap:butt;stroke-linejoin:miter;stroke-miterlimit:10;stroke-dasharray:none;stroke-opacity:1"
         id="path358"
         inkscape:connector-curvature="0" /><path
         d="m 7679.92,1860.02 0,540"
         style="fill:none;stroke:#000000;stroke-width:8.99991035;stroke-linecap:butt;stroke-linejoin:miter;stroke-miterlimit:10;stroke-dasharray:0.599994, 44.9995;stroke-dashoffset:44.99950027;stroke-opacity:1"
         id="path360"
         inkscape:connector-curvature="0" /><path
         d="m 7715.92,2004.02 -36,-144 -36,144"
         style="fill:none;stroke:#000000;stroke-width:8.99991035;stroke-linecap:butt;stroke-linejoin:miter;stroke-miterlimit:10;stroke-dasharray:none;stroke-opacity:1"
         id="path362"
         inkscape:connector-curvature="0" /><path
         d="m 3404.96,1680.02 1574.99,0"
         style="fill:none;stroke:#000000;stroke-width:8.99991035;stroke-linecap:butt;stroke-linejoin:miter;stroke-miterlimit:10;stroke-dasharray:0.599994, 44.9995;stroke-dashoffset:44.99950027;stroke-opacity:1"
         id="path364"
         inkscape:connector-curvature="0" /><path
         d="m 4799.95,3480.01 0,-719.99"
         style="fill:none;stroke:#000000;stroke-width:8.99991035;stroke-linecap:butt;stroke-linejoin:miter;stroke-miterlimit:10;stroke-dasharray:0.599994, 44.9995;stroke-dashoffset:44.99950027;stroke-opacity:1"
         id="path366"
         inkscape:connector-curvature="0" /><path
         d="m 4763.95,3336.01 36,144 36,-144"
         style="fill:none;stroke:#000000;stroke-width:8.99991035;stroke-linecap:butt;stroke-linejoin:miter;stroke-miterlimit:10;stroke-dasharray:none;stroke-opacity:1"
         id="path368"
         inkscape:connector-curvature="0" /><path
         d="m 4799.95,1680.02 0,720"
         style="fill:none;stroke:#000000;stroke-width:8.99991035;stroke-linecap:butt;stroke-linejoin:miter;stroke-miterlimit:10;stroke-dasharray:0.599994, 44.9995;stroke-dashoffset:44.99950027;stroke-opacity:1"
         id="path370"
         inkscape:connector-curvature="0" /><path
         d="m 4835.95,1824.02 -36,-144 -36,144"
         style="fill:none;stroke:#000000;stroke-width:8.99991035;stroke-linecap:butt;stroke-linejoin:miter;stroke-miterlimit:10;stroke-dasharray:none;stroke-opacity:1"
         id="path372"
         inkscape:connector-curvature="0" /><path
         d="m 4439.95,3480.01 540,0"
         style="fill:none;stroke:#000000;stroke-width:8.99991035;stroke-linecap:butt;stroke-linejoin:miter;stroke-miterlimit:10;stroke-dasharray:0.599994, 44.9995;stroke-dashoffset:44.99950027;stroke-opacity:1"
         id="path374"
         inkscape:connector-curvature="0" /><g
         id="g376"
         transform="scale(10,10)"><text
           transform="matrix(1,0,0,-1,-0.792578,60.0035)"
           style="font-variant:normal;font-weight:normal;font-size:26.99970055px;font-family:Helvetica;-inkscape-font-specification:Helvetica;writing-mode:lr-tb;fill:#000000;fill-opacity:1;fill-rule:nonzero;stroke:none"
           id="text378"><tspan
             x="0 15.011833 30.023666 43.523518 58.535351 73.54718 87.047035 94.552948 103.54385 118.55568 124.54961 139.56145 154.57329"
             y="0"
             sodipodi:role="line"
             id="tspan380">unconstrained</tspan><tspan
             x="43.509399 58.521233 73.533066 88.544899 103.55673 111.06265"
             y="36"
             sodipodi:role="line"
             id="tspan382">update</tspan><tspan
             x="582.01538 595.51526 610.5271 619.51801 628.50891 643.52069 657.02057 664.52649 670.52045 685.53223 700.54407 708.04999 715.55591 730.56775"
             y="-18"
             sodipodi:role="line"
             id="tspan384">correction for</tspan><tspan
             x="605.26147 614.25238 629.26422 636.77014 651.78198 659.2879 665.28186 680.29364 695.30548 710.31732"
             y="18"
             sodipodi:role="line"
             id="tspan386">rotational</tspan><tspan
             x="590.99237 596.98633 611.99817 627.01001 642.02185 649.52777 664.53961 679.55139 694.56323 700.55719 715.56903"
             y="54"
             sodipodi:role="line"
             id="tspan388">lengthening</tspan><tspan
             x="291.7504 306.76224 315.75314 330.76495 336.75891 351.77072 365.27057 372.77649 378.77045 393.78226 408.7941 416.30002 431.31186 446.32367"
             y="-17.999201"
             sodipodi:role="line"
             id="tspan390">projecting out</tspan><tspan
             x="285.76993 293.27585 308.28769 317.27859 330.77844 345.79025 359.2901 366.79602 386.28983 401.30164 410.29254 423.79239 429.78632 444.79816"
             y="18.000799"
             sodipodi:role="line"
             id="tspan392">forces working</tspan><tspan
             x="276.72501 291.73685 297.73077 312.74261 327.75446 342.76627 350.27219 357.77811 372.78995 387.80179 395.30768 410.31952 425.33136 440.3432 455.35501"
             y="54.000801"
             sodipodi:role="line"
             id="tspan394">along the bonds</tspan></text>
<text
           transform="matrix(1,0,0,-1,389.99643,307.4997)"
           style="font-variant:normal;font-weight:normal;font-size:26.99970055px;font-family:Symbol;-inkscape-font-specification:Symbol;writing-mode:lr-tb;fill:#000000;fill-opacity:1;fill-rule:nonzero;stroke:none"
           id="text396"><tspan
             x="0"
             y="0"
             id="tspan398">θ</tspan></text>
<text
           transform="matrix(1,0,0,-1,169.49843,249.0001)"
           style="font-variant:normal;font-weight:normal;font-size:26.99970055px;font-family:Helvetica;-inkscape-font-specification:Helvetica;writing-mode:lr-tb;fill:#000000;fill-opacity:1;fill-rule:nonzero;stroke:none"
           id="text400"><tspan
             x="0"
             y="0"
             id="tspan402">d</tspan><tspan
             x="148.498"
             y="-45"
             id="tspan404">l</tspan><tspan
             x="431.995"
             y="-54"
             id="tspan406">d</tspan><tspan
             x="593.99298"
             y="-4.5004001"
             id="tspan408">p</tspan><tspan
             x="305.996"
             y="-0.00039999999"
             id="tspan410">d</tspan></text>
</g></g></g></svg>