<?xml version="1.0" encoding="UTF-8" standalone="no"?>
<!-- Created with Inkscape (http://www.inkscape.org/) -->

<svg
   xmlns:dc="http://purl.org/dc/elements/1.1/"
   xmlns:cc="http://creativecommons.org/ns#"
   xmlns:rdf="http://www.w3.org/1999/02/22-rdf-syntax-ns#"
   xmlns:svg="http://www.w3.org/2000/svg"
   xmlns="http://www.w3.org/2000/svg"
   xmlns:sodipodi="http://sodipodi.sourceforge.net/DTD/sodipodi-0.dtd"
   xmlns:inkscape="http://www.inkscape.org/namespaces/inkscape"
   id="svg2"
   version="1.1"
   inkscape:version="0.91 r13725"
   xml:space="preserve"
   width="989.98627"
   height="765"
   viewBox="0 0 989.98627 765"
   sodipodi:docname="maxwell.svg"><metadata
     id="metadata8"><rdf:RDF><cc:Work
         rdf:about=""><dc:format>image/svg+xml</dc:format><dc:type
           rdf:resource="http://purl.org/dc/dcmitype/StillImage" /><dc:title></dc:title></cc:Work></rdf:RDF></metadata><defs
     id="defs6" /><sodipodi:namedview
     pagecolor="#ffffff"
     bordercolor="#666666"
     borderopacity="1"
     objecttolerance="10"
     gridtolerance="10"
     guidetolerance="10"
     inkscape:pageopacity="0"
     inkscape:pageshadow="2"
     inkscape:window-width="760"
     inkscape:window-height="480"
     id="namedview4"
     showgrid="false"
     fit-margin-top="0"
     fit-margin-left="0"
     fit-margin-right="0"
     fit-margin-bottom="0"
     inkscape:zoom="0.22422803"
     inkscape:cx="371.875"
     inkscape:cy="526.25"
     inkscape:window-x="1096"
     inkscape:window-y="218"
     inkscape:window-maximized="0"
     inkscape:current-layer="g10" /><g
     id="g10"
     inkscape:groupmode="layer"
     inkscape:label="ink_ext_XXXXXX"
     transform="matrix(1.25,0,0,-1.25,0,765)"><g
       id="g12"
       transform="scale(0.1,0.1)"><path
         d="m 0,0 7919.89,0 0,6120 L 0,6120 0,0 Z"
         style="fill:#ffffff;fill-opacity:1;fill-rule:nonzero;stroke:none"
         id="path14"
         inkscape:connector-curvature="0" /><path
         d="m 306,613.836 33.66,7.344 33.66,7.957 33.66,28.761 33.661,11.629 33.66,24.481 33.66,40.39 33.66,14.079 33.66,75.886 33.66,52.633 33.661,65.484 33.66,44.676 33.66,91.804 33.656,51.4 33.66,68.55 33.66,91.8 33.661,94.25 33.66,36.72 33.051,123.01 33.66,111.99 33.66,94.86 33.66,78.34 33.66,69.77 33.66,130.97 33.66,67.32 33.66,181.15 33.66,100.98 33.66,55.08 33.66,156.06 33.66,31.82 33.66,116.9 33.66,79.55 33.66,104.66 33.66,105.26 33.66,133.42 33.66,59.36 33.66,71.61 33.66,135.86 33.66,55.08 33.66,121.79 33.66,-31.83 33.66,186.05 33.66,64.87 33.66,127.91 33.66,-47.13 33.66,192.79 33.66,-42.23 33.66,51.41 33.66,123.62 33.66,-20.19 33.66,-22.04 33.66,154.84 33.66,72.83 33.05,-90.58 33.66,63.65 33.65,-22.65 33.66,61.82 33.66,-78.95 33.66,25.7 33.66,48.96 33.67,-53.24 33.66,31.21 33.66,-118.73 33.66,108.33 33.66,-140.15 33.66,50.8 33.66,-43.46 33.66,-66.09 33.66,-5.51 33.66,-51.41 33.66,-41.62 33.66,27.54 33.66,-153.61 33.66,-56.3 33.66,-84.46 33.66,-35.49 33.66,-38.56 33.66,-60.59 33.66,-108.93 33.66,45.28 33.65,-138.92 33.66,-132.8 33.66,18.36 33.66,-147.5 33.66,-18.36 33.67,-59.97 33.66,-135.87 33.04,0.62 33.66,-86.3 33.66,-91.8 33.66,-50.79 33.66,-153.61 33.66,-28.77 33.66,-47.12 33.66,-85.07 33.66,-62.43 33.66,-132.8 33.66,46.52 33.66,-129.14 33.66,-26.31 33.66,-64.87 33.66,-91.81 33.66,-50.79 33.66,-58.75 33.66,-64.88 33.66,-44.06 33.67,-36.11 33.66,-28.15 33.66,-89.96 33.66,-53.86 33.66,13.46 33.66,-96.69 33.66,-66.1 33.65,-41 33.66,-29.99 33.66,-62.42 33.66,-26.32 33.66,-12.85 33.66,-40.39 33.66,-50.8 33.66,-15.3 33.66,-36.72 33.05,-22.03 33.66,-43.45 33.66,-22.65 33.66,-34.271 33.66,-13.461 33.66,-20.2 33.66,-12.238 33.66,-48.961 33.66,3.063 33.66,-42.231 33.66,-11.015 33.66,-14.688 33.66,-11.015 33.66,-8.571 33.66,-38.554 33.66,7.343 33.66,-25.09 33.66,-5.507 33.66,-18.364 33.66,-17.746 33.66,0 33.66,-2.449 33.66,-15.91 33.66,9.793 33.66,-15.914 33.66,-15.301 33.66,2.449 33.66,7.344 33.66,-23.258 33.66,-3.672 33.66,-1.222 33.66,-7.344 33.66,-1.223 33.66,0.61 33.05,-6.731 33.66,-1.223 33.66,-2.449 33.66,-11.015 33.66,6.73 33.66,-5.508 33.66,-3.058 33.66,-1.227 33.66,-1.836 33.66,-3.058 33.66,0 33.66,-6.122 33.66,4.286 33.66,1.222 33.66,-3.672 33.66,0 33.66,-6.73 33.66,3.672 33.66,0 33.66,-3.059 33.66,1.223 33.66,-0.613 33.66,0 33.66,1.226 33.66,-1.226 33.66,-1.223 33.66,-0.613 33.66,-0.61 33.66,1.836 33.66,-0.613 33.66,-0.613 33.66,1.226 33.66,-1.836 33.05,1.223 33.66,-1.223 33.66,1.223 33.66,-0.613 33.66,-1.223 33.66,1.223 33.66,-1.223 33.66,0.613 33.66,0.61 33.66,-0.61 33.66,-0.613 33.66,0"
         style="fill:none;stroke:#000000;stroke-width:18.36000061;stroke-linecap:butt;stroke-linejoin:miter;stroke-miterlimit:10;stroke-dasharray:none;stroke-opacity:1"
         id="path16"
         inkscape:connector-curvature="0" /><g
         id="g18"
         transform="scale(10,10)"><text
           transform="matrix(1,0,0,-1,352.145,36.5977)"
           style="font-variant:normal;font-weight:normal;font-size:25.33679962px;font-family:Helvetica;-inkscape-font-specification:Helvetica;writing-mode:lr-tb;fill:#000000;fill-opacity:1;fill-rule:nonzero;stroke:none"
           id="text20"><tspan
             x="0 16.899645 30.986906 36.611675 50.698936 63.367336 68.992104 76.035736"
             y="0"
             sodipodi:role="line"
             id="tspan22">Velocity</tspan></text>
</g><path
         d="m 306,612 7314.01,0 0,5202 -7314.01,0 0,-5202 z"
         style="fill:none;stroke:#000000;stroke-width:9.18000031;stroke-linecap:butt;stroke-linejoin:miter;stroke-miterlimit:10;stroke-dasharray:none;stroke-opacity:1"
         id="path24"
         inkscape:connector-curvature="0" /></g></g></svg>