<?xml version="1.0" encoding="UTF-8" standalone="no"?>
<!-- Created with Inkscape (http://www.inkscape.org/) -->

<svg
   xmlns:dc="http://purl.org/dc/elements/1.1/"
   xmlns:cc="http://creativecommons.org/ns#"
   xmlns:rdf="http://www.w3.org/1999/02/22-rdf-syntax-ns#"
   xmlns:svg="http://www.w3.org/2000/svg"
   xmlns="http://www.w3.org/2000/svg"
   xmlns:sodipodi="http://sodipodi.sourceforge.net/DTD/sodipodi-0.dtd"
   xmlns:inkscape="http://www.inkscape.org/namespaces/inkscape"
   id="svg2"
   version="1.1"
   inkscape:version="0.91 r13725"
   xml:space="preserve"
   width="782.5"
   height="257.5"
   viewBox="0 0 782.5 257.5"
   sodipodi:docname="mpmd-pme.svg"><metadata
     id="metadata8"><rdf:RDF><cc:Work
         rdf:about=""><dc:format>image/svg+xml</dc:format><dc:type
           rdf:resource="http://purl.org/dc/dcmitype/StillImage" /><dc:title></dc:title></cc:Work></rdf:RDF></metadata><defs
     id="defs6"><clipPath
       clipPathUnits="userSpaceOnUse"
       id="clipPath18"><path
         d="M 0,2060 0,0 l 6260,0 0,2060 -6260,0 z m 5829.36,-1879.34 157.47,90.074 -37.16,65.508 -158.11,-90.074 0,0 150.55,42.203 -112.75,-107.711 z m -1684.98,65.508 -158.11,90.074 -37.16,-65.508 157.47,-90.074 0,0 -112.12,107.711 149.92,-42.203 z"
         id="path20"
         inkscape:connector-curvature="0"
         style="clip-rule:evenodd" /></clipPath><clipPath
       clipPathUnits="userSpaceOnUse"
       id="clipPath32"><path
         d="M 0,2060 0,0 l 6260,0 0,2060 -6260,0 z m 5262.45,-1879.34 157.47,90.074 -37.16,65.508 -158.11,-90.074 0,0 150.55,42.203 -112.75,-107.711 z m -1684.99,65.508 -158.1,90.074 -37.16,-65.508 157.47,-90.074 0,0 -112.12,107.711 149.91,-42.203 z"
         id="path34"
         inkscape:connector-curvature="0"
         style="clip-rule:evenodd" /></clipPath><clipPath
       clipPathUnits="userSpaceOnUse"
       id="clipPath46"><path
         d="M 0,2060 0,0 l 6260,0 0,2060 -6260,0 z m 4695.54,-1879.34 157.47,90.074 -37.16,65.508 -158.11,-90.074 0,0 150.55,42.203 -112.75,-107.711 z m -1684.99,65.508 -158.1,90.074 -37.16,-65.508 157.47,-90.074 0,0 -112.12,107.711 149.91,-42.203 z"
         id="path48"
         inkscape:connector-curvature="0"
         style="clip-rule:evenodd" /></clipPath><clipPath
       clipPathUnits="userSpaceOnUse"
       id="clipPath60"><path
         d="M 0,2060 0,0 l 6260,0 0,2060 -6260,0 z m 4657.74,-574.82 158.11,-90.07 37.16,65.51 -157.47,90.07 0,0 112.75,-108.34 -150.55,42.83 z m -1684.98,65.51 -157.47,-90.07 37.16,-65.51 158.1,90.07 0,0 -149.91,-42.83 112.12,108.34 z"
         id="path62"
         inkscape:connector-curvature="0"
         style="clip-rule:evenodd" /></clipPath><clipPath
       clipPathUnits="userSpaceOnUse"
       id="clipPath74"><path
         d="M 0,2060 0,0 l 6260,0 0,2060 -6260,0 z m 5224.65,-574.82 158.11,-90.07 37.16,65.51 -157.47,90.07 0,0 112.75,-108.34 -150.55,42.83 z m -1684.98,65.51 -157.47,-90.07 37.16,-65.51 158.1,90.07 0,0 -149.91,-42.83 112.12,108.34 z"
         id="path76"
         inkscape:connector-curvature="0"
         style="clip-rule:evenodd" /></clipPath><clipPath
       clipPathUnits="userSpaceOnUse"
       id="clipPath88"><path
         d="M 0,2060 0,0 l 6260,0 0,2060 -6260,0 z m 5791.56,-574.82 158.11,-90.07 37.16,65.51 -157.47,90.07 0,0 112.75,-108.34 -150.55,42.83 z m -1684.98,65.51 -157.47,-90.07 37.16,-65.51 158.11,90.07 0,0 -149.92,-42.83 112.12,108.34 z"
         id="path90"
         inkscape:connector-curvature="0"
         style="clip-rule:evenodd" /></clipPath><clipPath
       clipPathUnits="userSpaceOnUse"
       id="clipPath112"><path
         d="M 0,2060 0,0 l 6260,0 0,2060 -6260,0 z m 244.031,-1083.148 0,181.408 -75.586,0 0,-181.408 0,0 37.793,151.178 37.793,-151.178 z m -75.586,-222.985 0,-181.41 75.586,0 0,181.41 0,0 -37.793,-151.176 -37.793,151.176 z"
         id="path114"
         inkscape:connector-curvature="0"
         style="clip-rule:evenodd" /></clipPath><clipPath
       clipPathUnits="userSpaceOnUse"
       id="clipPath126"><path
         d="M 0,2060 0,0 l 6260,0 0,2060 -6260,0 z m 459.457,-948.98 181.414,0 0,75.59 -181.414,0 0,0 151.176,-37.79 -151.176,-37.8 z m -81.254,75.59 -181.414,0 0,-75.59 181.414,0 0,0 -151.18,37.8 151.18,37.79 z"
         id="path128"
         inkscape:connector-curvature="0"
         style="clip-rule:evenodd" /></clipPath><clipPath
       clipPathUnits="userSpaceOnUse"
       id="clipPath140"><path
         d="M 0,2060 0,0 l 6260,0 0,2060 -6260,0 z m 884.641,-948.98 181.409,0 0,75.59 -181.409,0 0,0 151.179,-37.79 -151.179,-37.8 z m -81.258,75.59 -181.41,0 0,-75.59 181.41,0 0,0 -151.176,37.8 151.176,37.79 z"
         id="path142"
         inkscape:connector-curvature="0"
         style="clip-rule:evenodd" /></clipPath><clipPath
       clipPathUnits="userSpaceOnUse"
       id="clipPath154"><path
         d="M 0,2060 0,0 l 6260,0 0,2060 -6260,0 z m 1309.82,-948.98 181.41,0 0,75.59 -181.41,0 0,0 151.18,-37.79 -151.18,-37.8 z m -81.25,75.59 -181.41,0 0,-75.59 181.41,0 0,0 -151.18,37.8 151.18,37.79 z"
         id="path156"
         inkscape:connector-curvature="0"
         style="clip-rule:evenodd" /></clipPath><clipPath
       clipPathUnits="userSpaceOnUse"
       id="clipPath168"><path
         d="M 0,2060 0,0 l 6260,0 0,2060 -6260,0 z m 459.457,-1515.891 181.414,0 0,75.59 -181.414,0 0,0 151.176,-37.793 -151.176,-37.797 z m -81.254,75.59 -181.414,0 0,-75.59 181.414,0 0,0 -151.18,37.797 151.18,37.793 z"
         id="path170"
         inkscape:connector-curvature="0"
         style="clip-rule:evenodd" /></clipPath><clipPath
       clipPathUnits="userSpaceOnUse"
       id="clipPath182"><path
         d="M 0,2060 0,0 l 6260,0 0,2060 -6260,0 z m 884.641,-1515.891 181.409,0 0,75.59 -181.409,0 0,0 151.179,-37.793 -151.179,-37.797 z m -81.258,75.59 -181.41,0 0,-75.59 181.41,0 0,0 -151.176,37.797 151.176,37.793 z"
         id="path184"
         inkscape:connector-curvature="0"
         style="clip-rule:evenodd" /></clipPath><clipPath
       clipPathUnits="userSpaceOnUse"
       id="clipPath196"><path
         d="M 0,2060 0,0 l 6260,0 0,2060 -6260,0 z m 1309.82,-1515.891 181.41,0 0,75.59 -181.41,0 0,0 151.18,-37.793 -151.18,-37.797 z m -81.25,75.59 -181.41,0 0,-75.59 181.41,0 0,0 -151.18,37.797 151.18,37.793 z"
         id="path198"
         inkscape:connector-curvature="0"
         style="clip-rule:evenodd" /></clipPath><clipPath
       clipPathUnits="userSpaceOnUse"
       id="clipPath210"><path
         d="M 0,2060 0,0 l 6260,0 0,2060 -6260,0 z m 669.215,-1083.148 0,181.408 -75.586,0 0,-181.408 0,0 37.793,151.178 37.793,-151.178 z m -75.586,-222.985 0,-181.41 75.586,0 0,181.41 0,0 -37.793,-151.176 -37.793,151.176 z"
         id="path212"
         inkscape:connector-curvature="0"
         style="clip-rule:evenodd" /></clipPath><clipPath
       clipPathUnits="userSpaceOnUse"
       id="clipPath224"><path
         d="M 0,2060 0,0 l 6260,0 0,2060 -6260,0 z m 1094.4,-1083.148 0,181.408 -75.59,0 0,-181.408 0,0 37.8,151.178 37.79,-151.178 z m -75.59,-222.985 0,-181.41 75.59,0 0,181.41 0,0 -37.79,-151.176 -37.8,151.176 z"
         id="path226"
         inkscape:connector-curvature="0"
         style="clip-rule:evenodd" /></clipPath><clipPath
       clipPathUnits="userSpaceOnUse"
       id="clipPath238"><path
         d="M 0,2060 0,0 l 6260,0 0,2060 -6260,0 z m 1519.58,-1083.148 0,181.408 -75.59,0 0,-181.408 0,0 37.8,151.178 37.79,-151.178 z m -75.59,-222.985 0,-181.41 75.59,0 0,181.41 0,0 -37.79,-151.176 -37.8,151.176 z"
         id="path240"
         inkscape:connector-curvature="0"
         style="clip-rule:evenodd" /></clipPath><clipPath
       clipPathUnits="userSpaceOnUse"
       id="clipPath252"><path
         d="M 0,2060 0,0 6260,0 6260,2060 0,2060 Z M 497.883,696.547 606.855,551.668 l 60.469,45.355 -108.972,144.875 0,0 60.472,-143.617 -120.941,98.266 z m -158.106,337.623 -108.972,144.88 -60.469,-45.35 108.973,-144.88 0,0 -60.473,143.62 120.941,-98.27 z"
         id="path254"
         inkscape:connector-curvature="0"
         style="clip-rule:evenodd" /></clipPath><clipPath
       clipPathUnits="userSpaceOnUse"
       id="clipPath266"><path
         d="M 0,2060 0,0 6260,0 6260,2060 0,2060 Z M 923.066,696.547 1032.04,551.668 l 60.47,45.355 -108.975,144.875 0,0 L 1044,598.281 923.066,696.547 Z m -158.105,337.623 -108.973,144.88 -60.472,-45.35 108.972,-144.88 0,0 -60.468,143.62 120.941,-98.27 z"
         id="path268"
         inkscape:connector-curvature="0"
         style="clip-rule:evenodd" /></clipPath><clipPath
       clipPathUnits="userSpaceOnUse"
       id="clipPath280"><path
         d="M 0,2060 0,0 l 6260,0 0,2060 -6260,0 z m 1348.25,-1363.453 108.97,-144.879 60.47,45.355 -108.97,144.875 0,0 60.47,-143.617 -120.94,98.266 z m -158.11,337.623 -108.97,144.88 -60.47,-45.35 108.97,-144.88 0,0 -60.47,143.62 120.94,-98.27 z"
         id="path282"
         inkscape:connector-curvature="0"
         style="clip-rule:evenodd" /></clipPath><clipPath
       clipPathUnits="userSpaceOnUse"
       id="clipPath294"><path
         d="M 0,2060 0,0 l 6260,0 0,2060 -6260,0 z m 1408.72,-1071.18 108.97,144.88 -60.47,45.35 -108.97,-144.88 0,0 120.94,98.27 -60.47,-143.62 z M 1129.67,741.898 1020.7,597.023 l 60.47,-45.355 108.97,144.879 0,0 -120.94,-98.266 60.47,143.617 z"
         id="path296"
         inkscape:connector-curvature="0"
         style="clip-rule:evenodd" /></clipPath><clipPath
       clipPathUnits="userSpaceOnUse"
       id="clipPath308"><path
         d="M 0,2060 0,0 l 6260,0 0,2060 -6260,0 z m 983.535,-1071.18 108.975,144.88 -60.47,45.35 -108.974,-144.88 0,0 L 1044,1132.44 983.535,988.82 Z M 704.488,741.898 595.516,597.023 l 60.472,-45.355 108.973,144.879 0,0 -120.941,-98.266 60.468,143.617 z"
         id="path310"
         inkscape:connector-curvature="0"
         style="clip-rule:evenodd" /></clipPath><clipPath
       clipPathUnits="userSpaceOnUse"
       id="clipPath322"><path
         d="M 0,2060 0,0 l 6260,0 0,2060 -6260,0 z m 558.352,-1071.18 108.972,144.88 -60.469,45.35 -108.972,-144.88 0,0 120.941,98.27 -60.472,-143.62 z M 279.309,741.898 170.336,597.023 l 60.469,-45.355 108.972,144.879 0,0 -120.941,-98.266 60.473,143.617 z"
         id="path324"
         inkscape:connector-curvature="0"
         style="clip-rule:evenodd" /></clipPath><clipPath
       clipPathUnits="userSpaceOnUse"
       id="clipPath336"><path
         d="M 0,2060 0,0 6260,0 6260,2060 0,2060 Z M 892.199,646.156 1043.38,545.371 l 41.57,62.988 -151.177,100.786 0,0 105.187,-115.903 -146.761,52.914 z m -522.187,439.044 -151.176,100.78 -41.574,-62.99 151.176,-100.78 0,0 -104.563,115.27 146.137,-52.28 z"
         id="path338"
         inkscape:connector-curvature="0"
         style="clip-rule:evenodd" /></clipPath><clipPath
       clipPathUnits="userSpaceOnUse"
       id="clipPath350"><path
         d="M 0,2060 0,0 l 6260,0 0,2060 -6260,0 z m 933.773,-1037.79 151.177,100.78 -41.57,62.99 -151.181,-100.78 0,0 146.761,52.28 -105.187,-115.27 z M 328.438,709.145 177.262,608.359 l 41.574,-62.988 151.176,100.785 0,0 -146.137,-52.914 104.563,115.903 z"
         id="path352"
         inkscape:connector-curvature="0"
         style="clip-rule:evenodd" /></clipPath><clipPath
       clipPathUnits="userSpaceOnUse"
       id="clipPath364"><path
         d="M 0,2060 0,0 l 6260,0 0,2060 -6260,0 z m 1340.69,-1016.38 165.03,74.96 -31.49,68.66 -165.03,-74.96 0,0 153.69,27.72 -122.2,-96.38 z M 375.051,687.727 210.02,612.77 l 31.492,-68.661 165.035,74.961 0,0 -153.067,-28.347 121.571,97.004 z"
         id="path366"
         inkscape:connector-curvature="0"
         style="clip-rule:evenodd" /></clipPath><clipPath
       clipPathUnits="userSpaceOnUse"
       id="clipPath378"><path
         d="M 0,2060 0,0 l 6260,0 0,2060 -6260,0 z m 1309.2,-1440.93 165.03,-74.961 31.49,68.661 -165.03,74.957 0,0 122.2,-97.004 -153.69,28.347 z m -902.653,493.21 -165.035,74.96 -31.492,-68.66 165.031,-74.96 0,0 -121.571,96.38 153.067,-27.72 z"
         id="path380"
         inkscape:connector-curvature="0"
         style="clip-rule:evenodd" /></clipPath><clipPath
       clipPathUnits="userSpaceOnUse"
       id="clipPath392"><path
         d="M 0,2060 0,0 l 6260,0 0,2060 -6260,0 z m 795.195,-974.8 -151.175,100.78 -41.575,-62.99 151.176,-100.78 0,0 -104.562,115.27 146.136,-52.28 z m 522.185,-439.044 151.18,-100.785 41.57,62.988 -151.17,100.786 0,0 105.19,-115.903 -146.77,52.914 z"
         id="path394"
         inkscape:connector-curvature="0"
         style="clip-rule:evenodd" /></clipPath><clipPath
       clipPathUnits="userSpaceOnUse"
       id="clipPath406"><path
         d="M 0,2060 0,0 l 6260,0 0,2060 -6260,0 z m 1358.96,-1037.79 151.17,100.78 -41.57,62.99 -151.18,-100.78 0,0 146.77,52.28 -105.19,-115.27 z M 753.621,709.145 602.445,608.359 l 41.575,-62.988 151.175,100.785 0,0 -146.136,-52.914 104.562,115.903 z"
         id="path408"
         inkscape:connector-curvature="0"
         style="clip-rule:evenodd" /></clipPath><clipPath
       clipPathUnits="userSpaceOnUse"
       id="clipPath432"><path
         d="M 0,2060 0,0 l 6260,0 0,2060 -6260,0 z m 5355.67,-1306.133 0,-181.41 75.59,0 0,181.41 0,0 -37.8,-151.176 -37.79,151.176 z m 75.59,222.985 0,181.408 -75.59,0 0,-181.408 0,0 37.79,151.178 37.8,-151.178 z"
         id="path434"
         inkscape:connector-curvature="0"
         style="clip-rule:evenodd" /></clipPath></defs><sodipodi:namedview
     pagecolor="#ffffff"
     bordercolor="#666666"
     borderopacity="1"
     objecttolerance="10"
     gridtolerance="10"
     guidetolerance="10"
     inkscape:pageopacity="0"
     inkscape:pageshadow="2"
     inkscape:window-width="760"
     inkscape:window-height="480"
     id="namedview4"
     showgrid="false"
     inkscape:zoom="0.4715655"
     inkscape:cx="391.25"
     inkscape:cy="128.75"
     inkscape:window-x="0"
     inkscape:window-y="25"
     inkscape:window-maximized="0"
     inkscape:current-layer="g10" /><g
     id="g10"
     inkscape:groupmode="layer"
     inkscape:label="ink_ext_XXXXXX"
     transform="matrix(1.25,0,0,-1.25,0,257.5)"><g
       id="g12"
       transform="scale(0.1,0.1)"><g
         id="g14"><g
           id="g16"
           clip-path="url(#clipPath18)"><path
             d="M 3976.2,298.473 C 4272.7,109.797 4616.85,9.57813 4968.28,9.57813 c 351.44,0 695.59,100.21887 992.08,288.89487"
             style="fill:none;stroke:#0000ff;stroke-width:9.44849968;stroke-linecap:butt;stroke-linejoin:miter;stroke-miterlimit:10;stroke-dasharray:none;stroke-opacity:1"
             id="path22"
             inkscape:connector-curvature="0" /></g></g><path
         d="M 4144.38,246.168 3994.46,288.371 4106.58,180.66"
         style="fill:none;stroke:#0000ff;stroke-width:9.44849968;stroke-linecap:butt;stroke-linejoin:miter;stroke-miterlimit:10;stroke-dasharray:none;stroke-opacity:1"
         id="path24"
         inkscape:connector-curvature="0" /><path
         d="m 5829.36,180.66 112.75,107.711 -150.55,-42.203"
         style="fill:none;stroke:#0000ff;stroke-width:9.44849968;stroke-linecap:butt;stroke-linejoin:miter;stroke-miterlimit:10;stroke-dasharray:none;stroke-opacity:1"
         id="path26"
         inkscape:connector-curvature="0" /><g
         id="g28"><g
           id="g30"
           clip-path="url(#clipPath32)"><path
             d="M 3409.29,298.473 C 3705.79,109.797 4049.94,9.57813 4401.38,9.57813 c 351.43,0 695.58,100.21887 992.07,288.89487"
             style="fill:none;stroke:#0000ff;stroke-width:9.44849968;stroke-linecap:butt;stroke-linejoin:miter;stroke-miterlimit:10;stroke-dasharray:none;stroke-opacity:1"
             id="path36"
             inkscape:connector-curvature="0" /></g></g><path
         d="M 3577.46,246.168 3427.55,288.371 3539.67,180.66"
         style="fill:none;stroke:#0000ff;stroke-width:9.44849968;stroke-linecap:butt;stroke-linejoin:miter;stroke-miterlimit:10;stroke-dasharray:none;stroke-opacity:1"
         id="path38"
         inkscape:connector-curvature="0" /><path
         d="M 5262.45,180.66 5375.2,288.371 5224.65,246.168"
         style="fill:none;stroke:#0000ff;stroke-width:9.44849968;stroke-linecap:butt;stroke-linejoin:miter;stroke-miterlimit:10;stroke-dasharray:none;stroke-opacity:1"
         id="path40"
         inkscape:connector-curvature="0" /><g
         id="g42"><g
           id="g44"
           clip-path="url(#clipPath46)"><path
             d="M 2842.38,298.473 C 3138.88,109.797 3483.03,9.57813 3834.46,9.57813 c 351.44,0 695.59,100.21887 992.08,288.89487"
             style="fill:none;stroke:#0000ff;stroke-width:9.44849968;stroke-linecap:butt;stroke-linejoin:miter;stroke-miterlimit:10;stroke-dasharray:none;stroke-opacity:1"
             id="path50"
             inkscape:connector-curvature="0" /></g></g><path
         d="M 3010.55,246.168 2860.64,288.371 2972.76,180.66"
         style="fill:none;stroke:#0000ff;stroke-width:9.44849968;stroke-linecap:butt;stroke-linejoin:miter;stroke-miterlimit:10;stroke-dasharray:none;stroke-opacity:1"
         id="path52"
         inkscape:connector-curvature="0" /><path
         d="m 4695.54,180.66 112.75,107.711 -150.55,-42.203"
         style="fill:none;stroke:#0000ff;stroke-width:9.44849968;stroke-linecap:butt;stroke-linejoin:miter;stroke-miterlimit:10;stroke-dasharray:none;stroke-opacity:1"
         id="path54"
         inkscape:connector-curvature="0" /><g
         id="g56"><g
           id="g58"
           clip-path="url(#clipPath60)"><path
             d="m 2842.38,1432.25 c 296.5,188.67 640.65,288.89 992.08,288.89 351.44,0 695.59,-100.22 992.08,-288.89"
             style="fill:none;stroke:#0000ff;stroke-width:9.44849968;stroke-linecap:butt;stroke-linejoin:miter;stroke-miterlimit:10;stroke-dasharray:none;stroke-opacity:1"
             id="path64"
             inkscape:connector-curvature="0" /></g></g><path
         d="m 2972.76,1550.69 -112.12,-108.34 149.91,42.83"
         style="fill:none;stroke:#0000ff;stroke-width:9.44849968;stroke-linecap:butt;stroke-linejoin:miter;stroke-miterlimit:10;stroke-dasharray:none;stroke-opacity:1"
         id="path66"
         inkscape:connector-curvature="0" /><path
         d="m 4657.74,1485.18 150.55,-42.83 -112.75,108.34"
         style="fill:none;stroke:#0000ff;stroke-width:9.44849968;stroke-linecap:butt;stroke-linejoin:miter;stroke-miterlimit:10;stroke-dasharray:none;stroke-opacity:1"
         id="path68"
         inkscape:connector-curvature="0" /><g
         id="g70"><g
           id="g72"
           clip-path="url(#clipPath74)"><path
             d="m 3409.29,1432.25 c 296.5,188.67 640.65,288.89 992.09,288.89 351.43,0 695.58,-100.22 992.07,-288.89"
             style="fill:none;stroke:#0000ff;stroke-width:9.44849968;stroke-linecap:butt;stroke-linejoin:miter;stroke-miterlimit:10;stroke-dasharray:none;stroke-opacity:1"
             id="path78"
             inkscape:connector-curvature="0" /></g></g><path
         d="m 3539.67,1550.69 -112.12,-108.34 149.91,42.83"
         style="fill:none;stroke:#0000ff;stroke-width:9.44849968;stroke-linecap:butt;stroke-linejoin:miter;stroke-miterlimit:10;stroke-dasharray:none;stroke-opacity:1"
         id="path80"
         inkscape:connector-curvature="0" /><path
         d="m 5224.65,1485.18 150.55,-42.83 -112.75,108.34"
         style="fill:none;stroke:#0000ff;stroke-width:9.44849968;stroke-linecap:butt;stroke-linejoin:miter;stroke-miterlimit:10;stroke-dasharray:none;stroke-opacity:1"
         id="path82"
         inkscape:connector-curvature="0" /><g
         id="g84"><g
           id="g86"
           clip-path="url(#clipPath88)"><path
             d="m 3976.2,1432.25 c 296.5,188.67 640.65,288.89 992.08,288.89 351.44,0 695.59,-100.22 992.08,-288.89"
             style="fill:none;stroke:#0000ff;stroke-width:9.44849968;stroke-linecap:butt;stroke-linejoin:miter;stroke-miterlimit:10;stroke-dasharray:none;stroke-opacity:1"
             id="path92"
             inkscape:connector-curvature="0" /></g></g><path
         d="m 4106.58,1550.69 -112.12,-108.34 149.92,42.83"
         style="fill:none;stroke:#0000ff;stroke-width:9.44849968;stroke-linecap:butt;stroke-linejoin:miter;stroke-miterlimit:10;stroke-dasharray:none;stroke-opacity:1"
         id="path94"
         inkscape:connector-curvature="0" /><path
         d="m 5791.56,1485.18 150.55,-42.83 -112.75,108.34"
         style="fill:none;stroke:#0000ff;stroke-width:9.44849968;stroke-linecap:butt;stroke-linejoin:miter;stroke-miterlimit:10;stroke-dasharray:none;stroke-opacity:1"
         id="path96"
         inkscape:connector-curvature="0" /><path
         d="m 7.82031,1432.27 1700.72969,0 0,-1133.821 -1700.72969,0 0,1133.821 z"
         style="fill:none;stroke:#000000;stroke-width:4.72424984;stroke-linecap:butt;stroke-linejoin:miter;stroke-miterlimit:10;stroke-dasharray:none;stroke-opacity:1"
         id="path98"
         inkscape:connector-curvature="0" /><path
         d="m 7.82031,865.359 1700.72969,0"
         style="fill:none;stroke:#000000;stroke-width:4.72424984;stroke-linecap:butt;stroke-linejoin:miter;stroke-miterlimit:10;stroke-dasharray:none;stroke-opacity:1"
         id="path100"
         inkscape:connector-curvature="0" /><path
         d="m 433.004,1432.27 0,-1133.821"
         style="fill:none;stroke:#000000;stroke-width:4.72424984;stroke-linecap:butt;stroke-linejoin:miter;stroke-miterlimit:10;stroke-dasharray:none;stroke-opacity:1"
         id="path102"
         inkscape:connector-curvature="0" /><path
         d="m 858.184,1432.27 0,-1133.821"
         style="fill:none;stroke:#000000;stroke-width:4.72424984;stroke-linecap:butt;stroke-linejoin:miter;stroke-miterlimit:10;stroke-dasharray:none;stroke-opacity:1"
         id="path104"
         inkscape:connector-curvature="0" /><path
         d="m 1283.37,1432.27 0,-1133.821"
         style="fill:none;stroke:#000000;stroke-width:4.72424984;stroke-linecap:butt;stroke-linejoin:miter;stroke-miterlimit:10;stroke-dasharray:none;stroke-opacity:1"
         id="path106"
         inkscape:connector-curvature="0" /><g
         id="g108"><g
           id="g110"
           clip-path="url(#clipPath112)"><path
             d="m 206.238,581.906 0,566.914"
             style="fill:none;stroke:#ff0000;stroke-width:9.44849968;stroke-linecap:butt;stroke-linejoin:miter;stroke-miterlimit:10;stroke-dasharray:none;stroke-opacity:1"
             id="path116"
             inkscape:connector-curvature="0" /></g></g><path
         d="m 168.445,753.867 37.793,-151.176 37.793,151.176"
         style="fill:none;stroke:#ff0000;stroke-width:9.44849968;stroke-linecap:butt;stroke-linejoin:miter;stroke-miterlimit:10;stroke-dasharray:none;stroke-opacity:1"
         id="path118"
         inkscape:connector-curvature="0" /><path
         d="M 244.031,976.852 206.238,1128.03 168.445,976.852"
         style="fill:none;stroke:#ff0000;stroke-width:9.44849968;stroke-linecap:butt;stroke-linejoin:miter;stroke-miterlimit:10;stroke-dasharray:none;stroke-opacity:1"
         id="path120"
         inkscape:connector-curvature="0" /><g
         id="g122"><g
           id="g124"
           clip-path="url(#clipPath126)"><path
             d="m 206.238,1148.82 425.184,0"
             style="fill:none;stroke:#ff0000;stroke-width:9.44849968;stroke-linecap:butt;stroke-linejoin:miter;stroke-miterlimit:10;stroke-dasharray:none;stroke-opacity:1"
             id="path130"
             inkscape:connector-curvature="0" /></g></g><path
         d="m 378.203,1186.61 -151.18,-37.79 151.18,-37.8"
         style="fill:none;stroke:#ff0000;stroke-width:9.44849968;stroke-linecap:butt;stroke-linejoin:miter;stroke-miterlimit:10;stroke-dasharray:none;stroke-opacity:1"
         id="path132"
         inkscape:connector-curvature="0" /><path
         d="m 459.457,1111.02 151.176,37.8 -151.176,37.79"
         style="fill:none;stroke:#ff0000;stroke-width:9.44849968;stroke-linecap:butt;stroke-linejoin:miter;stroke-miterlimit:10;stroke-dasharray:none;stroke-opacity:1"
         id="path134"
         inkscape:connector-curvature="0" /><g
         id="g136"><g
           id="g138"
           clip-path="url(#clipPath140)"><path
             d="m 631.422,1148.82 425.188,0"
             style="fill:none;stroke:#ff0000;stroke-width:9.44849968;stroke-linecap:butt;stroke-linejoin:miter;stroke-miterlimit:10;stroke-dasharray:none;stroke-opacity:1"
             id="path144"
             inkscape:connector-curvature="0" /></g></g><path
         d="m 803.383,1186.61 -151.176,-37.79 151.176,-37.8"
         style="fill:none;stroke:#ff0000;stroke-width:9.44849968;stroke-linecap:butt;stroke-linejoin:miter;stroke-miterlimit:10;stroke-dasharray:none;stroke-opacity:1"
         id="path146"
         inkscape:connector-curvature="0" /><path
         d="m 884.641,1111.02 151.179,37.8 -151.179,37.79"
         style="fill:none;stroke:#ff0000;stroke-width:9.44849968;stroke-linecap:butt;stroke-linejoin:miter;stroke-miterlimit:10;stroke-dasharray:none;stroke-opacity:1"
         id="path148"
         inkscape:connector-curvature="0" /><g
         id="g150"><g
           id="g152"
           clip-path="url(#clipPath154)"><path
             d="m 1056.61,1148.82 425.18,0"
             style="fill:none;stroke:#ff0000;stroke-width:9.44849968;stroke-linecap:butt;stroke-linejoin:miter;stroke-miterlimit:10;stroke-dasharray:none;stroke-opacity:1"
             id="path158"
             inkscape:connector-curvature="0" /></g></g><path
         d="m 1228.57,1186.61 -151.18,-37.79 151.18,-37.8"
         style="fill:none;stroke:#ff0000;stroke-width:9.44849968;stroke-linecap:butt;stroke-linejoin:miter;stroke-miterlimit:10;stroke-dasharray:none;stroke-opacity:1"
         id="path160"
         inkscape:connector-curvature="0" /><path
         d="m 1309.82,1111.02 151.18,37.8 -151.18,37.79"
         style="fill:none;stroke:#ff0000;stroke-width:9.44849968;stroke-linecap:butt;stroke-linejoin:miter;stroke-miterlimit:10;stroke-dasharray:none;stroke-opacity:1"
         id="path162"
         inkscape:connector-curvature="0" /><g
         id="g164"><g
           id="g166"
           clip-path="url(#clipPath168)"><path
             d="m 206.238,581.906 425.184,0"
             style="fill:none;stroke:#ff0000;stroke-width:9.44849968;stroke-linecap:butt;stroke-linejoin:miter;stroke-miterlimit:10;stroke-dasharray:none;stroke-opacity:1"
             id="path172"
             inkscape:connector-curvature="0" /></g></g><path
         d="m 378.203,619.699 -151.18,-37.793 151.18,-37.797"
         style="fill:none;stroke:#ff0000;stroke-width:9.44849968;stroke-linecap:butt;stroke-linejoin:miter;stroke-miterlimit:10;stroke-dasharray:none;stroke-opacity:1"
         id="path174"
         inkscape:connector-curvature="0" /><path
         d="m 459.457,544.109 151.176,37.797 -151.176,37.793"
         style="fill:none;stroke:#ff0000;stroke-width:9.44849968;stroke-linecap:butt;stroke-linejoin:miter;stroke-miterlimit:10;stroke-dasharray:none;stroke-opacity:1"
         id="path176"
         inkscape:connector-curvature="0" /><g
         id="g178"><g
           id="g180"
           clip-path="url(#clipPath182)"><path
             d="m 631.422,581.906 425.188,0"
             style="fill:none;stroke:#ff0000;stroke-width:9.44849968;stroke-linecap:butt;stroke-linejoin:miter;stroke-miterlimit:10;stroke-dasharray:none;stroke-opacity:1"
             id="path186"
             inkscape:connector-curvature="0" /></g></g><path
         d="M 803.383,619.699 652.207,581.906 803.383,544.109"
         style="fill:none;stroke:#ff0000;stroke-width:9.44849968;stroke-linecap:butt;stroke-linejoin:miter;stroke-miterlimit:10;stroke-dasharray:none;stroke-opacity:1"
         id="path188"
         inkscape:connector-curvature="0" /><path
         d="m 884.641,544.109 151.179,37.797 -151.179,37.793"
         style="fill:none;stroke:#ff0000;stroke-width:9.44849968;stroke-linecap:butt;stroke-linejoin:miter;stroke-miterlimit:10;stroke-dasharray:none;stroke-opacity:1"
         id="path190"
         inkscape:connector-curvature="0" /><g
         id="g192"><g
           id="g194"
           clip-path="url(#clipPath196)"><path
             d="m 1056.61,581.906 425.18,0"
             style="fill:none;stroke:#ff0000;stroke-width:9.44849968;stroke-linecap:butt;stroke-linejoin:miter;stroke-miterlimit:10;stroke-dasharray:none;stroke-opacity:1"
             id="path200"
             inkscape:connector-curvature="0" /></g></g><path
         d="m 1228.57,619.699 -151.18,-37.793 151.18,-37.797"
         style="fill:none;stroke:#ff0000;stroke-width:9.44849968;stroke-linecap:butt;stroke-linejoin:miter;stroke-miterlimit:10;stroke-dasharray:none;stroke-opacity:1"
         id="path202"
         inkscape:connector-curvature="0" /><path
         d="M 1309.82,544.109 1461,581.906 1309.82,619.699"
         style="fill:none;stroke:#ff0000;stroke-width:9.44849968;stroke-linecap:butt;stroke-linejoin:miter;stroke-miterlimit:10;stroke-dasharray:none;stroke-opacity:1"
         id="path204"
         inkscape:connector-curvature="0" /><g
         id="g206"><g
           id="g208"
           clip-path="url(#clipPath210)"><path
             d="m 631.422,581.906 0,566.914"
             style="fill:none;stroke:#ff0000;stroke-width:9.44849968;stroke-linecap:butt;stroke-linejoin:miter;stroke-miterlimit:10;stroke-dasharray:none;stroke-opacity:1"
             id="path214"
             inkscape:connector-curvature="0" /></g></g><path
         d="m 593.629,753.867 37.793,-151.176 37.793,151.176"
         style="fill:none;stroke:#ff0000;stroke-width:9.44849968;stroke-linecap:butt;stroke-linejoin:miter;stroke-miterlimit:10;stroke-dasharray:none;stroke-opacity:1"
         id="path216"
         inkscape:connector-curvature="0" /><path
         d="M 669.215,976.852 631.422,1128.03 593.629,976.852"
         style="fill:none;stroke:#ff0000;stroke-width:9.44849968;stroke-linecap:butt;stroke-linejoin:miter;stroke-miterlimit:10;stroke-dasharray:none;stroke-opacity:1"
         id="path218"
         inkscape:connector-curvature="0" /><g
         id="g220"><g
           id="g222"
           clip-path="url(#clipPath224)"><path
             d="m 1056.61,581.906 0,566.914"
             style="fill:none;stroke:#ff0000;stroke-width:9.44849968;stroke-linecap:butt;stroke-linejoin:miter;stroke-miterlimit:10;stroke-dasharray:none;stroke-opacity:1"
             id="path228"
             inkscape:connector-curvature="0" /></g></g><path
         d="m 1018.81,753.867 37.8,-151.176 37.79,151.176"
         style="fill:none;stroke:#ff0000;stroke-width:9.44849968;stroke-linecap:butt;stroke-linejoin:miter;stroke-miterlimit:10;stroke-dasharray:none;stroke-opacity:1"
         id="path230"
         inkscape:connector-curvature="0" /><path
         d="m 1094.4,976.852 -37.79,151.178 -37.8,-151.178"
         style="fill:none;stroke:#ff0000;stroke-width:9.44849968;stroke-linecap:butt;stroke-linejoin:miter;stroke-miterlimit:10;stroke-dasharray:none;stroke-opacity:1"
         id="path232"
         inkscape:connector-curvature="0" /><g
         id="g234"><g
           id="g236"
           clip-path="url(#clipPath238)"><path
             d="m 1481.79,581.906 0,566.914"
             style="fill:none;stroke:#ff0000;stroke-width:9.44849968;stroke-linecap:butt;stroke-linejoin:miter;stroke-miterlimit:10;stroke-dasharray:none;stroke-opacity:1"
             id="path242"
             inkscape:connector-curvature="0" /></g></g><path
         d="m 1443.99,753.867 37.8,-151.176 37.79,151.176"
         style="fill:none;stroke:#ff0000;stroke-width:9.44849968;stroke-linecap:butt;stroke-linejoin:miter;stroke-miterlimit:10;stroke-dasharray:none;stroke-opacity:1"
         id="path244"
         inkscape:connector-curvature="0" /><path
         d="m 1519.58,976.852 -37.79,151.178 -37.8,-151.178"
         style="fill:none;stroke:#ff0000;stroke-width:9.44849968;stroke-linecap:butt;stroke-linejoin:miter;stroke-miterlimit:10;stroke-dasharray:none;stroke-opacity:1"
         id="path246"
         inkscape:connector-curvature="0" /><g
         id="g248"><g
           id="g250"
           clip-path="url(#clipPath252)"><path
             d="M 206.238,1148.82 631.422,581.906"
             style="fill:none;stroke:#ff0000;stroke-width:9.44849968;stroke-linecap:butt;stroke-linejoin:miter;stroke-miterlimit:10;stroke-dasharray:none;stroke-opacity:1"
             id="path256"
             inkscape:connector-curvature="0" /></g></g><path
         d="m 339.777,1034.17 -120.941,98.27 60.473,-143.62"
         style="fill:none;stroke:#ff0000;stroke-width:9.44849968;stroke-linecap:butt;stroke-linejoin:miter;stroke-miterlimit:10;stroke-dasharray:none;stroke-opacity:1"
         id="path258"
         inkscape:connector-curvature="0" /><path
         d="M 497.883,696.547 618.824,598.281 558.352,741.898"
         style="fill:none;stroke:#ff0000;stroke-width:9.44849968;stroke-linecap:butt;stroke-linejoin:miter;stroke-miterlimit:10;stroke-dasharray:none;stroke-opacity:1"
         id="path260"
         inkscape:connector-curvature="0" /><g
         id="g262"><g
           id="g264"
           clip-path="url(#clipPath266)"><path
             d="M 631.422,1148.82 1056.61,581.906"
             style="fill:none;stroke:#ff0000;stroke-width:9.44849968;stroke-linecap:butt;stroke-linejoin:miter;stroke-miterlimit:10;stroke-dasharray:none;stroke-opacity:1"
             id="path270"
             inkscape:connector-curvature="0" /></g></g><path
         d="M 764.961,1034.17 644.02,1132.44 704.488,988.82"
         style="fill:none;stroke:#ff0000;stroke-width:9.44849968;stroke-linecap:butt;stroke-linejoin:miter;stroke-miterlimit:10;stroke-dasharray:none;stroke-opacity:1"
         id="path272"
         inkscape:connector-curvature="0" /><path
         d="M 923.066,696.547 1044,598.281 983.535,741.898"
         style="fill:none;stroke:#ff0000;stroke-width:9.44849968;stroke-linecap:butt;stroke-linejoin:miter;stroke-miterlimit:10;stroke-dasharray:none;stroke-opacity:1"
         id="path274"
         inkscape:connector-curvature="0" /><g
         id="g276"><g
           id="g278"
           clip-path="url(#clipPath280)"><path
             d="M 1056.61,1148.82 1481.79,581.906"
             style="fill:none;stroke:#ff0000;stroke-width:9.44849968;stroke-linecap:butt;stroke-linejoin:miter;stroke-miterlimit:10;stroke-dasharray:none;stroke-opacity:1"
             id="path284"
             inkscape:connector-curvature="0" /></g></g><path
         d="m 1190.14,1034.17 -120.94,98.27 60.47,-143.62"
         style="fill:none;stroke:#ff0000;stroke-width:9.44849968;stroke-linecap:butt;stroke-linejoin:miter;stroke-miterlimit:10;stroke-dasharray:none;stroke-opacity:1"
         id="path286"
         inkscape:connector-curvature="0" /><path
         d="m 1348.25,696.547 120.94,-98.266 -60.47,143.617"
         style="fill:none;stroke:#ff0000;stroke-width:9.44849968;stroke-linecap:butt;stroke-linejoin:miter;stroke-miterlimit:10;stroke-dasharray:none;stroke-opacity:1"
         id="path288"
         inkscape:connector-curvature="0" /><g
         id="g290"><g
           id="g292"
           clip-path="url(#clipPath294)"><path
             d="m 1056.61,581.906 425.18,566.914"
             style="fill:none;stroke:#ff0000;stroke-width:9.44849968;stroke-linecap:butt;stroke-linejoin:miter;stroke-miterlimit:10;stroke-dasharray:none;stroke-opacity:1"
             id="path298"
             inkscape:connector-curvature="0" /></g></g><path
         d="m 1129.67,741.898 -60.47,-143.617 120.94,98.266"
         style="fill:none;stroke:#ff0000;stroke-width:9.44849968;stroke-linecap:butt;stroke-linejoin:miter;stroke-miterlimit:10;stroke-dasharray:none;stroke-opacity:1"
         id="path300"
         inkscape:connector-curvature="0" /><path
         d="m 1408.72,988.82 60.47,143.62 -120.94,-98.27"
         style="fill:none;stroke:#ff0000;stroke-width:9.44849968;stroke-linecap:butt;stroke-linejoin:miter;stroke-miterlimit:10;stroke-dasharray:none;stroke-opacity:1"
         id="path302"
         inkscape:connector-curvature="0" /><g
         id="g304"><g
           id="g306"
           clip-path="url(#clipPath308)"><path
             d="M 631.422,581.906 1056.61,1148.82"
             style="fill:none;stroke:#ff0000;stroke-width:9.44849968;stroke-linecap:butt;stroke-linejoin:miter;stroke-miterlimit:10;stroke-dasharray:none;stroke-opacity:1"
             id="path312"
             inkscape:connector-curvature="0" /></g></g><path
         d="M 704.488,741.898 644.02,598.281 764.961,696.547"
         style="fill:none;stroke:#ff0000;stroke-width:9.44849968;stroke-linecap:butt;stroke-linejoin:miter;stroke-miterlimit:10;stroke-dasharray:none;stroke-opacity:1"
         id="path314"
         inkscape:connector-curvature="0" /><path
         d="M 983.535,988.82 1044,1132.44 923.066,1034.17"
         style="fill:none;stroke:#ff0000;stroke-width:9.44849968;stroke-linecap:butt;stroke-linejoin:miter;stroke-miterlimit:10;stroke-dasharray:none;stroke-opacity:1"
         id="path316"
         inkscape:connector-curvature="0" /><g
         id="g318"><g
           id="g320"
           clip-path="url(#clipPath322)"><path
             d="M 206.238,581.906 631.422,1148.82"
             style="fill:none;stroke:#ff0000;stroke-width:9.44849968;stroke-linecap:butt;stroke-linejoin:miter;stroke-miterlimit:10;stroke-dasharray:none;stroke-opacity:1"
             id="path326"
             inkscape:connector-curvature="0" /></g></g><path
         d="M 279.309,741.898 218.836,598.281 339.777,696.547"
         style="fill:none;stroke:#ff0000;stroke-width:9.44849968;stroke-linecap:butt;stroke-linejoin:miter;stroke-miterlimit:10;stroke-dasharray:none;stroke-opacity:1"
         id="path328"
         inkscape:connector-curvature="0" /><path
         d="m 558.352,988.82 60.472,143.62 -120.941,-98.27"
         style="fill:none;stroke:#ff0000;stroke-width:9.44849968;stroke-linecap:butt;stroke-linejoin:miter;stroke-miterlimit:10;stroke-dasharray:none;stroke-opacity:1"
         id="path330"
         inkscape:connector-curvature="0" /><g
         id="g332"><g
           id="g334"
           clip-path="url(#clipPath336)"><path
             d="M 206.238,1148.82 1056.61,581.906"
             style="fill:none;stroke:#ff0000;stroke-width:9.44849968;stroke-linecap:butt;stroke-linejoin:miter;stroke-miterlimit:10;stroke-dasharray:none;stroke-opacity:1"
             id="path340"
             inkscape:connector-curvature="0" /></g></g><path
         d="m 370.012,1085.2 -146.137,52.28 104.563,-115.27"
         style="fill:none;stroke:#ff0000;stroke-width:9.44849968;stroke-linecap:butt;stroke-linejoin:miter;stroke-miterlimit:10;stroke-dasharray:none;stroke-opacity:1"
         id="path342"
         inkscape:connector-curvature="0" /><path
         d="M 892.199,646.156 1038.96,593.242 933.773,709.145"
         style="fill:none;stroke:#ff0000;stroke-width:9.44849968;stroke-linecap:butt;stroke-linejoin:miter;stroke-miterlimit:10;stroke-dasharray:none;stroke-opacity:1"
         id="path344"
         inkscape:connector-curvature="0" /><g
         id="g346"><g
           id="g348"
           clip-path="url(#clipPath350)"><path
             d="M 206.238,581.906 1056.61,1148.82"
             style="fill:none;stroke:#ff0000;stroke-width:9.44849968;stroke-linecap:butt;stroke-linejoin:miter;stroke-miterlimit:10;stroke-dasharray:none;stroke-opacity:1"
             id="path354"
             inkscape:connector-curvature="0" /></g></g><path
         d="M 328.438,709.145 223.875,593.242 370.012,646.156"
         style="fill:none;stroke:#ff0000;stroke-width:9.44849968;stroke-linecap:butt;stroke-linejoin:miter;stroke-miterlimit:10;stroke-dasharray:none;stroke-opacity:1"
         id="path356"
         inkscape:connector-curvature="0" /><path
         d="M 933.773,1022.21 1038.96,1137.48 892.199,1085.2"
         style="fill:none;stroke:#ff0000;stroke-width:9.44849968;stroke-linecap:butt;stroke-linejoin:miter;stroke-miterlimit:10;stroke-dasharray:none;stroke-opacity:1"
         id="path358"
         inkscape:connector-curvature="0" /><g
         id="g360"><g
           id="g362"
           clip-path="url(#clipPath364)"><path
             d="M 234.586,581.906 1481.79,1148.82"
             style="fill:none;stroke:#ff0000;stroke-width:9.44849968;stroke-linecap:butt;stroke-linejoin:miter;stroke-miterlimit:10;stroke-dasharray:none;stroke-opacity:1"
             id="path368"
             inkscape:connector-curvature="0" /></g></g><path
         d="M 375.051,687.727 253.48,590.723 406.547,619.07"
         style="fill:none;stroke:#ff0000;stroke-width:9.44849968;stroke-linecap:butt;stroke-linejoin:miter;stroke-miterlimit:10;stroke-dasharray:none;stroke-opacity:1"
         id="path370"
         inkscape:connector-curvature="0" /><path
         d="m 1340.69,1043.62 122.2,96.38 -153.69,-27.72"
         style="fill:none;stroke:#ff0000;stroke-width:9.44849968;stroke-linecap:butt;stroke-linejoin:miter;stroke-miterlimit:10;stroke-dasharray:none;stroke-opacity:1"
         id="path372"
         inkscape:connector-curvature="0" /><g
         id="g374"><g
           id="g376"
           clip-path="url(#clipPath378)"><path
             d="M 234.586,1148.82 1481.79,581.906"
             style="fill:none;stroke:#ff0000;stroke-width:9.44849968;stroke-linecap:butt;stroke-linejoin:miter;stroke-miterlimit:10;stroke-dasharray:none;stroke-opacity:1"
             id="path382"
             inkscape:connector-curvature="0" /></g></g><path
         d="M 406.547,1112.28 253.48,1140 375.051,1043.62"
         style="fill:none;stroke:#ff0000;stroke-width:9.44849968;stroke-linecap:butt;stroke-linejoin:miter;stroke-miterlimit:10;stroke-dasharray:none;stroke-opacity:1"
         id="path384"
         inkscape:connector-curvature="0" /><path
         d="m 1309.2,619.07 153.69,-28.347 -122.2,97.004"
         style="fill:none;stroke:#ff0000;stroke-width:9.44849968;stroke-linecap:butt;stroke-linejoin:miter;stroke-miterlimit:10;stroke-dasharray:none;stroke-opacity:1"
         id="path386"
         inkscape:connector-curvature="0" /><g
         id="g388"><g
           id="g390"
           clip-path="url(#clipPath392)"><path
             d="M 1481.79,581.906 631.422,1148.82"
             style="fill:none;stroke:#ff0000;stroke-width:9.44849968;stroke-linecap:butt;stroke-linejoin:miter;stroke-miterlimit:10;stroke-dasharray:none;stroke-opacity:1"
             id="path396"
             inkscape:connector-curvature="0" /></g></g><path
         d="m 1317.38,646.156 146.77,-52.914 -105.19,115.903"
         style="fill:none;stroke:#ff0000;stroke-width:9.44849968;stroke-linecap:butt;stroke-linejoin:miter;stroke-miterlimit:10;stroke-dasharray:none;stroke-opacity:1"
         id="path398"
         inkscape:connector-curvature="0" /><path
         d="m 795.195,1085.2 -146.136,52.28 104.562,-115.27"
         style="fill:none;stroke:#ff0000;stroke-width:9.44849968;stroke-linecap:butt;stroke-linejoin:miter;stroke-miterlimit:10;stroke-dasharray:none;stroke-opacity:1"
         id="path400"
         inkscape:connector-curvature="0" /><g
         id="g402"><g
           id="g404"
           clip-path="url(#clipPath406)"><path
             d="M 631.422,581.906 1481.79,1148.82"
             style="fill:none;stroke:#ff0000;stroke-width:9.44849968;stroke-linecap:butt;stroke-linejoin:miter;stroke-miterlimit:10;stroke-dasharray:none;stroke-opacity:1"
             id="path410"
             inkscape:connector-curvature="0" /></g></g><path
         d="M 753.621,709.145 649.059,593.242 795.195,646.156"
         style="fill:none;stroke:#ff0000;stroke-width:9.44849968;stroke-linecap:butt;stroke-linejoin:miter;stroke-miterlimit:10;stroke-dasharray:none;stroke-opacity:1"
         id="path412"
         inkscape:connector-curvature="0" /><path
         d="m 1358.96,1022.21 105.19,115.27 -146.77,-52.28"
         style="fill:none;stroke:#ff0000;stroke-width:9.44849968;stroke-linecap:butt;stroke-linejoin:miter;stroke-miterlimit:10;stroke-dasharray:none;stroke-opacity:1"
         id="path414"
         inkscape:connector-curvature="0" /><path
         d="m 2558.91,865.359 1700.73,0"
         style="fill:none;stroke:#000000;stroke-width:4.72424984;stroke-linecap:butt;stroke-linejoin:miter;stroke-miterlimit:10;stroke-dasharray:none;stroke-opacity:1"
         id="path416"
         inkscape:connector-curvature="0" /><path
         d="m 3125.82,1432.27 0,-1133.821"
         style="fill:none;stroke:#000000;stroke-width:4.72424984;stroke-linecap:butt;stroke-linejoin:miter;stroke-miterlimit:10;stroke-dasharray:none;stroke-opacity:1"
         id="path418"
         inkscape:connector-curvature="0" /><path
         d="m 3692.73,1432.27 0,-1133.821"
         style="fill:none;stroke:#000000;stroke-width:4.72424984;stroke-linecap:butt;stroke-linejoin:miter;stroke-miterlimit:10;stroke-dasharray:none;stroke-opacity:1"
         id="path420"
         inkscape:connector-curvature="0" /><path
         d="m 4543.1,298.449 1700.73,0 0,1133.82 -1700.73,0 0,-1133.82 z"
         style="fill:none;stroke:#000000;stroke-width:4.72424984;stroke-linecap:butt;stroke-linejoin:miter;stroke-miterlimit:10;stroke-dasharray:none;stroke-opacity:1"
         id="path422"
         inkscape:connector-curvature="0" /><path
         d="m 4543.1,865.359 1700.73,0"
         style="fill:none;stroke:#000000;stroke-width:4.72424984;stroke-linecap:butt;stroke-linejoin:miter;stroke-miterlimit:10;stroke-dasharray:none;stroke-opacity:1"
         id="path424"
         inkscape:connector-curvature="0" /><path
         d="m 2558.91,298.449 1700.73,0 0,1133.82 -1700.73,0 0,-1133.82 z"
         style="fill:none;stroke:#000000;stroke-width:4.72424984;stroke-linecap:butt;stroke-linejoin:miter;stroke-miterlimit:10;stroke-dasharray:none;stroke-opacity:1"
         id="path426"
         inkscape:connector-curvature="0" /><g
         id="g428"><g
           id="g430"
           clip-path="url(#clipPath432)"><path
             d="m 5393.46,1148.82 0,-566.914"
             style="fill:none;stroke:#ff0000;stroke-width:9.44849968;stroke-linecap:butt;stroke-linejoin:miter;stroke-miterlimit:10;stroke-dasharray:none;stroke-opacity:1"
             id="path436"
             inkscape:connector-curvature="0" /></g></g><path
         d="m 5431.26,976.852 -37.8,151.178 -37.79,-151.178"
         style="fill:none;stroke:#ff0000;stroke-width:9.44849968;stroke-linecap:butt;stroke-linejoin:miter;stroke-miterlimit:10;stroke-dasharray:none;stroke-opacity:1"
         id="path438"
         inkscape:connector-curvature="0" /><path
         d="m 5355.67,753.867 37.79,-151.176 37.8,151.176"
         style="fill:none;stroke:#ff0000;stroke-width:9.44849968;stroke-linecap:butt;stroke-linejoin:miter;stroke-miterlimit:10;stroke-dasharray:none;stroke-opacity:1"
         id="path440"
         inkscape:connector-curvature="0" /><g
         id="g442"
         transform="scale(10,10)"><text
           transform="matrix(1,0,0,-1,292.02,188.58)"
           style="font-variant:normal;font-weight:normal;font-size:19.9993px;font-family:Helvetica;-inkscape-font-specification:Helvetica;writing-mode:lr-tb;fill:#000000;fill-opacity:1;fill-rule:nonzero;stroke:none"
           id="text444"><tspan
             x="0 11.119611 16.679417 30.01895 43.358482 48.918289 55.578056 66.697662 77.817276 87.816925 190.08875 201.20836 206.76816 220.1077 236.76712 250.10664 255.66646 262.32623 273.44583 284.56543 294.56509"
             y="0"
             sodipodi:role="line"
             id="tspan446">6 PP ranks2 PME ranks</tspan><tspan
             x="-279.55899 -268.43939 -262.87958 -249.54005 -236.20052 -230.64072 -217.30118 -200.64177 -187.30223 -181.74242 -175.08266 -163.96304 -152.84343 -142.84378"
             y="2.8343799"
             sodipodi:role="line"
             id="tspan448">8 PP/PME ranks</tspan></text>
</g></g></g></svg>