<?xml version="1.0" encoding="UTF-8" standalone="no"?>
<!-- Created with Inkscape (http://www.inkscape.org/) -->

<svg
   xmlns:dc="http://purl.org/dc/elements/1.1/"
   xmlns:cc="http://creativecommons.org/ns#"
   xmlns:rdf="http://www.w3.org/1999/02/22-rdf-syntax-ns#"
   xmlns:svg="http://www.w3.org/2000/svg"
   xmlns="http://www.w3.org/2000/svg"
   xmlns:sodipodi="http://sodipodi.sourceforge.net/DTD/sodipodi-0.dtd"
   xmlns:inkscape="http://www.inkscape.org/namespaces/inkscape"
   id="svg2"
   version="1.1"
   inkscape:version="0.91 r13725"
   xml:space="preserve"
   width="396.25"
   height="315"
   viewBox="0 0 396.25 315"
   sodipodi:docname="nstric.svg"><metadata
     id="metadata8"><rdf:RDF><cc:Work
         rdf:about=""><dc:format>image/svg+xml</dc:format><dc:type
           rdf:resource="http://purl.org/dc/dcmitype/StillImage" /><dc:title></dc:title></cc:Work></rdf:RDF></metadata><defs
     id="defs6"><clipPath
       clipPathUnits="userSpaceOnUse"
       id="clipPath18"><path
         d="m 2301.07,1159.29 566.902,0 0,283.453 -566.902,0 0,-283.453 z"
         id="path20"
         inkscape:connector-curvature="0"
         style="clip-rule:evenodd" /></clipPath><clipPath
       clipPathUnits="userSpaceOnUse"
       id="clipPath44"><path
         d="m 1734.16,1442.74 1133.81,0 0,283.453 -1133.81,0 0,-283.453 z"
         id="path46"
         inkscape:connector-curvature="0"
         style="clip-rule:evenodd" /></clipPath><clipPath
       clipPathUnits="userSpaceOnUse"
       id="clipPath74"><path
         d="m 883.809,592.383 1417.26,0 0,566.902 -1417.26,0 0,-566.902 z"
         id="path76"
         inkscape:connector-curvature="0"
         style="clip-rule:evenodd" /></clipPath><clipPath
       clipPathUnits="userSpaceOnUse"
       id="clipPath108"><path
         d="m 1167.26,1159.29 850.355,0 0,283.453 -850.355,0 0,-283.453 z"
         id="path110"
         inkscape:connector-curvature="0"
         style="clip-rule:evenodd" /></clipPath><clipPath
       clipPathUnits="userSpaceOnUse"
       id="clipPath136"><path
         d="m 2017.62,1159.29 283.453,0 0,283.453 -283.453,0 0,-283.453 z"
         id="path138"
         inkscape:connector-curvature="0"
         style="clip-rule:evenodd" /></clipPath><clipPath
       clipPathUnits="userSpaceOnUse"
       id="clipPath194"><path
         d="m 0,0 0,2520 3170,0 L 3170,0 0,0 Z"
         id="path196"
         inkscape:connector-curvature="0" /></clipPath><clipPath
       clipPathUnits="userSpaceOnUse"
       id="clipPath200"><path
         d="m 0,0 0,2520 3170,0 L 3170,0 0,0 Z m 1935.73,105.477 302.35,-75.5903 -302.35,-75.5859 398.72,0 0,151.1762 -398.72,0 z"
         id="path202"
         inkscape:connector-curvature="0" /></clipPath><clipPath
       clipPathUnits="userSpaceOnUse"
       id="clipPath206"><path
         d="m 29.043,29.8867 2267.617,0"
         id="path208"
         inkscape:connector-curvature="0"
         style="clip-rule:evenodd" /></clipPath><clipPath
       clipPathUnits="userSpaceOnUse"
       id="clipPath226"><path
         d="m 0,0 0,2520 3170,0 L 3170,0 0,0 Z"
         id="path228"
         inkscape:connector-curvature="0" /></clipPath><clipPath
       clipPathUnits="userSpaceOnUse"
       id="clipPath232"><path
         d="m 0,0 0,2520 3170,0 L 3170,0 0,0 Z m 1935.73,105.477 302.35,-75.5903 -302.35,-75.5859 398.72,0 0,151.1762 -398.72,0 z"
         id="path234"
         inkscape:connector-curvature="0" /></clipPath><clipPath
       clipPathUnits="userSpaceOnUse"
       id="clipPath246"><path
         d="m 0,0 0,2520 3170,0 L 3170,0 0,0 Z M 482.566,897.883 706.18,1114.57 610.434,817.883 822.078,1155.51 693.582,1235.5 482.566,897.883 Z"
         id="path248"
         inkscape:connector-curvature="0" /></clipPath><clipPath
       clipPathUnits="userSpaceOnUse"
       id="clipPath252"><path
         d="M 29.043,29.8867 737.672,1163.7"
         id="path254"
         inkscape:connector-curvature="0"
         style="clip-rule:evenodd" /></clipPath><clipPath
       clipPathUnits="userSpaceOnUse"
       id="clipPath300"><path
         d="m 0,0 0,2520 3170,0 L 3170,0 0,0 Z M 482.566,897.883 706.18,1114.57 610.434,817.883 822.078,1155.51 693.582,1235.5 482.566,897.883 Z"
         id="path302"
         inkscape:connector-curvature="0" /></clipPath></defs><sodipodi:namedview
     pagecolor="#ffffff"
     bordercolor="#666666"
     borderopacity="1"
     objecttolerance="10"
     gridtolerance="10"
     guidetolerance="10"
     inkscape:pageopacity="0"
     inkscape:pageshadow="2"
     inkscape:window-width="760"
     inkscape:window-height="480"
     id="namedview4"
     showgrid="false"
     inkscape:zoom="0.74920635"
     inkscape:cx="198.125"
     inkscape:cy="157.5"
     inkscape:window-x="0"
     inkscape:window-y="25"
     inkscape:window-maximized="0"
     inkscape:current-layer="g10" /><g
     id="g10"
     inkscape:groupmode="layer"
     inkscape:label="ink_ext_XXXXXX"
     transform="matrix(1.25,0,0,-1.25,0,315)"><g
       id="g12"
       transform="scale(0.1,0.1)"><g
         id="g14"><g
           id="g16"
           clip-path="url(#clipPath18)"><g
             id="g22"
             transform="scale(10,10)"><text
               transform="matrix(1,0,0,-1,230.107,114.074)"
               style="font-variant:normal;font-weight:normal;font-size:15.10000038px;font-family:Arial;-inkscape-font-specification:Arial;writing-mode:lr-tb;fill:#ffffff;fill-opacity:1;fill-rule:nonzero;stroke:none"
               id="text24"><tspan
                 x="0 15.1 30.200001 45.299999"
                 y="0"
                 sodipodi:role="line"
                 id="tspan26">0000</tspan><tspan
                 x="0 15.1 30.200001 45.299999"
                 y="-15.1"
                 sodipodi:role="line"
                 id="tspan28">0000</tspan></text>
</g><g
             id="g30"
             transform="scale(10,10)"><text
               transform="matrix(1,0,0,-1,230.107,114.074)"
               style="font-variant:normal;font-weight:normal;font-size:15.10000038px;font-family:Arial;-inkscape-font-specification:Arial;writing-mode:lr-tb;fill:#000000;fill-opacity:1;fill-rule:nonzero;stroke:none"
               id="text32"><tspan
                 x="0 15.1 30.200001 45.299999"
                 y="0"
                 sodipodi:role="line"
                 id="tspan34">1111</tspan><tspan
                 x="0 15.1 30.200001 45.299999"
                 y="-15.1"
                 sodipodi:role="line"
                 id="tspan36">1111</tspan></text>
</g></g></g><path
         d="m 2301.07,1159.29 566.902,0 0,283.453 -566.902,0 0,-283.453 z"
         style="fill:none;stroke:#000000;stroke-width:4.72419977;stroke-linecap:butt;stroke-linejoin:miter;stroke-miterlimit:10;stroke-dasharray:none;stroke-opacity:1"
         id="path38"
         inkscape:connector-curvature="0" /><g
         id="g40"><g
           id="g42"
           clip-path="url(#clipPath44)"><g
             id="g48"
             transform="scale(10,10)"><text
               transform="matrix(1,0,0,-1,158.316,142.419)"
               style="font-variant:normal;font-weight:normal;font-size:15.10000038px;font-family:Arial;-inkscape-font-specification:Arial;writing-mode:lr-tb;fill:#ffffff;fill-opacity:1;fill-rule:nonzero;stroke:none"
               id="text50"><tspan
                 x="0 15.1 30.200001 45.299999 60.400002 75.5 90.599998 105.7 120.8"
                 y="0"
                 sodipodi:role="line"
                 id="tspan52">000000000</tspan><tspan
                 x="0 15.1 30.200001 45.299999 60.400002 75.5 90.599998 105.7 120.8"
                 y="-15.1"
                 sodipodi:role="line"
                 id="tspan54">000000000</tspan><tspan
                 x="0 15.1 30.200001 45.299999 60.400002 75.5 90.599998 105.7 120.8"
                 y="-30.200001"
                 sodipodi:role="line"
                 id="tspan56">000000000</tspan></text>
</g><g
             id="g58"
             transform="scale(10,10)"><text
               transform="matrix(1,0,0,-1,158.316,142.419)"
               style="font-variant:normal;font-weight:normal;font-size:15.10000038px;font-family:Arial;-inkscape-font-specification:Arial;writing-mode:lr-tb;fill:#000000;fill-opacity:1;fill-rule:nonzero;stroke:none"
               id="text60"><tspan
                 x="0 15.1 30.200001 45.299999 60.400002 75.5 90.599998 105.7 120.8"
                 y="0"
                 sodipodi:role="line"
                 id="tspan62">111111111</tspan><tspan
                 x="0 15.1 30.200001 45.299999 60.400002 75.5 90.599998 105.7 120.8"
                 y="-15.1"
                 sodipodi:role="line"
                 id="tspan64">111111111</tspan><tspan
                 x="0 15.1 30.200001 45.299999 60.400002 75.5 90.599998 105.7 120.8"
                 y="-30.200001"
                 sodipodi:role="line"
                 id="tspan66">111111111</tspan></text>
</g></g></g><path
         d="m 1734.16,1442.74 1133.81,0 0,283.453 -1133.81,0 0,-283.453 z"
         style="fill:none;stroke:#000000;stroke-width:4.72419977;stroke-linecap:butt;stroke-linejoin:miter;stroke-miterlimit:10;stroke-dasharray:none;stroke-opacity:1"
         id="path68"
         inkscape:connector-curvature="0" /><g
         id="g70"><g
           id="g72"
           clip-path="url(#clipPath74)"><g
             id="g78"
             transform="scale(10,10)"><text
               transform="matrix(1,0,0,-1,73.2809,55.5285)"
               style="font-variant:normal;font-weight:normal;font-size:15.10000038px;font-family:Arial;-inkscape-font-specification:Arial;writing-mode:lr-tb;fill:#ffffff;fill-opacity:1;fill-rule:nonzero;stroke:none"
               id="text80"><tspan
                 x="0 15.1 30.200001 45.299999 60.400002 75.5 90.599998 105.7 120.8 135.89999 151"
                 y="0"
                 sodipodi:role="line"
                 id="tspan82">00000000000</tspan><tspan
                 x="0 15.1 30.200001 45.299999 60.400002 75.5 90.599998 105.7 120.8 135.89999 151"
                 y="-15.1"
                 sodipodi:role="line"
                 id="tspan84">00000000000</tspan><tspan
                 x="0 15.1 30.200001 45.299999 60.400002 75.5 90.599998 105.7 120.8 135.89999 151"
                 y="-30.200001"
                 sodipodi:role="line"
                 id="tspan86">00000000000</tspan><tspan
                 x="0 15.1 30.200001 45.299999 60.400002 75.5 90.599998 105.7 120.8 135.89999 151"
                 y="-45.299999"
                 sodipodi:role="line"
                 id="tspan88">00000000000</tspan></text>
</g><g
             id="g90"
             transform="scale(10,10)"><text
               transform="matrix(1,0,0,-1,73.2809,55.5285)"
               style="font-variant:normal;font-weight:normal;font-size:15.10000038px;font-family:Arial;-inkscape-font-specification:Arial;writing-mode:lr-tb;fill:#000000;fill-opacity:1;fill-rule:nonzero;stroke:none"
               id="text92"><tspan
                 x="0 15.1 30.200001 45.299999 60.400002 75.5 90.599998 105.7 120.8 135.89999 151"
                 y="0"
                 sodipodi:role="line"
                 id="tspan94">11111111111</tspan><tspan
                 x="0 15.1 30.200001 45.299999 60.400002 75.5 90.599998 105.7 120.8 135.89999 151"
                 y="-15.1"
                 sodipodi:role="line"
                 id="tspan96">11111111111</tspan><tspan
                 x="0 15.1 30.200001 45.299999 60.400002 75.5 90.599998 105.7 120.8 135.89999 151"
                 y="-30.200001"
                 sodipodi:role="line"
                 id="tspan98">11111111111</tspan><tspan
                 x="0 15.1 30.200001 45.299999 60.400002 75.5 90.599998 105.7 120.8 135.89999 151"
                 y="-45.299999"
                 sodipodi:role="line"
                 id="tspan100">11111111111</tspan></text>
</g></g></g><path
         d="m 883.809,592.383 1417.26,0 0,566.902 -1417.26,0 0,-566.902 z"
         style="fill:none;stroke:#000000;stroke-width:4.72419977;stroke-linecap:butt;stroke-linejoin:miter;stroke-miterlimit:10;stroke-dasharray:none;stroke-opacity:1"
         id="path102"
         inkscape:connector-curvature="0" /><g
         id="g104"><g
           id="g106"
           clip-path="url(#clipPath108)"><g
             id="g112"
             transform="scale(10,10)"><text
               transform="matrix(1,0,0,-1,116.726,114.074)"
               style="font-variant:normal;font-weight:normal;font-size:15.10000038px;font-family:Arial;-inkscape-font-specification:Arial;writing-mode:lr-tb;fill:#ffffff;fill-opacity:1;fill-rule:nonzero;stroke:none"
               id="text114"><tspan
                 x="0 15.1 30.200001 45.299999 60.400002 75.5"
                 y="0"
                 sodipodi:role="line"
                 id="tspan116">000000</tspan><tspan
                 x="0 15.1 30.200001 45.299999 60.400002 75.5"
                 y="-15.1"
                 sodipodi:role="line"
                 id="tspan118">000000</tspan></text>
</g><g
             id="g120"
             transform="scale(10,10)"><text
               transform="matrix(1,0,0,-1,116.726,114.074)"
               style="font-variant:normal;font-weight:normal;font-size:15.10000038px;font-family:Arial;-inkscape-font-specification:Arial;writing-mode:lr-tb;fill:#000000;fill-opacity:1;fill-rule:nonzero;stroke:none"
               id="text122"><tspan
                 x="0 15.1 30.200001 45.299999 60.400002 75.5"
                 y="0"
                 sodipodi:role="line"
                 id="tspan124">111111</tspan><tspan
                 x="0 15.1 30.200001 45.299999 60.400002 75.5"
                 y="-15.1"
                 sodipodi:role="line"
                 id="tspan126">111111</tspan></text>
</g></g></g><path
         d="m 1167.26,1159.29 850.355,0 0,283.453 -850.355,0 0,-283.453 z"
         style="fill:none;stroke:#000000;stroke-width:4.72419977;stroke-linecap:butt;stroke-linejoin:miter;stroke-miterlimit:10;stroke-dasharray:none;stroke-opacity:1"
         id="path128"
         inkscape:connector-curvature="0" /><path
         d="m 883.809,1442.74 2267.621,0"
         style="fill:none;stroke:#000000;stroke-width:4.72419977;stroke-linecap:butt;stroke-linejoin:miter;stroke-miterlimit:10;stroke-dasharray:none;stroke-opacity:1"
         id="path130"
         inkscape:connector-curvature="0" /><g
         id="g132"><g
           id="g134"
           clip-path="url(#clipPath136)"><g
             id="g140"
             transform="scale(10,10)"><text
               transform="matrix(1,0,0,-1,186.662,114.074)"
               style="font-variant:normal;font-weight:normal;font-size:15.10000038px;font-family:Arial;-inkscape-font-specification:Arial;writing-mode:lr-tb;fill:#ffffff;fill-opacity:1;fill-rule:nonzero;stroke:none"
               id="text142"><tspan
                 x="0 15.1 30.200001"
                 y="0"
                 sodipodi:role="line"
                 id="tspan144">000</tspan><tspan
                 x="0 15.1 30.200001"
                 y="-15.1"
                 sodipodi:role="line"
                 id="tspan146">000</tspan></text>
</g><g
             id="g148"
             transform="scale(10,10)"><text
               transform="matrix(1,0,0,-1,186.662,114.074)"
               style="font-variant:normal;font-weight:normal;font-size:15.10000038px;font-family:Arial;-inkscape-font-specification:Arial;writing-mode:lr-tb;fill:#000000;fill-opacity:1;fill-rule:nonzero;stroke:none"
               id="text150"><tspan
                 x="0 15.1 30.200001"
                 y="0"
                 sodipodi:role="line"
                 id="tspan152">111</tspan><tspan
                 x="0 15.1 30.200001"
                 y="-15.1"
                 sodipodi:role="line"
                 id="tspan154">111</tspan></text>
</g></g></g><path
         d="m 2017.62,1159.29 283.453,0 0,283.453 -283.453,0 0,-283.453 z"
         style="fill:none;stroke:#000000;stroke-width:4.72419977;stroke-linecap:butt;stroke-linejoin:miter;stroke-miterlimit:10;stroke-dasharray:none;stroke-opacity:1"
         id="path156"
         inkscape:connector-curvature="0" /><g
         id="g158"
         transform="scale(10,10)"><text
           transform="matrix(1,0,0,-1,272.184,141.88)"
           style="font-style:italic;font-variant:normal;font-weight:bold;font-size:17.00709915px;font-family:Times;-inkscape-font-specification:Times-BoldItalic;writing-mode:lr-tb;fill:#000000;fill-opacity:1;fill-rule:nonzero;stroke:none"
           id="text160"><tspan
             x="0"
             y="0"
             id="tspan162">j</tspan><tspan
             x="-99.712097"
             y="71.808197"
             id="tspan164">i</tspan><tspan
             x="-28.345301 -23.617327"
             y="-42.013802"
             sodipodi:role="line"
             id="tspan166">i’</tspan></text>
</g><path
         d="m 879.398,880.242 2267.622,0"
         style="fill:none;stroke:#000000;stroke-width:4.72419977;stroke-linecap:butt;stroke-linejoin:miter;stroke-miterlimit:10;stroke-dasharray:none;stroke-opacity:1"
         id="path168"
         inkscape:connector-curvature="0" /><path
         d="m 879.398,596.793 2267.62,0 0,1133.81 -2267.62,0 0,-1133.81 z"
         style="fill:none;stroke:#000000;stroke-width:9.44841003;stroke-linecap:butt;stroke-linejoin:miter;stroke-miterlimit:10;stroke-dasharray:none;stroke-opacity:1"
         id="path170"
         inkscape:connector-curvature="0" /><path
         d="m 1729.76,596.793 0,1133.807"
         style="fill:none;stroke:#000000;stroke-width:4.72419977;stroke-linecap:butt;stroke-linejoin:miter;stroke-miterlimit:10;stroke-dasharray:none;stroke-opacity:1"
         id="path172"
         inkscape:connector-curvature="0" /><path
         d="m 1701.41,809.695 c 0,-23.652 -19.18,-42.832 -42.83,-42.832 -23.65,0 -42.83,19.18 -42.83,42.832 0,23.653 19.18,42.832 42.83,42.832 23.65,0 42.83,-19.179 42.83,-42.832"
         style="fill:#000000;fill-opacity:1;fill-rule:evenodd;stroke:none"
         id="path174"
         inkscape:connector-curvature="0" /><path
         d="m 1701.41,809.695 c 0,-23.652 -19.18,-42.832 -42.83,-42.832 -23.65,0 -42.83,19.18 -42.83,42.832 0,23.653 19.18,42.832 42.83,42.832 23.65,0 42.83,-19.179 42.83,-42.832 z"
         style="fill:none;stroke:#000000;stroke-width:9.44841003;stroke-linecap:butt;stroke-linejoin:miter;stroke-miterlimit:10;stroke-dasharray:none;stroke-opacity:1"
         id="path176"
         inkscape:connector-curvature="0" /><path
         d="m 879.398,1163.7 2267.622,0"
         style="fill:none;stroke:#000000;stroke-width:4.72419977;stroke-linecap:butt;stroke-linejoin:miter;stroke-miterlimit:10;stroke-dasharray:none;stroke-opacity:1"
         id="path178"
         inkscape:connector-curvature="0" /><path
         d="m 2693.49,1518.33 c 0,-23.65 -19.18,-42.84 -42.83,-42.84 -23.65,0 -42.83,19.19 -42.83,42.84 0,23.65 19.18,42.83 42.83,42.83 23.65,0 42.83,-19.18 42.83,-42.83 z"
         style="fill:none;stroke:#000000;stroke-width:9.44841003;stroke-linecap:butt;stroke-linejoin:miter;stroke-miterlimit:10;stroke-dasharray:none;stroke-opacity:1"
         id="path180"
         inkscape:connector-curvature="0" /><path
         d="m 2934.11,1943.5 c 0,-313.09 -253.81,-566.9 -566.9,-566.9 -313.09,0 -566.91,253.81 -566.91,566.9 0,313.09 253.82,566.91 566.91,566.91 313.09,0 566.9,-253.82 566.9,-566.91 z"
         style="fill:none;stroke:#000000;stroke-width:4.72419977;stroke-linecap:butt;stroke-linejoin:miter;stroke-miterlimit:10;stroke-dasharray:37.7936;stroke-dashoffset:0;stroke-opacity:1"
         id="path182"
         inkscape:connector-curvature="0" /><path
         d="m 2225.48,809.695 c 0,-313.09 -253.81,-566.902 -566.9,-566.902 -313.09,0 -566.91,253.812 -566.91,566.902 0,313.095 253.82,566.905 566.91,566.905 313.09,0 566.9,-253.81 566.9,-566.905 z"
         style="fill:none;stroke:#000000;stroke-width:4.72419977;stroke-linecap:butt;stroke-linejoin:miter;stroke-miterlimit:10;stroke-dasharray:37.7936;stroke-dashoffset:0;stroke-opacity:1"
         id="path184"
         inkscape:connector-curvature="0" /><path
         d="m 2410.04,1943.5 c 0,-23.65 -19.18,-42.83 -42.83,-42.83 -23.66,0 -42.83,19.18 -42.83,42.83 0,23.66 19.17,42.84 42.83,42.84 23.65,0 42.83,-19.18 42.83,-42.84"
         style="fill:#000000;fill-opacity:1;fill-rule:evenodd;stroke:none"
         id="path186"
         inkscape:connector-curvature="0" /><path
         d="m 2410.04,1943.5 c 0,-23.65 -19.18,-42.83 -42.83,-42.83 -23.66,0 -42.83,19.18 -42.83,42.83 0,23.66 19.17,42.84 42.83,42.84 23.65,0 42.83,-19.18 42.83,-42.84 z"
         style="fill:none;stroke:#000000;stroke-width:9.44841003;stroke-linecap:butt;stroke-linejoin:miter;stroke-miterlimit:10;stroke-dasharray:none;stroke-opacity:1"
         id="path188"
         inkscape:connector-curvature="0" /><g
         id="g190"><g
           id="g192"
           clip-path="url(#clipPath194)"><g
             id="g198"
             clip-path="url(#clipPath200)"><g
               id="g204"
               clip-path="url(#clipPath206)"><g
                 id="g210"
                 transform="scale(10,10)"><text
                   transform="matrix(1,0,0,-1,2.90117,-12.1082)"
                   style="font-variant:normal;font-weight:normal;font-size:15.10000038px;font-family:Arial;-inkscape-font-specification:Arial;writing-mode:lr-tb;fill:#ffffff;fill-opacity:1;fill-rule:nonzero;stroke:none"
                   id="text212"><tspan
                     x="0 15.1 30.200001 45.299999 60.400002 75.5 90.599998 105.7 120.8 135.89999 151 166.10001 181.2 196.3 211.39999 226.5"
                     y="0"
                     sodipodi:role="line"
                     id="tspan214">0000000000000000</tspan></text>
</g><g
                 id="g216"
                 transform="scale(10,10)"><text
                   transform="matrix(1,0,0,-1,2.90117,-12.1082)"
                   style="font-variant:normal;font-weight:normal;font-size:15.10000038px;font-family:Arial;-inkscape-font-specification:Arial;writing-mode:lr-tb;fill:#000000;fill-opacity:1;fill-rule:nonzero;stroke:none"
                   id="text218"><tspan
                     x="0 15.1 30.200001 45.299999 60.400002 75.5 90.599998 105.7 120.8 135.89999 151 166.10001 181.2 196.3 211.39999 226.5"
                     y="0"
                     sodipodi:role="line"
                     id="tspan220">1111111111111111</tspan></text>
</g></g></g></g></g><g
         id="g222"><g
           id="g224"
           clip-path="url(#clipPath226)"><g
             id="g230"
             clip-path="url(#clipPath232)"><path
               d="m 29.043,29.8867 2267.617,0"
               style="fill:none;stroke:#000000;stroke-width:28.34519958;stroke-linecap:butt;stroke-linejoin:miter;stroke-miterlimit:10;stroke-dasharray:none;stroke-opacity:1"
               id="path236"
               inkscape:connector-curvature="0" /></g></g></g><path
         d="M 1935.73,105.477 2238.08,29.8867 1935.73,-45.6992"
         style="fill:none;stroke:#000000;stroke-width:28.34519958;stroke-linecap:butt;stroke-linejoin:miter;stroke-miterlimit:10;stroke-dasharray:none;stroke-opacity:1"
         id="path238"
         inkscape:connector-curvature="0" /><path
         d="m 1162.85,596.793 0,1133.807"
         style="fill:none;stroke:#000000;stroke-width:4.72419977;stroke-linecap:butt;stroke-linejoin:miter;stroke-miterlimit:10;stroke-dasharray:none;stroke-opacity:1"
         id="path240"
         inkscape:connector-curvature="0" /><g
         id="g242"><g
           id="g244"
           clip-path="url(#clipPath246)"><g
             id="g250"
             clip-path="url(#clipPath252)"><g
               id="g256"
               transform="scale(10,10)"><text
                 transform="matrix(1,0,0,-1,2.90117,-4.42734)"
                 style="font-variant:normal;font-weight:normal;font-size:15.10000038px;font-family:Arial;-inkscape-font-specification:Arial;writing-mode:lr-tb;fill:#ffffff;fill-opacity:1;fill-rule:nonzero;stroke:none"
                 id="text258"><tspan
                   x="0 15.1 30.200001 45.299999 60.400002"
                   y="0"
                   sodipodi:role="line"
                   id="tspan260">00000</tspan><tspan
                   x="0 15.1 30.200001 45.299999 60.400002"
                   y="-15.1"
                   sodipodi:role="line"
                   id="tspan262">00000</tspan><tspan
                   x="0 15.1 30.200001 45.299999 60.400002"
                   y="-30.200001"
                   sodipodi:role="line"
                   id="tspan264">00000</tspan><tspan
                   x="0 15.1 30.200001 45.299999 60.400002"
                   y="-45.299999"
                   sodipodi:role="line"
                   id="tspan266">00000</tspan><tspan
                   x="0 15.1 30.200001 45.299999 60.400002"
                   y="-60.400002"
                   sodipodi:role="line"
                   id="tspan268">00000</tspan><tspan
                   x="0 15.1 30.200001 45.299999 60.400002"
                   y="-75.5"
                   sodipodi:role="line"
                   id="tspan270">00000</tspan><tspan
                   x="0 15.1 30.200001 45.299999 60.400002"
                   y="-90.599998"
                   sodipodi:role="line"
                   id="tspan272">00000</tspan><tspan
                   x="0 15.1 30.200001 45.299999 60.400002"
                   y="-105.7"
                   sodipodi:role="line"
                   id="tspan274">00000</tspan></text>
</g><g
               id="g276"
               transform="scale(10,10)"><text
                 transform="matrix(1,0,0,-1,2.90117,-4.42734)"
                 style="font-variant:normal;font-weight:normal;font-size:15.10000038px;font-family:Arial;-inkscape-font-specification:Arial;writing-mode:lr-tb;fill:#000000;fill-opacity:1;fill-rule:nonzero;stroke:none"
                 id="text278"><tspan
                   x="0 15.1 30.200001 45.299999 60.400002"
                   y="0"
                   sodipodi:role="line"
                   id="tspan280">11111</tspan><tspan
                   x="0 15.1 30.200001 45.299999 60.400002"
                   y="-15.1"
                   sodipodi:role="line"
                   id="tspan282">11111</tspan><tspan
                   x="0 15.1 30.200001 45.299999 60.400002"
                   y="-30.200001"
                   sodipodi:role="line"
                   id="tspan284">11111</tspan><tspan
                   x="0 15.1 30.200001 45.299999 60.400002"
                   y="-45.299999"
                   sodipodi:role="line"
                   id="tspan286">11111</tspan><tspan
                   x="0 15.1 30.200001 45.299999 60.400002"
                   y="-60.400002"
                   sodipodi:role="line"
                   id="tspan288">11111</tspan><tspan
                   x="0 15.1 30.200001 45.299999 60.400002"
                   y="-75.5"
                   sodipodi:role="line"
                   id="tspan290">11111</tspan><tspan
                   x="0 15.1 30.200001 45.299999 60.400002"
                   y="-90.599998"
                   sodipodi:role="line"
                   id="tspan292">11111</tspan><tspan
                   x="0 15.1 30.200001 45.299999 60.400002"
                   y="-105.7"
                   sodipodi:role="line"
                   id="tspan294">11111</tspan></text>
</g></g></g></g><g
         id="g296"><g
           id="g298"
           clip-path="url(#clipPath300)"><path
             d="M 29.043,29.8867 737.672,1163.7"
             style="fill:none;stroke:#000000;stroke-width:28.34519958;stroke-linecap:butt;stroke-linejoin:miter;stroke-miterlimit:10;stroke-dasharray:none;stroke-opacity:1"
             id="path304"
             inkscape:connector-curvature="0" /></g></g><path
         d="M 482.566,897.883 706.18,1114.57 610.434,817.883"
         style="fill:none;stroke:#000000;stroke-width:28.34519958;stroke-linecap:butt;stroke-linejoin:miter;stroke-miterlimit:10;stroke-dasharray:none;stroke-opacity:1"
         id="path306"
         inkscape:connector-curvature="0" /><path
         d="m 2863.57,596.793 0,1133.807"
         style="fill:none;stroke:#000000;stroke-width:4.72419977;stroke-linecap:butt;stroke-linejoin:miter;stroke-miterlimit:10;stroke-dasharray:none;stroke-opacity:1"
         id="path308"
         inkscape:connector-curvature="0" /><path
         d="m 2580.11,596.793 0,1133.807"
         style="fill:none;stroke:#000000;stroke-width:4.72419977;stroke-linecap:butt;stroke-linejoin:miter;stroke-miterlimit:10;stroke-dasharray:none;stroke-opacity:1"
         id="path310"
         inkscape:connector-curvature="0" /><path
         d="m 2296.66,596.793 0,1133.807"
         style="fill:none;stroke:#000000;stroke-width:4.72419977;stroke-linecap:butt;stroke-linejoin:miter;stroke-miterlimit:10;stroke-dasharray:none;stroke-opacity:1"
         id="path312"
         inkscape:connector-curvature="0" /><path
         d="m 2013.21,596.793 0,1133.807"
         style="fill:none;stroke:#000000;stroke-width:4.72419977;stroke-linecap:butt;stroke-linejoin:miter;stroke-miterlimit:10;stroke-dasharray:none;stroke-opacity:1"
         id="path314"
         inkscape:connector-curvature="0" /><path
         d="m 1446.3,596.793 0,1133.807"
         style="fill:none;stroke:#000000;stroke-width:4.72419977;stroke-linecap:butt;stroke-linejoin:miter;stroke-miterlimit:10;stroke-dasharray:none;stroke-opacity:1"
         id="path316"
         inkscape:connector-curvature="0" /></g></g></svg>