<?xml version="1.0" encoding="UTF-8" standalone="no"?>
<!-- Created with Inkscape (http://www.inkscape.org/) -->

<svg
   xmlns:dc="http://purl.org/dc/elements/1.1/"
   xmlns:cc="http://creativecommons.org/ns#"
   xmlns:rdf="http://www.w3.org/1999/02/22-rdf-syntax-ns#"
   xmlns:svg="http://www.w3.org/2000/svg"
   xmlns="http://www.w3.org/2000/svg"
   xmlns:sodipodi="http://sodipodi.sourceforge.net/DTD/sodipodi-0.dtd"
   xmlns:inkscape="http://www.inkscape.org/namespaces/inkscape"
   id="svg2"
   version="1.1"
   inkscape:version="0.91 r13725"
   xml:space="preserve"
   width="645"
   height="857.5"
   viewBox="0 0 645 857.5"
   sodipodi:docname="par-lincs2.svg"><metadata
     id="metadata8"><rdf:RDF><cc:Work
         rdf:about=""><dc:format>image/svg+xml</dc:format><dc:type
           rdf:resource="http://purl.org/dc/dcmitype/StillImage" /><dc:title></dc:title></cc:Work></rdf:RDF></metadata><defs
     id="defs6"><clipPath
       clipPathUnits="userSpaceOnUse"
       id="clipPath184"><path
         d="M 0,6860 0,0 l 5160,0 0,6860 -5160,0 z m 2225.63,-264.14 41.57,62.99 -151.17,99.53 105.82,-114.65 -147.39,51.66 151.17,-99.53 z"
         id="path186"
         inkscape:connector-curvature="0"
         style="clip-rule:evenodd" /></clipPath><clipPath
       clipPathUnits="userSpaceOnUse"
       id="clipPath198"><path
         d="M 0,6860 0,0 l 5160,0 0,6860 -5160,0 z m 3926.36,-264.14 41.57,62.99 -151.17,99.53 105.82,-114.65 -147.39,51.66 151.17,-99.53 z"
         id="path200"
         inkscape:connector-curvature="0"
         style="clip-rule:evenodd" /></clipPath><clipPath
       clipPathUnits="userSpaceOnUse"
       id="clipPath212"><path
         d="M 0,6860 0,0 l 5160,0 0,6860 -5160,0 z m 2931.75,-1352.61 -41.57,-62.98 151.17,-99.53 -105.19,114.01 146.77,-51.02 -151.18,99.52 z"
         id="path214"
         inkscape:connector-curvature="0"
         style="clip-rule:evenodd" /></clipPath><clipPath
       clipPathUnits="userSpaceOnUse"
       id="clipPath226"><path
         d="M 0,6860 0,0 l 5160,0 0,6860 -5160,0 z m 1231.02,-1352.61 -41.57,-62.98 151.17,-99.53 -105.19,114.01 146.77,-51.02 -151.18,99.52 z"
         id="path228"
         inkscape:connector-curvature="0"
         style="clip-rule:evenodd" /></clipPath></defs><sodipodi:namedview
     pagecolor="#ffffff"
     bordercolor="#666666"
     borderopacity="1"
     objecttolerance="10"
     gridtolerance="10"
     guidetolerance="10"
     inkscape:pageopacity="0"
     inkscape:pageshadow="2"
     inkscape:window-width="760"
     inkscape:window-height="480"
     id="namedview4"
     showgrid="false"
     inkscape:zoom="0.27521866"
     inkscape:cx="322.5"
     inkscape:cy="428.75"
     inkscape:window-x="0"
     inkscape:window-y="25"
     inkscape:window-maximized="0"
     inkscape:current-layer="g10" /><g
     id="g10"
     inkscape:groupmode="layer"
     inkscape:label="ink_ext_XXXXXX"
     transform="matrix(1.25,0,0,-1.25,0,857.5)"><g
       id="g12"
       transform="scale(0.1,0.1)"><path
         d="m 1020,6122.18 0,283.45"
         style="fill:none;stroke:#000000;stroke-width:28.34550095;stroke-linecap:butt;stroke-linejoin:miter;stroke-miterlimit:10;stroke-dasharray:none;stroke-opacity:1"
         id="path14"
         inkscape:connector-curvature="0" /><path
         d="m 453.094,6122.18 0,283.45"
         style="fill:none;stroke:#000000;stroke-width:28.34550095;stroke-linecap:butt;stroke-linejoin:miter;stroke-miterlimit:10;stroke-dasharray:none;stroke-opacity:1"
         id="path16"
         inkscape:connector-curvature="0" /><path
         d="m 736.547,5697 0,283.45"
         style="fill:none;stroke:#000000;stroke-width:28.34550095;stroke-linecap:butt;stroke-linejoin:miter;stroke-miterlimit:10;stroke-dasharray:none;stroke-opacity:1"
         id="path18"
         inkscape:connector-curvature="0" /><path
         d="m 1303.46,5697 0,283.45"
         style="fill:none;stroke:#000000;stroke-width:28.34550095;stroke-linecap:butt;stroke-linejoin:miter;stroke-miterlimit:10;stroke-dasharray:none;stroke-opacity:1"
         id="path20"
         inkscape:connector-curvature="0" /><path
         d="m 1586.91,6122.18 0,283.45"
         style="fill:none;stroke:#000000;stroke-width:28.34550095;stroke-linecap:butt;stroke-linejoin:miter;stroke-miterlimit:10;stroke-dasharray:none;stroke-opacity:1"
         id="path22"
         inkscape:connector-curvature="0" /><path
         d="m 1870.37,5697 0,283.45"
         style="fill:none;stroke:#000000;stroke-width:28.34550095;stroke-linecap:butt;stroke-linejoin:miter;stroke-miterlimit:10;stroke-dasharray:none;stroke-opacity:1"
         id="path24"
         inkscape:connector-curvature="0" /><path
         d="m 2153.82,6122.18 0,283.45"
         style="fill:none;stroke:#000000;stroke-width:28.34550095;stroke-linecap:butt;stroke-linejoin:miter;stroke-miterlimit:10;stroke-dasharray:none;stroke-opacity:1"
         id="path26"
         inkscape:connector-curvature="0" /><path
         d="m 169.637,5980.45 283.457,141.73 283.453,-141.73 283.453,141.73 283.46,-141.73 283.45,141.73 283.46,-141.73 283.45,141.73 283.46,-141.73 283.45,141.73 283.46,-141.73 283.45,141.73 283.46,-141.73 283.45,141.73 283.46,-141.73 283.45,141.73"
         style="fill:none;stroke:#000000;stroke-width:28.34550095;stroke-linecap:butt;stroke-linejoin:miter;stroke-miterlimit:10;stroke-dasharray:none;stroke-opacity:1"
         id="path28"
         inkscape:connector-curvature="0" /><path
         d="m 2437.28,5697 0,283.45"
         style="fill:none;stroke:#000000;stroke-width:28.34550095;stroke-linecap:butt;stroke-linejoin:miter;stroke-miterlimit:10;stroke-dasharray:none;stroke-opacity:1"
         id="path30"
         inkscape:connector-curvature="0" /><path
         d="m 3004.19,5697 0,283.45"
         style="fill:none;stroke:#000000;stroke-width:28.34550095;stroke-linecap:butt;stroke-linejoin:miter;stroke-miterlimit:10;stroke-dasharray:none;stroke-opacity:1"
         id="path32"
         inkscape:connector-curvature="0" /><path
         d="m 3287.64,6122.18 0,283.45"
         style="fill:none;stroke:#000000;stroke-width:28.34550095;stroke-linecap:butt;stroke-linejoin:miter;stroke-miterlimit:10;stroke-dasharray:none;stroke-opacity:1"
         id="path34"
         inkscape:connector-curvature="0" /><path
         d="m 3854.55,6122.18 0,283.45"
         style="fill:none;stroke:#000000;stroke-width:28.34550095;stroke-linecap:butt;stroke-linejoin:miter;stroke-miterlimit:10;stroke-dasharray:none;stroke-opacity:1"
         id="path36"
         inkscape:connector-curvature="0" /><path
         d="m 169.637,5980.45 283.457,141.73 283.453,-141.73 283.453,141.73 283.46,-141.73 283.45,141.73 283.46,-141.73 283.45,141.73 283.46,-141.73 283.45,141.73 283.46,-141.73 283.45,141.73 283.46,-141.73 283.45,141.73 283.46,-141.73 283.45,141.73"
         style="fill:none;stroke:#000000;stroke-width:9.44849968;stroke-linecap:butt;stroke-linejoin:miter;stroke-miterlimit:10;stroke-dasharray:none;stroke-opacity:1"
         id="path38"
         inkscape:connector-curvature="0" /><path
         d="m 3571.1,5697 0,283.45"
         style="fill:none;stroke:#000000;stroke-width:28.34550095;stroke-linecap:butt;stroke-linejoin:miter;stroke-miterlimit:10;stroke-dasharray:none;stroke-opacity:1"
         id="path40"
         inkscape:connector-curvature="0" /><path
         d="m 4138.01,5697 0,283.45"
         style="fill:none;stroke:#000000;stroke-width:28.34550095;stroke-linecap:butt;stroke-linejoin:miter;stroke-miterlimit:10;stroke-dasharray:none;stroke-opacity:1"
         id="path42"
         inkscape:connector-curvature="0" /><path
         d="m 2720.73,6122.18 0,283.45"
         style="fill:none;stroke:#000000;stroke-width:28.34550095;stroke-linecap:butt;stroke-linejoin:miter;stroke-miterlimit:10;stroke-dasharray:none;stroke-opacity:1"
         id="path44"
         inkscape:connector-curvature="0" /><path
         d="m 226.328,5980.45 c 0,-31.31 -25.383,-56.69 -56.691,-56.69 -31.309,0 -56.692,25.38 -56.692,56.69 0,31.31 25.383,56.69 56.692,56.69 31.308,0 56.691,-25.38 56.691,-56.69"
         style="fill:#ff0000;fill-opacity:1;fill-rule:evenodd;stroke:none"
         id="path46"
         inkscape:connector-curvature="0" /><path
         d="m 226.328,5980.45 c 0,-31.31 -25.383,-56.69 -56.691,-56.69 -31.309,0 -56.692,25.38 -56.692,56.69 0,31.31 25.383,56.69 56.692,56.69 31.308,0 56.691,-25.38 56.691,-56.69 z"
         style="fill:none;stroke:#ff0000;stroke-width:9.44849968;stroke-linecap:butt;stroke-linejoin:miter;stroke-miterlimit:10;stroke-dasharray:none;stroke-opacity:1"
         id="path48"
         inkscape:connector-curvature="0" /><path
         d="m 509.785,6122.18 c 0,-31.31 -25.383,-56.69 -56.691,-56.69 -31.309,0 -56.692,25.38 -56.692,56.69 0,31.3 25.383,56.69 56.692,56.69 31.308,0 56.691,-25.39 56.691,-56.69"
         style="fill:#ff0000;fill-opacity:1;fill-rule:evenodd;stroke:none"
         id="path50"
         inkscape:connector-curvature="0" /><path
         d="m 509.785,6122.18 c 0,-31.31 -25.383,-56.69 -56.691,-56.69 -31.309,0 -56.692,25.38 -56.692,56.69 0,31.3 25.383,56.69 56.692,56.69 31.308,0 56.691,-25.39 56.691,-56.69 z"
         style="fill:none;stroke:#ff0000;stroke-width:9.44849968;stroke-linecap:butt;stroke-linejoin:miter;stroke-miterlimit:10;stroke-dasharray:none;stroke-opacity:1"
         id="path52"
         inkscape:connector-curvature="0" /><path
         d="m 509.785,6405.63 c 0,-31.31 -25.383,-56.69 -56.691,-56.69 -31.309,0 -56.692,25.38 -56.692,56.69 0,31.31 25.383,56.69 56.692,56.69 31.308,0 56.691,-25.38 56.691,-56.69"
         style="fill:#ff0000;fill-opacity:1;fill-rule:evenodd;stroke:none"
         id="path54"
         inkscape:connector-curvature="0" /><path
         d="m 509.785,6405.63 c 0,-31.31 -25.383,-56.69 -56.691,-56.69 -31.309,0 -56.692,25.38 -56.692,56.69 0,31.31 25.383,56.69 56.692,56.69 31.308,0 56.691,-25.38 56.691,-56.69 z"
         style="fill:none;stroke:#ff0000;stroke-width:9.44849968;stroke-linecap:butt;stroke-linejoin:miter;stroke-miterlimit:10;stroke-dasharray:none;stroke-opacity:1"
         id="path56"
         inkscape:connector-curvature="0" /><path
         d="m 1076.7,6405.63 c 0,-31.31 -25.39,-56.69 -56.7,-56.69 -31.305,0 -56.687,25.38 -56.687,56.69 0,31.31 25.382,56.69 56.687,56.69 31.31,0 56.7,-25.38 56.7,-56.69"
         style="fill:#ff0000;fill-opacity:1;fill-rule:evenodd;stroke:none"
         id="path58"
         inkscape:connector-curvature="0" /><path
         d="m 1076.7,6405.63 c 0,-31.31 -25.39,-56.69 -56.7,-56.69 -31.305,0 -56.687,25.38 -56.687,56.69 0,31.31 25.382,56.69 56.687,56.69 31.31,0 56.7,-25.38 56.7,-56.69 z"
         style="fill:none;stroke:#ff0000;stroke-width:9.44849968;stroke-linecap:butt;stroke-linejoin:miter;stroke-miterlimit:10;stroke-dasharray:none;stroke-opacity:1"
         id="path60"
         inkscape:connector-curvature="0" /><path
         d="m 793.238,5980.45 c 0,-31.31 -25.383,-56.69 -56.691,-56.69 -31.309,0 -56.692,25.38 -56.692,56.69 0,31.31 25.383,56.69 56.692,56.69 31.308,0 56.691,-25.38 56.691,-56.69"
         style="fill:#ff0000;fill-opacity:1;fill-rule:evenodd;stroke:none"
         id="path62"
         inkscape:connector-curvature="0" /><path
         d="m 793.238,5980.45 c 0,-31.31 -25.383,-56.69 -56.691,-56.69 -31.309,0 -56.692,25.38 -56.692,56.69 0,31.31 25.383,56.69 56.692,56.69 31.308,0 56.691,-25.38 56.691,-56.69 z"
         style="fill:none;stroke:#ff0000;stroke-width:9.44849968;stroke-linecap:butt;stroke-linejoin:miter;stroke-miterlimit:10;stroke-dasharray:none;stroke-opacity:1"
         id="path64"
         inkscape:connector-curvature="0" /><path
         d="m 793.238,5697 c 0,-31.31 -25.383,-56.7 -56.691,-56.7 -31.309,0 -56.692,25.39 -56.692,56.7 0,31.3 25.383,56.69 56.692,56.69 31.308,0 56.691,-25.39 56.691,-56.69"
         style="fill:#ff0000;fill-opacity:1;fill-rule:evenodd;stroke:none"
         id="path66"
         inkscape:connector-curvature="0" /><path
         d="m 793.238,5697 c 0,-31.31 -25.383,-56.7 -56.691,-56.7 -31.309,0 -56.692,25.39 -56.692,56.7 0,31.3 25.383,56.69 56.692,56.69 31.308,0 56.691,-25.39 56.691,-56.69 z"
         style="fill:none;stroke:#ff0000;stroke-width:9.44849968;stroke-linecap:butt;stroke-linejoin:miter;stroke-miterlimit:10;stroke-dasharray:none;stroke-opacity:1"
         id="path68"
         inkscape:connector-curvature="0" /><path
         d="m 1360.15,5697 c 0,-31.31 -25.38,-56.7 -56.69,-56.7 -31.31,0 -56.69,25.39 -56.69,56.7 0,31.3 25.38,56.69 56.69,56.69 31.31,0 56.69,-25.39 56.69,-56.69"
         style="fill:#ff0000;fill-opacity:1;fill-rule:evenodd;stroke:none"
         id="path70"
         inkscape:connector-curvature="0" /><path
         d="m 1360.15,5697 c 0,-31.31 -25.38,-56.7 -56.69,-56.7 -31.31,0 -56.69,25.39 -56.69,56.7 0,31.3 25.38,56.69 56.69,56.69 31.31,0 56.69,-25.39 56.69,-56.69 z"
         style="fill:none;stroke:#ff0000;stroke-width:9.44849968;stroke-linecap:butt;stroke-linejoin:miter;stroke-miterlimit:10;stroke-dasharray:none;stroke-opacity:1"
         id="path72"
         inkscape:connector-curvature="0" /><path
         d="m 1360.15,5980.45 c 0,-31.31 -25.38,-56.69 -56.69,-56.69 -31.31,0 -56.69,25.38 -56.69,56.69 0,31.31 25.38,56.69 56.69,56.69 31.31,0 56.69,-25.38 56.69,-56.69"
         style="fill:#ff0000;fill-opacity:1;fill-rule:evenodd;stroke:none"
         id="path74"
         inkscape:connector-curvature="0" /><path
         d="m 1360.15,5980.45 c 0,-31.31 -25.38,-56.69 -56.69,-56.69 -31.31,0 -56.69,25.38 -56.69,56.69 0,31.31 25.38,56.69 56.69,56.69 31.31,0 56.69,-25.38 56.69,-56.69 z"
         style="fill:none;stroke:#ff0000;stroke-width:9.44849968;stroke-linecap:butt;stroke-linejoin:miter;stroke-miterlimit:10;stroke-dasharray:none;stroke-opacity:1"
         id="path76"
         inkscape:connector-curvature="0" /><path
         d="m 1643.61,6405.63 c 0,-31.31 -25.39,-56.69 -56.7,-56.69 -31.3,0 -56.69,25.38 -56.69,56.69 0,31.31 25.39,56.69 56.69,56.69 31.31,0 56.7,-25.38 56.7,-56.69"
         style="fill:#ff0000;fill-opacity:1;fill-rule:evenodd;stroke:none"
         id="path78"
         inkscape:connector-curvature="0" /><path
         d="m 1643.61,6405.63 c 0,-31.31 -25.39,-56.69 -56.7,-56.69 -31.3,0 -56.69,25.38 -56.69,56.69 0,31.31 25.39,56.69 56.69,56.69 31.31,0 56.7,-25.38 56.7,-56.69 z"
         style="fill:none;stroke:#ff0000;stroke-width:9.44849968;stroke-linecap:butt;stroke-linejoin:miter;stroke-miterlimit:10;stroke-dasharray:none;stroke-opacity:1"
         id="path80"
         inkscape:connector-curvature="0" /><path
         d="m 2493.97,5697 c 0,-31.31 -25.38,-56.7 -56.69,-56.7 -31.31,0 -56.69,25.39 -56.69,56.7 0,31.3 25.38,56.69 56.69,56.69 31.31,0 56.69,-25.39 56.69,-56.69"
         style="fill:#00d100;fill-opacity:1;fill-rule:evenodd;stroke:none"
         id="path82"
         inkscape:connector-curvature="0" /><path
         d="m 2493.97,5697 c 0,-31.31 -25.38,-56.7 -56.69,-56.7 -31.31,0 -56.69,25.39 -56.69,56.7 0,31.3 25.38,56.69 56.69,56.69 31.31,0 56.69,-25.39 56.69,-56.69 z"
         style="fill:none;stroke:#00d100;stroke-width:9.44849968;stroke-linecap:butt;stroke-linejoin:miter;stroke-miterlimit:10;stroke-dasharray:none;stroke-opacity:1"
         id="path84"
         inkscape:connector-curvature="0" /><path
         d="m 1927.06,5697 c 0,-31.31 -25.38,-56.7 -56.69,-56.7 -31.31,0 -56.69,25.39 -56.69,56.7 0,31.3 25.38,56.69 56.69,56.69 31.31,0 56.69,-25.39 56.69,-56.69"
         style="fill:#00d100;fill-opacity:1;fill-rule:evenodd;stroke:none"
         id="path86"
         inkscape:connector-curvature="0" /><path
         d="m 1927.06,5697 c 0,-31.31 -25.38,-56.7 -56.69,-56.7 -31.31,0 -56.69,25.39 -56.69,56.7 0,31.3 25.38,56.69 56.69,56.69 31.31,0 56.69,-25.39 56.69,-56.69 z"
         style="fill:none;stroke:#00d100;stroke-width:9.44849968;stroke-linecap:butt;stroke-linejoin:miter;stroke-miterlimit:10;stroke-dasharray:none;stroke-opacity:1"
         id="path88"
         inkscape:connector-curvature="0" /><path
         d="m 2210.52,6405.63 c 0,-31.31 -25.39,-56.69 -56.7,-56.69 -31.3,0 -56.69,25.38 -56.69,56.69 0,31.31 25.39,56.69 56.69,56.69 31.31,0 56.7,-25.38 56.7,-56.69"
         style="fill:#00d100;fill-opacity:1;fill-rule:evenodd;stroke:none"
         id="path90"
         inkscape:connector-curvature="0" /><path
         d="m 2210.52,6405.63 c 0,-31.31 -25.39,-56.69 -56.7,-56.69 -31.3,0 -56.69,25.38 -56.69,56.69 0,31.31 25.39,56.69 56.69,56.69 31.31,0 56.7,-25.38 56.7,-56.69 z"
         style="fill:none;stroke:#00d100;stroke-width:9.44849968;stroke-linecap:butt;stroke-linejoin:miter;stroke-miterlimit:10;stroke-dasharray:none;stroke-opacity:1"
         id="path92"
         inkscape:connector-curvature="0" /><path
         d="m 2777.42,6405.63 c 0,-31.31 -25.38,-56.69 -56.69,-56.69 -31.3,0 -56.69,25.38 -56.69,56.69 0,31.31 25.39,56.69 56.69,56.69 31.31,0 56.69,-25.38 56.69,-56.69"
         style="fill:#00d100;fill-opacity:1;fill-rule:evenodd;stroke:none"
         id="path94"
         inkscape:connector-curvature="0" /><path
         d="m 2777.42,6405.63 c 0,-31.31 -25.38,-56.69 -56.69,-56.69 -31.3,0 -56.69,25.38 -56.69,56.69 0,31.31 25.39,56.69 56.69,56.69 31.31,0 56.69,-25.38 56.69,-56.69 z"
         style="fill:none;stroke:#00d100;stroke-width:9.44849968;stroke-linecap:butt;stroke-linejoin:miter;stroke-miterlimit:10;stroke-dasharray:none;stroke-opacity:1"
         id="path96"
         inkscape:connector-curvature="0" /><path
         d="m 2777.42,6122.18 c 0,-31.31 -25.38,-56.69 -56.69,-56.69 -31.3,0 -56.69,25.38 -56.69,56.69 0,31.3 25.39,56.69 56.69,56.69 31.31,0 56.69,-25.39 56.69,-56.69"
         style="fill:#00d100;fill-opacity:1;fill-rule:evenodd;stroke:none"
         id="path98"
         inkscape:connector-curvature="0" /><path
         d="m 2777.42,6122.18 c 0,-31.31 -25.38,-56.69 -56.69,-56.69 -31.3,0 -56.69,25.38 -56.69,56.69 0,31.3 25.39,56.69 56.69,56.69 31.31,0 56.69,-25.39 56.69,-56.69 z"
         style="fill:none;stroke:#00d100;stroke-width:9.44849968;stroke-linecap:butt;stroke-linejoin:miter;stroke-miterlimit:10;stroke-dasharray:none;stroke-opacity:1"
         id="path100"
         inkscape:connector-curvature="0" /><path
         d="m 3060.88,5980.45 c 0,-31.31 -25.38,-56.69 -56.69,-56.69 -31.31,0 -56.69,25.38 -56.69,56.69 0,31.31 25.38,56.69 56.69,56.69 31.31,0 56.69,-25.38 56.69,-56.69"
         style="fill:#00d100;fill-opacity:1;fill-rule:evenodd;stroke:none"
         id="path102"
         inkscape:connector-curvature="0" /><path
         d="m 3060.88,5980.45 c 0,-31.31 -25.38,-56.69 -56.69,-56.69 -31.31,0 -56.69,25.38 -56.69,56.69 0,31.31 25.38,56.69 56.69,56.69 31.31,0 56.69,-25.38 56.69,-56.69 z"
         style="fill:none;stroke:#00d100;stroke-width:9.44849968;stroke-linecap:butt;stroke-linejoin:miter;stroke-miterlimit:10;stroke-dasharray:none;stroke-opacity:1"
         id="path104"
         inkscape:connector-curvature="0" /><path
         d="m 3344.33,6122.18 c 0,-31.31 -25.38,-56.69 -56.69,-56.69 -31.3,0 -56.69,25.38 -56.69,56.69 0,31.3 25.39,56.69 56.69,56.69 31.31,0 56.69,-25.39 56.69,-56.69"
         style="fill:#00d100;fill-opacity:1;fill-rule:evenodd;stroke:none"
         id="path106"
         inkscape:connector-curvature="0" /><path
         d="m 3344.33,6122.18 c 0,-31.31 -25.38,-56.69 -56.69,-56.69 -31.3,0 -56.69,25.38 -56.69,56.69 0,31.3 25.39,56.69 56.69,56.69 31.31,0 56.69,-25.39 56.69,-56.69 z"
         style="fill:none;stroke:#00d100;stroke-width:9.44849968;stroke-linecap:butt;stroke-linejoin:miter;stroke-miterlimit:10;stroke-dasharray:none;stroke-opacity:1"
         id="path108"
         inkscape:connector-curvature="0" /><path
         d="m 3344.33,6405.63 c 0,-31.31 -25.38,-56.69 -56.69,-56.69 -31.3,0 -56.69,25.38 -56.69,56.69 0,31.31 25.39,56.69 56.69,56.69 31.31,0 56.69,-25.38 56.69,-56.69"
         style="fill:#00d100;fill-opacity:1;fill-rule:evenodd;stroke:none"
         id="path110"
         inkscape:connector-curvature="0" /><path
         d="m 3344.33,6405.63 c 0,-31.31 -25.38,-56.69 -56.69,-56.69 -31.3,0 -56.69,25.38 -56.69,56.69 0,31.31 25.39,56.69 56.69,56.69 31.31,0 56.69,-25.38 56.69,-56.69 z"
         style="fill:none;stroke:#00d100;stroke-width:9.44849968;stroke-linecap:butt;stroke-linejoin:miter;stroke-miterlimit:10;stroke-dasharray:none;stroke-opacity:1"
         id="path112"
         inkscape:connector-curvature="0" /><path
         d="m 3911.24,6405.63 c 0,-31.31 -25.38,-56.69 -56.69,-56.69 -31.3,0 -56.69,25.38 -56.69,56.69 0,31.31 25.39,56.69 56.69,56.69 31.31,0 56.69,-25.38 56.69,-56.69"
         style="fill:#0000ff;fill-opacity:1;fill-rule:evenodd;stroke:none"
         id="path114"
         inkscape:connector-curvature="0" /><path
         d="m 3911.24,6405.63 c 0,-31.31 -25.38,-56.69 -56.69,-56.69 -31.3,0 -56.69,25.38 -56.69,56.69 0,31.31 25.39,56.69 56.69,56.69 31.31,0 56.69,-25.38 56.69,-56.69 z"
         style="fill:none;stroke:#0000ff;stroke-width:9.44849968;stroke-linecap:butt;stroke-linejoin:miter;stroke-miterlimit:10;stroke-dasharray:none;stroke-opacity:1"
         id="path116"
         inkscape:connector-curvature="0" /><path
         d="m 3627.79,5980.45 c 0,-31.31 -25.38,-56.69 -56.69,-56.69 -31.31,0 -56.69,25.38 -56.69,56.69 0,31.31 25.38,56.69 56.69,56.69 31.31,0 56.69,-25.38 56.69,-56.69"
         style="fill:#0000ff;fill-opacity:1;fill-rule:evenodd;stroke:none"
         id="path118"
         inkscape:connector-curvature="0" /><path
         d="m 3627.79,5980.45 c 0,-31.31 -25.38,-56.69 -56.69,-56.69 -31.31,0 -56.69,25.38 -56.69,56.69 0,31.31 25.38,56.69 56.69,56.69 31.31,0 56.69,-25.38 56.69,-56.69 z"
         style="fill:none;stroke:#0000ff;stroke-width:9.44849968;stroke-linecap:butt;stroke-linejoin:miter;stroke-miterlimit:10;stroke-dasharray:none;stroke-opacity:1"
         id="path120"
         inkscape:connector-curvature="0" /><path
         d="m 3627.79,5697 c 0,-31.31 -25.38,-56.7 -56.69,-56.7 -31.31,0 -56.69,25.39 -56.69,56.7 0,31.3 25.38,56.69 56.69,56.69 31.31,0 56.69,-25.39 56.69,-56.69"
         style="fill:#0000ff;fill-opacity:1;fill-rule:evenodd;stroke:none"
         id="path122"
         inkscape:connector-curvature="0" /><path
         d="m 3627.79,5697 c 0,-31.31 -25.38,-56.7 -56.69,-56.7 -31.31,0 -56.69,25.39 -56.69,56.7 0,31.3 25.38,56.69 56.69,56.69 31.31,0 56.69,-25.39 56.69,-56.69 z"
         style="fill:none;stroke:#0000ff;stroke-width:9.44849968;stroke-linecap:butt;stroke-linejoin:miter;stroke-miterlimit:10;stroke-dasharray:none;stroke-opacity:1"
         id="path124"
         inkscape:connector-curvature="0" /><path
         d="m 4194.7,5697 c 0,-31.31 -25.38,-56.7 -56.69,-56.7 -31.31,0 -56.69,25.39 -56.69,56.7 0,31.3 25.38,56.69 56.69,56.69 31.31,0 56.69,-25.39 56.69,-56.69"
         style="fill:#0000ff;fill-opacity:1;fill-rule:evenodd;stroke:none"
         id="path126"
         inkscape:connector-curvature="0" /><path
         d="m 4194.7,5697 c 0,-31.31 -25.38,-56.7 -56.69,-56.7 -31.31,0 -56.69,25.39 -56.69,56.7 0,31.3 25.38,56.69 56.69,56.69 31.31,0 56.69,-25.39 56.69,-56.69 z"
         style="fill:none;stroke:#0000ff;stroke-width:9.44849968;stroke-linecap:butt;stroke-linejoin:miter;stroke-miterlimit:10;stroke-dasharray:none;stroke-opacity:1"
         id="path128"
         inkscape:connector-curvature="0" /><path
         d="m 4194.7,5980.45 c 0,-31.31 -25.38,-56.69 -56.69,-56.69 -31.31,0 -56.69,25.38 -56.69,56.69 0,31.31 25.38,56.69 56.69,56.69 31.31,0 56.69,-25.38 56.69,-56.69"
         style="fill:#0000ff;fill-opacity:1;fill-rule:evenodd;stroke:none"
         id="path130"
         inkscape:connector-curvature="0" /><path
         d="m 4194.7,5980.45 c 0,-31.31 -25.38,-56.69 -56.69,-56.69 -31.31,0 -56.69,25.38 -56.69,56.69 0,31.31 25.38,56.69 56.69,56.69 31.31,0 56.69,-25.38 56.69,-56.69 z"
         style="fill:none;stroke:#0000ff;stroke-width:9.44849968;stroke-linecap:butt;stroke-linejoin:miter;stroke-miterlimit:10;stroke-dasharray:none;stroke-opacity:1"
         id="path132"
         inkscape:connector-curvature="0" /><path
         d="m 4478.15,6122.18 c 0,-31.31 -25.38,-56.69 -56.69,-56.69 -31.3,0 -56.69,25.38 -56.69,56.69 0,31.3 25.39,56.69 56.69,56.69 31.31,0 56.69,-25.39 56.69,-56.69"
         style="fill:#0000ff;fill-opacity:1;fill-rule:evenodd;stroke:none"
         id="path134"
         inkscape:connector-curvature="0" /><path
         d="m 4478.15,6122.18 c 0,-31.31 -25.38,-56.69 -56.69,-56.69 -31.3,0 -56.69,25.38 -56.69,56.69 0,31.3 25.39,56.69 56.69,56.69 31.31,0 56.69,-25.39 56.69,-56.69 z"
         style="fill:none;stroke:#0000ff;stroke-width:9.44849968;stroke-linecap:butt;stroke-linejoin:miter;stroke-miterlimit:10;stroke-dasharray:none;stroke-opacity:1"
         id="path136"
         inkscape:connector-curvature="0" /><path
         d="m 1927.06,5980.45 c 0,-31.31 -25.38,-56.69 -56.69,-56.69 -31.31,0 -56.69,25.38 -56.69,56.69 0,31.31 25.38,56.69 56.69,56.69 31.31,0 56.69,-25.38 56.69,-56.69"
         style="fill:#00d100;fill-opacity:1;fill-rule:evenodd;stroke:none"
         id="path138"
         inkscape:connector-curvature="0" /><path
         d="m 1927.06,5980.45 c 0,-31.31 -25.38,-56.69 -56.69,-56.69 -31.31,0 -56.69,25.38 -56.69,56.69 0,31.31 25.38,56.69 56.69,56.69 31.31,0 56.69,-25.38 56.69,-56.69 z"
         style="fill:none;stroke:#00d100;stroke-width:9.44849968;stroke-linecap:butt;stroke-linejoin:miter;stroke-miterlimit:10;stroke-dasharray:none;stroke-opacity:1"
         id="path140"
         inkscape:connector-curvature="0" /><path
         d="m 2210.52,6122.18 c 0,-31.31 -25.39,-56.69 -56.7,-56.69 -31.3,0 -56.69,25.38 -56.69,56.69 0,31.3 25.39,56.69 56.69,56.69 31.31,0 56.7,-25.39 56.7,-56.69"
         style="fill:#00d100;fill-opacity:1;fill-rule:evenodd;stroke:none"
         id="path142"
         inkscape:connector-curvature="0" /><path
         d="m 2210.52,6122.18 c 0,-31.31 -25.39,-56.69 -56.7,-56.69 -31.3,0 -56.69,25.38 -56.69,56.69 0,31.3 25.39,56.69 56.69,56.69 31.31,0 56.7,-25.39 56.7,-56.69 z"
         style="fill:none;stroke:#00d100;stroke-width:9.44849968;stroke-linecap:butt;stroke-linejoin:miter;stroke-miterlimit:10;stroke-dasharray:none;stroke-opacity:1"
         id="path144"
         inkscape:connector-curvature="0" /><path
         d="m 2493.97,5980.45 c 0,-31.31 -25.38,-56.69 -56.69,-56.69 -31.31,0 -56.69,25.38 -56.69,56.69 0,31.31 25.38,56.69 56.69,56.69 31.31,0 56.69,-25.38 56.69,-56.69"
         style="fill:#00d100;fill-opacity:1;fill-rule:evenodd;stroke:none"
         id="path146"
         inkscape:connector-curvature="0" /><path
         d="m 2493.97,5980.45 c 0,-31.31 -25.38,-56.69 -56.69,-56.69 -31.31,0 -56.69,25.38 -56.69,56.69 0,31.31 25.38,56.69 56.69,56.69 31.31,0 56.69,-25.38 56.69,-56.69 z"
         style="fill:none;stroke:#00d100;stroke-width:9.44849968;stroke-linecap:butt;stroke-linejoin:miter;stroke-miterlimit:10;stroke-dasharray:none;stroke-opacity:1"
         id="path148"
         inkscape:connector-curvature="0" /><path
         d="m 1076.7,6122.18 c 0,-31.31 -25.39,-56.69 -56.7,-56.69 -31.305,0 -56.687,25.38 -56.687,56.69 0,31.3 25.382,56.69 56.687,56.69 31.31,0 56.7,-25.39 56.7,-56.69"
         style="fill:#ff0000;fill-opacity:1;fill-rule:evenodd;stroke:none"
         id="path150"
         inkscape:connector-curvature="0" /><path
         d="m 1076.7,6122.18 c 0,-31.31 -25.39,-56.69 -56.7,-56.69 -31.305,0 -56.687,25.38 -56.687,56.69 0,31.3 25.382,56.69 56.687,56.69 31.31,0 56.7,-25.39 56.7,-56.69 z"
         style="fill:none;stroke:#ff0000;stroke-width:9.44849968;stroke-linecap:butt;stroke-linejoin:miter;stroke-miterlimit:10;stroke-dasharray:none;stroke-opacity:1"
         id="path152"
         inkscape:connector-curvature="0" /><path
         d="m 1643.61,6122.18 c 0,-31.31 -25.39,-56.69 -56.7,-56.69 -31.3,0 -56.69,25.38 -56.69,56.69 0,31.3 25.39,56.69 56.69,56.69 31.31,0 56.7,-25.39 56.7,-56.69"
         style="fill:#ff0000;fill-opacity:1;fill-rule:evenodd;stroke:none"
         id="path154"
         inkscape:connector-curvature="0" /><path
         d="m 1643.61,6122.18 c 0,-31.31 -25.39,-56.69 -56.7,-56.69 -31.3,0 -56.69,25.38 -56.69,56.69 0,31.3 25.39,56.69 56.69,56.69 31.31,0 56.7,-25.39 56.7,-56.69 z"
         style="fill:none;stroke:#ff0000;stroke-width:9.44849968;stroke-linecap:butt;stroke-linejoin:miter;stroke-miterlimit:10;stroke-dasharray:none;stroke-opacity:1"
         id="path156"
         inkscape:connector-curvature="0" /><path
         d="m 3060.88,5697 c 0,-31.31 -25.38,-56.7 -56.69,-56.7 -31.31,0 -56.69,25.39 -56.69,56.7 0,31.3 25.38,56.69 56.69,56.69 31.31,0 56.69,-25.39 56.69,-56.69"
         style="fill:#00d100;fill-opacity:1;fill-rule:evenodd;stroke:none"
         id="path158"
         inkscape:connector-curvature="0" /><path
         d="m 3060.88,5697 c 0,-31.31 -25.38,-56.7 -56.69,-56.7 -31.31,0 -56.69,25.39 -56.69,56.7 0,31.3 25.38,56.69 56.69,56.69 31.31,0 56.69,-25.39 56.69,-56.69 z"
         style="fill:none;stroke:#00d100;stroke-width:9.44849968;stroke-linecap:butt;stroke-linejoin:miter;stroke-miterlimit:10;stroke-dasharray:none;stroke-opacity:1"
         id="path160"
         inkscape:connector-curvature="0" /><path
         d="m 3911.24,6122.18 c 0,-31.31 -25.38,-56.69 -56.69,-56.69 -31.3,0 -56.69,25.38 -56.69,56.69 0,31.3 25.39,56.69 56.69,56.69 31.31,0 56.69,-25.39 56.69,-56.69"
         style="fill:#0000ff;fill-opacity:1;fill-rule:evenodd;stroke:none"
         id="path162"
         inkscape:connector-curvature="0" /><path
         d="m 3911.24,6122.18 c 0,-31.31 -25.38,-56.69 -56.69,-56.69 -31.3,0 -56.69,25.38 -56.69,56.69 0,31.3 25.39,56.69 56.69,56.69 31.31,0 56.69,-25.39 56.69,-56.69 z"
         style="fill:none;stroke:#0000ff;stroke-width:9.44849968;stroke-linecap:butt;stroke-linejoin:miter;stroke-miterlimit:10;stroke-dasharray:none;stroke-opacity:1"
         id="path164"
         inkscape:connector-curvature="0" /><path
         d="m 4138.01,5697 0,283.45"
         style="fill:none;stroke:#000000;stroke-width:9.44849968;stroke-linecap:butt;stroke-linejoin:miter;stroke-miterlimit:10;stroke-dasharray:none;stroke-opacity:1"
         id="path166"
         inkscape:connector-curvature="0" /><path
         d="m 27.9102,3429.36 1700.73,0 0,1559 -1700.73,0 0,-1559 z"
         style="fill:none;stroke:#000000;stroke-width:28.34550095;stroke-linecap:butt;stroke-linejoin:miter;stroke-miterlimit:10;stroke-dasharray:none;stroke-opacity:1"
         id="path168"
         inkscape:connector-curvature="0" /><path
         d="m 3429.37,27.8945 1700.73,0 0,1559 -1700.73,0 0,-1559 z"
         style="fill:none;stroke:#000000;stroke-width:28.34550095;stroke-linecap:butt;stroke-linejoin:miter;stroke-miterlimit:10;stroke-dasharray:none;stroke-opacity:1"
         id="path170"
         inkscape:connector-curvature="0" /><path
         d="m 3429.37,5271.81 1700.73,0 0,1559 -1700.73,0 0,-1559 z"
         style="fill:none;stroke:#000000;stroke-width:28.34550095;stroke-linecap:butt;stroke-linejoin:miter;stroke-miterlimit:10;stroke-dasharray:none;stroke-opacity:1"
         id="path172"
         inkscape:connector-curvature="0" /><path
         d="m 1728.64,5271.81 1700.73,0 0,1559 -1700.73,0 0,-1559 z"
         style="fill:none;stroke:#000000;stroke-width:28.34550095;stroke-linecap:butt;stroke-linejoin:miter;stroke-miterlimit:10;stroke-dasharray:none;stroke-opacity:1"
         id="path174"
         inkscape:connector-curvature="0" /><path
         d="m 1728.64,1728.63 1700.73,0 0,1559 -1700.73,0 0,-1559 z"
         style="fill:none;stroke:#000000;stroke-width:28.34550095;stroke-linecap:butt;stroke-linejoin:miter;stroke-miterlimit:10;stroke-dasharray:none;stroke-opacity:1"
         id="path176"
         inkscape:connector-curvature="0" /><path
         d="m 27.9102,5271.81 1700.73,0 0,1559 -1700.73,0 0,-1559 z"
         style="fill:none;stroke:#000000;stroke-width:28.34550095;stroke-linecap:butt;stroke-linejoin:miter;stroke-miterlimit:10;stroke-dasharray:none;stroke-opacity:1"
         id="path178"
         inkscape:connector-curvature="0" /><g
         id="g180"><g
           id="g182"
           clip-path="url(#clipPath184)"><path
             d="m 1501.7,6632.23 c 101.07,91.33 232.45,141.9 368.67,141.9 136.22,0 267.6,-50.57 368.67,-141.9"
             style="fill:none;stroke:#00d100;stroke-width:9.44849968;stroke-linecap:butt;stroke-linejoin:miter;stroke-miterlimit:10;stroke-dasharray:none;stroke-opacity:1"
             id="path188"
             inkscape:connector-curvature="0" /></g></g><path
         d="m 2074.46,6695.39 147.39,-51.66 -105.82,114.65 -41.57,-62.99"
         style="fill:#00d100;fill-opacity:1;fill-rule:evenodd;stroke:none"
         id="path190"
         inkscape:connector-curvature="0" /><path
         d="m 2074.46,6695.39 147.39,-51.66 -105.82,114.65 -41.57,-62.99 z"
         style="fill:none;stroke:#00d100;stroke-width:9.44849968;stroke-linecap:butt;stroke-linejoin:miter;stroke-miterlimit:10;stroke-dasharray:none;stroke-opacity:1"
         id="path192"
         inkscape:connector-curvature="0" /><g
         id="g194"><g
           id="g196"
           clip-path="url(#clipPath198)"><path
             d="m 3202.43,6632.23 c 101.07,91.33 232.45,141.9 368.67,141.9 136.22,0 267.6,-50.57 368.67,-141.9"
             style="fill:none;stroke:#0000ff;stroke-width:9.44849968;stroke-linecap:butt;stroke-linejoin:miter;stroke-miterlimit:10;stroke-dasharray:none;stroke-opacity:1"
             id="path202"
             inkscape:connector-curvature="0" /></g></g><path
         d="m 3775.19,6695.39 147.39,-51.66 -105.82,114.65 -41.57,-62.99"
         style="fill:#0000ff;fill-opacity:1;fill-rule:evenodd;stroke:none"
         id="path204"
         inkscape:connector-curvature="0" /><path
         d="m 3775.19,6695.39 147.39,-51.66 -105.82,114.65 -41.57,-62.99 z"
         style="fill:none;stroke:#0000ff;stroke-width:9.44849968;stroke-linecap:butt;stroke-linejoin:miter;stroke-miterlimit:10;stroke-dasharray:none;stroke-opacity:1"
         id="path206"
         inkscape:connector-curvature="0" /><g
         id="g208"><g
           id="g210"
           clip-path="url(#clipPath212)"><path
             d="m 3656.31,5470.39 c -101.07,-91.32 -232.45,-141.89 -368.67,-141.89 -136.22,0 -267.6,50.57 -368.67,141.89"
             style="fill:none;stroke:#00d100;stroke-width:9.44849968;stroke-linecap:butt;stroke-linejoin:miter;stroke-miterlimit:10;stroke-dasharray:none;stroke-opacity:1"
             id="path216"
             inkscape:connector-curvature="0" /></g></g><path
         d="m 3082.93,5407.87 -146.77,51.02 105.19,-114.01 41.58,62.99"
         style="fill:#00d100;fill-opacity:1;fill-rule:evenodd;stroke:none"
         id="path218"
         inkscape:connector-curvature="0" /><path
         d="m 3082.93,5407.87 -146.77,51.02 105.19,-114.01 41.58,62.99 z"
         style="fill:none;stroke:#00d100;stroke-width:9.44849968;stroke-linecap:butt;stroke-linejoin:miter;stroke-miterlimit:10;stroke-dasharray:none;stroke-opacity:1"
         id="path220"
         inkscape:connector-curvature="0" /><g
         id="g222"><g
           id="g224"
           clip-path="url(#clipPath226)"><path
             d="m 1955.58,5470.39 c -101.07,-91.32 -232.45,-141.89 -368.67,-141.89 -136.22,0 -267.6,50.57 -368.67,141.89"
             style="fill:none;stroke:#ff0000;stroke-width:9.44849968;stroke-linecap:butt;stroke-linejoin:miter;stroke-miterlimit:10;stroke-dasharray:none;stroke-opacity:1"
             id="path230"
             inkscape:connector-curvature="0" /></g></g><path
         d="m 1382.2,5407.87 -146.77,51.02 105.19,-114.01 41.58,62.99"
         style="fill:#ff0000;fill-opacity:1;fill-rule:evenodd;stroke:none"
         id="path232"
         inkscape:connector-curvature="0" /><path
         d="m 1382.2,5407.87 -146.77,51.02 105.19,-114.01 41.58,62.99 z"
         style="fill:none;stroke:#ff0000;stroke-width:9.44849968;stroke-linecap:butt;stroke-linejoin:miter;stroke-miterlimit:10;stroke-dasharray:none;stroke-opacity:1"
         id="path234"
         inkscape:connector-curvature="0" /><path
         d="m 1728.64,6178.87 c 0,-313.1 -253.82,-566.91 -566.91,-566.91 -313.093,0 -566.91,253.81 -566.91,566.91 0,313.09 253.817,566.91 566.91,566.91 313.09,0 566.91,-253.82 566.91,-566.91 z"
         style="fill:none;stroke:#00d100;stroke-width:9.44849968;stroke-linecap:butt;stroke-linejoin:miter;stroke-miterlimit:10;stroke-dasharray:56.691;stroke-dashoffset:0;stroke-opacity:1"
         id="path236"
         inkscape:connector-curvature="0" /><path
         d="m 3429.37,6178.87 c 0,-313.1 -253.82,-566.91 -566.91,-566.91 -313.09,0 -566.91,253.81 -566.91,566.91 0,313.09 253.82,566.91 566.91,566.91 313.09,0 566.91,-253.82 566.91,-566.91 z"
         style="fill:none;stroke:#0000ff;stroke-width:9.44849968;stroke-linecap:butt;stroke-linejoin:miter;stroke-miterlimit:10;stroke-dasharray:56.691;stroke-dashoffset:0;stroke-opacity:1"
         id="path238"
         inkscape:connector-curvature="0" /><path
         d="m 4563.19,5923.76 c 0,-313.1 -253.81,-566.91 -566.91,-566.91 -313.09,0 -566.91,253.81 -566.91,566.91 0,313.09 253.82,566.91 566.91,566.91 313.1,0 566.91,-253.82 566.91,-566.91 z"
         style="fill:none;stroke:#00d100;stroke-width:9.44849968;stroke-linecap:butt;stroke-linejoin:miter;stroke-miterlimit:10;stroke-dasharray:56.691;stroke-dashoffset:0;stroke-opacity:1"
         id="path240"
         inkscape:connector-curvature="0" /><path
         d="m 2862.46,5923.76 c 0,-313.1 -253.82,-566.91 -566.91,-566.91 -313.09,0 -566.91,253.81 -566.91,566.91 0,313.09 253.82,566.91 566.91,566.91 313.09,0 566.91,-253.82 566.91,-566.91 z"
         style="fill:none;stroke:#ff0000;stroke-width:9.44849968;stroke-linecap:butt;stroke-linejoin:miter;stroke-miterlimit:10;stroke-dasharray:56.691;stroke-dashoffset:0;stroke-opacity:1"
         id="path242"
         inkscape:connector-curvature="0" /><path
         d="m 736.547,4137.99 0,-283.45"
         style="fill:none;stroke:#ff0000;stroke-width:47.24250031;stroke-linecap:butt;stroke-linejoin:miter;stroke-miterlimit:10;stroke-dasharray:none;stroke-opacity:1"
         id="path244"
         inkscape:connector-curvature="0" /><path
         d="m 169.637,4137.99 283.457,141.73 283.453,-141.73 283.453,141.73 283.46,-141.73 283.45,141.73"
         style="fill:none;stroke:#ff0000;stroke-width:47.24250031;stroke-linecap:butt;stroke-linejoin:miter;stroke-miterlimit:10;stroke-dasharray:none;stroke-opacity:1"
         id="path246"
         inkscape:connector-curvature="0" /><path
         d="m 453.094,4279.72 0,283.46"
         style="fill:none;stroke:#ff0000;stroke-width:47.24250031;stroke-linecap:butt;stroke-linejoin:miter;stroke-miterlimit:10;stroke-dasharray:none;stroke-opacity:1"
         id="path248"
         inkscape:connector-curvature="0" /><path
         d="m 1020,4279.72 0,283.46"
         style="fill:none;stroke:#ff0000;stroke-width:47.24250031;stroke-linecap:butt;stroke-linejoin:miter;stroke-miterlimit:10;stroke-dasharray:none;stroke-opacity:1"
         id="path250"
         inkscape:connector-curvature="0" /><path
         d="m 1303.46,4137.99 0,-283.45"
         style="fill:none;stroke:#ff0000;stroke-width:47.24250031;stroke-linecap:butt;stroke-linejoin:miter;stroke-miterlimit:10;stroke-dasharray:none;stroke-opacity:1"
         id="path252"
         inkscape:connector-curvature="0" /><path
         d="m 1586.91,4279.72 0,283.46"
         style="fill:none;stroke:#ff0000;stroke-width:47.24250031;stroke-linecap:butt;stroke-linejoin:miter;stroke-miterlimit:10;stroke-dasharray:none;stroke-opacity:1"
         id="path254"
         inkscape:connector-curvature="0" /><path
         d="m 1586.91,4279.72 283.46,-141.73"
         style="fill:none;stroke:#ff0000;stroke-width:47.24250031;stroke-linecap:butt;stroke-linejoin:miter;stroke-miterlimit:10;stroke-dasharray:none;stroke-opacity:1"
         id="path256"
         inkscape:connector-curvature="0" /><path
         d="m 1870.37,4137.99 0,-283.45"
         style="fill:none;stroke:#ff0000;stroke-width:47.24250031;stroke-linecap:butt;stroke-linejoin:miter;stroke-miterlimit:10;stroke-dasharray:47.2425;stroke-dashoffset:0;stroke-opacity:1"
         id="path258"
         inkscape:connector-curvature="0" /><path
         d="m 1870.37,4137.99 283.45,141.73 283.46,-141.73 283.45,141.73"
         style="fill:none;stroke:#ff0000;stroke-width:47.24250031;stroke-linecap:butt;stroke-linejoin:miter;stroke-miterlimit:10;stroke-dasharray:47.2425;stroke-dashoffset:0;stroke-opacity:1"
         id="path260"
         inkscape:connector-curvature="0" /><path
         d="m 2153.82,4279.72 0,283.46"
         style="fill:none;stroke:#ff0000;stroke-width:47.24250031;stroke-linecap:butt;stroke-linejoin:miter;stroke-miterlimit:10;stroke-dasharray:47.2425;stroke-dashoffset:0;stroke-opacity:1"
         id="path262"
         inkscape:connector-curvature="0" /><path
         d="m 2437.28,4137.99 0,-283.45"
         style="fill:none;stroke:#ff0000;stroke-width:47.24250031;stroke-linecap:butt;stroke-linejoin:miter;stroke-miterlimit:10;stroke-dasharray:47.2425;stroke-dashoffset:0;stroke-opacity:1"
         id="path264"
         inkscape:connector-curvature="0" /><path
         d="M 1586.91,2578.99 1303.46,2437.26 1020,2578.99 736.547,2437.26"
         style="fill:none;stroke:#00d100;stroke-width:47.24250031;stroke-linecap:butt;stroke-linejoin:miter;stroke-miterlimit:10;stroke-dasharray:47.2425;stroke-dashoffset:0;stroke-opacity:1"
         id="path266"
         inkscape:connector-curvature="0" /><path
         d="m 1586.91,2578.99 0,283.46"
         style="fill:none;stroke:#00d100;stroke-width:47.24250031;stroke-linecap:butt;stroke-linejoin:miter;stroke-miterlimit:10;stroke-dasharray:47.2425;stroke-dashoffset:0;stroke-opacity:1"
         id="path268"
         inkscape:connector-curvature="0" /><path
         d="m 1020,2578.99 0,283.46"
         style="fill:none;stroke:#00d100;stroke-width:47.24250031;stroke-linecap:butt;stroke-linejoin:miter;stroke-miterlimit:10;stroke-dasharray:47.2425;stroke-dashoffset:0;stroke-opacity:1"
         id="path270"
         inkscape:connector-curvature="0" /><path
         d="m 1303.46,2437.26 0,-283.45"
         style="fill:none;stroke:#00d100;stroke-width:47.24250031;stroke-linecap:butt;stroke-linejoin:miter;stroke-miterlimit:10;stroke-dasharray:47.2425;stroke-dashoffset:0;stroke-opacity:1"
         id="path272"
         inkscape:connector-curvature="0" /><path
         d="m 1870.37,2437.26 283.45,141.73 283.46,-141.73 283.45,141.73 283.46,-141.73 283.45,141.73"
         style="fill:none;stroke:#00d100;stroke-width:47.24250031;stroke-linecap:butt;stroke-linejoin:miter;stroke-miterlimit:10;stroke-dasharray:none;stroke-opacity:1"
         id="path274"
         inkscape:connector-curvature="0" /><path
         d="m 1870.37,2437.26 0,-283.45"
         style="fill:none;stroke:#00d100;stroke-width:47.24250031;stroke-linecap:butt;stroke-linejoin:miter;stroke-miterlimit:10;stroke-dasharray:none;stroke-opacity:1"
         id="path276"
         inkscape:connector-curvature="0" /><path
         d="m 2153.82,2578.99 0,283.46"
         style="fill:none;stroke:#00d100;stroke-width:47.24250031;stroke-linecap:butt;stroke-linejoin:miter;stroke-miterlimit:10;stroke-dasharray:none;stroke-opacity:1"
         id="path278"
         inkscape:connector-curvature="0" /><path
         d="m 2720.73,2578.99 0,283.46"
         style="fill:none;stroke:#00d100;stroke-width:47.24250031;stroke-linecap:butt;stroke-linejoin:miter;stroke-miterlimit:10;stroke-dasharray:none;stroke-opacity:1"
         id="path280"
         inkscape:connector-curvature="0" /><path
         d="m 2437.28,2437.26 0,-283.45"
         style="fill:none;stroke:#00d100;stroke-width:47.24250031;stroke-linecap:butt;stroke-linejoin:miter;stroke-miterlimit:10;stroke-dasharray:none;stroke-opacity:1"
         id="path282"
         inkscape:connector-curvature="0" /><path
         d="m 1870.37,2437.26 -283.46,141.73"
         style="fill:none;stroke:#00d100;stroke-width:47.24250031;stroke-linecap:butt;stroke-linejoin:miter;stroke-miterlimit:10;stroke-dasharray:none;stroke-opacity:1"
         id="path284"
         inkscape:connector-curvature="0" /><path
         d="m 3004.19,2437.26 0,-283.45"
         style="fill:none;stroke:#00d100;stroke-width:47.24250031;stroke-linecap:butt;stroke-linejoin:miter;stroke-miterlimit:10;stroke-dasharray:none;stroke-opacity:1"
         id="path286"
         inkscape:connector-curvature="0" /><path
         d="m 3287.64,2578.99 0,283.46"
         style="fill:none;stroke:#00d100;stroke-width:47.24250031;stroke-linecap:butt;stroke-linejoin:miter;stroke-miterlimit:10;stroke-dasharray:none;stroke-opacity:1"
         id="path288"
         inkscape:connector-curvature="0" /><path
         d="M 3287.64,2578.99 3571.1,2437.26"
         style="fill:none;stroke:#00d100;stroke-width:47.24250031;stroke-linecap:butt;stroke-linejoin:miter;stroke-miterlimit:10;stroke-dasharray:none;stroke-opacity:1"
         id="path290"
         inkscape:connector-curvature="0" /><path
         d="m 3571.1,2437.26 283.45,141.73 283.46,-141.73 283.45,141.73"
         style="fill:none;stroke:#00d100;stroke-width:47.24250031;stroke-linecap:butt;stroke-linejoin:miter;stroke-miterlimit:10;stroke-dasharray:47.2425;stroke-dashoffset:0;stroke-opacity:1"
         id="path292"
         inkscape:connector-curvature="0" /><path
         d="m 3571.1,2437.26 0,-283.45"
         style="fill:none;stroke:#00d100;stroke-width:47.24250031;stroke-linecap:butt;stroke-linejoin:miter;stroke-miterlimit:10;stroke-dasharray:47.2425;stroke-dashoffset:0;stroke-opacity:1"
         id="path294"
         inkscape:connector-curvature="0" /><path
         d="m 3854.55,2578.99 0,283.46"
         style="fill:none;stroke:#00d100;stroke-width:47.24250031;stroke-linecap:butt;stroke-linejoin:miter;stroke-miterlimit:10;stroke-dasharray:47.2425;stroke-dashoffset:0;stroke-opacity:1"
         id="path296"
         inkscape:connector-curvature="0" /><path
         d="m 4138.01,2437.26 0,-283.45"
         style="fill:none;stroke:#00d100;stroke-width:47.24250031;stroke-linecap:butt;stroke-linejoin:miter;stroke-miterlimit:10;stroke-dasharray:47.2425;stroke-dashoffset:0;stroke-opacity:1"
         id="path298"
         inkscape:connector-curvature="0" /><path
         d="m 3854.55,878.258 0,283.452"
         style="fill:none;stroke:#0000ff;stroke-width:47.24250031;stroke-linecap:butt;stroke-linejoin:miter;stroke-miterlimit:10;stroke-dasharray:none;stroke-opacity:1"
         id="path300"
         inkscape:connector-curvature="0" /><path
         d="m 3571.1,736.531 283.45,141.727 283.46,-141.727 283.45,141.727"
         style="fill:none;stroke:#0000ff;stroke-width:47.24250031;stroke-linecap:butt;stroke-linejoin:miter;stroke-miterlimit:10;stroke-dasharray:none;stroke-opacity:1"
         id="path302"
         inkscape:connector-curvature="0" /><path
         d="m 4138.01,736.531 0,-283.453"
         style="fill:none;stroke:#0000ff;stroke-width:47.24250031;stroke-linecap:butt;stroke-linejoin:miter;stroke-miterlimit:10;stroke-dasharray:none;stroke-opacity:1"
         id="path304"
         inkscape:connector-curvature="0" /><path
         d="m 3571.1,736.531 0,-283.453"
         style="fill:none;stroke:#0000ff;stroke-width:47.24250031;stroke-linecap:butt;stroke-linejoin:miter;stroke-miterlimit:10;stroke-dasharray:none;stroke-opacity:1"
         id="path306"
         inkscape:connector-curvature="0" /><path
         d="M 3571.1,736.531 3287.64,878.258"
         style="fill:none;stroke:#0000ff;stroke-width:47.24250031;stroke-linecap:butt;stroke-linejoin:miter;stroke-miterlimit:10;stroke-dasharray:none;stroke-opacity:1"
         id="path308"
         inkscape:connector-curvature="0" /><path
         d="m 3287.64,878.258 0,283.452"
         style="fill:none;stroke:#0000ff;stroke-width:47.24250031;stroke-linecap:butt;stroke-linejoin:miter;stroke-miterlimit:10;stroke-dasharray:47.2425;stroke-dashoffset:0;stroke-opacity:1"
         id="path310"
         inkscape:connector-curvature="0" /><path
         d="M 3287.64,878.258 3004.19,736.531 2720.73,878.258 2437.28,736.531"
         style="fill:none;stroke:#0000ff;stroke-width:47.24250031;stroke-linecap:butt;stroke-linejoin:miter;stroke-miterlimit:10;stroke-dasharray:47.2425;stroke-dashoffset:0;stroke-opacity:1"
         id="path312"
         inkscape:connector-curvature="0" /><path
         d="m 3004.19,736.531 0,-283.453"
         style="fill:none;stroke:#0000ff;stroke-width:47.24250031;stroke-linecap:butt;stroke-linejoin:miter;stroke-miterlimit:10;stroke-dasharray:47.2425;stroke-dashoffset:0;stroke-opacity:1"
         id="path314"
         inkscape:connector-curvature="0" /><path
         d="m 2720.73,878.258 0,283.452"
         style="fill:none;stroke:#0000ff;stroke-width:47.24250031;stroke-linecap:butt;stroke-linejoin:miter;stroke-miterlimit:10;stroke-dasharray:47.2425;stroke-dashoffset:0;stroke-opacity:1"
         id="path316"
         inkscape:connector-curvature="0" /></g></g></svg>