<?xml version="1.0" encoding="UTF-8" standalone="no"?>
<!-- Created with Inkscape (http://www.inkscape.org/) -->

<svg
   xmlns:dc="http://purl.org/dc/elements/1.1/"
   xmlns:cc="http://creativecommons.org/ns#"
   xmlns:rdf="http://www.w3.org/1999/02/22-rdf-syntax-ns#"
   xmlns:svg="http://www.w3.org/2000/svg"
   xmlns="http://www.w3.org/2000/svg"
   xmlns:sodipodi="http://sodipodi.sourceforge.net/DTD/sodipodi-0.dtd"
   xmlns:inkscape="http://www.inkscape.org/namespaces/inkscape"
   id="svg2"
   version="1.1"
   inkscape:version="0.91 r13725"
   xml:space="preserve"
   width="453.75"
   height="368.75"
   viewBox="0 0 453.75 368.75"
   sodipodi:docname="verlet-drift.svg"><metadata
     id="metadata8"><rdf:RDF><cc:Work
         rdf:about=""><dc:format>image/svg+xml</dc:format><dc:type
           rdf:resource="http://purl.org/dc/dcmitype/StillImage" /><dc:title></dc:title></cc:Work></rdf:RDF></metadata><defs
     id="defs6" /><sodipodi:namedview
     pagecolor="#ffffff"
     bordercolor="#666666"
     borderopacity="1"
     objecttolerance="10"
     gridtolerance="10"
     guidetolerance="10"
     inkscape:pageopacity="0"
     inkscape:pageshadow="2"
     inkscape:window-width="640"
     inkscape:window-height="480"
     id="namedview4"
     showgrid="false"
     inkscape:zoom="0.64"
     inkscape:cx="226.875"
     inkscape:cy="184.375"
     inkscape:window-x="0"
     inkscape:window-y="25"
     inkscape:window-maximized="0"
     inkscape:current-layer="g10" /><g
     id="g10"
     inkscape:groupmode="layer"
     inkscape:label="ink_ext_XXXXXX"
     transform="matrix(1.25,0,0,-1.25,0,368.75)"><g
       id="g12"
       transform="scale(0.1,0.1)"><path
         d="m 651.602,470 0,24 m 288,-24 0,24 m 287.998,-24 0,24 m 288,-24 0,24 m 288,-24 0,24 m 290.4,-24 0,24 m 285.6,-24 0,24 m 290.4,-24 0,24 m 288,-24 0,24 m 285.6,-24 0,24 m 290.4,-24 0,24 m -2882.398,2376 0,-24 m 288,24 0,-24 m 287.998,24 0,-24 m 288,24 0,-24 m 288,24 0,-24 m 290.4,24 0,-24 m 285.6,24 0,-24 m 290.4,24 0,-24 m 288,24 0,-24 m 285.6,24 0,-24 m 290.4,24 0,-24"
         style="fill:none;stroke:#000000;stroke-width:4.80000019;stroke-linecap:round;stroke-linejoin:miter;stroke-miterlimit:10;stroke-dasharray:none;stroke-opacity:1"
         id="path14"
         inkscape:connector-curvature="0" /><path
         d="m 651.602,470 0,48 m 575.998,-48 0,48 m 576,-48 0,48 m 576,-48 0,48 m 578.4,-48 0,48 m 576,-48 0,48 m -2882.398,2352 0,-48 m 575.998,48 0,-48 m 576,48 0,-48 m 576,48 0,-48 m 578.4,48 0,-48 m 576,48 0,-48"
         style="fill:none;stroke:#000000;stroke-width:4.80000019;stroke-linecap:round;stroke-linejoin:miter;stroke-miterlimit:10;stroke-dasharray:none;stroke-opacity:1"
         id="path16"
         inkscape:connector-curvature="0" /><g
         id="g18"
         transform="scale(10,10)"><text
           transform="matrix(1,0,0,-1,61.157,30.2)"
           style="font-variant:normal;font-weight:normal;font-size:14.39999962px;font-family:Helvetica;-inkscape-font-specification:Helvetica;writing-mode:lr-tb;fill:#000000;fill-opacity:1;fill-rule:nonzero;stroke:none"
           id="text20"><tspan
             x="0 47.592144 55.598545 59.601746 67.608147 105.19215 113.19855 117.20174 125.20815 162.79214 170.79854 174.80174 182.80815 220.63205 228.63844 232.64165 240.64804 282.23526 290.24164 294.24484"
             y="0"
             sodipodi:role="line"
             id="tspan22">00.020.040.060.080.1</tspan><tspan
             x="91.988701 101.5935 109.5999 114.3951 117.5919 125.5983 129.6015 133.60471 141.6111 149.61749 153.6207 157.6239 165.63029 170.42551 174.4287 179.22391 187.2303 199.22549"
             y="19.200001"
             sodipodi:role="line"
             id="tspan24">Verlet buffer (nm)</tspan></text>
</g><path
         d="m 651.602,470 24,0 m -24,180 24,0 m -24,105.602 24,0 m -24,74.398 24,0 m -24,57.602 24,0 m -24,48 24,0 m -24,40.796 24,0 m -24,36.002 24,0 m -24,28.8 24,0 m -24,28.8 24,0 m -24,180 24,0 m -24,105.6 24,0 m -24,74.4 24,0 m -24,60 24,0 m -24,45.6 24,0 m -24,40.8 24,0 m -24,36 24,0 m -24,28.8 24,0 m -24,28.8 24,0 m -24,180 24,0 m -24,105.6 24,0 m -24,74.4 24,0 m -24,60 24,0 m -24,48 24,0 m -24,38.4 24,0 m -24,36 24,0 m -24,31.2 24,0 m -24,26.4 24,0 m -24,180 24,0 m -24,105.6 24,0 m -24,76.8 24,0 m -24,57.6 24,0 m -24,48 24,0 m -24,38.4 24,0 m -24,36 24,0 m -24,31.2 24,0 m -24,26.4 24,0 M 3534,470 l -24,0 m 24,180 -24,0 m 24,105.602 -24,0 m 24,74.398 -24,0 m 24,57.602 -24,0 m 24,48 -24,0 m 24,40.796 -24,0 m 24,36.002 -24,0 m 24,28.8 -24,0 m 24,28.8 -24,0 m 24,180 -24,0 m 24,105.6 -24,0 m 24,74.4 -24,0 m 24,60 -24,0 m 24,45.6 -24,0 m 24,40.8 -24,0 m 24,36 -24,0 m 24,28.8 -24,0 m 24,28.8 -24,0 m 24,180 -24,0 m 24,105.6 -24,0 m 24,74.4 -24,0 m 24,60 -24,0 m 24,48 -24,0 m 24,38.4 -24,0 m 24,36 -24,0 m 24,31.2 -24,0 m 24,26.4 -24,0 m 24,180 -24,0 m 24,105.6 -24,0 m 24,76.8 -24,0 m 24,57.6 -24,0 m 24,48 -24,0 m 24,38.4 -24,0 m 24,36 -24,0 m 24,31.2 -24,0 m 24,26.4 -24,0"
         style="fill:none;stroke:#000000;stroke-width:4.80000019;stroke-linecap:round;stroke-linejoin:miter;stroke-miterlimit:10;stroke-dasharray:none;stroke-opacity:1"
         id="path26"
         inkscape:connector-curvature="0" /><path
         d="m 651.602,470 48,0 m -48,600 48,0 m -48,600 48,0 m -48,600 48,0 m -48,600 48,0 M 3534,470 l -48,0 m 48,600 -48,0 m 48,600 -48,0 m 48,600 -48,0 m 48,600 -48,0"
         style="fill:none;stroke:#000000;stroke-width:4.80000019;stroke-linecap:round;stroke-linejoin:miter;stroke-miterlimit:10;stroke-dasharray:none;stroke-opacity:1"
         id="path28"
         inkscape:connector-curvature="0" /><g
         id="g30"
         transform="scale(10,10)"><text
           transform="matrix(1,0,0,-1,23.6117,42.2)"
           style="font-variant:normal;font-weight:normal;font-size:14.39999962px;font-family:Helvetica;-inkscape-font-specification:Helvetica;writing-mode:lr-tb;fill:#000000;fill-opacity:1;fill-rule:nonzero;stroke:none"
           id="text32"><tspan
             x="0 8.0064001"
             y="0"
             sodipodi:role="line"
             id="tspan34">10</tspan></text>
<text
           transform="matrix(1,0,0,-1,39.6246,50.6)"
           style="font-variant:normal;font-weight:normal;font-size:8.39999962px;font-family:Helvetica;-inkscape-font-specification:Helvetica;writing-mode:lr-tb;fill:#000000;fill-opacity:1;fill-rule:nonzero;stroke:none"
           id="text36"><tspan
             x="0 4.9056001"
             y="0"
             sodipodi:role="line"
             id="tspan38">−6</tspan></text>
<text
           transform="matrix(1,0,0,-1,23.6117,102.2)"
           style="font-variant:normal;font-weight:normal;font-size:14.39999962px;font-family:Helvetica;-inkscape-font-specification:Helvetica;writing-mode:lr-tb;fill:#000000;fill-opacity:1;fill-rule:nonzero;stroke:none"
           id="text40"><tspan
             x="0 8.0064001"
             y="0"
             sodipodi:role="line"
             id="tspan42">10</tspan></text>
<text
           transform="matrix(1,0,0,-1,39.6246,110.6)"
           style="font-variant:normal;font-weight:normal;font-size:8.39999962px;font-family:Helvetica;-inkscape-font-specification:Helvetica;writing-mode:lr-tb;fill:#000000;fill-opacity:1;fill-rule:nonzero;stroke:none"
           id="text44"><tspan
             x="0 4.9056001"
             y="0"
             sodipodi:role="line"
             id="tspan46">−5</tspan></text>
<text
           transform="matrix(1,0,0,-1,23.6117,162.2)"
           style="font-variant:normal;font-weight:normal;font-size:14.39999962px;font-family:Helvetica;-inkscape-font-specification:Helvetica;writing-mode:lr-tb;fill:#000000;fill-opacity:1;fill-rule:nonzero;stroke:none"
           id="text48"><tspan
             x="0 8.0064001"
             y="0"
             sodipodi:role="line"
             id="tspan50">10</tspan></text>
<text
           transform="matrix(1,0,0,-1,39.6246,170.6)"
           style="font-variant:normal;font-weight:normal;font-size:8.39999962px;font-family:Helvetica;-inkscape-font-specification:Helvetica;writing-mode:lr-tb;fill:#000000;fill-opacity:1;fill-rule:nonzero;stroke:none"
           id="text52"><tspan
             x="0 4.9056001"
             y="0"
             sodipodi:role="line"
             id="tspan54">−4</tspan></text>
<text
           transform="matrix(1,0,0,-1,23.6117,222.2)"
           style="font-variant:normal;font-weight:normal;font-size:14.39999962px;font-family:Helvetica;-inkscape-font-specification:Helvetica;writing-mode:lr-tb;fill:#000000;fill-opacity:1;fill-rule:nonzero;stroke:none"
           id="text56"><tspan
             x="0 8.0064001"
             y="0"
             sodipodi:role="line"
             id="tspan58">10</tspan></text>
<text
           transform="matrix(1,0,0,-1,39.6246,230.6)"
           style="font-variant:normal;font-weight:normal;font-size:8.39999962px;font-family:Helvetica;-inkscape-font-specification:Helvetica;writing-mode:lr-tb;fill:#000000;fill-opacity:1;fill-rule:nonzero;stroke:none"
           id="text60"><tspan
             x="0 4.9056001"
             y="0"
             sodipodi:role="line"
             id="tspan62">−3</tspan></text>
<text
           transform="matrix(1,0,0,-1,23.6117,282.2)"
           style="font-variant:normal;font-weight:normal;font-size:14.39999962px;font-family:Helvetica;-inkscape-font-specification:Helvetica;writing-mode:lr-tb;fill:#000000;fill-opacity:1;fill-rule:nonzero;stroke:none"
           id="text64"><tspan
             x="0 8.0064001"
             y="0"
             sodipodi:role="line"
             id="tspan66">10</tspan></text>
<text
           transform="matrix(1,0,0,-1,39.6246,290.6)"
           style="font-variant:normal;font-weight:normal;font-size:8.39999962px;font-family:Helvetica;-inkscape-font-specification:Helvetica;writing-mode:lr-tb;fill:#000000;fill-opacity:1;fill-rule:nonzero;stroke:none"
           id="text68"><tspan
             x="0 4.9056001"
             y="0"
             sodipodi:role="line"
             id="tspan70">−2</tspan></text>
<text
           transform="matrix(0,1,1,0,15.9602,87.3848)"
           style="font-variant:normal;font-weight:normal;font-size:14.39999962px;font-family:Helvetica;-inkscape-font-specification:Helvetica;writing-mode:lr-tb;fill:#000000;fill-opacity:1;fill-rule:nonzero;stroke:none"
           id="text72"><tspan
             x="0 8.0064001 12.8016 15.9984 20.0016 24.004801 28.007999 36.0144 44.020802 48.816002 52.819199 60.8256 64.828796 72.835197 84.830399 88.833603 93.628799 100.8288 108.0288 112.032 124.0272 132.0336 135.23039 139.2336 147.24001 154.44"
             y="0"
             sodipodi:role="line"
             id="tspan74">drift per atom (kJ/mol/ps)</tspan></text>
</g><path
         d="m 1429.2,2870 288,-180 201.6,-134.4 146.4,-105.6 259.2,-180 259.2,-180 544.8,-420 405.6,-336"
         style="fill:none;stroke:#000000;stroke-width:9.60000038;stroke-linecap:round;stroke-linejoin:miter;stroke-miterlimit:10;stroke-dasharray:none;stroke-opacity:1"
         id="path76"
         inkscape:connector-curvature="0" /><path
         d="M 651.602,2690 882,2555.6 1083.6,2450 l 316.8,-180 288,-180 636,-420 777.6,-600 432,-369.602"
         style="fill:none;stroke:#ff0000;stroke-width:9.60000038;stroke-linecap:round;stroke-linejoin:miter;stroke-miterlimit:10;stroke-dasharray:none;stroke-opacity:1"
         id="path78"
         inkscape:connector-curvature="0" /><path
         d="m 651.602,935.602 28.796,403.198 57.602,230.4 115.199,175.2 259.201,110.4 288,-4.8 604.8,-180 1039.2,-600 489.6,-376.801"
         style="fill:none;stroke:#ff0000;stroke-width:9.60000038;stroke-linecap:round;stroke-linejoin:miter;stroke-miterlimit:10;stroke-dasharray:48, 48;stroke-dashoffset:0;stroke-opacity:1"
         id="path80"
         inkscape:connector-curvature="0" /><path
         d="M 651.602,1622 882,1898 l 201.6,0 316.8,-105.6 288,-170.4 636,-446.4 544.8,-551.998 108,-153.602"
         style="fill:none;stroke:#55c034;stroke-width:9.60000038;stroke-linecap:round;stroke-linejoin:miter;stroke-miterlimit:10;stroke-dasharray:none;stroke-opacity:1"
         id="path82"
         inkscape:connector-curvature="0" /><path
         d="m 687.602,1622 c 0,19.88 -16.122,36 -36,36 -19.879,0 -36,-16.12 -36,-36 0,-19.88 16.121,-36 36,-36 19.878,0 36,16.12 36,36"
         style="fill:#55c034;fill-opacity:1;fill-rule:nonzero;stroke:none"
         id="path84"
         inkscape:connector-curvature="0" /><path
         d="m 687.602,1622 c 0,19.88 -16.122,36 -36,36 -19.879,0 -36,-16.12 -36,-36 0,-19.88 16.121,-36 36,-36 19.878,0 36,16.12 36,36"
         style="fill:none;stroke:#55c034;stroke-width:4.80000019;stroke-linecap:round;stroke-linejoin:miter;stroke-miterlimit:10;stroke-dasharray:none;stroke-opacity:1"
         id="path86"
         inkscape:connector-curvature="0" /><path
         d="m 918,1898 c 0,19.88 -16.121,36 -36,36 -19.879,0 -36,-16.12 -36,-36 0,-19.88 16.121,-36 36,-36 19.879,0 36,16.12 36,36"
         style="fill:#55c034;fill-opacity:1;fill-rule:nonzero;stroke:none"
         id="path88"
         inkscape:connector-curvature="0" /><path
         d="m 918,1898 c 0,19.88 -16.121,36 -36,36 -19.879,0 -36,-16.12 -36,-36 0,-19.88 16.121,-36 36,-36 19.879,0 36,16.12 36,36"
         style="fill:none;stroke:#55c034;stroke-width:4.80000019;stroke-linecap:round;stroke-linejoin:miter;stroke-miterlimit:10;stroke-dasharray:none;stroke-opacity:1"
         id="path90"
         inkscape:connector-curvature="0" /><path
         d="m 1119.6,1898 c 0,19.88 -16.12,36 -36,36 -19.88,0 -36,-16.12 -36,-36 0,-19.88 16.12,-36 36,-36 19.88,0 36,16.12 36,36"
         style="fill:#55c034;fill-opacity:1;fill-rule:nonzero;stroke:none"
         id="path92"
         inkscape:connector-curvature="0" /><path
         d="m 1119.6,1898 c 0,19.88 -16.12,36 -36,36 -19.88,0 -36,-16.12 -36,-36 0,-19.88 16.12,-36 36,-36 19.88,0 36,16.12 36,36"
         style="fill:none;stroke:#55c034;stroke-width:4.80000019;stroke-linecap:round;stroke-linejoin:miter;stroke-miterlimit:10;stroke-dasharray:none;stroke-opacity:1"
         id="path94"
         inkscape:connector-curvature="0" /><path
         d="m 1436.4,1792.4 c 0,19.88 -16.12,36 -36,36 -19.88,0 -36,-16.12 -36,-36 0,-19.88 16.12,-36 36,-36 19.88,0 36,16.12 36,36"
         style="fill:#55c034;fill-opacity:1;fill-rule:nonzero;stroke:none"
         id="path96"
         inkscape:connector-curvature="0" /><path
         d="m 1436.4,1792.4 c 0,19.88 -16.12,36 -36,36 -19.88,0 -36,-16.12 -36,-36 0,-19.88 16.12,-36 36,-36 19.88,0 36,16.12 36,36"
         style="fill:none;stroke:#55c034;stroke-width:4.80000019;stroke-linecap:round;stroke-linejoin:miter;stroke-miterlimit:10;stroke-dasharray:none;stroke-opacity:1"
         id="path98"
         inkscape:connector-curvature="0" /><path
         d="m 1724.4,1622 c 0,19.88 -16.12,36 -36,36 -19.88,0 -36,-16.12 -36,-36 0,-19.88 16.12,-36 36,-36 19.88,0 36,16.12 36,36"
         style="fill:#55c034;fill-opacity:1;fill-rule:nonzero;stroke:none"
         id="path100"
         inkscape:connector-curvature="0" /><path
         d="m 1724.4,1622 c 0,19.88 -16.12,36 -36,36 -19.88,0 -36,-16.12 -36,-36 0,-19.88 16.12,-36 36,-36 19.88,0 36,16.12 36,36"
         style="fill:none;stroke:#55c034;stroke-width:4.80000019;stroke-linecap:round;stroke-linejoin:miter;stroke-miterlimit:10;stroke-dasharray:none;stroke-opacity:1"
         id="path102"
         inkscape:connector-curvature="0" /><path
         d="m 2360.4,1175.6 c 0,19.88 -16.12,36 -36,36 -19.88,0 -36,-16.12 -36,-36 0,-19.88 16.12,-36 36,-36 19.88,0 36,16.12 36,36"
         style="fill:#55c034;fill-opacity:1;fill-rule:nonzero;stroke:none"
         id="path104"
         inkscape:connector-curvature="0" /><path
         d="m 2360.4,1175.6 c 0,19.88 -16.12,36 -36,36 -19.88,0 -36,-16.12 -36,-36 0,-19.88 16.12,-36 36,-36 19.88,0 36,16.12 36,36"
         style="fill:none;stroke:#55c034;stroke-width:4.80000019;stroke-linecap:round;stroke-linejoin:miter;stroke-miterlimit:10;stroke-dasharray:none;stroke-opacity:1"
         id="path106"
         inkscape:connector-curvature="0" /><path
         d="m 2905.2,623.602 c 0,19.878 -16.12,36 -36,36 -19.88,0 -36,-16.122 -36,-36 0,-19.879 16.12,-36 36,-36 19.88,0 36,16.121 36,36"
         style="fill:#55c034;fill-opacity:1;fill-rule:nonzero;stroke:none"
         id="path108"
         inkscape:connector-curvature="0" /><path
         d="m 2905.2,623.602 c 0,19.878 -16.12,36 -36,36 -19.88,0 -36,-16.122 -36,-36 0,-19.879 16.12,-36 36,-36 19.88,0 36,16.121 36,36"
         style="fill:none;stroke:#55c034;stroke-width:4.80000019;stroke-linecap:round;stroke-linejoin:miter;stroke-miterlimit:10;stroke-dasharray:none;stroke-opacity:1"
         id="path110"
         inkscape:connector-curvature="0" /><path
         d="M 651.602,1338.8 882,1737.2 l 201.6,-43.2 316.8,-211.2 288,-364.8"
         style="fill:none;stroke:#0000ff;stroke-width:9.60000038;stroke-linecap:round;stroke-linejoin:miter;stroke-miterlimit:10;stroke-dasharray:none;stroke-opacity:1"
         id="path112"
         inkscape:connector-curvature="0" /><path
         d="m 687.602,1338.8 c 0,19.88 -16.122,36 -36,36 -19.879,0 -36,-16.12 -36,-36 0,-19.88 16.121,-36 36,-36 19.878,0 36,16.12 36,36"
         style="fill:#0000ff;fill-opacity:1;fill-rule:nonzero;stroke:none"
         id="path114"
         inkscape:connector-curvature="0" /><path
         d="m 687.602,1338.8 c 0,19.88 -16.122,36 -36,36 -19.879,0 -36,-16.12 -36,-36 0,-19.88 16.121,-36 36,-36 19.878,0 36,16.12 36,36"
         style="fill:none;stroke:#0000ff;stroke-width:4.80000019;stroke-linecap:round;stroke-linejoin:miter;stroke-miterlimit:10;stroke-dasharray:none;stroke-opacity:1"
         id="path116"
         inkscape:connector-curvature="0" /><path
         d="m 918,1737.2 c 0,19.88 -16.121,36 -36,36 -19.879,0 -36,-16.12 -36,-36 0,-19.88 16.121,-36 36,-36 19.879,0 36,16.12 36,36"
         style="fill:#0000ff;fill-opacity:1;fill-rule:nonzero;stroke:none"
         id="path118"
         inkscape:connector-curvature="0" /><path
         d="m 918,1737.2 c 0,19.88 -16.121,36 -36,36 -19.879,0 -36,-16.12 -36,-36 0,-19.88 16.121,-36 36,-36 19.879,0 36,16.12 36,36"
         style="fill:none;stroke:#0000ff;stroke-width:4.80000019;stroke-linecap:round;stroke-linejoin:miter;stroke-miterlimit:10;stroke-dasharray:none;stroke-opacity:1"
         id="path120"
         inkscape:connector-curvature="0" /><path
         d="m 1119.6,1694 c 0,19.88 -16.12,36 -36,36 -19.88,0 -36,-16.12 -36,-36 0,-19.88 16.12,-36 36,-36 19.88,0 36,16.12 36,36"
         style="fill:#0000ff;fill-opacity:1;fill-rule:nonzero;stroke:none"
         id="path122"
         inkscape:connector-curvature="0" /><path
         d="m 1119.6,1694 c 0,19.88 -16.12,36 -36,36 -19.88,0 -36,-16.12 -36,-36 0,-19.88 16.12,-36 36,-36 19.88,0 36,16.12 36,36"
         style="fill:none;stroke:#0000ff;stroke-width:4.80000019;stroke-linecap:round;stroke-linejoin:miter;stroke-miterlimit:10;stroke-dasharray:none;stroke-opacity:1"
         id="path124"
         inkscape:connector-curvature="0" /><path
         d="m 1436.4,1482.8 c 0,19.88 -16.12,36 -36,36 -19.88,0 -36,-16.12 -36,-36 0,-19.88 16.12,-36 36,-36 19.88,0 36,16.12 36,36"
         style="fill:#0000ff;fill-opacity:1;fill-rule:nonzero;stroke:none"
         id="path126"
         inkscape:connector-curvature="0" /><path
         d="m 1436.4,1482.8 c 0,19.88 -16.12,36 -36,36 -19.88,0 -36,-16.12 -36,-36 0,-19.88 16.12,-36 36,-36 19.88,0 36,16.12 36,36"
         style="fill:none;stroke:#0000ff;stroke-width:4.80000019;stroke-linecap:round;stroke-linejoin:miter;stroke-miterlimit:10;stroke-dasharray:none;stroke-opacity:1"
         id="path128"
         inkscape:connector-curvature="0" /><path
         d="m 1724.4,1118 c 0,19.88 -16.12,36 -36,36 -19.88,0 -36,-16.12 -36,-36 0,-19.88 16.12,-36 36,-36 19.88,0 36,16.12 36,36"
         style="fill:#0000ff;fill-opacity:1;fill-rule:nonzero;stroke:none"
         id="path130"
         inkscape:connector-curvature="0" /><path
         d="m 1724.4,1118 c 0,19.88 -16.12,36 -36,36 -19.88,0 -36,-16.12 -36,-36 0,-19.88 16.12,-36 36,-36 19.88,0 36,16.12 36,36"
         style="fill:none;stroke:#0000ff;stroke-width:4.80000019;stroke-linecap:round;stroke-linejoin:miter;stroke-miterlimit:10;stroke-dasharray:none;stroke-opacity:1"
         id="path132"
         inkscape:connector-curvature="0" /><path
         d="m 651.602,470 0,2400 2882.398,0 0,-2400 -2882.398,0"
         style="fill:none;stroke:#000000;stroke-width:4.80000019;stroke-linecap:round;stroke-linejoin:miter;stroke-miterlimit:10;stroke-dasharray:none;stroke-opacity:1"
         id="path134"
         inkscape:connector-curvature="0" /><g
         id="g136"
         transform="scale(10,10)"><text
           transform="matrix(1,0,0,-1,239.16,226.04)"
           style="font-variant:normal;font-weight:normal;font-size:14.39999962px;font-family:Helvetica;-inkscape-font-specification:Helvetica;writing-mode:lr-tb;fill:#000000;fill-opacity:1;fill-rule:nonzero;stroke:none"
           id="text138"><tspan
             x="0 8.0064001 15.2064 19.2096 22.406401 34.4016 42.408001 46.411201 54.417599 58.420799 66.4272 73.627197"
             y="0"
             sodipodi:role="line"
             id="tspan140">estimate 1x1</tspan></text>
</g><g
         id="g142"
         transform="scale(10,10)"><text
           transform="matrix(1,0,0,-1,84.8398,257.72)"
           style="font-variant:normal;font-weight:normal;font-size:14.39999962px;font-family:Helvetica;-inkscape-font-specification:Helvetica;writing-mode:lr-tb;fill:#ff0000;fill-opacity:1;fill-rule:nonzero;stroke:none"
           id="text144"><tspan
             x="0 8.0064001 15.2064 19.2096 22.406401 34.4016 42.408001 46.411201 54.417599 58.420799 66.4272 73.627197"
             y="0"
             sodipodi:role="line"
             id="tspan146">estimate 4x4</tspan></text>
</g><g
         id="g148"
         transform="scale(10,10)"><text
           transform="matrix(1,0,0,-1,165.72,61.4)"
           style="font-variant:normal;font-weight:normal;font-size:14.39999962px;font-family:Helvetica;-inkscape-font-specification:Helvetica;writing-mode:lr-tb;fill:#55c034;fill-opacity:1;fill-rule:nonzero;stroke:none"
           id="text150"><tspan
             x="0 8.0064001 16.0128 24.019199 32.0256 35.222401 43.228802 47.231998 55.2384 60.0336 68.040001 75.239998 78.436798 85.636803 88.833603 96.839996"
             y="0"
             sodipodi:role="line"
             id="tspan152">double precision</tspan></text>
</g><g
         id="g154"
         transform="scale(10,10)"><text
           transform="matrix(1,0,0,-1,93.7199,93.8)"
           style="font-variant:normal;font-weight:normal;font-size:14.39999962px;font-family:Helvetica;-inkscape-font-specification:Helvetica;writing-mode:lr-tb;fill:#0000ff;fill-opacity:1;fill-rule:nonzero;stroke:none"
           id="text156"><tspan
             x="0 11.9952 15.192 22.392 30.398399 38.4048 42.408001 50.414398 55.209599 63.216 70.416 73.612801 80.812798 84.009598 92.015999"
             y="0"
             sodipodi:role="line"
             id="tspan158">mixed precision</tspan></text>
</g></g></g></svg>