<?xml version="1.0" encoding="UTF-8" standalone="no"?>
<svg
   xmlns:dc="http://purl.org/dc/elements/1.1/"
   xmlns:cc="http://creativecommons.org/ns#"
   xmlns:rdf="http://www.w3.org/1999/02/22-rdf-syntax-ns#"
   xmlns:svg="http://www.w3.org/2000/svg"
   xmlns="http://www.w3.org/2000/svg"
   xmlns:sodipodi="http://sodipodi.sourceforge.net/DTD/sodipodi-0.dtd"
   xmlns:inkscape="http://www.inkscape.org/namespaces/inkscape"
   id="svg1149"
   version="1.1"
   viewBox="0 0 450 450"
   height="450mm"
   width="450mm"
   sodipodi:docname="gmx_falcon.svg"
   inkscape:version="0.92.3 (2405546, 2018-03-11)">
  <sodipodi:namedview
     pagecolor="#ffffff"
     bordercolor="#666666"
     borderopacity="1"
     objecttolerance="10"
     gridtolerance="10"
     guidetolerance="10"
     inkscape:pageopacity="0"
     inkscape:pageshadow="2"
     inkscape:window-width="1853"
     inkscape:window-height="1145"
     id="namedview971"
     showgrid="false"
     inkscape:zoom="0.54798148"
     inkscape:cx="820.2007"
     inkscape:cy="886.1642"
     inkscape:window-x="67"
     inkscape:window-y="27"
     inkscape:window-maximized="1"
     inkscape:current-layer="svg1149" />
  <defs
     id="defs1143">
    <inkscape:path-effect
       effect="spiro"
       id="path-effect1061"
       is_visible="true" />
    <clipPath
       id="_clip1">
      <rect
         id="rect892"
         height="550.58301"
         width="291.98801"
         y="0"
         x="0" />
    </clipPath>
  </defs>
  <metadata
     id="metadata1146">
    <rdf:RDF>
      <cc:Work
         rdf:about="">
        <dc:format>image/svg+xml</dc:format>
        <dc:type
           rdf:resource="http://purl.org/dc/dcmitype/StillImage" />
        <dc:title></dc:title>
      </cc:Work>
    </rdf:RDF>
  </metadata>
  <g
     transform="translate(0,153)"
     id="layer1"
     style="fill:none;fill-opacity:1;stroke:none">
    <g
       style="clip-rule:evenodd;fill:none;fill-opacity:1;fill-rule:evenodd;stroke-linejoin:round;stroke-miterlimit:2;stroke:none"
       id="g903"
       transform="matrix(0.82454635,-0.51053871,0.49150293,0.84357369,250.14362,56.767957)">
      <g
         style="fill:none;fill-opacity:1;stroke:none"
         id="g901"
         transform="translate(-145.994,-275.291)">
        <clipPath
           id="clipPath1706">
          <rect
             id="rect1704"
             height="550.58301"
             width="291.98801"
             y="0"
             x="0" />
        </clipPath>
        <g
           style="fill:none;fill-opacity:1;stroke:none"
           id="g899"
           clip-path="url(#_clip1)">
          <g
             style="fill:none;fill-opacity:1;stroke:none"
             id="g897"
             transform="matrix(1,0,0,-1,0,555.789)" />
        </g>
      </g>
    </g>
  </g>
  <g
     id="g842"
     transform="translate(7.10689,-9.54507)"
     style="fill:#ececec;fill-opacity:1;stroke:none;stroke-opacity:1"
     inkscape:export-filename="/home/cathrine/Pictures/svg_files/GROMACS_logo/GMX_logos/gmx_falcon_white.png"
     inkscape:export-xdpi="300"
     inkscape:export-ydpi="300">
    <path
       id="rect1188"
       d="m 41.158027,36.862134 c -5.067605,0.114086 -10.758954,0.07765 -13.860135,1.501201 -3.184436,1.750423 -2.821989,4.252571 -2.213302,4.913911 0.417703,0.525436 1.728276,1.435139 1.760616,2.509409 -0.355687,1.978739 -8.540643,0.142271 -13.277743,1.026295 -1.971417,0.415488 -3.5883814,1.583925 -3.8328413,2.926953 -0.1140291,2.067041 1.1265423,2.575017 2.4143233,3.470587 3.14977,2.135627 6.507488,3.727368 9.068697,5.87561 1.253729,0.919245 2.45072,1.936756 4.280876,3.156397 8.653728,5.692823 19.338307,10.928703 22.311301,12.905675 35.010808,23.382274 71.391691,46.934698 105.687091,66.210948 17.3743,23.66443 38.03145,47.03499 52.83967,69.91304 -8.51464,13.34908 -16.2153,23.54024 -26.00513,36.47013 -7.47265,9.58647 -12.7242,15.79733 -18.26555,22.44824 -9.9316,12.1082 -20.3747,20.74878 -29.10572,33.20264 -2.05193,2.60951 -3.20382,5.31056 -3.63544,8.1044 -0.48145,7.03834 12.36918,17.7201 13.594,18.20974 3.99488,1.47164 8.26211,-0.72435 11.96775,-2.91196 10.42715,-8.48248 20.01679,-20.35241 33.08119,-30.09894 6.93475,-5.08797 13.21941,-9.99855 21.9971,-16.1897 10.591,-7.75753 18.25921,-14.35134 27.12393,-21.8333 5.47698,-4.00318 8.86884,-3.19925 9.38702,-3.24528 20.18147,9.0007 35.95519,20.41379 47.10463,33.34422 28.81865,37.22362 48.30006,73.10919 74.95976,106.70614 4.2086,5.54379 8.13629,9.04706 11.46699,13.39866 l 4.6173,7.72512 c 0.85704,1.34845 3.62606,4.67968 4.81314,2.45928 4.7075,4.1507 6.35611,8.33985 8.91728,12.16773 2.47981,3.85953 3.59053,5.52575 5.22502,5.58779 1.62536,-0.17732 2.64702,-3.30811 2.75952,-5.3816 -0.0649,-6.43839 -0.52445,-8.39745 -0.0481,-8.76742 0.73313,-0.21656 2.30214,5.63288 9.33794,4.72581 1.70479,-1.07048 0.11292,-9.35281 -1.10744,-29.27882 -6.02679,-59.20256 -17.16104,-119.21909 -37.17034,-172.95587 -1.99855,-5.66626 -4.48439,-10.48003 -7.84603,-13.76092 -7.32869,-8.82859 -15.36353,-15.30351 -23.35414,-21.92579 -4.16065,-3.75625 -8.75593,-7.38237 -12.41112,-11.29027 -3.46615,-3.97565 -2.8878,-10.27856 -0.68832,-15.30862 1.61087,-4.11755 4.69831,-9.86645 5.38314,-11.69128 2.01419,-6.69993 1.62933,-7.52786 2.29907,-13.54749 0.16343,-2.40569 -0.0101,-3.68211 0.98393,-5.44566 1.2501,-1.02021 2.87774,-1.14414 4.55268,-0.39946 2.20314,1.46902 3.36098,1.38574 3.67988,0.78651 -1.08394,-7.57897 -12.61708,-14.35085 -19.2319,-13.53302 -4.14726,-1.2716 -9.57011,-1.31016 -13.54386,-0.78187 -7.45892,1.30469 -13.0538,2.83398 -19.10377,5.13664 -5.25428,2.52614 -9.63744,4.98053 -16.40363,3.48402 -5.38494,-1.27814 -8.0322,-3.40208 -10.32754,-6.35878 C 258.25672,105.39086 250.4662,86.489695 236.56833,74.663963 169.76711,49.628714 108.07696,38.456479 41.158027,36.862134 Z m 67.517843,23.330361 c 42.63832,-0.08655 85.98601,4.362077 122.53465,21.137211 9.83453,13.678189 15.71355,27.725614 23.48642,42.434624 3.25084,8.27418 5.29883,13.76672 1.08417,20.91707 -13.46351,16.24687 -28.38131,35.94725 -41.40471,54.70932 -0.47716,8.97476 -39.3571,-55.48985 -51.45733,-64.65652 C 126.0207,107.30976 121.95681,111.55429 66.71719,68.501031 63.546233,65.6094 60.754649,61.19063 79.362933,60.88134 89.034697,60.474089 98.836261,60.212466 108.67587,60.192495 Z m 224.10261,61.728535 c 1.61918,0.0134 4.3592,0.50304 7.44191,3.23546 -1.51503,1.30658 -1.26156,2.96907 -1.06246,4.66276 -3.49184,-2.02972 -7.76258,1.11022 -13.53354,1.39423 5.12553,-1.16335 7.62283,-3.9631 5.93762,-9.21235 0.26196,-0.036 0.67675,-0.0846 1.21647,-0.0801 z m -11.25204,2.27376 c 1.80433,0.39115 1.17613,0.22457 2.358,1.12603 -2.06709,2.94178 -3.99193,4.41507 -7.0285,3.83026 -2.53238,-0.49634 -3.26144,-1.84438 -4.76457,-3.9424 l 2.32749,-0.27595 c 1.67447,5.17616 6.94156,3.58906 7.3696,1.01647 -0.0265,-1.3497 -0.26202,-1.75441 -0.26202,-1.75441 z m -21.85188,7.6631 c 4.1606,-0.0519 8.73718,6.98868 6.92152,11.43496 7.22731,5.68 11.6341,-0.44184 16.33959,-3.50108 9.59575,-5.29682 12.07622,-4.62248 15.22388,-4.13825 -0.25011,7.1632 -1.87973,14.52802 -7.33186,24.5184 -9.12154,27.83239 -22.61876,38.22475 -36.56884,49.7024 -28.35264,23.79178 -57.41908,45.55891 -89.57953,64.42294 -6.78781,3.58045 -11.96577,5.56231 -17.44752,2.78278 0.57338,-8.92321 4.02562,-16.67319 8.51214,-25.59638 8.71795,-15.05432 17.44359,-29.15045 25.29252,-45.18173 19.42292,-33.87435 34.42263,-46.89517 49.85225,-60.00616 7.9271,-5.40016 10.4566,-7.61296 12.84005,-7.58507 2.4135,3.6206 11.39782,6.10895 12.39303,4.88498 -1.81309,-0.81494 -1.93051,-1.68173 -1.85465,-3.24425 0.87042,-6.20347 3.07342,-8.46441 5.40742,-8.49354 z m 34.64129,67.65685 c 7.07207,3.19673 20.0865,13.99569 33.71887,21.62659 25.40844,55.85701 26.57612,125.70521 23.54276,162.64848 -1.4672,11.68019 -2.6419,9.64332 -6.26526,7.16391 -39.14394,-33.23217 -58.44535,-81.0015 -87.02466,-115.09738 -18.48485,-14.1386 -39.63727,-20.91346 -44.47429,-27.37559 35.83951,-23.88175 63.47121,-43.90715 80.50258,-48.96601 z m -137.18181,39.14697 c 1.29577,0.0524 -1.0241,4.16146 -1.98282,5.82652 -5.48264,8.86367 -8.83948,19.35023 -12.85658,28.90315 -2.54565,5.38871 -5.62861,7.09422 -8.369,6.40889 -3.10141,-1.01735 -7.62708,-5.87401 -4.77181,-10.19471 8.0252,-9.41762 15.0174,-20.8627 25.29459,-29.40338 1.41974,-1.12484 2.2537,-1.55794 2.68562,-1.54047 z m 5.11648,41.06932 c 3.19519,-0.006 -14.70408,12.35567 -18.93166,13.67978 -4.6342,-5.3662 7.67952,-9.53249 11.80083,-10.87683 4.13148,-1.99644 6.31637,-2.80139 7.13083,-2.80295 z m -44.25259,1.33583 c 1.08655,4.8133 5.01897,7.14513 7.50806,8.97155 -1.86677,1.90431 -3.14682,3.14936 -5.12733,4.485 -3.03651,-2.16204 -5.81415,-3.6595 -7.32048,-7.67964 1.75826,-2.5264 2.9648,-3.90054 4.93975,-5.77691 z m -10.87944,12.73051 c 1.40176,2.65409 3.89991,5.84956 6.44715,7.39851 -1.19154,1.39436 -2.48,2.90688 -4.15324,3.98011 -2.89708,-1.52739 -5.67073,-4.88868 -6.71742,-6.92359 1.45994,-2.09373 3.28699,-3.88195 4.42351,-4.45503 z m 24.30808,2.16524 c 1.47874,3.97341 3.62242,4.91559 4.95577,5.96604 -0.95165,1.02195 -1.70013,2.20549 -4.38734,3.62767 -1.2916,-0.42986 -4.05293,-3.35549 -4.73614,-5.78463 1.80532,-2.10955 2.50335,-2.4292 4.16771,-3.80908 z m -11.98532,11.02879 c 0.9577,2.63578 2.38866,4.68077 4.7873,5.8756 -1.2586,1.94784 -2.1378,2.53624 -3.75791,3.38172 -0.84803,-0.68678 -2.91918,-2.1313 -4.87515,-5.56453 1.63216,-1.83277 2.38036,-2.39599 3.84576,-3.69279 z m -25.54211,3.14449 c 2.60746,6.18932 8.31192,10.18577 13.16819,15.47556 -0.75146,0.43161 -1.02531,2.02009 -2.28669,2.0438 -4.75409,-3.20992 -9.85201,-7.84206 -13.01522,-14.74536 0.89392,-1.30024 0.9894,-1.68278 2.13372,-2.774 z"
       style="opacity:1;fill:#ececec;fill-opacity:1;stroke:none;stroke-width:0.06500001;stroke-linecap:round;stroke-miterlimit:4;stroke-dasharray:none;stroke-dashoffset:0;stroke-opacity:1"
       inkscape:connector-curvature="0" />
    <path
       id="path1103-2"
       d="m 335.01217,124.12428 c 0.0593,-0.32031 0.32622,-1.21261 0.85352,-0.98617 0.54536,0.47927 0.84953,1.15744 0.89021,2.20293 -0.003,0.51987 -0.0501,0.94543 -0.72424,0.27913 -0.34283,-0.40095 -0.47359,-0.48681 -1.01949,-1.49589 z"
       style="fill:#ececec;fill-opacity:1;stroke:none;stroke-width:0.079375;stroke-linecap:butt;stroke-linejoin:miter;stroke-miterlimit:4;stroke-dasharray:none;stroke-opacity:1"
       inkscape:connector-curvature="0" />
  </g>
  <path
     style="opacity:1;fill:none;fill-opacity:1;stroke:none;stroke-width:0.08387499;stroke-linecap:round;stroke-miterlimit:4;stroke-dasharray:none;stroke-dashoffset:0;stroke-opacity:1"
     d="m 402.8553,420.48816 c -0.38761,-0.38762 -1.86566,-2.50013 -3.28451,-4.69445 -4.94853,-7.65307 -6.21808,-9.4611 -7.5588,-10.76486 -1.15396,-1.12213 -1.45116,-1.25836 -2.04812,-0.93888 -0.94107,0.50364 -0.89794,0.51671 -2.26819,-0.68638 -0.66405,-0.58309 -2.46647,-3.15648 -4.00537,-5.7187 -2.23824,-3.72663 -3.49488,-5.37578 -6.28152,-8.24344 -1.91596,-1.97168 -4.9261,-5.50532 -6.68917,-7.85255 -1.76311,-2.34719 -5.32935,-7.03069 -7.92504,-10.40775 -11.58515,-15.0726 -21.12143,-29.13325 -31.26365,-46.09629 -1.57181,-2.62888 -4.1875,-6.62342 -5.81265,-8.87677 -1.62513,-2.25333 -6.54148,-9.39742 -10.92521,-15.87575 -10.67951,-15.78234 -12.26216,-17.99661 -15.7277,-22.00436 -4.51625,-5.2229 -8.81423,-9.19438 -14.85046,-13.72237 -3.01593,-2.26237 -7.70186,-5.8788 -10.41312,-8.03652 -2.71127,-2.15773 -6.47782,-5.07261 -8.3701,-6.47753 -3.75774,-2.78991 -13.25898,-8.7634 -15.16656,-9.5353 -0.67677,-0.27386 -2.32078,-0.4797 -3.79117,-0.47469 -4.04953,0.0138 -6.04567,1.18506 -15.52531,9.10962 -9.39565,7.85435 -14.35264,11.73053 -23.70171,18.53386 -12.01407,8.74267 -21.72736,16.12272 -25.45087,19.33733 -1.96961,1.70042 -7.31232,6.73245 -11.87268,11.1823 -11.1677,10.89705 -13.72264,13.08923 -17.23884,14.79116 -2.21591,1.07257 -3.40036,1.42893 -5.17005,1.55556 -2.97729,0.21302 -3.86016,-0.21521 -7.60972,-3.6912 -3.71422,-3.44321 -6.70209,-7.14335 -8.16061,-10.10603 -2.69567,-5.47568 -0.89779,-9.56294 8.52001,-19.36916 10.29864,-10.72343 33.96164,-39.14176 46.37262,-55.69169 8.15693,-10.87718 10.549,-14.21115 15.89171,-22.14922 l 5.02661,-7.46841 -0.99605,-1.97318 c -0.54784,-1.08524 -2.21426,-3.7931 -3.70316,-6.01745 -2.58815,-3.86656 -4.87839,-6.69603 -16.17215,-19.97983 -7.30831,-8.59608 -10.14456,-12.35331 -17.04021,-22.57338 -10.71825,-15.88557 -13.04121,-18.54878 -18.95912,-21.73605 -6.26352,-3.37342 -12.87002,-7.30618 -26.40115,-15.71629 C 117.42939,103.85956 107.98075,98.091115 103.2863,95.300735 88.011271,86.221245 74.928651,77.792543 59.585281,67.145596 46.883905,58.33196 48.567343,59.411563 41.490328,55.541151 33.351457,51.090012 27.687733,47.642012 23.907495,44.836955 c -1.783889,-1.323702 -5.240708,-3.666381 -7.68182,-5.205949 -2.441112,-1.539571 -4.663767,-3.188878 -4.939233,-3.665131 -0.787229,-1.361032 -0.16351,-2.629931 1.762459,-3.585567 1.503804,-0.746162 1.975287,-0.79366 7.617391,-0.767368 3.558696,0.01659 6.284621,-0.11661 6.676271,-0.326213 0.947552,-0.507115 0.818012,-1.418561 -0.362339,-2.549409 -1.30937,-1.254455 -1.369541,-2.780681 -0.166019,-4.210987 2.404007,-2.857 8.24174,-3.189022 36.697342,-2.087167 28.825447,1.116176 52.505933,3.652003 71.536013,7.66044 32.36722,6.817732 67.48613,16.732011 96.09781,27.12899 l 6.65702,2.419043 3.02153,2.981209 c 4.58445,4.523277 6.75886,7.38432 14.68593,19.3234 4.00635,6.034021 8.80547,12.910064 10.66471,15.280093 1.85926,2.370026 4.37912,5.668071 5.59967,7.328981 3.54658,4.82614 7.829,7.16694 13.82729,7.5581 3.22984,0.21063 5.81604,-0.35701 9.90099,-2.17315 6.5417,-2.90839 11.84215,-4.58559 19.25151,-6.09168 4.70787,-0.95696 11.12007,-1.16691 14.41654,-0.47202 1.01148,0.21322 2.22313,0.34409 2.69256,0.29084 3.10353,-0.35207 4.34538,-0.10865 7.65199,1.49992 2.58381,1.25695 3.91525,2.18331 5.9981,4.17327 2.81646,2.69082 4.94903,5.5049 5.30672,7.00254 0.33026,1.38281 -0.61171,1.47723 -3.01932,0.30264 -4.72532,-2.30534 -5.50494,-1.38862 -6.40781,7.5346 -0.79708,7.8779 -1.50532,10.47081 -4.73525,17.33631 -3.96872,8.43587 -4.26527,9.39876 -4.27453,13.8793 -0.007,3.40931 0.0754,3.91294 0.89406,5.46263 1.35374,2.56256 5.75728,6.66147 20.77797,19.34064 7.87304,6.64573 15.52987,14.45793 19.23333,19.62355 3.75033,5.23105 9.44827,21.353 15.95866,45.1542 3.73631,13.65938 16.56665,65.3685 17.87697,72.04809 3.17815,16.20097 6.8082,46.88859 9.07029,76.67802 1.04793,13.80025 1.14326,15.63661 0.88344,17.02152 -0.23326,1.24328 -0.23463,1.24415 -2.01036,1.23664 -2.41567,-0.0103 -4.27887,-0.93755 -6.07573,-3.02408 -0.82791,-0.96131 -1.6433,-1.74795 -1.812,-1.74805 -0.17521,-1.1e-4 -0.22953,2.01258 -0.12674,4.69429 0.19257,5.02126 -0.15697,7.38682 -1.27381,8.62092 -0.79634,0.87995 -2.03099,0.87058 -2.9238,-0.0222 z m -12.0019,-36.69813 c 2.69505,-1.12583 4.60867,-3.93081 6.04481,-8.86061 1.46388,-5.02494 1.7119,-12.11908 1.2479,-35.69121 l -0.39354,-19.99255 -2.03382,-16.71172 c -3.77262,-30.99959 -5.44812,-40.99627 -8.7235,-52.04809 -0.80693,-2.72278 -2.49635,-8.63778 -3.75431,-13.14444 -4.92437,-17.64228 -7.25934,-24.48089 -11.1402,-32.62707 l -2.12852,-4.46795 -3.60556,-2.13708 c -8.07926,-4.78872 -16.56611,-8.86281 -24.99767,-12.00003 -5.72437,-2.12993 -6.03806,-2.15367 -9.69113,-0.73358 -7.89456,3.06892 -16.81144,7.956 -30.54202,16.73916 -4.25453,2.72154 -46.25097,30.72217 -46.73434,31.15956 -0.36102,0.32669 0.8966,2.3527 2.09955,3.38239 1.73467,1.48481 4.76562,3.04555 13.90751,7.16148 11.6618,5.25045 17.8113,8.66166 23.8007,13.2026 2.66763,2.02249 3.62378,3.04213 6.29795,6.71615 7.93695,10.9045 22.11523,32.62735 33.24453,50.93469 5.06357,8.3294 25.22384,35.55614 35.51889,47.96869 3.89358,4.69445 8.70749,10.60945 10.69755,13.14445 4.2151,5.3693 6.80532,8.07511 7.93549,8.28961 1.44272,0.27382 1.66441,0.25244 2.94973,-0.28445 z m -243.49494,-72.37035 0.918,-1.20356 -5.42437,-5.53937 c -3.63408,-3.71113 -5.81875,-6.24028 -6.61931,-7.66305 -0.65723,-1.16803 -1.30236,-2.12825 -1.43364,-2.13384 -0.13128,-0.006 -0.65916,0.54113 -1.17308,1.21489 -0.83695,1.09731 -0.89319,1.33424 -0.53931,2.27177 0.65948,1.74717 2.52673,4.63277 4.58268,7.08199 1.94412,2.31598 7.58536,7.15092 8.36163,7.16651 0.22517,0.005 0.8225,-0.53338 1.3274,-1.19534 z m 15.48279,-11.07334 c 0.86587,-0.55562 2.0037,-1.45841 2.52851,-2.0062 l 0.9542,-0.99597 -1.18532,-0.73255 c -1.45247,-0.89768 -3.55708,-3.18326 -3.99722,-4.34092 -0.37232,-0.97927 -0.38075,-0.97613 -3.14349,1.17277 -1.07972,0.83984 -1.96164,1.77316 -1.95981,2.07407 0.006,0.91122 4.22951,5.74807 5.08801,5.8262 0.0774,0.007 0.84925,-0.44177 1.71512,-0.9974 z m 12.72586,-10.70747 c 0.50887,-0.37479 1.38448,-1.25291 1.94579,-1.95139 l 1.02056,-1.26994 -1.70559,-1.15118 c -1.46729,-0.99036 -3.40534,-3.2729 -3.81019,-4.48741 -0.14172,-0.42519 -5.31197,3.28734 -5.59109,4.01473 -0.29899,0.77915 1.79191,3.45745 3.8494,4.93078 2.06818,1.481 2.16672,1.47902 4.29112,-0.0856 z m -22.77145,-1.62732 2.16438,-2.07833 -2.3417,-2.20906 c -1.28793,-1.21497 -2.82895,-2.96834 -3.42447,-3.89639 -0.59553,-0.92805 -1.15278,-1.68735 -1.23833,-1.68735 -0.29316,0 -3.92864,3.56814 -4.25301,4.17425 -0.38863,0.72615 -0.0131,1.52482 1.71616,3.65024 1.28787,1.5829 4.29051,4.12499 4.87228,4.12499 0.18717,0 1.31428,-0.93525 2.50469,-2.07835 z m 11.62163,-10.88801 c 1.39852,-1.19057 2.54277,-2.28076 2.54277,-2.4226 0,-0.14187 -0.74015,-0.80126 -1.64478,-1.46532 -2.4315,-1.78488 -4.61818,-4.26993 -5.37158,-6.10454 -0.36601,-0.89124 -0.7603,-1.62102 -0.87623,-1.62172 -0.35699,-0.002 -5.42257,5.4309 -5.42257,5.81597 0,0.58381 1.0365,2.44396 2.15384,3.86543 1.46167,1.85952 5.08165,4.65384 5.63082,4.3465 0.24473,-0.13695 1.58921,-1.22312 2.98773,-2.41372 z m 22.81468,-0.0436 c 6.14846,-3.11883 17.09792,-11.51553 16.42863,-12.59846 -0.3913,-0.63314 -2.0395,-0.33396 -4.77831,0.86737 -1.50222,0.65892 -3.72571,1.43094 -4.94107,1.71559 -4.41097,1.03312 -9.20572,3.9431 -10.44468,6.33895 -0.95879,1.85412 -0.28397,4.73708 1.10883,4.73708 0.29473,0 1.4767,-0.47726 2.6266,-1.06053 z m -8.45803,-12.95445 c 1.86934,-0.90494 3.93597,-3.16472 5.18814,-5.67305 0.54686,-1.09549 2.35307,-5.52542 4.01379,-9.84431 1.89462,-4.92716 4.45679,-10.70025 6.8776,-15.49663 3.61083,-7.15414 4.36561,-9.24337 3.52672,-9.76183 -1.49623,-0.92472 -9.02214,6.59835 -25.38294,25.37337 -4.56869,5.24286 -4.72844,5.49024 -4.72844,7.32257 0,2.06196 0.75457,3.68001 2.67223,5.73014 2.83634,3.03228 5.05073,3.69656 7.8329,2.34974 z m 18.73012,-0.16196 c 4.50404,-0.93034 6.69742,-1.9812 15.88833,-7.61217 19.20397,-11.76565 41.64615,-28.23089 67.0879,-49.22062 28.37725,-23.41158 30.33422,-25.12854 35.56368,-31.20247 6.10711,-7.09331 10.78273,-15.02789 14.61027,-24.7939 1.06711,-2.72278 2.79008,-6.79415 3.82881,-9.04748 3.19773,-6.93698 4.9023,-12.96657 5.42427,-19.18736 l 0.23493,-2.79947 -0.93348,-0.23429 c -1.41441,-0.355 -5.22856,0.0777 -7.42267,0.84206 -3.23305,1.12629 -8.06638,3.7271 -10.81768,5.82099 -3.66686,2.79066 -5.27502,3.5454 -7.5616,3.54883 -1.42764,0.002 -2.32458,-0.22947 -3.62075,-0.93494 l -1.72302,-0.93777 v -2.27726 c 0.003,-5.05082 -3.55624,-10.39198 -7.25231,-10.88773 -1.2519,-0.16791 -1.49293,-0.0656 -2.7083,1.14978 -1.48971,1.48971 -2.2307,3.49482 -2.80805,7.5985 -0.33374,2.37229 -0.309,2.59067 0.40225,3.5527 l 0.75785,1.02503 -1.56888,-0.21504 c -1.92738,-0.26418 -6.83641,-2.21301 -9.13114,-3.62498 -0.93517,-0.5754 -2.10902,-1.04618 -2.60858,-1.04618 -0.49956,0 -1.9952,0.54023 -3.32364,1.2005 -9.07378,4.50992 -24.99189,18.77302 -36.76319,32.94092 -8.12603,9.78047 -19.15773,26.78398 -25.13205,38.73684 -3.74299,7.48864 -7.97012,15.22562 -15.39645,28.18035 -3.28314,5.72723 -6.77132,12.02632 -7.7515,13.99799 -3.82968,7.70347 -6.76588,16.66573 -7.21998,22.03779 l -0.2078,2.45828 1.66819,0.53633 c 3.18194,1.02301 5.02663,1.10883 8.4839,0.39472 z m 17.38415,-76.3832 c 0.70059,-0.98583 2.6563,-3.9278 4.34603,-6.5377 4.67986,-7.22836 8.24217,-11.76644 18.97133,-24.16782 13.60989,-15.7311 13.03993,-15.05063 16.85959,-20.12835 5.61801,-7.46838 7.38863,-11.99801 7.05429,-18.04645 -0.29299,-5.30055 -1.37317,-8.61741 -5.55928,-17.07071 -8.23851,-16.636566 -13.70864,-26.626084 -18.7961,-34.325235 l -2.49026,-3.768667 -5.90485,-2.955795 c -3.24766,-1.62569 -8.0352,-3.819999 -10.63896,-4.87625 -4.21145,-1.708428 -5.70034,-2.107822 -13.48586,-3.617568 -19.99049,-3.876504 -45.71177,-8.279028 -75.35352,-12.897716 -18.17493,-2.831962 -22.96819,-3.204403 -41.114423,-3.194624 -12.747286,0.0069 -23.631554,0.630793 -28.361585,1.625785 -5.582044,1.174218 -8.852564,3.600905 -8.852564,6.568496 0,0.535789 0.408437,1.793787 0.907635,2.79555 0.79353,1.592406 1.512469,2.27144 5.718688,5.401265 13.284428,9.884874 24.655127,16.80808 50.731269,30.888438 12.86714,6.947882 19.12688,10.901578 38.10143,24.065131 17.87883,12.4034 20.07347,14.35421 27.95337,24.84776 5.04929,6.72406 14.87759,20.89689 18.16007,26.18761 1.43259,2.30904 5.68341,8.96099 9.44629,14.7821 3.76287,5.82111 7.51695,11.85134 8.34239,13.40051 1.00009,1.87692 1.6994,2.81667 2.09602,2.81667 0.32866,0 1.16563,-0.80268 1.869,-1.79243 z m 120.04841,-69.42429 c 3.03673,-0.90182 7.51036,-5.75765 7.51036,-8.15204 0,-0.82722 -2.42721,-3.11575 -3.52769,-3.32612 -0.4758,-0.0909 -1.57435,0.0802 -2.4412,0.3804 -1.29718,0.44918 -1.68529,0.7898 -2.193,1.92464 -0.99322,2.21999 -5.37073,5.77375 -8.85793,7.19106 -1.68455,0.68465 -1.78242,0.78185 -1.13581,1.1279 2.52823,1.35308 7.59598,1.7597 10.64527,0.85416 z m -16.63274,-2.35996 c 2.01176,-0.68278 3.60053,-1.92295 4.32419,-3.37541 0.56312,-1.13024 0.60019,-1.48044 0.2481,-2.34334 -0.38446,-0.9422 -2.70552,-2.67339 -3.08096,-2.29796 -0.0916,0.0917 -0.0277,0.9102 0.14208,1.819 0.49517,2.65053 -0.25014,3.62531 -2.77836,3.63379 -3.45308,0.0116 -6.8049,-1.84859 -6.8049,-3.77653 0,-0.93323 -0.43794,-0.81418 -1.30144,0.35379 -1.77154,2.39613 -0.13763,5.343 3.61077,6.51228 1.10395,0.34436 3.824,0.0909 5.64052,-0.52562 z"
     id="path831-6"
     inkscape:connector-curvature="0" />
  <path
     style="opacity:1;fill:none;fill-opacity:1;stroke:none;stroke-width:1.20005751;stroke-linecap:round;stroke-miterlimit:4;stroke-dasharray:none;stroke-dashoffset:0;stroke-opacity:1"
     d="M 14.06821,224.61657 V 13.281165 H 229.50059 444.93297 V 224.61657 435.95197 H 229.50059 14.06821 Z m 404.12274,193.92328 c 0.5435,-1.62671 0.7697,-4.1896 0.5593,-6.33717 l -0.35327,-3.60588 2.02141,1.70093 c 2.0872,1.75623 6.12111,2.91418 7.39955,2.12405 1.60986,-0.99494 0.17246,-22.58171 -4.09392,-61.48194 -2.4121,-21.99331 -5.16745,-36.13264 -13.63898,-69.98992 -11.76766,-47.03046 -17.6915,-66.87399 -23.29045,-78.018 -3.05414,-6.07884 -10.94711,-14.35468 -26.24072,-27.51359 -7.70318,-6.62795 -14.53054,-12.85172 -15.17192,-13.83061 -0.82087,-1.25278 -1.16618,-3.20403 -1.16618,-6.58963 0,-4.35473 0.33187,-5.52352 3.50761,-12.35284 3.55949,-7.65455 4.61097,-11.45131 5.38062,-19.42871 0.23553,-2.44111 0.5901,-5.00653 0.78798,-5.70093 0.37098,-1.30199 0.33621,-1.30199 6.54095,-5.3e-4 1.54467,0.32399 1.8778,0.156 1.8778,-0.94685 0,-3.12282 -5.89139,-9.23258 -11.77985,-12.21649 -3.14418,-1.59327 -4.14446,-1.72579 -13.72995,-1.81898 -9.30704,-0.0905 -10.99375,0.0821 -16.90309,1.72985 -3.61043,1.00672 -9.14133,2.97297 -12.2909,4.36947 -4.71006,2.08838 -6.51436,2.5377 -10.16492,2.53131 -5.43171,-0.01 -10.0982,-2.02949 -12.9921,-5.62394 -5.28934,-6.569715 -9.48063,-12.381459 -17.34876,-24.056284 -4.71236,-6.992276 -10.5708,-14.876508 -13.01876,-17.520534 -4.07293,-4.399143 -4.95761,-4.993093 -10.41936,-6.995271 -25.71854,-9.427965 -62.78731,-20.104596 -91.32207,-26.302797 -24.99826,-5.430018 -46.11902,-7.7814 -82.62224,-9.198365 -25.281038,-0.981346 -31.391329,-0.296052 -33.223994,3.72621 -0.657606,1.443286 -0.588283,1.965651 0.406778,3.06518 2.027119,2.239942 0.706721,3.002338 -4.4509,2.569941 -5.257843,-0.440798 -8.754616,0.294018 -10.481939,2.20269 -1.675594,1.851509 -0.526919,3.6497 4.263174,6.673774 2.135556,1.348216 5.880103,3.907541 8.321215,5.687385 2.441112,1.779847 9.201114,5.936015 15.022225,9.23593 5.821114,3.299918 15.039298,9.112314 20.484854,12.916437 17.237706,12.04181 35.396697,23.43117 78.525277,49.251214 7.69889,4.60914 14.9076,8.93819 16.01936,9.62011 2.73356,1.67669 7.33706,7.47958 15.41699,19.43373 7.52724,11.13648 11.36327,16.09208 22.12073,28.57691 6.5659,7.62022 15.40859,19.72547 15.40859,21.09369 0,0.98837 -10.48111,16.19991 -19.17373,27.8274 -12.73728,17.03771 -37.03022,46.31957 -49.4739,59.63409 -6.03066,6.45268 -7.82916,9.51545 -7.82916,13.33267 0,3.91626 1.8597,7.03435 7.83963,13.14445 5.2848,5.3998 5.63993,5.63306 8.56716,5.62666 5.52045,-0.0122 8.99274,-2.34167 21.83161,-14.64715 14.18025,-13.59112 16.84365,-15.7983 36.87274,-30.55676 8.45,-6.22638 19.48536,-14.76417 24.52303,-18.97285 11.09409,-9.26847 13.29309,-10.52481 17.68342,-10.10296 4.09603,0.39358 12.51358,5.75634 28.97035,18.4568 19.38356,14.95924 21.33819,17.09146 37.40819,40.80736 5.72577,8.45 11.23762,16.43909 12.24857,17.75354 1.01095,1.31445 3.0185,4.38717 4.46122,6.82829 12.48767,21.1296 36.74097,55.2092 47.13671,66.23436 1.94765,2.06555 4.68128,5.6728 6.07473,8.01611 2.55003,4.28829 4.88508,6.58284 5.99863,5.8946 1.06125,-0.65587 2.72003,1.28212 7.85556,9.17782 4.56163,7.01328 5.19526,7.70519 6.87851,7.51109 1.48198,-0.17086 2.03718,-0.76189 2.76659,-2.94507 z"
     id="path835-1"
     inkscape:connector-curvature="0" />
  <path
     style="opacity:1;fill:none;fill-opacity:1;stroke:none;stroke-width:1.20005751;stroke-linecap:round;stroke-miterlimit:4;stroke-dasharray:none;stroke-dashoffset:0;stroke-opacity:1"
     d="M 14.06821,224.61657 V 13.281165 H 229.50059 444.93297 V 224.61657 435.95197 H 229.50059 14.06821 Z m 404.12274,193.92328 c 0.5435,-1.62671 0.7697,-4.1896 0.5593,-6.33717 l -0.35327,-3.60588 2.02141,1.70093 c 2.0872,1.75623 6.12111,2.91418 7.39955,2.12405 1.60986,-0.99494 0.17246,-22.58171 -4.09392,-61.48194 -2.4121,-21.99331 -5.16745,-36.13264 -13.63898,-69.98992 -11.76766,-47.03046 -17.6915,-66.87399 -23.29045,-78.018 -3.05414,-6.07884 -10.94711,-14.35468 -26.24072,-27.51359 -7.70318,-6.62795 -14.53054,-12.85172 -15.17192,-13.83061 -0.82087,-1.25278 -1.16618,-3.20403 -1.16618,-6.58963 0,-4.35473 0.33187,-5.52352 3.50761,-12.35284 3.55949,-7.65455 4.61097,-11.45131 5.38062,-19.42871 0.23553,-2.44111 0.5901,-5.00653 0.78798,-5.70093 0.37098,-1.30199 0.33621,-1.30199 6.54095,-5.3e-4 1.54467,0.32399 1.8778,0.156 1.8778,-0.94685 0,-3.12282 -5.89139,-9.23258 -11.77985,-12.21649 -3.14418,-1.59327 -4.14446,-1.72579 -13.72995,-1.81898 -9.30704,-0.0905 -10.99375,0.0821 -16.90309,1.72985 -3.61043,1.00672 -9.14133,2.97297 -12.2909,4.36947 -4.71006,2.08838 -6.51436,2.5377 -10.16492,2.53131 -5.43171,-0.01 -10.0982,-2.02949 -12.9921,-5.62394 -5.28934,-6.569715 -9.48063,-12.381459 -17.34876,-24.056284 -4.71236,-6.992276 -10.5708,-14.876508 -13.01876,-17.520534 -4.07293,-4.399143 -4.95761,-4.993093 -10.41936,-6.995271 -25.71854,-9.427965 -62.78731,-20.104596 -91.32207,-26.302797 -24.99826,-5.430018 -46.11902,-7.7814 -82.62224,-9.198365 -25.281038,-0.981346 -31.391329,-0.296052 -33.223994,3.72621 -0.657606,1.443286 -0.588283,1.965651 0.406778,3.06518 2.027119,2.239942 0.706721,3.002338 -4.4509,2.569941 -5.257843,-0.440798 -8.754616,0.294018 -10.481939,2.20269 -1.675594,1.851509 -0.526919,3.6497 4.263174,6.673774 2.135556,1.348216 5.880103,3.907541 8.321215,5.687385 2.441112,1.779847 9.201114,5.936015 15.022225,9.23593 5.821114,3.299918 15.039298,9.112314 20.484854,12.916437 17.237706,12.04181 35.396697,23.43117 78.525277,49.251214 7.69889,4.60914 14.9076,8.93819 16.01936,9.62011 2.73356,1.67669 7.33706,7.47958 15.41699,19.43373 7.52724,11.13648 11.36327,16.09208 22.12073,28.57691 6.5659,7.62022 15.40859,19.72547 15.40859,21.09369 0,0.98837 -10.48111,16.19991 -19.17373,27.8274 -12.73728,17.03771 -37.03022,46.31957 -49.4739,59.63409 -6.03066,6.45268 -7.82916,9.51545 -7.82916,13.33267 0,3.91626 1.8597,7.03435 7.83963,13.14445 5.2848,5.3998 5.63993,5.63306 8.56716,5.62666 5.52045,-0.0122 8.99274,-2.34167 21.83161,-14.64715 14.18025,-13.59112 16.84365,-15.7983 36.87274,-30.55676 8.45,-6.22638 19.48536,-14.76417 24.52303,-18.97285 11.09409,-9.26847 13.29309,-10.52481 17.68342,-10.10296 4.09603,0.39358 12.51358,5.75634 28.97035,18.4568 19.38356,14.95924 21.33819,17.09146 37.40819,40.80736 5.72577,8.45 11.23762,16.43909 12.24857,17.75354 1.01095,1.31445 3.0185,4.38717 4.46122,6.82829 12.48767,21.1296 36.74097,55.2092 47.13671,66.23436 1.94765,2.06555 4.68128,5.6728 6.07473,8.01611 2.55003,4.28829 4.88508,6.58284 5.99863,5.8946 1.06125,-0.65587 2.72003,1.28212 7.85556,9.17782 4.56163,7.01328 5.19526,7.70519 6.87851,7.51109 1.48198,-0.17086 2.03718,-0.76189 2.76659,-2.94507 z"
     id="path837-8"
     inkscape:connector-curvature="0" />
</svg>
