<?xml version="1.0" encoding="UTF-8" standalone="no"?>
<!-- Created with Inkscape (http://www.inkscape.org/) -->

<svg
   xmlns:dc="http://purl.org/dc/elements/1.1/"
   xmlns:cc="http://creativecommons.org/ns#"
   xmlns:rdf="http://www.w3.org/1999/02/22-rdf-syntax-ns#"
   xmlns:svg="http://www.w3.org/2000/svg"
   xmlns="http://www.w3.org/2000/svg"
   xmlns:sodipodi="http://sodipodi.sourceforge.net/DTD/sodipodi-0.dtd"
   xmlns:inkscape="http://www.inkscape.org/namespaces/inkscape"
   id="svg2"
   version="1.1"
   inkscape:version="0.91 r13725"
   xml:space="preserve"
   width="540"
   height="540"
   viewBox="0 0 540 540"
   sodipodi:docname="awh-traj.svg"><metadata
     id="metadata8"><rdf:RDF><cc:Work
         rdf:about=""><dc:format>image/svg+xml</dc:format><dc:type
           rdf:resource="http://purl.org/dc/dcmitype/StillImage" /><dc:title></dc:title></cc:Work></rdf:RDF></metadata><defs
     id="defs6"><clipPath
       clipPathUnits="userSpaceOnUse"
       id="clipPath22"><path
         d="m 302.398,302.398 3802,0 0,3802 -3802,0 0,-3802 z"
         id="path24"
         inkscape:connector-curvature="0" /></clipPath></defs><sodipodi:namedview
     pagecolor="#ffffff"
     bordercolor="#666666"
     borderopacity="1"
     objecttolerance="10"
     gridtolerance="10"
     guidetolerance="10"
     inkscape:pageopacity="0"
     inkscape:pageshadow="2"
     inkscape:window-width="760"
     inkscape:window-height="480"
     id="namedview4"
     showgrid="false"
     inkscape:zoom="0.43703704"
     inkscape:cx="270"
     inkscape:cy="270"
     inkscape:window-x="0"
     inkscape:window-y="25"
     inkscape:window-maximized="0"
     inkscape:current-layer="g10" /><g
     id="g10"
     inkscape:groupmode="layer"
     inkscape:label="ink_ext_XXXXXX"
     transform="matrix(1.25,0,0,-1.25,0,540)"><g
       id="g12"
       transform="scale(0.1,0.1)"><path
         d="m 0,0 4320,0 0,4320 L 0,4320 0,0 Z"
         style="fill:#ffffff;fill-opacity:1;fill-rule:nonzero;stroke:none"
         id="path14"
         inkscape:connector-curvature="0" /><path
         d="m 302.398,302.398 3801.6,0 0,3801.6 -3801.6,0 0,-3801.6 z"
         style="fill:#ffffff;fill-opacity:1;fill-rule:nonzero;stroke:none"
         id="path16"
         inkscape:connector-curvature="0" /><g
         id="g18"><g
           id="g20"
           clip-path="url(#clipPath22)"><path
             d="m 302.398,2203.2 7.606,-344.49 7.601,-554.02 7.606,-66.29 7.602,-11.1 7.601,-16.18 7.606,379.46 7.601,-165.21 7.606,121.58 7.601,154.88 7.606,465.97 7.601,-104.46 7.602,-503.17 7.605,-102.69 7.602,-280.82 7.605,94.41 7.602,-242.62 7.601,-54.555 7.606,28.575 7.601,64.64 7.606,326.65 7.601,64.75 7.606,-334.53 7.601,183.95 7.606,424.32 7.601,-277.34 7.602,-122.38 7.606,-385.467 7.601,91.157 7.606,201.02 7.601,587.89 7.602,156.99 7.605,-261.42 7.602,-165.88 7.605,290.71 7.602,132.84 7.601,83.22 7.606,102.46 7.601,371.33 7.606,257.06 7.601,208.35 7.606,141.17 7.601,24.73 7.606,-42.33 7.601,281.15 7.602,-463.87 7.605,161.66 7.602,-95.4 7.605,-136.74 7.602,-44.01 7.602,359.31 7.605,284.74 7.602,-206.03 7.605,27.74 7.602,-71.65 7.601,-272.08 7.606,-330.87 7.601,12.24 15.207,329.51 7.606,73.98 15.203,475.29 7.605,3.38 7.602,97.97 7.605,-180.84 7.602,-445.05 7.602,-204.11 7.605,-450.91 7.602,-173.25 7.605,349.64 7.602,148.13 7.601,-192.32 7.606,-281.48 7.601,146.37 7.606,201.62 7.601,99.16 7.606,260.45 7.601,143.72 7.606,-110.11 7.601,426.08 15.207,-234.8 7.602,-313.2 7.605,-157.78 7.602,-377.73 7.601,-106.57 7.606,-130.27 7.601,-178.57 7.606,-271.27 7.602,-325.41 15.202,-350.242 7.61,119.502 7.6,-189.651 7.6,147.844 7.61,103.697 7.6,-256.42 7.6,19.906 7.61,59.391 7.6,90.367 7.6,-159.601 7.61,377.977 7.6,104.57 7.6,6.08 7.61,401.45 7.6,237.16 7.6,-272.61 7.61,-87.21 7.6,-162.15 7.6,235.53 7.61,-442.92 7.6,-44.88 7.6,-199.236 7.6,-130.414 7.61,372.7 7.6,229.98 7.6,177.46 7.61,-172.7 7.6,-13.91 7.6,-228.9 7.61,79.71 7.6,319.34 7.6,133.37 7.61,393.88 7.6,-261.94 7.6,-35.76 15.21,705.84 7.6,79.24 7.61,-59 7.6,-182.78 7.6,141.25 7.61,93.76 7.6,139.16 7.6,321.88 7.61,178.11 7.6,247.98 7.6,-87.76 7.6,-50.55 7.61,-36.85 7.6,-202.84 7.6,-342.67 7.61,399.64 7.6,94.81 7.6,291.47 22.81,-542.85 7.61,-250.81 7.6,86.13 7.6,-8.33 7.61,-99.94 7.6,212.15 7.6,-319.76 7.61,337.79 7.6,69.88 7.6,34.99 7.61,336.82 7.6,-15.43 7.6,155.39 7.61,-101.69 7.6,-80.71 7.6,-261.61 7.6,419.11 7.61,-67.33 7.6,-31.57 7.6,-100.21 7.61,97.28 7.6,68.89 7.6,-15.51 7.61,-227.15 7.6,319.64 15.21,-709.21 7.6,-87.11 7.6,245.03 7.61,401.54 7.6,27.51 7.6,-72.74 7.61,-147.13 7.6,38.93 7.6,25.81 7.61,-312.77 7.6,129.73 7.6,204.16 7.61,-419.98 7.6,221.62 7.6,429.02 7.6,34.49 7.61,-55.96 7.6,-137.19 7.6,-189.49 7.61,58.55 7.6,-265.81 15.21,-884.65 7.6,309.24 7.6,178.07 7.61,-452.04 7.6,-104.99 7.6,163.87 7.61,-167.28 7.6,-650.22 7.6,-72.56 7.61,157.2 7.6,212.58 7.6,-122.59 7.61,149.28 7.6,90.47 7.6,-254.36 7.61,-147.45 7.6,-227.01 7.6,-185.2 7.6,-116.133 7.61,296.503 7.6,49.48 7.6,116.17 7.61,579.89 7.6,2.83 7.6,-80.75 7.61,103.53 7.6,-367.92 7.6,4.75 7.61,-201.9 15.2,904.19 7.61,119.47 7.6,163.1 7.6,25.76 7.61,-337.83 7.6,-2.36 7.6,-231.78 7.61,165.62 7.6,-361.16 7.6,-441.28 7.61,32.71 7.6,-428.83 7.6,348.66 7.6,101.22 7.61,-115.44 7.6,-210.9 7.6,-48.64 7.61,150.66 7.6,99.72 7.6,408.65 7.61,-9.98 7.6,241.78 7.6,-215.32 7.61,372.32 15.2,176.57 7.61,178.12 7.6,-89.54 7.6,63.58 7.61,130.51 7.6,156.96 15.21,-105.95 7.6,425.29 7.6,156.23 7.61,-208.94 15.2,-539.77 7.6,206.98 7.61,-179.74 7.6,329.46 7.6,-359.3 7.61,463.83 7.6,-1.86 15.21,664.82 7.6,-207.04 7.6,-134.95 7.61,-352.71 7.6,188.95 7.6,231.01 7.61,189.83 7.6,-13.74 7.6,-110.46 7.61,143.51 7.6,-44.04 7.6,17.26 7.61,106.43 7.6,-136.65 7.6,-111.5 7.61,-265.68 7.6,-72.78 7.6,240.57 7.6,73.4 7.61,-55.14 7.6,-186.52 7.6,-291.24 7.61,185.13 15.2,-228.72 7.61,69.95 7.6,-298.46 7.6,-90.75 7.61,142.26 7.6,114.14 7.6,-58.75 7.61,592.84 7.6,336.8 7.6,-180.5 15.21,-271.78 7.6,238.97 7.61,143.55 7.6,-192.34 7.6,267.42 7.61,-62.04 7.6,-162.63 7.6,-359.01 7.6,-111.33 7.61,34.6 7.6,255.85 7.6,169.34 7.61,-280.81 7.6,-133.18 7.6,-202.8 7.61,137.5 7.6,371.67 7.6,-107.74 7.61,-7.22 7.6,-235.44 7.6,-12.92 7.61,83.12 7.6,-149.35 7.6,-3.46 7.61,248.57 7.6,-94.41 7.6,-53.98 7.61,-107.02 7.6,266.63 7.6,561.15 7.61,-517.09 7.6,53.39 7.6,-21.46 7.6,135.57 7.61,-3.2 7.6,-53.58 7.6,188.29 7.61,0.86 7.6,154.65 7.6,-53.64 7.61,3.42 7.6,-2.7 7.6,-24.71 7.61,109.24 7.6,-375.53 7.6,-95.43 7.61,162.63 7.6,-7.4 7.6,-71.39 7.61,-587.56 7.6,198.58 7.6,608.22 7.61,53.54 7.6,-342.88 7.6,99.33 7.61,226.81 7.6,-192.97 7.6,-640.12 7.6,41.04 7.61,-27.96 7.6,-740.25 7.6,177.23 7.61,113 7.6,-180.46 7.6,-284.28 7.61,433.72 7.6,-495.59 7.6,-102.31 7.61,39.47 7.6,-34.88 7.6,-8.59 7.61,96.4 7.6,275.78 7.6,187.07 7.61,-153.9 7.6,54.76 7.6,-198.06 7.61,-367.25 7.6,152.67 7.6,-157.89 7.61,353.94 7.6,263.83 7.6,109.24 7.6,-32.11 7.61,-326.84 7.6,-99.65 7.6,110.88 7.61,215.45 7.6,0.33 7.6,-181.96 7.61,412.9 7.6,118.71 7.6,-304.8 7.61,108.6 7.6,-21.96 7.6,22.4 7.61,-317.11 7.6,-24.74 7.6,-288.61 7.61,139.85 7.6,-119.58 7.6,3.93 7.61,324.78 7.6,-291.76 7.6,-195.16 7.61,-244.63 7.6,330.06 7.6,-59.4 7.6,-118.1 7.61,257.52 7.6,171.68 7.6,50.62 7.61,33.21 7.6,-46.04 7.6,-123.36 7.61,287.79 7.6,141.31 7.6,-271.74 7.61,121.54 7.6,203.57 15.21,29.77 7.6,-231.36 7.6,257.42 7.61,-28.44 7.6,187.68 7.6,34.22 7.61,166.32 7.6,340.26 7.6,-257.2 7.61,8.25 7.6,-26.04 7.6,131.37 7.6,334.48 7.61,52.48 7.6,93.69 7.6,-98.54 7.61,358.21 15.2,-495.9 7.61,-3.38 7.6,251.76 7.6,-136.73 7.61,-534.35 7.6,-40.79 7.6,-16.35 7.61,-723.88 7.6,320.96 7.6,20.51 7.61,61.92 7.6,-48.25 7.6,6.82 7.61,401.12 7.6,-285.28 7.6,118.6 7.61,-224.74 7.6,362.51 7.6,-177.71 7.6,191.77 7.61,234.71 15.2,-549.37 7.61,212.36 7.6,-16.86 7.6,-377.11 7.61,108.06 7.6,-102.05 7.6,239.96 7.61,490.51 7.6,119.35 7.6,220.45 7.61,130.91 7.6,174.8 7.6,-123.55 7.61,-269.5 7.6,-146.02 7.6,-246.38 7.61,-503.15 7.6,354.89 7.6,215.07 7.61,-1.86 7.6,-54.92 7.6,-154.06 7.6,-204.03 7.61,-132.89 7.6,-299.29 7.6,-175.15 7.61,-494.07 7.6,271.22 7.6,-235.13 7.61,242.02 7.6,108.26 7.6,91.29 7.61,-81.28 7.6,278.66 7.6,-303.64 0,0"
             style="fill:none;stroke:#000000;stroke-width:10;stroke-linecap:square;stroke-linejoin:round;stroke-miterlimit:10;stroke-dasharray:none;stroke-opacity:1"
             id="path26"
             inkscape:connector-curvature="0" /><path
             d="m 997.512,798.816 99.998,100 m -99.998,0 99.998,-100"
             style="fill:none;stroke:#d94614;stroke-width:20;stroke-linecap:butt;stroke-linejoin:round;stroke-miterlimit:10;stroke-dasharray:none;stroke-opacity:1"
             id="path28"
             inkscape:connector-curvature="0" /><path
             d="m 1370.07,3163.44 100,100 m -100,0 100,-100"
             style="fill:none;stroke:#32cd32;stroke-width:20;stroke-linecap:butt;stroke-linejoin:round;stroke-miterlimit:10;stroke-dasharray:none;stroke-opacity:1"
             id="path30"
             inkscape:connector-curvature="0" /><path
             d="m 1902.29,1308.79 100,100 m -100,0 100,-100"
             style="fill:none;stroke:#1a4ed4;stroke-width:20;stroke-linecap:butt;stroke-linejoin:round;stroke-miterlimit:10;stroke-dasharray:none;stroke-opacity:1"
             id="path32"
             inkscape:connector-curvature="0" /><path
             d="m 302.398,777.602 3801.602,0"
             style="fill:none;stroke:#000000;stroke-width:10;stroke-linecap:butt;stroke-linejoin:round;stroke-miterlimit:10;stroke-dasharray:60, 60;stroke-dashoffset:0;stroke-opacity:1"
             id="path34"
             inkscape:connector-curvature="0" /><path
             d="m 302.398,3628.8 3801.602,0"
             style="fill:none;stroke:#000000;stroke-width:10;stroke-linecap:butt;stroke-linejoin:round;stroke-miterlimit:10;stroke-dasharray:60, 60;stroke-dashoffset:0;stroke-opacity:1"
             id="path36"
             inkscape:connector-curvature="0" /></g></g><path
         d="m 302.398,302.398 0,40"
         style="fill:#000000;fill-opacity:1;fill-rule:nonzero;stroke:none"
         id="path38"
         inkscape:connector-curvature="0" /><path
         d="m 302.398,302.398 0,40"
         style="fill:none;stroke:#000000;stroke-width:5;stroke-linecap:butt;stroke-linejoin:round;stroke-miterlimit:10;stroke-dasharray:none;stroke-opacity:1"
         id="path40"
         inkscape:connector-curvature="0" /><path
         d="m 302.398,4104 0,-40"
         style="fill:#000000;fill-opacity:1;fill-rule:nonzero;stroke:none"
         id="path42"
         inkscape:connector-curvature="0" /><path
         d="m 302.398,4104 0,-40"
         style="fill:none;stroke:#000000;stroke-width:5;stroke-linecap:butt;stroke-linejoin:round;stroke-miterlimit:10;stroke-dasharray:none;stroke-opacity:1"
         id="path44"
         inkscape:connector-curvature="0" /><g
         id="g46"
         transform="scale(10,10)"><text
           transform="matrix(1,0,0,-1,25.2008,11.0367)"
           style="font-variant:normal;font-weight:normal;font-size:20px;font-family:Arial;-inkscape-font-specification:Arial;writing-mode:lr-tb;fill:#000000;fill-opacity:1;fill-rule:nonzero;stroke:none"
           id="text48"><tspan
             x="0"
             y="0"
             id="tspan50">0</tspan></text>
</g><path
         d="m 1062.72,302.398 0,40"
         style="fill:#000000;fill-opacity:1;fill-rule:nonzero;stroke:none"
         id="path52"
         inkscape:connector-curvature="0" /><path
         d="m 1062.72,302.398 0,40"
         style="fill:none;stroke:#000000;stroke-width:5;stroke-linecap:butt;stroke-linejoin:round;stroke-miterlimit:10;stroke-dasharray:none;stroke-opacity:1"
         id="path54"
         inkscape:connector-curvature="0" /><path
         d="m 1062.72,4104 0,-40"
         style="fill:#000000;fill-opacity:1;fill-rule:nonzero;stroke:none"
         id="path56"
         inkscape:connector-curvature="0" /><path
         d="m 1062.72,4104 0,-40"
         style="fill:none;stroke:#000000;stroke-width:5;stroke-linecap:butt;stroke-linejoin:round;stroke-miterlimit:10;stroke-dasharray:none;stroke-opacity:1"
         id="path58"
         inkscape:connector-curvature="0" /><path
         d="m 1823.04,302.398 0,40"
         style="fill:#000000;fill-opacity:1;fill-rule:nonzero;stroke:none"
         id="path60"
         inkscape:connector-curvature="0" /><path
         d="m 1823.04,302.398 0,40"
         style="fill:none;stroke:#000000;stroke-width:5;stroke-linecap:butt;stroke-linejoin:round;stroke-miterlimit:10;stroke-dasharray:none;stroke-opacity:1"
         id="path62"
         inkscape:connector-curvature="0" /><path
         d="m 1823.04,4104 0,-40"
         style="fill:#000000;fill-opacity:1;fill-rule:nonzero;stroke:none"
         id="path64"
         inkscape:connector-curvature="0" /><path
         d="m 1823.04,4104 0,-40"
         style="fill:none;stroke:#000000;stroke-width:5;stroke-linecap:butt;stroke-linejoin:round;stroke-miterlimit:10;stroke-dasharray:none;stroke-opacity:1"
         id="path66"
         inkscape:connector-curvature="0" /><path
         d="m 2583.36,302.398 0,40"
         style="fill:#000000;fill-opacity:1;fill-rule:nonzero;stroke:none"
         id="path68"
         inkscape:connector-curvature="0" /><path
         d="m 2583.36,302.398 0,40"
         style="fill:none;stroke:#000000;stroke-width:5;stroke-linecap:butt;stroke-linejoin:round;stroke-miterlimit:10;stroke-dasharray:none;stroke-opacity:1"
         id="path70"
         inkscape:connector-curvature="0" /><path
         d="m 2583.36,4104 0,-40"
         style="fill:#000000;fill-opacity:1;fill-rule:nonzero;stroke:none"
         id="path72"
         inkscape:connector-curvature="0" /><path
         d="m 2583.36,4104 0,-40"
         style="fill:none;stroke:#000000;stroke-width:5;stroke-linecap:butt;stroke-linejoin:round;stroke-miterlimit:10;stroke-dasharray:none;stroke-opacity:1"
         id="path74"
         inkscape:connector-curvature="0" /><path
         d="m 3343.68,302.398 0,40"
         style="fill:#000000;fill-opacity:1;fill-rule:nonzero;stroke:none"
         id="path76"
         inkscape:connector-curvature="0" /><path
         d="m 3343.68,302.398 0,40"
         style="fill:none;stroke:#000000;stroke-width:5;stroke-linecap:butt;stroke-linejoin:round;stroke-miterlimit:10;stroke-dasharray:none;stroke-opacity:1"
         id="path78"
         inkscape:connector-curvature="0" /><path
         d="m 3343.68,4104 0,-40"
         style="fill:#000000;fill-opacity:1;fill-rule:nonzero;stroke:none"
         id="path80"
         inkscape:connector-curvature="0" /><path
         d="m 3343.68,4104 0,-40"
         style="fill:none;stroke:#000000;stroke-width:5;stroke-linecap:butt;stroke-linejoin:round;stroke-miterlimit:10;stroke-dasharray:none;stroke-opacity:1"
         id="path82"
         inkscape:connector-curvature="0" /><path
         d="m 4104,302.398 0,40"
         style="fill:#000000;fill-opacity:1;fill-rule:nonzero;stroke:none"
         id="path84"
         inkscape:connector-curvature="0" /><path
         d="m 4104,302.398 0,40"
         style="fill:none;stroke:#000000;stroke-width:5;stroke-linecap:butt;stroke-linejoin:round;stroke-miterlimit:10;stroke-dasharray:none;stroke-opacity:1"
         id="path86"
         inkscape:connector-curvature="0" /><path
         d="m 4104,4104 0,-40"
         style="fill:#000000;fill-opacity:1;fill-rule:nonzero;stroke:none"
         id="path88"
         inkscape:connector-curvature="0" /><path
         d="m 4104,4104 0,-40"
         style="fill:none;stroke:#000000;stroke-width:5;stroke-linecap:butt;stroke-linejoin:round;stroke-miterlimit:10;stroke-dasharray:none;stroke-opacity:1"
         id="path90"
         inkscape:connector-curvature="0" /><g
         id="g92"
         transform="scale(10,10)"><text
           transform="matrix(1,0,0,-1,196.351,8.67734)"
           style="font-variant:normal;font-weight:normal;font-size:20px;font-family:Arial;-inkscape-font-specification:Arial;writing-mode:lr-tb;fill:#000000;fill-opacity:1;fill-rule:nonzero;stroke:none"
           id="text94"><tspan
             x="0 11.591802 17.148434 36.630852"
             y="0"
             sodipodi:role="line"
             id="tspan96">Time</tspan></text>
</g><path
         d="m 302.398,302.398 40,0"
         style="fill:#000000;fill-opacity:1;fill-rule:nonzero;stroke:none"
         id="path98"
         inkscape:connector-curvature="0" /><path
         d="m 302.398,302.398 40,0"
         style="fill:none;stroke:#000000;stroke-width:5;stroke-linecap:butt;stroke-linejoin:round;stroke-miterlimit:10;stroke-dasharray:none;stroke-opacity:1"
         id="path100"
         inkscape:connector-curvature="0" /><path
         d="m 4104,302.398 -40,0"
         style="fill:#000000;fill-opacity:1;fill-rule:nonzero;stroke:none"
         id="path102"
         inkscape:connector-curvature="0" /><path
         d="m 4104,302.398 -40,0"
         style="fill:none;stroke:#000000;stroke-width:5;stroke-linecap:butt;stroke-linejoin:round;stroke-miterlimit:10;stroke-dasharray:none;stroke-opacity:1"
         id="path104"
         inkscape:connector-curvature="0" /><path
         d="m 302.398,1252.8 40,0"
         style="fill:#000000;fill-opacity:1;fill-rule:nonzero;stroke:none"
         id="path106"
         inkscape:connector-curvature="0" /><path
         d="m 302.398,1252.8 40,0"
         style="fill:none;stroke:#000000;stroke-width:5;stroke-linecap:butt;stroke-linejoin:round;stroke-miterlimit:10;stroke-dasharray:none;stroke-opacity:1"
         id="path108"
         inkscape:connector-curvature="0" /><path
         d="m 4104,1252.8 -40,0"
         style="fill:#000000;fill-opacity:1;fill-rule:nonzero;stroke:none"
         id="path110"
         inkscape:connector-curvature="0" /><path
         d="m 4104,1252.8 -40,0"
         style="fill:none;stroke:#000000;stroke-width:5;stroke-linecap:butt;stroke-linejoin:round;stroke-miterlimit:10;stroke-dasharray:none;stroke-opacity:1"
         id="path112"
         inkscape:connector-curvature="0" /><path
         d="m 302.398,2203.2 40,0"
         style="fill:#000000;fill-opacity:1;fill-rule:nonzero;stroke:none"
         id="path114"
         inkscape:connector-curvature="0" /><path
         d="m 302.398,2203.2 40,0"
         style="fill:none;stroke:#000000;stroke-width:5;stroke-linecap:butt;stroke-linejoin:round;stroke-miterlimit:10;stroke-dasharray:none;stroke-opacity:1"
         id="path116"
         inkscape:connector-curvature="0" /><path
         d="m 4104,2203.2 -40,0"
         style="fill:#000000;fill-opacity:1;fill-rule:nonzero;stroke:none"
         id="path118"
         inkscape:connector-curvature="0" /><path
         d="m 4104,2203.2 -40,0"
         style="fill:none;stroke:#000000;stroke-width:5;stroke-linecap:butt;stroke-linejoin:round;stroke-miterlimit:10;stroke-dasharray:none;stroke-opacity:1"
         id="path120"
         inkscape:connector-curvature="0" /><path
         d="m 302.398,3153.6 40,0"
         style="fill:#000000;fill-opacity:1;fill-rule:nonzero;stroke:none"
         id="path122"
         inkscape:connector-curvature="0" /><path
         d="m 302.398,3153.6 40,0"
         style="fill:none;stroke:#000000;stroke-width:5;stroke-linecap:butt;stroke-linejoin:round;stroke-miterlimit:10;stroke-dasharray:none;stroke-opacity:1"
         id="path124"
         inkscape:connector-curvature="0" /><path
         d="m 4104,3153.6 -40,0"
         style="fill:#000000;fill-opacity:1;fill-rule:nonzero;stroke:none"
         id="path126"
         inkscape:connector-curvature="0" /><path
         d="m 4104,3153.6 -40,0"
         style="fill:none;stroke:#000000;stroke-width:5;stroke-linecap:butt;stroke-linejoin:round;stroke-miterlimit:10;stroke-dasharray:none;stroke-opacity:1"
         id="path128"
         inkscape:connector-curvature="0" /><path
         d="m 302.398,4104 40,0"
         style="fill:#000000;fill-opacity:1;fill-rule:nonzero;stroke:none"
         id="path130"
         inkscape:connector-curvature="0" /><path
         d="m 302.398,4104 40,0"
         style="fill:none;stroke:#000000;stroke-width:5;stroke-linecap:butt;stroke-linejoin:round;stroke-miterlimit:10;stroke-dasharray:none;stroke-opacity:1"
         id="path132"
         inkscape:connector-curvature="0" /><path
         d="m 4104,4104 -40,0"
         style="fill:#000000;fill-opacity:1;fill-rule:nonzero;stroke:none"
         id="path134"
         inkscape:connector-curvature="0" /><path
         d="m 4104,4104 -40,0"
         style="fill:none;stroke:#000000;stroke-width:5;stroke-linecap:butt;stroke-linejoin:round;stroke-miterlimit:10;stroke-dasharray:none;stroke-opacity:1"
         id="path136"
         inkscape:connector-curvature="0" /><g
         id="g138"
         transform="scale(10,10)"><text
           transform="matrix(0,1,1,0,19.443,111.82)"
           style="font-variant:normal;font-weight:normal;font-size:20px;font-family:Arial;-inkscape-font-specification:Arial;writing-mode:lr-tb;fill:#000000;fill-opacity:1;fill-rule:nonzero;stroke:none"
           id="text140"><tspan
             x="0 13.896484 26.201172 38.457035 49.453129 57.294922 62.851566 75.087891 87.763664 94.121078 105.11717 117.35351 129.58984 137.81252 150.50783 156.06445 168.74023 180.99608 188.83789 201.14258"
             y="0"
             sodipodi:role="line"
             id="tspan142">Reaction coordinate </tspan></text>
<text
           transform="matrix(0,1,1,0,19.443,319.32)"
           style="font-variant:normal;font-weight:normal;font-size:20px;font-family:Arial;-inkscape-font-specification:Arial;writing-mode:lr-tb;fill:#000000;fill-opacity:1;fill-rule:nonzero;stroke:none"
           id="text144"><tspan
             x="0"
             y="0"
             id="tspan146">ξ</tspan></text>
</g><path
         d="M 302.398,4104 4104,4104"
         style="fill:none;stroke:#000000;stroke-width:10;stroke-linecap:butt;stroke-linejoin:round;stroke-miterlimit:10;stroke-dasharray:none;stroke-opacity:1"
         id="path148"
         inkscape:connector-curvature="0" /><path
         d="M 4104,302.398 4104,4104"
         style="fill:none;stroke:#000000;stroke-width:10;stroke-linecap:butt;stroke-linejoin:round;stroke-miterlimit:10;stroke-dasharray:none;stroke-opacity:1"
         id="path150"
         inkscape:connector-curvature="0" /><path
         d="m 302.398,302.398 3801.602,0"
         style="fill:none;stroke:#000000;stroke-width:10;stroke-linecap:butt;stroke-linejoin:round;stroke-miterlimit:10;stroke-dasharray:none;stroke-opacity:1"
         id="path152"
         inkscape:connector-curvature="0" /><path
         d="m 302.398,302.398 0,3801.602"
         style="fill:none;stroke:#000000;stroke-width:10;stroke-linecap:butt;stroke-linejoin:round;stroke-miterlimit:10;stroke-dasharray:none;stroke-opacity:1"
         id="path154"
         inkscape:connector-curvature="0" /><path
         d="m 1921.1,625.535 c -529.16,0 -1058.315,0 -1587.475,0"
         style="fill:none;stroke:#000000;stroke-width:10;stroke-linecap:round;stroke-linejoin:round;stroke-miterlimit:10;stroke-dasharray:none;stroke-opacity:1"
         id="path156"
         inkscape:connector-curvature="0" /><path
         d="m 1841.1,665.535 80,-40 -80,-40"
         style="fill:none;stroke:#000000;stroke-width:10;stroke-linecap:round;stroke-linejoin:round;stroke-miterlimit:10;stroke-dasharray:none;stroke-opacity:1"
         id="path158"
         inkscape:connector-curvature="0" /><path
         d="m 413.625,585.535 -80,40 80,40"
         style="fill:none;stroke:#000000;stroke-width:10;stroke-linecap:round;stroke-linejoin:round;stroke-miterlimit:10;stroke-dasharray:none;stroke-opacity:1"
         id="path160"
         inkscape:connector-curvature="0" /><path
         d="m 4072.82,625.535 c -696.44,0 -1392.89,0 -2089.34,0"
         style="fill:none;stroke:#000000;stroke-width:10;stroke-linecap:round;stroke-linejoin:round;stroke-miterlimit:10;stroke-dasharray:none;stroke-opacity:1"
         id="path162"
         inkscape:connector-curvature="0" /><path
         d="m 3992.82,665.535 80,-40 -80,-40"
         style="fill:none;stroke:#000000;stroke-width:10;stroke-linecap:round;stroke-linejoin:round;stroke-miterlimit:10;stroke-dasharray:none;stroke-opacity:1"
         id="path164"
         inkscape:connector-curvature="0" /><path
         d="m 2063.48,585.535 -80,40 80,40"
         style="fill:none;stroke:#000000;stroke-width:10;stroke-linecap:round;stroke-linejoin:round;stroke-miterlimit:10;stroke-dasharray:none;stroke-opacity:1"
         id="path166"
         inkscape:connector-curvature="0" /><g
         id="g168"
         transform="scale(10,10)"><text
           transform="matrix(1,0,0,-1,55.7895,41.6449)"
           style="font-variant:normal;font-weight:normal;font-size:20px;font-family:Arial;-inkscape-font-specification:Arial;writing-mode:lr-tb;fill:#000000;fill-opacity:1;fill-rule:nonzero;stroke:none"
           id="text170"><tspan
             x="0 5.8984375 18.574221 24.130863 31.972658 37.529301 49.785164 55.341805 61.69923 72.119232 79.961021 92.216888 104.9122 187.133 197.1369 202.69354 215.36931 227.62517 233.18179 239.5392 249.9592 257.80103 270.05685 282.75217"
             y="0"
             sodipodi:role="line"
             id="tspan172">Initial stageFinal stage</tspan></text>
</g><path
         d="m 400.094,3841.97 280,0"
         style="fill:none;stroke:#000000;stroke-width:10;stroke-linecap:square;stroke-linejoin:round;stroke-miterlimit:10;stroke-dasharray:none;stroke-opacity:1"
         id="path174"
         inkscape:connector-curvature="0" /><g
         id="g176"
         transform="scale(10,10)"><text
           transform="matrix(1,0,0,-1,90.0094,377.197)"
           style="font-variant:normal;font-weight:normal;font-size:20px;font-family:Arial;-inkscape-font-specification:Arial;writing-mode:lr-tb;fill:#000000;fill-opacity:1;fill-rule:nonzero;stroke:none"
           id="text178"><tspan
             x="0"
             y="0"
             id="tspan180">ξ</tspan></text>
<text
           transform="matrix(1,0,0,-1,98.74963,377.197)"
           style="font-variant:normal;font-weight:normal;font-size:20px;font-family:Arial;-inkscape-font-specification:Arial;writing-mode:lr-tb;fill:#000000;fill-opacity:1;fill-rule:nonzero;stroke:none"
           id="text182"><tspan
             x="0"
             y="0"
             id="tspan184">(</tspan></text>
<text
           transform="matrix(1,0,0,-1,106.5133,377.197)"
           style="font-variant:normal;font-weight:normal;font-size:20px;font-family:Arial;-inkscape-font-specification:Arial;writing-mode:lr-tb;fill:#000000;fill-opacity:1;fill-rule:nonzero;stroke:none"
           id="text186"><tspan
             x="0"
             y="0"
             id="tspan188">t</tspan></text>
<text
           transform="matrix(1,0,0,-1,113.7301,377.197)"
           style="font-variant:normal;font-weight:normal;font-size:20px;font-family:Arial;-inkscape-font-specification:Arial;writing-mode:lr-tb;fill:#000000;fill-opacity:1;fill-rule:nonzero;stroke:none"
           id="text190"><tspan
             x="0"
             y="0"
             id="tspan192">)</tspan></text>
</g><path
         d="m 1680.09,3841.97 280,0"
         style="fill:none;stroke:#000000;stroke-width:10;stroke-linecap:butt;stroke-linejoin:round;stroke-miterlimit:10;stroke-dasharray:60, 60;stroke-dashoffset:0;stroke-opacity:1"
         id="path194"
         inkscape:connector-curvature="0" /><g
         id="g196"
         transform="scale(10,10)"><text
           transform="matrix(1,0,0,-1,218.009,377.197)"
           style="font-variant:normal;font-weight:normal;font-size:20px;font-family:Arial;-inkscape-font-specification:Arial;writing-mode:lr-tb;fill:#000000;fill-opacity:1;fill-rule:nonzero;stroke:none"
           id="text198"><tspan
             x="0 12.695312 24.951162 44.433578 57.128891 62.685524 68.242157 80.917931 93.613243 99.970657 105.52728 118.20306 126.04487 138.34955 146.57222 158.40816 170.66402"
             y="0"
             sodipodi:role="line"
             id="tspan200">Sampling interval</tspan></text>
</g></g></g></svg>