<?xml version="1.0" encoding="UTF-8" standalone="no"?>
<!-- Created with Inkscape (http://www.inkscape.org/) -->

<svg
   xmlns:dc="http://purl.org/dc/elements/1.1/"
   xmlns:cc="http://creativecommons.org/ns#"
   xmlns:rdf="http://www.w3.org/1999/02/22-rdf-syntax-ns#"
   xmlns:svg="http://www.w3.org/2000/svg"
   xmlns="http://www.w3.org/2000/svg"
   xmlns:sodipodi="http://sodipodi.sourceforge.net/DTD/sodipodi-0.dtd"
   xmlns:inkscape="http://www.inkscape.org/namespaces/inkscape"
   id="svg2"
   version="1.1"
   inkscape:version="0.91 r13725"
   xml:space="preserve"
   width="296.25"
   height="187.5"
   viewBox="0 0 296.25 187.5"
   sodipodi:docname="dih.svg"><metadata
     id="metadata8"><rdf:RDF><cc:Work
         rdf:about=""><dc:format>image/svg+xml</dc:format><dc:type
           rdf:resource="http://purl.org/dc/dcmitype/StillImage" /><dc:title></dc:title></cc:Work></rdf:RDF></metadata><defs
     id="defs6" /><sodipodi:namedview
     pagecolor="#ffffff"
     bordercolor="#666666"
     borderopacity="1"
     objecttolerance="10"
     gridtolerance="10"
     guidetolerance="10"
     inkscape:pageopacity="0"
     inkscape:pageshadow="2"
     inkscape:window-width="760"
     inkscape:window-height="480"
     id="namedview4"
     showgrid="false"
     inkscape:zoom="1.2455696"
     inkscape:cx="148.125"
     inkscape:cy="93.75"
     inkscape:window-x="0"
     inkscape:window-y="25"
     inkscape:window-maximized="0"
     inkscape:current-layer="g10" /><g
     id="g10"
     inkscape:groupmode="layer"
     inkscape:label="ink_ext_XXXXXX"
     transform="matrix(1.25,0,0,-1.25,0,187.5)"><g
       id="g12"
       transform="scale(0.1,0.1)"><path
         d="m 1044.73,571.18 c 83.98,24.492 141.73,101.484 141.73,188.968 0,87.485 -57.75,164.481 -141.73,188.973"
         style="fill:none;stroke:#000000;stroke-width:9.44849968;stroke-linecap:butt;stroke-linejoin:miter;stroke-miterlimit:10;stroke-dasharray:none;stroke-opacity:1"
         id="path14"
         inkscape:connector-curvature="0" /><path
         d="m 194.363,98.7539 c 0,-52.1797 -42.304,-94.48437 -94.4841,-94.48437 -52.1797,0 -94.48437,42.30467 -94.48437,94.48437 0,52.1801 42.30467,94.4841 94.48437,94.4841 52.1801,0 94.4841,-42.304 94.4841,-94.4841"
         style="fill:#000000;fill-opacity:1;fill-rule:evenodd;stroke:none"
         id="path16"
         inkscape:connector-curvature="0" /><path
         d="m 194.363,98.7539 c 0,-52.1797 -42.304,-94.48437 -94.4841,-94.48437 -52.1797,0 -94.48437,42.30467 -94.48437,94.48437 0,52.1801 42.30467,94.4841 94.48437,94.4841 52.1801,0 94.4841,-42.304 94.4841,-94.4841 z"
         style="fill:none;stroke:#000000;stroke-width:4.72424984;stroke-linecap:butt;stroke-linejoin:miter;stroke-miterlimit:10;stroke-dasharray:none;stroke-opacity:1"
         id="path18"
         inkscape:connector-curvature="0" /><path
         d="m 572.305,760.148 c 0,-52.179 -42.305,-94.484 -94.485,-94.484 -52.179,0 -94.484,42.305 -94.484,94.484 0,52.18 42.305,94.489 94.484,94.489 52.18,0 94.485,-42.309 94.485,-94.489"
         style="fill:#000000;fill-opacity:1;fill-rule:evenodd;stroke:none"
         id="path20"
         inkscape:connector-curvature="0" /><path
         d="m 572.305,760.148 c 0,-52.179 -42.305,-94.484 -94.485,-94.484 -52.179,0 -94.484,42.305 -94.484,94.484 0,52.18 42.305,94.489 94.484,94.489 52.18,0 94.485,-42.309 94.485,-94.489 z"
         style="fill:none;stroke:#000000;stroke-width:4.72424984;stroke-linecap:butt;stroke-linejoin:miter;stroke-miterlimit:10;stroke-dasharray:none;stroke-opacity:1"
         id="path22"
         inkscape:connector-curvature="0" /><path
         d="m 1706.13,760.148 c 0,-52.179 -42.31,-94.484 -94.49,-94.484 -52.18,0 -94.48,42.305 -94.48,94.484 0,52.18 42.3,94.489 94.48,94.489 52.18,0 94.49,-42.309 94.49,-94.489"
         style="fill:#000000;fill-opacity:1;fill-rule:evenodd;stroke:none"
         id="path24"
         inkscape:connector-curvature="0" /><path
         d="m 1706.13,760.148 c 0,-52.179 -42.31,-94.484 -94.49,-94.484 -52.18,0 -94.48,42.305 -94.48,94.484 0,52.18 42.3,94.489 94.48,94.489 52.18,0 94.49,-42.309 94.49,-94.489 z"
         style="fill:none;stroke:#000000;stroke-width:4.72424984;stroke-linecap:butt;stroke-linejoin:miter;stroke-miterlimit:10;stroke-dasharray:none;stroke-opacity:1"
         id="path26"
         inkscape:connector-curvature="0" /><path
         d="m 2273.04,1327.06 c 0,-52.18 -42.31,-94.49 -94.49,-94.49 -52.18,0 -94.48,42.31 -94.48,94.49 0,52.18 42.3,94.49 94.48,94.49 52.18,0 94.49,-42.31 94.49,-94.49"
         style="fill:#000000;fill-opacity:1;fill-rule:evenodd;stroke:none"
         id="path28"
         inkscape:connector-curvature="0" /><path
         d="m 2273.04,1327.06 c 0,-52.18 -42.31,-94.49 -94.49,-94.49 -52.18,0 -94.48,42.31 -94.48,94.49 0,52.18 42.3,94.49 94.48,94.49 52.18,0 94.49,-42.31 94.49,-94.49 z"
         style="fill:none;stroke:#000000;stroke-width:4.72424984;stroke-linecap:butt;stroke-linejoin:miter;stroke-miterlimit:10;stroke-dasharray:none;stroke-opacity:1"
         id="path30"
         inkscape:connector-curvature="0" /><path
         d="M 430.578,665.664 99.8789,98.7539"
         style="fill:none;stroke:#000000;stroke-width:9.44849968;stroke-linecap:butt;stroke-linejoin:miter;stroke-miterlimit:10;stroke-dasharray:none;stroke-opacity:1"
         id="path32"
         inkscape:connector-curvature="0" /><path
         d="m 572.305,760.148 944.855,0"
         style="fill:none;stroke:#000000;stroke-width:9.44849968;stroke-linecap:butt;stroke-linejoin:miter;stroke-miterlimit:10;stroke-dasharray:none;stroke-opacity:1"
         id="path34"
         inkscape:connector-curvature="0" /><path
         d="m 1706.13,807.391 425.18,425.179"
         style="fill:none;stroke:#000000;stroke-width:9.44849968;stroke-linecap:butt;stroke-linejoin:miter;stroke-miterlimit:10;stroke-dasharray:none;stroke-opacity:1"
         id="path36"
         inkscape:connector-curvature="0" /><path
         d="m 1044.73,949.121 94.48,0"
         style="fill:none;stroke:#000000;stroke-width:9.44849968;stroke-linecap:butt;stroke-linejoin:miter;stroke-miterlimit:10;stroke-dasharray:none;stroke-opacity:1"
         id="path38"
         inkscape:connector-curvature="0" /><path
         d="m 1044.73,949.121 47.24,-47.242"
         style="fill:none;stroke:#000000;stroke-width:9.44849968;stroke-linecap:butt;stroke-linejoin:miter;stroke-miterlimit:10;stroke-dasharray:none;stroke-opacity:1"
         id="path40"
         inkscape:connector-curvature="0" /><g
         id="g42"
         transform="scale(10,10)"><text
           transform="matrix(1,0,0,-1,66.6789,85.4637)"
           style="font-variant:normal;font-weight:bold;font-size:13.99950027px;font-family:Helvetica;-inkscape-font-specification:Helvetica-Bold;writing-mode:lr-tb;fill:#000000;fill-opacity:1;fill-rule:nonzero;stroke:none"
           id="text44"><tspan
             x="0"
             y="0"
             id="tspan46">j</tspan><tspan
             x="113.382"
             y="23.6215"
             id="tspan48">k</tspan><tspan
             x="165.3488"
             y="-51.9664"
             id="tspan50">l</tspan><tspan
             x="-42.5182"
             y="80.312599"
             id="tspan52">i</tspan></text>
</g></g></g></svg>