<?xml version="1.0" encoding="UTF-8" standalone="no"?>
<!-- Created with Inkscape (http://www.inkscape.org/) -->

<svg
   xmlns:dc="http://purl.org/dc/elements/1.1/"
   xmlns:cc="http://creativecommons.org/ns#"
   xmlns:rdf="http://www.w3.org/1999/02/22-rdf-syntax-ns#"
   xmlns:svg="http://www.w3.org/2000/svg"
   xmlns="http://www.w3.org/2000/svg"
   xmlns:sodipodi="http://sodipodi.sourceforge.net/DTD/sodipodi-0.dtd"
   xmlns:inkscape="http://www.inkscape.org/namespaces/inkscape"
   id="svg2"
   version="1.1"
   inkscape:version="0.91 r13725"
   xml:space="preserve"
   width="1052.5"
   height="743.75"
   viewBox="0 0 1052.5 743.75"
   sodipodi:docname="f-bond.svg"><metadata
     id="metadata8"><rdf:RDF><cc:Work
         rdf:about=""><dc:format>image/svg+xml</dc:format><dc:type
           rdf:resource="http://purl.org/dc/dcmitype/StillImage" /><dc:title></dc:title></cc:Work></rdf:RDF></metadata><defs
     id="defs6" /><sodipodi:namedview
     pagecolor="#ffffff"
     bordercolor="#666666"
     borderopacity="1"
     objecttolerance="10"
     gridtolerance="10"
     guidetolerance="10"
     inkscape:pageopacity="0"
     inkscape:pageshadow="2"
     inkscape:window-width="760"
     inkscape:window-height="480"
     id="namedview4"
     showgrid="false"
     inkscape:zoom="0.31731092"
     inkscape:cx="526.25"
     inkscape:cy="371.875"
     inkscape:window-x="0"
     inkscape:window-y="25"
     inkscape:window-maximized="0"
     inkscape:current-layer="g10" /><g
     id="g10"
     inkscape:groupmode="layer"
     inkscape:label="ink_ext_XXXXXX"
     transform="matrix(0,1.25,1.25,0,0,0)"><g
       id="g12"
       transform="scale(0.1,0.1)"><path
         d="m 4787.5,1667.5 -3735,0 0,4820 3735,0 0,-4820"
         style="fill:none;stroke:#000000;stroke-width:2.5;stroke-linecap:round;stroke-linejoin:miter;stroke-miterlimit:10;stroke-dasharray:none;stroke-opacity:1"
         id="path14"
         inkscape:connector-curvature="0" /><path
         d="m 4787.5,1667.5 -25,0 m 25,602.5 -25,0 m 25,602.5 -25,0 m 25,602.5 -25,0 m 25,602.5 -25,0 m 25,602.5 -25,0 m 25,602.5 -25,0 m 25,602.5 -25,0 m -3710,-4217.5 25,0 m -25,602.5 25,0 m -25,602.5 25,0 m -25,602.5 25,0 m -25,602.5 25,0 m -25,602.5 25,0 m -25,602.5 25,0 m -25,602.5 25,0"
         style="fill:none;stroke:#000000;stroke-width:2.5;stroke-linecap:round;stroke-linejoin:miter;stroke-miterlimit:10;stroke-dasharray:none;stroke-opacity:1"
         id="path16"
         inkscape:connector-curvature="0" /><path
         d="m 4787.5,1667.5 -50,0 m 50,1205 -50,0 m 50,1205 -50,0 m 50,1205 -50,0 m -3685,-3615 50,0 m -50,1205 50,0 m -50,1205 50,0 m -50,1205 50,0"
         style="fill:none;stroke:#000000;stroke-width:2.5;stroke-linecap:round;stroke-linejoin:miter;stroke-miterlimit:10;stroke-dasharray:none;stroke-opacity:1"
         id="path18"
         inkscape:connector-curvature="0" /><g
         id="g20"
         transform="scale(10,10)"><text
           transform="matrix(0,1,1,0,505.25,144.615)"
           style="font-variant:normal;font-weight:normal;font-size:22.75px;font-family:Helvetica;-inkscape-font-specification:Helvetica;writing-mode:lr-tb;fill:#000000;fill-opacity:1;fill-rule:nonzero;stroke:none"
           id="text22"><tspan
             x="0 12.649 18.973499 31.622499 120.49992 133.14893 139.47342 152.12242 240.99985 253.64885 259.97336 272.62234 361.49979 374.14877 380.47327 393.12228"
             y="0"
             sodipodi:role="line"
             id="tspan24">0.080.090.100.11</tspan></text>
<text
           transform="matrix(0,1,1,0,535.75,377.758)"
           style="font-variant:normal;font-weight:normal;font-size:22.5px;font-family:Helvetica;-inkscape-font-specification:Helvetica;writing-mode:lr-tb;fill:#000000;fill-opacity:1;fill-rule:nonzero;stroke:none"
           id="text26"><tspan
             x="0 7.4924998 13.7475 21.24 33.75 52.4925"
             y="0"
             sodipodi:role="line"
             id="tspan28">r (nm)</tspan></text>
</g><path
         d="m 4787.5,1667.5 0,25 m -465,-25 0,25 m -467.5,-25 0,25 m -467.5,-25 0,25 m -467.5,-25 0,25 m -467.5,-25 0,25 m -467.5,-25 0,25 m -467.5,-25 0,25 m -465,-25 0,25 m 3735,4795 0,-25 m -465,25 0,-25 m -467.5,25 0,-25 m -467.5,25 0,-25 m -467.5,25 0,-25 m -467.5,25 0,-25 m -467.5,25 0,-25 m -467.5,25 0,-25 m -465,25 0,-25"
         style="fill:none;stroke:#000000;stroke-width:2.5;stroke-linecap:round;stroke-linejoin:miter;stroke-miterlimit:10;stroke-dasharray:none;stroke-opacity:1"
         id="path30"
         inkscape:connector-curvature="0" /><path
         d="m 4787.5,1667.5 0,50 m -932.5,-50 0,50 m -935,-50 0,50 m -935,-50 0,50 m -932.5,-50 0,50 m 3735,4770 0,-50 m -932.5,50 0,-50 m -935,50 0,-50 m -935,50 0,-50 m -932.5,50 0,-50"
         style="fill:none;stroke:#000000;stroke-width:2.5;stroke-linecap:round;stroke-linejoin:miter;stroke-miterlimit:10;stroke-dasharray:none;stroke-opacity:1"
         id="path32"
         inkscape:connector-curvature="0" /><g
         id="g34"
         transform="scale(10,10)"><text
           transform="matrix(0,1,1,0,486,140.268)"
           style="font-variant:normal;font-weight:normal;font-size:22px;font-family:Helvetica;-inkscape-font-specification:Helvetica;writing-mode:lr-tb;fill:#000000;fill-opacity:1;fill-rule:nonzero;stroke:none"
           id="text36"><tspan
             x="0"
             y="0"
             id="tspan38">0</tspan><tspan
             x="-12.2316 0.00039999999"
             y="-93.25"
             sodipodi:role="line"
             id="tspan40">50</tspan><tspan
             x="-24.4632 -12.2312 0.00079999998"
             y="-186.75"
             sodipodi:role="line"
             id="tspan42">100</tspan><tspan
             x="-24.4632 -12.2312 0.00079999998"
             y="-280.25"
             sodipodi:role="line"
             id="tspan44">150</tspan><tspan
             x="-24.4632 -12.2312 0.00079999998"
             y="-373.5"
             sodipodi:role="line"
             id="tspan46">200</tspan></text>
<text
           transform="matrix(-1,0,0,1,358.88,96.75)"
           style="font-variant:normal;font-weight:normal;font-size:22.5px;font-family:Helvetica;-inkscape-font-specification:Helvetica;writing-mode:lr-tb;fill:#000000;fill-opacity:1;fill-rule:nonzero;stroke:none"
           id="text48"><tspan
             x="0 15.0075 21.262501 28.754999 40.005001 51.255001 57.509998 76.252502 88.762497 93.7575"
             y="0"
             sodipodi:role="line"
             id="tspan50">V (kJ mole</tspan></text>
<text
           transform="matrix(-1,0,0,1,252.612,83.5)"
           style="font-variant:normal;font-weight:normal;font-size:13.25px;font-family:Helvetica;-inkscape-font-specification:Helvetica;writing-mode:lr-tb;fill:#000000;fill-opacity:1;fill-rule:nonzero;stroke:none"
           id="text52"><tspan
             x="0 7.3670001"
             y="0"
             sodipodi:role="line"
             id="tspan54">–1</tspan></text>
<text
           transform="matrix(-1,0,0,1,237.878,96.75)"
           style="font-variant:normal;font-weight:normal;font-size:22.5px;font-family:Helvetica;-inkscape-font-specification:Helvetica;writing-mode:lr-tb;fill:#000000;fill-opacity:1;fill-rule:nonzero;stroke:none"
           id="text56"><tspan
             x="0"
             y="0"
             id="tspan58">)</tspan></text>
</g><path
         d="m 1797.5,1667.5 117.5,50 115,47.5 112.5,47.5 110,47.5 110,47.5 105,47.5 102.5,47.5 100,47.5 100,47.5 95,47.5 95,47.5 90,47.5 90,50 87.5,47.5 82.5,47.5 82.5,47.5 80,47.5 77.5,47.5 75,47.5 72.5,47.5 70,47.5 70,47.5 65,47.5 62.5,47.5 62.5,50 57.5,47.5 57.5,47.5 52.5,47.5 52.5,47.5 47.5,47.5 47.5,47.5 45,47.5 42.5,47.5 40,47.5 37.5,47.5 35,47.5 32.5,50 30,47.5 27.5,47.5 27.5,47.5 22.5,47.5 22.5,47.5 17.5,47.5 17.5,47.5 12.5,47.5 12.5,47.5 10,47.5 7.5,47.5 2.5,50 2.5,47.5 0,47.5 -2.5,47.5 -2.5,47.5 -7.5,47.5 -10,47.5 -12.5,47.5 -12.5,47.5 -17.5,47.5 -17.5,47.5 -22.5,47.5 -22.5,47.5 -27.5,50 -27.5,47.5 -30,47.5 -32.5,47.5 -35,47.5 -37.5,47.5 -40,47.5 -42.5,47.5 -45,47.5 -47.5,47.5 -47.5,47.5 -52.5,47.5 -52.5,50 -57.5,47.5 -57.5,47.5 -62.5,47.5 -62.5,47.5 -65,47.5 -70,47.5 -70,47.5 -72.5,47.5 -75,47.5 -77.5,47.5 -80,47.5 -82.5,50 -82.5,47.5 -87.5,47.5 -90,47.5 -90,47.5 -95,47.5 -95,47.5 -100,47.5 -100,47.5 -102.5,47.5 -105,47.5 -110,47.5 -110,50 -112.5,47.5 -115,47.5 -117.5,47.5"
         style="fill:none;stroke:#000000;stroke-width:2.5;stroke-linecap:round;stroke-linejoin:miter;stroke-miterlimit:10;stroke-dasharray:none;stroke-opacity:1"
         id="path60"
         inkscape:connector-curvature="0" /></g></g></svg>