<?xml version="1.0" encoding="UTF-8" standalone="no"?>
<!-- Created with Inkscape (http://www.inkscape.org/) -->

<svg
   xmlns:dc="http://purl.org/dc/elements/1.1/"
   xmlns:cc="http://creativecommons.org/ns#"
   xmlns:rdf="http://www.w3.org/1999/02/22-rdf-syntax-ns#"
   xmlns:svg="http://www.w3.org/2000/svg"
   xmlns="http://www.w3.org/2000/svg"
   xmlns:sodipodi="http://sodipodi.sourceforge.net/DTD/sodipodi-0.dtd"
   xmlns:inkscape="http://www.inkscape.org/namespaces/inkscape"
   id="svg2"
   version="1.1"
   inkscape:version="0.91 r13725"
   xml:space="preserve"
   width="1052.5"
   height="743.75"
   viewBox="0 0 1052.5 743.75"
   sodipodi:docname="f-lj.svg"><metadata
     id="metadata8"><rdf:RDF><cc:Work
         rdf:about=""><dc:format>image/svg+xml</dc:format><dc:type
           rdf:resource="http://purl.org/dc/dcmitype/StillImage" /><dc:title></dc:title></cc:Work></rdf:RDF></metadata><defs
     id="defs6" /><sodipodi:namedview
     pagecolor="#ffffff"
     bordercolor="#666666"
     borderopacity="1"
     objecttolerance="10"
     gridtolerance="10"
     guidetolerance="10"
     inkscape:pageopacity="0"
     inkscape:pageshadow="2"
     inkscape:window-width="760"
     inkscape:window-height="480"
     id="namedview4"
     showgrid="false"
     inkscape:zoom="0.31731092"
     inkscape:cx="526.25"
     inkscape:cy="371.875"
     inkscape:window-x="0"
     inkscape:window-y="25"
     inkscape:window-maximized="0"
     inkscape:current-layer="g10" /><g
     id="g10"
     inkscape:groupmode="layer"
     inkscape:label="ink_ext_XXXXXX"
     transform="matrix(0,1.25,1.25,0,0,0)"><g
       id="g12"
       transform="scale(0.1,0.1)"><path
         d="m 4787.5,1670 -3737.5,0 0,4817.5 3737.5,0 0,-4817.5"
         style="fill:none;stroke:#000000;stroke-width:2.5;stroke-linecap:round;stroke-linejoin:miter;stroke-miterlimit:10;stroke-dasharray:none;stroke-opacity:1"
         id="path14"
         inkscape:connector-curvature="0" /><path
         d="m 4787.5,1670 -25,0 m 25,600 -25,0 m 25,602.5 -25,0 m 25,602.5 -25,0 m 25,602.5 -25,0 m 25,602.5 -25,0 m 25,602.5 -25,0 m 25,602.5 -25,0 m 25,602.5 -25,0 M 1050,1670 l 25,0 m -25,600 25,0 m -25,602.5 25,0 m -25,602.5 25,0 m -25,602.5 25,0 m -25,602.5 25,0 m -25,602.5 25,0 m -25,602.5 25,0 m -25,602.5 25,0"
         style="fill:none;stroke:#000000;stroke-width:2.5;stroke-linecap:round;stroke-linejoin:miter;stroke-miterlimit:10;stroke-dasharray:none;stroke-opacity:1"
         id="path16"
         inkscape:connector-curvature="0" /><path
         d="m 4787.5,1670 -50,0 m 50,1202.5 -50,0 m 50,1205 -50,0 m 50,1205 -50,0 m 50,1205 -50,0 M 1050,1670 l 50,0 m -50,1202.5 50,0 m -50,1205 50,0 m -50,1205 50,0 m -50,1205 50,0"
         style="fill:none;stroke:#000000;stroke-width:2.5;stroke-linecap:round;stroke-linejoin:miter;stroke-miterlimit:10;stroke-dasharray:none;stroke-opacity:1"
         id="path18"
         inkscape:connector-curvature="0" /><g
         id="g20"
         transform="scale(10,10)"><text
           transform="matrix(0,1,1,0,504.5,151.711)"
           style="font-variant:normal;font-weight:normal;font-size:22px;font-family:Helvetica;-inkscape-font-specification:Helvetica;writing-mode:lr-tb;fill:#000000;fill-opacity:1;fill-rule:nonzero;stroke:none"
           id="text22"><tspan
             x="0 12.232 18.348 120.25002 132.48203 138.59802 240.74995 252.98196 259.09796 361.24991 373.4819 379.5979 481.74985 493.98184 500.09784"
             y="0"
             sodipodi:role="line"
             id="tspan24">0.40.50.60.70.8</tspan></text>
<text
           transform="matrix(0,1,1,0,534.25,377.759)"
           style="font-variant:normal;font-weight:normal;font-size:22.5px;font-family:Helvetica;-inkscape-font-specification:Helvetica;writing-mode:lr-tb;fill:#000000;fill-opacity:1;fill-rule:nonzero;stroke:none"
           id="text26"><tspan
             x="0 7.4924998 13.7475 21.24 33.75 52.4925"
             y="0"
             sodipodi:role="line"
             id="tspan28">r (nm)</tspan></text>
</g><path
         d="m 4787.5,1670 0,25 m -532.5,-25 0,25 m -535,-25 0,25 m -532.5,-25 0,25 m -535,-25 0,25 m -532.5,-25 0,25 m -535,-25 0,25 m 3202.5,4792.5 0,-25 m -532.5,25 0,-25 m -535,25 0,-25 m -532.5,25 0,-25 m -535,25 0,-25 m -532.5,25 0,-25 m -535,25 0,-25"
         style="fill:none;stroke:#000000;stroke-width:2.5;stroke-linecap:round;stroke-linejoin:miter;stroke-miterlimit:10;stroke-dasharray:none;stroke-opacity:1"
         id="path30"
         inkscape:connector-curvature="0" /><path
         d="m 4787.5,1670 0,50 m -1067.5,-50 0,50 m -1067.5,-50 0,50 m -1067.5,-50 0,50 m 3202.5,4767.5 0,-50 m -1067.5,50 0,-50 m -1067.5,50 0,-50 m -1067.5,50 0,-50"
         style="fill:none;stroke:#000000;stroke-width:2.5;stroke-linecap:round;stroke-linejoin:miter;stroke-miterlimit:10;stroke-dasharray:none;stroke-opacity:1"
         id="path32"
         inkscape:connector-curvature="0" /><g
         id="g34"
         transform="scale(10,10)"><text
           transform="matrix(0,1,1,0,486.25,113.053)"
           style="font-variant:normal;font-weight:normal;font-size:22.75px;font-family:Helvetica;-inkscape-font-specification:Helvetica;writing-mode:lr-tb;fill:#000000;fill-opacity:1;fill-rule:nonzero;stroke:none"
           id="text36"><tspan
             x="0 12.649 25.298 31.622499"
             y="0"
             sodipodi:role="line"
             id="tspan38">–0.2</tspan><tspan
             x="7.5753899 20.22439 26.548889"
             y="-106.75"
             sodipodi:role="line"
             id="tspan40">0.0</tspan><tspan
             x="7.5753899 20.22439 26.548889"
             y="-213.5"
             sodipodi:role="line"
             id="tspan42">0.2</tspan><tspan
             x="7.5753899 20.22439 26.548889"
             y="-320.25"
             sodipodi:role="line"
             id="tspan44">0.4</tspan></text>
<text
           transform="matrix(-1,0,0,1,358.88,81)"
           style="font-variant:normal;font-weight:normal;font-size:22.5px;font-family:Helvetica;-inkscape-font-specification:Helvetica;writing-mode:lr-tb;fill:#000000;fill-opacity:1;fill-rule:nonzero;stroke:none"
           id="text46"><tspan
             x="0 15.0075 21.262501 28.754999 40.005001 51.255001 57.509998 76.252502 88.762497 93.7575"
             y="0"
             sodipodi:role="line"
             id="tspan48">V (kJ mole</tspan></text>
<text
           transform="matrix(-1,0,0,1,252.612,67.75)"
           style="font-variant:normal;font-weight:normal;font-size:13.25px;font-family:Helvetica;-inkscape-font-specification:Helvetica;writing-mode:lr-tb;fill:#000000;fill-opacity:1;fill-rule:nonzero;stroke:none"
           id="text50"><tspan
             x="0 7.3670001"
             y="0"
             sodipodi:role="line"
             id="tspan52">–1</tspan></text>
<text
           transform="matrix(-1,0,0,1,237.878,81)"
           style="font-variant:normal;font-weight:normal;font-size:22.5px;font-family:Helvetica;-inkscape-font-specification:Helvetica;writing-mode:lr-tb;fill:#000000;fill-opacity:1;fill-rule:nonzero;stroke:none"
           id="text54"><tspan
             x="0"
             y="0"
             id="tspan56">)</tspan></text>
</g><path
         d="m 1050,1697.5 470,40 465,42.5 400,45 345,45 297.5,42.5 255,45 217.5,45 187.5,42.5 160,45 135,45 115,42.5 95,45 80,42.5 65,45 55,45 42.5,42.5 35,45 25,45 20,42.5 15,45 7.5,45 5,42.5 0,45 -2.5,45 -5,42.5 -7.5,45 -10,45 -12.5,42.5 -12.5,45 -12.5,45 -15,42.5 -15,45 -17.5,45 -15,42.5 -17.5,45 -15,42.5 -17.5,45 -17.5,45 -15,42.5 -17.5,45 -15,45 -17.5,42.5 -15,45 -15,45 -17.5,42.5 -15,45 -12.5,45 -15,42.5 -15,45 -12.5,45 -15,42.5 -12.5,45 -12.5,45 -12.5,42.5 -12.5,45 -10,42.5 -12.5,45 -10,45 -10,42.5 -10,45 -10,45 -10,42.5 -10,45 -10,45 -7.5,42.5 -10,45 -7.5,45 -7.5,42.5 -7.5,45 -7.5,45 -7.5,42.5 -7.5,45 -7.5,45 -5,42.5 -7.5,45 -5,42.5 -7.5,45 -5,45 -5,42.5 -5,45 -5,45 -5,42.5 -5,45 -5,45 -5,42.5 -5,45 -5,45 -2.5,42.5 -5,45 -2.5,45 -5,42.5 -2.5,45 -5,45 -2.5,42.5 -2.5,45"
         style="fill:none;stroke:#000000;stroke-width:2.5;stroke-linecap:round;stroke-linejoin:miter;stroke-miterlimit:10;stroke-dasharray:none;stroke-opacity:1"
         id="path58"
         inkscape:connector-curvature="0" /></g></g></svg>