<?xml version="1.0" encoding="UTF-8" standalone="no"?>
<!-- Created with Inkscape (http://www.inkscape.org/) -->

<svg
   xmlns:dc="http://purl.org/dc/elements/1.1/"
   xmlns:cc="http://creativecommons.org/ns#"
   xmlns:rdf="http://www.w3.org/1999/02/22-rdf-syntax-ns#"
   xmlns:svg="http://www.w3.org/2000/svg"
   xmlns="http://www.w3.org/2000/svg"
   xmlns:sodipodi="http://sodipodi.sourceforge.net/DTD/sodipodi-0.dtd"
   xmlns:inkscape="http://www.inkscape.org/namespaces/inkscape"
   id="svg2"
   version="1.1"
   inkscape:version="0.91 r13725"
   xml:space="preserve"
   width="705"
   height="590"
   viewBox="0 0 705 590"
   sodipodi:docname="f-morse.svg"><metadata
     id="metadata8"><rdf:RDF><cc:Work
         rdf:about=""><dc:format>image/svg+xml</dc:format><dc:type
           rdf:resource="http://purl.org/dc/dcmitype/StillImage" /><dc:title></dc:title></cc:Work></rdf:RDF></metadata><defs
     id="defs6" /><sodipodi:namedview
     pagecolor="#ffffff"
     bordercolor="#666666"
     borderopacity="1"
     objecttolerance="10"
     gridtolerance="10"
     guidetolerance="10"
     inkscape:pageopacity="0"
     inkscape:pageshadow="2"
     inkscape:window-width="760"
     inkscape:window-height="480"
     id="namedview4"
     showgrid="false"
     inkscape:zoom="0.4"
     inkscape:cx="352.5"
     inkscape:cy="295"
     inkscape:window-x="0"
     inkscape:window-y="25"
     inkscape:window-maximized="0"
     inkscape:current-layer="g10" /><g
     id="g10"
     inkscape:groupmode="layer"
     inkscape:label="ink_ext_XXXXXX"
     transform="matrix(1.25,0,0,-1.25,0,590)"><g
       id="g12"
       transform="scale(0.1,0.1)"><path
         d="m 905,760 0,3535 4200,0 0,-3535 -4200,0"
         style="fill:none;stroke:#000000;stroke-width:2.5;stroke-linecap:round;stroke-linejoin:miter;stroke-miterlimit:10;stroke-dasharray:none;stroke-opacity:1"
         id="path14"
         inkscape:connector-curvature="0" /><path
         d="m 905,760 0,25 m 840,-25 0,25 m 840,-25 0,25 m 837.5,-25 0,25 m 842.5,-25 0,25 m 840,-25 0,25 m -4200,3510 0,-25 m 840,25 0,-25 m 840,25 0,-25 m 837.5,25 0,-25 m 842.5,25 0,-25 m 840,25 0,-25"
         style="fill:none;stroke:#000000;stroke-width:2.5;stroke-linecap:round;stroke-linejoin:miter;stroke-miterlimit:10;stroke-dasharray:none;stroke-opacity:1"
         id="path16"
         inkscape:connector-curvature="0" /><path
         d="m 905,760 0,50 m 840,-50 0,50 m 840,-50 0,50 m 837.5,-50 0,50 m 842.5,-50 0,50 m 840,-50 0,50 m -4200,3485 0,-50 m 840,50 0,-50 m 840,50 0,-50 m 837.5,50 0,-50 m 842.5,50 0,-50 m 840,50 0,-50"
         style="fill:none;stroke:#000000;stroke-width:2.5;stroke-linecap:round;stroke-linejoin:miter;stroke-miterlimit:10;stroke-dasharray:none;stroke-opacity:1"
         id="path18"
         inkscape:connector-curvature="0" /><g
         id="g20"
         transform="scale(10,10)"><text
           transform="matrix(1,0,0,-1,80.0754,58.5)"
           style="font-variant:normal;font-weight:normal;font-size:15px;font-family:Helvetica;-inkscape-font-specification:Helvetica;writing-mode:lr-tb;fill:#000000;fill-opacity:1;fill-rule:nonzero;stroke:none"
           id="text22"><tspan
             x="0 8.3400002 12.51 84 92.339996 96.510002 168 176.34 180.50999 251.74995 260.08994 264.25995 336 344.34 348.51001 420 428.34 432.51001"
             y="0"
             sodipodi:role="line"
             id="tspan24">0.10.20.30.40.50.6</tspan><tspan
             x="197.10001"
             y="20"
             id="tspan26">r</tspan></text>
<text
           transform="matrix(1,0,0,-1,282.17032,34)"
           style="font-variant:normal;font-weight:normal;font-size:9px;font-family:Helvetica;-inkscape-font-specification:Helvetica;writing-mode:lr-tb;fill:#000000;fill-opacity:1;fill-rule:nonzero;stroke:none"
           id="text28"><tspan
             x="0 1.998"
             y="0"
             sodipodi:role="line"
             id="tspan30">ij</tspan></text>
<text
           transform="matrix(1,0,0,-1,290.33641,38.5)"
           style="font-variant:normal;font-weight:normal;font-size:15px;font-family:Helvetica;-inkscape-font-specification:Helvetica;writing-mode:lr-tb;fill:#000000;fill-opacity:1;fill-rule:nonzero;stroke:none"
           id="text32"><tspan
             x="0 4.9949999 13.335 25.83"
             y="0"
             sodipodi:role="line"
             id="tspan34">(nm)</tspan></text>
</g><path
         d="m 905,760 25,0 m -25,885 25,0 m -25,882.5 25,0 m -25,882.5 25,0 m -25,885 25,0 m 4175,-3535 -25,0 m 25,885 -25,0 m 25,882.5 -25,0 m 25,882.5 -25,0 m 25,885 -25,0"
         style="fill:none;stroke:#000000;stroke-width:2.5;stroke-linecap:round;stroke-linejoin:miter;stroke-miterlimit:10;stroke-dasharray:none;stroke-opacity:1"
         id="path36"
         inkscape:connector-curvature="0" /><path
         d="m 905,760 50,0 m -50,885 50,0 m -50,882.5 50,0 m -50,882.5 50,0 m -50,885 50,0 m 4150,-3535 -50,0 m 50,885 -50,0 m 50,882.5 -50,0 m 50,882.5 -50,0 m 50,885 -50,0"
         style="fill:none;stroke:#000000;stroke-width:2.5;stroke-linecap:round;stroke-linejoin:miter;stroke-miterlimit:10;stroke-dasharray:none;stroke-opacity:1"
         id="path38"
         inkscape:connector-curvature="0" /><g
         id="g40"
         transform="scale(10,10)"><text
           transform="matrix(1,0,0,-1,72.6602,71)"
           style="font-variant:normal;font-weight:normal;font-size:15px;font-family:Helvetica;-inkscape-font-specification:Helvetica;writing-mode:lr-tb;fill:#000000;fill-opacity:1;fill-rule:nonzero;stroke:none"
           id="text42"><tspan
             x="0"
             y="0"
             id="tspan44">0</tspan><tspan
             x="-16.679701 -8.3396997 0.00030000001"
             y="-88.5"
             sodipodi:role="line"
             id="tspan46">100</tspan><tspan
             x="-16.679701 -8.3396997 0.00030000001"
             y="-176.75"
             sodipodi:role="line"
             id="tspan48">200</tspan><tspan
             x="-16.679701 -8.3396997 0.00030000001"
             y="-265"
             sodipodi:role="line"
             id="tspan50">300</tspan><tspan
             x="-16.679701 -8.3396997 0.00030000001"
             y="-353.5"
             sodipodi:role="line"
             id="tspan52">400</tspan></text>
<text
           transform="matrix(0,1,1,0,43.25,211.501)"
           style="font-variant:normal;font-weight:normal;font-size:15px;font-family:Helvetica;-inkscape-font-specification:Helvetica;writing-mode:lr-tb;fill:#000000;fill-opacity:1;fill-rule:nonzero;stroke:none"
           id="text54"><tspan
             x="0"
             y="0"
             id="tspan56">V</tspan></text>
<text
           transform="matrix(0,1,1,0,47.75,221.5061)"
           style="font-variant:normal;font-weight:normal;font-size:9px;font-family:Helvetica;-inkscape-font-specification:Helvetica;writing-mode:lr-tb;fill:#000000;fill-opacity:1;fill-rule:nonzero;stroke:none"
           id="text58"><tspan
             x="0 1.998"
             y="0"
             sodipodi:role="line"
             id="tspan60">ij</tspan></text>
<text
           transform="matrix(0,1,1,0,43.25,229.67219)"
           style="font-variant:normal;font-weight:normal;font-size:15px;font-family:Helvetica;-inkscape-font-specification:Helvetica;writing-mode:lr-tb;fill:#000000;fill-opacity:1;fill-rule:nonzero;stroke:none"
           id="text62"><tspan
             x="0 4.9949999 12.495 19.995001 24.165001 28.334999 32.505001 45 53.34 56.669998"
             y="0"
             sodipodi:role="line"
             id="tspan64">(kJ / mol)</tspan></text>
</g><path
         d="m 912.5,4295 75,-1687.5 85,-1040 82.5,-525 85,-225 85,-57.5 82.5,37.5 85,77.5 82.5,97.5 85,97.5 85,90 82.5,82.5 85,70 82.5,60 85,52.5 85,40 82.5,35 85,27.5 82.5,22.5 85,17.5 85,15 82.5,12.5 85,10 82.5,7.5 85,7.5 82.5,5 85,2.5 85,5 82.5,2.5 85,0 82.5,2.5 85,2.5 167.5,0 85,2.5 672.5,0 82.5,2.5 590,0"
         style="fill:none;stroke:#000000;stroke-width:2.5;stroke-linecap:round;stroke-linejoin:miter;stroke-miterlimit:10;stroke-dasharray:none;stroke-opacity:1"
         id="path66"
         inkscape:connector-curvature="0" /></g></g></svg>