<?xml version="1.0" encoding="UTF-8" standalone="no"?>
<!-- Created with Inkscape (http://www.inkscape.org/) -->

<svg
   xmlns:dc="http://purl.org/dc/elements/1.1/"
   xmlns:cc="http://creativecommons.org/ns#"
   xmlns:rdf="http://www.w3.org/1999/02/22-rdf-syntax-ns#"
   xmlns:svg="http://www.w3.org/2000/svg"
   xmlns="http://www.w3.org/2000/svg"
   xmlns:sodipodi="http://sodipodi.sourceforge.net/DTD/sodipodi-0.dtd"
   xmlns:inkscape="http://www.inkscape.org/namespaces/inkscape"
   id="svg2"
   version="1.1"
   inkscape:version="0.91 r13725"
   xml:space="preserve"
   width="955"
   height="728.75"
   viewBox="0 0 955 728.75"
   sodipodi:docname="field.svg"><metadata
     id="metadata8"><rdf:RDF><cc:Work
         rdf:about=""><dc:format>image/svg+xml</dc:format><dc:type
           rdf:resource="http://purl.org/dc/dcmitype/StillImage" /><dc:title></dc:title></cc:Work></rdf:RDF></metadata><defs
     id="defs6" /><sodipodi:namedview
     pagecolor="#ffffff"
     bordercolor="#666666"
     borderopacity="1"
     objecttolerance="10"
     gridtolerance="10"
     guidetolerance="10"
     inkscape:pageopacity="0"
     inkscape:pageshadow="2"
     inkscape:window-width="760"
     inkscape:window-height="480"
     id="namedview4"
     showgrid="false"
     inkscape:zoom="0.3238422"
     inkscape:cx="477.5"
     inkscape:cy="364.375"
     inkscape:window-x="0"
     inkscape:window-y="25"
     inkscape:window-maximized="0"
     inkscape:current-layer="g10" /><g
     id="g10"
     inkscape:groupmode="layer"
     inkscape:label="ink_ext_XXXXXX"
     transform="matrix(1.25,0,0,-1.25,0,728.75)"><g
       id="g12"
       transform="scale(0.1,0.1)"><path
         d="m 0,0 7869.89,0 0,6040 L 0,6040 0,0 Z"
         style="fill:#ffffff;fill-opacity:1;fill-rule:nonzero;stroke:none"
         id="path14"
         inkscape:connector-curvature="0" /><path
         d="m 562,3133 553.25,0 1.84,0.61 31.82,0 1.83,-0.61 29.38,0 1.84,-0.61 47.73,0 1.23,0.61 17.74,0 1.84,0.61 22.64,0 1.84,0.61 10.4,0 1.84,-0.61 18.97,0 1.84,-0.61 10.4,0 1.84,-0.61 11.02,0 1.22,-0.61 40.39,0 1.83,0.61 7.35,0 1.22,0.61 7.35,0 1.83,0.61 4.9,0 1.83,0.61 8.58,0 1.83,0.62 14.08,0 1.83,0.61 1.84,0 1.83,-0.61 14.08,0 1.84,-0.62 4.89,0 1.84,-0.61 5.51,0 1.22,-0.61 3.67,0 1.84,-0.61 3.67,0 1.84,-0.61 3.06,0 1.83,-0.62 5.51,0 1.84,-0.61 4.89,0 1.84,-0.61 22.64,0 1.84,0.61 5.5,0 1.84,0.61 3.06,0 1.84,0.62 1.84,0 1.83,0.61 1.84,0 1.83,0.61 1.84,0 1.22,0.61 3.67,0 1.84,0.61 1.84,0 1.83,0.62 1.84,0 1.22,0.61 1.84,0 1.84,0.61 3.67,0 1.83,0.61 3.06,0 1.84,0.62 7.34,0 1.84,0.6 4.9,0 1.83,-0.6 7.35,0 1.22,-0.62 3.67,0 1.84,-0.61 1.83,0 1.84,-0.61 1.83,0 1.23,-0.61 1.83,-0.62 1.84,0 1.83,-0.61 1.84,0 1.84,-0.61 1.83,-0.61 1.23,-0.61 1.83,0 1.84,-0.62 1.84,-0.61 1.83,0 1.84,-0.61 1.83,-0.61 1.84,0 1.22,-0.62 1.84,0 1.83,-0.6 1.84,0 1.84,-0.62 1.83,0 1.84,-0.61 3.06,0 1.84,-0.61 10.4,0 1.84,0.61 3.67,0 1.83,0.61 1.84,0 1.23,0.62 1.83,0 1.84,0.6 1.83,0 1.84,0.62 1.84,0.61 1.83,0.61 1.84,0.61 1.22,0.62 1.84,0 1.83,0.61 1.84,0.61 1.83,0.61 1.84,0.61 1.84,0.62 1.22,0.61 1.84,0.61 1.83,0.61 1.84,0.62 1.84,0.6 1.83,0.62 1.84,0.61 1.22,0.61 1.84,0.61 1.83,0 1.84,0.62 1.83,0 1.84,0.61 1.84,0 1.83,0.61 3.06,0 1.84,0.61 3.67,0 1.83,-0.61 3.07,0 1.83,-0.61 1.84,0 1.83,-0.61 1.84,0 1.84,-0.62 1.83,-0.61 1.23,-0.61 1.83,-0.61 1.84,-0.62 1.83,-0.6 1.84,-0.62 1.83,-0.61 1.84,-1.22 1.23,-0.62 1.83,-0.61 1.84,-1.22 1.84,-0.61 1.83,-0.62 1.84,-1.22 1.83,-0.61 1.84,-1.22 1.22,-0.62 1.84,-0.61 1.83,-1.22 1.84,-0.62 1.84,-0.61 1.83,-0.61 1.84,-0.61 1.22,-0.61 1.84,-0.62 1.84,-0.61 1.83,-0.61 1.84,-0.61 3.67,0 1.22,-0.61 7.35,0 1.83,0.61 1.84,0 1.22,0.61 1.84,0 1.84,0.61 1.83,0.61 1.84,0.62 1.83,0.61 1.84,1.22 1.84,0.61 1.22,1.23 1.83,0.61 1.84,1.23 1.84,1.22 1.83,0.61 1.84,1.22 1.83,1.23 1.23,1.22 1.83,1.23 1.84,1.22 1.83,1.23 1.84,1.22 1.84,1.22 1.83,1.23 1.23,1.22 1.83,1.22 1.84,0.62 1.84,1.22 1.83,1.22 1.84,0.61 1.83,1.23 1.23,0.61 1.83,0.61 1.84,0.62 1.83,0.61 1.84,0.61 3.67,0 1.84,0.61 3.06,0 1.84,-0.61 1.83,0 1.84,-0.61 1.83,-0.61 1.84,-0.62 1.22,-0.61 1.84,-0.61 1.84,-1.23 1.83,-0.61 1.84,-1.22 1.83,-1.22 1.84,-1.23 1.23,-1.83 1.83,-1.23 1.84,-1.22 1.83,-1.84 1.84,-1.83 1.84,-1.23 1.83,-1.83 1.22,-1.84 1.84,-1.23 1.84,-1.83 1.83,-1.84 1.84,-1.83 1.83,-1.23 1.84,-1.83 1.84,-1.22 1.22,-1.84 1.84,-1.23 1.83,-1.22 1.84,-1.23 1.84,-1.22 1.83,-1.22 1.84,-0.61 1.22,-1.23 1.84,-0.61 1.83,-0.61 1.84,-0.61 8.56,0 1.84,0.61 1.84,0.61 1.83,0.61 1.84,1.23 1.83,0.61 1.23,1.22 1.84,1.22 1.83,1.84 1.84,1.23 1.83,1.83 1.84,1.84 1.84,1.83 1.83,1.84 1.23,2.45 1.83,1.84 1.84,2.44 1.83,1.84 1.84,2.45 1.83,2.45 1.84,2.44 1.23,1.84 1.83,2.45 1.84,2.44 1.84,1.84 1.83,2.45 1.84,1.83 1.83,2.45 1.23,1.84 1.83,1.83 1.84,1.84 1.83,1.23 1.84,1.22 1.84,1.83 1.83,0.62 1.84,1.22 1.22,0.61 1.84,0.61 1.84,0.62 5.5,0 1.84,-0.62 1.22,-0.61 1.84,-0.61 1.83,-1.22 1.84,-1.23 1.84,-1.83 1.83,-1.23 1.84,-1.83 1.22,-1.84 1.84,-2.45 1.84,-2.45 1.83,-2.44 1.84,-2.45 1.83,-2.45 1.84,-3.06 1.22,-3.06 1.84,-3.06 1.83,-3.06 1.84,-3.06 1.84,-3.06 1.83,-3.06 1.84,-3.06 1.83,-3.06 1.23,-3.06 1.83,-3.06 1.84,-3.06 1.83,-2.45 1.84,-3.06 1.84,-2.45 1.83,-2.44 1.23,-2.45 1.83,-1.84 1.84,-1.83 1.84,-1.84 1.83,-1.22 1.84,-1.23 1.83,-1.22 1.23,-0.61 1.83,-0.61 5.51,0 1.84,0.61 1.83,1.22 1.23,1.22 1.84,1.23 1.83,1.83 1.84,1.84 1.83,2.45 1.84,2.45 1.83,2.44 1.84,3.07 1.22,3.05 1.84,3.06 1.84,3.67 1.83,3.68 1.84,3.67 1.83,4.28 1.84,3.67 1.23,4.29 1.83,4.29 1.84,4.28 1.83,4.28 1.84,4.29 1.84,3.67 1.83,4.28 1.22,4.29 1.84,3.67 1.84,3.67 1.83,3.67 1.84,3.67 1.83,3.07 1.84,3.05 1.23,2.45 1.83,3.06 1.84,1.84 1.83,1.83 1.84,1.84 1.84,1.23 1.83,0.61 1.84,0.61 1.22,0.61 1.84,0 1.83,-0.61 1.84,-1.22 1.83,-1.23 1.84,-1.22 1.84,-2.45 1.22,-1.84 1.83,-3.06 1.84,-3.06 1.84,-3.06 1.83,-3.67 1.84,-4.29 1.83,-4.28 1.23,-4.28 1.84,-4.9 1.83,-4.89 1.84,-4.9 1.83,-5.51 1.84,-4.9 1.84,-5.5 1.22,-5.51 1.84,-6.12 1.83,-5.51 1.84,-5.51 1.83,-5.51 1.84,-5.5 1.83,-4.9 1.84,-5.51 1.23,-4.89 1.83,-4.9 1.84,-4.28 1.84,-4.29 1.83,-3.67 1.84,-3.67 1.83,-3.67 1.23,-2.45 1.83,-2.45 1.84,-2.44 1.83,-1.23 1.84,-1.22 1.84,-0.62 1.83,-0.61 1.23,0.61 1.83,0.62 1.84,1.22 1.84,1.83 1.83,1.84 1.84,3.06 1.83,3.06 1.23,3.67 1.83,4.29 1.84,4.28 1.83,4.9 1.84,4.89 1.84,6.12 1.83,5.51 1.84,6.73 1.22,6.12 1.84,6.73 1.84,7.35 1.83,6.73 1.84,7.35 1.83,7.34 1.84,7.34 1.22,7.35 1.84,7.34 1.83,7.34 1.84,6.74 1.84,7.34 1.83,6.73 1.84,6.12 1.22,6.13 1.84,6.11 1.83,5.51 1.84,4.9 1.83,4.89 1.84,4.29 1.84,3.67 1.22,3.06 1.84,2.45 1.83,1.83 1.84,1.84 1.84,0.61 3.67,0 1.83,-1.22 1.23,-1.84 1.83,-2.44 1.84,-3.07 1.83,-3.67 1.84,-4.28 1.84,-4.29 1.83,-5.5 1.23,-6.12 1.84,-6.13 1.83,-7.34 1.84,-7.34 1.83,-7.96 1.84,-7.95 1.83,-8.57 1.23,-8.57 1.83,-9.18 1.84,-9.18 1.84,-9.79 1.83,-9.18 1.84,-9.79 1.83,-9.18 1.84,-9.8 1.23,-9.18 1.83,-9.18 1.84,-9.18 1.83,-8.56 1.84,-8.57 1.84,-7.96 1.83,-7.34 1.22,-7.35 1.84,-6.11 1.84,-6.13 1.83,-4.89 1.84,-4.9 1.83,-4.28 1.84,-3.06 1.22,-2.45 1.84,-1.84 1.84,-0.61 1.83,0 1.84,0.61 1.84,1.23 1.83,2.45 1.22,3.06 1.84,4.28 1.84,4.9 1.83,5.5 1.84,6.13 1.83,6.73 1.84,7.95 1.84,8.57 1.22,9.18 1.83,9.18 1.84,10.4 1.84,10.41 1.83,11.01 1.84,11.63 1.83,11.63 1.23,12.24 1.84,12.24 1.83,12.24 1.84,12.24 1.83,12.24 1.84,12.24 1.84,11.63 1.22,11.63 1.84,11.62 1.83,11.02 1.84,11.02 1.83,9.79 1.84,9.79 1.83,8.57 1.23,8.56 1.84,7.35 1.83,6.73 1.84,5.51 1.84,4.9 1.83,4.28 1.84,3.06 1.83,1.84 1.23,1.22 1.83,0 1.84,-1.22 1.83,-1.84 1.84,-3.67 1.84,-3.67 1.83,-5.51 1.23,-6.12 1.83,-7.35 1.84,-7.95 1.84,-9.18 1.83,-10.41 1.84,-10.4 1.83,-11.63 1.23,-12.85 1.83,-12.85 1.84,-13.47 1.83,-14.07 1.84,-14.69 1.84,-15.3 1.83,-15.3 1.22,-15.3 1.84,-15.3 1.84,-15.91 1.84,-15.3 1.83,-15.92 1.84,-15.29 1.83,-14.69 1.84,-14.69 1.22,-13.46 1.84,-13.47 1.83,-12.85 1.84,-12.24 1.84,-11.02 1.83,-10.4 1.84,-9.18 1.22,-7.96 1.84,-7.34 1.83,-6.12 1.84,-4.89 1.83,-3.68 1.84,-2.45 1.84,-1.22 1.22,0.61 1.84,1.23 1.83,3.06 1.84,4.28 1.84,5.51 1.83,6.73 1.84,7.96 1.22,9.79 1.84,10.4 1.83,11.63 1.84,12.85 1.83,13.47 1.84,15.3 1.84,15.29 1.83,16.53 1.23,17.75 1.84,17.75 1.83,18.36 1.84,18.97 1.83,19.58 1.84,18.97 1.83,20.2 1.23,19.58 1.83,19.59 1.84,18.97 1.84,18.97 1.83,18.97 1.84,17.75 1.83,17.75 1.23,16.53 1.84,15.91 1.83,14.68 1.84,14.08 1.83,12.85 1.84,11.02 1.84,10.4 1.22,8.57 1.83,7.35 1.84,6.12 1.84,4.28 1.83,2.45 1.84,1.22 1.83,-0.61 1.84,-1.84 1.22,-4.28 1.84,-5.51 1.84,-6.73 1.83,-9.18 1.84,-10.41 1.84,-11.62 1.83,-13.47 1.22,-14.69 1.84,-16.52 1.84,-17.14 1.83,-18.97 1.84,-19.58 1.83,-20.81 1.84,-21.42 1.22,-22.64 1.84,-23.26 1.83,-23.25 1.84,-24.48 1.84,-23.88 1.83,-24.47 1.84,-24.48 1.22,-24.48 1.84,-23.87 1.84,-23.87 1.83,-23.26 1.84,-22.03 1.83,-21.42 1.84,-20.81 1.84,-19.58 1.22,-17.75 1.84,-17.13 1.83,-15.92 1.84,-13.46 1.83,-12.24 1.84,-11.01 1.83,-8.58 1.23,-7.34 1.84,-4.89 1.83,-3.06 1.84,-0.62 1.84,0.62 1.83,3.06 1.84,5.5 1.22,6.73 1.84,9.18 1.83,11.02 1.84,13.46 1.83,14.69 1.84,17.14 1.84,18.36 1.83,20.2 1.23,22.03 1.83,23.25 1.84,24.48 1.84,25.71 1.83,26.93 1.84,28.15 1.83,28.15 1.23,29.38 1.83,29.37 1.84,29.99 1.83,30.6 1.84,29.99 1.84,29.37 1.83,29.99 1.23,28.77 1.83,28.15 1.84,27.54 1.84,26.32 1.83,24.48 1.84,23.86 1.83,22.03 1.23,20.81 1.83,18.98 1.84,16.52 1.83,14.69 1.84,12.85 1.84,10.4 1.83,7.96 1.84,6.12 1.22,3.06 1.84,1.22 1.83,-1.83 1.84,-4.29 1.83,-6.73 1.84,-9.18 1.84,-11.63 1.22,-13.46 1.84,-16.52 1.83,-18.98 1.84,-20.81 1.84,-23.25 1.83,-24.48 1.84,-26.93 1.22,-28.77 1.84,-30.59 1.83,-31.21 1.84,-33.05 1.83,-34.27 1.84,-34.89 1.84,-35.5 1.22,-36.1 1.84,-36.73 1.84,-36.71 1.83,-36.72 1.84,-36.11 1.83,-35.5 1.84,-35.49 1.83,-33.66 1.23,-33.05 1.83,-31.83 1.84,-29.98 1.84,-28.77 1.83,-26.31 1.84,-25.1 1.83,-22.03 1.23,-20.19 1.84,-17.14 1.83,-15.3 1.84,-12.24 1.83,-9.18 1.84,-6.73 1.84,-3.67 1.22,-0.62 1.83,2.45 1.84,5.51 1.84,8.57 1.83,11.63 1.84,14.68 1.83,17.14 1.23,20.19 1.83,23.26 1.84,25.71 1.84,28.15 1.83,30.6 1.84,32.43 1.84,34.89 1.83,36.72 1.22,38.55 1.84,40.4 1.84,41 1.83,42.23 1.84,42.84 1.83,44.06 1.84,44.07 1.22,44.06 1.84,44.07 1.83,43.45 1.84,42.83 1.84,42.24 1.83,40.39 1.84,39.78 1.22,37.33 1.84,36.1 1.84,34.28 1.83,31.21 1.84,29.38 1.83,26.31 1.84,23.26 1.22,20.81 1.84,17.13 1.84,14.08 1.83,11.01 1.84,7.35 1.83,3.67 1.84,0 1.83,-3.67 1.23,-6.73 1.84,-11.02 1.83,-14.08 1.84,-17.74 1.84,-21.42 1.83,-25.09 1.84,-28.16 1.22,-30.6 1.84,-34.27 1.83,-37.33 1.84,-39.17 1.83,-42.23 1.84,-44.06 1.84,-46.51 1.22,-47.74 1.84,-48.96 1.83,-50.8 1.84,-51.41 1.84,-52.01 1.83,-52.64 1.84,-52.63 1.22,-52.02 1.84,-52.02 1.83,-50.79 1.84,-49.58 1.83,-48.34 1.84,-47.13 1.84,-44.06 1.83,-42.84 1.22,-39.78 1.84,-36.72 1.84,-34.28 1.84,-30.59 1.83,-27.55 1.84,-23.86 1.83,-20.2 1.23,-15.91 1.83,-12.24 1.84,-7.96 1.83,-3.67 1.84,0.61 1.84,4.9 1.83,9.18 1.22,13.46 1.84,17.75 1.84,21.42 1.83,26.32 1.84,29.38 1.83,33.65 1.84,37.95 1.84,40.39 1.22,44.06 1.84,47.74 1.83,49.57 1.84,52.63 1.84,55.08 1.83,56.92 1.84,58.14 1.22,59.98 1.84,60.59 1.83,61.81 1.84,61.81 1.83,61.81 1.84,61.2 1.84,61.2 1.22,59.36 1.84,58.15 1.84,56.91 1.83,54.47 1.84,52.02 1.83,48.96 1.84,46.51 1.22,42.84 1.84,39.78 1.83,35.5 1.84,31.21 1.84,27.54 1.83,22.64 1.84,18.36 1.83,13.47 1.23,8.56 1.84,3.07 1.83,-1.23 1.84,-6.12 1.83,-11.63 1.84,-16.52 1.84,-21.42 1.22,-26.32 1.83,-31.21 1.84,-35.5 1.84,-40.39 1.83,-44.06 1.84,-48.35 1.83,-52.02 1.23,-55.69 1.84,-59.37 1.83,-61.81 1.84,-64.26 1.83,-66.71 1.84,-67.93 1.84,-70.38 1.22,-70.99 1.83,-71.6 1.84,-72.22 1.84,-72.22 1.83,-70.99 1.84,-70.99 1.83,-69.16 1.84,-67.32 1.22,-65.48 1.84,-63.04 1.83,-59.97 1.84,-56.92 1.84,-53.24 1.83,-48.96 1.84,-45.29 1.22,-40.39 1.84,-36.11 1.84,-30.6 1.83,-25.7 1.84,-20.2 1.83,-14.69 1.84,-9.18 1.22,-3.06 1.84,2.45 1.84,8.57 1.83,14.07 1.84,20.2 1.83,25.7 1.84,31.22 1.23,36.72 1.83,42.22 1.84,47.13 1.83,52.02 1.84,56.3 1.84,61.2 1.83,64.87 1.84,68.55 1.22,71.6 1.84,75.28 1.83,77.11 1.84,78.95 1.83,81.4 1.84,82 1.84,82.62 1.22,83.23 1.84,82.63 1.83,82.61 1.84,80.79 1.84,79.56 1.83,77.72 1.84,74.67 1.22,71.6 1.84,68.55 1.83,64.87 1.84,60.58 1.83,55.69 1.84,50.8 1.84,45.9 1.22,40.39 1.83,34.28 1.84,28.76 1.84,22.03 1.83,15.91 1.84,9.18 1.84,2.45 1.83,-3.67 1.23,-11.01 1.83,-17.14 1.84,-23.87 1.83,-30.6 1.84,-36.72 1.84,-43.45 1.83,-48.96 1.22,-54.47 1.84,-60.59 1.84,-65.48 1.83,-70.38 1.84,-74.66 1.83,-78.95 1.84,-82.62 1.23,-86.3 1.83,-88.12 1.84,-91.19 1.83,-92.41 1.84,-93.64 1.84,-94.86 1.83,-94.86 1.23,-94.25 1.83,-93.63 1.84,-91.8 1.83,-90.58 1.84,-87.52 1.83,-84.45 1.84,-81.4 1.84,-77.11 1.22,-72.83 1.84,-67.93 1.84,-63.03 1.83,-56.92 1.84,-50.8 1.83,-44.68 1.84,-37.94 1.22,-31.21 1.84,-24.48 1.83,-16.53 1.84,-9.18 1.84,-1.83 1.83,5.51 1.84,13.46 1.22,20.81 1.84,28.15 1.84,35.5 1.83,43.45 1.84,49.57 1.83,56.31 1.84,63.65 1.22,69.15 1.84,74.67 1.83,80.78 1.84,85.07 1.84,89.96 1.83,93.63 1.84,97.93 1.83,100.36 1.23,102.82 1.83,104.65 1.84,105.88 1.84,107.1 1.83,106.49 1.84,106.49 1.84,105.26 1.22,103.43 1.83,100.98 1.84,97.92 1.84,94.85 1.83,90.58 1.84,86.3 1.83,81.39 1.23,75.28 1.83,69.76 1.84,63.04 1.83,56.3 1.84,48.96 1.84,41.62 1.83,33.66 1.84,25.7 1.22,17.14 1.84,9.18 1.84,0.61 1.83,-7.34 1.84,-16.53 1.83,-24.48 1.84,-33.04 1.22,-41.62 1.84,-48.96 1.84,-56.92 1.83,-64.87 1.84,-71.6 1.83,-78.34 1.84,-85.07 1.23,-90.57 1.83,-96.09 1.84,-101.59 1.83,-105.26 1.84,-109.55 1.84,-112.61 1.83,-115.05 1.22,-117.51 1.84,-118.11 1.84,-119.34 1.83,-119.34 1.84,-118.12 1.83,-116.89 1.84,-115.06 1.84,-112 1.22,-108.93 1.84,-104.65 1.83,-100.37 1.84,-94.86 1.84,-89.35 1.83,-83.23 1.84,-75.89 1.22,-69.16 1.84,-61.2 1.83,-53.24 1.84,-44.68 1.83,-36.11 1.84,-26.92 1.84,-18.36 1.22,-8.57 1.84,0.61 1.83,10.4 1.84,19.59 1.84,28.76 1.83,37.95 1.84,47.12 1.22,56.31 1.84,64.25 1.83,72.83 1.84,80.17 1.83,88.13 1.84,94.86 1.84,101.6 1.83,107.09 1.22,113.23 1.84,116.89 1.84,121.79 1.83,124.84 1.84,127.3 1.83,129.74 1.84,130.97 1.23,131.58 1.83,130.97 1.84,130.35 1.83,128.52 1.84,126.69 1.84,123.01 1.83,119.34 1.23,114.44 1.83,109.55 1.84,103.43 1.83,97.31 1.84,89.96 1.83,82.62 1.84,74.66 1.23,66.1 1.83,56.92 1.84,47.73 1.84,37.95 1.83,28.15 1.84,18.36 1.83,7.95 1.84,-2.44 1.22,-12.85 1.84,-23.26 1.83,-33.05 1.84,-43.45 1.84,-53.24 1.83,-62.43 1.84,-72.21 1.22,-80.79 1.84,-89.96 1.84,-97.31 1.83,-105.26 1.84,-112 1.83,-118.12 1.84,-124.23 1.22,-129.13 1.84,-133.42 1.83,-137.09 1.84,-139.53 1.84,-141.99 1.83,-142.59 1.84,-143.82 1.22,-143.21 1.84,-141.37 1.83,-140.15 1.84,-137.09 1.83,-133.42 1.84,-129.13 1.84,-124.23 1.84,-118.12 1.22,-112 1.83,-104.65 1.84,-96.69 1.84,-88.75 1.83,-79.55 1.84,-69.77 1.83,-60.59 1.23,-50.18 1.83,-39.78 1.84,-28.77 1.83,-17.75 1.84,-7.34 1.84,4.89 1.83,15.31 1.23,26.93 1.83,37.94 1.84,48.35 1.84,59.36 1.83,69.77 1.84,79.56 1.83,89.35 1.23,98.53 1.83,106.49 1.84,115.06 1.84,122.4 1.83,129.13 1.84,135.25 1.83,140.15 1.84,144.43 1.23,148.72 1.83,151.16 1.84,153.61 1.83,154.84 1.84,154.83 1.84,154.23 1.83,152.39 1.22,150.55 1.84,147.49 1.84,143.21 1.83,138.31 1.84,132.8 1.83,126.69 1.84,118.73 1.23,111.38 1.83,102.82 1.84,93.63 1.83,84.46 1.84,73.44 1.84,63.03 1.83,52.64 1.84,40.39 1.22,29.38 1.84,17.74 1.83,4.9 1.84,-6.12 1.83,-18.97 1.84,-30.61 1.84,-42.22 1.22,-53.86 1.83,-65.48 1.84,-76.5 1.84,-86.9 1.84,-97.31 1.83,-107.1 1.84,-115.67 1.22,-124.24 1.84,-132.19 1.83,-138.92 1.84,-145.66 1.83,-150.55 1.84,-155.45 1.84,-159.73 1.22,-162.18 1.83,-164.02 1.84,-165.24 1.84,-165.24 1.83,-164.01 1.84,-162.8 1.83,-160.34 1.84,-156.06 1.23,-152.39 1.83,-146.27 1.84,-140.76 1.83,-133.41 1.84,-125.46 1.84,-117.5 1.83,-107.72 1.23,-97.92 1.83,-88.13 1.84,-76.5 1.83,-65.48 1.84,-53.243 1.83,-41.617 1.84,-29.375 1.23,-16.523 1.83,-3.672 1.84,9.179 1.84,22.032 1.83,34.269 1.84,47.125 1.83,59.365 1.23,70.99 1.83,82.62 1.84,94.25 1.83,104.65 1.84,114.45 1.84,124.23 1.83,132.8 1.84,141.38 1.22,148.1 1.84,154.84 1.84,160.34 1.83,165.24 1.84,168.91 1.83,171.98 1.84,173.19 1.22,174.42 1.84,174.42 1.83,173.81 1.84,171.36 1.84,168.3 1.83,164.02 1.84,159.73 1.22,153.61 1.84,146.88 1.84,139.54 1.83,130.97 1.84,121.78 1.83,112 1.84,101.59 1.22,90.58 1.84,78.94 1.83,66.71 1.84,54.47 1.84,41.62 1.83,28.15 1.84,15.3 1.83,1.83 1.23,-11.62 1.83,-25.1 1.84,-37.94 1.83,-51.41 1.84,-64.26 1.84,-76.5 1.83,-88.74 1.23,-100.37 1.83,-111.38 1.84,-121.79 1.84,-131.58 1.83,-140.76 1.84,-148.72 1.83,-156.67 1.23,-162.79 1.83,-168.91 1.84,-173.2 1.84,-176.86 1.83,-179.93 1.84,-181.76 1.83,-182.38 1.23,-182.38 1.84,-180.54 1.83,-178.7 1.84,-175.03 1.83,-170.75 1.84,-165.24 1.84,-159.12 1.83,-151.78 1.22,-143.82 1.84,-135.25 1.84,-125.46 1.83,-115.05 1.84,-104.05 1.83,-92.408 1.84,-80.172 1.23,-67.32 1.83,-54.469 1.84,-41.003 1.83,-27.54 1.84,-13.464 1.84,0.613 1.83,14.074 1.22,28.152 1.84,41.618 1.84,55.691 1.83,68.543 1.84,81.398 1.83,94.247 1.84,105.87 1.22,116.9 1.84,127.91 1.84,137.69 1.83,147.5 1.84,155.45 1.84,162.79 1.83,169.52 1.84,175.65 1.22,179.92 1.84,183.6 1.83,186.66 1.84,187.89 1.83,188.49 1.84,187.89 1.84,186.05 1.22,184.21 1.83,179.93 1.84,175.03 1.84,170.14 1.83,162.78 1.84,155.45 1.83,146.88 1.23,137.71 1.84,127.9 1.83,116.28 1.84,105.27 1.83,93.02 1.84,80.78 1.84,67.32 1.22,53.86 1.84,39.78 1.83,26.32 1.84,11.63 1.83,-3.07 1.84,-16.52 1.83,-31.21 1.84,-45.29 1.23,-59.36 1.83,-72.22 1.84,-85.68 1.84,-98.53 1.83,-110.16 1.84,-122.4 1.83,-132.81 1.23,-142.59 1.83,-151.78 1.84,-160.95 1.83,-167.69 1.84,-175.03 1.84,-179.93 1.83,-184.83 1.23,-188.49 1.83,-190.94 1.84,-192.17 1.84,-192.78 1.83,-191.56 1.84,-190.33 1.83,-187.27 1.84,-182.99 1.22,-178.09 1.84,-171.97 1.83,-165.25 1.84,-157.28 1.84,-148.72 1.83,-138.31 1.84,-128.52 1.22,-116.89 1.84,-105.265 1.83,-93.024 1.84,-79.558 1.84,-66.707 1.83,-52.633 1.84,-37.945 1.22,-24.481 1.84,-9.179 1.83,4.898 1.84,19.582 1.84,33.66 1.83,48.348 1.84,61.812 1.22,75.887 1.84,89.352 1.83,101.593 1.84,113.83 1.83,125.46 1.84,136.48 1.84,146.27 1.83,155.44 1.23,164.02 1.83,171.36 1.84,177.48 1.84,182.99 1.83,187.88 1.84,190.95 1.83,193.39 1.23,194.61 1.83,194.62 1.84,194.01 1.84,191.55 1.83,188.5 1.84,184.21 1.83,178.7 1.23,172.59 1.84,165.85 1.83,157.28 1.84,148.1 1.83,138.32 1.84,127.29 1.84,116.29 1.22,104.03 1.83,91.19 1.84,78.34 1.84,64.87 1.83,50.8 1.84,36.11 1.83,22.03 1.84,7.34 1.23,-7.34 1.83,-22.03 1.84,-36.11 1.83,-50.8 1.84,-64.87 1.84,-78.34 1.83,-91.19 1.22,-104.03 1.84,-116.29 1.84,-127.29 1.83,-138.32 1.84,-148.1 1.83,-157.28 1.84,-165.85 1.22,-172.59 1.84,-178.7 1.83,-184.21 1.84,-188.5 1.84,-191.55 1.84,-194.01 1.83,-194.62 1.22,-194.61 1.84,-193.39 1.84,-190.95 1.83,-187.88 1.84,-182.99 1.83,-177.48 1.84,-171.36 1.84,-164.02 1.22,-155.44 1.83,-146.27 1.84,-136.48 1.84,-125.46 1.83,-113.83 1.84,-101.593 1.83,-89.352 1.23,-75.887 1.84,-61.812 1.83,-48.348 1.84,-33.66 1.83,-19.582 1.84,-4.898 1.84,9.179 1.22,24.481 1.84,37.945 1.83,52.633 1.84,66.707 1.83,79.558 1.84,93.024 1.83,105.265 1.23,116.89 1.84,128.52 1.83,138.31 1.84,148.72 1.84,157.28 1.83,165.25 1.84,171.97 1.83,178.09 1.23,182.99 1.83,187.27 1.84,190.33 1.83,191.56 1.84,192.78 1.84,192.17 1.83,190.94 1.23,188.49 1.83,184.83 1.84,179.93 1.84,175.03 1.83,167.69 1.84,160.95 1.83,151.78 1.23,142.59 1.83,132.81 1.84,122.4 1.83,110.16 1.84,98.53 1.84,85.68 1.83,72.22 1.22,59.36 1.84,45.29 1.84,31.21 1.84,16.52 1.83,3.07 1.84,-11.63 1.83,-26.32 1.84,-39.78 1.22,-53.86 1.84,-67.32 1.83,-80.78 1.84,-93.02 1.84,-105.27 1.83,-116.28 1.84,-127.9 1.22,-137.71 1.84,-146.88 1.83,-155.45 1.84,-162.78 1.83,-170.14 1.84,-175.03 1.84,-179.93 1.22,-184.21 1.84,-186.05 1.83,-187.89 1.84,-188.49 1.84,-187.89 1.83,-186.66 1.84,-183.6 1.83,-179.92 1.23,-175.65 1.83,-169.52 1.84,-162.79 1.84,-155.45 1.83,-147.5 1.84,-137.69 1.83,-127.91 1.23,-116.9 1.84,-105.87 1.83,-94.247 1.84,-81.398 1.83,-68.543 1.84,-55.691 1.84,-41.618 1.22,-28.152 1.83,-14.074 1.84,-0.613 1.84,13.464 1.83,27.54 1.84,41.003 1.83,54.469 1.23,67.32 1.84,80.172 1.83,92.408 1.84,104.05 1.83,115.05 1.84,125.46 1.84,135.25 1.83,143.82 1.22,151.78 1.84,159.12 1.84,165.24 1.83,170.75 1.84,175.03 1.83,178.7 1.84,180.54 1.23,182.38 1.83,182.38 1.84,181.76 1.83,179.93 1.84,176.86 1.84,173.2 1.83,168.91 1.22,162.79 1.84,156.67 1.84,148.72 1.83,140.76 1.84,131.58 1.83,121.79 1.84,111.38 1.22,100.37 1.84,88.74 1.83,76.5 1.84,64.26 1.84,51.41 1.83,37.94 1.84,25.1 1.84,11.62 1.22,-1.83 1.84,-15.3 1.83,-28.15 1.84,-41.62 1.83,-54.47 1.84,-66.71 1.84,-78.94 1.22,-90.58 1.84,-101.59 1.83,-112 1.84,-121.78 1.83,-130.97 1.84,-139.54 1.83,-146.88 1.23,-153.61 1.84,-159.73 1.83,-164.02 1.84,-168.3 1.84,-171.36 1.83,-173.81 1.84,-174.42 1.22,-174.42 1.84,-173.19 1.83,-171.98 1.84,-168.91 1.83,-165.24 1.84,-160.34 1.84,-154.84 1.83,-148.1 1.23,-141.38 1.83,-132.8 1.84,-124.23 1.84,-114.45 1.83,-104.65 1.84,-94.25 1.83,-82.62 1.23,-70.99 1.83,-59.365 1.84,-47.125 1.83,-34.269 1.84,-22.032 1.84,-9.179 1.83,3.672 1.22,16.523 1.84,29.375 1.84,41.617 1.83,53.243 1.84,65.48 1.84,76.5 1.83,88.13 1.23,97.92 1.83,107.72 1.84,117.5 1.83,125.46 1.84,133.41 1.84,140.76 1.83,146.27 1.84,152.39 1.22,156.06 1.84,160.34 1.83,162.8 1.84,164.01 1.83,165.24 1.84,165.24 1.84,164.02 1.22,162.18 1.84,159.73 1.83,155.45 1.84,150.55 1.84,145.66 1.83,138.92 1.84,132.19 1.22,124.24 1.84,115.67 1.83,107.1 1.84,97.31 1.84,86.9 1.83,76.5 1.84,65.48 1.22,53.86 1.84,42.22 1.84,30.61 1.83,18.97 1.84,6.12 1.83,-4.9 1.84,-17.74 1.84,-29.38 1.22,-40.39 1.83,-52.64 1.84,-63.03 1.84,-73.44 1.83,-84.46 1.84,-93.63 1.83,-102.82 1.23,-111.38 1.84,-118.73 1.83,-126.69 1.84,-132.8 1.83,-138.31 1.84,-143.21 1.84,-147.49 1.22,-150.55 1.83,-152.39 1.84,-154.23 1.84,-154.83 1.83,-154.84 1.84,-153.61 1.83,-151.16 1.23,-148.72 1.83,-144.43 1.84,-140.76 1.84,-134.64 1.83,-129.13 1.84,-122.4 1.84,-115.06 1.83,-106.49 1.22,-98.53 1.84,-89.35 1.84,-79.56 1.83,-69.77 1.84,-59.36 1.83,-48.35 1.84,-37.94 1.22,-26.93 1.84,-15.31 1.83,-4.89 1.84,7.34 1.84,17.75 1.83,28.77 1.84,39.78 1.23,50.18 1.83,60.59 1.84,69.77 1.83,79.55 1.84,88.75 1.83,96.69 1.84,104.65 1.84,112 1.22,118.12 1.84,124.23 1.83,129.13 1.84,133.42 1.83,137.09 1.84,140.15 1.83,141.37 1.23,143.21 1.84,143.82 1.83,142.59 1.84,141.99 1.84,139.53 1.83,137.09 1.84,133.42 1.22,129.13 1.84,124.23 1.83,118.12 1.84,112 1.83,105.26 1.84,97.31 1.84,89.96 1.22,80.79 1.84,72.21 1.83,62.43 1.84,53.24 1.84,43.45 1.83,33.05 1.84,23.26 1.83,12.85 1.23,2.44 1.83,-7.95 1.84,-18.36 1.83,-28.15 1.84,-37.95 1.84,-47.73 1.83,-56.92 1.22,-66.1 1.84,-74.66 1.84,-82.62 1.84,-89.96 1.83,-97.31 1.84,-103.43 1.83,-109.55 1.23,-114.44 1.83,-119.34 1.84,-123.01 1.83,-126.69 1.84,-128.52 1.84,-130.35 1.83,-130.97 1.22,-131.58 1.84,-130.97 1.84,-129.74 1.83,-127.3 1.84,-124.84 1.83,-121.79 1.84,-116.89 1.84,-113.23 1.22,-107.09 1.84,-101.6 1.83,-94.86 1.84,-88.13 1.84,-80.17 1.83,-72.83 1.84,-64.25 1.22,-56.31 1.84,-47.12 1.83,-37.95 1.84,-28.76 1.84,-19.59 1.83,-10.4 1.84,-0.61 1.22,8.57 1.84,18.36 1.84,26.92 1.83,36.11 1.84,44.68 1.83,53.24 1.84,61.2 1.22,69.16 1.84,75.89 1.83,83.23 1.84,89.35 1.84,94.86 1.83,100.37 1.84,104.65 1.83,108.93 1.23,112 1.84,115.06 1.83,116.89 1.84,118.12 1.83,119.34 1.84,119.34 1.84,118.11 1.22,117.51 1.83,115.05 1.84,112.61 1.84,109.55 1.83,105.26 1.84,101.59 1.83,96.09 1.23,90.57 1.83,85.07 1.84,78.34 1.84,71.6 1.83,64.87 1.84,56.92 1.84,48.96 1.22,41.62 1.83,33.04 1.84,24.48 1.84,16.53 1.83,7.34 1.84,-0.61 1.83,-9.18 1.84,-17.14 1.22,-25.7 1.84,-33.66 1.83,-41.62 1.84,-48.96 1.84,-56.3 1.83,-63.04 1.84,-69.76 1.23,-75.28 1.83,-81.39 1.84,-86.3 1.83,-90.58 1.84,-94.85 1.83,-97.92 1.84,-100.98 1.22,-103.43 1.84,-105.26 1.84,-106.49 1.83,-106.49 1.84,-107.1 1.83,-105.88 1.84,-104.65 1.23,-102.82 1.83,-100.36 1.84,-97.93 1.83,-93.63 1.84,-89.96 1.84,-85.07 1.83,-80.78 1.84,-74.67 1.22,-69.15 1.84,-63.65 1.83,-56.31 1.84,-49.57 1.83,-43.45 1.84,-35.5 1.84,-28.15 1.22,-20.81 1.84,-13.46 1.83,-5.51 1.84,1.83 1.84,9.18 1.83,16.53 1.84,24.48 1.22,31.21 1.84,37.94 1.83,44.68 1.84,50.8 1.83,56.92 1.84,63.03 1.84,67.93 1.83,72.83 1.22,77.11 1.84,81.4 1.84,84.45 1.84,87.52 1.83,90.58 1.84,91.8 1.83,93.63 1.23,94.25 1.83,94.86 1.84,94.86 1.83,93.64 1.84,92.41 1.84,91.19 1.83,88.12 1.22,86.3 1.84,82.62 1.84,78.95 1.83,74.66 1.84,70.38 1.83,65.48 1.84,60.59 1.23,54.47 1.83,48.96 1.84,43.45 1.83,36.72 1.84,30.6 1.84,23.87 1.83,17.14 1.84,11.01 1.22,3.67 1.84,-2.45 1.83,-9.18 1.84,-15.91 1.84,-22.03 1.83,-28.76 1.84,-34.28 1.22,-40.39 1.84,-45.9 1.84,-50.8 1.83,-55.69 1.84,-60.58 1.83,-64.87 1.84,-68.55 1.22,-71.6 1.84,-74.67 1.83,-77.72 1.84,-79.56 1.84,-80.79 1.83,-82.61 1.84,-82.63 1.22,-83.23 1.84,-82.62 1.84,-82 1.83,-81.4 1.84,-78.95 1.83,-77.11 1.84,-75.28 1.84,-71.6 1.22,-68.55 1.83,-64.87 1.84,-61.2 1.84,-56.3 1.83,-52.02 1.84,-47.13 1.83,-42.22 1.23,-36.72 1.83,-31.22 1.84,-25.7 1.84,-20.2 1.83,-14.07 1.84,-8.57 1.84,-2.45 1.22,3.06 1.83,9.18 1.84,14.69 1.84,20.2 1.83,25.7 1.84,30.6 1.83,36.11 1.23,40.39 1.83,45.29 1.84,48.96 1.83,53.24 1.84,56.92 1.84,59.97 1.83,63.04 1.84,65.48 1.23,67.32 1.83,69.16 1.84,70.99 1.83,70.99 1.84,72.22 1.83,72.22 1.84,71.6 1.22,70.99 1.84,70.38 1.84,67.93 1.83,66.71 1.84,64.26 1.83,61.81 1.84,59.37 1.23,55.69 1.83,52.02 1.84,48.35 1.83,44.06 1.84,40.39 1.84,35.5 1.83,31.21 1.22,26.32 1.84,21.42 1.84,16.52 1.83,11.63 1.84,6.12 1.83,1.23 1.84,-3.07 1.84,-8.56 1.22,-13.47 1.84,-18.36 1.83,-22.64 1.84,-27.54 1.84,-31.21 1.83,-35.5 1.84,-39.78 1.22,-42.84 1.84,-46.51 1.83,-48.96 1.84,-52.02 1.83,-54.47 1.84,-56.91 1.84,-58.15 1.22,-59.36 1.84,-61.2 1.83,-61.2 1.84,-61.81 1.84,-61.81 1.83,-61.81 1.84,-60.59 1.22,-59.98 1.84,-58.14 1.83,-56.92 1.84,-55.08 1.83,-52.63 1.84,-49.57 1.84,-47.74 1.83,-44.06 1.22,-40.39 1.84,-37.95 1.84,-33.65 1.83,-29.38 1.84,-26.32 1.83,-21.42 1.84,-17.75 1.23,-13.46 1.83,-9.18 1.84,-4.9 1.83,-0.61 1.84,3.67 1.84,7.96 1.83,12.24 1.23,15.91 1.83,20.2 1.84,23.86 1.83,27.55 1.84,30.59 1.84,34.28 1.83,36.72 1.23,39.78 1.83,42.84 1.84,44.06 1.84,47.13 1.83,48.34 1.84,49.58 1.83,50.79 1.84,52.02 1.22,52.02 1.84,52.63 1.83,52.64 1.84,52.01 1.84,51.41 1.83,50.8 1.84,48.96 1.22,47.74 1.84,46.51 1.84,44.06 1.83,42.23 1.84,39.17 1.83,37.33 1.84,34.27 1.22,30.6 1.84,28.16 1.83,25.09 1.84,21.42 1.84,17.74 1.83,14.08 1.84,11.02 1.83,6.73 1.23,3.67 1.83,0 1.84,-3.67 1.83,-7.35 1.84,-11.01 1.84,-14.08 1.84,-17.13 1.22,-20.81 1.83,-23.26 1.84,-26.31 1.84,-29.38 1.83,-31.21 1.84,-34.28 1.83,-35.49 1.23,-37.94 1.83,-39.78 1.84,-40.39 1.83,-42.24 1.84,-42.83 1.84,-43.45 1.83,-44.07 1.23,-44.06 1.84,-44.07 1.83,-44.06 1.84,-42.84 1.83,-42.23 1.84,-41 1.83,-40.4 1.84,-38.55 1.22,-36.72 1.84,-34.89 1.84,-32.43 1.83,-30.6 1.84,-28.15 1.83,-25.71 1.84,-23.26 1.23,-20.19 1.83,-17.14 1.84,-14.68 1.83,-11.63 1.84,-8.57 1.84,-5.51 1.83,-2.45 1.22,0.62 1.84,3.67 1.84,6.73 1.83,9.18 1.84,12.24 1.83,15.3 1.84,17.14 1.23,20.19 1.83,22.03 1.84,25.1 1.83,26.31 1.84,28.77 1.84,29.98 1.83,31.83 1.84,33.05 1.22,33.66 1.84,35.49 1.83,35.5 1.84,36.11 1.83,36.72 1.84,36.71 1.84,36.73 1.22,36.1 1.83,35.5 1.84,34.89 1.84,34.27 1.84,33.05 1.83,31.21 1.84,30.59 1.22,28.77 1.84,26.93 1.83,24.48 1.84,23.25 1.83,20.81 1.84,18.98 1.84,16.52 1.22,13.46 1.83,11.63 1.84,9.18 1.84,6.73 1.83,4.29 1.84,1.83 1.83,-1.22 1.84,-3.06 1.23,-6.12 1.83,-7.96 1.84,-10.4 1.83,-12.85 1.84,-14.69 1.84,-16.52 1.83,-18.98 1.23,-20.81 1.83,-22.03 1.84,-23.86 1.83,-24.48 1.84,-26.32 1.84,-27.54 1.83,-28.15 1.23,-28.77 1.83,-29.99 1.84,-29.37 1.84,-29.99 1.83,-30.6 1.84,-29.99 1.83,-29.37 1.23,-29.38 1.83,-28.15 1.84,-28.15 1.83,-26.93 1.84,-25.71 1.84,-24.48 1.83,-23.25 1.84,-22.03 1.22,-20.2 1.84,-18.36 1.84,-17.14 1.83,-14.69 1.84,-13.46 1.83,-11.02 1.84,-9.18 1.22,-6.73 1.84,-5.5 1.83,-3.06 1.84,-0.62 1.84,0.62 1.83,3.06 1.84,4.89 1.22,7.34 1.84,8.58 1.84,11.01 1.83,12.24 1.84,13.46 1.83,15.92 1.84,17.13 1.22,17.75 1.84,19.58 1.83,20.81 1.84,21.42 1.84,22.03 1.83,23.26 1.84,23.87 1.83,23.87 1.23,24.48 1.83,24.48 1.84,24.47 1.83,23.88 1.84,24.48 1.84,23.25 1.83,23.26 1.23,22.64 1.84,21.42 1.83,20.81 1.84,19.58 1.83,18.97 1.84,17.14 1.83,16.52 1.23,14.69 1.83,13.47 1.84,11.62 1.84,10.41 1.83,9.18 1.84,6.73 1.83,5.51 1.84,4.28 1.23,1.84 1.83,0.61 1.84,-1.22 1.83,-2.45 1.84,-4.28 1.84,-6.12 1.83,-7.35 1.22,-8.57 1.84,-10.4 1.84,-11.02 1.83,-12.85 1.84,-14.08 1.83,-14.68 1.84,-15.91 1.23,-16.53 1.83,-17.75 1.84,-17.75 1.83,-18.97 1.84,-18.97 1.84,-18.97 1.83,-19.59 1.22,-19.58 1.84,-20.2 1.84,-18.97 1.83,-19.58 1.84,-18.97 1.83,-18.36 1.84,-17.75 1.84,-17.75 1.22,-16.53 1.83,-15.29 1.84,-15.3 1.84,-13.47 1.83,-12.85 1.84,-11.63 1.84,-10.4 1.22,-9.79 1.84,-7.96 1.83,-6.73 1.84,-5.51 1.83,-4.28 1.84,-3.06 1.84,-1.23 1.22,-0.61 1.83,1.22 1.84,2.45 1.84,3.68 1.83,4.89 1.84,6.12 1.83,7.34 1.23,7.96 1.84,9.18 1.83,10.4 1.84,11.02 1.83,12.24 1.84,12.85 1.84,13.47 1.83,13.46 1.23,14.69 1.83,14.69 1.84,15.29 1.83,15.92 1.84,15.3 1.84,15.91 1.83,15.3 1.23,15.3 1.83,15.3 1.84,15.3 1.84,14.69 1.83,14.07 1.84,13.47 1.83,12.85 1.23,12.85 1.83,11.63 1.84,10.4 1.83,10.41 1.84,9.18 1.84,7.95 1.83,7.35 1.23,6.12 1.83,5.51 1.84,3.67 1.84,3.67 1.83,1.84 1.84,1.22 1.83,0 1.84,-1.22 1.22,-1.84 1.84,-3.06 1.83,-4.28 1.84,-4.9 1.84,-5.51 1.83,-6.73 1.84,-7.35 1.22,-8.56 1.84,-8.57 1.83,-9.79 1.84,-9.79 1.84,-11.02 1.83,-11.02 1.84,-11.62 1.22,-11.63 1.84,-11.63 1.83,-12.24 1.84,-12.24 1.84,-12.24 1.83,-12.24 1.84,-12.24 1.22,-12.24 1.84,-11.63 1.83,-11.63 1.84,-11.01 1.83,-10.41 1.84,-10.4 1.84,-9.18 1.83,-9.18 1.23,-8.57 1.84,-7.95 1.83,-6.73 1.84,-6.13 1.83,-5.5 1.84,-4.9 1.83,-4.28 1.23,-3.06 1.83,-2.45 1.84,-1.23 1.84,-0.61 1.83,0 1.84,0.61 1.83,1.84 1.23,2.45 1.84,3.06 1.83,4.28 1.84,4.9 1.83,4.89 1.84,6.13 1.84,6.11 1.22,7.35 1.83,7.34 1.84,7.96 1.84,8.57 1.83,8.56 1.84,9.18 1.83,9.18 1.84,9.18 1.23,9.8 1.83,9.18 1.84,9.79 1.83,9.18 1.84,9.79 1.84,9.18 1.83,9.18 1.22,8.57 1.84,8.57 1.84,7.95 1.83,7.96 1.84,7.34 1.83,7.34 1.84,6.13 1.22,6.12 1.84,5.5 1.83,4.29 1.84,4.28 1.84,3.67 1.84,3.07 1.83,2.44 1.22,1.84 1.84,1.22 3.67,0 1.84,-0.61 1.83,-1.84 1.84,-1.83 1.84,-2.45 1.22,-3.06 1.83,-3.67 1.84,-4.29 1.84,-4.89 1.83,-4.9 1.84,-5.51 1.83,-6.11 1.23,-6.13 1.84,-6.12 1.83,-6.73 1.84,-7.34 1.83,-6.74 1.84,-7.34 1.84,-7.34 1.22,-7.35 1.84,-7.34 1.83,-7.34 1.84,-7.35 1.83,-6.73 1.84,-7.35 1.84,-6.73 1.83,-6.12 1.23,-6.73 1.83,-5.51 1.84,-6.12 1.84,-4.89 1.83,-4.9 1.84,-4.28 1.83,-4.29 1.23,-3.67 1.83,-3.06 1.84,-3.06 1.83,-1.84 1.84,-1.83 1.84,-1.22 1.83,-0.62 1.23,-0.61 1.83,0.61 1.84,0.62 1.84,1.22 1.83,1.23 1.84,2.44 1.83,2.45 1.23,2.45 1.83,3.67 1.84,3.67 1.83,3.67 1.84,4.29 1.84,4.28 1.83,4.9 1.84,4.89 1.22,5.51 1.84,4.9 1.83,5.5 1.84,5.51 1.84,5.51 1.83,5.51 1.84,6.12 1.22,5.51 1.84,5.5 1.83,4.9 1.84,5.51 1.84,4.9 1.83,4.89 1.84,4.9 1.22,4.28 1.84,4.28 1.83,4.29 1.84,3.67 1.83,3.06 1.84,3.06 1.84,3.06 1.22,1.84 1.84,2.45 1.84,1.22 1.83,1.23 1.84,1.22 1.83,0.61 1.84,0 1.83,-0.61 1.23,-0.61 1.83,-0.61 1.84,-1.23 1.84,-1.84 1.83,-1.83 1.84,-1.84 1.83,-3.06 1.23,-2.45 1.84,-3.05 1.83,-3.07 1.84,-3.67 1.83,-3.67 1.84,-3.67 1.84,-3.67 1.22,-4.29 1.83,-4.28 1.84,-3.67 1.84,-4.29 1.83,-4.28 1.84,-4.28 1.83,-4.29 1.23,-4.29 1.84,-3.67 1.83,-4.28 1.84,-3.67 1.83,-3.68 1.84,-3.67 1.84,-3.06 1.83,-3.05 1.22,-3.07 1.84,-2.44 1.84,-2.45 1.83,-2.45 1.84,-1.84 1.83,-1.83 1.84,-1.23 1.22,-1.22 1.84,-1.22 1.83,-0.61 5.52,0 1.83,0.61 1.22,0.61 1.84,1.22 1.84,1.23 1.83,1.22 1.84,1.84 1.83,1.83 1.84,1.84 1.22,2.45 1.84,2.44 1.83,2.45 1.84,3.06 1.84,2.45 1.83,3.06 1.84,3.06 1.83,3.06 1.23,3.06 1.84,3.06 1.83,3.06 1.84,3.06 1.83,3.06 1.84,3.06 1.84,3.06 1.22,3.06 1.84,3.06 1.83,2.45 1.84,2.45 1.83,2.44 1.84,2.45 1.84,2.45 1.22,1.84 1.84,1.83 1.83,1.23 1.84,1.83 1.84,1.23 1.83,1.22 1.84,0.61 1.22,0.61 1.84,0.62 5.5,0 1.84,-0.62 1.84,-0.61 1.83,-0.61 1.23,-1.22 1.83,-0.62 1.84,-1.83 1.84,-1.22 1.83,-1.23 1.84,-1.84 1.83,-1.83 1.23,-1.84 1.83,-2.45 1.84,-1.83 1.83,-2.45 1.84,-1.84 1.84,-2.44 1.83,-2.45 1.22,-1.84 1.84,-2.44 1.84,-2.45 1.83,-2.45 1.84,-1.84 1.83,-2.44 1.84,-1.84 1.23,-2.45 1.83,-1.84 1.84,-1.83 1.83,-1.84 1.84,-1.83 1.84,-1.23 1.83,-1.84 1.84,-1.22 1.22,-1.22 1.84,-0.61 1.83,-1.23 1.84,-0.61 1.83,-0.61 1.84,-0.61 8.57,0 1.84,0.61 1.83,0.61 1.84,0.61 1.22,1.23 1.84,0.61 1.83,1.22 1.84,1.22 1.84,1.23 1.83,1.22 1.84,1.23 1.83,1.84 1.23,1.22 1.84,1.83 1.83,1.23 1.84,1.83 1.83,1.84 1.84,1.83 1.84,1.23 1.22,1.84 1.83,1.83 1.84,1.23 1.84,1.83 1.83,1.84 1.84,1.22 1.83,1.23 1.23,1.83 1.84,1.23 1.83,1.22 1.84,1.22 1.83,0.61 1.84,1.23 1.84,0.61 1.22,0.61 1.83,0.62 1.84,0.61 1.84,0.61 1.83,0 1.84,0.61 3.67,0 1.22,-0.61 3.67,0 1.84,-0.61 1.84,-0.61 1.84,-0.62 1.83,-0.61 1.22,-0.61 1.84,-1.23 1.84,-0.61 1.83,-1.22 1.84,-1.22 1.83,-0.62 1.84,-1.22 1.22,-1.22 1.84,-1.23 1.83,-1.22 1.84,-1.22 1.84,-1.23 1.83,-1.22 1.84,-1.23 1.23,-1.22 1.83,-1.23 1.84,-1.22 1.83,-0.61 1.84,-1.22 1.83,-1.23 1.84,-0.61 1.84,-1.23 1.22,-0.61 1.84,-1.22 1.83,-0.61 1.84,-0.62 1.83,-0.61 1.84,-0.61 1.84,0 1.22,-0.61 1.84,0 1.83,-0.61 7.35,0 1.22,0.61 3.67,0 1.84,0.61 1.83,0.61 1.84,0.61 1.84,0.62 1.22,0.61 1.84,0.61 1.83,0.61 1.84,0.61 1.84,0.62 1.83,1.22 1.84,0.61 1.83,0.62 1.23,1.22 1.83,0.61 1.84,1.22 1.83,0.62 1.84,0.61 1.84,1.22 1.83,0.61 1.22,0.62 1.84,1.22 1.84,0.61 1.83,0.62 1.84,0.6 1.83,0.62 1.84,0.61 1.23,0.61 1.83,0.61 1.84,0.62 1.83,0 1.84,0.61 1.84,0 1.83,0.61 3.06,0 1.84,0.61 3.67,0 1.83,-0.61 3.68,0 1.22,-0.61 1.84,0 1.84,-0.61 1.83,0 1.84,-0.62 1.83,0 1.84,-0.61 1.22,-0.61 1.84,-0.61 1.83,-0.62 1.84,-0.6 1.84,-0.62 1.83,-0.61 1.84,-0.61 1.22,-0.61 1.84,-0.62 1.84,-0.61 1.83,-0.61 1.84,-0.61 1.83,-0.61 1.84,0 1.22,-0.62 1.84,-0.61 1.83,-0.61 1.84,-0.61 1.84,-0.62 1.83,0 1.84,-0.6 1.83,0 1.23,-0.62 1.84,0 1.83,-0.61 3.67,0 1.84,-0.61 10.4,0 1.84,0.61 3.06,0 1.83,0.61 1.84,0 1.83,0.62 1.84,0 1.84,0.6 1.84,0 1.83,0.62 1.22,0 1.84,0.61 1.84,0.61 1.83,0 1.84,0.61 1.83,0.62 1.84,0 1.22,0.61 1.84,0.61 1.83,0.61 1.84,0 1.84,0.61 1.83,0 1.84,0.62 1.23,0.61 1.83,0 1.84,0.61 1.83,0 1.84,0.61 3.67,0 1.22,0.62 7.35,0 1.83,0.6 4.9,0 1.84,-0.6 7.34,0 1.84,-0.62 3.06,0 1.83,-0.61 3.67,0 1.84,-0.61 1.84,0 1.22,-0.61 1.84,0 1.83,-0.62 1.84,0 1.84,-0.61 3.67,0 1.22,-0.61 1.84,0 1.83,-0.61 1.84,0 1.83,-0.61 1.84,0 1.84,-0.62 3.05,0 1.84,-0.61 5.51,0 1.84,-0.61 22.64,0 1.83,0.61 4.9,0 1.84,0.61 5.51,0 1.83,0.62 3.06,0 1.84,0.61 3.67,0 1.84,0.61 3.67,0 1.22,0.61 5.51,0 1.84,0.61 4.89,0 1.84,0.62 14.08,0 1.83,0.61 1.84,0 1.83,-0.61 14.08,0 1.83,-0.62 8.57,0 1.84,-0.61 4.89,0 1.84,-0.61 7.34,0 1.23,-0.61 7.34,0 1.84,-0.61 40.39,0 1.22,0.61 11.02,0 1.84,0.61 10.4,0 1.84,0.61 18.97,0 1.84,0.61 10.4,0 1.83,-0.61 22.65,0 1.84,-0.61 17.74,0 1.84,-0.61 47.12,0 1.84,0.61 29.37,0 1.84,0.61 31.82,0 1.84,-0.61 553.25,0"
         style="fill:none;stroke:#000000;stroke-width:9.18000031;stroke-linecap:butt;stroke-linejoin:miter;stroke-miterlimit:10;stroke-dasharray:none;stroke-opacity:1"
         id="path16"
         inkscape:connector-curvature="0" /><path
         d="m 562,532 7006.79,0"
         style="fill:none;stroke:#000000;stroke-width:9.18000031;stroke-linecap:butt;stroke-linejoin:miter;stroke-miterlimit:10;stroke-dasharray:none;stroke-opacity:1"
         id="path18"
         inkscape:connector-curvature="0" /><path
         d="m 562,5734 7006.79,0"
         style="fill:none;stroke:#000000;stroke-width:9.18000031;stroke-linecap:butt;stroke-linejoin:miter;stroke-miterlimit:10;stroke-dasharray:none;stroke-opacity:1"
         id="path20"
         inkscape:connector-curvature="0" /><path
         d="m 1437.77,532 0,61.199"
         style="fill:none;stroke:#000000;stroke-width:9.18000031;stroke-linecap:butt;stroke-linejoin:miter;stroke-miterlimit:10;stroke-dasharray:none;stroke-opacity:1"
         id="path22"
         inkscape:connector-curvature="0" /><path
         d="m 1437.77,5734 0,-61.2"
         style="fill:none;stroke:#000000;stroke-width:9.18000031;stroke-linecap:butt;stroke-linejoin:miter;stroke-miterlimit:10;stroke-dasharray:none;stroke-opacity:1"
         id="path24"
         inkscape:connector-curvature="0" /><path
         d="m 3189.32,532 0,61.199"
         style="fill:none;stroke:#000000;stroke-width:9.18000031;stroke-linecap:butt;stroke-linejoin:miter;stroke-miterlimit:10;stroke-dasharray:none;stroke-opacity:1"
         id="path26"
         inkscape:connector-curvature="0" /><path
         d="m 3189.32,5734 0,-61.2"
         style="fill:none;stroke:#000000;stroke-width:9.18000031;stroke-linecap:butt;stroke-linejoin:miter;stroke-miterlimit:10;stroke-dasharray:none;stroke-opacity:1"
         id="path28"
         inkscape:connector-curvature="0" /><path
         d="m 4941.47,532 0,61.199"
         style="fill:none;stroke:#000000;stroke-width:9.18000031;stroke-linecap:butt;stroke-linejoin:miter;stroke-miterlimit:10;stroke-dasharray:none;stroke-opacity:1"
         id="path30"
         inkscape:connector-curvature="0" /><path
         d="m 4941.47,5734 0,-61.2"
         style="fill:none;stroke:#000000;stroke-width:9.18000031;stroke-linecap:butt;stroke-linejoin:miter;stroke-miterlimit:10;stroke-dasharray:none;stroke-opacity:1"
         id="path32"
         inkscape:connector-curvature="0" /><path
         d="m 6693.02,532 0,61.199"
         style="fill:none;stroke:#000000;stroke-width:9.18000031;stroke-linecap:butt;stroke-linejoin:miter;stroke-miterlimit:10;stroke-dasharray:none;stroke-opacity:1"
         id="path34"
         inkscape:connector-curvature="0" /><path
         d="m 6693.02,5734 0,-61.2"
         style="fill:none;stroke:#000000;stroke-width:9.18000031;stroke-linecap:butt;stroke-linejoin:miter;stroke-miterlimit:10;stroke-dasharray:none;stroke-opacity:1"
         id="path36"
         inkscape:connector-curvature="0" /><path
         d="m 562,532 0,122.398"
         style="fill:none;stroke:#000000;stroke-width:9.18000031;stroke-linecap:butt;stroke-linejoin:miter;stroke-miterlimit:10;stroke-dasharray:none;stroke-opacity:1"
         id="path38"
         inkscape:connector-curvature="0" /><path
         d="m 562,5734 0,-122.4"
         style="fill:none;stroke:#000000;stroke-width:9.18000031;stroke-linecap:butt;stroke-linejoin:miter;stroke-miterlimit:10;stroke-dasharray:none;stroke-opacity:1"
         id="path40"
         inkscape:connector-curvature="0" /><path
         d="m 2313.54,532 0,122.398"
         style="fill:none;stroke:#000000;stroke-width:9.18000031;stroke-linecap:butt;stroke-linejoin:miter;stroke-miterlimit:10;stroke-dasharray:none;stroke-opacity:1"
         id="path42"
         inkscape:connector-curvature="0" /><path
         d="m 2313.54,5734 0,-122.4"
         style="fill:none;stroke:#000000;stroke-width:9.18000031;stroke-linecap:butt;stroke-linejoin:miter;stroke-miterlimit:10;stroke-dasharray:none;stroke-opacity:1"
         id="path44"
         inkscape:connector-curvature="0" /><path
         d="m 4065.7,532 0,122.398"
         style="fill:none;stroke:#000000;stroke-width:9.18000031;stroke-linecap:butt;stroke-linejoin:miter;stroke-miterlimit:10;stroke-dasharray:none;stroke-opacity:1"
         id="path46"
         inkscape:connector-curvature="0" /><path
         d="m 4065.7,5734 0,-122.4"
         style="fill:none;stroke:#000000;stroke-width:9.18000031;stroke-linecap:butt;stroke-linejoin:miter;stroke-miterlimit:10;stroke-dasharray:none;stroke-opacity:1"
         id="path48"
         inkscape:connector-curvature="0" /><path
         d="m 5817.25,532 0,122.398"
         style="fill:none;stroke:#000000;stroke-width:9.18000031;stroke-linecap:butt;stroke-linejoin:miter;stroke-miterlimit:10;stroke-dasharray:none;stroke-opacity:1"
         id="path50"
         inkscape:connector-curvature="0" /><path
         d="m 5817.25,5734 0,-122.4"
         style="fill:none;stroke:#000000;stroke-width:9.18000031;stroke-linecap:butt;stroke-linejoin:miter;stroke-miterlimit:10;stroke-dasharray:none;stroke-opacity:1"
         id="path52"
         inkscape:connector-curvature="0" /><path
         d="m 7568.79,532 0,122.398"
         style="fill:none;stroke:#000000;stroke-width:9.18000031;stroke-linecap:butt;stroke-linejoin:miter;stroke-miterlimit:10;stroke-dasharray:none;stroke-opacity:1"
         id="path54"
         inkscape:connector-curvature="0" /><path
         d="m 7568.79,5734 0,-122.4"
         style="fill:none;stroke:#000000;stroke-width:9.18000031;stroke-linecap:butt;stroke-linejoin:miter;stroke-miterlimit:10;stroke-dasharray:none;stroke-opacity:1"
         id="path56"
         inkscape:connector-curvature="0" /><g
         id="g58"
         transform="scale(10,10)"><text
           transform="matrix(1,0,0,-1,50.8145,31.9637)"
           style="font-variant:normal;font-weight:normal;font-size:21.42000008px;font-family:Helvetica;-inkscape-font-specification:Helvetica;writing-mode:lr-tb;fill:#000000;fill-opacity:1;fill-rule:nonzero;stroke:none"
           id="text60"><tspan
             x="0 166.15773 178.06725 184.022 352.02228 516.46686 528.37634 534.33112 700.55634"
             y="0"
             sodipodi:role="line"
             id="tspan62">00.511.52</tspan></text>
<text
           transform="matrix(1,0,0,-1,353.2645,6.627)"
           style="font-variant:normal;font-weight:normal;font-size:25.70400047px;font-family:Helvetica;-inkscape-font-specification:Helvetica;writing-mode:lr-tb;fill:#000000;fill-opacity:1;fill-rule:nonzero;stroke:none"
           id="text64"><tspan
             x="0 15.705144 21.411432 42.822865 57.114288 64.260002 72.819435 87.110855 99.962852"
             y="0"
             sodipodi:role="line"
             id="tspan66">Time (ps)</tspan></text>
</g><path
         d="m 562,532 0,5202"
         style="fill:none;stroke:#000000;stroke-width:9.18000031;stroke-linecap:butt;stroke-linejoin:miter;stroke-miterlimit:10;stroke-dasharray:none;stroke-opacity:1"
         id="path68"
         inkscape:connector-curvature="0" /><path
         d="m 7568.79,532 0,5202"
         style="fill:none;stroke:#000000;stroke-width:9.18000031;stroke-linecap:butt;stroke-linejoin:miter;stroke-miterlimit:10;stroke-dasharray:none;stroke-opacity:1"
         id="path70"
         inkscape:connector-curvature="0" /><path
         d="m 562,1182.55 61.199,0"
         style="fill:none;stroke:#000000;stroke-width:9.18000031;stroke-linecap:butt;stroke-linejoin:miter;stroke-miterlimit:10;stroke-dasharray:none;stroke-opacity:1"
         id="path72"
         inkscape:connector-curvature="0" /><path
         d="m 7568.79,1182.55 -61.2,0"
         style="fill:none;stroke:#000000;stroke-width:9.18000031;stroke-linecap:butt;stroke-linejoin:miter;stroke-miterlimit:10;stroke-dasharray:none;stroke-opacity:1"
         id="path74"
         inkscape:connector-curvature="0" /><path
         d="m 562,2483.05 61.199,0"
         style="fill:none;stroke:#000000;stroke-width:9.18000031;stroke-linecap:butt;stroke-linejoin:miter;stroke-miterlimit:10;stroke-dasharray:none;stroke-opacity:1"
         id="path76"
         inkscape:connector-curvature="0" /><path
         d="m 7568.79,2483.05 -61.2,0"
         style="fill:none;stroke:#000000;stroke-width:9.18000031;stroke-linecap:butt;stroke-linejoin:miter;stroke-miterlimit:10;stroke-dasharray:none;stroke-opacity:1"
         id="path78"
         inkscape:connector-curvature="0" /><path
         d="m 562,3782.95 61.199,0"
         style="fill:none;stroke:#000000;stroke-width:9.18000031;stroke-linecap:butt;stroke-linejoin:miter;stroke-miterlimit:10;stroke-dasharray:none;stroke-opacity:1"
         id="path80"
         inkscape:connector-curvature="0" /><path
         d="m 7568.79,3782.95 -61.2,0"
         style="fill:none;stroke:#000000;stroke-width:9.18000031;stroke-linecap:butt;stroke-linejoin:miter;stroke-miterlimit:10;stroke-dasharray:none;stroke-opacity:1"
         id="path82"
         inkscape:connector-curvature="0" /><path
         d="m 562,5084.05 61.199,0"
         style="fill:none;stroke:#000000;stroke-width:9.18000031;stroke-linecap:butt;stroke-linejoin:miter;stroke-miterlimit:10;stroke-dasharray:none;stroke-opacity:1"
         id="path84"
         inkscape:connector-curvature="0" /><path
         d="m 7568.79,5084.05 -61.2,0"
         style="fill:none;stroke:#000000;stroke-width:9.18000031;stroke-linecap:butt;stroke-linejoin:miter;stroke-miterlimit:10;stroke-dasharray:none;stroke-opacity:1"
         id="path86"
         inkscape:connector-curvature="0" /><path
         d="m 562,532 122.398,0"
         style="fill:none;stroke:#000000;stroke-width:9.18000031;stroke-linecap:butt;stroke-linejoin:miter;stroke-miterlimit:10;stroke-dasharray:none;stroke-opacity:1"
         id="path88"
         inkscape:connector-curvature="0" /><path
         d="m 7568.79,532 -122.4,0"
         style="fill:none;stroke:#000000;stroke-width:9.18000031;stroke-linecap:butt;stroke-linejoin:miter;stroke-miterlimit:10;stroke-dasharray:none;stroke-opacity:1"
         id="path90"
         inkscape:connector-curvature="0" /><path
         d="m 562,1832.5 122.398,0"
         style="fill:none;stroke:#000000;stroke-width:9.18000031;stroke-linecap:butt;stroke-linejoin:miter;stroke-miterlimit:10;stroke-dasharray:none;stroke-opacity:1"
         id="path92"
         inkscape:connector-curvature="0" /><path
         d="m 7568.79,1832.5 -122.4,0"
         style="fill:none;stroke:#000000;stroke-width:9.18000031;stroke-linecap:butt;stroke-linejoin:miter;stroke-miterlimit:10;stroke-dasharray:none;stroke-opacity:1"
         id="path94"
         inkscape:connector-curvature="0" /><path
         d="m 562,3133 122.398,0"
         style="fill:none;stroke:#000000;stroke-width:9.18000031;stroke-linecap:butt;stroke-linejoin:miter;stroke-miterlimit:10;stroke-dasharray:none;stroke-opacity:1"
         id="path96"
         inkscape:connector-curvature="0" /><path
         d="m 7568.79,3133 -122.4,0"
         style="fill:none;stroke:#000000;stroke-width:9.18000031;stroke-linecap:butt;stroke-linejoin:miter;stroke-miterlimit:10;stroke-dasharray:none;stroke-opacity:1"
         id="path98"
         inkscape:connector-curvature="0" /><path
         d="m 562,4433.5 122.398,0"
         style="fill:none;stroke:#000000;stroke-width:9.18000031;stroke-linecap:butt;stroke-linejoin:miter;stroke-miterlimit:10;stroke-dasharray:none;stroke-opacity:1"
         id="path100"
         inkscape:connector-curvature="0" /><path
         d="m 7568.79,4433.5 -122.4,0"
         style="fill:none;stroke:#000000;stroke-width:9.18000031;stroke-linecap:butt;stroke-linejoin:miter;stroke-miterlimit:10;stroke-dasharray:none;stroke-opacity:1"
         id="path102"
         inkscape:connector-curvature="0" /><path
         d="m 562,5734 122.398,0"
         style="fill:none;stroke:#000000;stroke-width:9.18000031;stroke-linecap:butt;stroke-linejoin:miter;stroke-miterlimit:10;stroke-dasharray:none;stroke-opacity:1"
         id="path104"
         inkscape:connector-curvature="0" /><path
         d="m 7568.79,5734 -122.4,0"
         style="fill:none;stroke:#000000;stroke-width:9.18000031;stroke-linecap:butt;stroke-linejoin:miter;stroke-miterlimit:10;stroke-dasharray:none;stroke-opacity:1"
         id="path106"
         inkscape:connector-curvature="0" /><g
         id="g108"
         transform="scale(10,10)"><text
           transform="matrix(1,0,0,-1,31.8426,45.7336)"
           style="font-variant:normal;font-weight:normal;font-size:21.42000008px;font-family:Helvetica;-inkscape-font-specification:Helvetica;writing-mode:lr-tb;fill:#000000;fill-opacity:1;fill-rule:nonzero;stroke:none"
           id="text110"><tspan
             x="0 7.1328602"
             y="0"
             sodipodi:role="line"
             id="tspan112">-2</tspan><tspan
             x="3.6105499 10.74341"
             y="-129.92799"
             sodipodi:role="line"
             id="tspan114">-1</tspan><tspan
             x="7.4664102"
             y="-260.22299"
             id="tspan116">0</tspan><tspan
             x="10.7711"
             y="-390.02802"
             id="tspan118">1</tspan><tspan
             x="7.2214899"
             y="-520.20001"
             id="tspan120">2</tspan></text>
<text
           transform="matrix(0,1,1,0,20.2145,202.895)"
           style="font-variant:normal;font-weight:normal;font-size:25.70400047px;font-family:Helvetica;-inkscape-font-specification:Helvetica;writing-mode:lr-tb;fill:#000000;fill-opacity:1;fill-rule:nonzero;stroke:none"
           id="text122"><tspan
             x="0 17.144567 22.850857 37.142281 49.994282 57.139992 65.699425 71.405708 84.257713 91.403427 98.549133 104.25542 118.54684 124.25314 138.54456 145.69028 154.24971 171.39427 178.53998 192.83141 214.24284"
             y="0"
             sodipodi:role="line"
             id="tspan124">Electric field (V/nm)</tspan></text>
</g><path
         d="m 562,532 7006.79,0 0,5202 -7006.79,0 0,-5202 z"
         style="fill:none;stroke:#000000;stroke-width:9.18000031;stroke-linecap:butt;stroke-linejoin:miter;stroke-miterlimit:10;stroke-dasharray:none;stroke-opacity:1"
         id="path126"
         inkscape:connector-curvature="0" /></g></g></svg>