<?xml version="1.0" encoding="UTF-8" standalone="no"?>
<!-- Created with Inkscape (http://www.inkscape.org/) -->

<svg
   xmlns:dc="http://purl.org/dc/elements/1.1/"
   xmlns:cc="http://creativecommons.org/ns#"
   xmlns:rdf="http://www.w3.org/1999/02/22-rdf-syntax-ns#"
   xmlns:svg="http://www.w3.org/2000/svg"
   xmlns="http://www.w3.org/2000/svg"
   xmlns:sodipodi="http://sodipodi.sourceforge.net/DTD/sodipodi-0.dtd"
   xmlns:inkscape="http://www.inkscape.org/namespaces/inkscape"
   id="svg2"
   version="1.1"
   inkscape:version="0.91 r13725"
   xml:space="preserve"
   width="322.5"
   height="341.25"
   viewBox="0 0 322.5 341.25"
   sodipodi:docname="free2.svg"><metadata
     id="metadata8"><rdf:RDF><cc:Work
         rdf:about=""><dc:format>image/svg+xml</dc:format><dc:type
           rdf:resource="http://purl.org/dc/dcmitype/StillImage" /><dc:title></dc:title></cc:Work></rdf:RDF></metadata><defs
     id="defs6" /><sodipodi:namedview
     pagecolor="#ffffff"
     bordercolor="#666666"
     borderopacity="1"
     objecttolerance="10"
     gridtolerance="10"
     guidetolerance="10"
     inkscape:pageopacity="0"
     inkscape:pageshadow="2"
     inkscape:window-width="760"
     inkscape:window-height="480"
     id="namedview4"
     showgrid="false"
     inkscape:zoom="0.69157509"
     inkscape:cx="161.25"
     inkscape:cy="170.625"
     inkscape:window-x="0"
     inkscape:window-y="25"
     inkscape:window-maximized="0"
     inkscape:current-layer="g10" /><g
     id="g10"
     inkscape:groupmode="layer"
     inkscape:label="ink_ext_XXXXXX"
     transform="matrix(0,1.25,1.25,0,0,0)"><g
       id="g12"
       transform="scale(0.1,0.1)"><g
         id="g14"
         transform="scale(10,10)"><text
           transform="matrix(0,1,1,0,147.56,50.5602)"
           style="font-variant:normal;font-weight:normal;font-size:14.39999962px;font-family:Helvetica;-inkscape-font-specification:Helvetica;writing-mode:lr-tb;fill:#000000;fill-opacity:1;fill-rule:nonzero;stroke:none"
           id="text16"><tspan
             x="0 11.2032"
             y="0"
             sodipodi:role="line"
             id="tspan18">G1</tspan></text>
<text
           transform="matrix(0,1,1,0,147.56,41.5602)"
           style="font-variant:normal;font-weight:normal;font-size:16.20000076px;font-family:Symbol;-inkscape-font-specification:Symbol;writing-mode:lr-tb;fill:#000000;fill-opacity:1;fill-rule:nonzero;stroke:none"
           id="text20"><tspan
             x="0 189.00053"
             y="0"
             sodipodi:role="line"
             id="tspan22">∆∆</tspan></text>
<text
           transform="matrix(0,1,1,0,147.56,239.5602)"
           style="font-variant:normal;font-weight:normal;font-size:14.39999962px;font-family:Helvetica;-inkscape-font-specification:Helvetica;writing-mode:lr-tb;fill:#000000;fill-opacity:1;fill-rule:nonzero;stroke:none"
           id="text24"><tspan
             x="0 11.2032"
             y="0"
             sodipodi:role="line"
             id="tspan26">G2</tspan></text>
<text
           transform="matrix(0,1,1,0,39.56,104.5602)"
           style="font-variant:normal;font-weight:normal;font-size:16.20000076px;font-family:Symbol;-inkscape-font-specification:Symbol;writing-mode:lr-tb;fill:#000000;fill-opacity:1;fill-rule:nonzero;stroke:none"
           id="text28"><tspan
             x="0"
             y="0"
             id="tspan30">∆</tspan></text>
<text
           transform="matrix(0,1,1,0,39.56,113.5602)"
           style="font-variant:normal;font-weight:normal;font-size:14.39999962px;font-family:Helvetica;-inkscape-font-specification:Helvetica;writing-mode:lr-tb;fill:#000000;fill-opacity:1;fill-rule:nonzero;stroke:none"
           id="text32"><tspan
             x="0 11.2032"
             y="0"
             sodipodi:role="line"
             id="tspan34">G3</tspan></text>
</g><path
         d="m 530,730 0,990"
         style="fill:none;stroke:#000000;stroke-width:18;stroke-linecap:butt;stroke-linejoin:miter;stroke-miterlimit:10;stroke-dasharray:none;stroke-opacity:1"
         id="path36"
         inkscape:connector-curvature="0" /><path
         d="m 476,1504 54,216 54,-216"
         style="fill:none;stroke:#000000;stroke-width:18;stroke-linecap:butt;stroke-linejoin:miter;stroke-miterlimit:10;stroke-dasharray:none;stroke-opacity:1"
         id="path38"
         inkscape:connector-curvature="0" /><path
         d="m 620,730 0,990"
         style="fill:none;stroke:#000000;stroke-width:18;stroke-linecap:butt;stroke-linejoin:miter;stroke-miterlimit:10;stroke-dasharray:none;stroke-opacity:1"
         id="path40"
         inkscape:connector-curvature="0" /><path
         d="M 674,946 620,730 566,946"
         style="fill:none;stroke:#000000;stroke-width:18;stroke-linecap:butt;stroke-linejoin:miter;stroke-miterlimit:10;stroke-dasharray:none;stroke-opacity:1"
         id="path42"
         inkscape:connector-curvature="0" /><path
         d="m 1115,325 765,0"
         style="fill:none;stroke:#000000;stroke-width:18;stroke-linecap:butt;stroke-linejoin:miter;stroke-miterlimit:10;stroke-dasharray:none;stroke-opacity:1"
         id="path44"
         inkscape:connector-curvature="0" /><path
         d="m 1664,379 216,-54 -216,-54"
         style="fill:none;stroke:#000000;stroke-width:18;stroke-linecap:butt;stroke-linejoin:miter;stroke-miterlimit:10;stroke-dasharray:none;stroke-opacity:1"
         id="path46"
         inkscape:connector-curvature="0" /><path
         d="m 1115,2125 810,0"
         style="fill:none;stroke:#000000;stroke-width:18;stroke-linecap:butt;stroke-linejoin:miter;stroke-miterlimit:10;stroke-dasharray:none;stroke-opacity:1"
         id="path48"
         inkscape:connector-curvature="0" /><path
         d="m 1331,2071 -216,54 216,54"
         style="fill:none;stroke:#000000;stroke-width:18;stroke-linecap:butt;stroke-linejoin:miter;stroke-miterlimit:10;stroke-dasharray:none;stroke-opacity:1"
         id="path50"
         inkscape:connector-curvature="0" /><path
         d="m 1115,2215 810,0"
         style="fill:none;stroke:#000000;stroke-width:18;stroke-linecap:butt;stroke-linejoin:miter;stroke-miterlimit:10;stroke-dasharray:none;stroke-opacity:1"
         id="path52"
         inkscape:connector-curvature="0" /><path
         d="m 1709,2269 216,-54 -216,-54"
         style="fill:none;stroke:#000000;stroke-width:18;stroke-linecap:butt;stroke-linejoin:miter;stroke-miterlimit:10;stroke-dasharray:none;stroke-opacity:1"
         id="path54"
         inkscape:connector-curvature="0" /><path
         d="m 1115,235 765,0"
         style="fill:none;stroke:#000000;stroke-width:18;stroke-linecap:butt;stroke-linejoin:miter;stroke-miterlimit:10;stroke-dasharray:none;stroke-opacity:1"
         id="path56"
         inkscape:connector-curvature="0" /><path
         d="m 1331,181 -216,54 216,54"
         style="fill:none;stroke:#000000;stroke-width:18;stroke-linecap:butt;stroke-linejoin:miter;stroke-miterlimit:10;stroke-dasharray:none;stroke-opacity:1"
         id="path58"
         inkscape:connector-curvature="0" /><path
         d="m 2330.6,730.602 0,989.998"
         style="fill:none;stroke:#000000;stroke-width:18;stroke-linecap:butt;stroke-linejoin:miter;stroke-miterlimit:10;stroke-dasharray:none;stroke-opacity:1"
         id="path60"
         inkscape:connector-curvature="0" /><path
         d="m 2276.6,1504.6 54,216 54,-216"
         style="fill:none;stroke:#000000;stroke-width:18;stroke-linecap:butt;stroke-linejoin:miter;stroke-miterlimit:10;stroke-dasharray:none;stroke-opacity:1"
         id="path62"
         inkscape:connector-curvature="0" /><path
         d="m 2420.6,730.602 0,989.998"
         style="fill:none;stroke:#000000;stroke-width:18;stroke-linecap:butt;stroke-linejoin:miter;stroke-miterlimit:10;stroke-dasharray:none;stroke-opacity:1"
         id="path64"
         inkscape:connector-curvature="0" /><path
         d="m 2474.6,946.602 -54,-216 -54,216"
         style="fill:none;stroke:#000000;stroke-width:18;stroke-linecap:butt;stroke-linejoin:miter;stroke-miterlimit:10;stroke-dasharray:none;stroke-opacity:1"
         id="path66"
         inkscape:connector-curvature="0" /><path
         d="m 2420.6,235.602 0,0 c 120,0 180,30 180,90 l 0,0 c 0,60 -60,90 -180,90 l 0,0 c -120,0 -210,15 -270,45 l 0,0 c -60,30 -105,15 -135,-45 l 0,0 c -30,-60 -30,-127.5 0,-202.5 l 0,0 c 30,-75 75,-90 135,-45 l 0,0 c 60,45 150,67.5 270,67.5 z"
         style="fill:none;stroke:#000000;stroke-width:4.5;stroke-linecap:butt;stroke-linejoin:miter;stroke-miterlimit:10;stroke-dasharray:none;stroke-opacity:1"
         id="path68"
         inkscape:connector-curvature="0" /><path
         d="m 2421.2,2036.2 0,0 c 120,0 180,30 180,90 l 0,0 c 0,60 -60,90 -180,90 l 0,0 c -120,0 -210,15 -270,45 l 0,0 c -60,30 -105,15 -135,-45 l 0,0 c -30,-60 -30,-127.5 0,-202.5 l 0,0 c 30,-75 75,-90 135,-45 l 0,0 c 60,45 150,67.5 270,67.5 z"
         style="fill:none;stroke:#000000;stroke-width:4.5;stroke-linecap:butt;stroke-linejoin:miter;stroke-miterlimit:10;stroke-dasharray:none;stroke-opacity:1"
         id="path70"
         inkscape:connector-curvature="0" /><path
         d="m 485.602,190 0,0 c 120,0 180,45 180,135 l 0,0 c 0,90 -60,135 -180,135 l 0,0 c -120,0 -180,30 -180,90 l 0,0 c 0,60 75,90 225,90 l 0,0 c 150,0 270,-15 360,-45 l 0,0 c 90,-30 134.998,-120 134.998,-270 l 0,0 C 1025.6,175 980.602,85 890.602,55 l 0,0 c -90,-30 -210,-45 -360,-45 l 0,0 c -150,0 -225,30 -225,90 l 0,0 c 0,60 60,90 180,90 z"
         style="fill:none;stroke:#000000;stroke-width:4.5;stroke-linecap:butt;stroke-linejoin:miter;stroke-miterlimit:10;stroke-dasharray:none;stroke-opacity:1"
         id="path72"
         inkscape:connector-curvature="0" /><path
         d="m 440.602,235 0,0 c 120,0 180,30 180,90 l 0,0 c 0,60 -60,90 -180,90 l 0,0 c -120,0 -210,15 -270,45 l 0,0 c -60,30 -105.0004,15 -135.0004,-45 l 0,0 c -30.00004,-60 -30.00004,-127.5 0,-202.5 l 0,0 c 30,-75 75.0004,-90 135.0004,-45 l 0,0 c 60,45 150,67.5 270,67.5 z"
         style="fill:none;stroke:#000000;stroke-width:4.5;stroke-linecap:butt;stroke-linejoin:miter;stroke-miterlimit:10;stroke-dasharray:none;stroke-opacity:1"
         id="path74"
         inkscape:connector-curvature="0" /><path
         d="m 486.199,1991.2 0,0 c 120,0 180,45 180,135 l 0,0 c 0,90 -60,135 -180,135 l 0,0 c -120,0 -180,30 -180,90 l 0,0 c 0,60 75,90 225,90 l 0,0 c 150,0 270,-15 360,-45 l 0,0 c 90,-30 135.001,-120 135.001,-270 l 0,0 c 0,-150 -45.001,-240 -135.001,-270 l 0,0 c -90,-30 -210,-45 -360,-45 l 0,0 c -150,0 -225,30 -225,90 l 0,0 c 0,60 60,90 180,90 z"
         style="fill:none;stroke:#000000;stroke-width:4.5;stroke-linecap:butt;stroke-linejoin:miter;stroke-miterlimit:10;stroke-dasharray:none;stroke-opacity:1"
         id="path76"
         inkscape:connector-curvature="0" /><path
         d="m 441.199,2036.2 0,0 c 120,0 180,30 180,90 l 0,0 c 0,60 -60,90 -180,90 l 0,0 c -120,0 -210,15 -270,45 l 0,0 c -60,30 -104.9998,15 -134.9998,-45 l 0,0 c -29.99998,-60 -29.99998,-127.5 0,-202.5 l 0,0 c 30,-75 74.9998,-90 134.9998,-45 l 0,0 c 60,45 150,67.5 270,67.5 z"
         style="fill:none;stroke:#000000;stroke-width:4.5;stroke-linecap:butt;stroke-linejoin:miter;stroke-miterlimit:10;stroke-dasharray:none;stroke-opacity:1"
         id="path78"
         inkscape:connector-curvature="0" /><g
         id="g80"
         transform="scale(10,10)"><text
           transform="matrix(0,1,1,0,219.56,28.0602)"
           style="font-variant:normal;font-weight:bold;font-size:14.39999962px;font-family:Helvetica;-inkscape-font-specification:Helvetica-Bold;writing-mode:lr-tb;fill:#000000;fill-opacity:1;fill-rule:nonzero;stroke:none"
           id="text82"><tspan
             x="0"
             y="0"
             id="tspan84">I</tspan><tspan
             x="180.06 184.0632"
             y="0.0597656"
             sodipodi:role="line"
             id="tspan86">I’</tspan><tspan
             x="-0.059999999"
             y="-130.50023"
             id="tspan88">E</tspan><tspan
             x="-0.059999999"
             y="-198.00023"
             id="tspan90">I</tspan><tspan
             x="180.06"
             y="-130.44043"
             id="tspan92">E</tspan><tspan
             x="180.06 184.0632"
             y="-197.94043"
             sodipodi:role="line"
             id="tspan94">I’</tspan></text>
<text
           transform="matrix(0,1,1,0,219.61957,104.6202)"
           style="font-variant:normal;font-weight:normal;font-size:16.20000076px;font-family:Symbol;-inkscape-font-specification:Symbol;writing-mode:lr-tb;fill:#000000;fill-opacity:1;fill-rule:nonzero;stroke:none"
           id="text96"><tspan
             x="0"
             y="0"
             id="tspan98">∆</tspan></text>
<text
           transform="matrix(0,1,1,0,219.61957,113.6202)"
           style="font-variant:normal;font-weight:normal;font-size:14.39999962px;font-family:Helvetica;-inkscape-font-specification:Helvetica;writing-mode:lr-tb;fill:#000000;fill-opacity:1;fill-rule:nonzero;stroke:none"
           id="text100"><tspan
             x="0 11.2032"
             y="0"
             sodipodi:role="line"
             id="tspan102">G4</tspan></text>
<text
           transform="matrix(0,1,1,0,268.99967,109.00028)"
           style="font-variant:normal;font-weight:bold;font-size:21.60000038px;font-family:Helvetica;-inkscape-font-specification:Helvetica-Bold;writing-mode:lr-tb;fill:#000000;fill-opacity:1;fill-rule:nonzero;stroke:none"
           id="text104"><tspan
             x="0"
             y="0"
             id="tspan106">B</tspan></text>
</g></g></g></svg>