<?xml version="1.0" encoding="UTF-8" standalone="no"?>
<!-- Created with Inkscape (http://www.inkscape.org/) -->

<svg
   xmlns:dc="http://purl.org/dc/elements/1.1/"
   xmlns:cc="http://creativecommons.org/ns#"
   xmlns:rdf="http://www.w3.org/1999/02/22-rdf-syntax-ns#"
   xmlns:svg="http://www.w3.org/2000/svg"
   xmlns="http://www.w3.org/2000/svg"
   xmlns:sodipodi="http://sodipodi.sourceforge.net/DTD/sodipodi-0.dtd"
   xmlns:inkscape="http://www.inkscape.org/namespaces/inkscape"
   id="svg2"
   version="1.1"
   inkscape:version="0.91 r13725"
   xml:space="preserve"
   width="322.5"
   height="341.25"
   viewBox="0 0 322.5 341.25"
   sodipodi:docname="free1.svg"><metadata
     id="metadata8"><rdf:RDF><cc:Work
         rdf:about=""><dc:format>image/svg+xml</dc:format><dc:type
           rdf:resource="http://purl.org/dc/dcmitype/StillImage" /><dc:title></dc:title></cc:Work></rdf:RDF></metadata><defs
     id="defs6" /><sodipodi:namedview
     pagecolor="#ffffff"
     bordercolor="#666666"
     borderopacity="1"
     objecttolerance="10"
     gridtolerance="10"
     guidetolerance="10"
     inkscape:pageopacity="0"
     inkscape:pageshadow="2"
     inkscape:window-width="760"
     inkscape:window-height="480"
     id="namedview4"
     showgrid="false"
     inkscape:zoom="0.69157509"
     inkscape:cx="161.25"
     inkscape:cy="170.625"
     inkscape:window-x="0"
     inkscape:window-y="25"
     inkscape:window-maximized="0"
     inkscape:current-layer="g10" /><g
     id="g10"
     inkscape:groupmode="layer"
     inkscape:label="ink_ext_XXXXXX"
     transform="matrix(0,1.25,1.25,0,0,0)"><g
       id="g12"
       transform="scale(0.1,0.1)"><path
         d="m 486.199,1991.2 0,0 c 120,0 180,45 180,135 l 0,0 c 0,90 -60,135 -180,135 l 0,0 c -120,0 -180,30 -180,90 l 0,0 c 0,60 75,90 225,90 l 0,0 c 150,0 270,-15 360,-45 l 0,0 c 90,-30 135.001,-120 135.001,-270 l 0,0 c 0,-150 -45.001,-240 -135.001,-270 l 0,0 c -90,-30 -210,-45 -360,-45 l 0,0 c -150,0 -225,30 -225,90 l 0,0 c 0,60 60,90 180,90 z"
         style="fill:none;stroke:#000000;stroke-width:4.5;stroke-linecap:butt;stroke-linejoin:miter;stroke-miterlimit:10;stroke-dasharray:none;stroke-opacity:1"
         id="path14"
         inkscape:connector-curvature="0" /><path
         d="m 441.199,2036.2 0,0 c 120,0 180,30 180,90 l 0,0 c 0,60 -60,90 -180,90 l 0,0 c -120,0 -210,15 -270,45 l 0,0 c -60,30 -104.9998,15 -134.9998,-45 l 0,0 c -29.99998,-60 -29.99998,-127.5 0,-202.5 l 0,0 c 30,-75 74.9998,-90 134.9998,-45 l 0,0 c 60,45 150,67.5 270,67.5 z"
         style="fill:none;stroke:#000000;stroke-width:4.5;stroke-linecap:butt;stroke-linejoin:miter;stroke-miterlimit:10;stroke-dasharray:none;stroke-opacity:1"
         id="path16"
         inkscape:connector-curvature="0" /><g
         id="g18"
         transform="scale(10,10)"><text
           transform="matrix(0,1,1,0,21.6199,208.12)"
           style="font-variant:normal;font-weight:bold;font-size:14.39999962px;font-family:Helvetica;-inkscape-font-specification:Helvetica-Bold;writing-mode:lr-tb;fill:#000000;fill-opacity:1;fill-rule:nonzero;stroke:none"
           id="text20"><tspan
             x="0"
             y="0"
             id="tspan22">I</tspan><tspan
             x="0 9.6048002"
             y="67.5"
             sodipodi:role="line"
             id="tspan24">E’</tspan></text>
</g><path
         d="m 485.602,190 0,0 c 120,0 180,45 180,135 l 0,0 c 0,90 -60,135 -180,135 l 0,0 c -120,0 -180,30 -180,90 l 0,0 c 0,60 75,90 225,90 l 0,0 c 150,0 270,-15 360,-45 l 0,0 c 90,-30 134.998,-120 134.998,-270 l 0,0 C 1025.6,175 980.602,85 890.602,55 l 0,0 c -90,-30 -210,-45 -360,-45 l 0,0 c -150,0 -225,30 -225,90 l 0,0 c 0,60 60,90 180,90 z"
         style="fill:none;stroke:#000000;stroke-width:4.5;stroke-linecap:butt;stroke-linejoin:miter;stroke-miterlimit:10;stroke-dasharray:none;stroke-opacity:1"
         id="path26"
         inkscape:connector-curvature="0" /><path
         d="m 440.602,235 0,0 c 120,0 180,30 180,90 l 0,0 c 0,60 -60,90 -180,90 l 0,0 c -120,0 -210,15 -270,45 l 0,0 c -60,30 -105.0004,15 -135.0004,-45 l 0,0 c -30.00004,-60 -30.00004,-127.5 0,-202.5 l 0,0 c 30,-75 75.0004,-90 135.0004,-45 l 0,0 c 60,45 150,67.5 270,67.5 z"
         style="fill:none;stroke:#000000;stroke-width:4.5;stroke-linecap:butt;stroke-linejoin:miter;stroke-miterlimit:10;stroke-dasharray:none;stroke-opacity:1"
         id="path28"
         inkscape:connector-curvature="0" /><g
         id="g30"
         transform="scale(10,10)"><text
           transform="matrix(0,1,1,0,89.0602,28)"
           style="font-variant:normal;font-weight:bold;font-size:14.39999962px;font-family:Helvetica;-inkscape-font-specification:Helvetica-Bold;writing-mode:lr-tb;fill:#000000;fill-opacity:1;fill-rule:nonzero;stroke:none"
           id="text32"><tspan
             x="0"
             y="0"
             id="tspan34">E</tspan><tspan
             x="0"
             y="-67.5"
             id="tspan36">I</tspan></text>
</g><path
         d="m 2106.2,191.199 0,0 c 120,0 180,45 180,135 l 0,0 c 0,90 -60,135 -180,135 l 0,0 c -120,0 -180,30 -180,90 l 0,0 c 0,60 75,90 225,90 l 0,0 c 150,0 270,-15 360,-45 l 0,0 c 90,-30 135,-120 135,-270 l 0,0 c 0,-150 -45,-239.9998 -135,-269.9998 l 0,0 c -90,-30 -210,-45 -360,-45 l 0,0 c -150,0 -225,30 -225,89.9998 l 0,0 c 0,60 60,90 180,90 z"
         style="fill:none;stroke:#000000;stroke-width:4.5;stroke-linecap:butt;stroke-linejoin:miter;stroke-miterlimit:10;stroke-dasharray:none;stroke-opacity:1"
         id="path38"
         inkscape:connector-curvature="0" /><g
         id="g40"
         transform="scale(10,10)"><text
           transform="matrix(0,1,1,0,251.12,28.1199)"
           style="font-variant:normal;font-weight:bold;font-size:14.39999962px;font-family:Helvetica;-inkscape-font-specification:Helvetica-Bold;writing-mode:lr-tb;fill:#000000;fill-opacity:1;fill-rule:nonzero;stroke:none"
           id="text42"><tspan
             x="0"
             y="0"
             id="tspan44">E</tspan></text>
</g><path
         d="m 2106.8,1991.8 0,0 c 120,0 180,45 180,135 l 0,0 c 0,90 -60,135 -180,135 l 0,0 c -120,0 -180,30 -180,90 l 0,0 c 0,60 75,90 225,90 l 0,0 c 150,0 270,-15 360,-45 l 0,0 c 90,-30 135,-120 135,-270 l 0,0 c 0,-150 -45,-240 -135,-270 l 0,0 c -90,-30 -210,-45 -360,-45 l 0,0 c -150,0 -225,30 -225,90 l 0,0 c 0,60 60,90 180,90 z"
         style="fill:none;stroke:#000000;stroke-width:4.5;stroke-linecap:butt;stroke-linejoin:miter;stroke-miterlimit:10;stroke-dasharray:none;stroke-opacity:1"
         id="path46"
         inkscape:connector-curvature="0" /><g
         id="g48"
         transform="scale(10,10)"><text
           transform="matrix(0,1,1,0,251.18,208.18)"
           style="font-variant:normal;font-weight:bold;font-size:14.39999962px;font-family:Helvetica;-inkscape-font-specification:Helvetica-Bold;writing-mode:lr-tb;fill:#000000;fill-opacity:1;fill-rule:nonzero;stroke:none"
           id="text50"><tspan
             x="0 9.6048002"
             y="0"
             sodipodi:role="line"
             id="tspan52">E’</tspan></text>
<text
           transform="matrix(0,1,1,0,147.56,50.56)"
           style="font-variant:normal;font-weight:normal;font-size:14.39999962px;font-family:Helvetica;-inkscape-font-specification:Helvetica;writing-mode:lr-tb;fill:#000000;fill-opacity:1;fill-rule:nonzero;stroke:none"
           id="text54"><tspan
             x="0 11.2032"
             y="0"
             sodipodi:role="line"
             id="tspan56">G1</tspan></text>
<text
           transform="matrix(0,1,1,0,147.56,41.56)"
           style="font-variant:normal;font-weight:normal;font-size:16.20000076px;font-family:Symbol;-inkscape-font-specification:Symbol;writing-mode:lr-tb;fill:#000000;fill-opacity:1;fill-rule:nonzero;stroke:none"
           id="text58"><tspan
             x="0 189.00053"
             y="0"
             sodipodi:role="line"
             id="tspan60">∆∆</tspan></text>
<text
           transform="matrix(0,1,1,0,147.56,239.56)"
           style="font-variant:normal;font-weight:normal;font-size:14.39999962px;font-family:Helvetica;-inkscape-font-specification:Helvetica;writing-mode:lr-tb;fill:#000000;fill-opacity:1;fill-rule:nonzero;stroke:none"
           id="text62"><tspan
             x="0 11.2032"
             y="0"
             sodipodi:role="line"
             id="tspan64">G2</tspan></text>
<text
           transform="matrix(0,1,1,0,219.56,104.56)"
           style="font-variant:normal;font-weight:normal;font-size:16.20000076px;font-family:Symbol;-inkscape-font-specification:Symbol;writing-mode:lr-tb;fill:#000000;fill-opacity:1;fill-rule:nonzero;stroke:none"
           id="text66"><tspan
             x="0"
             y="0"
             id="tspan68">∆</tspan></text>
<text
           transform="matrix(0,1,1,0,219.56,113.56)"
           style="font-variant:normal;font-weight:normal;font-size:14.39999962px;font-family:Helvetica;-inkscape-font-specification:Helvetica;writing-mode:lr-tb;fill:#000000;fill-opacity:1;fill-rule:nonzero;stroke:none"
           id="text70"><tspan
             x="0 11.2032"
             y="0"
             sodipodi:role="line"
             id="tspan72">G4</tspan></text>
<text
           transform="matrix(0,1,1,0,39.56,104.56)"
           style="font-variant:normal;font-weight:normal;font-size:16.20000076px;font-family:Symbol;-inkscape-font-specification:Symbol;writing-mode:lr-tb;fill:#000000;fill-opacity:1;fill-rule:nonzero;stroke:none"
           id="text74"><tspan
             x="0"
             y="0"
             id="tspan76">∆</tspan></text>
<text
           transform="matrix(0,1,1,0,39.56,113.56)"
           style="font-variant:normal;font-weight:normal;font-size:14.39999962px;font-family:Helvetica;-inkscape-font-specification:Helvetica;writing-mode:lr-tb;fill:#000000;fill-opacity:1;fill-rule:nonzero;stroke:none"
           id="text78"><tspan
             x="0 11.2032"
             y="0"
             sodipodi:role="line"
             id="tspan80">G3</tspan></text>
</g><path
         d="m 530,730 0,990"
         style="fill:none;stroke:#000000;stroke-width:18;stroke-linecap:butt;stroke-linejoin:miter;stroke-miterlimit:10;stroke-dasharray:none;stroke-opacity:1"
         id="path82"
         inkscape:connector-curvature="0" /><path
         d="m 476,1504 54,216 54,-216"
         style="fill:none;stroke:#000000;stroke-width:18;stroke-linecap:butt;stroke-linejoin:miter;stroke-miterlimit:10;stroke-dasharray:none;stroke-opacity:1"
         id="path84"
         inkscape:connector-curvature="0" /><path
         d="m 2330,730 0,990"
         style="fill:none;stroke:#000000;stroke-width:18;stroke-linecap:butt;stroke-linejoin:miter;stroke-miterlimit:10;stroke-dasharray:none;stroke-opacity:1"
         id="path86"
         inkscape:connector-curvature="0" /><path
         d="m 2276,1504 54,216 54,-216"
         style="fill:none;stroke:#000000;stroke-width:18;stroke-linecap:butt;stroke-linejoin:miter;stroke-miterlimit:10;stroke-dasharray:none;stroke-opacity:1"
         id="path88"
         inkscape:connector-curvature="0" /><path
         d="m 1115,325 765,0"
         style="fill:none;stroke:#000000;stroke-width:18;stroke-linecap:butt;stroke-linejoin:miter;stroke-miterlimit:10;stroke-dasharray:none;stroke-opacity:1"
         id="path90"
         inkscape:connector-curvature="0" /><path
         d="m 1664,379 216,-54 -216,-54"
         style="fill:none;stroke:#000000;stroke-width:18;stroke-linecap:butt;stroke-linejoin:miter;stroke-miterlimit:10;stroke-dasharray:none;stroke-opacity:1"
         id="path92"
         inkscape:connector-curvature="0" /><path
         d="m 1115,2125 810,0"
         style="fill:none;stroke:#000000;stroke-width:18;stroke-linecap:butt;stroke-linejoin:miter;stroke-miterlimit:10;stroke-dasharray:none;stroke-opacity:1"
         id="path94"
         inkscape:connector-curvature="0" /><path
         d="m 1331,2071 -216,54 216,54"
         style="fill:none;stroke:#000000;stroke-width:18;stroke-linecap:butt;stroke-linejoin:miter;stroke-miterlimit:10;stroke-dasharray:none;stroke-opacity:1"
         id="path96"
         inkscape:connector-curvature="0" /><path
         d="m 2420,730 0,990"
         style="fill:none;stroke:#000000;stroke-width:18;stroke-linecap:butt;stroke-linejoin:miter;stroke-miterlimit:10;stroke-dasharray:none;stroke-opacity:1"
         id="path98"
         inkscape:connector-curvature="0" /><path
         d="m 2474,946 -54,-216 -54,216"
         style="fill:none;stroke:#000000;stroke-width:18;stroke-linecap:butt;stroke-linejoin:miter;stroke-miterlimit:10;stroke-dasharray:none;stroke-opacity:1"
         id="path100"
         inkscape:connector-curvature="0" /><path
         d="m 1115,2215 810,0"
         style="fill:none;stroke:#000000;stroke-width:18;stroke-linecap:butt;stroke-linejoin:miter;stroke-miterlimit:10;stroke-dasharray:none;stroke-opacity:1"
         id="path102"
         inkscape:connector-curvature="0" /><path
         d="m 1709,2269 216,-54 -216,-54"
         style="fill:none;stroke:#000000;stroke-width:18;stroke-linecap:butt;stroke-linejoin:miter;stroke-miterlimit:10;stroke-dasharray:none;stroke-opacity:1"
         id="path104"
         inkscape:connector-curvature="0" /><path
         d="m 620,730 0,990"
         style="fill:none;stroke:#000000;stroke-width:18;stroke-linecap:butt;stroke-linejoin:miter;stroke-miterlimit:10;stroke-dasharray:none;stroke-opacity:1"
         id="path106"
         inkscape:connector-curvature="0" /><path
         d="M 674,946 620,730 566,946"
         style="fill:none;stroke:#000000;stroke-width:18;stroke-linecap:butt;stroke-linejoin:miter;stroke-miterlimit:10;stroke-dasharray:none;stroke-opacity:1"
         id="path108"
         inkscape:connector-curvature="0" /><path
         d="m 1115,235 765,0"
         style="fill:none;stroke:#000000;stroke-width:18;stroke-linecap:butt;stroke-linejoin:miter;stroke-miterlimit:10;stroke-dasharray:none;stroke-opacity:1"
         id="path110"
         inkscape:connector-curvature="0" /><path
         d="m 1331,181 -216,54 216,54"
         style="fill:none;stroke:#000000;stroke-width:18;stroke-linecap:butt;stroke-linejoin:miter;stroke-miterlimit:10;stroke-dasharray:none;stroke-opacity:1"
         id="path112"
         inkscape:connector-curvature="0" /><g
         id="g114"
         transform="scale(10,10)"><text
           transform="matrix(0,1,1,0,269,109)"
           style="font-variant:normal;font-weight:bold;font-size:21.60000038px;font-family:Helvetica;-inkscape-font-specification:Helvetica-Bold;writing-mode:lr-tb;fill:#000000;fill-opacity:1;fill-rule:nonzero;stroke:none"
           id="text116"><tspan
             x="0"
             y="0"
             id="tspan118">A</tspan></text>
</g></g></g></svg>