<?xml version="1.0" encoding="UTF-8" standalone="no"?>
<!-- Created with Inkscape (http://www.inkscape.org/) -->

<svg
   xmlns:dc="http://purl.org/dc/elements/1.1/"
   xmlns:cc="http://creativecommons.org/ns#"
   xmlns:rdf="http://www.w3.org/1999/02/22-rdf-syntax-ns#"
   xmlns:svg="http://www.w3.org/2000/svg"
   xmlns="http://www.w3.org/2000/svg"
   xmlns:sodipodi="http://sodipodi.sourceforge.net/DTD/sodipodi-0.dtd"
   xmlns:inkscape="http://www.inkscape.org/namespaces/inkscape"
   id="svg2"
   version="1.1"
   inkscape:version="0.91 r13725"
   xml:space="preserve"
   width="404.75"
   height="404.75"
   viewBox="0 0 404.75 404.75"
   sodipodi:docname="hpr-wheel.svg"><metadata
     id="metadata8"><rdf:RDF><cc:Work
         rdf:about=""><dc:format>image/svg+xml</dc:format><dc:type
           rdf:resource="http://purl.org/dc/dcmitype/StillImage" /><dc:title></dc:title></cc:Work></rdf:RDF></metadata><defs
     id="defs6" /><sodipodi:namedview
     pagecolor="#ffffff"
     bordercolor="#666666"
     borderopacity="1"
     objecttolerance="10"
     gridtolerance="10"
     guidetolerance="10"
     inkscape:pageopacity="0"
     inkscape:pageshadow="2"
     inkscape:window-width="760"
     inkscape:window-height="480"
     id="namedview4"
     showgrid="false"
     fit-margin-top="0"
     fit-margin-left="0"
     fit-margin-right="0"
     fit-margin-bottom="0"
     inkscape:zoom="0.22422803"
     inkscape:cx="325.625"
     inkscape:cy="480"
     inkscape:window-x="1067"
     inkscape:window-y="300"
     inkscape:window-maximized="0"
     inkscape:current-layer="g10" /><g
     id="g10"
     inkscape:groupmode="layer"
     inkscape:label="ink_ext_XXXXXX"
     transform="matrix(1.25,0,0,-1.25,-46.25,451)"><g
       id="g12"
       transform="scale(0.1,0.1)"><g
         id="g14"
         transform="scale(10,10)"><text
           transform="matrix(1,0,0,-1,166.237,186.9)"
           style="font-variant:normal;font-weight:normal;font-size:24px;font-family:Helvetica;-inkscape-font-specification:Helvetica;writing-mode:lr-tb;fill:#000000;fill-opacity:1;fill-rule:nonzero;stroke:none"
           id="text16"><tspan
             x="0 17.327999 33.335999 41.327999 49.32"
             y="0"
             sodipodi:role="line"
             id="tspan18">HPr-A</tspan></text>
</g><path
         d="m 2727.61,1858.77 c 7.57,42.99 11.39,86.57 11.39,130.23 0,43.66 -3.82,87.24 -11.39,130.23 l 850.87,150.04 c 16.31,-92.53 24.52,-186.31 24.52,-280.27 0,-93.96 -8.21,-187.74 -24.52,-280.27 l -850.87,150.04 z"
         style="fill:none;stroke:#000000;stroke-width:10;stroke-linecap:butt;stroke-linejoin:miter;stroke-miterlimit:10;stroke-dasharray:none;stroke-opacity:1"
         id="path20"
         inkscape:connector-curvature="0" /><g
         id="g22"
         transform="scale(10,10)"><text
           transform="matrix(1,0,0,-1,283.5,190.9)"
           style="font-variant:normal;font-weight:normal;font-size:16px;font-family:Helvetica;-inkscape-font-specification:Helvetica;writing-mode:lr-tb;fill:#000000;fill-opacity:1;fill-rule:nonzero;stroke:none"
           id="text24"><tspan
             x="0 11.552 16 26.672001 32 40.896 49.792"
             y="0"
             sodipodi:role="line"
             id="tspan26">HIS-15+</tspan></text>
</g><path
         d="m 1732.48,1284.23 c 41.03,-14.93 83.29,-26.26 126.29,-33.84 42.99,-7.57 86.57,-11.39 130.23,-11.39 l 0,-864 c -93.96,0 -187.74,8.207 -280.27,24.52 -92.53,16.312 -183.46,40.683 -271.75,72.816 l 295.5,811.894 z"
         style="fill:none;stroke:#000000;stroke-width:10;stroke-linecap:butt;stroke-linejoin:miter;stroke-miterlimit:10;stroke-dasharray:none;stroke-opacity:1"
         id="path28"
         inkscape:connector-curvature="0" /><g
         id="g30"
         transform="scale(10,10)"><text
           transform="matrix(-0.173648,-0.984808,-0.984808,0.173648,176.331,116.975)"
           style="font-variant:normal;font-weight:normal;font-size:16.00000381px;font-family:Helvetica;-inkscape-font-specification:Helvetica;writing-mode:lr-tb;fill:#000000;fill-opacity:1;fill-rule:nonzero;stroke:none"
           id="text32"><tspan
             x="0 9.7760019 21.328005 32.880009 38.208008 47.104012"
             y="0"
             sodipodi:role="line"
             id="tspan34">THR-16</tspan></text>
</g><path
         d="m 1339.48,2364 c -21.83,-37.81 -40.32,-77.46 -55.25,-118.48 -14.93,-41.03 -26.26,-83.29 -33.84,-126.29 l -850.87,150.04 c 16.312,92.53 40.683,183.46 72.816,271.75 32.133,88.29 71.922,173.61 118.898,254.98 l 748.246,-432 z"
         style="fill:none;stroke:#000000;stroke-width:10;stroke-linecap:butt;stroke-linejoin:miter;stroke-miterlimit:10;stroke-dasharray:none;stroke-opacity:1"
         id="path36"
         inkscape:connector-curvature="0" /><g
         id="g38"
         transform="scale(10,10)"><text
           transform="matrix(-0.939693,0.34202,0.34202,0.939693,122.138,235.352)"
           style="font-variant:normal;font-weight:normal;font-size:16.00000572px;font-family:Helvetica;-inkscape-font-specification:Helvetica;writing-mode:lr-tb;fill:#000000;fill-opacity:1;fill-rule:nonzero;stroke:none"
           id="text40"><tspan
             x="0 10.672004 22.224007 34.672012 40.000011 48.896015 57.792019"
             y="0"
             sodipodi:role="line"
             id="tspan42">ARG-17+</tspan></text>
</g><path
         d="m 2471.09,2563.54 c -33.45,28.06 -69.28,53.15 -107.09,74.98 -37.81,21.83 -77.46,40.32 -118.48,55.25 l 295.5,811.89 c 88.29,-32.13 173.61,-71.92 254.98,-118.89 81.37,-46.98 158.48,-100.98 230.46,-161.38"
         style="fill:#e6e6e6;fill-opacity:1;fill-rule:nonzero;stroke:none"
         id="path44"
         inkscape:connector-curvature="0" /><path
         d="m 2471.09,2563.54 c -33.45,28.06 -69.28,53.15 -107.09,74.98 -37.81,21.83 -77.46,40.32 -118.48,55.25 l 295.5,811.89 c 88.29,-32.13 173.61,-71.92 254.98,-118.89 81.37,-46.98 158.48,-100.98 230.46,-161.38 l -555.37,-661.85 z"
         style="fill:none;stroke:#000000;stroke-width:10;stroke-linecap:butt;stroke-linejoin:miter;stroke-miterlimit:10;stroke-dasharray:none;stroke-opacity:1"
         id="path46"
         inkscape:connector-curvature="0" /><g
         id="g48"
         transform="scale(10,10)"><text
           transform="matrix(0.5,0.866025,0.866025,-0.5,248.128,268.166)"
           style="font-variant:normal;font-weight:normal;font-size:15.99999428px;font-family:Helvetica;-inkscape-font-specification:Helvetica;writing-mode:lr-tb;fill:#000000;fill-opacity:1;fill-rule:nonzero;stroke:none"
           id="text50"><tspan
             x="0 10.671996 22.223991 34.671989 39.999985 48.895985"
             y="0"
             sodipodi:role="line"
             id="tspan52">PRO-18</tspan></text>
</g><path
         d="m 2471.09,1414.46 c 33.45,28.07 64.38,59 92.45,92.45 28.06,33.45 53.15,69.28 74.98,107.09 l 748.25,-432 C 3339.79,1100.63 3285.79,1023.52 3225.39,951.539 3165,879.566 3098.43,813 3026.46,752.605"
         style="fill:#e6e6e6;fill-opacity:1;fill-rule:nonzero;stroke:none"
         id="path54"
         inkscape:connector-curvature="0" /><path
         d="m 2471.09,1414.46 c 33.45,28.07 64.38,59 92.45,92.45 28.06,33.45 53.15,69.28 74.98,107.09 l 748.25,-432 C 3339.79,1100.63 3285.79,1023.52 3225.39,951.539 3165,879.566 3098.43,813 3026.46,752.605 l -555.37,661.855 z"
         style="fill:none;stroke:#000000;stroke-width:10;stroke-linecap:butt;stroke-linejoin:miter;stroke-miterlimit:10;stroke-dasharray:none;stroke-opacity:1"
         id="path56"
         inkscape:connector-curvature="0" /><g
         id="g58"
         transform="scale(10,10)"><text
           transform="matrix(0.766044,-0.642788,-0.642788,-0.766044,258.565,138.392)"
           style="font-variant:normal;font-weight:normal;font-size:15.99999905px;font-family:Helvetica;-inkscape-font-specification:Helvetica;writing-mode:lr-tb;fill:#000000;fill-opacity:1;fill-rule:nonzero;stroke:none"
           id="text60"><tspan
             x="0 10.671999 19.567999 30.239998 35.567997 44.463997"
             y="0"
             sodipodi:role="line"
             id="tspan62">ALA-19</tspan></text>
</g><path
         d="m 1339.48,1614 c 21.83,-37.81 46.92,-73.64 74.98,-107.09 28.07,-33.45 59,-64.38 92.45,-92.45 L 951.539,752.605 C 879.566,813 813,879.566 752.605,951.539 692.211,1023.52 638.215,1100.63 591.234,1182"
         style="fill:#e6e6e6;fill-opacity:1;fill-rule:nonzero;stroke:none"
         id="path64"
         inkscape:connector-curvature="0" /><path
         d="m 1339.48,1614 c 21.83,-37.81 46.92,-73.64 74.98,-107.09 28.07,-33.45 59,-64.38 92.45,-92.45 L 951.539,752.605 C 879.566,813 813,879.566 752.605,951.539 692.211,1023.52 638.215,1100.63 591.234,1182 l 748.246,432 z"
         style="fill:none;stroke:#000000;stroke-width:10;stroke-linecap:butt;stroke-linejoin:miter;stroke-miterlimit:10;stroke-dasharray:none;stroke-opacity:1"
         id="path66"
         inkscape:connector-curvature="0" /><g
         id="g68"
         transform="scale(10,10)"><text
           transform="matrix(-0.766044,-0.642788,-0.642788,0.766044,128.95,150.648)"
           style="font-variant:normal;font-weight:normal;font-size:15.99999905px;font-family:Helvetica;-inkscape-font-specification:Helvetica;writing-mode:lr-tb;fill:#000000;fill-opacity:1;fill-rule:nonzero;stroke:none"
           id="text70"><tspan
             x="0 10.671999 19.567999 30.239998 35.567997 44.463997"
             y="0"
             sodipodi:role="line"
             id="tspan72">ALA-20</tspan></text>
</g><path
         d="m 1732.48,2693.77 c -41.02,-14.93 -80.67,-33.42 -118.48,-55.25 -37.81,-21.83 -73.64,-46.92 -107.09,-74.98 l -555.371,661.85 c 71.981,60.4 149.091,114.4 230.461,161.38 81.37,46.97 166.69,86.76 254.98,118.89 l 295.5,-811.89 z"
         style="fill:none;stroke:#000000;stroke-width:10;stroke-linecap:butt;stroke-linejoin:miter;stroke-miterlimit:10;stroke-dasharray:none;stroke-opacity:1"
         id="path74"
         inkscape:connector-curvature="0" /><g
         id="g76"
         transform="scale(10,10)"><text
           transform="matrix(-0.5,0.866025,0.866025,0.5,163.528,276.166)"
           style="font-variant:normal;font-weight:normal;font-size:15.99999428px;font-family:Helvetica;-inkscape-font-specification:Helvetica;writing-mode:lr-tb;fill:#000000;fill-opacity:1;fill-rule:nonzero;stroke:none"
           id="text78"><tspan
             x="0 12.447995 21.343992 32.895988 38.223988 47.119984"
             y="0"
             sodipodi:role="line"
             id="tspan80">GLN-21</tspan></text>
</g><path
         d="m 2727.61,2119.23 c -7.58,43 -18.91,85.26 -33.84,126.29 -14.93,41.02 -33.42,80.67 -55.25,118.48 l 748.25,432 c 46.97,-81.37 86.76,-166.69 118.89,-254.98 32.14,-88.29 56.51,-179.22 72.82,-271.75"
         style="fill:#e6e6e6;fill-opacity:1;fill-rule:nonzero;stroke:none"
         id="path82"
         inkscape:connector-curvature="0" /><path
         d="m 2727.61,2119.23 c -7.58,43 -18.91,85.26 -33.84,126.29 -14.93,41.02 -33.42,80.67 -55.25,118.48 l 748.25,432 c 46.97,-81.37 86.76,-166.69 118.89,-254.98 32.14,-88.29 56.51,-179.22 72.82,-271.75 l -850.87,-150.04 z"
         style="fill:none;stroke:#000000;stroke-width:10;stroke-linecap:butt;stroke-linejoin:miter;stroke-miterlimit:10;stroke-dasharray:none;stroke-opacity:1"
         id="path84"
         inkscape:connector-curvature="0" /><g
         id="g86"
         transform="scale(10,10)"><text
           transform="matrix(0.939693,0.34202,0.34202,-0.939693,281.134,220.317)"
           style="font-variant:normal;font-weight:normal;font-size:16.00000572px;font-family:Helvetica;-inkscape-font-specification:Helvetica;writing-mode:lr-tb;fill:#000000;fill-opacity:1;fill-rule:nonzero;stroke:none"
           id="text88"><tspan
             x="0 10.672004 22.224007 32.896011 38.22401 47.120014"
             y="0"
             sodipodi:role="line"
             id="tspan90">PHE-22</tspan></text>
</g><path
         d="m 1989,1239 c 43.66,0 87.24,3.82 130.23,11.39 43,7.58 85.26,18.91 126.29,33.84 l 295.5,-811.894 C 2452.73,440.203 2361.8,415.832 2269.27,399.52 2176.74,383.207 2082.96,375 1989,375"
         style="fill:#e6e6e6;fill-opacity:1;fill-rule:nonzero;stroke:none"
         id="path92"
         inkscape:connector-curvature="0" /><path
         d="m 1989,1239 c 43.66,0 87.24,3.82 130.23,11.39 43,7.58 85.26,18.91 126.29,33.84 l 295.5,-811.894 C 2452.73,440.203 2361.8,415.832 2269.27,399.52 2176.74,383.207 2082.96,375 1989,375 l 0,864 z"
         style="fill:none;stroke:#000000;stroke-width:10;stroke-linecap:butt;stroke-linejoin:miter;stroke-miterlimit:10;stroke-dasharray:none;stroke-opacity:1"
         id="path94"
         inkscape:connector-curvature="0" /><g
         id="g96"
         transform="scale(10,10)"><text
           transform="matrix(0.173648,-0.984808,-0.984808,-0.173648,205.712,114.196)"
           style="font-variant:normal;font-weight:normal;font-size:16.00000381px;font-family:Helvetica;-inkscape-font-specification:Helvetica;writing-mode:lr-tb;fill:#000000;fill-opacity:1;fill-rule:nonzero;stroke:none"
           id="text98"><tspan
             x="0 10.672002 21.344004 30.240005 35.568008 44.464008"
             y="0"
             sodipodi:role="line"
             id="tspan100">VAL-23</tspan></text>
</g><path
         d="M 1250.39,2119.23 C 1242.82,2076.24 1239,2032.66 1239,1989 c 0,-43.66 3.82,-87.24 11.39,-130.23 L 399.52,1708.73 C 383.207,1801.26 375,1895.04 375,1989 c 0,93.96 8.207,187.74 24.52,280.27 l 850.87,-150.04 z"
         style="fill:none;stroke:#000000;stroke-width:10;stroke-linecap:butt;stroke-linejoin:miter;stroke-miterlimit:10;stroke-dasharray:none;stroke-opacity:1"
         id="path102"
         inkscape:connector-curvature="0" /><g
         id="g104"
         transform="scale(10,10)"><text
           transform="matrix(-1,-6e-8,-6e-8,1,114.3,206.9)"
           style="font-variant:normal;font-weight:normal;font-size:16px;font-family:Helvetica;-inkscape-font-specification:Helvetica;writing-mode:lr-tb;fill:#000000;fill-opacity:1;fill-rule:nonzero;stroke:none"
           id="text106"><tspan
             x="0 8.8959999 19.568001 30.24 35.568001 44.464001 53.360001"
             y="0"
             sodipodi:role="line"
             id="tspan108">LYS-24+</tspan></text>
</g><path
         d="m 2245.52,2693.77 c -41.03,14.93 -83.29,26.26 -126.29,33.84 -42.99,7.57 -86.57,11.39 -130.23,11.39 l 0,864 c 93.96,0 187.74,-8.21 280.27,-24.52 92.53,-16.31 183.46,-40.68 271.75,-72.82 l -295.5,-811.89 z"
         style="fill:none;stroke:#000000;stroke-width:10;stroke-linecap:butt;stroke-linejoin:miter;stroke-miterlimit:10;stroke-dasharray:none;stroke-opacity:1"
         id="path110"
         inkscape:connector-curvature="0" /><g
         id="g112"
         transform="scale(10,10)"><text
           transform="matrix(0.173648,0.984808,0.984808,-0.173648,221.469,280.825)"
           style="font-variant:normal;font-weight:normal;font-size:16.00000381px;font-family:Helvetica;-inkscape-font-specification:Helvetica;writing-mode:lr-tb;fill:#000000;fill-opacity:1;fill-rule:nonzero;stroke:none"
           id="text114"><tspan
             x="0 12.448003 21.344004 32.896008 38.224007 47.12001 56.01601"
             y="0"
             sodipodi:role="line"
             id="tspan116">GLU-25-</tspan></text>
</g><path
         d="m 2638.52,1614 c 21.83,37.81 40.32,77.46 55.25,118.48 14.93,41.03 26.26,83.29 33.84,126.29 l 850.87,-150.04 c -16.31,-92.53 -40.68,-183.46 -72.82,-271.75 -32.13,-88.29 -71.92,-173.61 -118.89,-254.98"
         style="fill:#e6e6e6;fill-opacity:1;fill-rule:nonzero;stroke:none"
         id="path118"
         inkscape:connector-curvature="0" /><path
         d="m 2638.52,1614 c 21.83,37.81 40.32,77.46 55.25,118.48 14.93,41.03 26.26,83.29 33.84,126.29 l 850.87,-150.04 c -16.31,-92.53 -40.68,-183.46 -72.82,-271.75 -32.13,-88.29 -71.92,-173.61 -118.89,-254.98 l -748.25,432 z"
         style="fill:none;stroke:#000000;stroke-width:10;stroke-linecap:butt;stroke-linejoin:miter;stroke-miterlimit:10;stroke-dasharray:none;stroke-opacity:1"
         id="path120"
         inkscape:connector-curvature="0" /><g
         id="g122"
         transform="scale(10,10)"><text
           transform="matrix(0.939693,-0.34202,-0.34202,-0.939693,275.662,162.448)"
           style="font-variant:normal;font-weight:normal;font-size:16.00000572px;font-family:Helvetica;-inkscape-font-specification:Helvetica;writing-mode:lr-tb;fill:#000000;fill-opacity:1;fill-rule:nonzero;stroke:none"
           id="text124"><tspan
             x="0 10.672004 19.568007 30.240009 35.568012 44.464012"
             y="0"
             sodipodi:role="line"
             id="tspan126">ALA-26</tspan></text>
</g><path
         d="m 1506.91,1414.46 c 33.45,-28.06 69.28,-53.15 107.09,-74.98 37.81,-21.83 77.46,-40.32 118.48,-55.25 l -295.5,-811.894 c -88.29,32.133 -173.61,71.922 -254.98,118.898 -81.37,46.981 -158.48,100.977 -230.461,161.371 l 555.371,661.855 z"
         style="fill:none;stroke:#000000;stroke-width:10;stroke-linecap:butt;stroke-linejoin:miter;stroke-miterlimit:10;stroke-dasharray:none;stroke-opacity:1"
         id="path128"
         inkscape:connector-curvature="0" /><g
         id="g130"
         transform="scale(10,10)"><text
           transform="matrix(-0.5,-0.866025,-0.866025,0.5,149.672,129.634)"
           style="font-variant:normal;font-weight:normal;font-size:15.99999428px;font-family:Helvetica;-inkscape-font-specification:Helvetica;writing-mode:lr-tb;fill:#000000;fill-opacity:1;fill-rule:nonzero;stroke:none"
           id="text132"><tspan
             x="0 8.895997 19.567993 30.23999 35.567989 44.463985 53.359982"
             y="0"
             sodipodi:role="line"
             id="tspan134">LYS-27+</tspan></text>
</g><path
         d="m 1506.91,2563.54 c -33.45,-28.07 -64.38,-59 -92.45,-92.45 -28.06,-33.45 -53.15,-69.28 -74.98,-107.09 l -748.246,432 c 46.981,81.37 100.977,158.48 161.371,230.46 60.395,71.97 126.961,138.54 198.934,198.93 l 555.371,-661.85 z"
         style="fill:none;stroke:#000000;stroke-width:10;stroke-linecap:butt;stroke-linejoin:miter;stroke-miterlimit:10;stroke-dasharray:none;stroke-opacity:1"
         id="path136"
         inkscape:connector-curvature="0" /><g
         id="g138"
         transform="scale(10,10)"><text
           transform="matrix(-0.766044,0.642788,0.642788,0.766044,139.235,259.408)"
           style="font-variant:normal;font-weight:normal;font-size:15.99999905px;font-family:Helvetica;-inkscape-font-specification:Helvetica;writing-mode:lr-tb;fill:#000000;fill-opacity:1;fill-rule:nonzero;stroke:none"
           id="text140"><tspan
             x="0 12.447999 21.343998 32.015999 37.343998 46.239994"
             y="0"
             sodipodi:role="line"
             id="tspan142">GLY-28</tspan></text>
</g></g></g></svg>