<?xml version="1.0" encoding="UTF-8" standalone="no"?>
<!-- Created with Inkscape (http://www.inkscape.org/) -->

<svg
   xmlns:dc="http://purl.org/dc/elements/1.1/"
   xmlns:cc="http://creativecommons.org/ns#"
   xmlns:rdf="http://www.w3.org/1999/02/22-rdf-syntax-ns#"
   xmlns:svg="http://www.w3.org/2000/svg"
   xmlns="http://www.w3.org/2000/svg"
   xmlns:sodipodi="http://sodipodi.sourceforge.net/DTD/sodipodi-0.dtd"
   xmlns:inkscape="http://www.inkscape.org/namespaces/inkscape"
   id="svg2"
   version="1.1"
   inkscape:version="0.91 r13725"
   xml:space="preserve"
   width="382.5"
   height="990"
   viewBox="0 0 382.5 990"
   sodipodi:docname="mdpar.svg"><metadata
     id="metadata8"><rdf:RDF><cc:Work
         rdf:about=""><dc:format>image/svg+xml</dc:format><dc:type
           rdf:resource="http://purl.org/dc/dcmitype/StillImage" /><dc:title></dc:title></cc:Work></rdf:RDF></metadata><defs
     id="defs6" /><sodipodi:namedview
     pagecolor="#ffffff"
     bordercolor="#666666"
     borderopacity="1"
     objecttolerance="10"
     gridtolerance="10"
     guidetolerance="10"
     inkscape:pageopacity="0"
     inkscape:pageshadow="2"
     inkscape:window-width="760"
     inkscape:window-height="480"
     id="namedview4"
     showgrid="false"
     inkscape:zoom="0.23838384"
     inkscape:cx="191.25"
     inkscape:cy="495"
     inkscape:window-x="0"
     inkscape:window-y="25"
     inkscape:window-maximized="0"
     inkscape:current-layer="g10" /><g
     id="g10"
     inkscape:groupmode="layer"
     inkscape:label="ink_ext_XXXXXX"
     transform="matrix(1.25,0,0,-1.25,0,990)"><g
       id="g12"
       transform="scale(0.1,0.1)"><path
         d="m 351,7389 2160,0 0,540 -2160,0 0,-540 z"
         style="fill:none;stroke:#000000;stroke-width:4.5;stroke-linecap:butt;stroke-linejoin:miter;stroke-miterlimit:10;stroke-dasharray:none;stroke-opacity:1"
         id="path14"
         inkscape:connector-curvature="0" /><g
         id="g16"
         transform="scale(10,10)"><text
           transform="matrix(1,0,0,-1,53.1,756.9)"
           style="font-variant:normal;font-weight:normal;font-size:16.20000076px;font-family:Times;-inkscape-font-specification:Times-Roman;writing-mode:lr-tb;fill:#000000;fill-opacity:1;fill-rule:nonzero;stroke:none"
           id="text18"><tspan
             x="0 5.3945999 12.5874 19.780199 27.880199 35.980202 44.0802 51.272999 55.7766"
             y="0"
             sodipodi:role="line"
             id="tspan20">read_data</tspan></text>
</g><path
         d="m 351,9 2160,0 0,540 -2160,0 0,-540 z"
         style="fill:none;stroke:#000000;stroke-width:4.5;stroke-linecap:butt;stroke-linejoin:miter;stroke-miterlimit:10;stroke-dasharray:none;stroke-opacity:1"
         id="path22"
         inkscape:connector-curvature="0" /><g
         id="g24"
         transform="scale(10,10)"><text
           transform="matrix(1,0,0,-1,53.1,18.9)"
           style="font-variant:normal;font-weight:normal;font-size:16.20000076px;font-family:Times;-inkscape-font-specification:Times-Roman;writing-mode:lr-tb;fill:#000000;fill-opacity:1;fill-rule:nonzero;stroke:none"
           id="text26"><tspan
             x="0 11.6964 19.7964 27.8964"
             y="0"
             sodipodi:role="line"
             id="tspan28">Done</tspan></text>
</g><path
         d="m 1431,909 0,-360"
         style="fill:none;stroke:#000000;stroke-width:4.5;stroke-linecap:butt;stroke-linejoin:miter;stroke-miterlimit:10;stroke-dasharray:none;stroke-opacity:1"
         id="path30"
         inkscape:connector-curvature="0" /><path
         d="m 1449,621 -18,-72 -18,72"
         style="fill:none;stroke:#000000;stroke-width:4.5;stroke-linecap:butt;stroke-linejoin:bevel;stroke-miterlimit:10;stroke-dasharray:none;stroke-opacity:1"
         id="path32"
         inkscape:connector-curvature="0" /><g
         id="g34"
         transform="scale(10,10)"><text
           transform="matrix(1,0,0,-1,161.1,72.9)"
           style="font-variant:normal;font-weight:normal;font-size:16.20000076px;font-family:Times;-inkscape-font-specification:Times-Roman;writing-mode:lr-tb;fill:#000000;fill-opacity:1;fill-rule:nonzero;stroke:none"
           id="text36"><tspan
             x="0 11.6964"
             y="0"
             sodipodi:role="line"
             id="tspan38">NO</tspan></text>
</g><path
         d="m 351,1989 2160,0 0,540 -2160,0 0,-540 z"
         style="fill:none;stroke:#000000;stroke-width:4.5;stroke-linecap:butt;stroke-linejoin:miter;stroke-miterlimit:10;stroke-dasharray:none;stroke-opacity:1"
         id="path40"
         inkscape:connector-curvature="0" /><g
         id="g42"
         transform="scale(10,10)"><text
           transform="matrix(1,0,0,-1,53.1,216.9)"
           style="font-variant:normal;font-weight:normal;font-size:16.20000076px;font-family:Times;-inkscape-font-specification:Times-Roman;writing-mode:lr-tb;fill:#000000;fill-opacity:1;fill-rule:nonzero;stroke:none"
           id="text44"><tspan
             x="0 8.1000004 16.200001 20.7036 28.8036 36.903599 41.4072 49.507198 55.808998 60.312599 67.505402"
             y="0"
             sodipodi:role="line"
             id="tspan46">output_step</tspan></text>
</g><path
         d="m 351,2889 2160,0 0,540 -2160,0 0,-540 z"
         style="fill:none;stroke:#000000;stroke-width:4.5;stroke-linecap:butt;stroke-linejoin:miter;stroke-miterlimit:10;stroke-dasharray:none;stroke-opacity:1"
         id="path48"
         inkscape:connector-curvature="0" /><g
         id="g50"
         transform="scale(10,10)"><text
           transform="matrix(1,0,0,-1,53.1,306.9)"
           style="font-variant:normal;font-weight:normal;font-size:16.20000076px;font-family:Times;-inkscape-font-specification:Times-Roman;writing-mode:lr-tb;fill:#000000;fill-opacity:1;fill-rule:nonzero;stroke:none"
           id="text52"><tspan
             x="0 8.1000004 16.200001 24.299999 31.4928 35.996399 43.189201 51.2892 56.6838 64.783798 71.976601 80.076599 88.176598 96.276604"
             y="0"
             sodipodi:role="line"
             id="tspan54">update_r_and_v</tspan></text>
</g><path
         d="m 2511,1269 540,0 0,5940 -1620,0"
         style="fill:none;stroke:#000000;stroke-width:4.5;stroke-linecap:butt;stroke-linejoin:miter;stroke-miterlimit:10;stroke-dasharray:none;stroke-opacity:1"
         id="path56"
         inkscape:connector-curvature="0" /><path
         d="m 1503,7191 -72,18 72,18"
         style="fill:none;stroke:#000000;stroke-width:4.5;stroke-linecap:butt;stroke-linejoin:bevel;stroke-miterlimit:10;stroke-dasharray:none;stroke-opacity:1"
         id="path58"
         inkscape:connector-curvature="0" /><path
         d="M 1431,1629 351,1269 1431,909 2511,1269 1431,1629"
         style="fill:none;stroke:#000000;stroke-width:4.5;stroke-linecap:butt;stroke-linejoin:miter;stroke-miterlimit:10;stroke-dasharray:none;stroke-opacity:1"
         id="path60"
         inkscape:connector-curvature="0" /><path
         d="m 1431,1989 0,-360"
         style="fill:none;stroke:#000000;stroke-width:4.5;stroke-linecap:butt;stroke-linejoin:miter;stroke-miterlimit:10;stroke-dasharray:none;stroke-opacity:1"
         id="path62"
         inkscape:connector-curvature="0" /><path
         d="m 1449,1701 -18,-72 -18,72"
         style="fill:none;stroke:#000000;stroke-width:4.5;stroke-linecap:butt;stroke-linejoin:bevel;stroke-miterlimit:10;stroke-dasharray:none;stroke-opacity:1"
         id="path64"
         inkscape:connector-curvature="0" /><path
         d="m 1431,5589 0,-360"
         style="fill:none;stroke:#000000;stroke-width:4.5;stroke-linecap:butt;stroke-linejoin:miter;stroke-miterlimit:10;stroke-dasharray:none;stroke-opacity:1"
         id="path66"
         inkscape:connector-curvature="0" /><path
         d="m 1449,5301 -18,-72 -18,72"
         style="fill:none;stroke:#000000;stroke-width:4.5;stroke-linecap:butt;stroke-linejoin:bevel;stroke-miterlimit:10;stroke-dasharray:none;stroke-opacity:1"
         id="path68"
         inkscape:connector-curvature="0" /><path
         d="m 351,4689 2160,0 0,540 -2160,0 0,-540 z"
         style="fill:none;stroke:#000000;stroke-width:4.5;stroke-linecap:butt;stroke-linejoin:miter;stroke-miterlimit:10;stroke-dasharray:none;stroke-opacity:1"
         id="path70"
         inkscape:connector-curvature="0" /><path
         d="m 1431,2889 0,-360"
         style="fill:none;stroke:#000000;stroke-width:4.5;stroke-linecap:butt;stroke-linejoin:miter;stroke-miterlimit:10;stroke-dasharray:none;stroke-opacity:1"
         id="path72"
         inkscape:connector-curvature="0" /><path
         d="m 1449,2601 -18,-72 -18,72"
         style="fill:none;stroke:#000000;stroke-width:4.5;stroke-linecap:butt;stroke-linejoin:bevel;stroke-miterlimit:10;stroke-dasharray:none;stroke-opacity:1"
         id="path74"
         inkscape:connector-curvature="0" /><path
         d="m 1431,3789 0,-360"
         style="fill:none;stroke:#000000;stroke-width:4.5;stroke-linecap:butt;stroke-linejoin:miter;stroke-miterlimit:10;stroke-dasharray:none;stroke-opacity:1"
         id="path76"
         inkscape:connector-curvature="0" /><path
         d="m 1449,3501 -18,-72 -18,72"
         style="fill:none;stroke:#000000;stroke-width:4.5;stroke-linecap:butt;stroke-linejoin:bevel;stroke-miterlimit:10;stroke-dasharray:none;stroke-opacity:1"
         id="path78"
         inkscape:connector-curvature="0" /><path
         d="m 1431,4689 0,-360"
         style="fill:none;stroke:#000000;stroke-width:4.5;stroke-linecap:butt;stroke-linejoin:miter;stroke-miterlimit:10;stroke-dasharray:none;stroke-opacity:1"
         id="path80"
         inkscape:connector-curvature="0" /><path
         d="m 1449,4401 -18,-72 -18,72"
         style="fill:none;stroke:#000000;stroke-width:4.5;stroke-linecap:butt;stroke-linejoin:bevel;stroke-miterlimit:10;stroke-dasharray:none;stroke-opacity:1"
         id="path82"
         inkscape:connector-curvature="0" /><path
         d="m 351,3789 2160,0 0,540 -2160,0 0,-540 z"
         style="fill:none;stroke:#000000;stroke-width:4.5;stroke-linecap:butt;stroke-linejoin:miter;stroke-miterlimit:10;stroke-dasharray:none;stroke-opacity:1"
         id="path84"
         inkscape:connector-curvature="0" /><path
         d="m 1431,6489 0,-360"
         style="fill:none;stroke:#000000;stroke-width:4.5;stroke-linecap:butt;stroke-linejoin:miter;stroke-miterlimit:10;stroke-dasharray:none;stroke-opacity:1"
         id="path86"
         inkscape:connector-curvature="0" /><path
         d="m 1449,6201 -18,-72 -18,72"
         style="fill:none;stroke:#000000;stroke-width:4.5;stroke-linecap:butt;stroke-linejoin:bevel;stroke-miterlimit:10;stroke-dasharray:none;stroke-opacity:1"
         id="path88"
         inkscape:connector-curvature="0" /><path
         d="m 351,5589 2160,0 0,540 -2160,0 0,-540 z"
         style="fill:none;stroke:#000000;stroke-width:4.5;stroke-linecap:butt;stroke-linejoin:miter;stroke-miterlimit:10;stroke-dasharray:none;stroke-opacity:1"
         id="path90"
         inkscape:connector-curvature="0" /><path
         d="m 1431,7389 0,-360"
         style="fill:none;stroke:#000000;stroke-width:4.5;stroke-linecap:butt;stroke-linejoin:miter;stroke-miterlimit:10;stroke-dasharray:none;stroke-opacity:1"
         id="path92"
         inkscape:connector-curvature="0" /><path
         d="m 1449,7101 -18,-72 -18,72"
         style="fill:none;stroke:#000000;stroke-width:4.5;stroke-linecap:butt;stroke-linejoin:bevel;stroke-miterlimit:10;stroke-dasharray:none;stroke-opacity:1"
         id="path94"
         inkscape:connector-curvature="0" /><path
         d="m 351,6489 2160,0 0,540 -2160,0 0,-540 z"
         style="fill:none;stroke:#000000;stroke-width:4.5;stroke-linecap:butt;stroke-linejoin:miter;stroke-miterlimit:10;stroke-dasharray:none;stroke-opacity:1"
         id="path96"
         inkscape:connector-curvature="0" /><g
         id="g98"
         transform="scale(10,10)"><text
           transform="matrix(1,0,0,-1,107.1,126.9)"
           style="font-variant:normal;font-weight:normal;font-size:16.20000076px;font-family:Times;-inkscape-font-specification:Times-Roman;writing-mode:lr-tb;fill:#000000;fill-opacity:1;fill-rule:nonzero;stroke:none"
           id="text100"><tspan
             x="0 12.6036 20.7036 26.0982 33.291 37.341 43.642799 48.1464 55.339199 63.439201 69.740997 73.791"
             y="0"
             sodipodi:role="line"
             id="tspan102">more steps ?</tspan><tspan
             x="144 155.6964 165.5946"
             y="-18"
             sodipodi:role="line"
             id="tspan104">YES</tspan><tspan
             x="-54 -46.807201 -38.707199 -26.1036 -18.003599 -9.9035997 -5.4000001 1.7927999 9.8928003 15.2874 23.3874 28.782 35.9748 43.167599"
             y="-360"
             sodipodi:role="line"
             id="tspan106">compute_forces</tspan></text>
<text
           transform="matrix(1,0,0,-1,-0.9,567.9)"
           style="font-variant:normal;font-weight:normal;font-size:32.40000153px;font-family:Times;-inkscape-font-specification:Times-Roman;writing-mode:lr-tb;fill:#000000;fill-opacity:1;fill-rule:nonzero;stroke:none"
           id="text108"><tspan
             x="0"
             y="0"
             id="tspan110">*</tspan><tspan
             x="0"
             y="175.5"
             id="tspan112">*</tspan></text>
<text
           transform="matrix(1,0,0,-1,53.1,666.9)"
           style="font-variant:normal;font-weight:normal;font-size:16.20000076px;font-family:Times;-inkscape-font-specification:Times-Roman;writing-mode:lr-tb;fill:#000000;fill-opacity:1;fill-rule:nonzero;stroke:none"
           id="text114"><tspan
             x="0 5.3945999 12.5874 18.8892 26.082001 30.5856 38.6856 44.0802 52.180199 56.6838 64.783798 72.883797 80.983803 89.083801"
             y="0"
             sodipodi:role="line"
             id="tspan116">reset_r_in_box</tspan><tspan
             x="0 7.1928 15.2928 27.8964 40.5 48.599998 56.700001 61.203602 68.3964 75.589203 80.092796 87.285599 95.385597"
             y="90"
             sodipodi:role="line"
             id="tspan118">communicate_r</tspan><tspan
             x="0 7.1928 15.2928 27.8964 40.5 48.599998 56.700001 61.203602 68.3964 75.589203 80.092796 87.285599 95.385597 102.5784 110.6784 118.7784 126.8784 133.18021 141.2802 153.8838 161.9838"
             y="270"
             sodipodi:role="line"
             id="tspan120">communicate_and_sum_f</tspan></text>
</g></g></g></svg>