<?xml version="1.0" encoding="UTF-8" standalone="no"?>
<!-- Created with Inkscape (http://www.inkscape.org/) -->

<svg
   xmlns:dc="http://purl.org/dc/elements/1.1/"
   xmlns:cc="http://creativecommons.org/ns#"
   xmlns:rdf="http://www.w3.org/1999/02/22-rdf-syntax-ns#"
   xmlns:svg="http://www.w3.org/2000/svg"
   xmlns="http://www.w3.org/2000/svg"
   xmlns:sodipodi="http://sodipodi.sourceforge.net/DTD/sodipodi-0.dtd"
   xmlns:inkscape="http://www.inkscape.org/namespaces/inkscape"
   id="svg2"
   version="1.1"
   inkscape:version="0.91 r13725"
   xml:space="preserve"
   width="511.25"
   height="196.25"
   viewBox="0 0 511.25 196.25"
   sodipodi:docname="parsort.svg"><metadata
     id="metadata8"><rdf:RDF><cc:Work
         rdf:about=""><dc:format>image/svg+xml</dc:format><dc:type
           rdf:resource="http://purl.org/dc/dcmitype/StillImage" /><dc:title></dc:title></cc:Work></rdf:RDF></metadata><defs
     id="defs6"><clipPath
       clipPathUnits="userSpaceOnUse"
       id="clipPath22"><path
         d="m 0,0 0,1570 4090,0 L 4090,0 0,0 Z M 915.801,930.801 867.199,875 883.398,947 839.602,860 872,843.801 l 43.801,87 z"
         id="path24"
         inkscape:connector-curvature="0" /></clipPath><clipPath
       clipPathUnits="userSpaceOnUse"
       id="clipPath36"><path
         d="m 0,0 0,1570 4090,0 L 4090,0 0,0 Z m 1336.4,924.199 49.8,-55.199 -69.6,25.199 81,-54 19.8,30 -81,54 z"
         id="path38"
         inkscape:connector-curvature="0" /></clipPath><clipPath
       clipPathUnits="userSpaceOnUse"
       id="clipPath50"><path
         d="m 0,0 0,1570 4090,0 L 4090,0 0,0 Z M 1123.4,894.199 1053.2,869 l 50.4,55.199 -81,-54 19.8,-30 81,54 z"
         id="path52"
         inkscape:connector-curvature="0" /></clipPath><clipPath
       clipPathUnits="userSpaceOnUse"
       id="clipPath64"><path
         d="m 0,0 0,1570 4090,0 L 4090,0 0,0 Z m 1778,948.199 -18,-72 -18,72 0,-97.199 36,0 0,97.199 z"
         id="path66"
         inkscape:connector-curvature="0" /></clipPath><clipPath
       clipPathUnits="userSpaceOnUse"
       id="clipPath78"><path
         d="m 0,0 0,1570 4090,0 L 4090,0 0,0 Z m 1556.6,947 15.6,-72 -48,55.801 43.8,-87 32.4,16.199 -43.8,87 z"
         id="path80"
         inkscape:connector-curvature="0" /></clipPath><clipPath
       clipPathUnits="userSpaceOnUse"
       id="clipPath92"><path
         d="m 0,0 0,1570 4090,0 L 4090,0 0,0 Z m 1869.2,915.801 55.8,-48 -72,15.597 87,-43.796 16.2,32.398 -87,43.801 z"
         id="path94"
         inkscape:connector-curvature="0" /></clipPath></defs><sodipodi:namedview
     pagecolor="#ffffff"
     bordercolor="#666666"
     borderopacity="1"
     objecttolerance="10"
     gridtolerance="10"
     guidetolerance="10"
     inkscape:pageopacity="0"
     inkscape:pageshadow="2"
     inkscape:window-width="640"
     inkscape:window-height="480"
     id="namedview4"
     showgrid="false"
     inkscape:zoom="0.72176039"
     inkscape:cx="255.625"
     inkscape:cy="98.125"
     inkscape:window-x="0"
     inkscape:window-y="25"
     inkscape:window-maximized="0"
     inkscape:current-layer="g10" /><g
     id="g10"
     inkscape:groupmode="layer"
     inkscape:label="ink_ext_XXXXXX"
     transform="matrix(1.25,0,0,-1.25,0,196.25)"><g
       id="g12"
       transform="scale(0.1,0.1)"><path
         d="m 770,1220 3240,0 0,180 -3240,0 0,-180 z"
         style="fill:none;stroke:#000000;stroke-width:4.5;stroke-linecap:butt;stroke-linejoin:miter;stroke-miterlimit:10;stroke-dasharray:none;stroke-opacity:1"
         id="path14"
         inkscape:connector-curvature="0" /><path
         d="m 770,320 3240,0 0,540 -3240,0 0,-540 z"
         style="fill:none;stroke:#000000;stroke-width:4.5;stroke-linecap:butt;stroke-linejoin:miter;stroke-miterlimit:10;stroke-dasharray:none;stroke-opacity:1"
         id="path16"
         inkscape:connector-curvature="0" /><g
         id="g18"><g
           id="g20"
           clip-path="url(#clipPath22)"><path
             d="M 1040,1220 860,860"
             style="fill:none;stroke:#000000;stroke-width:4.5;stroke-linecap:butt;stroke-linejoin:miter;stroke-miterlimit:10;stroke-dasharray:none;stroke-opacity:1"
             id="path26"
             inkscape:connector-curvature="0" /></g></g><path
         d="M 915.801,930.801 867.199,875 l 16.199,72 16.204,-8.398 16.199,-7.801"
         style="fill:#000000;fill-opacity:1;fill-rule:evenodd;stroke:none"
         id="path28"
         inkscape:connector-curvature="0" /><path
         d="M 915.801,930.801 867.199,875 l 16.199,72 16.204,-8.398 16.199,-7.801 z"
         style="fill:none;stroke:#000000;stroke-width:4.5;stroke-linecap:butt;stroke-linejoin:miter;stroke-miterlimit:10;stroke-dasharray:none;stroke-opacity:1"
         id="path30"
         inkscape:connector-curvature="0" /><g
         id="g32"><g
           id="g34"
           clip-path="url(#clipPath36)"><path
             d="M 860,1220 1400,860"
             style="fill:none;stroke:#000000;stroke-width:4.5;stroke-linecap:butt;stroke-linejoin:miter;stroke-miterlimit:10;stroke-dasharray:none;stroke-opacity:1"
             id="path40"
             inkscape:connector-curvature="0" /></g></g><path
         d="m 1336.4,924.199 49.8,-55.199 -69.6,25.199 10.2,15 9.6,15"
         style="fill:#000000;fill-opacity:1;fill-rule:evenodd;stroke:none"
         id="path42"
         inkscape:connector-curvature="0" /><path
         d="m 1336.4,924.199 49.8,-55.199 -69.6,25.199 10.2,15 9.6,15 z"
         style="fill:none;stroke:#000000;stroke-width:4.5;stroke-linecap:butt;stroke-linejoin:miter;stroke-miterlimit:10;stroke-dasharray:none;stroke-opacity:1"
         id="path44"
         inkscape:connector-curvature="0" /><g
         id="g46"><g
           id="g48"
           clip-path="url(#clipPath50)"><path
             d="M 1580,1220 1040,860"
             style="fill:none;stroke:#000000;stroke-width:4.5;stroke-linecap:butt;stroke-linejoin:miter;stroke-miterlimit:10;stroke-dasharray:none;stroke-opacity:1"
             id="path54"
             inkscape:connector-curvature="0" /></g></g><path
         d="M 1123.4,894.199 1053.2,869 l 50.4,55.199 9.6,-15 10.2,-15"
         style="fill:#000000;fill-opacity:1;fill-rule:evenodd;stroke:none"
         id="path56"
         inkscape:connector-curvature="0" /><path
         d="M 1123.4,894.199 1053.2,869 l 50.4,55.199 9.6,-15 10.2,-15 z"
         style="fill:none;stroke:#000000;stroke-width:4.5;stroke-linecap:butt;stroke-linejoin:miter;stroke-miterlimit:10;stroke-dasharray:none;stroke-opacity:1"
         id="path58"
         inkscape:connector-curvature="0" /><g
         id="g60"><g
           id="g62"
           clip-path="url(#clipPath64)"><path
             d="m 1760,1220 0,-360"
             style="fill:none;stroke:#000000;stroke-width:4.5;stroke-linecap:butt;stroke-linejoin:miter;stroke-miterlimit:10;stroke-dasharray:none;stroke-opacity:1"
             id="path68"
             inkscape:connector-curvature="0" /></g></g><path
         d="m 1778,948.199 -18,-72 -18,72 36,0"
         style="fill:#000000;fill-opacity:1;fill-rule:evenodd;stroke:none"
         id="path70"
         inkscape:connector-curvature="0" /><path
         d="m 1778,948.199 -18,-72 -18,72 36,0 z"
         style="fill:none;stroke:#000000;stroke-width:4.5;stroke-linecap:butt;stroke-linejoin:miter;stroke-miterlimit:10;stroke-dasharray:none;stroke-opacity:1"
         id="path72"
         inkscape:connector-curvature="0" /><g
         id="g74"><g
           id="g76"
           clip-path="url(#clipPath78)"><path
             d="M 1400,1220 1580,860"
             style="fill:none;stroke:#000000;stroke-width:4.5;stroke-linecap:butt;stroke-linejoin:miter;stroke-miterlimit:10;stroke-dasharray:none;stroke-opacity:1"
             id="path82"
             inkscape:connector-curvature="0" /></g></g><path
         d="m 1556.6,947 15.6,-72 -48,55.801 16.2,7.801 16.2,8.398"
         style="fill:#000000;fill-opacity:1;fill-rule:evenodd;stroke:none"
         id="path84"
         inkscape:connector-curvature="0" /><path
         d="m 1556.6,947 15.6,-72 -48,55.801 16.2,7.801 16.2,8.398 z"
         style="fill:none;stroke:#000000;stroke-width:4.5;stroke-linecap:butt;stroke-linejoin:miter;stroke-miterlimit:10;stroke-dasharray:none;stroke-opacity:1"
         id="path86"
         inkscape:connector-curvature="0" /><g
         id="g88"><g
           id="g90"
           clip-path="url(#clipPath92)"><path
             d="M 1220,1220 1940,860"
             style="fill:none;stroke:#000000;stroke-width:4.5;stroke-linecap:butt;stroke-linejoin:miter;stroke-miterlimit:10;stroke-dasharray:none;stroke-opacity:1"
             id="path96"
             inkscape:connector-curvature="0" /></g></g><path
         d="m 1869.2,915.801 55.8,-48 -72,15.597 8.4,16.204 7.8,16.199"
         style="fill:#000000;fill-opacity:1;fill-rule:evenodd;stroke:none"
         id="path98"
         inkscape:connector-curvature="0" /><path
         d="m 1869.2,915.801 55.8,-48 -72,15.597 8.4,16.204 7.8,16.199 z"
         style="fill:none;stroke:#000000;stroke-width:4.5;stroke-linecap:butt;stroke-linejoin:miter;stroke-miterlimit:10;stroke-dasharray:none;stroke-opacity:1"
         id="path100"
         inkscape:connector-curvature="0" /><path
         d="m 1310,1400 0,-180"
         style="fill:none;stroke:#000000;stroke-width:4.5;stroke-linecap:butt;stroke-linejoin:miter;stroke-miterlimit:10;stroke-dasharray:36;stroke-dashoffset:0;stroke-opacity:1"
         id="path102"
         inkscape:connector-curvature="0" /><path
         d="m 1850,1400 0,-180"
         style="fill:none;stroke:#000000;stroke-width:4.5;stroke-linecap:butt;stroke-linejoin:miter;stroke-miterlimit:10;stroke-dasharray:36;stroke-dashoffset:0;stroke-opacity:1"
         id="path104"
         inkscape:connector-curvature="0" /><path
         d="m 2390,1400 0,-180"
         style="fill:none;stroke:#000000;stroke-width:4.5;stroke-linecap:butt;stroke-linejoin:miter;stroke-miterlimit:10;stroke-dasharray:36;stroke-dashoffset:0;stroke-opacity:1"
         id="path106"
         inkscape:connector-curvature="0" /><path
         d="m 2930,1400 0,-180"
         style="fill:none;stroke:#000000;stroke-width:4.5;stroke-linecap:butt;stroke-linejoin:miter;stroke-miterlimit:10;stroke-dasharray:36;stroke-dashoffset:0;stroke-opacity:1"
         id="path108"
         inkscape:connector-curvature="0" /><path
         d="m 3470,1400 0,-180"
         style="fill:none;stroke:#000000;stroke-width:4.5;stroke-linecap:butt;stroke-linejoin:miter;stroke-miterlimit:10;stroke-dasharray:36;stroke-dashoffset:0;stroke-opacity:1"
         id="path110"
         inkscape:connector-curvature="0" /><path
         d="m 950,860 0,-540"
         style="fill:none;stroke:#000000;stroke-width:4.5;stroke-linecap:butt;stroke-linejoin:miter;stroke-miterlimit:10;stroke-dasharray:none;stroke-opacity:1"
         id="path112"
         inkscape:connector-curvature="0" /><path
         d="m 1130,860 0,-540"
         style="fill:none;stroke:#000000;stroke-width:4.5;stroke-linecap:butt;stroke-linejoin:miter;stroke-miterlimit:10;stroke-dasharray:none;stroke-opacity:1"
         id="path114"
         inkscape:connector-curvature="0" /><path
         d="m 1310,860 0,-540"
         style="fill:none;stroke:#000000;stroke-width:4.5;stroke-linecap:butt;stroke-linejoin:miter;stroke-miterlimit:10;stroke-dasharray:none;stroke-opacity:1"
         id="path116"
         inkscape:connector-curvature="0" /><path
         d="m 1490,860 0,-540"
         style="fill:none;stroke:#000000;stroke-width:4.5;stroke-linecap:butt;stroke-linejoin:miter;stroke-miterlimit:10;stroke-dasharray:none;stroke-opacity:1"
         id="path118"
         inkscape:connector-curvature="0" /><path
         d="m 1670,860 0,-540"
         style="fill:none;stroke:#000000;stroke-width:4.5;stroke-linecap:butt;stroke-linejoin:miter;stroke-miterlimit:10;stroke-dasharray:none;stroke-opacity:1"
         id="path120"
         inkscape:connector-curvature="0" /><path
         d="m 1850,860 0,-540"
         style="fill:none;stroke:#000000;stroke-width:4.5;stroke-linecap:butt;stroke-linejoin:miter;stroke-miterlimit:10;stroke-dasharray:none;stroke-opacity:1"
         id="path122"
         inkscape:connector-curvature="0" /><path
         d="m 2030,860 0,-540"
         style="fill:none;stroke:#000000;stroke-width:4.5;stroke-linecap:butt;stroke-linejoin:miter;stroke-miterlimit:10;stroke-dasharray:none;stroke-opacity:1"
         id="path124"
         inkscape:connector-curvature="0" /><path
         d="m 2210,860 0,-540"
         style="fill:none;stroke:#000000;stroke-width:4.5;stroke-linecap:butt;stroke-linejoin:miter;stroke-miterlimit:10;stroke-dasharray:none;stroke-opacity:1"
         id="path126"
         inkscape:connector-curvature="0" /><path
         d="m 2390,860 0,-540"
         style="fill:none;stroke:#000000;stroke-width:4.5;stroke-linecap:butt;stroke-linejoin:miter;stroke-miterlimit:10;stroke-dasharray:none;stroke-opacity:1"
         id="path128"
         inkscape:connector-curvature="0" /><path
         d="m 2570,860 0,-540"
         style="fill:none;stroke:#000000;stroke-width:4.5;stroke-linecap:butt;stroke-linejoin:miter;stroke-miterlimit:10;stroke-dasharray:none;stroke-opacity:1"
         id="path130"
         inkscape:connector-curvature="0" /><path
         d="m 3830,860 0,-540"
         style="fill:none;stroke:#000000;stroke-width:4.5;stroke-linecap:butt;stroke-linejoin:miter;stroke-miterlimit:10;stroke-dasharray:none;stroke-opacity:1"
         id="path132"
         inkscape:connector-curvature="0" /><path
         d="m 3650,860 0,-540"
         style="fill:none;stroke:#000000;stroke-width:4.5;stroke-linecap:butt;stroke-linejoin:miter;stroke-miterlimit:10;stroke-dasharray:none;stroke-opacity:1"
         id="path134"
         inkscape:connector-curvature="0" /><path
         d="m 3470,860 0,-540"
         style="fill:none;stroke:#000000;stroke-width:4.5;stroke-linecap:butt;stroke-linejoin:miter;stroke-miterlimit:10;stroke-dasharray:none;stroke-opacity:1"
         id="path136"
         inkscape:connector-curvature="0" /><path
         d="m 3290,860 0,-540"
         style="fill:none;stroke:#000000;stroke-width:4.5;stroke-linecap:butt;stroke-linejoin:miter;stroke-miterlimit:10;stroke-dasharray:none;stroke-opacity:1"
         id="path138"
         inkscape:connector-curvature="0" /><path
         d="m 3110,860 0,-540"
         style="fill:none;stroke:#000000;stroke-width:4.5;stroke-linecap:butt;stroke-linejoin:miter;stroke-miterlimit:10;stroke-dasharray:none;stroke-opacity:1"
         id="path140"
         inkscape:connector-curvature="0" /><path
         d="m 2930,860 0,-540"
         style="fill:none;stroke:#000000;stroke-width:4.5;stroke-linecap:butt;stroke-linejoin:miter;stroke-miterlimit:10;stroke-dasharray:none;stroke-opacity:1"
         id="path142"
         inkscape:connector-curvature="0" /><path
         d="m 2750,860 0,-540"
         style="fill:none;stroke:#000000;stroke-width:4.5;stroke-linecap:butt;stroke-linejoin:miter;stroke-miterlimit:10;stroke-dasharray:none;stroke-opacity:1"
         id="path144"
         inkscape:connector-curvature="0" /><g
         id="g146"
         transform="scale(10,10)"><text
           transform="matrix(1,0,0,-1,59,72.5)"
           style="font-variant:normal;font-weight:normal;font-size:16.20000076px;font-family:Times;-inkscape-font-specification:Times-Roman;writing-mode:lr-tb;fill:#000000;fill-opacity:1;fill-rule:nonzero;stroke:none"
           id="text148"><tspan
             x="0"
             y="0"
             id="tspan150">X</tspan><tspan
             x="0"
             y="18"
             id="tspan152">Y</tspan><tspan
             x="0"
             y="36"
             id="tspan154">Z</tspan><tspan
             x="22.5 40.5 58.499996 319.49982 331.19623 336.59082"
             y="58.5"
             sodipodi:role="line"
             id="tspan156">012N-1</tspan><tspan
             x="40.5 94.499947 148.49989 202.49983 256.49979 310.49973"
             y="-54"
             sodipodi:role="line"
             id="tspan158">012345</tspan><tspan
             x="108 118.8054 127.8126 139.509 143.55901 151.659 159.759 172.36259 180.4626 187.6554"
             y="-72"
             sodipodi:role="line"
             id="tspan160">CPU number</tspan><tspan
             x="103.5 110.6928 115.1964 123.2964 135.89999 139.95 148.05 156.14999 168.7536 176.85361 184.0464"
             y="72"
             sodipodi:role="line"
             id="tspan162">atom number</tspan><tspan
             x="-58.5 -53.996399 -45.8964 -37.796398 -30.6036"
             y="-54"
             sodipodi:role="line"
             id="tspan164">index</tspan><tspan
             x="-58.5 -51.307201 -43.207199 -35.107201 -29.712601 -21.6126"
             y="18"
             sodipodi:role="line"
             id="tspan166">coord.</tspan></text>
</g></g></g></svg>