<?xml version="1.0" encoding="UTF-8" standalone="no"?>
<!-- Created with Inkscape (http://www.inkscape.org/) -->

<svg
   xmlns:dc="http://purl.org/dc/elements/1.1/"
   xmlns:cc="http://creativecommons.org/ns#"
   xmlns:rdf="http://www.w3.org/1999/02/22-rdf-syntax-ns#"
   xmlns:svg="http://www.w3.org/2000/svg"
   xmlns="http://www.w3.org/2000/svg"
   xmlns:sodipodi="http://sodipodi.sourceforge.net/DTD/sodipodi-0.dtd"
   xmlns:inkscape="http://www.inkscape.org/namespaces/inkscape"
   id="svg2"
   version="1.1"
   inkscape:version="0.91 r13725"
   xml:space="preserve"
   width="570"
   height="546.25"
   viewBox="0 0 570 546.25"
   sodipodi:docname="pbctric.svg"><metadata
     id="metadata8"><rdf:RDF><cc:Work
         rdf:about=""><dc:format>image/svg+xml</dc:format><dc:type
           rdf:resource="http://purl.org/dc/dcmitype/StillImage" /><dc:title></dc:title></cc:Work></rdf:RDF></metadata><defs
     id="defs6" /><sodipodi:namedview
     pagecolor="#ffffff"
     bordercolor="#666666"
     borderopacity="1"
     objecttolerance="10"
     gridtolerance="10"
     guidetolerance="10"
     inkscape:pageopacity="0"
     inkscape:pageshadow="2"
     inkscape:window-width="760"
     inkscape:window-height="480"
     id="namedview4"
     showgrid="false"
     inkscape:zoom="0.43203661"
     inkscape:cx="285"
     inkscape:cy="273.125"
     inkscape:window-x="0"
     inkscape:window-y="25"
     inkscape:window-maximized="0"
     inkscape:current-layer="g10" /><g
     id="g10"
     inkscape:groupmode="layer"
     inkscape:label="ink_ext_XXXXXX"
     transform="matrix(1.25,0,0,-1.25,0,546.25)"><g
       id="g12"
       transform="scale(0.1,0.1)"><path
         d="m 2206,844 c 0,-159.055 -128.95,-288 -288,-288 -159.05,0 -288,128.945 -288,288 0,159.05 128.95,288 288,288 159.05,0 288,-128.95 288,-288 z"
         style="fill:none;stroke:#000000;stroke-width:3.5999999;stroke-linecap:round;stroke-linejoin:miter;stroke-miterlimit:10;stroke-dasharray:7.2, 24;stroke-dashoffset:24;stroke-opacity:1"
         id="path14"
         inkscape:connector-curvature="0" /><path
         d="m 2206,3148 c 0,-159.05 -128.95,-288 -288,-288 -159.05,0 -288,128.95 -288,288 0,159.05 128.95,288 288,288 159.05,0 288,-128.95 288,-288 z"
         style="fill:none;stroke:#000000;stroke-width:3.5999999;stroke-linecap:round;stroke-linejoin:miter;stroke-miterlimit:10;stroke-dasharray:7.2, 24;stroke-dashoffset:24;stroke-opacity:1"
         id="path16"
         inkscape:connector-curvature="0" /><g
         id="g18"
         transform="scale(10,10)"><text
           transform="matrix(1,0,0,-1,285.4,170.8)"
           style="font-style:italic;font-variant:normal;font-weight:bold;font-size:12.96000004px;font-family:Times;-inkscape-font-specification:Times-BoldItalic;writing-mode:lr-tb;fill:#000000;fill-opacity:1;fill-rule:nonzero;stroke:none"
           id="text20"><tspan
             x="0 3.60288"
             y="0"
             sodipodi:role="line"
             id="tspan22">j’</tspan></text>
</g><path
         d="m 2818,1780 c 0,-19.88 -16.12,-36 -36,-36 -19.88,0 -36,16.12 -36,36 0,19.88 16.12,36 36,36 19.88,0 36,-16.12 36,-36 z"
         style="fill:none;stroke:#000000;stroke-width:7.19999981;stroke-linecap:round;stroke-linejoin:miter;stroke-miterlimit:10;stroke-dasharray:none;stroke-opacity:1"
         id="path24"
         inkscape:connector-curvature="0" /><g
         id="g26"
         transform="scale(10,10)"><text
           transform="matrix(1,0,0,-1,400.6,170.8)"
           style="font-style:italic;font-variant:normal;font-weight:bold;font-size:12.96000004px;font-family:Times;-inkscape-font-specification:Times-BoldItalic;writing-mode:lr-tb;fill:#000000;fill-opacity:1;fill-rule:nonzero;stroke:none"
           id="text28"><tspan
             x="0 3.60288"
             y="0"
             sodipodi:role="line"
             id="tspan30">j’</tspan></text>
</g><path
         d="m 370,3040 3456,0"
         style="fill:none;stroke:#000000;stroke-width:3.5999999;stroke-linecap:butt;stroke-linejoin:miter;stroke-miterlimit:10;stroke-dasharray:32.016;stroke-dashoffset:0;stroke-opacity:1"
         id="path32"
         inkscape:connector-curvature="0" /><path
         d="m 1522,2320 0,2016"
         style="fill:none;stroke:#000000;stroke-width:7.19999981;stroke-linecap:butt;stroke-linejoin:miter;stroke-miterlimit:10;stroke-dasharray:none;stroke-opacity:1"
         id="path34"
         inkscape:connector-curvature="0" /><path
         d="m 226,3040 3744,0"
         style="fill:none;stroke:#000000;stroke-width:7.19999981;stroke-linecap:butt;stroke-linejoin:miter;stroke-miterlimit:10;stroke-dasharray:none;stroke-opacity:1"
         id="path36"
         inkscape:connector-curvature="0" /><path
         d="m 4114,1312 0,0"
         style="fill:none;stroke:#000000;stroke-width:3.5999999;stroke-linecap:butt;stroke-linejoin:miter;stroke-miterlimit:10;stroke-dasharray:none;stroke-opacity:1"
         id="path38"
         inkscape:connector-curvature="0" /><path
         d="m 4114,1312 0,0"
         style="fill:none;stroke:#000000;stroke-width:3.5999999;stroke-linecap:butt;stroke-linejoin:miter;stroke-miterlimit:10;stroke-dasharray:none;stroke-opacity:1"
         id="path40"
         inkscape:connector-curvature="0" /><path
         d="m 1522,16 0,2016"
         style="fill:none;stroke:#000000;stroke-width:7.19999981;stroke-linecap:butt;stroke-linejoin:miter;stroke-miterlimit:10;stroke-dasharray:none;stroke-opacity:1"
         id="path42"
         inkscape:connector-curvature="0" /><path
         d="m 226,736 3744,0"
         style="fill:none;stroke:#000000;stroke-width:7.19999981;stroke-linecap:butt;stroke-linejoin:miter;stroke-miterlimit:10;stroke-dasharray:none;stroke-opacity:1"
         id="path44"
         inkscape:connector-curvature="0" /><path
         d="m 3970,1780 c 0,-19.88 -16.12,-36 -36,-36 -19.88,0 -36,16.12 -36,36 0,19.88 16.12,36 36,36 19.88,0 36,-16.12 36,-36 z"
         style="fill:none;stroke:#000000;stroke-width:7.19999981;stroke-linecap:butt;stroke-linejoin:miter;stroke-miterlimit:10;stroke-dasharray:none;stroke-opacity:1"
         id="path46"
         inkscape:connector-curvature="0" /><path
         d="m 442,268 c 0,-19.879 -16.121,-36 -36,-36 -19.879,0 -36,16.121 -36,36 0,19.879 16.121,36 36,36 19.879,0 36,-16.121 36,-36"
         style="fill:#000000;fill-opacity:1;fill-rule:evenodd;stroke:none"
         id="path48"
         inkscape:connector-curvature="0" /><path
         d="m 442,268 c 0,-19.879 -16.121,-36 -36,-36 -19.879,0 -36,16.121 -36,36 0,19.879 16.121,36 36,36 19.879,0 36,-16.121 36,-36 z"
         style="fill:none;stroke:#000000;stroke-width:7.19999981;stroke-linecap:butt;stroke-linejoin:miter;stroke-miterlimit:10;stroke-dasharray:none;stroke-opacity:1"
         id="path50"
         inkscape:connector-curvature="0" /><g
         id="g52"
         transform="scale(10,10)"><text
           transform="matrix(1,0,0,-1,163,250)"
           style="font-style:italic;font-variant:normal;font-weight:bold;font-size:12.96000004px;font-family:Times;-inkscape-font-specification:Times-BoldItalic;writing-mode:lr-tb;fill:#000000;fill-opacity:1;fill-rule:nonzero;stroke:none"
           id="text54"><tspan
             x="0 3.60288"
             y="0"
             sodipodi:role="line"
             id="tspan56">i’</tspan></text>
</g><path
         d="m 1594,2572 c 0,-19.88 -16.12,-36 -36,-36 -19.88,0 -36,16.12 -36,36 0,19.88 16.12,36 36,36 19.88,0 36,-16.12 36,-36"
         style="fill:#000000;fill-opacity:1;fill-rule:evenodd;stroke:none"
         id="path58"
         inkscape:connector-curvature="0" /><path
         d="m 1594,2572 c 0,-19.88 -16.12,-36 -36,-36 -19.88,0 -36,16.12 -36,36 0,19.88 16.12,36 36,36 19.88,0 36,-16.12 36,-36 z"
         style="fill:none;stroke:#000000;stroke-width:7.19999981;stroke-linecap:butt;stroke-linejoin:miter;stroke-miterlimit:10;stroke-dasharray:none;stroke-opacity:1"
         id="path60"
         inkscape:connector-curvature="0" /><g
         id="g62"
         transform="scale(10,10)"><text
           transform="matrix(1,0,0,-1,278.2,250)"
           style="font-style:italic;font-variant:normal;font-weight:bold;font-size:12.96000004px;font-family:Times;-inkscape-font-specification:Times-BoldItalic;writing-mode:lr-tb;fill:#000000;fill-opacity:1;fill-rule:nonzero;stroke:none"
           id="text64"><tspan
             x="0 3.60288"
             y="0"
             sodipodi:role="line"
             id="tspan66">i’</tspan></text>
</g><path
         d="m 2746,2572 c 0,-19.88 -16.12,-36 -36,-36 -19.88,0 -36,16.12 -36,36 0,19.88 16.12,36 36,36 19.88,0 36,-16.12 36,-36"
         style="fill:#000000;fill-opacity:1;fill-rule:evenodd;stroke:none"
         id="path68"
         inkscape:connector-curvature="0" /><path
         d="m 2746,2572 c 0,-19.88 -16.12,-36 -36,-36 -19.88,0 -36,16.12 -36,36 0,19.88 16.12,36 36,36 19.88,0 36,-16.12 36,-36 z"
         style="fill:none;stroke:#000000;stroke-width:7.19999981;stroke-linecap:butt;stroke-linejoin:miter;stroke-miterlimit:10;stroke-dasharray:none;stroke-opacity:1"
         id="path70"
         inkscape:connector-curvature="0" /><g
         id="g72"
         transform="scale(10,10)"><text
           transform="matrix(1,0,0,-1,47.8,250)"
           style="font-style:italic;font-variant:normal;font-weight:bold;font-size:12.96000004px;font-family:Times;-inkscape-font-specification:Times-BoldItalic;writing-mode:lr-tb;fill:#000000;fill-opacity:1;fill-rule:nonzero;stroke:none"
           id="text74"><tspan
             x="0 3.60288"
             y="0"
             sodipodi:role="line"
             id="tspan76">i’</tspan><tspan
             x="0 3.60288"
             y="230.39999"
             sodipodi:role="line"
             id="tspan78">i’</tspan><tspan
             x="122.4 126.00288"
             y="79.199997"
             sodipodi:role="line"
             id="tspan80">j’</tspan></text>
</g><path
         d="m 1666,1780 c 0,-19.88 -16.12,-36 -36,-36 -19.88,0 -36,16.12 -36,36 0,19.88 16.12,36 36,36 19.88,0 36,-16.12 36,-36 z"
         style="fill:none;stroke:#000000;stroke-width:7.19999981;stroke-linecap:butt;stroke-linejoin:miter;stroke-miterlimit:10;stroke-dasharray:none;stroke-opacity:1"
         id="path82"
         inkscape:connector-curvature="0" /><g
         id="g84"
         transform="scale(10,10)"><text
           transform="matrix(1,0,0,-1,163,19.6)"
           style="font-style:italic;font-variant:normal;font-weight:bold;font-size:12.96000004px;font-family:Times;-inkscape-font-specification:Times-BoldItalic;writing-mode:lr-tb;fill:#000000;fill-opacity:1;fill-rule:nonzero;stroke:none"
           id="text86"><tspan
             x="0 3.60288"
             y="0"
             sodipodi:role="line"
             id="tspan88">i’</tspan></text>
</g><path
         d="m 1594,268 c 0,-19.879 -16.12,-36 -36,-36 -19.88,0 -36,16.121 -36,36 0,19.879 16.12,36 36,36 19.88,0 36,-16.121 36,-36"
         style="fill:#000000;fill-opacity:1;fill-rule:evenodd;stroke:none"
         id="path90"
         inkscape:connector-curvature="0" /><path
         d="m 1594,268 c 0,-19.879 -16.12,-36 -36,-36 -19.88,0 -36,16.121 -36,36 0,19.879 16.12,36 36,36 19.88,0 36,-16.121 36,-36 z"
         style="fill:none;stroke:#000000;stroke-width:7.19999981;stroke-linecap:butt;stroke-linejoin:miter;stroke-miterlimit:10;stroke-dasharray:none;stroke-opacity:1"
         id="path92"
         inkscape:connector-curvature="0" /><g
         id="g94"
         transform="scale(10,10)"><text
           transform="matrix(1,0,0,-1,278.2,19.6)"
           style="font-style:italic;font-variant:normal;font-weight:bold;font-size:12.96000004px;font-family:Times;-inkscape-font-specification:Times-BoldItalic;writing-mode:lr-tb;fill:#000000;fill-opacity:1;fill-rule:nonzero;stroke:none"
           id="text96"><tspan
             x="0 3.60288"
             y="0"
             sodipodi:role="line"
             id="tspan98">i’</tspan></text>
</g><path
         d="m 2746,268 c 0,-19.879 -16.12,-36 -36,-36 -19.88,0 -36,16.121 -36,36 0,19.879 16.12,36 36,36 19.88,0 36,-16.121 36,-36"
         style="fill:#000000;fill-opacity:1;fill-rule:evenodd;stroke:none"
         id="path100"
         inkscape:connector-curvature="0" /><path
         d="m 2746,268 c 0,-19.879 -16.12,-36 -36,-36 -19.88,0 -36,16.121 -36,36 0,19.879 16.12,36 36,36 19.88,0 36,-16.121 36,-36 z"
         style="fill:none;stroke:#000000;stroke-width:7.19999981;stroke-linecap:butt;stroke-linejoin:miter;stroke-miterlimit:10;stroke-dasharray:none;stroke-opacity:1"
         id="path102"
         inkscape:connector-curvature="0" /><path
         d="M 1162,2464 2242,4192"
         style="fill:none;stroke:#000000;stroke-width:3.5999999;stroke-linecap:butt;stroke-linejoin:miter;stroke-miterlimit:10;stroke-dasharray:32.016;stroke-dashoffset:0;stroke-opacity:1"
         id="path104"
         inkscape:connector-curvature="0" /><path
         d="m 10,736 3816,0"
         style="fill:none;stroke:#000000;stroke-width:3.5999999;stroke-linecap:butt;stroke-linejoin:miter;stroke-miterlimit:10;stroke-dasharray:32.016;stroke-dashoffset:0;stroke-opacity:1"
         id="path106"
         inkscape:connector-curvature="0" /><path
         d="m 10,160 3456,0"
         style="fill:none;stroke:#000000;stroke-width:3.5999999;stroke-linecap:butt;stroke-linejoin:miter;stroke-miterlimit:10;stroke-dasharray:32.016;stroke-dashoffset:0;stroke-opacity:1"
         id="path108"
         inkscape:connector-curvature="0" /><path
         d="m 3466,160 0,576"
         style="fill:none;stroke:#000000;stroke-width:3.5999999;stroke-linecap:butt;stroke-linejoin:miter;stroke-miterlimit:10;stroke-dasharray:32.016;stroke-dashoffset:0;stroke-opacity:1"
         id="path110"
         inkscape:connector-curvature="0" /><path
         d="m 2314,160 0,576"
         style="fill:none;stroke:#000000;stroke-width:3.5999999;stroke-linecap:butt;stroke-linejoin:miter;stroke-miterlimit:10;stroke-dasharray:32.016;stroke-dashoffset:0;stroke-opacity:1"
         id="path112"
         inkscape:connector-curvature="0" /><path
         d="m 2674,736 0,576"
         style="fill:none;stroke:#000000;stroke-width:3.5999999;stroke-linecap:butt;stroke-linejoin:miter;stroke-miterlimit:10;stroke-dasharray:32.016;stroke-dashoffset:0;stroke-opacity:1"
         id="path114"
         inkscape:connector-curvature="0" /><path
         d="m 3826,736 0,576"
         style="fill:none;stroke:#000000;stroke-width:3.5999999;stroke-linecap:butt;stroke-linejoin:miter;stroke-miterlimit:10;stroke-dasharray:32.016;stroke-dashoffset:0;stroke-opacity:1"
         id="path116"
         inkscape:connector-curvature="0" /><path
         d="m 370,1312 3816,0"
         style="fill:none;stroke:#000000;stroke-width:3.5999999;stroke-linecap:butt;stroke-linejoin:miter;stroke-miterlimit:10;stroke-dasharray:32.016;stroke-dashoffset:0;stroke-opacity:1"
         id="path118"
         inkscape:connector-curvature="0" /><g
         id="g120"
         transform="scale(10,10)"><text
           transform="matrix(1,0,0,-1,155.8,430)"
           style="font-style:italic;font-variant:normal;font-weight:bold;font-size:12.96000004px;font-family:Times;-inkscape-font-specification:Times-BoldItalic;writing-mode:lr-tb;fill:#000000;fill-opacity:1;fill-rule:nonzero;stroke:none"
           id="text122"><tspan
             x="0"
             y="0"
             id="tspan124">y</tspan><tspan
             x="237.60001"
             y="136.8"
             id="tspan126">x</tspan><tspan
             x="0"
             y="230.39999"
             id="tspan128">y</tspan><tspan
             x="237.60001"
             y="367.20001"
             id="tspan130">x</tspan></text>
</g><path
         d="m 1522,736 1152,0 0,576 -1152,0 0,-576"
         style="fill:none;stroke:#000000;stroke-width:3.5999999;stroke-linecap:butt;stroke-linejoin:miter;stroke-miterlimit:10;stroke-dasharray:none;stroke-opacity:1"
         id="path132"
         inkscape:connector-curvature="0" /><path
         d="m 730,1888 3456,0"
         style="fill:none;stroke:#000000;stroke-width:3.5999999;stroke-linecap:butt;stroke-linejoin:miter;stroke-miterlimit:10;stroke-dasharray:32.016;stroke-dashoffset:0;stroke-opacity:1"
         id="path134"
         inkscape:connector-curvature="0" /><path
         d="m 4186,1312 0,540"
         style="fill:none;stroke:#000000;stroke-width:3.5999999;stroke-linecap:butt;stroke-linejoin:miter;stroke-miterlimit:10;stroke-dasharray:32.016;stroke-dashoffset:0;stroke-opacity:1"
         id="path136"
         inkscape:connector-curvature="0" /><path
         d="M 3394,4192 2314,2464"
         style="fill:none;stroke:#000000;stroke-width:3.5999999;stroke-linecap:butt;stroke-linejoin:miter;stroke-miterlimit:10;stroke-dasharray:32.016;stroke-dashoffset:0;stroke-opacity:1"
         id="path138"
         inkscape:connector-curvature="0" /><path
         d="m 730,3616 3456,0"
         style="fill:none;stroke:#000000;stroke-width:3.5999999;stroke-linecap:butt;stroke-linejoin:miter;stroke-miterlimit:10;stroke-dasharray:32.016;stroke-dashoffset:0;stroke-opacity:1"
         id="path140"
         inkscape:connector-curvature="0" /><path
         d="m 10,2464 3456,0"
         style="fill:none;stroke:#000000;stroke-width:3.5999999;stroke-linecap:butt;stroke-linejoin:miter;stroke-miterlimit:10;stroke-dasharray:32.016;stroke-dashoffset:0;stroke-opacity:1"
         id="path142"
         inkscape:connector-curvature="0" /><path
         d="M 4546,4192 3466,2464"
         style="fill:none;stroke:#000000;stroke-width:3.5999999;stroke-linecap:butt;stroke-linejoin:miter;stroke-miterlimit:10;stroke-dasharray:32.016;stroke-dashoffset:0;stroke-opacity:1"
         id="path144"
         inkscape:connector-curvature="0" /><path
         d="M 1090,4192 10,2464"
         style="fill:none;stroke:#000000;stroke-width:3.5999999;stroke-linecap:butt;stroke-linejoin:miter;stroke-miterlimit:10;stroke-dasharray:32.016;stroke-dashoffset:0;stroke-opacity:1"
         id="path146"
         inkscape:connector-curvature="0" /><path
         d="m 1090,4192 3456,0"
         style="fill:none;stroke:#000000;stroke-width:3.5999999;stroke-linecap:butt;stroke-linejoin:miter;stroke-miterlimit:10;stroke-dasharray:32.016;stroke-dashoffset:0;stroke-opacity:1"
         id="path148"
         inkscape:connector-curvature="0" /><path
         d="m 1522,3040 1152,0 360,576 -1152,0 -360,-576"
         style="fill:none;stroke:#000000;stroke-width:3.5999999;stroke-linecap:butt;stroke-linejoin:miter;stroke-miterlimit:10;stroke-dasharray:none;stroke-opacity:1"
         id="path150"
         inkscape:connector-curvature="0" /><path
         d="m 3034,1312 0,540"
         style="fill:none;stroke:#000000;stroke-width:3.5999999;stroke-linecap:butt;stroke-linejoin:miter;stroke-miterlimit:10;stroke-dasharray:32.016;stroke-dashoffset:0;stroke-opacity:1"
         id="path152"
         inkscape:connector-curvature="0" /><path
         d="m 1882,1348 0,540"
         style="fill:none;stroke:#000000;stroke-width:3.5999999;stroke-linecap:butt;stroke-linejoin:miter;stroke-miterlimit:10;stroke-dasharray:32.016;stroke-dashoffset:0;stroke-opacity:1"
         id="path154"
         inkscape:connector-curvature="0" /><path
         d="m 730,1312 0,576"
         style="fill:none;stroke:#000000;stroke-width:3.5999999;stroke-linecap:butt;stroke-linejoin:miter;stroke-miterlimit:10;stroke-dasharray:32.016;stroke-dashoffset:0;stroke-opacity:1"
         id="path156"
         inkscape:connector-curvature="0" /><path
         d="m 370,736 0,576"
         style="fill:none;stroke:#000000;stroke-width:3.5999999;stroke-linecap:butt;stroke-linejoin:miter;stroke-miterlimit:10;stroke-dasharray:32.016;stroke-dashoffset:0;stroke-opacity:1"
         id="path158"
         inkscape:connector-curvature="0" /><path
         d="m 10,160 0,576"
         style="fill:none;stroke:#000000;stroke-width:3.5999999;stroke-linecap:butt;stroke-linejoin:miter;stroke-miterlimit:10;stroke-dasharray:32.016;stroke-dashoffset:0;stroke-opacity:1"
         id="path160"
         inkscape:connector-curvature="0" /><path
         d="m 1162,160 0,576"
         style="fill:none;stroke:#000000;stroke-width:3.5999999;stroke-linecap:butt;stroke-linejoin:miter;stroke-miterlimit:10;stroke-dasharray:32.016;stroke-dashoffset:0;stroke-opacity:1"
         id="path162"
         inkscape:connector-curvature="0" /><path
         d="m 442,2572 c 0,-19.88 -16.121,-36 -36,-36 -19.879,0 -36,16.12 -36,36 0,19.88 16.121,36 36,36 19.879,0 36,-16.12 36,-36"
         style="fill:#000000;fill-opacity:1;fill-rule:evenodd;stroke:none"
         id="path164"
         inkscape:connector-curvature="0" /><path
         d="m 442,2572 c 0,-19.88 -16.121,-36 -36,-36 -19.879,0 -36,16.12 -36,36 0,19.88 16.121,36 36,36 19.879,0 36,-16.12 36,-36 z"
         style="fill:none;stroke:#000000;stroke-width:7.19999981;stroke-linecap:butt;stroke-linejoin:miter;stroke-miterlimit:10;stroke-dasharray:none;stroke-opacity:1"
         id="path166"
         inkscape:connector-curvature="0" /><path
         d="m 802,3148 c 0,-19.88 -16.121,-36 -36,-36 -19.879,0 -36,16.12 -36,36 0,19.88 16.121,36 36,36 19.879,0 36,-16.12 36,-36"
         style="fill:#000000;fill-opacity:1;fill-rule:evenodd;stroke:none"
         id="path168"
         inkscape:connector-curvature="0" /><path
         d="m 802,3148 c 0,-19.88 -16.121,-36 -36,-36 -19.879,0 -36,16.12 -36,36 0,19.88 16.121,36 36,36 19.879,0 36,-16.12 36,-36 z"
         style="fill:none;stroke:#000000;stroke-width:7.19999981;stroke-linecap:butt;stroke-linejoin:miter;stroke-miterlimit:10;stroke-dasharray:none;stroke-opacity:1"
         id="path170"
         inkscape:connector-curvature="0" /><g
         id="g172"
         transform="scale(10,10)"><text
           transform="matrix(1,0,0,-1,213.4,286)"
           style="font-style:italic;font-variant:normal;font-weight:bold;font-size:12.96000004px;font-family:Times;-inkscape-font-specification:Times-BoldItalic;writing-mode:lr-tb;fill:#000000;fill-opacity:1;fill-rule:nonzero;stroke:none"
           id="text174"><tspan
             x="0 3.60288"
             y="0"
             sodipodi:role="line"
             id="tspan176">j’</tspan></text>
</g><path
         d="m 2098,2932 c 0,-19.88 -16.12,-36 -36,-36 -19.88,0 -36,16.12 -36,36 0,19.88 16.12,36 36,36 19.88,0 36,-16.12 36,-36 z"
         style="fill:none;stroke:#000000;stroke-width:7.19999981;stroke-linecap:butt;stroke-linejoin:miter;stroke-miterlimit:10;stroke-dasharray:none;stroke-opacity:1"
         id="path178"
         inkscape:connector-curvature="0" /><g
         id="g180"
         transform="scale(10,10)"><text
           transform="matrix(1,0,0,-1,328.6,286)"
           style="font-style:italic;font-variant:normal;font-weight:bold;font-size:12.96000004px;font-family:Times;-inkscape-font-specification:Times-BoldItalic;writing-mode:lr-tb;fill:#000000;fill-opacity:1;fill-rule:nonzero;stroke:none"
           id="text182"><tspan
             x="0 3.60288"
             y="0"
             sodipodi:role="line"
             id="tspan184">j’</tspan></text>
</g><path
         d="m 3250,2932 c 0,-19.88 -16.12,-36 -36,-36 -19.88,0 -36,16.12 -36,36 0,19.88 16.12,36 36,36 19.88,0 36,-16.12 36,-36 z"
         style="fill:none;stroke:#000000;stroke-width:7.19999981;stroke-linecap:butt;stroke-linejoin:miter;stroke-miterlimit:10;stroke-dasharray:none;stroke-opacity:1"
         id="path186"
         inkscape:connector-curvature="0" /><g
         id="g188"
         transform="scale(10,10)"><text
           transform="matrix(1,0,0,-1,83.8,307.6)"
           style="font-style:italic;font-variant:normal;font-weight:bold;font-size:12.96000004px;font-family:Times;-inkscape-font-specification:Times-BoldItalic;writing-mode:lr-tb;fill:#000000;fill-opacity:1;fill-rule:nonzero;stroke:none"
           id="text190"><tspan
             x="0 3.60288"
             y="0"
             sodipodi:role="line"
             id="tspan192">i’</tspan><tspan
             x="36 39.602879"
             y="172.8"
             sodipodi:role="line"
             id="tspan194">i’</tspan></text>
</g><path
         d="m 1162,1420 c 0,-19.88 -16.12,-36 -36,-36 -19.88,0 -36,16.12 -36,36 0,19.88 16.12,36 36,36 19.88,0 36,-16.12 36,-36"
         style="fill:#000000;fill-opacity:1;fill-rule:evenodd;stroke:none"
         id="path196"
         inkscape:connector-curvature="0" /><path
         d="m 1162,1420 c 0,-19.88 -16.12,-36 -36,-36 -19.88,0 -36,16.12 -36,36 0,19.88 16.12,36 36,36 19.88,0 36,-16.12 36,-36 z"
         style="fill:none;stroke:#000000;stroke-width:7.19999981;stroke-linecap:butt;stroke-linejoin:miter;stroke-miterlimit:10;stroke-dasharray:none;stroke-opacity:1"
         id="path198"
         inkscape:connector-curvature="0" /><g
         id="g200"
         transform="scale(10,10)"><text
           transform="matrix(1,0,0,-1,314.2,307.6)"
           style="font-style:italic;font-variant:normal;font-weight:bold;font-size:12.96000004px;font-family:Times;-inkscape-font-specification:Times-BoldItalic;writing-mode:lr-tb;fill:#000000;fill-opacity:1;fill-rule:nonzero;stroke:none"
           id="text202"><tspan
             x="0 3.60288"
             y="0"
             sodipodi:role="line"
             id="tspan204">i’</tspan></text>
</g><path
         d="m 3106,3148 c 0,-19.88 -16.12,-36 -36,-36 -19.88,0 -36,16.12 -36,36 0,19.88 16.12,36 36,36 19.88,0 36,-16.12 36,-36"
         style="fill:#000000;fill-opacity:1;fill-rule:evenodd;stroke:none"
         id="path206"
         inkscape:connector-curvature="0" /><path
         d="m 3106,3148 c 0,-19.88 -16.12,-36 -36,-36 -19.88,0 -36,16.12 -36,36 0,19.88 16.12,36 36,36 19.88,0 36,-16.12 36,-36 z"
         style="fill:none;stroke:#000000;stroke-width:7.19999981;stroke-linecap:butt;stroke-linejoin:miter;stroke-miterlimit:10;stroke-dasharray:none;stroke-opacity:1"
         id="path208"
         inkscape:connector-curvature="0" /><g
         id="g210"
         transform="scale(10,10)"><text
           transform="matrix(1,0,0,-1,199,307.6)"
           style="font-style:italic;font-variant:normal;font-weight:bold;font-size:12.96000004px;font-family:Times;-inkscape-font-specification:Times-BoldItalic;writing-mode:lr-tb;fill:#000000;fill-opacity:1;fill-rule:nonzero;stroke:none"
           id="text212"><tspan
             x="0"
             y="0"
             id="tspan214">i</tspan></text>
</g><path
         d="m 1954,3148 c 0,-19.88 -16.12,-36 -36,-36 -19.88,0 -36,16.12 -36,36 0,19.88 16.12,36 36,36 19.88,0 36,-16.12 36,-36"
         style="fill:#000000;fill-opacity:1;fill-rule:evenodd;stroke:none"
         id="path216"
         inkscape:connector-curvature="0" /><path
         d="m 1954,3148 c 0,-19.88 -16.12,-36 -36,-36 -19.88,0 -36,16.12 -36,36 0,19.88 16.12,36 36,36 19.88,0 36,-16.12 36,-36 z"
         style="fill:none;stroke:#000000;stroke-width:7.19999981;stroke-linecap:butt;stroke-linejoin:miter;stroke-miterlimit:10;stroke-dasharray:none;stroke-opacity:1"
         id="path218"
         inkscape:connector-curvature="0" /><g
         id="g220"
         transform="scale(10,10)"><text
           transform="matrix(1,0,0,-1,98.2,286)"
           style="font-style:italic;font-variant:normal;font-weight:bold;font-size:12.96000004px;font-family:Times;-inkscape-font-specification:Times-BoldItalic;writing-mode:lr-tb;fill:#000000;fill-opacity:1;fill-rule:nonzero;stroke:none"
           id="text222"><tspan
             x="0 3.60288"
             y="0"
             sodipodi:role="line"
             id="tspan224">j’</tspan><tspan
             x="115.2 118.80288"
             y="230.39999"
             sodipodi:role="line"
             id="tspan226">j’</tspan></text>
</g><path
         d="m 2098,628 c 0,-19.879 -16.12,-36 -36,-36 -19.88,0 -36,16.121 -36,36 0,19.879 16.12,36 36,36 19.88,0 36,-16.121 36,-36 z"
         style="fill:none;stroke:#000000;stroke-width:7.19999981;stroke-linecap:butt;stroke-linejoin:miter;stroke-miterlimit:10;stroke-dasharray:none;stroke-opacity:1"
         id="path228"
         inkscape:connector-curvature="0" /><g
         id="g230"
         transform="scale(10,10)"><text
           transform="matrix(1,0,0,-1,328.6,55.6)"
           style="font-style:italic;font-variant:normal;font-weight:bold;font-size:12.96000004px;font-family:Times;-inkscape-font-specification:Times-BoldItalic;writing-mode:lr-tb;fill:#000000;fill-opacity:1;fill-rule:nonzero;stroke:none"
           id="text232"><tspan
             x="0 3.60288"
             y="0"
             sodipodi:role="line"
             id="tspan234">j’</tspan></text>
</g><path
         d="m 3250,628 c 0,-19.879 -16.12,-36 -36,-36 -19.88,0 -36,16.121 -36,36 0,19.879 16.12,36 36,36 19.88,0 36,-16.121 36,-36 z"
         style="fill:none;stroke:#000000;stroke-width:7.19999981;stroke-linecap:butt;stroke-linejoin:miter;stroke-miterlimit:10;stroke-dasharray:none;stroke-opacity:1"
         id="path236"
         inkscape:connector-curvature="0" /><g
         id="g238"
         transform="scale(10,10)"><text
           transform="matrix(1,0,0,-1,98.2,55.6)"
           style="font-style:italic;font-variant:normal;font-weight:bold;font-size:12.96000004px;font-family:Times;-inkscape-font-specification:Times-BoldItalic;writing-mode:lr-tb;fill:#000000;fill-opacity:1;fill-rule:nonzero;stroke:none"
           id="text240"><tspan
             x="0 3.60288"
             y="0"
             sodipodi:role="line"
             id="tspan242">j’</tspan></text>
</g><path
         d="m 946,628 c 0,-19.879 -16.121,-36 -36,-36 -19.879,0 -36,16.121 -36,36 0,19.879 16.121,36 36,36 19.879,0 36,-16.121 36,-36 z"
         style="fill:none;stroke:#000000;stroke-width:7.19999981;stroke-linecap:butt;stroke-linejoin:miter;stroke-miterlimit:10;stroke-dasharray:none;stroke-opacity:1"
         id="path244"
         inkscape:connector-curvature="0" /><path
         d="m 802,844 c 0,-19.879 -16.121,-36 -36,-36 -19.879,0 -36,16.121 -36,36 0,19.879 16.121,36 36,36 19.879,0 36,-16.121 36,-36"
         style="fill:#000000;fill-opacity:1;fill-rule:evenodd;stroke:none"
         id="path246"
         inkscape:connector-curvature="0" /><path
         d="m 802,844 c 0,-19.879 -16.121,-36 -36,-36 -19.879,0 -36,16.121 -36,36 0,19.879 16.121,36 36,36 19.879,0 36,-16.121 36,-36 z"
         style="fill:none;stroke:#000000;stroke-width:7.19999981;stroke-linecap:butt;stroke-linejoin:miter;stroke-miterlimit:10;stroke-dasharray:none;stroke-opacity:1"
         id="path248"
         inkscape:connector-curvature="0" /><path
         d="m 946,2932 c 0,-19.88 -16.121,-36 -36,-36 -19.879,0 -36,16.12 -36,36 0,19.88 16.121,36 36,36 19.879,0 36,-16.12 36,-36 z"
         style="fill:none;stroke:#000000;stroke-width:7.19999981;stroke-linecap:butt;stroke-linejoin:miter;stroke-miterlimit:10;stroke-dasharray:none;stroke-opacity:1"
         id="path250"
         inkscape:connector-curvature="0" /><g
         id="g252"
         transform="scale(10,10)"><text
           transform="matrix(1,0,0,-1,314.2,77.2)"
           style="font-style:italic;font-variant:normal;font-weight:bold;font-size:12.96000004px;font-family:Times;-inkscape-font-specification:Times-BoldItalic;writing-mode:lr-tb;fill:#000000;fill-opacity:1;fill-rule:nonzero;stroke:none"
           id="text254"><tspan
             x="0 3.60288"
             y="0"
             sodipodi:role="line"
             id="tspan256">i’</tspan></text>
</g><path
         d="m 3106,844 c 0,-19.879 -16.12,-36 -36,-36 -19.88,0 -36,16.121 -36,36 0,19.879 16.12,36 36,36 19.88,0 36,-16.121 36,-36"
         style="fill:#000000;fill-opacity:1;fill-rule:evenodd;stroke:none"
         id="path258"
         inkscape:connector-curvature="0" /><path
         d="m 3106,844 c 0,-19.879 -16.12,-36 -36,-36 -19.88,0 -36,16.121 -36,36 0,19.879 16.12,36 36,36 19.88,0 36,-16.121 36,-36 z"
         style="fill:none;stroke:#000000;stroke-width:7.19999981;stroke-linecap:butt;stroke-linejoin:miter;stroke-miterlimit:10;stroke-dasharray:none;stroke-opacity:1"
         id="path260"
         inkscape:connector-curvature="0" /><g
         id="g262"
         transform="scale(10,10)"><text
           transform="matrix(1,0,0,-1,199,77.2)"
           style="font-style:italic;font-variant:normal;font-weight:bold;font-size:12.96000004px;font-family:Times;-inkscape-font-specification:Times-BoldItalic;writing-mode:lr-tb;fill:#000000;fill-opacity:1;fill-rule:nonzero;stroke:none"
           id="text264"><tspan
             x="0"
             y="0"
             id="tspan266">i</tspan></text>
</g><path
         d="m 1954,844 c 0,-19.879 -16.12,-36 -36,-36 -19.88,0 -36,16.121 -36,36 0,19.879 16.12,36 36,36 19.88,0 36,-16.121 36,-36"
         style="fill:#000000;fill-opacity:1;fill-rule:evenodd;stroke:none"
         id="path268"
         inkscape:connector-curvature="0" /><path
         d="m 1954,844 c 0,-19.879 -16.12,-36 -36,-36 -19.88,0 -36,16.121 -36,36 0,19.879 16.12,36 36,36 19.88,0 36,-16.121 36,-36 z"
         style="fill:none;stroke:#000000;stroke-width:7.19999981;stroke-linecap:butt;stroke-linejoin:miter;stroke-miterlimit:10;stroke-dasharray:none;stroke-opacity:1"
         id="path270"
         inkscape:connector-curvature="0" /><g
         id="g272"
         transform="scale(10,10)"><text
           transform="matrix(1,0,0,-1,83.8,77.2)"
           style="font-style:italic;font-variant:normal;font-weight:bold;font-size:12.96000004px;font-family:Times;-inkscape-font-specification:Times-BoldItalic;writing-mode:lr-tb;fill:#000000;fill-opacity:1;fill-rule:nonzero;stroke:none"
           id="text274"><tspan
             x="0 3.60288"
             y="0"
             sodipodi:role="line"
             id="tspan276">i’</tspan></text>
</g><path
         d="m 3466,1420 c 0,-19.88 -16.12,-36 -36,-36 -19.88,0 -36,16.12 -36,36 0,19.88 16.12,36 36,36 19.88,0 36,-16.12 36,-36"
         style="fill:#000000;fill-opacity:1;fill-rule:evenodd;stroke:none"
         id="path278"
         inkscape:connector-curvature="0" /><path
         d="m 3466,1420 c 0,-19.88 -16.12,-36 -36,-36 -19.88,0 -36,16.12 -36,36 0,19.88 16.12,36 36,36 19.88,0 36,-16.12 36,-36 z"
         style="fill:none;stroke:#000000;stroke-width:7.19999981;stroke-linecap:butt;stroke-linejoin:miter;stroke-miterlimit:10;stroke-dasharray:none;stroke-opacity:1"
         id="path280"
         inkscape:connector-curvature="0" /><path
         d="m 2458,3508 c 0,-19.88 -16.12,-36 -36,-36 -19.88,0 -36,16.12 -36,36 0,19.88 16.12,36 36,36 19.88,0 36,-16.12 36,-36 z"
         style="fill:none;stroke:#000000;stroke-width:7.19999981;stroke-linecap:butt;stroke-linejoin:miter;stroke-miterlimit:10;stroke-dasharray:none;stroke-opacity:1"
         id="path282"
         inkscape:connector-curvature="0" /><g
         id="g284"
         transform="scale(10,10)"><text
           transform="matrix(1,0,0,-1,364.6,343.6)"
           style="font-style:italic;font-variant:normal;font-weight:bold;font-size:12.96000004px;font-family:Times;-inkscape-font-specification:Times-BoldItalic;writing-mode:lr-tb;fill:#000000;fill-opacity:1;fill-rule:nonzero;stroke:none"
           id="text286"><tspan
             x="0 3.60288"
             y="0"
             sodipodi:role="line"
             id="tspan288">j’</tspan></text>
</g><path
         d="m 3610,3508 c 0,-19.88 -16.12,-36 -36,-36 -19.88,0 -36,16.12 -36,36 0,19.88 16.12,36 36,36 19.88,0 36,-16.12 36,-36 z"
         style="fill:none;stroke:#000000;stroke-width:7.19999981;stroke-linecap:butt;stroke-linejoin:miter;stroke-miterlimit:10;stroke-dasharray:none;stroke-opacity:1"
         id="path290"
         inkscape:connector-curvature="0" /><g
         id="g292"
         transform="scale(10,10)"><text
           transform="matrix(1,0,0,-1,134.2,343.6)"
           style="font-style:italic;font-variant:normal;font-weight:bold;font-size:12.96000004px;font-family:Times;-inkscape-font-specification:Times-BoldItalic;writing-mode:lr-tb;fill:#000000;fill-opacity:1;fill-rule:nonzero;stroke:none"
           id="text294"><tspan
             x="0 3.60288"
             y="0"
             sodipodi:role="line"
             id="tspan296">j’</tspan></text>
</g><path
         d="m 1306,3508 c 0,-19.88 -16.12,-36 -36,-36 -19.88,0 -36,16.12 -36,36 0,19.88 16.12,36 36,36 19.88,0 36,-16.12 36,-36 z"
         style="fill:none;stroke:#000000;stroke-width:7.19999981;stroke-linecap:butt;stroke-linejoin:miter;stroke-miterlimit:10;stroke-dasharray:none;stroke-opacity:1"
         id="path298"
         inkscape:connector-curvature="0" /><g
         id="g300"
         transform="scale(10,10)"><text
           transform="matrix(1,0,0,-1,285.4,401.2)"
           style="font-style:italic;font-variant:normal;font-weight:bold;font-size:12.96000004px;font-family:Times;-inkscape-font-specification:Times-BoldItalic;writing-mode:lr-tb;fill:#000000;fill-opacity:1;fill-rule:nonzero;stroke:none"
           id="text302"><tspan
             x="0 3.60288"
             y="0"
             sodipodi:role="line"
             id="tspan304">j’</tspan><tspan
             x="-36"
             y="57.599998"
             id="tspan306">j</tspan><tspan
             x="-50.400002 -46.797119"
             y="36"
             sodipodi:role="line"
             id="tspan308">i’</tspan></text>
</g><path
         d="m 2314,3724 c 0,-19.88 -16.12,-36 -36,-36 -19.88,0 -36,16.12 -36,36 0,19.88 16.12,36 36,36 19.88,0 36,-16.12 36,-36"
         style="fill:#000000;fill-opacity:1;fill-rule:evenodd;stroke:none"
         id="path310"
         inkscape:connector-curvature="0" /><path
         d="m 2314,3724 c 0,-19.88 -16.12,-36 -36,-36 -19.88,0 -36,16.12 -36,36 0,19.88 16.12,36 36,36 19.88,0 36,-16.12 36,-36 z"
         style="fill:none;stroke:#000000;stroke-width:7.19999981;stroke-linecap:butt;stroke-linejoin:miter;stroke-miterlimit:10;stroke-dasharray:none;stroke-opacity:1"
         id="path312"
         inkscape:connector-curvature="0" /><g
         id="g314"
         transform="scale(10,10)"><text
           transform="matrix(1,0,0,-1,350.2,365.2)"
           style="font-style:italic;font-variant:normal;font-weight:bold;font-size:12.96000004px;font-family:Times;-inkscape-font-specification:Times-BoldItalic;writing-mode:lr-tb;fill:#000000;fill-opacity:1;fill-rule:nonzero;stroke:none"
           id="text316"><tspan
             x="0 3.60288"
             y="0"
             sodipodi:role="line"
             id="tspan318">i’</tspan></text>
</g><path
         d="m 3466,3724 c 0,-19.88 -16.12,-36 -36,-36 -19.88,0 -36,16.12 -36,36 0,19.88 16.12,36 36,36 19.88,0 36,-16.12 36,-36"
         style="fill:#000000;fill-opacity:1;fill-rule:evenodd;stroke:none"
         id="path320"
         inkscape:connector-curvature="0" /><path
         d="m 3466,3724 c 0,-19.88 -16.12,-36 -36,-36 -19.88,0 -36,16.12 -36,36 0,19.88 16.12,36 36,36 19.88,0 36,-16.12 36,-36 z"
         style="fill:none;stroke:#000000;stroke-width:7.19999981;stroke-linecap:butt;stroke-linejoin:miter;stroke-miterlimit:10;stroke-dasharray:none;stroke-opacity:1"
         id="path322"
         inkscape:connector-curvature="0" /><g
         id="g324"
         transform="scale(10,10)"><text
           transform="matrix(1,0,0,-1,119.8,365.2)"
           style="font-style:italic;font-variant:normal;font-weight:bold;font-size:12.96000004px;font-family:Times;-inkscape-font-specification:Times-BoldItalic;writing-mode:lr-tb;fill:#000000;fill-opacity:1;fill-rule:nonzero;stroke:none"
           id="text326"><tspan
             x="0 3.60288"
             y="0"
             sodipodi:role="line"
             id="tspan328">i’</tspan></text>
</g><path
         d="m 1162,3724 c 0,-19.88 -16.12,-36 -36,-36 -19.88,0 -36,16.12 -36,36 0,19.88 16.12,36 36,36 19.88,0 36,-16.12 36,-36"
         style="fill:#000000;fill-opacity:1;fill-rule:evenodd;stroke:none"
         id="path330"
         inkscape:connector-curvature="0" /><path
         d="m 1162,3724 c 0,-19.88 -16.12,-36 -36,-36 -19.88,0 -36,16.12 -36,36 0,19.88 16.12,36 36,36 19.88,0 36,-16.12 36,-36 z"
         style="fill:none;stroke:#000000;stroke-width:7.19999981;stroke-linecap:butt;stroke-linejoin:miter;stroke-miterlimit:10;stroke-dasharray:none;stroke-opacity:1"
         id="path332"
         inkscape:connector-curvature="0" /><path
         d="m 2818,4084 c 0,-19.88 -16.12,-36 -36,-36 -19.88,0 -36,16.12 -36,36 0,19.88 16.12,36 36,36 19.88,0 36,-16.12 36,-36 z"
         style="fill:none;stroke:#000000;stroke-width:7.19999981;stroke-linecap:butt;stroke-linejoin:miter;stroke-miterlimit:10;stroke-dasharray:none;stroke-opacity:1"
         id="path334"
         inkscape:connector-curvature="0" /><path
         d="m 3610,1204 c 0,-19.88 -16.12,-36 -36,-36 -19.88,0 -36,16.12 -36,36 0,19.88 16.12,36 36,36 19.88,0 36,-16.12 36,-36 z"
         style="fill:none;stroke:#000000;stroke-width:7.19999981;stroke-linecap:butt;stroke-linejoin:miter;stroke-miterlimit:10;stroke-dasharray:none;stroke-opacity:1"
         id="path336"
         inkscape:connector-curvature="0" /><g
         id="g338"
         transform="scale(10,10)"><text
           transform="matrix(1,0,0,-1,134.2,113.2)"
           style="font-style:italic;font-variant:normal;font-weight:bold;font-size:12.96000004px;font-family:Times;-inkscape-font-specification:Times-BoldItalic;writing-mode:lr-tb;fill:#000000;fill-opacity:1;fill-rule:nonzero;stroke:none"
           id="text340"><tspan
             x="0 3.60288"
             y="0"
             sodipodi:role="line"
             id="tspan342">j’</tspan></text>
</g><path
         d="m 1306,1204 c 0,-19.88 -16.12,-36 -36,-36 -19.88,0 -36,16.12 -36,36 0,19.88 16.12,36 36,36 19.88,0 36,-16.12 36,-36 z"
         style="fill:none;stroke:#000000;stroke-width:7.19999981;stroke-linecap:butt;stroke-linejoin:miter;stroke-miterlimit:10;stroke-dasharray:none;stroke-opacity:1"
         id="path344"
         inkscape:connector-curvature="0" /><g
         id="g346"
         transform="scale(10,10)"><text
           transform="matrix(1,0,0,-1,235,134.8)"
           style="font-style:italic;font-variant:normal;font-weight:bold;font-size:12.96000004px;font-family:Times;-inkscape-font-specification:Times-BoldItalic;writing-mode:lr-tb;fill:#000000;fill-opacity:1;fill-rule:nonzero;stroke:none"
           id="text348"><tspan
             x="0 3.60288"
             y="0"
             sodipodi:role="line"
             id="tspan350">i’</tspan></text>
</g><path
         d="m 2314,1420 c 0,-19.88 -16.12,-36 -36,-36 -19.88,0 -36,16.12 -36,36 0,19.88 16.12,36 36,36 19.88,0 36,-16.12 36,-36"
         style="fill:#000000;fill-opacity:1;fill-rule:evenodd;stroke:none"
         id="path352"
         inkscape:connector-curvature="0" /><path
         d="m 2314,1420 c 0,-19.88 -16.12,-36 -36,-36 -19.88,0 -36,16.12 -36,36 0,19.88 16.12,36 36,36 19.88,0 36,-16.12 36,-36 z"
         style="fill:none;stroke:#000000;stroke-width:7.19999981;stroke-linecap:butt;stroke-linejoin:miter;stroke-miterlimit:10;stroke-dasharray:none;stroke-opacity:1"
         id="path354"
         inkscape:connector-curvature="0" /><g
         id="g356"
         transform="scale(10,10)"><text
           transform="matrix(1,0,0,-1,350.2,134.8)"
           style="font-style:italic;font-variant:normal;font-weight:bold;font-size:12.96000004px;font-family:Times;-inkscape-font-specification:Times-BoldItalic;writing-mode:lr-tb;fill:#000000;fill-opacity:1;fill-rule:nonzero;stroke:none"
           id="text358"><tspan
             x="0 3.60288"
             y="0"
             sodipodi:role="line"
             id="tspan360">i’</tspan><tspan
             x="14.4 18.00288"
             y="21.6"
             sodipodi:role="line"
             id="tspan362">j’</tspan><tspan
             x="50.400002 54.00288"
             y="-266.39999"
             sodipodi:role="line"
             id="tspan364">j’</tspan></text>
</g><path
         d="m 3970,4084 c 0,-19.88 -16.12,-36 -36,-36 -19.88,0 -36,16.12 -36,36 0,19.88 16.12,36 36,36 19.88,0 36,-16.12 36,-36 z"
         style="fill:none;stroke:#000000;stroke-width:7.19999981;stroke-linecap:butt;stroke-linejoin:miter;stroke-miterlimit:10;stroke-dasharray:none;stroke-opacity:1"
         id="path366"
         inkscape:connector-curvature="0" /><g
         id="g368"
         transform="scale(10,10)"><text
           transform="matrix(1,0,0,-1,170.2,401.2)"
           style="font-style:italic;font-variant:normal;font-weight:bold;font-size:12.96000004px;font-family:Times;-inkscape-font-specification:Times-BoldItalic;writing-mode:lr-tb;fill:#000000;fill-opacity:1;fill-rule:nonzero;stroke:none"
           id="text370"><tspan
             x="0 3.60288"
             y="0"
             sodipodi:role="line"
             id="tspan372">j’</tspan></text>
</g><path
         d="m 1666,4084 c 0,-19.88 -16.12,-36 -36,-36 -19.88,0 -36,16.12 -36,36 0,19.88 16.12,36 36,36 19.88,0 36,-16.12 36,-36 z"
         style="fill:none;stroke:#000000;stroke-width:7.19999981;stroke-linecap:butt;stroke-linejoin:miter;stroke-miterlimit:10;stroke-dasharray:none;stroke-opacity:1"
         id="path374"
         inkscape:connector-curvature="0" /><g
         id="g376"
         transform="scale(10,10)"><text
           transform="matrix(1,0,0,-1,249.4,113.2)"
           style="font-style:italic;font-variant:normal;font-weight:bold;font-size:12.96000004px;font-family:Times;-inkscape-font-specification:Times-BoldItalic;writing-mode:lr-tb;fill:#000000;fill-opacity:1;fill-rule:nonzero;stroke:none"
           id="text378"><tspan
             x="0"
             y="0"
             id="tspan380">j</tspan></text>
</g><path
         d="m 2458,1204 c 0,-19.88 -16.12,-36 -36,-36 -19.88,0 -36,16.12 -36,36 0,19.88 16.12,36 36,36 19.88,0 36,-16.12 36,-36 z"
         style="fill:none;stroke:#000000;stroke-width:7.19999981;stroke-linecap:butt;stroke-linejoin:miter;stroke-miterlimit:10;stroke-dasharray:none;stroke-opacity:1"
         id="path382"
         inkscape:connector-curvature="0" /></g></g></svg>