<?xml version="1.0" encoding="UTF-8" standalone="no"?>
<!-- Created with Inkscape (http://www.inkscape.org/) -->

<svg
   xmlns:dc="http://purl.org/dc/elements/1.1/"
   xmlns:cc="http://creativecommons.org/ns#"
   xmlns:rdf="http://www.w3.org/1999/02/22-rdf-syntax-ns#"
   xmlns:svg="http://www.w3.org/2000/svg"
   xmlns="http://www.w3.org/2000/svg"
   xmlns:sodipodi="http://sodipodi.sourceforge.net/DTD/sodipodi-0.dtd"
   xmlns:inkscape="http://www.inkscape.org/namespaces/inkscape"
   id="svg2"
   version="1.1"
   inkscape:version="0.91 r13725"
   xml:space="preserve"
   width="1052.5"
   height="743.75"
   viewBox="0 0 1052.5 743.75"
   sodipodi:docname="pull.svg"><metadata
     id="metadata8"><rdf:RDF><cc:Work
         rdf:about=""><dc:format>image/svg+xml</dc:format><dc:type
           rdf:resource="http://purl.org/dc/dcmitype/StillImage" /><dc:title></dc:title></cc:Work></rdf:RDF></metadata><defs
     id="defs6"><clipPath
       clipPathUnits="userSpaceOnUse"
       id="clipPath18"><path
         d="m 435,750 0,7670 5515,0 0,-7670 -5515,0 z"
         id="path20"
         inkscape:connector-curvature="0" /></clipPath><clipPath
       clipPathUnits="userSpaceOnUse"
       id="clipPath80"><path
         d="m 435,750 0,7670 5515,0 0,-7670 -5515,0 z m 1251,5540.4 54,216 54,-216 0,291.6 -108,0 0,-291.6 z"
         id="path82"
         inkscape:connector-curvature="0" /></clipPath><clipPath
       clipPathUnits="userSpaceOnUse"
       id="clipPath92"><path
         d="m 435,750 0,7670 5515,0 0,-7670 -5515,0 z"
         id="path94"
         inkscape:connector-curvature="0" /></clipPath></defs><sodipodi:namedview
     pagecolor="#ffffff"
     bordercolor="#666666"
     borderopacity="1"
     objecttolerance="10"
     gridtolerance="10"
     guidetolerance="10"
     inkscape:pageopacity="0"
     inkscape:pageshadow="2"
     inkscape:window-width="2560"
     inkscape:window-height="1386"
     id="namedview4"
     showgrid="false"
     inkscape:zoom="0.31731092"
     inkscape:cx="532.55297"
     inkscape:cy="371.875"
     inkscape:window-x="0"
     inkscape:window-y="25"
     inkscape:window-maximized="1"
     inkscape:current-layer="g10" /><g
     id="g10"
     inkscape:groupmode="layer"
     inkscape:label="ink_ext_XXXXXX"
     transform="matrix(0,1.25,1.25,0,0,0)"><g
       id="g12"
       transform="scale(0.1,0.1)"><g
         id="g14"><g
           id="g16"
           clip-path="url(#clipPath18)"><path
             d="m 2871,5310.6 c 281.66,0 510,-114.17 510,-255 0,-140.83 -228.34,-255 -510,-255 -281.66,0 -510,114.17 -510,255 0,140.83 228.34,255 510,255"
             style="fill:#ffffff;fill-opacity:1;fill-rule:evenodd;stroke:none"
             id="path22"
             inkscape:connector-curvature="0" /><path
             d="m 2871,5310.6 c 281.66,0 510,-114.17 510,-255 0,-140.83 -228.34,-255 -510,-255 -281.66,0 -510,114.17 -510,255 0,140.83 228.34,255 510,255 z"
             style="fill:none;stroke:#000000;stroke-width:18;stroke-linecap:butt;stroke-linejoin:miter;stroke-miterlimit:10;stroke-dasharray:none;stroke-opacity:1"
             id="path24"
             inkscape:connector-curvature="0" /><path
             d="m 2871,5566.2 c 281.66,0 510,-114.17 510,-255 0,-140.83 -228.34,-255 -510,-255 -281.66,0 -510,114.17 -510,255 0,140.83 228.34,255 510,255"
             style="fill:#ffffff;fill-opacity:1;fill-rule:evenodd;stroke:none"
             id="path26"
             inkscape:connector-curvature="0" /><path
             d="m 2871,5566.2 c 281.66,0 510,-114.17 510,-255 0,-140.83 -228.34,-255 -510,-255 -281.66,0 -510,114.17 -510,255 0,140.83 228.34,255 510,255 z"
             style="fill:none;stroke:#000000;stroke-width:18;stroke-linecap:butt;stroke-linejoin:miter;stroke-miterlimit:10;stroke-dasharray:none;stroke-opacity:1"
             id="path28"
             inkscape:connector-curvature="0" /><path
             d="m 2871,5821.2 c 281.66,0 510,-114.17 510,-255 0,-140.83 -228.34,-255 -510,-255 -281.66,0 -510,114.17 -510,255 0,140.83 228.34,255 510,255"
             style="fill:#ffffff;fill-opacity:1;fill-rule:evenodd;stroke:none"
             id="path30"
             inkscape:connector-curvature="0" /><path
             d="m 2871,5821.2 c 281.66,0 510,-114.17 510,-255 0,-140.83 -228.34,-255 -510,-255 -281.66,0 -510,114.17 -510,255 0,140.83 228.34,255 510,255 z"
             style="fill:none;stroke:#000000;stroke-width:18;stroke-linecap:butt;stroke-linejoin:miter;stroke-miterlimit:10;stroke-dasharray:none;stroke-opacity:1"
             id="path32"
             inkscape:connector-curvature="0" /><path
             d="m 2871,6076.2 c 281.66,0 510,-114.17 510,-255 0,-140.83 -228.34,-255 -510,-255 -281.66,0 -510,114.17 -510,255 0,140.83 228.34,255 510,255"
             style="fill:#ffffff;fill-opacity:1;fill-rule:evenodd;stroke:none"
             id="path34"
             inkscape:connector-curvature="0" /><path
             d="m 2871,6076.2 c 281.66,0 510,-114.17 510,-255 0,-140.83 -228.34,-255 -510,-255 -281.66,0 -510,114.17 -510,255 0,140.83 228.34,255 510,255 z"
             style="fill:none;stroke:#000000;stroke-width:18;stroke-linecap:butt;stroke-linejoin:miter;stroke-miterlimit:10;stroke-dasharray:none;stroke-opacity:1"
             id="path36"
             inkscape:connector-curvature="0" /><path
             d="m 2871,6331.2 c 281.66,0 510,-114.17 510,-255 0,-140.83 -228.34,-255 -510,-255 -281.66,0 -510,114.17 -510,255 0,140.83 228.34,255 510,255"
             style="fill:#ffffff;fill-opacity:1;fill-rule:evenodd;stroke:none"
             id="path38"
             inkscape:connector-curvature="0" /><path
             d="m 2871,6331.2 c 281.66,0 510,-114.17 510,-255 0,-140.83 -228.34,-255 -510,-255 -281.66,0 -510,114.17 -510,255 0,140.83 228.34,255 510,255 z"
             style="fill:none;stroke:#000000;stroke-width:18;stroke-linecap:butt;stroke-linejoin:miter;stroke-miterlimit:10;stroke-dasharray:none;stroke-opacity:1"
             id="path40"
             inkscape:connector-curvature="0" /><path
             d="m 2871,6586.2 c 281.66,0 510,-114.17 510,-255 0,-140.83 -228.34,-255 -510,-255 -281.66,0 -510,114.17 -510,255 0,140.83 228.34,255 510,255"
             style="fill:#ffffff;fill-opacity:1;fill-rule:evenodd;stroke:none"
             id="path42"
             inkscape:connector-curvature="0" /><path
             d="m 2871,6586.2 c 281.66,0 510,-114.17 510,-255 0,-140.83 -228.34,-255 -510,-255 -281.66,0 -510,114.17 -510,255 0,140.83 228.34,255 510,255 z"
             style="fill:none;stroke:#000000;stroke-width:18;stroke-linecap:butt;stroke-linejoin:miter;stroke-miterlimit:10;stroke-dasharray:none;stroke-opacity:1"
             id="path44"
             inkscape:connector-curvature="0" /><path
             d="m 2871,4800.6 573.6,478.2 -95.4,-637.2"
             style="fill:#ffffff;fill-opacity:1;fill-rule:evenodd;stroke:none"
             id="path46"
             inkscape:connector-curvature="0" /><path
             d="m 2871,4800.6 573.6,478.2 -95.4,-637.2 -478.2,159 z"
             style="fill:none;stroke:#ffffff;stroke-width:4.5;stroke-linecap:butt;stroke-linejoin:miter;stroke-miterlimit:10;stroke-dasharray:none;stroke-opacity:1"
             id="path48"
             inkscape:connector-curvature="0" /><path
             d="m 2856,4593 -45,-351 -180,-351 135,-630 -333,-531 261,-540 -342,-477 27,-540"
             style="fill:#ffffff;fill-opacity:1;fill-rule:evenodd;stroke:none"
             id="path50"
             inkscape:connector-curvature="0" /><path
             d="m 2856,4593 -45,-351 -180,-351 135,-630 -333,-531 261,-540 -342,-477 27,-540"
             style="fill:none;stroke:#000000;stroke-width:18;stroke-linecap:butt;stroke-linejoin:miter;stroke-miterlimit:10;stroke-dasharray:none;stroke-opacity:1"
             id="path52"
             inkscape:connector-curvature="0" /><path
             d="m 2775,3261 513,-81 198,-486 -180,-567 72,-540 360,-405"
             style="fill:#ffffff;fill-opacity:1;fill-rule:evenodd;stroke:none"
             id="path54"
             inkscape:connector-curvature="0" /><path
             d="m 2775,3261 513,-81 198,-486 -180,-567 72,-540 360,-405"
             style="fill:none;stroke:#000000;stroke-width:18;stroke-linecap:butt;stroke-linejoin:miter;stroke-miterlimit:10;stroke-dasharray:none;stroke-opacity:1"
             id="path56"
             inkscape:connector-curvature="0" /><path
             d="m 2820,4242 369,-189"
             style="fill:#ffffff;fill-opacity:1;fill-rule:evenodd;stroke:none"
             id="path58"
             inkscape:connector-curvature="0" /><path
             d="m 2820,4242 369,-189"
             style="fill:none;stroke:#000000;stroke-width:18;stroke-linecap:butt;stroke-linejoin:miter;stroke-miterlimit:10;stroke-dasharray:none;stroke-opacity:1"
             id="path60"
             inkscape:connector-curvature="0" /><path
             d="m 2871,6790.2 c 112.66,0 204,-91.34 204,-204 0,-112.66 -91.34,-204 -204,-204 -112.66,0 -204,91.34 -204,204 0,112.66 91.34,204 204,204"
             style="fill:#808080;fill-opacity:1;fill-rule:evenodd;stroke:none"
             id="path62"
             inkscape:connector-curvature="0" /><path
             d="m 2871,6790.2 c 112.66,0 204,-91.34 204,-204 0,-112.66 -91.34,-204 -204,-204 -112.66,0 -204,91.34 -204,204 0,112.66 91.34,204 204,204 z"
             style="fill:none;stroke:#000000;stroke-width:27;stroke-linecap:butt;stroke-linejoin:miter;stroke-miterlimit:10;stroke-dasharray:none;stroke-opacity:1"
             id="path64"
             inkscape:connector-curvature="0" /><path
             d="m 2802,4260 -405,54"
             style="fill:#ffffff;fill-opacity:1;fill-rule:evenodd;stroke:none"
             id="path66"
             inkscape:connector-curvature="0" /><path
             d="m 2802,4260 -405,54"
             style="fill:none;stroke:#000000;stroke-width:18;stroke-linecap:butt;stroke-linejoin:miter;stroke-miterlimit:10;stroke-dasharray:none;stroke-opacity:1"
             id="path68"
             inkscape:connector-curvature="0" /><g
             id="g70"
             transform="scale(10,10)"><text
               transform="matrix(0,1,1,0,186.6,681.6)"
               style="font-variant:normal;font-weight:normal;font-size:36px;font-family:Times;-inkscape-font-specification:Times-Roman;writing-mode:lr-tb;fill:#000000;fill-opacity:1;fill-rule:nonzero;stroke:none"
               id="text72"><tspan
                 x="0"
                 y="0"
                 id="tspan74">V</tspan></text>
</g></g></g><g
         id="g76"><g
           id="g78"
           clip-path="url(#clipPath80)"><path
             d="m 1740,5844 0,711"
             style="fill:#ffffff;fill-opacity:1;fill-rule:evenodd;stroke:none"
             id="path84"
             inkscape:connector-curvature="0" /><path
             d="m 1740,5844 0,711"
             style="fill:none;stroke:#000000;stroke-width:18;stroke-linecap:butt;stroke-linejoin:miter;stroke-miterlimit:10;stroke-dasharray:none;stroke-opacity:1"
             id="path86"
             inkscape:connector-curvature="0" /></g></g><g
         id="g88"><g
           id="g90"
           clip-path="url(#clipPath92)"><path
             d="m 1686,6290.4 54,216 54,-216 -108,0"
             style="fill:#000000;fill-opacity:1;fill-rule:evenodd;stroke:none"
             id="path96"
             inkscape:connector-curvature="0" /><path
             d="m 1686,6290.4 54,216 54,-216 -108,0 z"
             style="fill:none;stroke:#000000;stroke-width:18;stroke-linecap:butt;stroke-linejoin:miter;stroke-miterlimit:10;stroke-dasharray:none;stroke-opacity:1"
             id="path98"
             inkscape:connector-curvature="0" /><path
             d="m 2871,5004.6 c 112.66,0 204,-91.33 204,-204 0,-112.66 -91.34,-204 -204,-204 -112.66,0 -204,91.34 -204,204 0,112.67 91.34,204 204,204"
             style="fill:#ffffff;fill-opacity:1;fill-rule:evenodd;stroke:none"
             id="path100"
             inkscape:connector-curvature="0" /><path
             d="m 2871,5004.6 c 112.66,0 204,-91.33 204,-204 0,-112.66 -91.34,-204 -204,-204 -112.66,0 -204,91.34 -204,204 0,112.67 91.34,204 204,204 z"
             style="fill:none;stroke:#000000;stroke-width:27;stroke-linecap:butt;stroke-linejoin:miter;stroke-miterlimit:10;stroke-dasharray:none;stroke-opacity:1"
             id="path102"
             inkscape:connector-curvature="0" /><path
             d="M 3530.4,6332.4 3126,6969 3081.6,6443.4"
             style="fill:#ffffff;fill-opacity:1;fill-rule:evenodd;stroke:none"
             id="path104"
             inkscape:connector-curvature="0" /><path
             d="M 3530.4,6332.4 3126,6969 l -44.4,-525.6 448.8,-111 z"
             style="fill:none;stroke:#ffffff;stroke-width:4.5;stroke-linecap:butt;stroke-linejoin:miter;stroke-miterlimit:10;stroke-dasharray:none;stroke-opacity:1"
             id="path106"
             inkscape:connector-curvature="0" /><path
             d="m 1056,2415 c 234.24,-94.5 340.02,-126 423,-126 157.8,0.06 446.34,178.14 603,180 102.18,1.2 294.72,-107.64 396,-108 147.06,-0.48 416.16,175.2 576,153 179.64,-24.96 377.88,-335.46 576,-342 188.1,-6.18 402.12,268.08 567,288 138.36,16.68 311.64,-23.82 693,-162"
             style="fill:#ffffff;fill-opacity:1;fill-rule:evenodd;stroke:none"
             id="path108"
             inkscape:connector-curvature="0" /><path
             d="m 1056,2415 c 234.24,-94.5 340.02,-126 423,-126 157.8,0.06 446.34,178.14 603,180 102.18,1.2 294.72,-107.64 396,-108 147.06,-0.48 416.16,175.2 576,153 179.64,-24.96 377.88,-335.46 576,-342 188.1,-6.18 402.12,268.08 567,288 138.36,16.68 311.64,-23.82 693,-162"
             style="fill:none;stroke:#00ff00;stroke-width:171;stroke-linecap:butt;stroke-linejoin:miter;stroke-miterlimit:10;stroke-dasharray:none;stroke-opacity:1"
             id="path110"
             inkscape:connector-curvature="0" /><g
             id="g112"
             transform="scale(10,10)"><text
               transform="matrix(0,1,1,0,403.5,652.8)"
               style="font-variant:normal;font-weight:normal;font-size:36px;font-family:Times;-inkscape-font-specification:Times-Roman;writing-mode:lr-tb;fill:#000000;fill-opacity:1;fill-rule:nonzero;stroke:none"
               id="text114"><tspan
                 x="0"
                 y="0"
                 id="tspan116">z</tspan><tspan
                 x="-182.7"
                 y="1.8"
                 id="tspan118">z</tspan></text>
<text
               transform="matrix(0,1,1,0,411.6,489.9)"
               style="font-variant:normal;font-weight:normal;font-size:18px;font-family:Times;-inkscape-font-specification:Times-Roman;writing-mode:lr-tb;fill:#000000;fill-opacity:1;fill-rule:nonzero;stroke:none"
               id="text120"><tspan
                 x="0 5.0040002 10.008 19.007999"
                 y="0"
                 sodipodi:role="line"
                 id="tspan122">link</tspan><tspan
                 x="180.89999 187.90199 196.90199 202.896 207.89999 216.89999"
                 y="-0.89999998"
                 sodipodi:role="line"
                 id="tspan124">spring</tspan><tspan
                 x="212.39999 218.394 227.394"
                 y="-215.10001"
                 sodipodi:role="line"
                 id="tspan126">rup</tspan></text>
</g></g></g></g></g></svg>