<?xml version="1.0" encoding="UTF-8" standalone="no"?>
<!-- Created with Inkscape (http://www.inkscape.org/) -->

<svg
   xmlns:dc="http://purl.org/dc/elements/1.1/"
   xmlns:cc="http://creativecommons.org/ns#"
   xmlns:rdf="http://www.w3.org/1999/02/22-rdf-syntax-ns#"
   xmlns:svg="http://www.w3.org/2000/svg"
   xmlns="http://www.w3.org/2000/svg"
   xmlns:sodipodi="http://sodipodi.sourceforge.net/DTD/sodipodi-0.dtd"
   xmlns:inkscape="http://www.inkscape.org/namespaces/inkscape"
   id="svg2"
   version="1.1"
   inkscape:version="0.91 r13725"
   xml:space="preserve"
   width="305"
   height="326.25"
   viewBox="0 0 305 326.25"
   sodipodi:docname="pullref.svg"><metadata
     id="metadata8"><rdf:RDF><cc:Work
         rdf:about=""><dc:format>image/svg+xml</dc:format><dc:type
           rdf:resource="http://purl.org/dc/dcmitype/StillImage" /><dc:title></dc:title></cc:Work></rdf:RDF></metadata><defs
     id="defs6" /><sodipodi:namedview
     pagecolor="#ffffff"
     bordercolor="#666666"
     borderopacity="1"
     objecttolerance="10"
     gridtolerance="10"
     guidetolerance="10"
     inkscape:pageopacity="0"
     inkscape:pageshadow="2"
     inkscape:window-width="760"
     inkscape:window-height="480"
     id="namedview4"
     showgrid="false"
     inkscape:zoom="0.72337165"
     inkscape:cx="152.5"
     inkscape:cy="163.125"
     inkscape:window-x="0"
     inkscape:window-y="25"
     inkscape:window-maximized="0"
     inkscape:current-layer="g10" /><g
     id="g10"
     inkscape:groupmode="layer"
     inkscape:label="ink_ext_XXXXXX"
     transform="matrix(1.25,0,0,-1.25,0,326.25)"><g
       id="g12"
       transform="scale(0.1,0.1)"><path
         d="m 24.332,20.2695 1186.56,0 0,2581.92 -1186.56,0 0,-2581.92 z"
         style="fill:none;stroke:#231f20;stroke-width:10.07999992;stroke-linecap:butt;stroke-linejoin:miter;stroke-miterlimit:2.61310005;stroke-dasharray:none;stroke-opacity:1"
         id="path14"
         inkscape:connector-curvature="0" /><path
         d="m 1248.33,20.2695 1186.56,0 0,2581.92 -1186.56,0 0,-2581.92 z"
         style="fill:none;stroke:#231f20;stroke-width:10.07999992;stroke-linecap:butt;stroke-linejoin:miter;stroke-miterlimit:2.61310005;stroke-dasharray:50.4, 30.24;stroke-dashoffset:0;stroke-opacity:1"
         id="path16"
         inkscape:connector-curvature="0" /><path
         d="m 29.375,1883.63 c 137.52,0 236.16,-143.28 378.719,-95.04 48.238,15.84 72,35.28 116.64,58.32 l 81.36,12.96 c 10.801,5.76 48.238,0.72 64.078,-4.32 285.84,-93.6 306,20.88 538.558,30.24"
         style="fill:none;stroke:#231f20;stroke-width:9.99779987;stroke-linecap:butt;stroke-linejoin:miter;stroke-miterlimit:2.61310005;stroke-dasharray:none;stroke-opacity:1"
         id="path18"
         inkscape:connector-curvature="0" /><path
         d="m 1253.38,1883.63 c 137.51,0 236.16,-143.28 378.71,-95.04 48.24,15.84 72,35.28 116.64,58.32 l 81.36,12.96 c 10.8,5.76 48.24,0.72 64.08,-4.32 285.84,-93.6 306,20.88 538.56,30.24"
         style="fill:none;stroke:#231f20;stroke-width:9.99779987;stroke-linecap:butt;stroke-linejoin:miter;stroke-miterlimit:2.61310005;stroke-dasharray:none;stroke-opacity:1"
         id="path20"
         inkscape:connector-curvature="0" /><path
         d="m 25.0547,730.91 94.3203,-7.199 c 143.277,43.918 183.598,18 210.238,18 133.922,-30.961 183.602,-49.68 226.078,-49.68 101.524,3.598 161.282,54 202.321,54 159.84,0.719 246.238,-46.801 303.118,-40.32 126,-23.043 105.84,41.039 149.76,23.758"
         style="fill:none;stroke:#231f20;stroke-width:10.07999992;stroke-linecap:butt;stroke-linejoin:miter;stroke-miterlimit:2.61310005;stroke-dasharray:none;stroke-opacity:1"
         id="path22"
         inkscape:connector-curvature="0" /><path
         d="m 1249.05,730.91 94.33,-7.199 c 143.27,43.918 183.59,18 210.23,18 133.93,-30.961 183.6,-49.68 226.09,-49.68 101.51,3.598 161.27,54 202.31,54 159.84,0.719 246.24,-46.801 303.12,-40.32 126,-23.043 105.84,41.039 149.76,23.758"
         style="fill:none;stroke:#231f20;stroke-width:10.07999992;stroke-linecap:butt;stroke-linejoin:miter;stroke-miterlimit:2.61310005;stroke-dasharray:none;stroke-opacity:1"
         id="path24"
         inkscape:connector-curvature="0" /><path
         d="m 603.215,1489.79 0,-142.56"
         style="fill:none;stroke:#231f20;stroke-width:10.07999992;stroke-linecap:butt;stroke-linejoin:miter;stroke-miterlimit:2.61310005;stroke-dasharray:none;stroke-opacity:1"
         id="path26"
         inkscape:connector-curvature="0" /><path
         d="m 629.852,1485.47 -26.637,48.24 -25.922,-48.24 52.559,0"
         style="fill:#231f20;fill-opacity:1;fill-rule:evenodd;stroke:none"
         id="path28"
         inkscape:connector-curvature="0" /><path
         d="m 603.215,1245.71 0,-142.56"
         style="fill:none;stroke:#231f20;stroke-width:10.07999992;stroke-linecap:butt;stroke-linejoin:miter;stroke-miterlimit:2.61310005;stroke-dasharray:none;stroke-opacity:1"
         id="path30"
         inkscape:connector-curvature="0" /><path
         d="m 629.852,1107.47 -26.637,-48.24 -25.922,48.24 52.559,0"
         style="fill:#231f20;fill-opacity:1;fill-rule:evenodd;stroke:none"
         id="path32"
         inkscape:connector-curvature="0" /><path
         d="m 603.215,1242.83 c -27.363,0 -49.68,24.48 -49.68,53.28 0,29.52 22.317,53.28 49.68,53.28 27.359,0 49.68,-23.76 49.68,-53.28 0,-28.8 -22.321,-53.28 -49.68,-53.28 z"
         style="fill:none;stroke:#231f20;stroke-width:10.07999992;stroke-linecap:butt;stroke-linejoin:miter;stroke-miterlimit:2.61310005;stroke-dasharray:none;stroke-opacity:1"
         id="path34"
         inkscape:connector-curvature="0" /><path
         d="m 963.215,195.23 c -31.68,0 -57.602,25.918 -57.602,57.598 0,31.68 25.922,57.602 57.602,57.602 32.398,0 58.325,-25.922 58.325,-57.602 0,-31.68 -25.927,-57.598 -58.325,-57.598 z"
         style="fill:none;stroke:#231f20;stroke-width:10.07999992;stroke-linecap:butt;stroke-linejoin:miter;stroke-miterlimit:2.61310005;stroke-dasharray:none;stroke-opacity:1"
         id="path36"
         inkscape:connector-curvature="0" /><path
         d="m 963.215,310.43 0,143.281"
         style="fill:none;stroke:#231f20;stroke-width:10.07999992;stroke-linecap:butt;stroke-linejoin:miter;stroke-miterlimit:2.61310005;stroke-dasharray:none;stroke-opacity:1"
         id="path38"
         inkscape:connector-curvature="0" /><path
         d="m 937.293,449.391 25.922,47.519 26.637,-47.519 -52.559,0"
         style="fill:#231f20;fill-opacity:1;fill-rule:evenodd;stroke:none"
         id="path40"
         inkscape:connector-curvature="0" /><path
         d="m 315.215,2296.91 c 32.398,0 58.32,-25.92 58.32,-57.6 0,-31.68 -25.922,-57.6 -58.32,-57.6 -31.68,0 -57.602,25.92 -57.602,57.6 0,31.68 25.922,57.6 57.602,57.6 z"
         style="fill:none;stroke:#231f20;stroke-width:10.07999992;stroke-linecap:butt;stroke-linejoin:miter;stroke-miterlimit:2.61310005;stroke-dasharray:none;stroke-opacity:1"
         id="path42"
         inkscape:connector-curvature="0" /><path
         d="m 315.215,2181.71 0,-142.56"
         style="fill:none;stroke:#231f20;stroke-width:10.07999992;stroke-linecap:butt;stroke-linejoin:miter;stroke-miterlimit:2.61310005;stroke-dasharray:none;stroke-opacity:1"
         id="path44"
         inkscape:connector-curvature="0" /><path
         d="m 341.852,2043.47 -26.637,-48.24 -25.922,48.24 52.559,0"
         style="fill:#231f20;fill-opacity:1;fill-rule:evenodd;stroke:none"
         id="path46"
         inkscape:connector-curvature="0" /><path
         d="m 1539.21,2296.91 c 32.4,0 58.33,-25.92 58.33,-57.6 0,-31.68 -25.93,-57.6 -58.33,-57.6 -31.67,0 -57.6,25.92 -57.6,57.6 0,31.68 25.93,57.6 57.6,57.6 z"
         style="fill:none;stroke:#231f20;stroke-width:10.07999992;stroke-linecap:butt;stroke-linejoin:miter;stroke-miterlimit:2.61310005;stroke-dasharray:none;stroke-opacity:1"
         id="path48"
         inkscape:connector-curvature="0" /><path
         d="m 1539.21,2181.71 0,-142.56"
         style="fill:none;stroke:#231f20;stroke-width:10.07999992;stroke-linecap:butt;stroke-linejoin:miter;stroke-miterlimit:2.61310005;stroke-dasharray:none;stroke-opacity:1"
         id="path50"
         inkscape:connector-curvature="0" /><path
         d="m 1565.85,2043.47 -26.64,-48.24 -25.92,48.24 52.56,0"
         style="fill:#231f20;fill-opacity:1;fill-rule:evenodd;stroke:none"
         id="path52"
         inkscape:connector-curvature="0" /><path
         d="m 2115.21,195.23 c -31.67,0 -57.6,25.918 -57.6,57.598 0,31.68 25.93,57.602 57.6,57.602 32.4,0 58.33,-25.922 58.33,-57.602 0,-31.68 -25.93,-57.598 -58.33,-57.598 z"
         style="fill:none;stroke:#231f20;stroke-width:10.07999992;stroke-linecap:butt;stroke-linejoin:miter;stroke-miterlimit:2.61310005;stroke-dasharray:none;stroke-opacity:1"
         id="path54"
         inkscape:connector-curvature="0" /><path
         d="m 2115.21,310.43 0,143.281"
         style="fill:none;stroke:#231f20;stroke-width:10.07999992;stroke-linecap:butt;stroke-linejoin:miter;stroke-miterlimit:2.61310005;stroke-dasharray:none;stroke-opacity:1"
         id="path56"
         inkscape:connector-curvature="0" /><path
         d="m 2089.29,449.391 25.92,47.519 26.64,-47.519 -52.56,0"
         style="fill:#231f20;fill-opacity:1;fill-rule:evenodd;stroke:none"
         id="path58"
         inkscape:connector-curvature="0" /><path
         d="m 2270.73,707.871 0,1151.279"
         style="fill:none;stroke:#231f20;stroke-width:9.99779987;stroke-linecap:butt;stroke-linejoin:miter;stroke-miterlimit:2.61310005;stroke-dasharray:19.9956, 9.9978;stroke-dashoffset:0;stroke-opacity:1"
         id="path60"
         inkscape:connector-curvature="0" /><path
         d="m 1973.38,750.348 0,1080.002"
         style="fill:none;stroke:#231f20;stroke-width:9.99779987;stroke-linecap:butt;stroke-linejoin:miter;stroke-miterlimit:2.61310005;stroke-dasharray:19.9956, 9.9978;stroke-dashoffset:0;stroke-opacity:1"
         id="path62"
         inkscape:connector-curvature="0" /><path
         d="m 1380.81,1850.51 0,-1114.561"
         style="fill:none;stroke:#231f20;stroke-width:9.99779987;stroke-linecap:butt;stroke-linejoin:miter;stroke-miterlimit:2.61310005;stroke-dasharray:19.9956, 9.9978;stroke-dashoffset:0;stroke-opacity:1"
         id="path64"
         inkscape:connector-curvature="0" /><path
         d="m 1709.85,1830.35 0,-1128.241"
         style="fill:none;stroke:#231f20;stroke-width:9.99779987;stroke-linecap:butt;stroke-linejoin:miter;stroke-miterlimit:2.61310005;stroke-dasharray:19.9956, 9.9978;stroke-dashoffset:0;stroke-opacity:1"
         id="path66"
         inkscape:connector-curvature="0" /><path
         d="m 1538.49,1496.27 0,-142.56"
         style="fill:none;stroke:#231f20;stroke-width:10.07999992;stroke-linecap:butt;stroke-linejoin:miter;stroke-miterlimit:2.61310005;stroke-dasharray:none;stroke-opacity:1"
         id="path68"
         inkscape:connector-curvature="0" /><path
         d="m 1565.13,1491.95 -26.64,48.24 -25.92,-48.24 52.56,0"
         style="fill:#231f20;fill-opacity:1;fill-rule:evenodd;stroke:none"
         id="path70"
         inkscape:connector-curvature="0" /><path
         d="m 1538.49,1249.31 c -27.36,0 -49.68,23.76 -49.68,53.28 0,29.52 22.32,53.28 49.68,53.28 27.36,0 49.68,-23.76 49.68,-53.28 0,-29.52 -22.32,-53.28 -49.68,-53.28 z"
         style="fill:none;stroke:#231f20;stroke-width:10.07999992;stroke-linecap:butt;stroke-linejoin:miter;stroke-miterlimit:2.61310005;stroke-dasharray:none;stroke-opacity:1"
         id="path72"
         inkscape:connector-curvature="0" /><path
         d="m 2118.81,1107.47 0,142.56"
         style="fill:none;stroke:#231f20;stroke-width:10.07999992;stroke-linecap:butt;stroke-linejoin:miter;stroke-miterlimit:2.61310005;stroke-dasharray:none;stroke-opacity:1"
         id="path74"
         inkscape:connector-curvature="0" /><path
         d="m 2092.17,1111.79 26.64,-48.24 26.64,48.24 -53.28,0"
         style="fill:#231f20;fill-opacity:1;fill-rule:evenodd;stroke:none"
         id="path76"
         inkscape:connector-curvature="0" /><path
         d="m 2119.54,1354.43 c 27.35,0 49.67,-24.48 49.67,-53.28 0,-29.52 -22.32,-53.28 -49.67,-53.28 -27.37,0 -49.69,23.76 -49.69,53.28 0,28.8 22.32,53.28 49.69,53.28 z"
         style="fill:none;stroke:#231f20;stroke-width:10.07999992;stroke-linecap:butt;stroke-linejoin:miter;stroke-miterlimit:2.61310005;stroke-dasharray:none;stroke-opacity:1"
         id="path78"
         inkscape:connector-curvature="0" /><g
         id="g80"
         transform="scale(10,10)"><text
           transform="matrix(1,0,0,-1,96.3215,223.715)"
           style="font-variant:normal;font-weight:normal;font-size:17.99970055px;font-family:Arial;-inkscape-font-specification:Arial;writing-mode:lr-tb;fill:#231f20;fill-opacity:1;fill-rule:nonzero;stroke:none"
           id="text82"><tspan
             x="0"
             y="0"
             id="tspan84"></tspan><tspan
             x="-1.1523401"
             y="97.344101"
             id="tspan86"></tspan></text>
<text
           transform="matrix(1,0,0,-1,15.53756,125.36309)"
           style="font-variant:normal;font-weight:normal;font-size:13.99950027px;font-family:Arial;-inkscape-font-specification:Arial;writing-mode:lr-tb;fill:#231f20;fill-opacity:1;fill-rule:nonzero;stroke:none"
           id="text88"><tspan
             x="0 6.9997501 10.891611 14.783472 18.675333 22.567194"
             y="0"
             sodipodi:role="line"
             id="tspan90">c</tspan><tspan
             x="8.8558598 23.327717"
             y="-110.304"
             sodipodi:role="line"
             id="tspan92"></tspan></text>
<text
           transform="matrix(1,0,0,-1,32.24147,233.29131)"
           style="font-variant:normal;font-weight:normal;font-size:11.99969959px;font-family:Arial;-inkscape-font-specification:Arial;writing-mode:lr-tb;fill:#231f20;fill-opacity:1;fill-rule:nonzero;stroke:none"
           id="text94"><tspan
             x="0"
             y="0"
             id="tspan96"></tspan></text>
<text
           transform="matrix(1,0,0,-1,68.96137,22.47531)"
           style="font-variant:normal;font-weight:normal;font-size:13.99950027px;font-family:Arial;-inkscape-font-specification:Arial;writing-mode:lr-tb;fill:#231f20;fill-opacity:1;fill-rule:nonzero;stroke:none"
           id="text98"><tspan
             x="0 14.399983"
             y="0"
             sodipodi:role="line"
             id="tspan100"></tspan></text>
<text
           transform="matrix(1,0,0,-1,76.73754,20.09914)"
           style="font-variant:normal;font-weight:normal;font-size:11.99969959px;font-family:Arial;-inkscape-font-specification:Arial;writing-mode:lr-tb;fill:#231f20;fill-opacity:1;fill-rule:nonzero;stroke:none"
           id="text102"><tspan
             x="0"
             y="0"
             id="tspan104"></tspan></text>
</g><path
         d="m 819.934,2197.55 0,-856.08"
         style="fill:none;stroke:#231f20;stroke-width:9.99779987;stroke-linecap:butt;stroke-linejoin:miter;stroke-miterlimit:2.61310005;stroke-dasharray:none;stroke-opacity:1"
         id="path106"
         inkscape:connector-curvature="0" /><path
         d="m 845.852,2193.23 -25.918,48.24 -26.641,-48.24 52.559,0"
         style="fill:#231f20;fill-opacity:1;fill-rule:evenodd;stroke:none"
         id="path108"
         inkscape:connector-curvature="0" /><path
         d="m 845.852,1345.79 -25.918,-48.24 -26.641,48.24 52.559,0"
         style="fill:#231f20;fill-opacity:1;fill-rule:evenodd;stroke:none"
         id="path110"
         inkscape:connector-curvature="0" /><path
         d="m 817.055,2238.59 -501.84,0"
         style="fill:none;stroke:#231f20;stroke-width:4.99749994;stroke-linecap:butt;stroke-linejoin:miter;stroke-miterlimit:2.61310005;stroke-dasharray:24.9875, 24.9875;stroke-dashoffset:0;stroke-opacity:1"
         id="path112"
         inkscape:connector-curvature="0" /><path
         d="m 817.055,1297.55 -213.121,0"
         style="fill:none;stroke:#231f20;stroke-width:4.99749994;stroke-linecap:butt;stroke-linejoin:miter;stroke-miterlimit:2.61310005;stroke-dasharray:24.9875, 24.9875;stroke-dashoffset:0;stroke-opacity:1"
         id="path114"
         inkscape:connector-curvature="0" /><g
         id="g116"
         transform="scale(10,10)"><text
           transform="matrix(1,0,0,-1,92.0012,165.467)"
           style="font-variant:normal;font-weight:normal;font-size:13.99950027px;font-family:Arial;-inkscape-font-specification:Arial;writing-mode:lr-tb;fill:#231f20;fill-opacity:1;fill-rule:nonzero;stroke:none"
           id="text118"><tspan
             x="0"
             y="0"
             id="tspan120">c</tspan></text>
<text
           transform="matrix(1,0,0,-1,84.22542,168.56309)"
           style="font-variant:normal;font-weight:normal;font-size:13.99950027px;font-family:AvantGardeBkBT;-inkscape-font-specification:AvantGardeBkBT;writing-mode:lr-tb;fill:#231f20;fill-opacity:1;fill-rule:nonzero;stroke:none"
           id="text122"><tspan
             x="0"
             y="0"
             id="tspan124">d</tspan></text>
<text
           transform="matrix(1,0,0,-1,180.70552,147.75529)"
           style="font-variant:normal;font-weight:normal;font-size:13.99950027px;font-family:Arial;-inkscape-font-specification:Arial;writing-mode:lr-tb;fill:#231f20;fill-opacity:1;fill-rule:nonzero;stroke:none"
           id="text126"><tspan
             x="0"
             y="0"
             id="tspan128">c</tspan></text>
<text
           transform="matrix(1,0,0,-1,172.85747,150.77912)"
           style="font-variant:normal;font-weight:normal;font-size:13.99950027px;font-family:AvantGardeBkBT;-inkscape-font-specification:AvantGardeBkBT;writing-mode:lr-tb;fill:#231f20;fill-opacity:1;fill-rule:nonzero;stroke:none"
           id="text130"><tspan
             x="0"
             y="0"
             id="tspan132">d</tspan></text>
</g><path
         d="m 1661.61,2197.55 0,-853.2"
         style="fill:none;stroke:#231f20;stroke-width:9.99779987;stroke-linecap:butt;stroke-linejoin:miter;stroke-miterlimit:2.61310005;stroke-dasharray:none;stroke-opacity:1"
         id="path134"
         inkscape:connector-curvature="0" /><path
         d="m 1688.25,2193.23 -26.64,48.24 -26.64,-48.24 53.28,0"
         style="fill:#231f20;fill-opacity:1;fill-rule:evenodd;stroke:none"
         id="path136"
         inkscape:connector-curvature="0" /><path
         d="m 1688.25,1347.95 -26.64,-47.52 -26.64,47.52 53.28,0"
         style="fill:#231f20;fill-opacity:1;fill-rule:evenodd;stroke:none"
         id="path138"
         inkscape:connector-curvature="0" /><path
         d="m 1658.73,2238.59 -118.8,0"
         style="fill:none;stroke:#231f20;stroke-width:4.99749994;stroke-linecap:butt;stroke-linejoin:miter;stroke-miterlimit:2.61310005;stroke-dasharray:24.9875, 24.9875;stroke-dashoffset:0;stroke-opacity:1"
         id="path140"
         inkscape:connector-curvature="0" /><path
         d="m 1658.73,1300.43 -121.68,0"
         style="fill:none;stroke:#231f20;stroke-width:4.99749994;stroke-linecap:butt;stroke-linejoin:miter;stroke-miterlimit:2.61310005;stroke-dasharray:24.9875, 24.9875;stroke-dashoffset:0;stroke-opacity:1"
         id="path142"
         inkscape:connector-curvature="0" /></g></g></svg>