<?xml version="1.0" encoding="UTF-8" standalone="no"?>
<!-- Created with Inkscape (http://www.inkscape.org/) -->

<svg
   xmlns:dc="http://purl.org/dc/elements/1.1/"
   xmlns:cc="http://creativecommons.org/ns#"
   xmlns:rdf="http://www.w3.org/1999/02/22-rdf-syntax-ns#"
   xmlns:svg="http://www.w3.org/2000/svg"
   xmlns="http://www.w3.org/2000/svg"
   xmlns:sodipodi="http://sodipodi.sourceforge.net/DTD/sodipodi-0.dtd"
   xmlns:inkscape="http://www.inkscape.org/namespaces/inkscape"
   id="svg2"
   version="1.1"
   inkscape:version="0.91 r13725"
   xml:space="preserve"
   width="989.98627"
   height="765"
   viewBox="0 0 989.98627 765"
   sodipodi:docname="rdfO-O.svg"><metadata
     id="metadata8"><rdf:RDF><cc:Work
         rdf:about=""><dc:format>image/svg+xml</dc:format><dc:type
           rdf:resource="http://purl.org/dc/dcmitype/StillImage" /><dc:title></dc:title></cc:Work></rdf:RDF></metadata><defs
     id="defs6" /><sodipodi:namedview
     pagecolor="#ffffff"
     bordercolor="#666666"
     borderopacity="1"
     objecttolerance="10"
     gridtolerance="10"
     guidetolerance="10"
     inkscape:pageopacity="0"
     inkscape:pageshadow="2"
     inkscape:window-width="760"
     inkscape:window-height="480"
     id="namedview4"
     showgrid="false"
     fit-margin-top="0"
     fit-margin-left="0"
     fit-margin-right="0"
     fit-margin-bottom="0"
     inkscape:zoom="0.22422803"
     inkscape:cx="371.875"
     inkscape:cy="526.25"
     inkscape:window-x="0"
     inkscape:window-y="25"
     inkscape:window-maximized="0"
     inkscape:current-layer="g10" /><g
     id="g10"
     inkscape:groupmode="layer"
     inkscape:label="ink_ext_XXXXXX"
     transform="matrix(1.25,0,0,-1.25,0,765)"><g
       id="g12"
       transform="scale(0.1,0.1)"><path
         d="m 0,0 7919.89,0 0,6120 L 0,6120 0,0 Z"
         style="fill:#ffffff;fill-opacity:1;fill-rule:nonzero;stroke:none"
         id="path14"
         inkscape:connector-curvature="0" /><path
         d="m 918,779.688 1312.13,0 28.15,1.835 28.15,28.766 27.54,207.471 28.16,661.57 28.15,1236.85 27.54,1349.46 28.15,925.96 27.54,294.37 28.15,-284.58 28.15,-521.43 27.54,-570.99 28.15,-509.18 28.16,-398.42 27.54,-310.28 28.15,-189.72 27.54,-146.88 28.15,-94.86 28.15,-48.96 27.54,-38.56 28.15,-31.82 28.16,-11.02 27.53,2.45 28.16,-11.02 28.15,-0.61 27.54,23.87 28.15,-5.51 27.54,5.51 28.16,19.58 28.15,10.41 27.54,7.95 28.15,3.68 28.15,22.03 27.54,9.79 28.15,25.09 27.54,4.9 28.15,11.63 28.16,25.09 27.54,7.34 28.15,22.03 28.15,6.73 27.54,0 28.15,3.07 27.54,14.07 28.15,-6.73 28.16,13.47 27.53,-17.14 28.16,-5.51 28.15,-0.61 27.54,-3.06 28.15,-21.42 27.54,-0.62 28.15,-20.19 28.15,-4.9 27.55,-17.13 28.15,-9.8 28.15,-9.17 27.54,-4.9 28.15,-18.97 27.54,-9.18 28.16,-11.63 28.15,-0.61 27.54,-12.24 28.15,-2.45 28.15,-10.4 27.54,0.61 28.15,3.06 27.54,-6.12 28.15,-3.06 28.16,14.69 27.54,9.18 28.15,3.67 28.15,11.01 27.54,7.35 28.15,11.01 27.54,10.41 28.15,14.69 28.16,15.3 27.54,4.28 28.15,11.02 28.15,0.61 27.54,15.3 28.15,3.67 27.54,4.29 28.16,7.34 28.15,7.96 27.54,4.28 28.15,0.61 28.15,3.06 27.54,2.45 28.15,-3.06 27.54,1.22 28.15,2.45 28.16,-15.3 27.54,9.79 28.15,-11.63 28.15,1.23 27.54,-3.06 28.15,-7.34 28.15,-8.58 27.54,1.84 28.16,-13.46 27.54,3.67 28.15,-20.81 28.15,9.18 27.54,-9.79 28.15,-6.12 28.15,-3.06 27.54,4.89 28.15,-4.89 27.55,-8.57 28.15,3.68 28.15,0.6 27.54,-4.28 28.15,-4.28 28.15,5.51 27.55,-7.96 28.15,1.23 27.54,4.89 28.15,7.34 28.15,-3.67 27.54,3.67 28.15,0 28.16,-0.61 27.53,-0.61 28.16,4.28 27.54,0 28.15,3.07 28.15,-1.84 27.54,3.06 28.15,3.67 28.15,4.28 27.54,1.23 28.16,5.51 27.53,-11.63 28.16,11.63 28.15,-1.23 27.54,5.51 28.15,-9.79 28.15,3.67 27.55,3.67 28.14,-1.22 27.55,-0.61 28.15,-2.45 28.15,1.22 27.54,-2.45 28.15,3.68 28.16,-4.9 27.53,6.73 28.16,2.45 27.54,-12.85 28.15,1.22 28.15,4.29 27.54,0 28.15,-1.23 28.15,-3.06 27.54,-1.22 28.16,6.12 27.54,-3.06 28.15,-0.62 28.15,2.45 27.54,-1.83 28.15,-4.29 28.15,4.9 27.54,-9.79 28.16,3.67 28.15,3.67 27.54,0.61 28.15,4.9 27.54,-6.12 28.15,0.61 28.16,-2.45 27.54,1.23 28.15,4.28 28.15,-3.06 27.54,-0.61 28.15,-0.61 27.54,0 28.15,-1.23 28.16,4.29 27.53,-3.67 28.16,2.44 28.15,-3.06 27.54,4.29 28.15,-4.29 27.54,3.67 28.15,-1.83 28.15,4.28 27.54,-1.83 28.16,-2.45 55.69,0 28.15,3.06 27.54,-3.67 1.23,0"
         style="fill:none;stroke:#000000;stroke-width:18.36000061;stroke-linecap:butt;stroke-linejoin:miter;stroke-miterlimit:10;stroke-dasharray:none;stroke-opacity:1"
         id="path16"
         inkscape:connector-curvature="0" /><path
         d="m 918,612 6702.01,0"
         style="fill:none;stroke:#000000;stroke-width:9.18000031;stroke-linecap:butt;stroke-linejoin:miter;stroke-miterlimit:10;stroke-dasharray:none;stroke-opacity:1"
         id="path18"
         inkscape:connector-curvature="0" /><path
         d="m 918,5814 6702.01,0"
         style="fill:none;stroke:#000000;stroke-width:9.18000031;stroke-linecap:butt;stroke-linejoin:miter;stroke-miterlimit:10;stroke-dasharray:none;stroke-opacity:1"
         id="path20"
         inkscape:connector-curvature="0" /><path
         d="m 1476.76,612 0,61.199"
         style="fill:none;stroke:#000000;stroke-width:9.18000031;stroke-linecap:butt;stroke-linejoin:miter;stroke-miterlimit:10;stroke-dasharray:none;stroke-opacity:1"
         id="path22"
         inkscape:connector-curvature="0" /><path
         d="m 1476.76,5814 0,-61.2"
         style="fill:none;stroke:#000000;stroke-width:9.18000031;stroke-linecap:butt;stroke-linejoin:miter;stroke-miterlimit:10;stroke-dasharray:none;stroke-opacity:1"
         id="path24"
         inkscape:connector-curvature="0" /><path
         d="m 2593.66,612 0,61.199"
         style="fill:none;stroke:#000000;stroke-width:9.18000031;stroke-linecap:butt;stroke-linejoin:miter;stroke-miterlimit:10;stroke-dasharray:none;stroke-opacity:1"
         id="path26"
         inkscape:connector-curvature="0" /><path
         d="m 2593.66,5814 0,-61.2"
         style="fill:none;stroke:#000000;stroke-width:9.18000031;stroke-linecap:butt;stroke-linejoin:miter;stroke-miterlimit:10;stroke-dasharray:none;stroke-opacity:1"
         id="path28"
         inkscape:connector-curvature="0" /><path
         d="m 3710.55,612 0,61.199"
         style="fill:none;stroke:#000000;stroke-width:9.18000031;stroke-linecap:butt;stroke-linejoin:miter;stroke-miterlimit:10;stroke-dasharray:none;stroke-opacity:1"
         id="path30"
         inkscape:connector-curvature="0" /><path
         d="m 3710.55,5814 0,-61.2"
         style="fill:none;stroke:#000000;stroke-width:9.18000031;stroke-linecap:butt;stroke-linejoin:miter;stroke-miterlimit:10;stroke-dasharray:none;stroke-opacity:1"
         id="path32"
         inkscape:connector-curvature="0" /><path
         d="m 4827.46,612 0,61.199"
         style="fill:none;stroke:#000000;stroke-width:9.18000031;stroke-linecap:butt;stroke-linejoin:miter;stroke-miterlimit:10;stroke-dasharray:none;stroke-opacity:1"
         id="path34"
         inkscape:connector-curvature="0" /><path
         d="m 4827.46,5814 0,-61.2"
         style="fill:none;stroke:#000000;stroke-width:9.18000031;stroke-linecap:butt;stroke-linejoin:miter;stroke-miterlimit:10;stroke-dasharray:none;stroke-opacity:1"
         id="path36"
         inkscape:connector-curvature="0" /><path
         d="m 5944.36,612 0,61.199"
         style="fill:none;stroke:#000000;stroke-width:9.18000031;stroke-linecap:butt;stroke-linejoin:miter;stroke-miterlimit:10;stroke-dasharray:none;stroke-opacity:1"
         id="path38"
         inkscape:connector-curvature="0" /><path
         d="m 5944.36,5814 0,-61.2"
         style="fill:none;stroke:#000000;stroke-width:9.18000031;stroke-linecap:butt;stroke-linejoin:miter;stroke-miterlimit:10;stroke-dasharray:none;stroke-opacity:1"
         id="path40"
         inkscape:connector-curvature="0" /><path
         d="m 918,612 0,122.398"
         style="fill:none;stroke:#000000;stroke-width:9.18000031;stroke-linecap:butt;stroke-linejoin:miter;stroke-miterlimit:10;stroke-dasharray:none;stroke-opacity:1"
         id="path42"
         inkscape:connector-curvature="0" /><path
         d="m 918,5814 0,-122.4"
         style="fill:none;stroke:#000000;stroke-width:9.18000031;stroke-linecap:butt;stroke-linejoin:miter;stroke-miterlimit:10;stroke-dasharray:none;stroke-opacity:1"
         id="path44"
         inkscape:connector-curvature="0" /><path
         d="m 2034.9,612 0,122.398"
         style="fill:none;stroke:#000000;stroke-width:9.18000031;stroke-linecap:butt;stroke-linejoin:miter;stroke-miterlimit:10;stroke-dasharray:none;stroke-opacity:1"
         id="path46"
         inkscape:connector-curvature="0" /><path
         d="m 2034.9,5814 0,-122.4"
         style="fill:none;stroke:#000000;stroke-width:9.18000031;stroke-linecap:butt;stroke-linejoin:miter;stroke-miterlimit:10;stroke-dasharray:none;stroke-opacity:1"
         id="path48"
         inkscape:connector-curvature="0" /><path
         d="m 3151.8,612 0,122.398"
         style="fill:none;stroke:#000000;stroke-width:9.18000031;stroke-linecap:butt;stroke-linejoin:miter;stroke-miterlimit:10;stroke-dasharray:none;stroke-opacity:1"
         id="path50"
         inkscape:connector-curvature="0" /><path
         d="m 3151.8,5814 0,-122.4"
         style="fill:none;stroke:#000000;stroke-width:9.18000031;stroke-linecap:butt;stroke-linejoin:miter;stroke-miterlimit:10;stroke-dasharray:none;stroke-opacity:1"
         id="path52"
         inkscape:connector-curvature="0" /><path
         d="m 4268.7,612 0,122.398"
         style="fill:none;stroke:#000000;stroke-width:9.18000031;stroke-linecap:butt;stroke-linejoin:miter;stroke-miterlimit:10;stroke-dasharray:none;stroke-opacity:1"
         id="path54"
         inkscape:connector-curvature="0" /><path
         d="m 4268.7,5814 0,-122.4"
         style="fill:none;stroke:#000000;stroke-width:9.18000031;stroke-linecap:butt;stroke-linejoin:miter;stroke-miterlimit:10;stroke-dasharray:none;stroke-opacity:1"
         id="path56"
         inkscape:connector-curvature="0" /><path
         d="m 5385.6,612 0,122.398"
         style="fill:none;stroke:#000000;stroke-width:9.18000031;stroke-linecap:butt;stroke-linejoin:miter;stroke-miterlimit:10;stroke-dasharray:none;stroke-opacity:1"
         id="path58"
         inkscape:connector-curvature="0" /><path
         d="m 5385.6,5814 0,-122.4"
         style="fill:none;stroke:#000000;stroke-width:9.18000031;stroke-linecap:butt;stroke-linejoin:miter;stroke-miterlimit:10;stroke-dasharray:none;stroke-opacity:1"
         id="path60"
         inkscape:connector-curvature="0" /><g
         id="g62"
         transform="scale(10,10)"><text
           transform="matrix(1,0,0,-1,86.4145,40.2086)"
           style="font-variant:normal;font-weight:normal;font-size:21.05279922px;font-family:Helvetica;-inkscape-font-specification:Helvetica;writing-mode:lr-tb;fill:#000000;fill-opacity:1;fill-rule:nonzero;stroke:none"
           id="text64"><tspan
             x="0 102.93829 114.64365 120.49633 214.50592 226.21129 232.06396 326.31839 338.02374 343.87643 438.00833 449.71371 455.56638"
             y="0"
             sodipodi:role="line"
             id="tspan66">00.20.40.60.8</tspan></text>
<text
           transform="matrix(1,0,0,-1,394.0055,15.1164)"
           style="font-variant:normal;font-weight:normal;font-size:25.33679962px;font-family:Helvetica;-inkscape-font-specification:Helvetica;writing-mode:lr-tb;fill:#000000;fill-opacity:1;fill-rule:nonzero;stroke:none"
           id="text68"><tspan
             x="0 8.4371548 15.480784 23.91794 38.005199 59.110756"
             y="0"
             sodipodi:role="line"
             id="tspan70">r (nm)</tspan></text>
</g><path
         d="m 918,612 0,5202"
         style="fill:none;stroke:#000000;stroke-width:9.18000031;stroke-linecap:butt;stroke-linejoin:miter;stroke-miterlimit:10;stroke-dasharray:none;stroke-opacity:1"
         id="path72"
         inkscape:connector-curvature="0" /><path
         d="m 918,612 61.199,0"
         style="fill:none;stroke:#000000;stroke-width:9.18000031;stroke-linecap:butt;stroke-linejoin:miter;stroke-miterlimit:10;stroke-dasharray:none;stroke-opacity:1"
         id="path74"
         inkscape:connector-curvature="0" /><path
         d="m 918,947.375 61.199,0"
         style="fill:none;stroke:#000000;stroke-width:9.18000031;stroke-linecap:butt;stroke-linejoin:miter;stroke-miterlimit:10;stroke-dasharray:none;stroke-opacity:1"
         id="path76"
         inkscape:connector-curvature="0" /><path
         d="m 918,1115.68 61.199,0"
         style="fill:none;stroke:#000000;stroke-width:9.18000031;stroke-linecap:butt;stroke-linejoin:miter;stroke-miterlimit:10;stroke-dasharray:none;stroke-opacity:1"
         id="path78"
         inkscape:connector-curvature="0" /><path
         d="m 918,1283.36 61.199,0"
         style="fill:none;stroke:#000000;stroke-width:9.18000031;stroke-linecap:butt;stroke-linejoin:miter;stroke-miterlimit:10;stroke-dasharray:none;stroke-opacity:1"
         id="path80"
         inkscape:connector-curvature="0" /><path
         d="m 918,1451.05 61.199,0"
         style="fill:none;stroke:#000000;stroke-width:9.18000031;stroke-linecap:butt;stroke-linejoin:miter;stroke-miterlimit:10;stroke-dasharray:none;stroke-opacity:1"
         id="path82"
         inkscape:connector-curvature="0" /><path
         d="m 918,1786.43 61.199,0"
         style="fill:none;stroke:#000000;stroke-width:9.18000031;stroke-linecap:butt;stroke-linejoin:miter;stroke-miterlimit:10;stroke-dasharray:none;stroke-opacity:1"
         id="path84"
         inkscape:connector-curvature="0" /><path
         d="m 918,1954.73 61.199,0"
         style="fill:none;stroke:#000000;stroke-width:9.18000031;stroke-linecap:butt;stroke-linejoin:miter;stroke-miterlimit:10;stroke-dasharray:none;stroke-opacity:1"
         id="path86"
         inkscape:connector-curvature="0" /><path
         d="m 918,2122.42 61.199,0"
         style="fill:none;stroke:#000000;stroke-width:9.18000031;stroke-linecap:butt;stroke-linejoin:miter;stroke-miterlimit:10;stroke-dasharray:none;stroke-opacity:1"
         id="path88"
         inkscape:connector-curvature="0" /><path
         d="m 918,2290.11 61.199,0"
         style="fill:none;stroke:#000000;stroke-width:9.18000031;stroke-linecap:butt;stroke-linejoin:miter;stroke-miterlimit:10;stroke-dasharray:none;stroke-opacity:1"
         id="path90"
         inkscape:connector-curvature="0" /><path
         d="m 918,2625.48 61.199,0"
         style="fill:none;stroke:#000000;stroke-width:9.18000031;stroke-linecap:butt;stroke-linejoin:miter;stroke-miterlimit:10;stroke-dasharray:none;stroke-opacity:1"
         id="path92"
         inkscape:connector-curvature="0" /><path
         d="m 918,2793.78 61.199,0"
         style="fill:none;stroke:#000000;stroke-width:9.18000031;stroke-linecap:butt;stroke-linejoin:miter;stroke-miterlimit:10;stroke-dasharray:none;stroke-opacity:1"
         id="path94"
         inkscape:connector-curvature="0" /><path
         d="m 918,2961.47 61.199,0"
         style="fill:none;stroke:#000000;stroke-width:9.18000031;stroke-linecap:butt;stroke-linejoin:miter;stroke-miterlimit:10;stroke-dasharray:none;stroke-opacity:1"
         id="path96"
         inkscape:connector-curvature="0" /><path
         d="m 918,3129.16 61.199,0"
         style="fill:none;stroke:#000000;stroke-width:9.18000031;stroke-linecap:butt;stroke-linejoin:miter;stroke-miterlimit:10;stroke-dasharray:none;stroke-opacity:1"
         id="path98"
         inkscape:connector-curvature="0" /><path
         d="m 918,3464.53 61.199,0"
         style="fill:none;stroke:#000000;stroke-width:9.18000031;stroke-linecap:butt;stroke-linejoin:miter;stroke-miterlimit:10;stroke-dasharray:none;stroke-opacity:1"
         id="path100"
         inkscape:connector-curvature="0" /><path
         d="m 918,3632.22 61.199,0"
         style="fill:none;stroke:#000000;stroke-width:9.18000031;stroke-linecap:butt;stroke-linejoin:miter;stroke-miterlimit:10;stroke-dasharray:none;stroke-opacity:1"
         id="path102"
         inkscape:connector-curvature="0" /><path
         d="m 918,3800.52 61.199,0"
         style="fill:none;stroke:#000000;stroke-width:9.18000031;stroke-linecap:butt;stroke-linejoin:miter;stroke-miterlimit:10;stroke-dasharray:none;stroke-opacity:1"
         id="path104"
         inkscape:connector-curvature="0" /><path
         d="m 918,3968.21 61.199,0"
         style="fill:none;stroke:#000000;stroke-width:9.18000031;stroke-linecap:butt;stroke-linejoin:miter;stroke-miterlimit:10;stroke-dasharray:none;stroke-opacity:1"
         id="path106"
         inkscape:connector-curvature="0" /><path
         d="m 918,4303.59 61.199,0"
         style="fill:none;stroke:#000000;stroke-width:9.18000031;stroke-linecap:butt;stroke-linejoin:miter;stroke-miterlimit:10;stroke-dasharray:none;stroke-opacity:1"
         id="path108"
         inkscape:connector-curvature="0" /><path
         d="m 918,4471.27 61.199,0"
         style="fill:none;stroke:#000000;stroke-width:9.18000031;stroke-linecap:butt;stroke-linejoin:miter;stroke-miterlimit:10;stroke-dasharray:none;stroke-opacity:1"
         id="path110"
         inkscape:connector-curvature="0" /><path
         d="m 918,4639.57 61.199,0"
         style="fill:none;stroke:#000000;stroke-width:9.18000031;stroke-linecap:butt;stroke-linejoin:miter;stroke-miterlimit:10;stroke-dasharray:none;stroke-opacity:1"
         id="path112"
         inkscape:connector-curvature="0" /><path
         d="m 918,4807.26 61.199,0"
         style="fill:none;stroke:#000000;stroke-width:9.18000031;stroke-linecap:butt;stroke-linejoin:miter;stroke-miterlimit:10;stroke-dasharray:none;stroke-opacity:1"
         id="path114"
         inkscape:connector-curvature="0" /><path
         d="m 918,5142.64 61.199,0"
         style="fill:none;stroke:#000000;stroke-width:9.18000031;stroke-linecap:butt;stroke-linejoin:miter;stroke-miterlimit:10;stroke-dasharray:none;stroke-opacity:1"
         id="path116"
         inkscape:connector-curvature="0" /><path
         d="m 918,5310.32 61.199,0"
         style="fill:none;stroke:#000000;stroke-width:9.18000031;stroke-linecap:butt;stroke-linejoin:miter;stroke-miterlimit:10;stroke-dasharray:none;stroke-opacity:1"
         id="path118"
         inkscape:connector-curvature="0" /><path
         d="m 918,5478.63 61.199,0"
         style="fill:none;stroke:#000000;stroke-width:9.18000031;stroke-linecap:butt;stroke-linejoin:miter;stroke-miterlimit:10;stroke-dasharray:none;stroke-opacity:1"
         id="path120"
         inkscape:connector-curvature="0" /><path
         d="m 918,5646.31 61.199,0"
         style="fill:none;stroke:#000000;stroke-width:9.18000031;stroke-linecap:butt;stroke-linejoin:miter;stroke-miterlimit:10;stroke-dasharray:none;stroke-opacity:1"
         id="path122"
         inkscape:connector-curvature="0" /><path
         d="m 918,779.688 122.4,0"
         style="fill:none;stroke:#000000;stroke-width:9.18000031;stroke-linecap:butt;stroke-linejoin:miter;stroke-miterlimit:10;stroke-dasharray:none;stroke-opacity:1"
         id="path124"
         inkscape:connector-curvature="0" /><path
         d="m 918,1618.74 122.4,0"
         style="fill:none;stroke:#000000;stroke-width:9.18000031;stroke-linecap:butt;stroke-linejoin:miter;stroke-miterlimit:10;stroke-dasharray:none;stroke-opacity:1"
         id="path126"
         inkscape:connector-curvature="0" /><path
         d="m 918,2457.79 122.4,0"
         style="fill:none;stroke:#000000;stroke-width:9.18000031;stroke-linecap:butt;stroke-linejoin:miter;stroke-miterlimit:10;stroke-dasharray:none;stroke-opacity:1"
         id="path128"
         inkscape:connector-curvature="0" /><path
         d="m 918,3296.84 122.4,0"
         style="fill:none;stroke:#000000;stroke-width:9.18000031;stroke-linecap:butt;stroke-linejoin:miter;stroke-miterlimit:10;stroke-dasharray:none;stroke-opacity:1"
         id="path130"
         inkscape:connector-curvature="0" /><path
         d="m 918,4135.89 122.4,0"
         style="fill:none;stroke:#000000;stroke-width:9.18000031;stroke-linecap:butt;stroke-linejoin:miter;stroke-miterlimit:10;stroke-dasharray:none;stroke-opacity:1"
         id="path132"
         inkscape:connector-curvature="0" /><path
         d="m 918,4974.95 122.4,0"
         style="fill:none;stroke:#000000;stroke-width:9.18000031;stroke-linecap:butt;stroke-linejoin:miter;stroke-miterlimit:10;stroke-dasharray:none;stroke-opacity:1"
         id="path134"
         inkscape:connector-curvature="0" /><path
         d="m 918,5814 122.4,0"
         style="fill:none;stroke:#000000;stroke-width:9.18000031;stroke-linecap:butt;stroke-linejoin:miter;stroke-miterlimit:10;stroke-dasharray:none;stroke-opacity:1"
         id="path136"
         inkscape:connector-curvature="0" /><g
         id="g138"
         transform="scale(10,10)"><text
           transform="matrix(1,0,0,-1,74.909,70.8086)"
           style="font-variant:normal;font-weight:normal;font-size:21.05279922px;font-family:Helvetica;-inkscape-font-specification:Helvetica;writing-mode:lr-tb;fill:#000000;fill-opacity:1;fill-rule:nonzero;stroke:none"
           id="text140"><tspan
             x="0"
             y="0"
             id="tspan142">0</tspan><tspan
             x="-17.564501 -5.8591433 -0.0064647999"
             y="-83.905098"
             sodipodi:role="line"
             id="tspan144">0.5</tspan><tspan
             x="3.5495999"
             y="-167.56531"
             id="tspan146">1</tspan><tspan
             x="-17.564501 -5.8591433 -0.0064647999"
             y="-251.6544"
             sodipodi:role="line"
             id="tspan148">1.5</tspan><tspan
             x="0"
             y="-335.43719"
             id="tspan150">2</tspan><tspan
             x="-17.564501 -5.8591433 -0.0064647999"
             y="-419.46451"
             sodipodi:role="line"
             id="tspan152">2.5</tspan><tspan
             x="0.18350001"
             y="-503.37"
             id="tspan154">3</tspan></text>
<text
           transform="matrix(0,1,1,0,45.7164,302.573)"
           style="font-variant:normal;font-weight:normal;font-size:25.33679962px;font-family:Helvetica;-inkscape-font-specification:Helvetica;writing-mode:lr-tb;fill:#000000;fill-opacity:1;fill-rule:nonzero;stroke:none"
           id="text156"><tspan
             x="0 14.087261 22.524416 30.961569"
             y="0"
             sodipodi:role="line"
             id="tspan158">g(r)</tspan></text>
</g><path
         d="m 918,612 6702.01,0 0,5202 -6702.01,0 0,-5202 z"
         style="fill:none;stroke:#000000;stroke-width:9.18000031;stroke-linecap:butt;stroke-linejoin:miter;stroke-miterlimit:10;stroke-dasharray:none;stroke-opacity:1"
         id="path160"
         inkscape:connector-curvature="0" /></g></g></svg>