<?xml version="1.0" encoding="UTF-8" standalone="no"?>
<!-- Created with Inkscape (http://www.inkscape.org/) -->

<svg
   xmlns:dc="http://purl.org/dc/elements/1.1/"
   xmlns:cc="http://creativecommons.org/ns#"
   xmlns:rdf="http://www.w3.org/1999/02/22-rdf-syntax-ns#"
   xmlns:svg="http://www.w3.org/2000/svg"
   xmlns="http://www.w3.org/2000/svg"
   xmlns:sodipodi="http://sodipodi.sourceforge.net/DTD/sodipodi-0.dtd"
   xmlns:inkscape="http://www.inkscape.org/namespaces/inkscape"
   id="svg2"
   version="1.1"
   inkscape:version="0.91 r13725"
   xml:space="preserve"
   width="324.84927"
   height="294.47681"
   viewBox="0 0 324.84927 294.47681"
   sodipodi:docname="ring.svg"><metadata
     id="metadata8"><rdf:RDF><cc:Work
         rdf:about=""><dc:format>image/svg+xml</dc:format><dc:type
           rdf:resource="http://purl.org/dc/dcmitype/StillImage" /><dc:title></dc:title></cc:Work></rdf:RDF></metadata><defs
     id="defs6" /><sodipodi:namedview
     pagecolor="#ffffff"
     bordercolor="#666666"
     borderopacity="1"
     objecttolerance="10"
     gridtolerance="10"
     guidetolerance="10"
     inkscape:pageopacity="0"
     inkscape:pageshadow="2"
     inkscape:window-width="760"
     inkscape:window-height="480"
     id="namedview4"
     showgrid="false"
     fit-margin-top="0"
     fit-margin-left="0"
     fit-margin-right="0"
     fit-margin-bottom="0"
     showguides="false"
     inkscape:zoom="0.80340426"
     inkscape:cx="164.69302"
     inkscape:cy="146.0335"
     inkscape:window-x="0"
     inkscape:window-y="25"
     inkscape:window-maximized="0"
     inkscape:current-layer="g10" /><g
     id="g10"
     inkscape:groupmode="layer"
     inkscape:label="ink_ext_XXXXXX"
     transform="matrix(1.25,0,0,-1.25,1.5680245,295.31832)"><g
       id="g12"
       transform="scale(0.1,0.1)"><path
         d="m 1801,1269 c 0,-397.645 -322.36,-720 -720,-720 -397.645,0 -720,322.355 -720,720 0,397.64 322.355,720 720,720 397.64,0 720,-322.36 720,-720"
         style="fill:none;stroke:#000000;stroke-width:4.5;stroke-linecap:butt;stroke-linejoin:miter;stroke-miterlimit:10;stroke-dasharray:none;stroke-opacity:1"
         id="path14"
         inkscape:connector-curvature="0" /><path
         d="m 1171,1989 c 0,-49.7 -40.3,-90 -90,-90 -49.7,0 -90,40.3 -90,90 0,49.7 40.3,90 90,90 49.7,0 90,-40.3 90,-90"
         style="fill:#000000;fill-opacity:1;fill-rule:nonzero;stroke:none"
         id="path16"
         inkscape:connector-curvature="0" /><path
         d="m 1171,1989 c 0,-49.7 -40.3,-90 -90,-90 -49.7,0 -90,40.3 -90,90 0,49.7 40.3,90 90,90 49.7,0 90,-40.3 90,-90"
         style="fill:none;stroke:#000000;stroke-width:4.5;stroke-linecap:round;stroke-linejoin:miter;stroke-miterlimit:10;stroke-dasharray:9, 27;stroke-dashoffset:27;stroke-opacity:1"
         id="path18"
         inkscape:connector-curvature="0" /><path
         d="m 1171,549 c 0,-49.703 -40.3,-90 -90,-90 -49.7,0 -90,40.297 -90,90 0,49.703 40.3,90 90,90 49.7,0 90,-40.297 90,-90"
         style="fill:#000000;fill-opacity:1;fill-rule:nonzero;stroke:none"
         id="path20"
         inkscape:connector-curvature="0" /><path
         d="m 1171,549 c 0,-49.703 -40.3,-90 -90,-90 -49.7,0 -90,40.297 -90,90 0,49.703 40.3,90 90,90 49.7,0 90,-40.297 90,-90"
         style="fill:none;stroke:#000000;stroke-width:4.5;stroke-linecap:round;stroke-linejoin:miter;stroke-miterlimit:10;stroke-dasharray:9, 27;stroke-dashoffset:27;stroke-opacity:1"
         id="path22"
         inkscape:connector-curvature="0" /><path
         d="m 676,774 c 0,-49.703 -40.297,-90 -90,-90 -49.703,0 -90,40.297 -90,90 0,49.703 40.297,90 90,90 49.703,0 90,-40.297 90,-90"
         style="fill:#000000;fill-opacity:1;fill-rule:nonzero;stroke:none"
         id="path24"
         inkscape:connector-curvature="0" /><path
         d="m 676,774 c 0,-49.703 -40.297,-90 -90,-90 -49.703,0 -90,40.297 -90,90 0,49.703 40.297,90 90,90 49.703,0 90,-40.297 90,-90"
         style="fill:none;stroke:#000000;stroke-width:4.5;stroke-linecap:round;stroke-linejoin:miter;stroke-miterlimit:10;stroke-dasharray:9, 27;stroke-dashoffset:27;stroke-opacity:1"
         id="path26"
         inkscape:connector-curvature="0" /><path
         d="m 658,1782 c 0,-49.7 -40.297,-90 -90,-90 -49.703,0 -90,40.3 -90,90 0,49.7 40.297,90 90,90 49.703,0 90,-40.3 90,-90"
         style="fill:#000000;fill-opacity:1;fill-rule:nonzero;stroke:none"
         id="path28"
         inkscape:connector-curvature="0" /><path
         d="m 658,1782 c 0,-49.7 -40.297,-90 -90,-90 -49.703,0 -90,40.3 -90,90 0,49.7 40.297,90 90,90 49.703,0 90,-40.3 90,-90"
         style="fill:none;stroke:#000000;stroke-width:4.5;stroke-linecap:round;stroke-linejoin:miter;stroke-miterlimit:10;stroke-dasharray:9, 27;stroke-dashoffset:27;stroke-opacity:1"
         id="path30"
         inkscape:connector-curvature="0" /><path
         d="m 1666,1764 c 0,-49.7 -40.3,-90 -90,-90 -49.7,0 -90,40.3 -90,90 0,49.7 40.3,90 90,90 49.7,0 90,-40.3 90,-90"
         style="fill:#000000;fill-opacity:1;fill-rule:nonzero;stroke:none"
         id="path32"
         inkscape:connector-curvature="0" /><path
         d="m 1666,1764 c 0,-49.7 -40.3,-90 -90,-90 -49.7,0 -90,40.3 -90,90 0,49.7 40.3,90 90,90 49.7,0 90,-40.3 90,-90"
         style="fill:none;stroke:#000000;stroke-width:4.5;stroke-linecap:round;stroke-linejoin:miter;stroke-miterlimit:10;stroke-dasharray:9, 27;stroke-dashoffset:27;stroke-opacity:1"
         id="path34"
         inkscape:connector-curvature="0" /><path
         d="m 1666,774 c 0,-49.703 -40.3,-90 -90,-90 -49.7,0 -90,40.297 -90,90 0,49.703 40.3,90 90,90 49.7,0 90,-40.297 90,-90"
         style="fill:#000000;fill-opacity:1;fill-rule:nonzero;stroke:none"
         id="path36"
         inkscape:connector-curvature="0" /><path
         d="m 1666,774 c 0,-49.703 -40.3,-90 -90,-90 -49.7,0 -90,40.297 -90,90 0,49.703 40.3,90 90,90 49.7,0 90,-40.297 90,-90"
         style="fill:none;stroke:#000000;stroke-width:4.5;stroke-linecap:round;stroke-linejoin:miter;stroke-miterlimit:10;stroke-dasharray:9, 27;stroke-dashoffset:27;stroke-opacity:1"
         id="path38"
         inkscape:connector-curvature="0" /><path
         d="m 1891,1269 c 0,-49.7 -40.3,-90 -90,-90 -49.7,0 -90,40.3 -90,90 0,49.7 40.3,90 90,90 49.7,0 90,-40.3 90,-90"
         style="fill:#000000;fill-opacity:1;fill-rule:nonzero;stroke:none"
         id="path40"
         inkscape:connector-curvature="0" /><path
         d="m 1891,1269 c 0,-49.7 -40.3,-90 -90,-90 -49.7,0 -90,40.3 -90,90 0,49.7 40.3,90 90,90 49.7,0 90,-40.3 90,-90"
         style="fill:none;stroke:#000000;stroke-width:4.5;stroke-linecap:round;stroke-linejoin:miter;stroke-miterlimit:10;stroke-dasharray:9, 27;stroke-dashoffset:27;stroke-opacity:1"
         id="path42"
         inkscape:connector-curvature="0" /><path
         d="m 451,1269 c 0,-49.7 -40.297,-90 -90,-90 -49.703,0 -90,40.3 -90,90 0,49.7 40.297,90 90,90 49.703,0 90,-40.3 90,-90"
         style="fill:#000000;fill-opacity:1;fill-rule:nonzero;stroke:none"
         id="path44"
         inkscape:connector-curvature="0" /><path
         d="m 451,1269 c 0,-49.7 -40.297,-90 -90,-90 -49.703,0 -90,40.3 -90,90 0,49.7 40.297,90 90,90 49.703,0 90,-40.3 90,-90"
         style="fill:none;stroke:#000000;stroke-width:4.5;stroke-linecap:round;stroke-linejoin:miter;stroke-miterlimit:10;stroke-dasharray:9, 27;stroke-dashoffset:27;stroke-opacity:1"
         id="path46"
         inkscape:connector-curvature="0" /><path
         d="m 1081,2349 c 206.27,15.05 296.27,15.05 360,0 95,-22.43 283.29,-124.71 360,-180 48.51,-34.96 145.04,-131.49 180,-180 41.46,-57.53 86.46,-147.53 180,-360"
         style="fill:none;stroke:#000000;stroke-width:4.5;stroke-linecap:butt;stroke-linejoin:miter;stroke-miterlimit:10;stroke-dasharray:none;stroke-opacity:1"
         id="path48"
         inkscape:connector-curvature="0" /><path
         d="M 2148.46,1702.15 2161,1629 l -45.48,58.64"
         style="fill:none;stroke:#000000;stroke-width:4.5;stroke-linecap:butt;stroke-linejoin:bevel;stroke-miterlimit:10;stroke-dasharray:none;stroke-opacity:1"
         id="path50"
         inkscape:connector-curvature="0" /><path
         d="M 1,1269 C -14.0469,1062.73 -14.0469,972.73 1,909 23.4297,813.996 125.715,625.699 181,549 215.965,500.488 312.488,403.965 361,369 418.527,327.539 508.527,282.539 721,189"
         style="fill:none;stroke:#000000;stroke-width:4.5;stroke-linecap:butt;stroke-linejoin:miter;stroke-miterlimit:10;stroke-dasharray:none;stroke-opacity:1"
         id="path52"
         inkscape:connector-curvature="0" /><path
         d="M 662.355,234.484 721,189 647.848,201.539"
         style="fill:none;stroke:#000000;stroke-width:4.5;stroke-linecap:butt;stroke-linejoin:bevel;stroke-miterlimit:10;stroke-dasharray:none;stroke-opacity:1"
         id="path54"
         inkscape:connector-curvature="0" /><g
         id="g56"
         transform="scale(10,10)"><text
           transform="matrix(1,0,0,-1,99.1,176.4)"
           style="font-variant:normal;font-weight:normal;font-size:16.20000076px;font-family:Times;-inkscape-font-specification:Times-Roman;writing-mode:lr-tb;fill:#000000;fill-opacity:1;fill-rule:nonzero;stroke:none"
           id="text58"><tspan
             x="0"
             y="0"
             id="tspan60">0</tspan><tspan
             x="45"
             y="18"
             id="tspan62">1</tspan><tspan
             x="58.5"
             y="54"
             id="tspan64">2</tspan><tspan
             x="40.5"
             y="85.5"
             id="tspan66">3</tspan><tspan
             x="0"
             y="108"
             id="tspan68">4</tspan><tspan
             x="-36"
             y="85.5"
             id="tspan70">5</tspan><tspan
             x="-49.5"
             y="49.5"
             id="tspan72">6</tspan><tspan
             x="-36"
             y="18"
             id="tspan74">7</tspan><tspan
             x="117 126.0072 134.10719 139.5018 146.6946 153.88741"
             y="-4.5"
             sodipodi:role="line"
             id="tspan76">Forces</tspan><tspan
             x="-45 -34.194599 -26.094601 -17.9946 -12.6 -4.5 0.0035999999 8.1035995 15.2964 19.799999 26.9928"
             y="175.5"
             sodipodi:role="line"
             id="tspan78">Coordinates</tspan></text>
</g></g></g></svg>