<?xml version="1.0" encoding="UTF-8" standalone="no"?>
<!-- Created with Inkscape (http://www.inkscape.org/) -->

<svg
   xmlns:dc="http://purl.org/dc/elements/1.1/"
   xmlns:cc="http://creativecommons.org/ns#"
   xmlns:rdf="http://www.w3.org/1999/02/22-rdf-syntax-ns#"
   xmlns:svg="http://www.w3.org/2000/svg"
   xmlns="http://www.w3.org/2000/svg"
   xmlns:sodipodi="http://sodipodi.sourceforge.net/DTD/sodipodi-0.dtd"
   xmlns:inkscape="http://www.inkscape.org/namespaces/inkscape"
   id="svg2"
   version="1.1"
   inkscape:version="0.91 r13725"
   xml:space="preserve"
   width="843.75"
   height="705"
   viewBox="0 0 843.75 705"
   sodipodi:docname="shiftf.svg"><metadata
     id="metadata8"><rdf:RDF><cc:Work
         rdf:about=""><dc:format>image/svg+xml</dc:format><dc:type
           rdf:resource="http://purl.org/dc/dcmitype/StillImage" /><dc:title></dc:title></cc:Work></rdf:RDF></metadata><defs
     id="defs6" /><sodipodi:namedview
     pagecolor="#ffffff"
     bordercolor="#666666"
     borderopacity="1"
     objecttolerance="10"
     gridtolerance="10"
     guidetolerance="10"
     inkscape:pageopacity="0"
     inkscape:pageshadow="2"
     inkscape:window-width="760"
     inkscape:window-height="480"
     id="namedview4"
     showgrid="false"
     inkscape:zoom="0.33475177"
     inkscape:cx="421.875"
     inkscape:cy="352.5"
     inkscape:window-x="0"
     inkscape:window-y="25"
     inkscape:window-maximized="0"
     inkscape:current-layer="g10" /><g
     id="g10"
     inkscape:groupmode="layer"
     inkscape:label="ink_ext_XXXXXX"
     transform="matrix(0,1.25,1.25,0,0,0)"><g
       id="g12"
       transform="scale(0.1,0.1)"><path
         d="m 5107.5,1077.5 -4202.5,0 0,5010 4202.5,0 0,-5010"
         style="fill:none;stroke:#000000;stroke-width:2.5;stroke-linecap:round;stroke-linejoin:miter;stroke-miterlimit:10;stroke-dasharray:none;stroke-opacity:1"
         id="path14"
         inkscape:connector-curvature="0" /><path
         d="m 5107.5,1077.5 -25,0 m 25,500 -25,0 m 25,502.5 -25,0 m 25,500 -25,0 m 25,502.5 -25,0 m 25,500 -25,0 m 25,500 -25,0 m 25,502.5 -25,0 m 25,500 -25,0 m 25,502.5 -25,0 m 25,500 -25,0 M 905,1077.5 l 25,0 m -25,500 25,0 m -25,502.5 25,0 m -25,500 25,0 m -25,502.5 25,0 m -25,500 25,0 m -25,500 25,0 m -25,502.5 25,0 m -25,500 25,0 m -25,502.5 25,0 m -25,500 25,0"
         style="fill:none;stroke:#000000;stroke-width:2.5;stroke-linecap:round;stroke-linejoin:miter;stroke-miterlimit:10;stroke-dasharray:none;stroke-opacity:1"
         id="path16"
         inkscape:connector-curvature="0" /><path
         d="m 5107.5,1077.5 -50,0 m 50,1002.5 -50,0 m 50,1002.5 -50,0 m 50,1000 -50,0 m 50,1002.5 -50,0 m 50,1002.5 -50,0 M 905,1077.5 l 50,0 m -50,1002.5 50,0 m -50,1002.5 50,0 m -50,1000 50,0 m -50,1002.5 50,0 m -50,1002.5 50,0"
         style="fill:none;stroke:#000000;stroke-width:2.5;stroke-linecap:round;stroke-linejoin:miter;stroke-miterlimit:10;stroke-dasharray:none;stroke-opacity:1"
         id="path18"
         inkscape:connector-curvature="0" /><g
         id="g20"
         transform="scale(10,10)"><text
           transform="matrix(0,1,1,0,528.25,97.3254)"
           style="font-variant:normal;font-weight:normal;font-size:15px;font-family:Helvetica;-inkscape-font-specification:Helvetica;writing-mode:lr-tb;fill:#000000;fill-opacity:1;fill-rule:nonzero;stroke:none"
           id="text22"><tspan
             x="0 8.3400002 12.51 100.24995 108.58995 112.75995 200.49989 208.8399 213.0099 300.49994 308.83994 313.00995 400.74991 409.0899 413.25989 500.99985 509.33984 513.50983"
             y="0"
             sodipodi:role="line"
             id="tspan24">0.01.02.03.04.05.0</tspan><tspan
             x="258.427"
             y="20"
             id="tspan26">r</tspan></text>
</g><path
         d="m 5107.5,1077.5 0,25 m -525,-25 0,25 m -525,-25 0,25 m -527.5,-25 0,25 m -522.5,-25 0,25 m -525,-25 0,25 m -525,-25 0,25 m -527.5,-25 0,25 m -525,-25 0,25 m 4202.5,4985 0,-25 m -525,25 0,-25 m -525,25 0,-25 m -527.5,25 0,-25 m -522.5,25 0,-25 m -525,25 0,-25 m -525,25 0,-25 m -527.5,25 0,-25 m -525,25 0,-25"
         style="fill:none;stroke:#000000;stroke-width:2.5;stroke-linecap:round;stroke-linejoin:miter;stroke-miterlimit:10;stroke-dasharray:none;stroke-opacity:1"
         id="path28"
         inkscape:connector-curvature="0" /><path
         d="m 5107.5,1077.5 0,50 m -1050,-50 0,50 m -1050,-50 0,50 m -1050,-50 0,50 m -1052.5,-50 0,50 m 4202.5,4960 0,-50 m -1050,50 0,-50 m -1050,50 0,-50 m -1050,50 0,-50 m -1052.5,50 0,-50"
         style="fill:none;stroke:#000000;stroke-width:2.5;stroke-linecap:round;stroke-linejoin:miter;stroke-miterlimit:10;stroke-dasharray:none;stroke-opacity:1"
         id="path30"
         inkscape:connector-curvature="0" /><g
         id="g32"
         transform="scale(10,10)"><text
           transform="matrix(0,1,1,0,515.75,68.6406)"
           style="font-variant:normal;font-weight:normal;font-size:15px;font-family:Helvetica;-inkscape-font-specification:Helvetica;writing-mode:lr-tb;fill:#000000;fill-opacity:1;fill-rule:nonzero;stroke:none"
           id="text34"><tspan
             x="0 8.7600002 17.1 21.27"
             y="0"
             sodipodi:role="line"
             id="tspan36">−0.5</tspan><tspan
             x="8.7597704 17.09977 21.26977"
             y="-105"
             sodipodi:role="line"
             id="tspan38">0.0</tspan><tspan
             x="8.7597704 17.09977 21.26977"
             y="-210"
             sodipodi:role="line"
             id="tspan40">0.5</tspan><tspan
             x="8.7597704 17.09977 21.26977"
             y="-315"
             sodipodi:role="line"
             id="tspan42">1.0</tspan><tspan
             x="8.7597704 17.09977 21.26977"
             y="-420.25"
             sodipodi:role="line"
             id="tspan44">1.5</tspan></text>
<text
           transform="matrix(-1,0,0,1,310.327,51.5)"
           style="font-variant:normal;font-weight:normal;font-size:15px;font-family:Helvetica;-inkscape-font-specification:Helvetica;writing-mode:lr-tb;fill:#000000;fill-opacity:1;fill-rule:nonzero;stroke:none"
           id="text46"><tspan
             x="0 4.1700001 9.165 14.16"
             y="0"
             sodipodi:role="line"
             id="tspan48">f(r)</tspan></text>
</g><path
         d="m 1217.5,1940 262.5,42.5 230,42.5 200,42.5 175,45 155,42.5 135,42.5 122.5,42.5 110,45 97.5,42.5 90,42.5 80,42.5 72.5,42.5 65,45 62.5,42.5 55,42.5 50,42.5 47.5,45 42.5,42.5 40,42.5 37.5,42.5 32.5,45 32.5,42.5 30,42.5 27.5,42.5 25,45 25,42.5 22.5,42.5 20,42.5 20,42.5 20,45 17.5,42.5 15,42.5 17.5,42.5 15,45 12.5,42.5 15,42.5 12.5,42.5 10,45 12.5,42.5 10,42.5 10,42.5 10,45 10,42.5 10,42.5 7.5,42.5 7.5,42.5 7.5,45 7.5,42.5 7.5,42.5 7.5,42.5 5,45 7.5,42.5 5,42.5 7.5,42.5 5,45 5,42.5 5,42.5 5,42.5 5,45 5,42.5 2.5,42.5 5,42.5 5,42.5 2.5,45 5,42.5 2.5,42.5 2.5,42.5 5,45 2.5,42.5 2.5,42.5 5,42.5 2.5,45 2.5,42.5 2.5,42.5 2.5,42.5 2.5,45 2.5,42.5 2.5,42.5 2.5,42.5"
         style="fill:none;stroke:#000000;stroke-width:2.5;stroke-linecap:round;stroke-linejoin:miter;stroke-miterlimit:10;stroke-dasharray:none;stroke-opacity:1"
         id="path50"
         inkscape:connector-curvature="0" /><path
         d="m 1217.5,1940 262.5,42.5 230,42.5 200,42.5 175,45 155,42.5 135,42.5 122.5,42.5 110,45 97.5,42.5 90,42.5 80,42.5 72.5,42.5 65,45 62.5,42.5 55,42.5 50,42.5 47.5,45 42.5,42.5 40,42.5 37.5,42.5 32.5,45 32.5,42.5 30,42.5 27.5,42.5 25,45 25,42.5 22.5,42.5 22.5,42.5 20,42.5 20,45 20,42.5 17.5,42.5 17.5,42.5 17.5,45 17.5,42.5 17.5,42.5 17.5,42.5 15,45 15,42.5 15,42.5 15,42.5 15,45 12.5,42.5 15,42.5 12.5,42.5 12.5,42.5 15,45 12.5,42.5 10,42.5 12.5,42.5 12.5,45 10,42.5 10,42.5 10,42.5 10,45 10,42.5 10,42.5 7.5,42.5 7.5,45 10,42.5 7.5,42.5 5,42.5 7.5,42.5 5,45 5,42.5 5,42.5 5,42.5 2.5,45 2.5,42.5 2.5,42.5 2.5,42.5 0,87.5 2.5,42.5 0,215"
         style="fill:none;stroke:#000000;stroke-width:2.5;stroke-linecap:round;stroke-linejoin:miter;stroke-miterlimit:10;stroke-dasharray:100, 50;stroke-dashoffset:0;stroke-opacity:1"
         id="path52"
         inkscape:connector-curvature="0" /><path
         d="m 4057.5,1940 0,1247.5 2.5,45 0,42.5 2.5,42.5 2.5,42.5 2.5,45 5,42.5 2.5,42.5 2.5,42.5 5,45 5,42.5 2.5,42.5 5,42.5 5,45 5,42.5 5,42.5 5,42.5 5,42.5 5,45 5,42.5 5,42.5 5,42.5 5,45 5,42.5 5,42.5 2.5,42.5 5,45 5,42.5 2.5,42.5 5,42.5 2.5,45 5,42.5 2.5,42.5 2.5,42.5 2.5,42.5 0,45 2.5,42.5 0,42.5 2.5,42.5 0,87.5 -2.5,42.5 0,42.5 -2.5,45 -2.5,42.5 -2.5,42.5 -2.5,42.5 -2.5,45 -2.5,42.5 -2.5,42.5 -2.5,42.5"
         style="fill:none;stroke:#000000;stroke-width:2.5;stroke-linecap:round;stroke-linejoin:miter;stroke-miterlimit:10;stroke-dasharray:50, 50;stroke-dashoffset:0;stroke-opacity:1"
         id="path54"
         inkscape:connector-curvature="0" /><path
         d="m 1967.5,3852.5 -555,0 0,1497.5 555,0 0,-1497.5"
         style="fill:none;stroke:#000000;stroke-width:2.5;stroke-linecap:round;stroke-linejoin:miter;stroke-miterlimit:10;stroke-dasharray:none;stroke-opacity:1"
         id="path56"
         inkscape:connector-curvature="0" /><path
         d="m 1505,3940 0,350"
         style="fill:none;stroke:#000000;stroke-width:2.5;stroke-linecap:round;stroke-linejoin:miter;stroke-miterlimit:10;stroke-dasharray:none;stroke-opacity:1"
         id="path58"
         inkscape:connector-curvature="0" /><g
         id="g60"
         transform="scale(10,10)"><text
           transform="matrix(0,1,1,0,155.5,437.75)"
           style="font-variant:normal;font-weight:normal;font-size:15px;font-family:Helvetica;-inkscape-font-specification:Helvetica;writing-mode:lr-tb;fill:#000000;fill-opacity:1;fill-rule:nonzero;stroke:none"
           id="text62"><tspan
             x="0 10.83 19.17 24.165001 36.66 45 48.330002 52.5 61.665001 70.004997 75 82.5"
             y="0"
             sodipodi:role="line"
             id="tspan64">Normal Force</tspan></text>
</g><path
         d="m 1690,3940 0,350"
         style="fill:none;stroke:#000000;stroke-width:2.5;stroke-linecap:round;stroke-linejoin:miter;stroke-miterlimit:10;stroke-dasharray:100, 50;stroke-dashoffset:0;stroke-opacity:1"
         id="path66"
         inkscape:connector-curvature="0" /><g
         id="g68"
         transform="scale(10,10)"><text
           transform="matrix(0,1,1,0,174,437.75)"
           style="font-variant:normal;font-weight:normal;font-size:15px;font-family:Helvetica;-inkscape-font-specification:Helvetica;writing-mode:lr-tb;fill:#000000;fill-opacity:1;fill-rule:nonzero;stroke:none"
           id="text70"><tspan
             x="0 10.005 18.344999 21.674999 25.844999 30.014999 38.355 46.695 50.865002 60.029999 68.370003 73.364998 80.864998"
             y="0"
             sodipodi:role="line"
             id="tspan72">Shifted Force</tspan></text>
</g><path
         d="m 1875,3940 0,350"
         style="fill:none;stroke:#000000;stroke-width:2.5;stroke-linecap:round;stroke-linejoin:miter;stroke-miterlimit:10;stroke-dasharray:50, 50;stroke-dashoffset:0;stroke-opacity:1"
         id="path74"
         inkscape:connector-curvature="0" /><g
         id="g76"
         transform="scale(10,10)"><text
           transform="matrix(0,1,1,0,192.5,437.75)"
           style="font-variant:normal;font-weight:normal;font-size:15px;font-family:Helvetica;-inkscape-font-specification:Helvetica;writing-mode:lr-tb;fill:#000000;fill-opacity:1;fill-rule:nonzero;stroke:none"
           id="text78"><tspan
             x="0 10.005 18.344999 21.674999 25.844999 30.014999 34.185001 43.349998 51.689999 60.029999 67.529999 71.699997 75.029999 83.370003"
             y="0"
             sodipodi:role="line"
             id="tspan80">Shift Function</tspan></text>
</g></g></g></svg>