<?xml version="1.0" encoding="UTF-8" standalone="no"?>
<!-- Created with Inkscape (http://www.inkscape.org/) -->

<svg
   xmlns:dc="http://purl.org/dc/elements/1.1/"
   xmlns:cc="http://creativecommons.org/ns#"
   xmlns:rdf="http://www.w3.org/1999/02/22-rdf-syntax-ns#"
   xmlns:svg="http://www.w3.org/2000/svg"
   xmlns="http://www.w3.org/2000/svg"
   xmlns:sodipodi="http://sodipodi.sourceforge.net/DTD/sodipodi-0.dtd"
   xmlns:inkscape="http://www.inkscape.org/namespaces/inkscape"
   id="svg2"
   version="1.1"
   inkscape:version="0.91 r13725"
   xml:space="preserve"
   width="705"
   height="585"
   viewBox="0 0 705 585"
   sodipodi:docname="vcrf.svg"><metadata
     id="metadata8"><rdf:RDF><cc:Work
         rdf:about=""><dc:format>image/svg+xml</dc:format><dc:type
           rdf:resource="http://purl.org/dc/dcmitype/StillImage" /><dc:title></dc:title></cc:Work></rdf:RDF></metadata><defs
     id="defs6" /><sodipodi:namedview
     pagecolor="#ffffff"
     bordercolor="#666666"
     borderopacity="1"
     objecttolerance="10"
     gridtolerance="10"
     guidetolerance="10"
     inkscape:pageopacity="0"
     inkscape:pageshadow="2"
     inkscape:window-width="760"
     inkscape:window-height="480"
     id="namedview4"
     showgrid="false"
     inkscape:zoom="0.4034188"
     inkscape:cx="352.5"
     inkscape:cy="292.5"
     inkscape:window-x="0"
     inkscape:window-y="25"
     inkscape:window-maximized="0"
     inkscape:current-layer="g10" /><g
     id="g10"
     inkscape:groupmode="layer"
     inkscape:label="ink_ext_XXXXXX"
     transform="matrix(1.25,0,0,-1.25,0,585)"><g
       id="g12"
       transform="scale(0.1,0.1)"><path
         d="m 905,755 0,3505 4200,0 0,-3505 -4200,0"
         style="fill:none;stroke:#000000;stroke-width:2.5;stroke-linecap:round;stroke-linejoin:miter;stroke-miterlimit:10;stroke-dasharray:none;stroke-opacity:1"
         id="path14"
         inkscape:connector-curvature="0" /><path
         d="m 905,755 0,25 m 417.5,-25 0,25 m 422.5,-25 0,25 m 420,-25 0,25 m 417.5,-25 0,25 m 422.5,-25 0,25 m 420,-25 0,25 m 420,-25 0,25 m 420,-25 0,25 m 420,-25 0,25 m 420,-25 0,25 m -4200,3480 0,-25 m 417.5,25 0,-25 m 422.5,25 0,-25 m 420,25 0,-25 m 417.5,25 0,-25 m 422.5,25 0,-25 m 420,25 0,-25 m 420,25 0,-25 m 420,25 0,-25 m 420,25 0,-25 m 420,25 0,-25"
         style="fill:none;stroke:#000000;stroke-width:2.5;stroke-linecap:round;stroke-linejoin:miter;stroke-miterlimit:10;stroke-dasharray:none;stroke-opacity:1"
         id="path16"
         inkscape:connector-curvature="0" /><path
         d="m 905,755 0,50 m 840,-50 0,50 m 837.5,-50 0,50 m 842.5,-50 0,50 m 840,-50 0,50 m 840,-50 0,50 m -4200,3455 0,-50 m 840,50 0,-50 m 837.5,50 0,-50 m 842.5,50 0,-50 m 840,50 0,-50 m 840,50 0,-50"
         style="fill:none;stroke:#000000;stroke-width:2.5;stroke-linecap:round;stroke-linejoin:miter;stroke-miterlimit:10;stroke-dasharray:none;stroke-opacity:1"
         id="path18"
         inkscape:connector-curvature="0" /><g
         id="g20"
         transform="scale(10,10)"><text
           transform="matrix(1,0,0,-1,80.0754,58)"
           style="font-variant:normal;font-weight:normal;font-size:15px;font-family:Helvetica;-inkscape-font-specification:Helvetica;writing-mode:lr-tb;fill:#000000;fill-opacity:1;fill-rule:nonzero;stroke:none"
           id="text22"><tspan
             x="0 8.3400002 12.51 84 92.339996 96.510002 167.74995 176.08995 180.25995 252 260.34 264.51001 336 344.34 348.51001 420 428.34 432.51001"
             y="0"
             sodipodi:role="line"
             id="tspan24">0.00.20.40.60.81.0</tspan><tspan
             x="200.42999 205.425 209.595 214.59 222.92999 235.425"
             y="20"
             sodipodi:role="line"
             id="tspan26">r (nm)</tspan></text>
</g><path
         d="m 905,755 25,0 m -25,585 25,0 m -25,582.5 25,0 m -25,585 25,0 m -25,585 25,0 m -25,582.5 25,0 m -25,585 25,0 m 4175,-3505 -25,0 m 25,585 -25,0 m 25,582.5 -25,0 m 25,585 -25,0 m 25,585 -25,0 m 25,582.5 -25,0 m 25,585 -25,0"
         style="fill:none;stroke:#000000;stroke-width:2.5;stroke-linecap:round;stroke-linejoin:miter;stroke-miterlimit:10;stroke-dasharray:none;stroke-opacity:1"
         id="path28"
         inkscape:connector-curvature="0" /><path
         d="m 905,755 50,0 m -50,1167.5 50,0 m -50,1170 50,0 m -50,1167.5 50,0 m 4150,-3505 -50,0 m 50,1167.5 -50,0 m 50,1170 -50,0 m 50,1167.5 -50,0"
         style="fill:none;stroke:#000000;stroke-width:2.5;stroke-linecap:round;stroke-linejoin:miter;stroke-miterlimit:10;stroke-dasharray:none;stroke-opacity:1"
         id="path30"
         inkscape:connector-curvature="0" /><g
         id="g32"
         transform="scale(10,10)"><text
           transform="matrix(1,0,0,-1,72.6602,70.5)"
           style="font-variant:normal;font-weight:normal;font-size:15px;font-family:Helvetica;-inkscape-font-specification:Helvetica;writing-mode:lr-tb;fill:#000000;fill-opacity:1;fill-rule:nonzero;stroke:none"
           id="text34"><tspan
             x="0"
             y="0"
             id="tspan36">0</tspan><tspan
             x="-16.679701 -8.3396997 0.00030000001"
             y="-116.75"
             sodipodi:role="line"
             id="tspan38">500</tspan><tspan
             x="-25.019541 -16.679541 -8.3395395 0.00046000001"
             y="-233.75"
             sodipodi:role="line"
             id="tspan40">1000</tspan><tspan
             x="-25.019541 -16.679541 -8.3395395 0.00046000001"
             y="-350.5"
             sodipodi:role="line"
             id="tspan42">1500</tspan></text>
<text
           transform="matrix(0,1,1,0,32.25,208.451)"
           style="font-variant:normal;font-weight:normal;font-size:15px;font-family:Helvetica;-inkscape-font-specification:Helvetica;writing-mode:lr-tb;fill:#000000;fill-opacity:1;fill-rule:nonzero;stroke:none"
           id="text44"><tspan
             x="0 10.005 14.175 19.17 26.67 34.169998 38.34 50.834999 59.174999"
             y="0"
             sodipodi:role="line"
             id="tspan46">V (kJ mol</tspan></text>
<text
           transform="matrix(0,1,1,0,23.25,270.9561)"
           style="font-variant:normal;font-weight:normal;font-size:9px;font-family:Helvetica;-inkscape-font-specification:Helvetica;writing-mode:lr-tb;fill:#000000;fill-opacity:1;fill-rule:nonzero;stroke:none"
           id="text48"><tspan
             x="0 5.256"
             y="0"
             sodipodi:role="line"
             id="tspan50">−1</tspan></text>
<text
           transform="matrix(0,1,1,0,32.25,281.2163)"
           style="font-variant:normal;font-weight:normal;font-size:15px;font-family:Helvetica;-inkscape-font-specification:Helvetica;writing-mode:lr-tb;fill:#000000;fill-opacity:1;fill-rule:nonzero;stroke:none"
           id="text52"><tspan
             x="0"
             y="0"
             id="tspan54">)</tspan></text>
</g><path
         d="m 1322.5,3980 35,-240 32.5,-205 35,-180 32.5,-157.5 35,-140 32.5,-122.5 35,-112.5 32.5,-102.5 32.5,-90 35,-82.5 32.5,-77.5 35,-70 32.5,-65 35,-60 32.5,-55 35,-50 32.5,-47.5 32.5,-45 35,-42.5 32.5,-40 35,-37.5 32.5,-35 35,-32.5 32.5,-30 35,-30 32.5,-27.5 32.5,-27.5 35,-25 32.5,-25 35,-22.5 32.5,-20 35,-22.5 32.5,-20 32.5,-17.5 35,-20 32.5,-17.5 35,-15 32.5,-17.5 35,-15 32.5,-15 35,-15 32.5,-12.5 32.5,-15 35,-12.5 32.5,-12.5 35,-10 32.5,-12.5 35,-12.5 32.5,-10 35,-10 32.5,-10 32.5,-10 35,-10 32.5,-10 35,-7.5 32.5,-10 35,-7.5 32.5,-7.5 32.5,-10 35,-7.5 32.5,-7.5 35,-7.5 32.5,-5 35,-7.5 32.5,-7.5 35,-7.5 32.5,-5 32.5,-7.5 35,-5 32.5,-7.5 35,-5 32.5,-5 35,-5 32.5,-7.5 32.5,-5 35,-5 32.5,-5 35,-5 32.5,-5 35,-5 32.5,-5 35,-2.5 32.5,-5 32.5,-5 35,-5 32.5,-2.5 35,-5 32.5,-5 35,-2.5 32.5,-5 35,-2.5 32.5,-5 32.5,-2.5 35,-5 32.5,-2.5 35,-2.5 32.5,-5 35,-2.5 32.5,-2.5 35,-5"
         style="fill:none;stroke:#000000;stroke-width:2.5;stroke-linecap:round;stroke-linejoin:miter;stroke-miterlimit:10;stroke-dasharray:none;stroke-opacity:1"
         id="path56"
         inkscape:connector-curvature="0" /><path
         d="m 1322.5,3982.5 35,-240 32.5,-205 35,-177.5 32.5,-157.5 35,-140 32.5,-125 35,-110 32.5,-100 32.5,-92.5 35,-82.5 32.5,-75 35,-70 32.5,-62.5 35,-60 32.5,-55 35,-50 32.5,-47.5 32.5,-42.5 35,-42.5 32.5,-37.5 35,-35 32.5,-35 35,-32.5 32.5,-30 35,-27.5 32.5,-27.5 32.5,-25 35,-25 32.5,-22.5 35,-22.5 32.5,-20 35,-20 32.5,-17.5 32.5,-17.5 35,-17.5 32.5,-17.5 35,-15 32.5,-15 35,-12.5 32.5,-15 35,-12.5 32.5,-12.5 32.5,-10 35,-12.5 32.5,-10 35,-10 32.5,-10 35,-10 32.5,-10 35,-7.5 32.5,-10 32.5,-7.5 35,-7.5 32.5,-7.5 35,-7.5 32.5,-7.5 35,-5 32.5,-7.5 32.5,-5 35,-5 32.5,-7.5 35,-5 32.5,-5 35,-5 32.5,-5 35,-2.5 32.5,-5 32.5,-5 35,-2.5 32.5,-5 35,-2.5 32.5,-5 35,-2.5 32.5,-2.5 32.5,-2.5 35,-2.5 32.5,-2.5 35,-2.5 32.5,-2.5 35,-2.5 32.5,-2.5 35,-2.5 32.5,-2.5 32.5,0 35,-2.5 32.5,0 35,-2.5 32.5,-2.5 67.5,0 35,-2.5 65,0 35,-2.5 202.5,0"
         style="fill:none;stroke:#000000;stroke-width:2.5;stroke-linecap:round;stroke-linejoin:miter;stroke-miterlimit:10;stroke-dasharray:50, 50;stroke-dashoffset:0;stroke-opacity:1"
         id="path58"
         inkscape:connector-curvature="0" /><path
         d="m 1322.5,3447.5 35,-237.5 32.5,-205 35,-180 32.5,-157.5 35,-140 32.5,-122.5 35,-112.5 32.5,-100 32.5,-90 35,-82.5 32.5,-75 35,-70 32.5,-65 35,-57.5 32.5,-55 35,-50 32.5,-47.5 32.5,-45 35,-40 32.5,-40 35,-35 32.5,-35 35,-30 32.5,-32.5 35,-27.5 32.5,-27.5 32.5,-25 35,-22.5 32.5,-25 35,-20 32.5,-20 35,-20 32.5,-20 32.5,-17.5 35,-17.5 32.5,-15 35,-15 32.5,-15 35,-15 32.5,-12.5 35,-12.5 32.5,-12.5 32.5,-12.5 35,-12.5 32.5,-10 35,-10 32.5,-10 35,-10 32.5,-7.5 35,-10 32.5,-7.5 32.5,-10 35,-7.5 32.5,-7.5 35,-5 32.5,-7.5 35,-7.5 32.5,-5 32.5,-7.5 35,-5 32.5,-5 35,-5 32.5,-5 35,-5 32.5,-5 35,-5 32.5,-5 32.5,-2.5 35,-5 32.5,-2.5 35,-5 32.5,-2.5 35,-2.5 32.5,-5 32.5,-2.5 35,-2.5 32.5,-2.5 35,-2.5 32.5,-2.5 35,-2.5 32.5,-2.5 35,0 32.5,-2.5 32.5,-2.5 35,0 32.5,-2.5 35,-2.5 32.5,0 35,-2.5 67.5,0 32.5,-2.5 100,0 35,-2.5 135,0"
         style="fill:none;stroke:#000000;stroke-width:2.5;stroke-linecap:round;stroke-linejoin:miter;stroke-miterlimit:10;stroke-dasharray:100, 50, 30, 50;stroke-dashoffset:0;stroke-opacity:1"
         id="path60"
         inkscape:connector-curvature="0" /><path
         d="m 3515,3297.5 0,555 1157.5,0 0,-555 -1157.5,0"
         style="fill:none;stroke:#000000;stroke-width:2.5;stroke-linecap:round;stroke-linejoin:miter;stroke-miterlimit:10;stroke-dasharray:none;stroke-opacity:1"
         id="path62"
         inkscape:connector-curvature="0" /><path
         d="m 3602.5,3760 350,0"
         style="fill:none;stroke:#000000;stroke-width:2.5;stroke-linecap:round;stroke-linejoin:miter;stroke-miterlimit:10;stroke-dasharray:none;stroke-opacity:1"
         id="path64"
         inkscape:connector-curvature="0" /><g
         id="g66"
         transform="scale(10,10)"><text
           transform="matrix(1,0,0,-1,404,371)"
           style="font-variant:normal;font-weight:normal;font-size:15px;font-family:Helvetica;-inkscape-font-specification:Helvetica;writing-mode:lr-tb;fill:#000000;fill-opacity:1;fill-rule:nonzero;stroke:none"
           id="text68"><tspan
             x="0 10.83 19.17 27.51 30.84 39.18 51.674999"
             y="0"
             sodipodi:role="line"
             id="tspan70">Coulomb</tspan></text>
</g><path
         d="m 3602.5,3575 350,0"
         style="fill:none;stroke:#000000;stroke-width:2.5;stroke-linecap:round;stroke-linejoin:miter;stroke-miterlimit:10;stroke-dasharray:50, 50;stroke-dashoffset:0;stroke-opacity:1"
         id="path72"
         inkscape:connector-curvature="0" /><g
         id="g74"
         transform="scale(10,10)"><text
           transform="matrix(1,0,0,-1,404,352.5)"
           style="font-variant:normal;font-weight:normal;font-size:15px;font-family:Helvetica;-inkscape-font-specification:Helvetica;writing-mode:lr-tb;fill:#000000;fill-opacity:1;fill-rule:nonzero;stroke:none"
           id="text76"><tspan
             x="0 14.16 17.49 21.66 30 34.169998 45"
             y="0"
             sodipodi:role="line"
             id="tspan78">With RF</tspan></text>
</g><path
         d="m 3602.5,3390 350,0"
         style="fill:none;stroke:#000000;stroke-width:2.5;stroke-linecap:round;stroke-linejoin:miter;stroke-miterlimit:10;stroke-dasharray:100, 50, 30, 50;stroke-dashoffset:0;stroke-opacity:1"
         id="path80"
         inkscape:connector-curvature="0" /><g
         id="g82"
         transform="scale(10,10)"><text
           transform="matrix(1,0,0,-1,404,334)"
           style="font-variant:normal;font-weight:normal;font-size:15px;font-family:Helvetica;-inkscape-font-specification:Helvetica;writing-mode:lr-tb;fill:#000000;fill-opacity:1;fill-rule:nonzero;stroke:none"
           id="text84"><tspan
             x="0 10.83 19.995001 24.165001 32.924999 37.095001"
             y="0"
             sodipodi:role="line"
             id="tspan86">RF − C</tspan></text>
</g></g></g></svg>