<?xml version="1.0" encoding="UTF-8" standalone="no"?>
<!-- Created with Inkscape (http://www.inkscape.org/) -->

<svg
   xmlns:dc="http://purl.org/dc/elements/1.1/"
   xmlns:cc="http://creativecommons.org/ns#"
   xmlns:rdf="http://www.w3.org/1999/02/22-rdf-syntax-ns#"
   xmlns:svg="http://www.w3.org/2000/svg"
   xmlns="http://www.w3.org/2000/svg"
   xmlns:sodipodi="http://sodipodi.sourceforge.net/DTD/sodipodi-0.dtd"
   xmlns:inkscape="http://www.inkscape.org/namespaces/inkscape"
   id="svg2"
   version="1.1"
   inkscape:version="0.91 r13725"
   xml:space="preserve"
   width="283.88751"
   height="309.0625"
   viewBox="0 0 283.88751 309.0625"
   sodipodi:docname="vsite-4fdn.svg"><metadata
     id="metadata8"><rdf:RDF><cc:Work
         rdf:about=""><dc:format>image/svg+xml</dc:format><dc:type
           rdf:resource="http://purl.org/dc/dcmitype/StillImage" /><dc:title></dc:title></cc:Work></rdf:RDF></metadata><defs
     id="defs6" /><sodipodi:namedview
     pagecolor="#ffffff"
     bordercolor="#666666"
     borderopacity="1"
     objecttolerance="10"
     gridtolerance="10"
     guidetolerance="10"
     inkscape:pageopacity="0"
     inkscape:pageshadow="2"
     inkscape:window-width="640"
     inkscape:window-height="480"
     id="namedview4"
     showgrid="false"
     inkscape:zoom="0.7635996"
     inkscape:cx="141.94376"
     inkscape:cy="154.53125"
     inkscape:window-x="0"
     inkscape:window-y="25"
     inkscape:window-maximized="0"
     inkscape:current-layer="g10" /><g
     id="g10"
     inkscape:groupmode="layer"
     inkscape:label="ink_ext_XXXXXX"
     transform="matrix(1.25,0,0,-1.25,0,309.0625)"><g
       id="g12"
       transform="scale(0.1,0.1)"><path
         d="M 1289.03,1313.48 2166.51,964.641"
         style="fill:none;stroke:#231f20;stroke-width:10;stroke-linecap:butt;stroke-linejoin:miter;stroke-miterlimit:4;stroke-dasharray:none;stroke-opacity:1"
         id="path14"
         inkscape:connector-curvature="0" /><path
         d="M 1289.03,1313.48 1466.33,293.988"
         style="fill:none;stroke:#231f20;stroke-width:10;stroke-linecap:butt;stroke-linejoin:miter;stroke-miterlimit:4;stroke-dasharray:none;stroke-opacity:1"
         id="path16"
         inkscape:connector-curvature="0" /><path
         d="M 1289.03,1313.48 199.211,657.809"
         style="fill:none;stroke:#231f20;stroke-width:10;stroke-linecap:butt;stroke-linejoin:miter;stroke-miterlimit:4;stroke-dasharray:none;stroke-opacity:1"
         id="path18"
         inkscape:connector-curvature="0" /><path
         d="m 1289.03,1313.48 0,988.43"
         style="fill:none;stroke:#231f20;stroke-width:10;stroke-linecap:butt;stroke-linejoin:miter;stroke-miterlimit:4;stroke-dasharray:none;stroke-opacity:1"
         id="path20"
         inkscape:connector-curvature="0" /><path
         d="m 1523.29,306.84 c 0,-31.461 -25.51,-56.969 -56.96,-56.969 -31.46,0 -56.97,25.508 -56.97,56.969 0,31.469 25.51,56.961 56.97,56.961 31.45,0 56.96,-25.492 56.96,-56.961"
         style="fill:#231f20;fill-opacity:1;fill-rule:nonzero;stroke:none"
         id="path22"
         inkscape:connector-curvature="0" /><path
         d="m 1523.29,306.84 c 0,-31.461 -25.51,-56.969 -56.96,-56.969 -31.46,0 -56.97,25.508 -56.97,56.969 0,31.469 25.51,56.961 56.97,56.961 31.45,0 56.96,-25.492 56.96,-56.961 z"
         style="fill:none;stroke:#231f20;stroke-width:10;stroke-linecap:butt;stroke-linejoin:miter;stroke-miterlimit:4;stroke-dasharray:none;stroke-opacity:1"
         id="path24"
         inkscape:connector-curvature="0" /><path
         d="m 1346,1313.48 c 0,-31.48 -25.53,-56.99 -56.99,-56.99 -31.45,0 -56.95,25.51 -56.95,56.99 0,31.46 25.5,56.95 56.95,56.95 31.46,0 56.99,-25.49 56.99,-56.95"
         style="fill:#231f20;fill-opacity:1;fill-rule:nonzero;stroke:none"
         id="path26"
         inkscape:connector-curvature="0" /><path
         d="m 1346,1313.48 c 0,-31.48 -25.53,-56.99 -56.99,-56.99 -31.45,0 -56.95,25.51 -56.95,56.99 0,31.46 25.5,56.95 56.95,56.95 31.46,0 56.99,-25.49 56.99,-56.95 z"
         style="fill:none;stroke:#231f20;stroke-width:10;stroke-linecap:butt;stroke-linejoin:miter;stroke-miterlimit:4;stroke-dasharray:none;stroke-opacity:1"
         id="path28"
         inkscape:connector-curvature="0" /><path
         d="m 2223.5,964.641 c 0,-31.469 -25.53,-56.981 -56.99,-56.981 -31.47,0 -56.95,25.512 -56.95,56.981 0,31.449 25.48,56.959 56.95,56.959 31.46,0 56.99,-25.51 56.99,-56.959"
         style="fill:#231f20;fill-opacity:1;fill-rule:nonzero;stroke:none"
         id="path30"
         inkscape:connector-curvature="0" /><path
         d="m 2223.5,964.641 c 0,-31.469 -25.53,-56.981 -56.99,-56.981 -31.47,0 -56.95,25.512 -56.95,56.981 0,31.449 25.48,56.959 56.95,56.959 31.46,0 56.99,-25.51 56.99,-56.959 z"
         style="fill:none;stroke:#231f20;stroke-width:10;stroke-linecap:butt;stroke-linejoin:miter;stroke-miterlimit:4;stroke-dasharray:none;stroke-opacity:1"
         id="path32"
         inkscape:connector-curvature="0" /><path
         d="m 256.172,657.809 c 0,-31.469 -25.508,-56.95 -56.961,-56.95 -31.457,0 -56.977,25.481 -56.977,56.95 0,31.461 25.52,56.972 56.977,56.972 31.453,0 56.961,-25.511 56.961,-56.972"
         style="fill:#231f20;fill-opacity:1;fill-rule:nonzero;stroke:none"
         id="path34"
         inkscape:connector-curvature="0" /><path
         d="m 256.172,657.809 c 0,-31.469 -25.508,-56.95 -56.961,-56.95 -31.457,0 -56.977,25.481 -56.977,56.95 0,31.461 25.52,56.972 56.977,56.972 31.453,0 56.961,-25.511 56.961,-56.972 z"
         style="fill:none;stroke:#231f20;stroke-width:10;stroke-linecap:butt;stroke-linejoin:miter;stroke-miterlimit:4;stroke-dasharray:none;stroke-opacity:1"
         id="path36"
         inkscape:connector-curvature="0" /><path
         d="m 1329.46,2301.91 c 0,-22.3 -18.09,-40.41 -40.43,-40.41 -22.33,0 -40.41,18.11 -40.41,40.41 0,22.33 18.08,40.43 40.41,40.43 22.34,0 40.43,-18.1 40.43,-40.43"
         style="fill:#918f90;fill-opacity:1;fill-rule:nonzero;stroke:none"
         id="path38"
         inkscape:connector-curvature="0" /><path
         d="m 1329.46,2301.91 c 0,-22.3 -18.09,-40.41 -40.43,-40.41 -22.33,0 -40.41,18.11 -40.41,40.41 0,22.33 18.08,40.43 40.41,40.43 22.34,0 40.43,-18.1 40.43,-40.43 z"
         style="fill:none;stroke:#918f90;stroke-width:7.0999999;stroke-linecap:butt;stroke-linejoin:miter;stroke-miterlimit:4;stroke-dasharray:none;stroke-opacity:1"
         id="path40"
         inkscape:connector-curvature="0" /><g
         id="g42"
         transform="scale(10,10)"><text
           transform="matrix(1,0,0,-1,137.769,131.347)"
           style="font-style:italic;font-variant:normal;font-size:23.15250015px;font-family:TimesNewRomanPS;-inkscape-font-specification:TimesNewRomanPS-ItalicMT;writing-mode:lr-tb;fill:#231f20;fill-opacity:1;fill-rule:nonzero;stroke:none"
           id="text44"><tspan
             x="0"
             y="0"
             id="tspan46">x</tspan><tspan
             x="-121.273"
             y="48.875"
             id="tspan48">x</tspan><tspan
             x="69.666"
             y="23.2918"
             id="tspan50">x</tspan><tspan
             x="-6.6672001"
             y="119.791"
             id="tspan52">x</tspan></text>
<text
           transform="matrix(1,0,0,-1,146.6338,128.254)"
           style="font-style:italic;font-variant:normal;font-size:15.43500042px;font-family:TimesNewRomanPS;-inkscape-font-specification:TimesNewRomanPS-ItalicMT;writing-mode:lr-tb;fill:#231f20;fill-opacity:1;fill-rule:nonzero;stroke:none"
           id="text54"><tspan
             x="0"
             y="0"
             id="tspan56">i</tspan><tspan
             x="-7.3468699"
             y="120.177"
             id="tspan58">j</tspan><tspan
             x="70.02813"
             y="23.430099"
             id="tspan60">k</tspan></text>
<text
           transform="matrix(0.996318,0.0857399,0.0857399,-0.996318,26.7629,76.5301)"
           style="font-style:italic;font-variant:normal;font-size:15.43490696px;font-family:TimesNewRomanPS;-inkscape-font-specification:TimesNewRomanPS-ItalicMT;writing-mode:lr-tb;fill:#231f20;fill-opacity:1;fill-rule:nonzero;stroke:none"
           id="text62"><tspan
             x="0"
             y="0"
             id="tspan64">l</tspan></text>
<text
           transform="matrix(1,0,0,-1,145.164,226.15)"
           style="font-style:italic;font-variant:normal;font-size:15.43500042px;font-family:TimesNewRomanPS;-inkscape-font-specification:TimesNewRomanPS-ItalicMT;writing-mode:lr-tb;fill:#231f20;fill-opacity:1;fill-rule:nonzero;stroke:none"
           id="text66"><tspan
             x="0"
             y="0"
             id="tspan68">s</tspan></text>
<text
           transform="matrix(1,0,0,-1,137.02103,227.99961)"
           style="font-style:italic;font-variant:normal;font-size:23.15250015px;font-family:TimesNewRomanPS;-inkscape-font-specification:TimesNewRomanPS-ItalicMT;writing-mode:lr-tb;fill:#231f20;fill-opacity:1;fill-rule:nonzero;stroke:none"
           id="text70"><tspan
             x="0"
             y="0"
             id="tspan72">x</tspan></text>
</g><path
         d="M 1466.33,306.84 455.105,714.781"
         style="fill:none;stroke:#918f90;stroke-width:10;stroke-linecap:butt;stroke-linejoin:miter;stroke-miterlimit:4;stroke-dasharray:none;stroke-opacity:1"
         id="path74"
         inkscape:connector-curvature="0" /><path
         d="m 465.535,710.57 7.539,-45.871 -1.59,-0.328 -50.429,48.09 c -19.09,13.027 -38.164,26.078 -57.227,39.129 l 68.36,-11.5 69.699,-0.391 0.996,-1.121 -37.348,-28.008"
         style="fill:#918f90;fill-opacity:1;fill-rule:nonzero;stroke:none"
         id="path76"
         inkscape:connector-curvature="0" /><path
         d="m 1466.33,306.84 514.5,633.941"
         style="fill:none;stroke:#918f90;stroke-width:10;stroke-linecap:butt;stroke-linejoin:miter;stroke-miterlimit:4;stroke-dasharray:none;stroke-opacity:1"
         id="path78"
         inkscape:connector-curvature="0" /><path
         d="m 1973.75,932.059 -46.07,6.273 0.16,1.609 60.78,34.09 c 18.08,14.41 36.17,28.779 54.24,43.189 -10.37,-20.65 -20.75,-41.322 -31.1,-61.982 l -20.84,-66.476 -1.38,-0.621 -15.79,43.918"
         style="fill:#918f90;fill-opacity:1;fill-rule:nonzero;stroke:none"
         id="path80"
         inkscape:connector-curvature="0" /><g
         id="g82"
         transform="scale(10,10)"><text
           transform="matrix(1,0,0,-1,178.24,57.3281)"
           style="font-style:italic;font-variant:normal;font-size:23.15250015px;font-family:TimesNewRomanPS;-inkscape-font-specification:TimesNewRomanPS-ItalicMT;writing-mode:lr-tb;fill:#231f20;fill-opacity:1;fill-rule:nonzero;stroke:none"
           id="text84"><tspan
             x="0"
             y="0"
             id="tspan86">r</tspan></text>
<text
           transform="matrix(1,0,0,-1,182.92633,52.2781)"
           style="font-style:italic;font-variant:normal;font-size:15.43500042px;font-family:TimesNewRomanPS;-inkscape-font-specification:TimesNewRomanPS-ItalicMT;writing-mode:lr-tb;fill:#231f20;fill-opacity:1;fill-rule:nonzero;stroke:none"
           id="text88"><tspan
             x="0 4.2886715"
             y="0"
             sodipodi:role="line"
             id="tspan90">ja</tspan><tspan
             x="-89.012901 -84.724617"
             y="-4.7390599"
             sodipodi:role="line"
             id="tspan92">jb</tspan></text>
<text
           transform="matrix(1,0,0,-1,89.21812,61.74607)"
           style="font-style:italic;font-variant:normal;font-size:23.15250015px;font-family:TimesNewRomanPS;-inkscape-font-specification:TimesNewRomanPS-ItalicMT;writing-mode:lr-tb;fill:#231f20;fill-opacity:1;fill-rule:nonzero;stroke:none"
           id="text94"><tspan
             x="0"
             y="0"
             id="tspan96">r</tspan></text>
</g><path
         d="m 1523.29,306.84 c 0,-31.461 -25.51,-56.969 -56.96,-56.969 -31.46,0 -56.97,25.508 -56.97,56.969 0,31.469 25.51,56.961 56.97,56.961 31.45,0 56.96,-25.492 56.96,-56.961"
         style="fill:#231f20;fill-opacity:1;fill-rule:nonzero;stroke:none"
         id="path98"
         inkscape:connector-curvature="0" /><path
         d="m 1523.29,306.84 c 0,-31.461 -25.51,-56.969 -56.96,-56.969 -31.46,0 -56.97,25.508 -56.97,56.969 0,31.469 25.51,56.961 56.97,56.961 31.45,0 56.96,-25.492 56.96,-56.961 z"
         style="fill:none;stroke:#231f20;stroke-width:10;stroke-linecap:butt;stroke-linejoin:miter;stroke-miterlimit:4;stroke-dasharray:none;stroke-opacity:1"
         id="path100"
         inkscape:connector-curvature="0" /></g></g></svg>