<?xml version="1.0" encoding="UTF-8" standalone="no"?>
<!-- Created with Inkscape (http://www.inkscape.org/) -->

<svg
   xmlns:dc="http://purl.org/dc/elements/1.1/"
   xmlns:cc="http://creativecommons.org/ns#"
   xmlns:rdf="http://www.w3.org/1999/02/22-rdf-syntax-ns#"
   xmlns:svg="http://www.w3.org/2000/svg"
   xmlns="http://www.w3.org/2000/svg"
   xmlns:sodipodi="http://sodipodi.sourceforge.net/DTD/sodipodi-0.dtd"
   xmlns:inkscape="http://www.inkscape.org/namespaces/inkscape"
   id="svg2"
   version="1.1"
   inkscape:version="0.91 r13725"
   xml:space="preserve"
   width="540"
   height="540"
   viewBox="0 0 540 540"
   sodipodi:docname="awh-pmfs.svg"><metadata
     id="metadata8"><rdf:RDF><cc:Work
         rdf:about=""><dc:format>image/svg+xml</dc:format><dc:type
           rdf:resource="http://purl.org/dc/dcmitype/StillImage" /><dc:title></dc:title></cc:Work></rdf:RDF></metadata><defs
     id="defs6"><clipPath
       clipPathUnits="userSpaceOnUse"
       id="clipPath22"><path
         d="m 302.398,302.398 3802,0 0,3802 -3802,0 0,-3802 z"
         id="path24"
         inkscape:connector-curvature="0" /></clipPath></defs><sodipodi:namedview
     pagecolor="#ffffff"
     bordercolor="#666666"
     borderopacity="1"
     objecttolerance="10"
     gridtolerance="10"
     guidetolerance="10"
     inkscape:pageopacity="0"
     inkscape:pageshadow="2"
     inkscape:window-width="760"
     inkscape:window-height="480"
     id="namedview4"
     showgrid="false"
     inkscape:zoom="0.43703704"
     inkscape:cx="270"
     inkscape:cy="270"
     inkscape:window-x="0"
     inkscape:window-y="25"
     inkscape:window-maximized="0"
     inkscape:current-layer="g10" /><g
     id="g10"
     inkscape:groupmode="layer"
     inkscape:label="ink_ext_XXXXXX"
     transform="matrix(1.25,0,0,-1.25,0,540)"><g
       id="g12"
       transform="scale(0.1,0.1)"><path
         d="m 0,0 4320,0 0,4320 L 0,4320 0,0 Z"
         style="fill:#ffffff;fill-opacity:1;fill-rule:nonzero;stroke:none"
         id="path14"
         inkscape:connector-curvature="0" /><path
         d="m 302.398,302.398 3801.6,0 0,3801.6 -3801.6,0 0,-3801.6 z"
         style="fill:#ffffff;fill-opacity:1;fill-rule:nonzero;stroke:none"
         id="path16"
         inkscape:connector-curvature="0" /><g
         id="g18"><g
           id="g20"
           clip-path="url(#clipPath22)"><path
             d="m 254.98,4330 28.219,-431.97 51.199,-260.69 51.204,-707.61 51.199,-635.16 51.199,-57.17 51.199,-450.64 51.199,-518.07 51.204,90.56 51.199,-226.01 51.199,-426.138 51.199,186.746 51.199,-33.856 51.204,-353.566 51.199,236.402 51.199,125.559 51.2,-295.235 51.2,245.27 51.2,252.048 51.2,-246.825 51.2,219.675 51.2,345.7 51.2,-204.79 51.2,166.38 51.2,407.03 51.2,-166.46 51.2,92.45 51.2,437.11 51.2,-129.9 51.2,5.04 51.2,437.73 51.2,-93.91 51.2,-88.74 51.2,411.4 51.2,-57.89 51.2,-182.06 51.2,361.52 51.2,-21.69 51.2,-268.48 51.2,292.24 51.2,14.57 51.2,-342.18 51.2,208.54 51.2,50.62 51.2,-397.96 51.2,116.11 51.2,86.25 51.2,-431.44 51.2,21.22 51.2,121.56 51.2,-439.04 51.2,-69.39 51.2,156.99 51.2,-418 51.2,-148.65 51.2,193.58 51.2,-366.34 51.2,-209.424 51.2,233.054 51.2,-282.812 51.2,-244.598 51.2,277.883 51.2,-166.762 51.2,-247.297 51.2,331.371 51.2,-18.007 51.2,-211.082 51.2,397.644 51.2,163.33 51.2,-130.03 51.2,481.6 51.2,376.97 51.2,1.08 51.2,588.88 51.2,622.74 51.2,186.69 51.2,725.72 17.66,310.61"
             style="fill:none;stroke:#000000;stroke-width:10;stroke-linecap:square;stroke-linejoin:round;stroke-miterlimit:10;stroke-dasharray:none;stroke-opacity:1"
             id="path26"
             inkscape:connector-curvature="0" /><path
             d="m 317.57,4330 12.961,-248.97 28.133,-726.17 28.133,-385.72 28.129,-345.5 28.387,-372.46 28.132,401.55 28.129,-29.75 28.133,-752.29 28.133,400.62 28.133,-894.85 28.132,-172.92 28.129,27.59 28.133,326.85 28.387,-663.945 28.129,-298.047 28.133,-9.617 28.132,242.18 28.133,-326.067 28.129,466.657 28.133,607.019 28.133,-545.82 28.133,174.01 28.382,288.59 28.133,202.12 28.136,21.14 28.13,-233.15 28.13,-178.53 28.13,171.71 28.13,623.76 28.14,169.64 28.13,-431.27 28.38,-114.55 28.13,75.3 28.14,43.9 28.13,644.45 56.26,-629.77 28.13,1.28 28.14,11.24 28.13,486.33 28.38,185.86 28.13,-159.48 28.14,19.64 28.13,-5.12 28.13,106.53 28.13,330.2 28.13,-213.51 28.14,-57.25 28.13,-0.2 28.38,-236.95 28.13,304.9 28.14,171.75 28.13,-191.36 28.13,-69.01 28.13,114.41 28.13,175.77 28.14,118.01 28.13,-316.61 28.38,-69.03 28.13,82.5 28.14,-308.2 28.13,260.24 28.13,53.66 28.13,285.6 28.13,-182.22 28.14,-34.13 28.13,-42.36 28.38,321.56 28.13,722.16 28.14,-849.26 28.13,212.17 28.13,-617.94 28.13,95.34 28.13,-94.05 28.14,330.55 28.13,-237.92 28.38,73.05 28.13,-126.95 28.14,-4.64 28.13,-195.14 28.13,-50.09 28.13,103.8 28.13,-70.77 28.14,-94.16 28.13,340.97 28.38,22.43 28.13,-310.82 28.14,-191.94 28.13,-54.82 28.13,41.38 28.13,432.44 28.13,-127.25 28.14,-770.45 28.13,-142.7 28.38,113.49 28.13,-162.38 28.14,590.64 28.13,-416.56 28.13,-323.65 28.13,-119.16 28.13,319.9 28.14,-239.44 28.13,339.55 28.38,204.65 28.13,-521.33 28.14,-275.766 28.13,366.386 28.13,-230.98 28.13,233.2 28.13,511 28.14,-491.7 28.13,-291.01 28.38,251 28.13,-277.53 28.14,275.14 28.13,-225.62 28.13,143.42 28.13,376.28 28.13,26.55 28.14,683.24 28.13,-20.2 28.38,-340.46 28.13,71.04 28.14,599.8 28.13,-12.87 28.13,298.45 28.13,168.81 28.13,2.6 28.14,94.44 28.13,190.24 28.38,371.72 28.13,567.78 28.14,-80.42 28.13,-25.13 9.46,147.75 0,0"
             style="fill:none;stroke:#d94614;stroke-width:10;stroke-linecap:square;stroke-linejoin:round;stroke-miterlimit:10;stroke-dasharray:none;stroke-opacity:1"
             id="path28"
             inkscape:connector-curvature="0" /><path
             d="m 302.398,4163.51 28.133,-924.99 28.133,-68.09 28.133,-603.92 28.129,-485.65 28.387,-237.22 28.132,-113.03 28.129,168.4 28.133,-302.92 28.133,-410.12 28.133,-126.22 28.132,38.12 28.129,108.35 28.133,-36.72 28.387,-97.91 56.262,-314.805 28.132,110.481 28.133,-8.821 28.129,-83.941 28.133,-27.418 28.133,-46.629 28.133,-197.973 28.382,241.082 28.133,62.758 28.136,166.36 28.13,-1.633 28.13,-99.426 28.13,220.595 28.13,59.86 28.14,-167.779 28.13,8.847 28.38,-109.546 28.13,-27.969 28.14,186.957 28.13,452.09 28.13,-48 28.13,3.32 28.13,39.19 28.14,-101.98 28.13,273.47 28.38,351.51 28.13,40.06 28.14,-129.52 28.13,-4.99 28.13,58.56 28.13,347.93 28.13,451.81 28.14,-486.93 28.13,108.59 28.38,-213.11 28.13,87.24 28.14,485.64 28.13,-176.29 28.13,-25.35 28.13,-156.58 28.13,-60.5 28.14,413.8 28.13,151.99 28.38,-227.64 28.13,78.03 28.14,-240.4 28.13,336.36 28.13,73.65 28.13,-0.24 28.13,64.19 28.14,-276.48 28.13,131.34 28.38,307.91 28.13,-22.65 28.14,-282.64 28.13,344.53 28.13,-599.04 28.13,74.29 28.13,-55.06 28.14,197.88 28.13,-96.6 28.38,-409.37 28.13,-4.07 28.14,487.5 28.13,-346.53 28.13,107.82 28.13,-323.14 28.13,-345.73 56.27,207.5 28.38,80.5 28.13,-9.56 28.14,-6.11 28.13,-327.3 28.13,303.81 28.13,-184.96 28.13,850.72 28.14,-986.14 28.13,-168.23 28.38,-201.46 28.13,26.26 28.14,218.22 28.13,140.88 28.13,-253.86 28.13,-172.66 28.13,-56.19 28.14,141.24 28.13,501.18 28.38,-353.73 28.13,-292.03 28.14,-221.89 28.13,-44.81 28.13,85.06 28.13,249.59 28.13,-416.703 28.14,-146.179 28.13,53.761 28.38,238.291 28.13,32.04 28.14,152.38 56.26,-169.41 28.13,24.68 28.13,269.55 28.14,298.18 28.13,103.36 28.38,-276.2 28.13,85.86 28.14,256.84 28.13,199.47 28.13,423.3 28.13,113.93 28.13,-31.3 28.14,214.67 28.13,253.87 28.38,553.67 28.13,179.02 28.14,116.65 28.13,213.59 16.25,182.2 0,0"
             style="fill:none;stroke:#32cd32;stroke-width:10;stroke-linecap:square;stroke-linejoin:round;stroke-miterlimit:10;stroke-dasharray:none;stroke-opacity:1"
             id="path30"
             inkscape:connector-curvature="0" /><path
             d="m 302.398,4300.38 28.133,-1016.97 28.133,26.58 28.133,-601.24 28.129,-546.64 28.387,-247.72 28.132,-62.4 28.129,-80.86 28.133,-227.57 28.133,-288.22 28.133,-217.33 28.132,33.02 28.129,80.56 28.133,-19.92 28.387,-72.44 28.129,-185.113 28.133,-124.242 28.132,31.16 28.133,103.68 28.129,-153.871 28.133,-19.071 28.133,-27.316 28.133,-151.402 28.382,261.832 28.133,61.894 28.136,143.459 28.13,-285.904 28.13,-118.719 28.13,169.715 28.13,95.656 28.14,201.522 28.13,-153.842 28.38,-50.664 28.13,24.242 28.14,158.634 28.13,196.88 28.13,80.31 28.13,-62.54 28.13,-90.08 28.14,90.13 28.13,309.3 28.38,260.27 28.13,17.35 28.14,-33.26 28.13,30.18 28.13,88.86 28.13,184.3 28.13,247.36 28.14,-131.87 28.13,143.01 28.38,-168.98 28.13,107.65 28.14,584.62 28.13,-241.68 28.13,-117.25 28.13,-76.21 28.13,-29.21 28.14,318.77 28.13,72.33 28.38,-7.32 28.13,-154.19 28.14,-128.69 28.13,283.96 28.13,104.58 28.13,-17.53 28.13,-95.3 28.14,-126.67 28.13,-12.88 28.38,181.91 28.13,0.32 28.14,-7.34 28.13,-47.68 28.13,-189.76 28.13,10.32 28.13,60.17 28.14,54.66 28.13,-93.84 28.38,-219.74 28.13,-24.48 28.14,111.93 28.13,-9.89 28.13,190.54 28.13,-420.8 28.13,-307.03 56.27,210.69 28.38,136.28 28.13,-276.87 28.14,-123.75 28.13,-253.92 28.13,63.29 28.13,138.85 28.13,-142.06 28.14,-75.47 28.13,-177.64 28.38,-36.81 28.13,-125.44 28.14,200.37 28.13,-53.76 28.13,-313.58 28.13,-121.7 28.13,-77.815 28.14,62.668 28.13,52.467 28.38,22.54 28.13,-261.925 28.14,-67.941 28.13,-28.766 28.13,108.563 28.13,141.504 28.13,-261.997 28.14,-186.714 28.13,-4.95 28.38,30.028 28.13,281.457 28.14,-140.156 28.13,-92.543 28.13,87.57 28.13,-43.516 28.13,226.746 28.14,136.813 28.13,-29.649 28.38,31.821 28.13,-93.024 28.14,254.139 28.13,268.36 28.13,252.04 28.13,81.66 28.13,117.94 28.14,23.65 28.13,360.33 28.38,268.01 28.13,422.43 28.14,179.1 28.13,111.09 28.13,467.39 0,0"
             style="fill:none;stroke:#1a4ed4;stroke-width:10;stroke-linecap:square;stroke-linejoin:round;stroke-miterlimit:10;stroke-dasharray:none;stroke-opacity:1"
             id="path32"
             inkscape:connector-curvature="0" /></g></g><path
         d="m 682.559,302.398 0,40"
         style="fill:#000000;fill-opacity:1;fill-rule:nonzero;stroke:none"
         id="path34"
         inkscape:connector-curvature="0" /><path
         d="m 682.559,302.398 0,40"
         style="fill:none;stroke:#000000;stroke-width:5;stroke-linecap:butt;stroke-linejoin:round;stroke-miterlimit:10;stroke-dasharray:none;stroke-opacity:1"
         id="path36"
         inkscape:connector-curvature="0" /><path
         d="m 682.559,4104 0,-40"
         style="fill:#000000;fill-opacity:1;fill-rule:nonzero;stroke:none"
         id="path38"
         inkscape:connector-curvature="0" /><path
         d="m 682.559,4104 0,-40"
         style="fill:none;stroke:#000000;stroke-width:5;stroke-linecap:butt;stroke-linejoin:round;stroke-miterlimit:10;stroke-dasharray:none;stroke-opacity:1"
         id="path40"
         inkscape:connector-curvature="0" /><path
         d="m 1189.44,302.398 0,40"
         style="fill:#000000;fill-opacity:1;fill-rule:nonzero;stroke:none"
         id="path42"
         inkscape:connector-curvature="0" /><path
         d="m 1189.44,302.398 0,40"
         style="fill:none;stroke:#000000;stroke-width:5;stroke-linecap:butt;stroke-linejoin:round;stroke-miterlimit:10;stroke-dasharray:none;stroke-opacity:1"
         id="path44"
         inkscape:connector-curvature="0" /><path
         d="m 1189.44,4104 0,-40"
         style="fill:#000000;fill-opacity:1;fill-rule:nonzero;stroke:none"
         id="path46"
         inkscape:connector-curvature="0" /><path
         d="m 1189.44,4104 0,-40"
         style="fill:none;stroke:#000000;stroke-width:5;stroke-linecap:butt;stroke-linejoin:round;stroke-miterlimit:10;stroke-dasharray:none;stroke-opacity:1"
         id="path48"
         inkscape:connector-curvature="0" /><path
         d="m 1696.32,302.398 0,40"
         style="fill:#000000;fill-opacity:1;fill-rule:nonzero;stroke:none"
         id="path50"
         inkscape:connector-curvature="0" /><path
         d="m 1696.32,302.398 0,40"
         style="fill:none;stroke:#000000;stroke-width:5;stroke-linecap:butt;stroke-linejoin:round;stroke-miterlimit:10;stroke-dasharray:none;stroke-opacity:1"
         id="path52"
         inkscape:connector-curvature="0" /><path
         d="m 1696.32,4104 0,-40"
         style="fill:#000000;fill-opacity:1;fill-rule:nonzero;stroke:none"
         id="path54"
         inkscape:connector-curvature="0" /><path
         d="m 1696.32,4104 0,-40"
         style="fill:none;stroke:#000000;stroke-width:5;stroke-linecap:butt;stroke-linejoin:round;stroke-miterlimit:10;stroke-dasharray:none;stroke-opacity:1"
         id="path56"
         inkscape:connector-curvature="0" /><path
         d="m 2203.2,302.398 0,40"
         style="fill:#000000;fill-opacity:1;fill-rule:nonzero;stroke:none"
         id="path58"
         inkscape:connector-curvature="0" /><path
         d="m 2203.2,302.398 0,40"
         style="fill:none;stroke:#000000;stroke-width:5;stroke-linecap:butt;stroke-linejoin:round;stroke-miterlimit:10;stroke-dasharray:none;stroke-opacity:1"
         id="path60"
         inkscape:connector-curvature="0" /><path
         d="m 2203.2,4104 0,-40"
         style="fill:#000000;fill-opacity:1;fill-rule:nonzero;stroke:none"
         id="path62"
         inkscape:connector-curvature="0" /><path
         d="m 2203.2,4104 0,-40"
         style="fill:none;stroke:#000000;stroke-width:5;stroke-linecap:butt;stroke-linejoin:round;stroke-miterlimit:10;stroke-dasharray:none;stroke-opacity:1"
         id="path64"
         inkscape:connector-curvature="0" /><path
         d="m 2710.08,302.398 0,40"
         style="fill:#000000;fill-opacity:1;fill-rule:nonzero;stroke:none"
         id="path66"
         inkscape:connector-curvature="0" /><path
         d="m 2710.08,302.398 0,40"
         style="fill:none;stroke:#000000;stroke-width:5;stroke-linecap:butt;stroke-linejoin:round;stroke-miterlimit:10;stroke-dasharray:none;stroke-opacity:1"
         id="path68"
         inkscape:connector-curvature="0" /><path
         d="m 2710.08,4104 0,-40"
         style="fill:#000000;fill-opacity:1;fill-rule:nonzero;stroke:none"
         id="path70"
         inkscape:connector-curvature="0" /><path
         d="m 2710.08,4104 0,-40"
         style="fill:none;stroke:#000000;stroke-width:5;stroke-linecap:butt;stroke-linejoin:round;stroke-miterlimit:10;stroke-dasharray:none;stroke-opacity:1"
         id="path72"
         inkscape:connector-curvature="0" /><path
         d="m 3216.96,302.398 0,40"
         style="fill:#000000;fill-opacity:1;fill-rule:nonzero;stroke:none"
         id="path74"
         inkscape:connector-curvature="0" /><path
         d="m 3216.96,302.398 0,40"
         style="fill:none;stroke:#000000;stroke-width:5;stroke-linecap:butt;stroke-linejoin:round;stroke-miterlimit:10;stroke-dasharray:none;stroke-opacity:1"
         id="path76"
         inkscape:connector-curvature="0" /><path
         d="m 3216.96,4104 0,-40"
         style="fill:#000000;fill-opacity:1;fill-rule:nonzero;stroke:none"
         id="path78"
         inkscape:connector-curvature="0" /><path
         d="m 3216.96,4104 0,-40"
         style="fill:none;stroke:#000000;stroke-width:5;stroke-linecap:butt;stroke-linejoin:round;stroke-miterlimit:10;stroke-dasharray:none;stroke-opacity:1"
         id="path80"
         inkscape:connector-curvature="0" /><path
         d="m 3723.84,302.398 0,40"
         style="fill:#000000;fill-opacity:1;fill-rule:nonzero;stroke:none"
         id="path82"
         inkscape:connector-curvature="0" /><path
         d="m 3723.84,302.398 0,40"
         style="fill:none;stroke:#000000;stroke-width:5;stroke-linecap:butt;stroke-linejoin:round;stroke-miterlimit:10;stroke-dasharray:none;stroke-opacity:1"
         id="path84"
         inkscape:connector-curvature="0" /><path
         d="m 3723.84,4104 0,-40"
         style="fill:#000000;fill-opacity:1;fill-rule:nonzero;stroke:none"
         id="path86"
         inkscape:connector-curvature="0" /><path
         d="m 3723.84,4104 0,-40"
         style="fill:none;stroke:#000000;stroke-width:5;stroke-linecap:butt;stroke-linejoin:round;stroke-miterlimit:10;stroke-dasharray:none;stroke-opacity:1"
         id="path88"
         inkscape:connector-curvature="0" /><g
         id="g90"
         transform="scale(10,10)"><text
           transform="matrix(1,0,0,-1,111.82,10.0367)"
           style="font-variant:normal;font-weight:normal;font-size:20px;font-family:Arial;-inkscape-font-specification:Arial;writing-mode:lr-tb;fill:#000000;fill-opacity:1;fill-rule:nonzero;stroke:none"
           id="text92"><tspan
             x="0 13.896484 26.201172 38.457035 49.453129 57.294922 62.851566 75.087891 87.763664 94.121078 105.11717 117.35351 129.58984 137.81252 150.50783 156.06445 168.74023 180.99608 188.83789 201.14258"
             y="0"
             sodipodi:role="line"
             id="tspan94">Reaction coordinate </tspan></text>
<text
           transform="matrix(1,0,0,-1,319.32,10.0367)"
           style="font-variant:normal;font-weight:normal;font-size:20px;font-family:Arial;-inkscape-font-specification:Arial;writing-mode:lr-tb;fill:#000000;fill-opacity:1;fill-rule:nonzero;stroke:none"
           id="text96"><tspan
             x="0"
             y="0"
             id="tspan98">ξ</tspan></text>
</g><path
         d="m 302.398,502.484 40,0"
         style="fill:#000000;fill-opacity:1;fill-rule:nonzero;stroke:none"
         id="path100"
         inkscape:connector-curvature="0" /><path
         d="m 302.398,502.484 40,0"
         style="fill:none;stroke:#000000;stroke-width:5;stroke-linecap:butt;stroke-linejoin:round;stroke-miterlimit:10;stroke-dasharray:none;stroke-opacity:1"
         id="path102"
         inkscape:connector-curvature="0" /><path
         d="m 4104,502.484 -40,0"
         style="fill:#000000;fill-opacity:1;fill-rule:nonzero;stroke:none"
         id="path104"
         inkscape:connector-curvature="0" /><path
         d="m 4104,502.484 -40,0"
         style="fill:none;stroke:#000000;stroke-width:5;stroke-linecap:butt;stroke-linejoin:round;stroke-miterlimit:10;stroke-dasharray:none;stroke-opacity:1"
         id="path106"
         inkscape:connector-curvature="0" /><path
         d="m 302.398,1502.91 40,0"
         style="fill:#000000;fill-opacity:1;fill-rule:nonzero;stroke:none"
         id="path108"
         inkscape:connector-curvature="0" /><path
         d="m 302.398,1502.91 40,0"
         style="fill:none;stroke:#000000;stroke-width:5;stroke-linecap:butt;stroke-linejoin:round;stroke-miterlimit:10;stroke-dasharray:none;stroke-opacity:1"
         id="path110"
         inkscape:connector-curvature="0" /><path
         d="m 4104,1502.91 -40,0"
         style="fill:#000000;fill-opacity:1;fill-rule:nonzero;stroke:none"
         id="path112"
         inkscape:connector-curvature="0" /><path
         d="m 4104,1502.91 -40,0"
         style="fill:none;stroke:#000000;stroke-width:5;stroke-linecap:butt;stroke-linejoin:round;stroke-miterlimit:10;stroke-dasharray:none;stroke-opacity:1"
         id="path114"
         inkscape:connector-curvature="0" /><path
         d="m 302.398,2503.33 40,0"
         style="fill:#000000;fill-opacity:1;fill-rule:nonzero;stroke:none"
         id="path116"
         inkscape:connector-curvature="0" /><path
         d="m 302.398,2503.33 40,0"
         style="fill:none;stroke:#000000;stroke-width:5;stroke-linecap:butt;stroke-linejoin:round;stroke-miterlimit:10;stroke-dasharray:none;stroke-opacity:1"
         id="path118"
         inkscape:connector-curvature="0" /><path
         d="m 4104,2503.33 -40,0"
         style="fill:#000000;fill-opacity:1;fill-rule:nonzero;stroke:none"
         id="path120"
         inkscape:connector-curvature="0" /><path
         d="m 4104,2503.33 -40,0"
         style="fill:none;stroke:#000000;stroke-width:5;stroke-linecap:butt;stroke-linejoin:round;stroke-miterlimit:10;stroke-dasharray:none;stroke-opacity:1"
         id="path122"
         inkscape:connector-curvature="0" /><path
         d="m 302.398,3503.75 40,0"
         style="fill:#000000;fill-opacity:1;fill-rule:nonzero;stroke:none"
         id="path124"
         inkscape:connector-curvature="0" /><path
         d="m 302.398,3503.75 40,0"
         style="fill:none;stroke:#000000;stroke-width:5;stroke-linecap:butt;stroke-linejoin:round;stroke-miterlimit:10;stroke-dasharray:none;stroke-opacity:1"
         id="path126"
         inkscape:connector-curvature="0" /><path
         d="m 4104,3503.75 -40,0"
         style="fill:#000000;fill-opacity:1;fill-rule:nonzero;stroke:none"
         id="path128"
         inkscape:connector-curvature="0" /><path
         d="m 4104,3503.75 -40,0"
         style="fill:none;stroke:#000000;stroke-width:5;stroke-linecap:butt;stroke-linejoin:round;stroke-miterlimit:10;stroke-dasharray:none;stroke-opacity:1"
         id="path130"
         inkscape:connector-curvature="0" /><g
         id="g132"
         transform="scale(10,10)"><text
           transform="matrix(0,1,1,0,20.2398,177.32)"
           style="font-variant:normal;font-weight:normal;font-size:20px;font-family:Arial;-inkscape-font-specification:Arial;writing-mode:lr-tb;fill:#000000;fill-opacity:1;fill-rule:nonzero;stroke:none"
           id="text134"><tspan
             x="0 12.06055 29.316399 40.820305"
             y="0"
             sodipodi:role="line"
             id="tspan136">PMF </tspan></text>
<text
           transform="matrix(0,1,1,0,20.2398,224.4977)"
           style="font-variant:normal;font-weight:normal;font-size:20px;font-family:Arial;-inkscape-font-specification:Arial;writing-mode:lr-tb;fill:#000000;fill-opacity:1;fill-rule:nonzero;stroke:none"
           id="text138"><tspan
             x="0 14.443369"
             y="0"
             sodipodi:role="line"
             id="tspan140">Φ(</tspan></text>
<text
           transform="matrix(0,1,1,0,20.2398,246.7047)"
           style="font-variant:normal;font-weight:normal;font-size:20px;font-family:Arial;-inkscape-font-specification:Arial;writing-mode:lr-tb;fill:#000000;fill-opacity:1;fill-rule:nonzero;stroke:none"
           id="text142"><tspan
             x="0"
             y="0"
             id="tspan144">ξ</tspan></text>
<text
           transform="matrix(0,1,1,0,20.2398,255.44493)"
           style="font-variant:normal;font-weight:normal;font-size:20px;font-family:Arial;-inkscape-font-specification:Arial;writing-mode:lr-tb;fill:#000000;fill-opacity:1;fill-rule:nonzero;stroke:none"
           id="text146"><tspan
             x="0"
             y="0"
             id="tspan148">)</tspan></text>
</g><path
         d="M 302.398,4104 4104,4104"
         style="fill:none;stroke:#000000;stroke-width:10;stroke-linecap:butt;stroke-linejoin:round;stroke-miterlimit:10;stroke-dasharray:none;stroke-opacity:1"
         id="path150"
         inkscape:connector-curvature="0" /><path
         d="M 4104,302.398 4104,4104"
         style="fill:none;stroke:#000000;stroke-width:10;stroke-linecap:butt;stroke-linejoin:round;stroke-miterlimit:10;stroke-dasharray:none;stroke-opacity:1"
         id="path152"
         inkscape:connector-curvature="0" /><path
         d="m 302.398,302.398 3801.602,0"
         style="fill:none;stroke:#000000;stroke-width:10;stroke-linecap:butt;stroke-linejoin:round;stroke-miterlimit:10;stroke-dasharray:none;stroke-opacity:1"
         id="path154"
         inkscape:connector-curvature="0" /><path
         d="m 302.398,302.398 0,3801.602"
         style="fill:none;stroke:#000000;stroke-width:10;stroke-linecap:butt;stroke-linejoin:round;stroke-miterlimit:10;stroke-dasharray:none;stroke-opacity:1"
         id="path156"
         inkscape:connector-curvature="0" /><path
         d="m 2203.2,2472.15 c 0,-646.17 0,-1292.34 0,-1938.505"
         style="fill:none;stroke:#000000;stroke-width:10;stroke-linecap:round;stroke-linejoin:round;stroke-miterlimit:10;stroke-dasharray:none;stroke-opacity:1"
         id="path158"
         inkscape:connector-curvature="0" /><path
         d="m 2163.2,2392.15 40,80 40,-80"
         style="fill:none;stroke:#000000;stroke-width:10;stroke-linecap:round;stroke-linejoin:round;stroke-miterlimit:10;stroke-dasharray:none;stroke-opacity:1"
         id="path160"
         inkscape:connector-curvature="0" /><path
         d="m 2243.2,613.645 -40,-80 -40,80"
         style="fill:none;stroke:#000000;stroke-width:10;stroke-linecap:round;stroke-linejoin:round;stroke-miterlimit:10;stroke-dasharray:none;stroke-opacity:1"
         id="path162"
         inkscape:connector-curvature="0" /><g
         id="g164"
         transform="scale(10,10)"><text
           transform="matrix(0,1,1,0,209.457,115.291)"
           style="font-variant:normal;font-weight:normal;font-size:20px;font-family:Arial;-inkscape-font-specification:Arial;writing-mode:lr-tb;fill:#000000;fill-opacity:1;fill-rule:nonzero;stroke:none"
           id="text166"><tspan
             x="0 12.724614 25.449228"
             y="0"
             sodipodi:role="line"
             id="tspan168">10 </tspan></text>
<text
           transform="matrix(0,1,1,0,209.457,147.0976)"
           style="font-variant:normal;font-weight:normal;font-size:20px;font-family:Arial;-inkscape-font-specification:Arial;writing-mode:lr-tb;fill:#000000;fill-opacity:1;fill-rule:nonzero;stroke:none"
           id="text170"><tspan
             x="0"
             y="0"
             id="tspan172">k</tspan></text>
<text
           transform="matrix(0,1,1,0,214.55895,157.498)"
           style="font-variant:normal;font-weight:normal;font-size:14px;font-family:Arial;-inkscape-font-specification:Arial;writing-mode:lr-tb;fill:#000000;fill-opacity:1;fill-rule:nonzero;stroke:none"
           id="text174"><tspan
             x="0"
             y="0"
             id="tspan176">B</tspan></text>
<text
           transform="matrix(0,1,1,0,209.457,172.6543)"
           style="font-variant:normal;font-weight:normal;font-size:20px;font-family:Arial;-inkscape-font-specification:Arial;writing-mode:lr-tb;fill:#000000;fill-opacity:1;fill-rule:nonzero;stroke:none"
           id="text178"><tspan
             x="0"
             y="0"
             id="tspan180">T</tspan></text>
</g><path
         d="m 518.398,3868.28 252,0"
         style="fill:none;stroke:#000000;stroke-width:10;stroke-linecap:square;stroke-linejoin:round;stroke-miterlimit:10;stroke-dasharray:none;stroke-opacity:1"
         id="path182"
         inkscape:connector-curvature="0" /><g
         id="g184"
         transform="scale(10,10)"><text
           transform="matrix(1,0,0,-1,96.8398,380.528)"
           style="font-variant:normal;font-weight:normal;font-size:18px;font-family:Arial;-inkscape-font-specification:Arial;writing-mode:lr-tb;fill:#000000;fill-opacity:1;fill-rule:nonzero;stroke:none"
           id="text186"><tspan
             x="0 11.373046 22.025383 33.055855 42.952339 50.009758 55.731632 66.585632 82.116104"
             y="0"
             sodipodi:role="line"
             id="tspan188">Exact PMF</tspan></text>
</g><path
         d="m 518.398,3604.06 252,0"
         style="fill:none;stroke:#d94614;stroke-width:10;stroke-linecap:square;stroke-linejoin:round;stroke-miterlimit:10;stroke-dasharray:none;stroke-opacity:1"
         id="path190"
         inkscape:connector-curvature="0" /><g
         id="g192"
         transform="scale(10,10)"><text
           transform="matrix(1,0,0,-1,96.8398,354.106)"
           style="font-variant:normal;font-weight:normal;font-size:18px;font-family:Arial;-inkscape-font-specification:Arial;writing-mode:lr-tb;fill:#000000;fill-opacity:1;fill-rule:nonzero;stroke:none"
           id="text194"><tspan
             x="0 11.452346 20.830345 27.888153 33.609638 43.506123 54.519009 65.171349 76.245567 83.645966 88.646744 100.05495"
             y="0"
             sodipodi:role="line"
             id="tspan196">1st covering</tspan></text>
</g><path
         d="m 518.398,3339.84 252,0"
         style="fill:none;stroke:#32cd32;stroke-width:10;stroke-linecap:square;stroke-linejoin:round;stroke-miterlimit:10;stroke-dasharray:none;stroke-opacity:1"
         id="path198"
         inkscape:connector-curvature="0" /><g
         id="g200"
         transform="scale(10,10)"><text
           transform="matrix(1,0,0,-1,96.8398,327.684)"
           style="font-variant:normal;font-weight:normal;font-size:18px;font-family:Arial;-inkscape-font-specification:Arial;writing-mode:lr-tb;fill:#000000;fill-opacity:1;fill-rule:nonzero;stroke:none"
           id="text202"><tspan
             x="0 11.452346 22.86055"
             y="0"
             sodipodi:role="line"
             id="tspan204">2nd</tspan></text>
</g><path
         d="m 518.398,3075.62 252,0"
         style="fill:none;stroke:#1a4ed4;stroke-width:10;stroke-linecap:square;stroke-linejoin:round;stroke-miterlimit:10;stroke-dasharray:none;stroke-opacity:1"
         id="path206"
         inkscape:connector-curvature="0" /><g
         id="g208"
         transform="scale(10,10)"><text
           transform="matrix(1,0,0,-1,96.8398,301.262)"
           style="font-variant:normal;font-weight:normal;font-size:18px;font-family:Arial;-inkscape-font-specification:Arial;writing-mode:lr-tb;fill:#000000;fill-opacity:1;fill-rule:nonzero;stroke:none"
           id="text210"><tspan
             x="0 11.452346 18.477739"
             y="0"
             sodipodi:role="line"
             id="tspan212">3rd</tspan></text>
</g></g></g></svg>