<?xml version="1.0" encoding="UTF-8" standalone="no"?>
<!-- Created with Inkscape (http://www.inkscape.org/) -->

<svg
   xmlns:dc="http://purl.org/dc/elements/1.1/"
   xmlns:cc="http://creativecommons.org/ns#"
   xmlns:rdf="http://www.w3.org/1999/02/22-rdf-syntax-ns#"
   xmlns:svg="http://www.w3.org/2000/svg"
   xmlns="http://www.w3.org/2000/svg"
   xmlns:sodipodi="http://sodipodi.sourceforge.net/DTD/sodipodi-0.dtd"
   xmlns:inkscape="http://www.inkscape.org/namespaces/inkscape"
   id="svg2"
   version="1.1"
   inkscape:version="0.91 r13725"
   xml:space="preserve"
   width="552.5"
   height="163.75"
   viewBox="0 0 552.5 163.75"
   sodipodi:docname="dumtypes.svg"><metadata
     id="metadata8"><rdf:RDF><cc:Work
         rdf:about=""><dc:format>image/svg+xml</dc:format><dc:type
           rdf:resource="http://purl.org/dc/dcmitype/StillImage" /><dc:title></dc:title></cc:Work></rdf:RDF></metadata><defs
     id="defs6"><clipPath
       clipPathUnits="userSpaceOnUse"
       id="clipPath20"><path
         d="m 0,0 0,1310 4420,0 L 4420,0 0,0 Z m 4222.2,511.809 132.48,-209.879 -142.92,203.039 194.04,-290.875 10.43,6.84 -194.03,290.875 z"
         id="path22"
         inkscape:connector-curvature="0" /></clipPath><clipPath
       clipPathUnits="userSpaceOnUse"
       id="clipPath58"><path
         d="m 0,0 0,1310 4420,0 L 4420,0 0,0 Z m 4276.92,275.293 -69.48,227.875 93.24,-219.238 -100.44,276.48 -23.76,-8.64 100.44,-276.477 z"
         id="path60"
         inkscape:connector-curvature="0" /></clipPath><clipPath
       clipPathUnits="userSpaceOnUse"
       id="clipPath120"><path
         d="m 1410.98,546.008 c 0,-29.82 -24.18,-54 -54,-54 -29.82,0 -53.99,24.18 -53.99,54 0,29.82 24.17,54 53.99,54 29.82,0 54,-24.18 54,-54 z"
         id="path122"
         inkscape:connector-curvature="0"
         style="clip-rule:evenodd" /></clipPath><clipPath
       clipPathUnits="userSpaceOnUse"
       id="clipPath144"><path
         d="m 2733.97,546.008 c 0,-29.82 -24.18,-54 -54,-54 -29.82,0 -54,24.18 -54,54 0,29.82 24.18,54 54,54 29.82,0 54,-24.18 54,-54 z"
         id="path146"
         inkscape:connector-curvature="0"
         style="clip-rule:evenodd" /></clipPath><clipPath
       clipPathUnits="userSpaceOnUse"
       id="clipPath166"><path
         d="m 2247.98,546.008 c 0,-29.82 -24.18,-54 -54,-54 -29.82,0 -54,24.18 -54,54 0,29.82 24.18,54 54,54 29.82,0 54,-24.18 54,-54 z"
         id="path168"
         inkscape:connector-curvature="0"
         style="clip-rule:evenodd" /></clipPath><clipPath
       clipPathUnits="userSpaceOnUse"
       id="clipPath188"><path
         d="m 1167.99,114.012 c 0,-29.8206 -24.18,-54.0003 -54,-54.0003 -29.82,0 -54,24.1797 -54,54.0003 0,29.82 24.18,54 54,54 29.82,0 54,-24.18 54,-54 z"
         id="path190"
         inkscape:connector-curvature="0"
         style="clip-rule:evenodd" /></clipPath><clipPath
       clipPathUnits="userSpaceOnUse"
       id="clipPath212"><path
         d="m 357.996,546.008 c 0,-29.82 -24.18,-54 -54,-54 -29.82,0 -54,24.18 -54,54 0,29.82 24.18,54 54,54 29.82,0 54,-24.18 54,-54 z"
         id="path214"
         inkscape:connector-curvature="0"
         style="clip-rule:evenodd" /></clipPath><clipPath
       clipPathUnits="userSpaceOnUse"
       id="clipPath234"><path
         d="m 115,978.004 c 0,-29.82 -24.1797,-54 -54,-54 -29.8203,0 -54,24.18 -54,54 0,29.816 24.1797,53.996 54,53.996 29.8203,0 54,-24.18 54,-53.996 z"
         id="path236"
         inkscape:connector-curvature="0"
         style="clip-rule:evenodd" /></clipPath><clipPath
       clipPathUnits="userSpaceOnUse"
       id="clipPath260"><path
         d="m 654.992,546.008 c 0,-14.91 -12.09,-27 -27,-27 -14.91,0 -27,12.09 -27,27 0,14.91 12.09,27 27,27 14.91,0 27,-12.09 27,-27 z"
         id="path262"
         inkscape:connector-curvature="0"
         style="clip-rule:evenodd" /></clipPath><clipPath
       clipPathUnits="userSpaceOnUse"
       id="clipPath280"><path
         d="m 2976.97,978.004 c 0,-29.82 -24.18,-54 -54,-54 -29.82,0 -54,24.18 -54,54 0,29.816 24.18,53.996 54,53.996 29.82,0 54,-24.18 54,-53.996 z"
         id="path282"
         inkscape:connector-curvature="0"
         style="clip-rule:evenodd" /></clipPath><clipPath
       clipPathUnits="userSpaceOnUse"
       id="clipPath322"><path
         d="m 4272.96,681.008 c 0,-29.82 -24.18,-54 -54,-54 -29.82,0 -54,24.18 -54,54 0,29.82 24.18,54 54,54 29.82,0 54,-24.18 54,-54 z"
         id="path324"
         inkscape:connector-curvature="0"
         style="clip-rule:evenodd" /></clipPath></defs><sodipodi:namedview
     pagecolor="#ffffff"
     bordercolor="#666666"
     borderopacity="1"
     objecttolerance="10"
     gridtolerance="10"
     guidetolerance="10"
     inkscape:pageopacity="0"
     inkscape:pageshadow="2"
     inkscape:window-width="760"
     inkscape:window-height="480"
     id="namedview4"
     showgrid="false"
     inkscape:zoom="0.6678733"
     inkscape:cx="276.25"
     inkscape:cy="81.875"
     inkscape:window-x="0"
     inkscape:window-y="25"
     inkscape:window-maximized="0"
     inkscape:current-layer="g10" /><g
     id="g10"
     inkscape:groupmode="layer"
     inkscape:label="ink_ext_XXXXXX"
     transform="matrix(1.25,0,0,-1.25,0,163.75)"><g
       id="g12"
       transform="scale(0.1,0.1)"><path
         d="m 3705.96,546.008 486,0 135,296.996"
         style="fill:none;stroke:#000000;stroke-width:2.69997001;stroke-linecap:butt;stroke-linejoin:miter;stroke-miterlimit:10;stroke-dasharray:none;stroke-opacity:1"
         id="path14"
         inkscape:connector-curvature="0" /><g
         id="g16"><g
           id="g18"
           clip-path="url(#clipPath20)"><path
             d="m 4191.96,546.008 216,-323.996"
             style="fill:none;stroke:#000000;stroke-width:2.69997001;stroke-linecap:butt;stroke-linejoin:miter;stroke-miterlimit:10;stroke-dasharray:none;stroke-opacity:1"
             id="path24"
             inkscape:connector-curvature="0" /></g></g><path
         d="m 4222.2,511.809 132.48,-209.879 -142.92,203.039 5.4,3.601 5.04,3.239"
         style="fill:#000000;fill-opacity:1;fill-rule:evenodd;stroke:none"
         id="path26"
         inkscape:connector-curvature="0" /><path
         d="m 4222.2,511.809 132.48,-209.879 -142.92,203.039 5.4,3.601 5.04,3.239 z"
         style="fill:none;stroke:#000000;stroke-width:2.69997001;stroke-linecap:butt;stroke-linejoin:miter;stroke-miterlimit:10;stroke-dasharray:none;stroke-opacity:1"
         id="path28"
         inkscape:connector-curvature="0" /><path
         d="m 4245.96,546.008 c 0,-29.82 -24.18,-54 -54,-54 -29.82,0 -54,24.18 -54,54 0,29.82 24.18,54 54,54 29.82,0 54,-24.18 54,-54"
         style="fill:#808080;fill-opacity:1;fill-rule:evenodd;stroke:none"
         id="path30"
         inkscape:connector-curvature="0" /><path
         d="m 3705.96,546.008 513,135 0,-269.996 -513,134.996 z"
         style="fill:none;stroke:#000000;stroke-width:2.69997001;stroke-linecap:butt;stroke-linejoin:miter;stroke-miterlimit:10;stroke-dasharray:5.39995, 17.9998;stroke-dashoffset:17.99979973;stroke-opacity:1"
         id="path32"
         inkscape:connector-curvature="0" /><path
         d="m 4272.96,411.012 c 0,-29.821 -24.18,-54 -54,-54 -29.82,0 -54,24.179 -54,54 0,29.82 24.18,53.996 54,53.996 29.82,0 54,-24.176 54,-53.996"
         style="fill:#000000;fill-opacity:1;fill-rule:evenodd;stroke:none"
         id="path34"
         inkscape:connector-curvature="0" /><path
         d="m 4272.96,411.012 c 0,-29.821 -24.18,-54 -54,-54 -29.82,0 -54,24.179 -54,54 0,29.82 24.18,53.996 54,53.996 29.82,0 54,-24.176 54,-53.996 z"
         style="fill:none;stroke:#ffffff;stroke-width:2.69997001;stroke-linecap:butt;stroke-linejoin:miter;stroke-miterlimit:10;stroke-dasharray:none;stroke-opacity:1"
         id="path36"
         inkscape:connector-curvature="0" /><path
         d="m 3246.97,978.004 0,-161.996"
         style="fill:none;stroke:#000000;stroke-width:2.69997001;stroke-linecap:butt;stroke-linejoin:miter;stroke-miterlimit:10;stroke-dasharray:5.39995, 17.9998;stroke-dashoffset:17.99979973;stroke-opacity:1"
         id="path38"
         inkscape:connector-curvature="0" /><path
         d="m 2193.98,546.008 485.99,0 243,431.996 324,0"
         style="fill:none;stroke:#000000;stroke-width:2.69997001;stroke-linecap:butt;stroke-linejoin:miter;stroke-miterlimit:10;stroke-dasharray:none;stroke-opacity:1"
         id="path40"
         inkscape:connector-curvature="0" /><path
         d="m 1356.98,546.008 324,0"
         style="fill:none;stroke:#000000;stroke-width:2.69997001;stroke-linecap:butt;stroke-linejoin:miter;stroke-miterlimit:10;stroke-dasharray:none;stroke-opacity:1"
         id="path42"
         inkscape:connector-curvature="0" /><path
         d="m 1680.98,546.008 0,162"
         style="fill:none;stroke:#000000;stroke-width:2.69997001;stroke-linecap:butt;stroke-linejoin:miter;stroke-miterlimit:10;stroke-dasharray:5.39995, 17.9998;stroke-dashoffset:17.99979973;stroke-opacity:1"
         id="path44"
         inkscape:connector-curvature="0" /><path
         d="M 61,978.004 627.992,546.008"
         style="fill:none;stroke:#000000;stroke-width:2.69997001;stroke-linecap:butt;stroke-linejoin:miter;stroke-miterlimit:10;stroke-dasharray:5.39995, 17.9998;stroke-dashoffset:17.99979973;stroke-opacity:1"
         id="path46"
         inkscape:connector-curvature="0" /><path
         d="m 1113.99,546.008 674.99,0"
         style="fill:none;stroke:#000000;stroke-width:2.69997001;stroke-linecap:butt;stroke-linejoin:miter;stroke-miterlimit:10;stroke-dasharray:5.39995, 17.9998;stroke-dashoffset:17.99979973;stroke-opacity:1"
         id="path48"
         inkscape:connector-curvature="0" /><path
         d="m 303.996,546.008 323.996,0"
         style="fill:none;stroke:#000000;stroke-width:2.69997001;stroke-linecap:butt;stroke-linejoin:miter;stroke-miterlimit:10;stroke-dasharray:none;stroke-opacity:1"
         id="path50"
         inkscape:connector-curvature="0" /><path
         d="M 2922.97,978.004 2760.97,1275"
         style="fill:none;stroke:#000000;stroke-width:2.69997001;stroke-linecap:butt;stroke-linejoin:miter;stroke-miterlimit:10;stroke-dasharray:none;stroke-opacity:1"
         id="path52"
         inkscape:connector-curvature="0" /><g
         id="g54"><g
           id="g56"
           clip-path="url(#clipPath58)"><path
             d="m 4191.96,546.008 108,-296.996"
             style="fill:none;stroke:#000000;stroke-width:5.39995003;stroke-linecap:butt;stroke-linejoin:miter;stroke-miterlimit:10;stroke-dasharray:none;stroke-opacity:1"
             id="path62"
             inkscape:connector-curvature="0" /></g></g><path
         d="m 4276.92,275.293 -69.48,227.875 93.24,-219.238 -11.88,-4.317 -11.88,-4.32"
         style="fill:#000000;fill-opacity:1;fill-rule:evenodd;stroke:none"
         id="path64"
         inkscape:connector-curvature="0" /><path
         d="m 4276.92,275.293 -69.48,227.875 93.24,-219.238 -11.88,-4.317 -11.88,-4.32 z"
         style="fill:none;stroke:#000000;stroke-width:2.69997001;stroke-linecap:butt;stroke-linejoin:miter;stroke-miterlimit:10;stroke-dasharray:none;stroke-opacity:1"
         id="path66"
         inkscape:connector-curvature="0" /><path
         d="m 4272.96,249.012 -81,296.996 135,-296.996"
         style="fill:#000000;fill-opacity:1;fill-rule:evenodd;stroke:none"
         id="path68"
         inkscape:connector-curvature="0" /><path
         d="m 4272.96,249.012 -81,296.996 135,-296.996 -54,0 z"
         style="fill:none;stroke:#ffffff;stroke-width:2.69997001;stroke-linecap:butt;stroke-linejoin:miter;stroke-miterlimit:10;stroke-dasharray:none;stroke-opacity:1"
         id="path70"
         inkscape:connector-curvature="0" /><g
         id="g72"
         transform="scale(10,10)"><text
           transform="matrix(1,0,0,-1,397.596,11.4012)"
           style="font-variant:normal;font-weight:bold;font-size:16.19980049px;font-family:Helvetica;-inkscape-font-specification:Helvetica-Bold;writing-mode:lr-tb;fill:#000000;fill-opacity:1;fill-rule:nonzero;stroke:none"
           id="text74"><tspan
             x="0"
             y="0"
             id="tspan76">D</tspan></text>
<text
           transform="matrix(1,0,0,-1,303.889,73.5008)"
           style="font-style:oblique;font-variant:normal;font-size:12.9598999px;font-family:Helvetica;-inkscape-font-specification:Helvetica-Oblique;writing-mode:lr-tb;fill:#000000;fill-opacity:1;fill-rule:nonzero;stroke:none"
           id="text78"><tspan
             x="0"
             y="0"
             id="tspan80">d</tspan></text>
<text
           transform="matrix(1,0,0,-1,259.8972,103.2004)"
           style="font-variant:normal;font-weight:normal;font-size:12.9598999px;font-family:Symbol;-inkscape-font-specification:Symbol;writing-mode:lr-tb;fill:#000000;fill-opacity:1;fill-rule:nonzero;stroke:none"
           id="text82"><tspan
             x="0"
             y="0"
             id="tspan84">α</tspan></text>
<text
           transform="matrix(1,0,0,-1,147.2902,68.1008)"
           style="font-style:oblique;font-variant:normal;font-size:12.9598999px;font-family:Helvetica;-inkscape-font-specification:Helvetica-Oblique;writing-mode:lr-tb;fill:#000000;fill-opacity:1;fill-rule:nonzero;stroke:none"
           id="text86"><tspan
             x="0"
             y="0"
             id="tspan88">d</tspan></text>
<text
           transform="matrix(1,0,0,-1,138.39801,11.4012)"
           style="font-variant:normal;font-weight:bold;font-size:16.19980049px;font-family:Helvetica;-inkscape-font-specification:Helvetica-Bold;writing-mode:lr-tb;fill:#000000;fill-opacity:1;fill-rule:nonzero;stroke:none"
           id="text90"><tspan
             x="0"
             y="0"
             id="tspan92">B</tspan></text>
</g><path
         d="m 1356.98,654.008 324,0"
         style="fill:none;stroke:#000000;stroke-width:2.69997001;stroke-linecap:butt;stroke-linejoin:miter;stroke-miterlimit:10;stroke-dasharray:5.39995, 17.9998;stroke-dashoffset:17.99979973;stroke-opacity:1"
         id="path94"
         inkscape:connector-curvature="0" /><path
         d="m 2922.97,870.004 324,0"
         style="fill:none;stroke:#000000;stroke-width:2.69997001;stroke-linecap:butt;stroke-linejoin:miter;stroke-miterlimit:10;stroke-dasharray:5.39995, 17.9998;stroke-dashoffset:17.99979973;stroke-opacity:1"
         id="path96"
         inkscape:connector-curvature="0" /><g
         id="g98"
         transform="scale(10,10)"><text
           transform="matrix(1,0,0,-1,24.9996,11.4012)"
           style="font-variant:normal;font-weight:bold;font-size:16.19980049px;font-family:Helvetica;-inkscape-font-specification:Helvetica-Bold;writing-mode:lr-tb;fill:#000000;fill-opacity:1;fill-rule:nonzero;stroke:none"
           id="text100"><tspan
             x="0"
             y="0"
             id="tspan102">A</tspan></text>
</g><path
         d="m 2679.97,546.008 243,-431.996"
         style="fill:none;stroke:#000000;stroke-width:2.69997001;stroke-linecap:butt;stroke-linejoin:miter;stroke-miterlimit:10;stroke-dasharray:none;stroke-opacity:1"
         id="path104"
         inkscape:connector-curvature="0" /><path
         d="m 2922.97,978.004 0,-161.996"
         style="fill:none;stroke:#000000;stroke-width:2.69997001;stroke-linecap:butt;stroke-linejoin:miter;stroke-miterlimit:10;stroke-dasharray:5.39995, 17.9998;stroke-dashoffset:17.99979973;stroke-opacity:1"
         id="path106"
         inkscape:connector-curvature="0" /><g
         id="g108"
         transform="scale(10,10)"><text
           transform="matrix(1,0,0,-1,251.797,11.4012)"
           style="font-variant:normal;font-weight:bold;font-size:16.19980049px;font-family:Helvetica;-inkscape-font-specification:Helvetica-Bold;writing-mode:lr-tb;fill:#000000;fill-opacity:1;fill-rule:nonzero;stroke:none"
           id="text110"><tspan
             x="0"
             y="0"
             id="tspan112">C</tspan></text>
</g><path
         d="M 1113.99,978.004 1356.98,546.008 1113.99,114.012"
         style="fill:none;stroke:#000000;stroke-width:2.69997001;stroke-linecap:butt;stroke-linejoin:miter;stroke-miterlimit:10;stroke-dasharray:none;stroke-opacity:1"
         id="path114"
         inkscape:connector-curvature="0" /><g
         id="g116"><g
           id="g118"
           clip-path="url(#clipPath120)"><g
             id="g124"
             transform="scale(10,10)"><text
               transform="matrix(0.5,0,0,-1,130.299,42.8008)"
               style="font-variant:normal;font-weight:normal;font-size:8.60000038px;font-family:Arial;-inkscape-font-specification:Arial;writing-mode:lr-tb;fill:#000000;fill-opacity:1;fill-rule:nonzero;stroke:none"
               id="text126"><tspan
                 x="0 8.6000004 17.200001"
                 y="0"
                 sodipodi:role="line"
                 id="tspan128">000</tspan><tspan
                 x="0 8.6000004 17.200001"
                 y="-8.6000004"
                 sodipodi:role="line"
                 id="tspan130">000</tspan><tspan
                 x="0 8.6000004 17.200001"
                 y="0"
                 sodipodi:role="line"
                 id="tspan132">111</tspan><tspan
                 x="0 8.6000004 17.200001"
                 y="-8.6000004"
                 sodipodi:role="line"
                 id="tspan134">111</tspan></text>
</g></g></g><path
         d="m 1410.98,546.008 c 0,-29.82 -24.18,-54 -54,-54 -29.82,0 -53.99,24.18 -53.99,54 0,29.82 24.17,54 53.99,54 29.82,0 54,-24.18 54,-54 z"
         style="fill:none;stroke:#000000;stroke-width:2.69997001;stroke-linecap:butt;stroke-linejoin:miter;stroke-miterlimit:10;stroke-dasharray:none;stroke-opacity:1"
         id="path136"
         inkscape:connector-curvature="0" /><path
         d="m 1707.98,546.008 c 0,-14.91 -12.09,-27 -27,-27 -14.91,0 -27,12.09 -27,27 0,14.91 12.09,27 27,27 14.91,0 27,-12.09 27,-27"
         style="fill:#808080;fill-opacity:1;fill-rule:evenodd;stroke:none"
         id="path138"
         inkscape:connector-curvature="0" /><g
         id="g140"><g
           id="g142"
           clip-path="url(#clipPath144)"><g
             id="g148"
             transform="scale(10,10)"><text
               transform="matrix(0.5,0,0,-1,258.297,42.8008)"
               style="font-variant:normal;font-weight:normal;font-size:8.60000038px;font-family:Arial;-inkscape-font-specification:Arial;writing-mode:lr-tb;fill:#000000;fill-opacity:1;fill-rule:nonzero;stroke:none"
               id="text150"><tspan
                 x="0 8.6000004 17.200001 25.799999"
                 y="0"
                 sodipodi:role="line"
                 id="tspan152">0000</tspan><tspan
                 x="0 8.6000004 17.200001 25.799999"
                 y="-8.6000004"
                 sodipodi:role="line"
                 id="tspan154">0000</tspan><tspan
                 x="0 8.6000004 17.200001 25.799999"
                 y="0"
                 sodipodi:role="line"
                 id="tspan156">1111</tspan><tspan
                 x="0 8.6000004 17.200001 25.799999"
                 y="-8.6000004"
                 sodipodi:role="line"
                 id="tspan158">1111</tspan></text>
</g></g></g><path
         d="m 2733.97,546.008 c 0,-29.82 -24.18,-54 -54,-54 -29.82,0 -54,24.18 -54,54 0,29.82 24.18,54 54,54 29.82,0 54,-24.18 54,-54 z"
         style="fill:none;stroke:#000000;stroke-width:2.69997001;stroke-linecap:butt;stroke-linejoin:miter;stroke-miterlimit:10;stroke-dasharray:none;stroke-opacity:1"
         id="path160"
         inkscape:connector-curvature="0" /><g
         id="g162"><g
           id="g164"
           clip-path="url(#clipPath166)"><g
             id="g170"
             transform="scale(10,10)"><text
               transform="matrix(0.5,0,0,-1,209.698,42.8008)"
               style="font-variant:normal;font-weight:normal;font-size:8.60000038px;font-family:Arial;-inkscape-font-specification:Arial;writing-mode:lr-tb;fill:#000000;fill-opacity:1;fill-rule:nonzero;stroke:none"
               id="text172"><tspan
                 x="0 8.6000004 17.200001 25.799999"
                 y="0"
                 sodipodi:role="line"
                 id="tspan174">0000</tspan><tspan
                 x="0 8.6000004 17.200001 25.799999"
                 y="-8.6000004"
                 sodipodi:role="line"
                 id="tspan176">0000</tspan><tspan
                 x="0 8.6000004 17.200001 25.799999"
                 y="0"
                 sodipodi:role="line"
                 id="tspan178">1111</tspan><tspan
                 x="0 8.6000004 17.200001 25.799999"
                 y="-8.6000004"
                 sodipodi:role="line"
                 id="tspan180">1111</tspan></text>
</g></g></g><path
         d="m 2247.98,546.008 c 0,-29.82 -24.18,-54 -54,-54 -29.82,0 -54,24.18 -54,54 0,29.82 24.18,54 54,54 29.82,0 54,-24.18 54,-54 z"
         style="fill:none;stroke:#000000;stroke-width:2.69997001;stroke-linecap:butt;stroke-linejoin:miter;stroke-miterlimit:10;stroke-dasharray:none;stroke-opacity:1"
         id="path182"
         inkscape:connector-curvature="0" /><g
         id="g184"><g
           id="g186"
           clip-path="url(#clipPath188)"><g
             id="g192"
             transform="scale(10,10)"><text
               transform="matrix(0.5,0,0,-1,101.699,-0.398828)"
               style="font-variant:normal;font-weight:normal;font-size:8.60000038px;font-family:Arial;-inkscape-font-specification:Arial;writing-mode:lr-tb;fill:#000000;fill-opacity:1;fill-rule:nonzero;stroke:none"
               id="text194"><tspan
                 x="0 8.6000004 17.200001 25.799999"
                 y="0"
                 sodipodi:role="line"
                 id="tspan196">0000</tspan><tspan
                 x="0 8.6000004 17.200001 25.799999"
                 y="-8.6000004"
                 sodipodi:role="line"
                 id="tspan198">0000</tspan><tspan
                 x="0 8.6000004 17.200001 25.799999"
                 y="0"
                 sodipodi:role="line"
                 id="tspan200">1111</tspan><tspan
                 x="0 8.6000004 17.200001 25.799999"
                 y="-8.6000004"
                 sodipodi:role="line"
                 id="tspan202">1111</tspan></text>
</g></g></g><path
         d="m 1167.99,114.012 c 0,-29.8206 -24.18,-54.0003 -54,-54.0003 -29.82,0 -54,24.1797 -54,54.0003 0,29.82 24.18,54 54,54 29.82,0 54,-24.18 54,-54 z"
         style="fill:none;stroke:#000000;stroke-width:2.69997001;stroke-linecap:butt;stroke-linejoin:miter;stroke-miterlimit:10;stroke-dasharray:none;stroke-opacity:1"
         id="path204"
         inkscape:connector-curvature="0" /><path
         d="m 3165.96,977.805 c 0,0.281 0.01,0.57 0.01,0.847 0,133.848 -108.51,242.348 -242.35,242.348 -133.85,0 -242.35,-108.5 -242.35,-242.348 0,-91.742 51.8,-175.621 133.84,-216.699"
         style="fill:none;stroke:#000000;stroke-width:2.69997001;stroke-linecap:butt;stroke-linejoin:miter;stroke-miterlimit:10;stroke-dasharray:5.39995, 17.9998;stroke-dashoffset:17.99979973;stroke-opacity:1"
         id="path206"
         inkscape:connector-curvature="0" /><g
         id="g208"><g
           id="g210"
           clip-path="url(#clipPath212)"><g
             id="g216"
             transform="scale(10,10)"><text
               transform="matrix(0.5,0,0,-1,20.6996,42.8008)"
               style="font-variant:normal;font-weight:normal;font-size:8.60000038px;font-family:Arial;-inkscape-font-specification:Arial;writing-mode:lr-tb;fill:#000000;fill-opacity:1;fill-rule:nonzero;stroke:none"
               id="text218"><tspan
                 x="0 8.6000004 17.200001 25.799999"
                 y="0"
                 sodipodi:role="line"
                 id="tspan220">0000</tspan><tspan
                 x="0 8.6000004 17.200001 25.799999"
                 y="-8.6000004"
                 sodipodi:role="line"
                 id="tspan222">0000</tspan><tspan
                 x="0 8.6000004 17.200001 25.799999"
                 y="0"
                 sodipodi:role="line"
                 id="tspan224">1111</tspan><tspan
                 x="0 8.6000004 17.200001 25.799999"
                 y="-8.6000004"
                 sodipodi:role="line"
                 id="tspan226">1111</tspan></text>
</g></g></g><path
         d="m 357.996,546.008 c 0,-29.82 -24.18,-54 -54,-54 -29.82,0 -54,24.18 -54,54 0,29.82 24.18,54 54,54 29.82,0 54,-24.18 54,-54 z"
         style="fill:none;stroke:#000000;stroke-width:2.69997001;stroke-linecap:butt;stroke-linejoin:miter;stroke-miterlimit:10;stroke-dasharray:none;stroke-opacity:1"
         id="path228"
         inkscape:connector-curvature="0" /><g
         id="g230"><g
           id="g232"
           clip-path="url(#clipPath234)"><g
             id="g238"
             transform="scale(10,10)"><text
               transform="matrix(0.5,0,0,-1,0.7,86.0004)"
               style="font-variant:normal;font-weight:normal;font-size:8.60000038px;font-family:Arial;-inkscape-font-specification:Arial;writing-mode:lr-tb;fill:#000000;fill-opacity:1;fill-rule:nonzero;stroke:none"
               id="text240"><tspan
                 x="0 8.6000004 17.200001"
                 y="0"
                 sodipodi:role="line"
                 id="tspan242">000</tspan><tspan
                 x="0 8.6000004 17.200001"
                 y="-8.6000004"
                 sodipodi:role="line"
                 id="tspan244">000</tspan><tspan
                 x="0 8.6000004 17.200001"
                 y="-17.200001"
                 sodipodi:role="line"
                 id="tspan246">000</tspan><tspan
                 x="0 8.6000004 17.200001"
                 y="0"
                 sodipodi:role="line"
                 id="tspan248">111</tspan><tspan
                 x="0 8.6000004 17.200001"
                 y="-8.6000004"
                 sodipodi:role="line"
                 id="tspan250">111</tspan><tspan
                 x="0 8.6000004 17.200001"
                 y="-17.200001"
                 sodipodi:role="line"
                 id="tspan252">111</tspan></text>
</g></g></g><path
         d="m 115,978.004 c 0,-29.82 -24.1797,-54 -54,-54 -29.8203,0 -54,24.18 -54,54 0,29.816 24.1797,53.996 54,53.996 29.8203,0 54,-24.18 54,-53.996 z"
         style="fill:none;stroke:#000000;stroke-width:2.69997001;stroke-linecap:butt;stroke-linejoin:miter;stroke-miterlimit:10;stroke-dasharray:none;stroke-opacity:1"
         id="path254"
         inkscape:connector-curvature="0" /><g
         id="g256"><g
           id="g258"
           clip-path="url(#clipPath260)"><g
             id="g264"
             transform="scale(10,10)"><text
               transform="matrix(0.5,0,0,-1,55.7992,48.7008)"
               style="font-variant:normal;font-weight:normal;font-size:8.60000038px;font-family:Arial;-inkscape-font-specification:Arial;writing-mode:lr-tb;fill:#000000;fill-opacity:1;fill-rule:nonzero;stroke:none"
               id="text266"><tspan
                 x="0 8.6000004 17.200001 0 8.6000004 17.200001"
                 y="0"
                 sodipodi:role="line"
                 id="tspan268">000111</tspan></text>
</g></g></g><path
         d="m 654.992,546.008 c 0,-14.91 -12.09,-27 -27,-27 -14.91,0 -27,12.09 -27,27 0,14.91 12.09,27 27,27 14.91,0 27,-12.09 27,-27 z"
         style="fill:none;stroke:#000000;stroke-width:2.69997001;stroke-linecap:butt;stroke-linejoin:miter;stroke-miterlimit:10;stroke-dasharray:none;stroke-opacity:1"
         id="path270"
         inkscape:connector-curvature="0" /><path
         d="m 1167.99,978.004 c 0,-29.82 -24.18,-54 -54,-54 -29.82,0 -54,24.18 -54,54 0,29.816 24.18,53.996 54,53.996 29.82,0 54,-24.18 54,-53.996"
         style="fill:#000000;fill-opacity:1;fill-rule:evenodd;stroke:none"
         id="path272"
         inkscape:connector-curvature="0" /><path
         d="m 1167.99,978.004 c 0,-29.82 -24.18,-54 -54,-54 -29.82,0 -54,24.18 -54,54 0,29.816 24.18,53.996 54,53.996 29.82,0 54,-24.18 54,-53.996 z"
         style="fill:none;stroke:#000000;stroke-width:2.69997001;stroke-linecap:butt;stroke-linejoin:miter;stroke-miterlimit:10;stroke-dasharray:none;stroke-opacity:1"
         id="path274"
         inkscape:connector-curvature="0" /><g
         id="g276"><g
           id="g278"
           clip-path="url(#clipPath280)"><g
             id="g284"
             transform="scale(10,10)"><text
               transform="matrix(0.5,0,0,-1,286.897,86.0004)"
               style="font-variant:normal;font-weight:normal;font-size:8.60000038px;font-family:Arial;-inkscape-font-specification:Arial;writing-mode:lr-tb;fill:#000000;fill-opacity:1;fill-rule:nonzero;stroke:none"
               id="text286"><tspan
                 x="0 8.6000004 17.200001"
                 y="0"
                 sodipodi:role="line"
                 id="tspan288">000</tspan><tspan
                 x="0 8.6000004 17.200001"
                 y="-8.6000004"
                 sodipodi:role="line"
                 id="tspan290">000</tspan><tspan
                 x="0 8.6000004 17.200001"
                 y="-17.200001"
                 sodipodi:role="line"
                 id="tspan292">000</tspan><tspan
                 x="0 8.6000004 17.200001"
                 y="0"
                 sodipodi:role="line"
                 id="tspan294">111</tspan><tspan
                 x="0 8.6000004 17.200001"
                 y="-8.6000004"
                 sodipodi:role="line"
                 id="tspan296">111</tspan><tspan
                 x="0 8.6000004 17.200001"
                 y="-17.200001"
                 sodipodi:role="line"
                 id="tspan298">111</tspan></text>
</g></g></g><path
         d="m 2976.97,978.004 c 0,-29.82 -24.18,-54 -54,-54 -29.82,0 -54,24.18 -54,54 0,29.816 24.18,53.996 54,53.996 29.82,0 54,-24.18 54,-53.996 z"
         style="fill:none;stroke:#000000;stroke-width:2.69997001;stroke-linecap:butt;stroke-linejoin:miter;stroke-miterlimit:10;stroke-dasharray:none;stroke-opacity:1"
         id="path300"
         inkscape:connector-curvature="0" /><path
         d="m 4375.55,303.012 c 0,-11.926 -9.67,-21.602 -21.59,-21.602 -11.93,0 -21.6,9.676 -21.6,21.602 0,11.926 9.67,21.597 21.6,21.597 11.92,0 21.59,-9.671 21.59,-21.597"
         style="fill:#808080;fill-opacity:1;fill-rule:evenodd;stroke:none"
         id="path302"
         inkscape:connector-curvature="0" /><path
         d="m 1140.99,546.008 c 0,-14.91 -12.09,-27 -27,-27 -14.91,0 -27,12.09 -27,27 0,14.91 12.09,27 27,27 14.91,0 27,-12.09 27,-27 z"
         style="fill:none;stroke:#000000;stroke-width:2.69997001;stroke-linecap:round;stroke-linejoin:miter;stroke-miterlimit:10;stroke-dasharray:5.39995, 24.0118;stroke-dashoffset:24.01180077;stroke-opacity:1"
         id="path304"
         inkscape:connector-curvature="0" /><path
         d="M 61,978.004 303.996,546.008"
         style="fill:none;stroke:#000000;stroke-width:2.69997001;stroke-linecap:butt;stroke-linejoin:miter;stroke-miterlimit:10;stroke-dasharray:none;stroke-opacity:1"
         id="path306"
         inkscape:connector-curvature="0" /><path
         d="m 1113.99,1086 0,-1079.98437"
         style="fill:none;stroke:#000000;stroke-width:2.69997001;stroke-linecap:butt;stroke-linejoin:miter;stroke-miterlimit:10;stroke-dasharray:5.39995, 17.9998;stroke-dashoffset:17.99979973;stroke-opacity:1"
         id="path308"
         inkscape:connector-curvature="0" /><path
         d="m 1356.98,546.008 0,162"
         style="fill:none;stroke:#000000;stroke-width:2.69997001;stroke-linecap:butt;stroke-linejoin:miter;stroke-miterlimit:10;stroke-dasharray:5.39995, 17.9998;stroke-dashoffset:17.99979973;stroke-opacity:1"
         id="path310"
         inkscape:connector-curvature="0" /><path
         d="m 4332.36,249.012 c 0,-17.891 -14.51,-32.399 -32.4,-32.399 -17.89,0 -32.4,14.508 -32.4,32.399 0,17.89 14.51,32.398 32.4,32.398 17.89,0 32.4,-14.508 32.4,-32.398"
         style="fill:#808080;fill-opacity:1;fill-rule:evenodd;stroke:none"
         id="path312"
         inkscape:connector-curvature="0" /><path
         d="m 3273.97,978.004 c 0,-14.91 -12.09,-27 -27,-27 -14.91,0 -27,12.09 -27,27 0,14.91 12.09,26.996 27,26.996 14.91,0 27,-12.086 27,-26.996"
         style="fill:#808080;fill-opacity:1;fill-rule:evenodd;stroke:none"
         id="path314"
         inkscape:connector-curvature="0" /><path
         d="m 2787.97,1275 c 0,-14.91 -12.09,-27 -27,-27 -14.91,0 -27,12.09 -27,27 0,14.91 12.09,27 27,27 14.91,0 27,-12.09 27,-27"
         style="fill:#808080;fill-opacity:1;fill-rule:evenodd;stroke:none"
         id="path316"
         inkscape:connector-curvature="0" /><g
         id="g318"><g
           id="g320"
           clip-path="url(#clipPath322)"><g
             id="g326"
             transform="scale(10,10)"><text
               transform="matrix(0.5,0,0,-1,412.196,56.3008)"
               style="font-variant:normal;font-weight:normal;font-size:8.60000038px;font-family:Arial;-inkscape-font-specification:Arial;writing-mode:lr-tb;fill:#000000;fill-opacity:1;fill-rule:nonzero;stroke:none"
               id="text328"><tspan
                 x="0 8.6000004 17.200001 25.799999"
                 y="0"
                 sodipodi:role="line"
                 id="tspan330">0000</tspan><tspan
                 x="0 8.6000004 17.200001 25.799999"
                 y="-8.6000004"
                 sodipodi:role="line"
                 id="tspan332">0000</tspan><tspan
                 x="0 8.6000004 17.200001 25.799999"
                 y="-17.200001"
                 sodipodi:role="line"
                 id="tspan334">0000</tspan><tspan
                 x="0 8.6000004 17.200001 25.799999"
                 y="0"
                 sodipodi:role="line"
                 id="tspan336">1111</tspan><tspan
                 x="0 8.6000004 17.200001 25.799999"
                 y="-8.6000004"
                 sodipodi:role="line"
                 id="tspan338">1111</tspan><tspan
                 x="0 8.6000004 17.200001 25.799999"
                 y="-17.200001"
                 sodipodi:role="line"
                 id="tspan340">1111</tspan></text>
</g></g></g><path
         d="m 4272.96,681.008 c 0,-29.82 -24.18,-54 -54,-54 -29.82,0 -54,24.18 -54,54 0,29.82 24.18,54 54,54 29.82,0 54,-24.18 54,-54 z"
         style="fill:none;stroke:#000000;stroke-width:2.69997001;stroke-linecap:butt;stroke-linejoin:miter;stroke-miterlimit:10;stroke-dasharray:none;stroke-opacity:1"
         id="path342"
         inkscape:connector-curvature="0" /><path
         d="m 3759.96,546.008 c 0,-29.82 -24.18,-54 -54,-54 -29.82,0 -54,24.18 -54,54 0,29.82 24.18,54 54,54 29.82,0 54,-24.18 54,-54"
         style="fill:#000000;fill-opacity:1;fill-rule:evenodd;stroke:none"
         id="path344"
         inkscape:connector-curvature="0" /><path
         d="m 3759.96,546.008 c 0,-29.82 -24.18,-54 -54,-54 -29.82,0 -54,24.18 -54,54 0,29.82 24.18,54 54,54 29.82,0 54,-24.18 54,-54 z"
         style="fill:none;stroke:#000000;stroke-width:2.69997001;stroke-linecap:butt;stroke-linejoin:miter;stroke-miterlimit:10;stroke-dasharray:none;stroke-opacity:1"
         id="path346"
         inkscape:connector-curvature="0" /><path
         d="m 4353.96,843.004 c 0,-14.91 -12.09,-26.996 -27,-26.996 -14.91,0 -27,12.086 -27,26.996 0,14.91 12.09,27 27,27 14.91,0 27,-12.09 27,-27"
         style="fill:#808080;fill-opacity:1;fill-rule:evenodd;stroke:none"
         id="path348"
         inkscape:connector-curvature="0" /></g></g></svg>