<?xml version="1.0" encoding="UTF-8" standalone="no"?>
<!-- Created with Inkscape (http://www.inkscape.org/) -->

<svg
   xmlns:dc="http://purl.org/dc/elements/1.1/"
   xmlns:cc="http://creativecommons.org/ns#"
   xmlns:rdf="http://www.w3.org/1999/02/22-rdf-syntax-ns#"
   xmlns:svg="http://www.w3.org/2000/svg"
   xmlns="http://www.w3.org/2000/svg"
   xmlns:sodipodi="http://sodipodi.sourceforge.net/DTD/sodipodi-0.dtd"
   xmlns:inkscape="http://www.inkscape.org/namespaces/inkscape"
   id="svg2"
   version="1.1"
   inkscape:version="0.91 r13725"
   xml:space="preserve"
   width="266.25"
   height="177.5"
   viewBox="0 0 266.25 177.5"
   sodipodi:docname="pulldirrel.svg"><metadata
     id="metadata8"><rdf:RDF><cc:Work
         rdf:about=""><dc:format>image/svg+xml</dc:format><dc:type
           rdf:resource="http://purl.org/dc/dcmitype/StillImage" /><dc:title></dc:title></cc:Work></rdf:RDF></metadata><defs
     id="defs6"><clipPath
       clipPathUnits="userSpaceOnUse"
       id="clipPath30"><path
         d="M 0,1420 0,0 l 2130,0 0,1420 -2130,0 z m 1242.95,-461.598 36.53,73.068 -34.02,17.01 -36.53,-73.699 0,0 42.84,42.199 -8.82,-58.578 z M 933.664,424.879 897.133,351.18 l 34.012,-16.379 36.535,73.699 0,0 -42.203,-42.832 8.187,59.211 z"
         id="path32"
         inkscape:connector-curvature="0"
         style="clip-rule:evenodd" /></clipPath><clipPath
       clipPathUnits="userSpaceOnUse"
       id="clipPath66"><path
         d="M 0,1420 0,0 l 2130,0 0,1420 -2130,0 z m 1785.29,-1190.391 116.53,-57.949 34.02,67.399 -117.16,58.578 0,0 78.73,-81.887 -112.12,13.859 z"
         id="path68"
         inkscape:connector-curvature="0"
         style="clip-rule:evenodd" /></clipPath><clipPath
       clipPathUnits="userSpaceOnUse"
       id="clipPath80"><path
         d="M 0,1420 0,0 l 2130,0 0,1420 -2130,0 z m 956.34,-338.77 0,129.76 -75.586,0 0,-129.76 0,0 37.793,105.83 37.793,-105.83 z"
         id="path82"
         inkscape:connector-curvature="0"
         style="clip-rule:evenodd" /></clipPath><clipPath
       clipPathUnits="userSpaceOnUse"
       id="clipPath94"><path
         d="M 0,1420 0,0 l 2130,0 0,1420 -2130,0 z m 80.1523,-555.453 -41.5742,-83.774 50.3907,-25.199 41.5742,83.778 0,0 -56.6914,-51.02 6.3007,76.215 z"
         id="path96"
         inkscape:connector-curvature="0"
         style="clip-rule:evenodd" /></clipPath><clipPath
       clipPathUnits="userSpaceOnUse"
       id="clipPath108"><path
         d="M 0,1420 0,0 l 2130,0 0,1420 -2130,0 z m 439.195,-797.332 -83.777,41.574 -25.195,-50.394 83.773,-41.575 0,0 -50.391,56.692 75.59,-6.297 z"
         id="path110"
         inkscape:connector-curvature="0"
         style="clip-rule:evenodd" /></clipPath><clipPath
       clipPathUnits="userSpaceOnUse"
       id="clipPath122"><path
         d="M 0,1420 0,0 l 2130,0 0,1420 -2130,0 z m 1397.27,-489.312 83.78,-41.575 25.2,50.395 -83.78,41.57 0,0 51.02,-57.32 -76.22,6.93 z"
         id="path124"
         inkscape:connector-curvature="0"
         style="clip-rule:evenodd" /></clipPath><clipPath
       clipPathUnits="userSpaceOnUse"
       id="clipPath136"><path
         d="M 0,1420 0,0 l 2130,0 0,1420 -2130,0 z m 2039.77,-1014.648 41.57,83.777 -50.39,25.195 -41.57,-83.777 0,0 57.32,50.391 -6.93,-75.586 z"
         id="path138"
         inkscape:connector-curvature="0"
         style="clip-rule:evenodd" /></clipPath></defs><sodipodi:namedview
     pagecolor="#ffffff"
     bordercolor="#666666"
     borderopacity="1"
     objecttolerance="10"
     gridtolerance="10"
     guidetolerance="10"
     inkscape:pageopacity="0"
     inkscape:pageshadow="2"
     inkscape:window-width="760"
     inkscape:window-height="480"
     id="namedview4"
     showgrid="false"
     inkscape:zoom="1.3295775"
     inkscape:cx="133.125"
     inkscape:cy="88.75"
     inkscape:window-x="0"
     inkscape:window-y="25"
     inkscape:window-maximized="0"
     inkscape:current-layer="g10" /><g
     id="g10"
     inkscape:groupmode="layer"
     inkscape:label="ink_ext_XXXXXX"
     transform="matrix(1.25,0,0,-1.25,0,177.5)"><g
       id="g12"
       transform="scale(0.1,0.1)"><path
         d="m 918.547,551.488 c 110.623,0 200.313,-89.683 200.313,-200.308 0,-110.625 -89.69,-200.309 -200.313,-200.309 -110.625,0 -200.309,89.684 -200.309,200.309 0,110.625 89.684,200.308 200.309,200.308 z"
         style="fill:none;stroke:#000000;stroke-width:9.44849968;stroke-linecap:butt;stroke-linejoin:miter;stroke-miterlimit:10;stroke-dasharray:none;stroke-opacity:1"
         id="path14"
         inkscape:connector-curvature="0" /><path
         d="m 1910.64,409.762 c 110.63,0 200.31,-89.684 200.31,-200.309 0,-110.6249 -89.68,-200.30847 -200.31,-200.30847 -110.62,0 -200.31,89.68357 -200.31,200.30847 0,110.625 89.69,200.309 200.31,200.309 z"
         style="fill:none;stroke:#000000;stroke-width:9.44849968;stroke-linecap:butt;stroke-linejoin:miter;stroke-miterlimit:10;stroke-dasharray:none;stroke-opacity:1"
         id="path16"
         inkscape:connector-curvature="0" /><path
         d="m 209.91,1260.13 c 110.625,0 200.309,-89.69 200.309,-200.31 0,-110.629 -89.684,-200.312 -200.309,-200.312 -110.6248,0 -200.30844,89.683 -200.30844,200.312 0,110.62 89.68364,200.31 200.30844,200.31 z"
         style="fill:none;stroke:#000000;stroke-width:9.44849968;stroke-linecap:butt;stroke-linejoin:miter;stroke-miterlimit:10;stroke-dasharray:none;stroke-opacity:1"
         id="path18"
         inkscape:connector-curvature="0" /><path
         d="m 918.547,1401.85 c 110.623,0 200.313,-89.68 200.313,-200.3 0,-110.63 -89.69,-200.31 -200.313,-200.31 -110.625,0 -200.309,89.68 -200.309,200.31 0,110.62 89.684,200.3 200.309,200.3 z"
         style="fill:none;stroke:#000000;stroke-width:9.44849968;stroke-linecap:butt;stroke-linejoin:miter;stroke-miterlimit:10;stroke-dasharray:none;stroke-opacity:1"
         id="path20"
         inkscape:connector-curvature="0" /><path
         d="m 153.219,946.434 113.383,-56.688 56.691,113.384"
         style="fill:none;stroke:#000000;stroke-width:9.44849968;stroke-linecap:butt;stroke-linejoin:miter;stroke-miterlimit:10;stroke-dasharray:none;stroke-opacity:1"
         id="path22"
         inkscape:connector-curvature="0" /><path
         d="m 1967.33,322.836 -113.38,56.691 -56.69,-113.382"
         style="fill:none;stroke:#000000;stroke-width:9.44849968;stroke-linecap:butt;stroke-linejoin:miter;stroke-miterlimit:10;stroke-dasharray:none;stroke-opacity:1"
         id="path24"
         inkscape:connector-curvature="0" /><g
         id="g26"><g
           id="g28"
           clip-path="url(#clipPath30)"><path
             d="M 918.547,351.18 1258.7,1031.47"
             style="fill:none;stroke:#000000;stroke-width:9.44849968;stroke-linecap:butt;stroke-linejoin:miter;stroke-miterlimit:10;stroke-dasharray:56.691;stroke-dashoffset:0;stroke-opacity:1"
             id="path34"
             inkscape:connector-curvature="0" /></g></g><path
         d="M 933.664,424.879 925.477,365.668 967.68,408.5"
         style="fill:none;stroke:#000000;stroke-width:9.44849968;stroke-linecap:butt;stroke-linejoin:miter;stroke-miterlimit:10;stroke-dasharray:none;stroke-opacity:1"
         id="path36"
         inkscape:connector-curvature="0" /><path
         d="m 1242.95,958.402 8.82,58.578 -42.84,-42.199"
         style="fill:none;stroke:#000000;stroke-width:9.44849968;stroke-linecap:butt;stroke-linejoin:miter;stroke-miterlimit:10;stroke-dasharray:none;stroke-opacity:1"
         id="path38"
         inkscape:connector-curvature="0" /><path
         d="M 1116.96,748.016 1003.59,804.707 946.895,691.324"
         style="fill:none;stroke:#000000;stroke-width:9.44849968;stroke-linecap:butt;stroke-linejoin:miter;stroke-miterlimit:10;stroke-dasharray:none;stroke-opacity:1"
         id="path40"
         inkscape:connector-curvature="0" /><g
         id="g42"
         transform="scale(10,10)"><text
           transform="matrix(1,0,0,-1,15.9871,108.816)"
           style="font-variant:normal;font-weight:normal;font-size:17.99939919px;font-family:Helvetica;-inkscape-font-specification:Helvetica;writing-mode:lr-tb;fill:#000000;fill-opacity:1;fill-rule:nonzero;stroke:none"
           id="text44"><tspan
             x="0"
             y="0"
             id="tspan46">3</tspan><tspan
             x="170.073"
             y="104.879"
             id="tspan48">4</tspan><tspan
             x="102.0441"
             y="34.015301"
             id="tspan50">d</tspan></text>
<text
           transform="matrix(1,0,0,-1,127.64643,69.13156)"
           style="font-variant:normal;font-weight:normal;font-size:13.99950027px;font-family:Helvetica;-inkscape-font-specification:Helvetica;writing-mode:lr-tb;fill:#000000;fill-opacity:1;fill-rule:nonzero;stroke:none"
           id="text52"><tspan
             x="0"
             y="0"
             id="tspan54">p</tspan></text>
<text
           transform="matrix(1,0,0,-1,86.85113,122.98816)"
           style="font-variant:normal;font-weight:normal;font-size:17.99939919px;font-family:Helvetica;-inkscape-font-specification:Helvetica;writing-mode:lr-tb;fill:#000000;fill-opacity:1;fill-rule:nonzero;stroke:none"
           id="text56"><tspan
             x="0"
             y="0"
             id="tspan58">2</tspan><tspan
             x="0"
             y="104.879"
             id="tspan60">1</tspan></text>
</g><g
         id="g62"><g
           id="g64"
           clip-path="url(#clipPath66)"><path
             d="M 209.91,1059.82 1910.64,209.453"
             style="fill:none;stroke:#000000;stroke-width:9.44849968;stroke-linecap:butt;stroke-linejoin:miter;stroke-miterlimit:10;stroke-dasharray:56.691;stroke-dashoffset:0;stroke-opacity:1"
             id="path70"
             inkscape:connector-curvature="0" /></g></g><path
         d="m 1785.29,229.609 112.12,-13.859 -78.73,81.887 2.52,-43.461 -35.91,-24.567"
         style="fill:#000000;fill-opacity:1;fill-rule:evenodd;stroke:none"
         id="path72"
         inkscape:connector-curvature="0" /><path
         d="m 1785.29,229.609 112.12,-13.859 -78.73,81.887 2.52,-43.461 -35.91,-24.567 z"
         style="fill:none;stroke:#000000;stroke-width:9.44849968;stroke-linecap:butt;stroke-linejoin:miter;stroke-miterlimit:10;stroke-dasharray:none;stroke-opacity:1"
         id="path74"
         inkscape:connector-curvature="0" /><g
         id="g76"><g
           id="g78"
           clip-path="url(#clipPath80)"><path
             d="m 918.547,1201.55 0,-850.37"
             style="fill:none;stroke:#000000;stroke-width:9.44849968;stroke-linecap:butt;stroke-linejoin:miter;stroke-miterlimit:10;stroke-dasharray:56.691;stroke-dashoffset:0;stroke-opacity:1"
             id="path84"
             inkscape:connector-curvature="0" /></g></g><path
         d="m 956.34,1081.23 -37.793,105.83 -37.793,-105.83 37.793,20.79 37.793,-20.79"
         style="fill:#000000;fill-opacity:1;fill-rule:evenodd;stroke:none"
         id="path86"
         inkscape:connector-curvature="0" /><path
         d="m 956.34,1081.23 -37.793,105.83 -37.793,-105.83 37.793,20.79 37.793,-20.79 z"
         style="fill:none;stroke:#000000;stroke-width:9.44849968;stroke-linecap:butt;stroke-linejoin:miter;stroke-miterlimit:10;stroke-dasharray:none;stroke-opacity:1"
         id="path88"
         inkscape:connector-curvature="0" /><g
         id="g90"><g
           id="g92"
           clip-path="url(#clipPath94)"><path
             d="M 209.91,1059.82 68.1836,776.363"
             style="fill:none;stroke:#0000ff;stroke-width:9.44849968;stroke-linecap:butt;stroke-linejoin:miter;stroke-miterlimit:10;stroke-dasharray:none;stroke-opacity:1"
             id="path98"
             inkscape:connector-curvature="0" /></g></g><path
         d="m 80.1523,864.547 -6.3007,-76.215 56.6914,51.02 -31.4961,0 -18.8946,25.195"
         style="fill:#0000ff;fill-opacity:1;fill-rule:evenodd;stroke:none"
         id="path100"
         inkscape:connector-curvature="0" /><path
         d="m 80.1523,864.547 -6.3007,-76.215 56.6914,51.02 -31.4961,0 -18.8946,25.195 z"
         style="fill:none;stroke:#0000ff;stroke-width:9.44849968;stroke-linecap:butt;stroke-linejoin:miter;stroke-miterlimit:10;stroke-dasharray:none;stroke-opacity:1"
         id="path102"
         inkscape:connector-curvature="0" /><g
         id="g104"><g
           id="g106"
           clip-path="url(#clipPath108)"><path
             d="M 918.547,351.18 351.637,634.637"
             style="fill:none;stroke:#ff0000;stroke-width:9.44849968;stroke-linecap:butt;stroke-linejoin:miter;stroke-miterlimit:10;stroke-dasharray:none;stroke-opacity:1"
             id="path112"
             inkscape:connector-curvature="0" /></g></g><path
         d="m 439.195,622.668 -75.59,6.297 50.391,-56.692 0,31.497 25.199,18.898"
         style="fill:#ff0000;fill-opacity:1;fill-rule:evenodd;stroke:none"
         id="path114"
         inkscape:connector-curvature="0" /><path
         d="m 439.195,622.668 -75.59,6.297 50.391,-56.692 0,31.497 25.199,18.898 z"
         style="fill:none;stroke:#ff0000;stroke-width:9.44849968;stroke-linecap:butt;stroke-linejoin:miter;stroke-miterlimit:10;stroke-dasharray:none;stroke-opacity:1"
         id="path116"
         inkscape:connector-curvature="0" /><g
         id="g118"><g
           id="g120"
           clip-path="url(#clipPath122)"><path
             d="M 918.547,1201.55 1485.46,918.09"
             style="fill:none;stroke:#ff0000;stroke-width:9.44849968;stroke-linecap:butt;stroke-linejoin:miter;stroke-miterlimit:10;stroke-dasharray:none;stroke-opacity:1"
             id="path126"
             inkscape:connector-curvature="0" /></g></g><path
         d="m 1397.27,930.688 76.22,-6.93 -51.02,57.32 0,-31.492 -25.2,-18.898"
         style="fill:#ff0000;fill-opacity:1;fill-rule:evenodd;stroke:none"
         id="path128"
         inkscape:connector-curvature="0" /><path
         d="m 1397.27,930.688 76.22,-6.93 -51.02,57.32 0,-31.492 -25.2,-18.898 z"
         style="fill:none;stroke:#ff0000;stroke-width:9.44849968;stroke-linecap:butt;stroke-linejoin:miter;stroke-miterlimit:10;stroke-dasharray:none;stroke-opacity:1"
         id="path130"
         inkscape:connector-curvature="0" /><g
         id="g132"><g
           id="g134"
           clip-path="url(#clipPath136)"><path
             d="m 1910.64,209.453 141.73,283.453"
             style="fill:none;stroke:#0000ff;stroke-width:9.44849968;stroke-linecap:butt;stroke-linejoin:miter;stroke-miterlimit:10;stroke-dasharray:none;stroke-opacity:1"
             id="path140"
             inkscape:connector-curvature="0" /></g></g><path
         d="m 2039.77,405.352 6.93,75.586 -57.32,-50.391 31.49,0 18.9,-25.195"
         style="fill:#0000ff;fill-opacity:1;fill-rule:evenodd;stroke:none"
         id="path142"
         inkscape:connector-curvature="0" /><path
         d="m 2039.77,405.352 6.93,75.586 -57.32,-50.391 31.49,0 18.9,-25.195 z"
         style="fill:none;stroke:#0000ff;stroke-width:9.44849968;stroke-linecap:butt;stroke-linejoin:miter;stroke-miterlimit:10;stroke-dasharray:none;stroke-opacity:1"
         id="path144"
         inkscape:connector-curvature="0" /></g></g></svg>