/*
 * 
 *                This source code is part of
 * 
 *                 G   R   O   M   A   C   S
 * 
 *          GROningen MAchine for Chemical Simulations
 * 
 *                        VERSION 3.0
 * 
 * Copyright (c) 1991-2001
 * BIOSON Research Institute, Dept. of Biophysical Chemistry
 * University of Groningen, The Netherlands
 * 
 * This program is free software; you can redistribute it and/or
 * modify it under the terms of the GNU General Public License
 * as published by the Free Software Foundation; either version 2
 * of the License, or (at your option) any later version.
 * 
 * If you want to redistribute modifications, please consider that
 * scientific software is very special. Version control is crucial -
 * bugs must be traceable. We will be happy to consider code for
 * inclusion in the official distribution, but derived work must not
 * be called official GROMACS. Details are found in the README & COPYING
 * files - if they are missing, get the official version at www.gromacs.org.
 * 
 * To help us fund GROMACS development, we humbly ask that you cite
 * the papers on the package - you can find them in the top README file.
 * 
 * Do check out http://www.gromacs.org , or mail us at gromacs@gromacs.org .
 * 
 * And Hey:
 * GROup of MAchos and Cynical Suckers
 */

#ifndef	_alert_bm
#define	_alert_bm


#define alert_width 48
#define alert_height 42
static unsigned char alert_bits[] = {
   0x00, 0x00, 0x80, 0x01, 0x00, 0x00, 0x00, 0x00, 0xc0, 0x03, 0x00, 0x00,
   0x00, 0x00, 0xc0, 0x03, 0x00, 0x00, 0x00, 0x00, 0xe0, 0x07, 0x00, 0x00,
   0x00, 0x00, 0xe0, 0x07, 0x00, 0x00, 0x00, 0x00, 0xf0, 0x0f, 0x00, 0x00,
   0x00, 0x00, 0xf0, 0x0f, 0x00, 0x00, 0x00, 0x00, 0x78, 0x1e, 0x00, 0x00,
   0x00, 0x00, 0x78, 0x1e, 0x00, 0x00, 0x00, 0x00, 0x3c, 0x3c, 0x00, 0x00,
   0x00, 0x00, 0x3e, 0x7c, 0x00, 0x00, 0x00, 0x00, 0x1e, 0x78, 0x00, 0x00,
   0x00, 0x00, 0x1f, 0xf8, 0x00, 0x00, 0x00, 0x00, 0x0f, 0xf0, 0x00, 0x00,
   0x00, 0x80, 0x0f, 0xf0, 0x01, 0x00, 0x00, 0x80, 0x87, 0xe1, 0x01, 0x00,
   0x00, 0xc0, 0xc7, 0xe3, 0x03, 0x00, 0x00, 0xe0, 0xc3, 0xc3, 0x07, 0x00,
   0x00, 0xe0, 0xc1, 0x83, 0x07, 0x00, 0x00, 0xf0, 0xc1, 0x83, 0x0f, 0x00,
   0x00, 0xf0, 0xc0, 0x03, 0x0f, 0x00, 0x00, 0xf8, 0xc0, 0x03, 0x1f, 0x00,
   0x00, 0x78, 0xc0, 0x03, 0x1e, 0x00, 0x00, 0x7c, 0xc0, 0x03, 0x3e, 0x00,
   0x00, 0x3c, 0xc0, 0x03, 0x3c, 0x00, 0x00, 0x3e, 0xc0, 0x03, 0x7c, 0x00,
   0x00, 0x1f, 0xc0, 0x03, 0xf8, 0x00, 0x00, 0x0f, 0x80, 0x01, 0xf0, 0x00,
   0x80, 0x0f, 0x80, 0x01, 0xf0, 0x01, 0x80, 0x07, 0x80, 0x01, 0xe0, 0x01,
   0xc0, 0x07, 0x00, 0x00, 0xe0, 0x03, 0xc0, 0x03, 0x00, 0x00, 0xc0, 0x03,
   0xe0, 0x03, 0x80, 0x01, 0xc0, 0x07, 0xf0, 0x01, 0xc0, 0x03, 0x80, 0x0f,
   0xf0, 0x01, 0xc0, 0x03, 0x80, 0x0f, 0xf8, 0x00, 0x80, 0x01, 0x00, 0x1f,
   0xf8, 0x00, 0x00, 0x00, 0x00, 0x1f, 0x7c, 0x00, 0x00, 0x00, 0x00, 0x3e,
   0xfc, 0xff, 0xff, 0xff, 0xff, 0x3f, 0xfe, 0xff, 0xff, 0xff, 0xff, 0x7f,
   0xfe, 0xff, 0xff, 0xff, 0xff, 0x7f, 0xff, 0xff, 0xff, 0xff, 0xff, 0xff};
#endif	/* _alert_bm */
