/*
 *	@(#) gromacs.bm 1.9 9/29/92
 *
 *
 *	GROMACS - Groningen Machine for Chemical Simulation
 *	Copyright (c) 1990, 1991, 1992, Groningen University
 *
 */

#ifndef	_gromacs_bm
#define	_gromacs_bm

#ifdef HAVE_IDENT
#ident	"@(#) gromacs.bm 1.9 9/29/92"
#endif /* HAVE_IDENT */

#define gromacs_width 48
#define gromacs_height 48
static unsigned char gromacs_bits[] = {
   0x00, 0x00, 0xf8, 0x1f, 0x00, 0x00, 0x00, 0x80, 0xff, 0xff, 0x01, 0x00,
   0x00, 0xe0, 0x0f, 0xf0, 0x07, 0x00, 0x00, 0xf8, 0x00, 0x00, 0x1f, 0x00,
   0x00, 0x3c, 0x00, 0x00, 0x3c, 0x00, 0x00, 0x0f, 0x00, 0x1f, 0xf0, 0x00,
   0x80, 0x07, 0x80, 0x20, 0xe0, 0x01, 0xc0, 0x01, 0x40, 0x40, 0x80, 0x03,
   0xe0, 0x00, 0x20, 0x80, 0x00, 0x07, 0x60, 0x00, 0x20, 0x80, 0x00, 0x06,
   0x70, 0x00, 0x20, 0x80, 0x38, 0x0e, 0x38, 0x00, 0x20, 0x80, 0x7c, 0x1c,
   0x18, 0x00, 0x20, 0x80, 0x7c, 0x18, 0x1c, 0x00, 0x40, 0x40, 0x7c, 0x38,
   0x0c, 0x00, 0x80, 0x20, 0x38, 0x30, 0x0e, 0x00, 0x00, 0x1f, 0x00, 0x70,
   0x06, 0x00, 0x00, 0x00, 0x00, 0x60, 0x06, 0x00, 0x00, 0x00, 0x3e, 0x60,
   0x06, 0x00, 0x00, 0x80, 0xc1, 0x60, 0x07, 0x00, 0x00, 0x40, 0x00, 0xe1,
   0x03, 0x00, 0x00, 0x20, 0x00, 0xc2, 0x03, 0x1f, 0x00, 0x20, 0x00, 0xc2,
   0x83, 0x3f, 0x00, 0x10, 0x00, 0xc4, 0xc3, 0x7f, 0x00, 0x10, 0x00, 0xc4,
   0xe3, 0xff, 0x00, 0x10, 0x00, 0xc4, 0xe3, 0xff, 0x00, 0x10, 0x00, 0xc4,
   0xe3, 0xff, 0x00, 0x10, 0x00, 0xc4, 0xe3, 0xff, 0x00, 0x20, 0x00, 0xc2,
   0xe7, 0xff, 0x00, 0x20, 0x00, 0xe2, 0xc6, 0x7f, 0x00, 0x40, 0x00, 0x61,
   0x86, 0x3f, 0x00, 0x80, 0xc1, 0x60, 0x06, 0x1f, 0x00, 0x00, 0x3e, 0x60,
   0x0e, 0x00, 0x00, 0x00, 0x00, 0x70, 0x0c, 0x00, 0x00, 0x00, 0x00, 0x30,
   0x1c, 0x00, 0xf0, 0x01, 0x00, 0x38, 0x18, 0x00, 0x08, 0x02, 0x00, 0x18,
   0x38, 0x00, 0x04, 0x04, 0x00, 0x1c, 0x70, 0x00, 0x04, 0x04, 0x00, 0x0e,
   0x60, 0x00, 0x04, 0x04, 0x00, 0x06, 0xe0, 0x00, 0x04, 0x04, 0x00, 0x07,
   0xc0, 0x01, 0x04, 0x04, 0x80, 0x03, 0x80, 0x07, 0x08, 0x02, 0xe0, 0x01,
   0x00, 0x0f, 0xf0, 0x01, 0xf0, 0x00, 0x00, 0x3c, 0x00, 0x00, 0x3c, 0x00,
   0x00, 0xf8, 0x00, 0x00, 0x1f, 0x00, 0x00, 0xe0, 0x0f, 0xf0, 0x07, 0x00,
   0x00, 0x80, 0xff, 0xff, 0x01, 0x00, 0x00, 0x00, 0xf8, 0x1f, 0x00, 0x00};
#endif	/* _gromacs_bm */
