/*
 * 
 *                This source code is part of
 * 
 *                 G   R   O   M   A   C   S
 * 
 *          GROningen MAchine for Chemical Simulations
 * 
 *                        VERSION 3.0
 * 
 * Copyright (c) 1991-2001
 * BIOSON Research Institute, Dept. of Biophysical Chemistry
 * University of Groningen, The Netherlands
 * 
 * This program is free software; you can redistribute it and/or
 * modify it under the terms of the GNU General Public License
 * as published by the Free Software Foundation; either version 2
 * of the License, or (at your option) any later version.
 * 
 * If you want to redistribute modifications, please consider that
 * scientific software is very special. Version control is crucial -
 * bugs must be traceable. We will be happy to consider code for
 * inclusion in the official distribution, but derived work must not
 * be called official GROMACS. Details are found in the README & COPYING
 * files - if they are missing, get the official version at www.gromacs.org.
 * 
 * To help us fund GROMACS development, we humbly ask that you cite
 * the papers on the package - you can find them in the top README file.
 * 
 * Do check out http://www.gromacs.org , or mail us at gromacs@gromacs.org .
 * 
 * And Hey:
 * GROup of MAchos and Cynical Suckers
 */

#ifndef	_info_bm
#define	_info_bm

#define info_width 48
#define info_height 48
static unsigned char info_bits[] = {
   0x00, 0x00, 0xf0, 0x1f, 0x00, 0x00, 0x00, 0x00, 0xff, 0xff, 0x01, 0x00,
   0x00, 0xc0, 0xff, 0xff, 0x07, 0x00, 0x00, 0xf0, 0xff, 0xff, 0x1f, 0x00,
   0x00, 0xf8, 0xff, 0xff, 0x3f, 0x00, 0x00, 0xfe, 0xff, 0xff, 0xff, 0x00,
   0x00, 0xff, 0x7f, 0xfc, 0xff, 0x01, 0x80, 0xff, 0x3f, 0xf8, 0xff, 0x03,
   0xc0, 0xff, 0x1f, 0xf0, 0xff, 0x07, 0xc0, 0xff, 0x1f, 0xf0, 0xff, 0x07,
   0xe0, 0xff, 0x3f, 0xf8, 0xff, 0x0f, 0xf0, 0xff, 0x7f, 0xfc, 0xff, 0x1f,
   0xf0, 0xff, 0xff, 0xff, 0xff, 0x1f, 0xf8, 0xff, 0xff, 0xff, 0xff, 0x3f,
   0xf8, 0xff, 0xff, 0xff, 0xff, 0x3f, 0xfc, 0xff, 0x03, 0xf0, 0xff, 0x7f,
   0xfc, 0xff, 0x03, 0xf0, 0xff, 0x7f, 0xfc, 0xff, 0x03, 0xf0, 0xff, 0x7f,
   0xfc, 0xff, 0x1f, 0xf0, 0xff, 0x7f, 0xfe, 0xff, 0x1f, 0xf0, 0xff, 0xff,
   0xfe, 0xff, 0x1f, 0xf0, 0xff, 0xff, 0xfe, 0xff, 0x1f, 0xf0, 0xff, 0xff,
   0xfe, 0xff, 0x1f, 0xf0, 0xff, 0xff, 0xfe, 0xff, 0x1f, 0xf0, 0xff, 0xff,
   0xfe, 0xff, 0x1f, 0xf0, 0xff, 0xff, 0xfe, 0xff, 0x1f, 0xf0, 0xff, 0xff,
   0xfe, 0xff, 0x1f, 0xf0, 0xff, 0xff, 0xfe, 0xff, 0x1f, 0xf0, 0xff, 0xff,
   0xfc, 0xff, 0x1f, 0xf0, 0xff, 0x7f, 0xfc, 0xff, 0x1f, 0xf0, 0xff, 0x7f,
   0xfc, 0xff, 0x1f, 0xf0, 0xff, 0x7f, 0xfc, 0xff, 0x1f, 0xf0, 0xff, 0x7f,
   0xf8, 0xff, 0x1f, 0xf0, 0xff, 0x3f, 0xf8, 0xff, 0x1f, 0xf0, 0xff, 0x3f,
   0xf0, 0xff, 0x03, 0x80, 0xff, 0x1f, 0xf0, 0xff, 0x03, 0x80, 0xff, 0x1f,
   0xe0, 0xff, 0x03, 0x80, 0xff, 0x0f, 0xc0, 0xff, 0xff, 0xff, 0xff, 0x07,
   0xc0, 0xff, 0xff, 0xff, 0xff, 0x07, 0x80, 0xff, 0xff, 0xff, 0xff, 0x03,
   0x00, 0xff, 0xff, 0xff, 0xff, 0x01, 0x00, 0xfe, 0xff, 0xff, 0xff, 0x00,
   0x00, 0xf8, 0xff, 0xff, 0x3f, 0x00, 0x00, 0xf0, 0xff, 0xff, 0x1f, 0x00,
   0x00, 0xc0, 0xff, 0xff, 0x07, 0x00, 0x00, 0x00, 0xff, 0xff, 0x01, 0x00,
   0x00, 0x00, 0xf0, 0x1f, 0x00, 0x00, 0x00, 0x00, 0x00, 0x00, 0x00, 0x00};
#endif	/* _info_bm */
