/*
 *       @(#) play.bm 1.13 9/30/97
 *
 *       This source code is part of
 *
 *        G   R   O   M   A   C   S
 *
 * GROningen MAchine for Chemical Simulations
 *
 * Copyright (c) 1990-1995,
 * BIOSON Research Institute, Dept. of Biophysical Chemistry,
 * University of Groningen, The Netherlands
 *
 * Please refer to:
 * GROMACS: A message-passing parallel molecular dynamics implementation
 * H.J.C. Berendsen, D. van der Spoel and R. van Drunen
 * Comp. Phys. Comm. 91, 43-56 (1995)
 *
 * Also check out our WWW page:
 * http://rugmd0.chem.rug.nl/~gmx
 * or e-mail to:
 * gromacs@chem.rug.nl
 *
 * And Hey:
 * Gyas ROwers Mature At Cryogenic Speed
 */

#ifndef	_play_bm
#define	_play_bm

#ifdef HAVE_IDENT
#ident	"@(#) play.bm 1.2 11/23/92"
#endif /* HAVE_IDENT */
#define play_width 40
#define play_height 32
static unsigned char play_bits[] = {
   0x00, 0x00, 0x00, 0x00, 0x00, 0x00, 0x00, 0x00, 0x00, 0x00, 0x00, 0x00,
   0x00, 0x00, 0x00, 0x00, 0x00, 0x00, 0x00, 0x00, 0x00, 0x00, 0x00, 0x00,
   0x00, 0x00, 0x08, 0x00, 0x03, 0x00, 0x00, 0x18, 0x00, 0x03, 0x00, 0x00,
   0x38, 0x00, 0x03, 0x00, 0x00, 0x78, 0x00, 0x03, 0x00, 0x00, 0xf8, 0x00,
   0x03, 0x00, 0x00, 0xf8, 0x01, 0x03, 0x00, 0x00, 0xf8, 0x03, 0x03, 0x00,
   0x00, 0xf8, 0x07, 0x03, 0x00, 0x00, 0xf8, 0x0f, 0x03, 0x00, 0x00, 0xf8,
   0x1f, 0x03, 0x00, 0x00, 0xf8, 0x3f, 0x03, 0x00, 0x00, 0xf8, 0x1f, 0x03,
   0x00, 0x00, 0xf8, 0x0f, 0x03, 0x00, 0x00, 0xf8, 0x07, 0x03, 0x00, 0x00,
   0xf8, 0x03, 0x03, 0x00, 0x00, 0xf8, 0x01, 0x03, 0x00, 0x00, 0xf8, 0x00,
   0x03, 0x00, 0x00, 0x78, 0x00, 0x03, 0x00, 0x00, 0x38, 0x00, 0x03, 0x00,
   0x00, 0x18, 0x00, 0x03, 0x00, 0x00, 0x08, 0x00, 0x03, 0x00, 0x00, 0x00,
   0x00, 0x00, 0x00, 0x00, 0x00, 0x00, 0x00, 0x00, 0x00, 0x00, 0x00, 0x00,
   0x00, 0x00, 0x00, 0x00, 0x00, 0x00, 0x00, 0x00, 0x00, 0x00, 0x00, 0x00,
   0x00, 0x00, 0x00, 0x00};

#endif	/* _play_bm */
