/*
 *	@(#) stop.bm 1.4 9/29/92
 *
 *
 *	GROMACS - Groningen Machine for Chemical Simulation
 *	Copyright (c) 1990, 1991, 1992, Groningen University
 *
 */

#ifndef	_stop_bm
#define	_stop_bm

#ifdef HAVE_IDENT
#ident	"@(#) stop.bm 1.4 9/29/92"
#endif /* HAVE_IDENT */

#define stop_width 48
#define stop_height 48
#define stop_x_hot -1
#define stop_y_hot -1
static unsigned char stop_bits[] = {
   0x00, 0xf0, 0xff, 0xff, 0x0f, 0x00, 0x00, 0xf8, 0xff, 0xff, 0x1f, 0x00,
   0x00, 0x1c, 0x00, 0x00, 0x38, 0x00, 0x00, 0xee, 0xff, 0xff, 0x77, 0x00,
   0x00, 0xf7, 0xff, 0xff, 0xef, 0x00, 0x80, 0xfb, 0xff, 0xff, 0xdf, 0x01,
   0xc0, 0xfd, 0xff, 0xff, 0xbf, 0x03, 0xe0, 0xfe, 0xff, 0xff, 0x7f, 0x07,
   0x70, 0xff, 0xff, 0xff, 0xff, 0x0e, 0xb8, 0xff, 0xff, 0xff, 0xff, 0x1d,
   0xdc, 0xff, 0xff, 0xff, 0xff, 0x3b, 0xee, 0xff, 0xff, 0xff, 0xff, 0x77,
   0xf7, 0xff, 0xff, 0xff, 0xff, 0xef, 0x7b, 0x70, 0x80, 0x83, 0x03, 0xdf,
   0x3b, 0x60, 0x80, 0x01, 0x03, 0xde, 0x1b, 0xcf, 0xf3, 0x7c, 0x72, 0xdc,
   0x9b, 0xff, 0xf3, 0x7c, 0xf2, 0xdc, 0x9b, 0xff, 0xf3, 0x7c, 0xf2, 0xdc,
   0x9b, 0xff, 0xf3, 0x7c, 0xf2, 0xdc, 0x9b, 0xff, 0xf3, 0x7c, 0xf2, 0xdc,
   0x9b, 0xff, 0xf3, 0x7c, 0xf2, 0xdc, 0x1b, 0xff, 0xf3, 0x7c, 0xf2, 0xdc,
   0x3b, 0xf0, 0xf3, 0x7c, 0x72, 0xdc, 0x7b, 0xe0, 0xf3, 0x7c, 0x02, 0xde,
   0xfb, 0xc7, 0xf3, 0x7c, 0x02, 0xdf, 0xfb, 0xcf, 0xf3, 0x7c, 0xf2, 0xdf,
   0xfb, 0xcf, 0xf3, 0x7c, 0xf2, 0xdf, 0xfb, 0xcf, 0xf3, 0x7c, 0xf2, 0xdf,
   0xfb, 0xcf, 0xf3, 0x7c, 0xf2, 0xdf, 0xfb, 0xcf, 0xf3, 0x7c, 0xf2, 0xdf,
   0xfb, 0xcf, 0xf3, 0x7c, 0xf2, 0xdf, 0xdb, 0xe7, 0xf3, 0x7c, 0xf2, 0xdf,
   0x1b, 0xf0, 0xf3, 0x01, 0xf3, 0xdf, 0x3b, 0xf8, 0xf3, 0x83, 0xf3, 0xdf,
   0xf7, 0xff, 0xff, 0xff, 0xff, 0xef, 0xee, 0xff, 0xff, 0xff, 0xff, 0x77,
   0xdc, 0xff, 0xff, 0xff, 0xff, 0x3b, 0xb8, 0xff, 0xff, 0xff, 0xff, 0x1d,
   0x70, 0xff, 0xff, 0xff, 0xff, 0x0e, 0xe0, 0xfe, 0xff, 0xff, 0x7f, 0x07,
   0xc0, 0xfd, 0xff, 0xff, 0xbf, 0x03, 0x80, 0xfb, 0xff, 0xff, 0xdf, 0x01,
   0x00, 0xf7, 0xff, 0xff, 0xef, 0x00, 0x00, 0xee, 0xff, 0xff, 0x77, 0x00,
   0x00, 0xdc, 0xff, 0xff, 0x3b, 0x00, 0x00, 0x38, 0x00, 0x00, 0x1c, 0x00,
   0x00, 0xf0, 0xff, 0xff, 0x0f, 0x00, 0x00, 0xe0, 0xff, 0xff, 0x07, 0x00};
#endif	/* _stop_bm */
