/*
 *       @(#) stop_ani.bm 1.13 9/30/97
 *
 *       This source code is part of
 *
 *        G   R   O   M   A   C   S
 *
 * GROningen MAchine for Chemical Simulations
 *
 * Copyright (c) 1990-1995,
 * BIOSON Research Institute, Dept. of Biophysical Chemistry,
 * University of Groningen, The Netherlands
 *
 * Please refer to:
 * GROMACS: A message-passing parallel molecular dynamics implementation
 * H.J.C. Berendsen, D. van der Spoel and R. van Drunen
 * Comp. Phys. Comm. 91, 43-56 (1995)
 *
 * Also check out our WWW page:
 * http://rugmd0.chem.rug.nl/~gmx
 * or e-mail to:
 * gromacs@chem.rug.nl
 *
 * And Hey:
 * Gyas ROwers Mature At Cryogenic Speed
 */

#ifndef	_stop_ani_bm
#define	_stop_ani_bm

#ifdef HAVE_IDENT
#ident	"@(#) stop_ani.bm 1.2 11/23/92"
#endif /* HAVE_IDENT */
#define stop_ani_width 40
#define stop_ani_height 32
static unsigned char stop_ani_bits[] = {
   0x00, 0x00, 0x00, 0x00, 0x00, 0x00, 0x00, 0x00, 0x00, 0x00, 0x00, 0x00,
   0x00, 0x00, 0x00, 0x00, 0x00, 0x00, 0x00, 0x00, 0x00, 0x00, 0x00, 0x00,
   0x00, 0x00, 0x00, 0x00, 0x00, 0x00, 0x00, 0x00, 0x00, 0x00, 0x00, 0x00,
   0xf0, 0xff, 0x07, 0x00, 0x00, 0xf0, 0xff, 0x07, 0x00, 0x00, 0xf0, 0xff,
   0x07, 0x00, 0x00, 0xf0, 0xff, 0x07, 0x00, 0x00, 0xf0, 0xff, 0x07, 0x00,
   0x00, 0xf0, 0xff, 0x07, 0x00, 0x00, 0xf0, 0xff, 0x07, 0x00, 0x00, 0xf0,
   0xff, 0x07, 0x00, 0x00, 0xf0, 0xff, 0x07, 0x00, 0x00, 0xf0, 0xff, 0x07,
   0x00, 0x00, 0xf0, 0xff, 0x07, 0x00, 0x00, 0xf0, 0xff, 0x07, 0x00, 0x00,
   0x00, 0x00, 0x00, 0x00, 0x00, 0x00, 0x00, 0x00, 0x00, 0x00, 0x00, 0x00,
   0x00, 0x00, 0x00, 0xf0, 0xff, 0x07, 0x00, 0x00, 0xf0, 0xff, 0x07, 0x00,
   0x00, 0xf0, 0xff, 0x07, 0x00, 0x00, 0x00, 0x00, 0x00, 0x00, 0x00, 0x00,
   0x00, 0x00, 0x00, 0x00, 0x00, 0x00, 0x00, 0x00, 0x00, 0x00, 0x00, 0x00,
   0x00, 0x00, 0x00, 0x00, 0x00, 0x00, 0x00, 0x00, 0x00, 0x00, 0x00, 0x00,
   0x00, 0x00, 0x00, 0x00};

#endif	/* _stop_ani_bm */
